<svg width="150" height="200" viewBox="0 0 150 200" fill="none" xmlns="http://www.w3.org/2000/svg">
<rect width="150" height="200" fill="#B2DFDB"/>
<g clip-path="url(#clip0_10888_17651)">
<path d="M30.4582 116.009C37.5511 99.6447 60.8587 91.173 89.4822 100.277C98.2224 103.057 109.033 107.008 110.001 112.155C114.561 136.416 95.0653 146.568 84.4145 147.158C63.1359 148.336 60.8549 156.256 52.4106 156.593C40.5134 157.067 39.5934 155.165 35.419 150.418C25.9192 139.613 26.509 125.115 30.4563 116.011L30.4582 116.009Z" fill="#F1F1F1"/>
<path d="M47.726 145.394C40.0033 147.995 26.8406 145.863 25.1208 136.534C24.7696 134.624 23.6606 135.049 22.6547 138.644C20.8108 145.236 24.7658 151.425 27.8427 152.588C28.9001 152.988 27.6613 153.32 25.5827 153.312C24.3229 153.308 25.5846 154.011 26.5294 154.752C27.898 155.825 36.1705 158.508 43.3569 153.436C48.9743 149.469 52.7727 143.692 47.7279 145.392L47.726 145.394Z" fill="#F1F1F1"/>
<path d="M37.8058 130.141C46.9258 124.75 58.7466 127.614 64.49 133.174C69.4356 137.963 70.5274 143.579 64.322 150.022C63.0794 151.312 59.2562 153.435 62.5488 152.803C65.2306 152.288 69.2046 151.78 72.0066 151.287C74.8774 150.782 78.4582 151.54 80.2314 156.341C82.3826 162.167 77.0648 161.817 73.6443 161.817H45.1525C43.5568 161.817 41.9153 161.429 40.7185 159.416C39.3519 157.114 40.9266 155.263 35.7787 150.129C27.4184 141.789 29.4302 135.094 37.8058 130.143V130.141Z" fill="#F1F1F1"/>
<mask id="mask0_10888_17651" style="mask-type:luminance" maskUnits="userSpaceOnUse" x="30" y="127" width="51" height="35">
<path d="M37.8058 130.141C46.9258 124.75 58.7466 127.614 64.49 133.174C69.4356 137.963 70.5274 143.579 64.322 150.022C63.0794 151.312 59.2562 153.435 62.5488 152.803C65.2306 152.288 69.2046 151.78 72.0066 151.287C74.8774 150.782 78.4582 151.54 80.2314 156.341C82.3826 162.167 77.0648 161.817 73.6443 161.817H45.1525C43.5568 161.817 41.9153 161.429 40.7185 159.416C39.3519 157.114 40.9266 155.263 35.7787 150.129C27.4184 141.789 29.4302 135.094 37.8058 130.143V130.141Z" fill="white"/>
</mask>
<g mask="url(#mask0_10888_17651)">
<path d="M77.82 162.614C77.839 161.339 77.8963 160.063 77.5585 158.823C77.5432 158.768 77.5756 158.709 77.631 158.694C77.6768 158.68 77.7226 158.699 77.7474 158.737C77.9326 159.021 78.0681 159.335 78.175 159.655C78.4785 160.607 78.5644 161.628 78.5835 162.614C78.5873 162.824 78.4193 162.997 78.2074 163.001C77.9917 163.005 77.8161 162.828 77.82 162.614Z" fill="#F1D2D2"/>
<path d="M75.2028 162.614C75.2219 161.339 75.2791 160.063 74.9413 158.823C74.926 158.768 74.9585 158.709 75.0138 158.694C75.0596 158.68 75.1054 158.699 75.1302 158.737C75.3154 159.021 75.4509 159.335 75.5578 159.655C75.8613 160.607 75.9472 161.628 75.9663 162.614C75.9701 162.824 75.8021 162.997 75.5902 163.001C75.3746 163.005 75.199 162.828 75.2028 162.614Z" fill="#F1D2D2"/>
</g>
<path d="M89.1687 136.29C89.8082 141.044 91.0679 145.767 92.3353 149.558C93.4004 152.744 94.6793 153.475 96.0727 155.055C98.3975 157.691 98.1627 160.553 96.6758 160.553H87.8937C85.4448 160.553 84.1602 159.058 82.2648 155.75C78.2125 148.674 74.5649 143.044 74.0324 136.543C73.3987 128.835 87.5215 124.032 89.1687 136.29Z" fill="#F1F1F1"/>
<mask id="mask1_10888_17651" style="mask-type:luminance" maskUnits="userSpaceOnUse" x="74" y="128" width="24" height="33">
<path d="M89.1687 136.29C89.8082 141.044 91.0679 145.767 92.3353 149.558C93.4004 152.744 94.6793 153.475 96.0727 155.055C98.3975 157.691 98.1627 160.553 96.6758 160.553H87.8937C85.4448 160.553 84.1602 159.058 82.2648 155.75C78.2125 148.674 74.5649 143.044 74.0324 136.543C73.3987 128.835 87.5215 124.032 89.1687 136.29Z" fill="white"/>
</mask>
<g mask="url(#mask1_10888_17651)">
<path d="M95.62 161.71C95.578 160.404 95.4883 158.982 94.784 157.833C94.7229 157.734 94.5588 157.809 94.595 157.921C94.9329 159.161 94.8756 160.434 94.8565 161.71C94.8622 162.219 95.6143 162.221 95.62 161.71Z" fill="#F1D2D2"/>
<path d="M93.0028 161.71C92.9608 160.404 92.8711 158.982 92.1668 157.833C92.1057 157.734 91.9416 157.809 91.9778 157.921C92.3157 159.161 92.2584 160.434 92.2393 161.71C92.2451 162.219 92.9971 162.221 93.0028 161.71Z" fill="#F1D2D2"/>
<path d="M90.3856 161.71C90.3436 160.404 90.2539 158.982 89.5496 157.833C89.4885 157.734 89.3244 157.809 89.3606 157.921C89.6985 159.161 89.6412 160.434 89.6221 161.71C89.6279 162.219 90.3799 162.221 90.3856 161.71Z" fill="#F1D2D2"/>
</g>
<path d="M98.2898 133.258C98.9293 138.013 100.189 142.735 101.456 146.527C102.522 149.712 103.8 150.444 105.194 152.024C107.519 154.659 107.284 157.521 105.797 157.521H97.0148C94.5659 157.521 93.2813 156.027 91.3859 152.719C87.3336 145.643 83.686 140.012 83.1535 133.512C82.5198 125.803 96.6426 121.001 98.2898 133.258Z" fill="#F1F1F1"/>
<mask id="mask2_10888_17651" style="mask-type:luminance" maskUnits="userSpaceOnUse" x="83" y="125" width="24" height="33">
<path d="M98.2898 133.258C98.9293 138.013 100.189 142.735 101.456 146.527C102.522 149.712 103.8 150.444 105.194 152.024C107.519 154.659 107.284 157.521 105.797 157.521H97.0148C94.5659 157.521 93.2813 156.027 91.3859 152.719C87.3336 145.643 83.686 140.012 83.1535 133.512C82.5198 125.803 96.6426 121.001 98.2898 133.258Z" fill="white"/>
</mask>
<g mask="url(#mask2_10888_17651)">
<path d="M104.741 158.677C104.699 157.371 104.609 155.948 103.905 154.8C103.844 154.701 103.68 154.775 103.716 154.888C104.054 156.127 103.997 157.401 103.978 158.677C103.983 159.186 104.735 159.187 104.741 158.677Z" fill="#F1D2D2"/>
<path d="M102.124 158.677C102.082 157.371 101.992 155.948 101.288 154.8C101.227 154.701 101.063 154.775 101.099 154.888C101.437 156.127 101.38 157.401 101.36 158.677C101.366 159.186 102.118 159.187 102.124 158.677Z" fill="#F1D2D2"/>
</g>
<path d="M76.1232 135.593C75.1726 139.005 75.0887 140.795 76.9039 145.175C77.3792 146.319 77.5299 147.418 76.608 146.27C76.2244 145.793 74.3538 142.6 73.9052 141.467C73.2715 139.866 72.7256 139.483 73.7144 137.234C74.8539 134.644 76.7684 133.268 76.1213 135.591L76.1232 135.593Z" fill="#F1D2D2"/>
<path d="M91.2615 144.166C90.2479 144.419 90.1639 144.67 90.6697 146.018C91.1336 147.254 92.2483 149.663 93.2026 152.041C93.7944 153.515 95.5256 153.98 96.5811 155.749C97.4477 157.202 97.566 156.788 97.3408 155.537C97.0449 153.894 94.9224 153.115 94.0902 151.114C92.6548 147.66 92.107 146.001 92.8228 145.554C93.8364 144.922 95.9474 144.247 97.5298 142.922C98.612 142.016 98.3181 141.664 97.1499 142.101C94.1093 143.238 93.7371 143.547 91.2595 144.166H91.2615Z" fill="#F1D2D2"/>
<path d="M69.2613 142.017C69.6831 137.721 66.5585 132.077 60.817 128.96C57.0186 126.898 58.1944 128.442 60.5631 129.971C63.4339 131.824 68.4157 137.638 66.9803 143.112C65.419 149.068 61.069 150.609 55.3275 152.631C53.9761 153.107 56.7132 153.088 59.0438 152.378C67.0662 149.935 68.8471 146.227 69.2613 142.017Z" fill="#F1D2D2"/>
<path d="M94.6778 73.0643C87.6708 60.7252 85.5941 50.3836 84.5653 44.8633C83.5365 39.3431 83.0078 34.6284 88.4267 41.2073C92.7061 46.4019 107.26 63.3282 105.338 76.2176C103.7 87.2009 97.978 78.8758 94.6778 73.0643Z" fill="#F2B5B6"/>
<path d="M94.4832 69.9399C87.8923 57.3304 78.1577 49.1177 73.1644 45.5397C68.1692 41.9618 63.8822 38.7799 65.7585 47.1526C67.2416 53.762 71.687 77.7375 87.5487 81.8525C101.066 85.36 97.5887 75.879 94.4832 69.9399Z" fill="#F1F1F1"/>
<path d="M92.8568 77.4052C87.1878 66.7418 75.5273 54.397 73.2998 52.2967C69.551 48.7625 70.7516 53.2583 72.8665 58.3272C74.9814 63.3981 79.675 73.1646 85.3745 76.4589C91.074 79.755 95.1721 81.7563 92.8568 77.4033V77.4052Z" fill="#FAC1C2"/>
<path d="M79.5667 96.779C80.357 94.3473 80.8952 89.4403 81.9737 86.1651C84.7604 77.6991 91.3819 73.9707 98.6293 73.9707C105.877 73.9707 111.676 76.6251 117.312 84.08C119.393 86.8335 125.325 95.9907 126.115 98.4223C128.142 104.657 125.43 110.228 122.189 111.437C115.413 113.964 104.774 115.482 102.113 115.482C99.452 115.482 91.0975 115.387 85.3941 111.186C80.0745 107.269 77.5416 103.015 79.5667 96.7809V96.779Z" fill="#F1F1F1"/>
<mask id="mask3_10888_17651" style="mask-type:luminance" maskUnits="userSpaceOnUse" x="78" y="73" width="49" height="43">
<path d="M79.5667 96.779C80.357 94.3473 80.8952 89.4403 81.9737 86.1651C84.7604 77.6991 91.3819 73.9707 98.6293 73.9707C105.877 73.9707 111.676 76.6251 117.312 84.08C119.393 86.8335 125.325 95.9907 126.115 98.4223C128.142 104.657 125.43 110.228 122.189 111.437C115.413 113.964 104.774 115.482 102.113 115.482C99.452 115.482 91.0975 115.387 85.3941 111.186C80.0745 107.269 77.5416 103.015 79.5667 96.7809V96.779Z" fill="white"/>
</mask>
<g mask="url(#mask3_10888_17651)">
<path d="M97.4351 108.613C101.256 104.801 101.256 98.6208 97.4351 94.809C93.6142 90.9971 87.4191 90.9971 83.5982 94.809C79.7772 98.6208 79.7772 104.801 83.5982 108.613C87.4191 112.425 93.6142 112.425 97.4351 108.613Z" fill="#FAC1C2"/>
</g>
<path d="M100.694 94.1886C100.591 92.1492 98.1616 90.6564 96.1135 90.6602C94.8308 90.6621 94.5178 90.8049 94.68 91.4314C94.9893 92.6139 93.7085 93.4955 95.1019 95.8967C95.7986 97.0963 97.8676 97.3667 99.24 97.1172C100.945 96.8088 100.817 96.6469 100.694 94.1867V94.1886Z" fill="black"/>
<path d="M115.006 101.051C115.779 101.565 117.669 102.384 118.127 102.384C118.585 102.384 119.721 101.615 120.385 100.857C121.332 99.777 121.034 101.11 120.797 101.584C120.247 102.679 118.961 104.016 118.201 104.016C116.541 104.016 115.008 102.593 114.092 100.994C113.828 100.535 113.926 100.331 115.008 101.051H115.006Z" fill="#F1D2D2"/>
<path d="M113.868 105.625C114.504 106.118 116.311 106.549 117.26 105.671C117.655 105.305 117.485 103.845 117.468 103.064C117.455 102.392 118.552 102.401 118.567 103.073C118.585 103.854 118.529 105.309 118.94 105.657C119.924 106.495 121.085 105.49 121.419 105.054C121.831 104.517 122.368 104.597 121.732 105.882C121.337 106.68 120.703 107.504 119.583 107.327C118.911 107.223 118.686 106.748 118.157 106.758C117.63 106.769 117.271 107.344 116.605 107.48C115.492 107.702 114.219 107.413 113.261 106.457C112.244 105.444 112.435 104.511 113.868 105.625Z" fill="#F1D2D2"/>
</g>
<defs>
<clipPath id="clip0_10888_17651">
<rect width="104.63" height="125" fill="white" transform="translate(22.1836 38)"/>
</clipPath>
</defs>
</svg>
