<svg width="150" height="200" viewBox="0 0 150 200" fill="none" xmlns="http://www.w3.org/2000/svg">
<rect width="150" height="200" fill="#B2DFDB"/>
<g clip-path="url(#clip0_10888_17703)">
<path d="M54.1025 72.1692C51.6232 66.8023 48.6351 61.6099 44.6168 57.2838C41.5999 54.0361 37.9642 51.2892 33.9096 49.5605C31.6929 55.6756 30.9165 63.1641 30.7352 65.1816C28.6548 88.3539 40.5735 108.178 50.0116 120.211C51.5432 119.011 53.8999 117.449 57.0706 116.324C59.4811 115.469 61.654 115.117 63.3406 114.977C63.4219 100.26 60.27 85.5217 54.1012 72.1679L54.1025 72.1692Z" fill="#F1F1F1"/>
<path d="M56.7673 54.829C54.5619 51.3001 47.3967 39.837 40.9041 41.0961C37.6872 41.7201 35.4505 45.308 33.9102 49.5613C37.9647 51.29 41.6005 54.0369 44.6173 57.2846C48.6357 61.6107 51.6238 66.8043 54.103 72.17C60.2718 85.5237 63.4237 100.262 63.3424 114.979C63.4562 114.971 63.5674 114.962 63.6762 114.954C67.0969 99.2466 69.3724 74.9984 56.7673 54.8303V54.829Z" fill="#F1F1F1"/>
<path d="M44.6153 57.2825C42.9362 55.4747 41.0646 53.8226 39.0367 52.4141C35.3797 57.4621 34.287 67.907 34.0819 70.1781C32.3166 89.8302 42.4249 106.644 50.4302 116.849C51.7293 115.831 53.7284 114.506 56.4177 113.552C58.5994 112.779 60.5536 112.49 62.0189 112.389C62.3914 110.68 62.7465 108.851 63.0628 106.926C62.1701 94.9272 59.1433 83.0849 54.101 72.1679C51.6217 66.801 48.6336 61.6087 44.6153 57.2825Z" fill="#FAC1C2"/>
<path d="M56.1586 61.3972C54.2883 58.4043 48.2108 48.6812 42.7047 49.7496C41.2606 50.0295 40.0491 51.0138 39.0352 52.4135C41.0631 53.8221 42.9347 55.4742 44.6138 57.282C48.6321 61.6081 51.6202 66.8017 54.0995 72.1674C59.143 83.0844 62.1699 94.9266 63.0613 106.926C65.2055 93.847 65.4768 76.3064 56.1574 61.396L56.1586 61.3972Z" fill="#E5ACB1"/>
<path d="M95.7028 72.0996C98.5409 66.916 101.877 61.9409 106.18 57.8997C109.411 54.8666 113.225 52.3759 117.387 50.9297C119.181 57.1829 119.446 64.7078 119.49 66.734C119.989 89.9942 106.749 108.955 96.513 120.312C95.0664 119.009 92.8222 117.289 89.7341 115.95C87.3873 114.932 85.2432 114.431 83.5703 114.176C84.4905 99.4876 88.6376 85.0002 95.7015 72.1009L95.7028 72.0996Z" fill="#F1F1F1"/>
<path d="M94.226 54.6195C96.6665 51.25 104.596 40.3054 110.987 42.0065C114.154 42.8488 116.14 46.5837 117.388 50.9311C113.226 52.3786 109.41 54.8681 106.181 57.9012C101.878 61.9423 98.5431 66.9175 95.7038 72.1011C88.6411 85.0004 84.4927 99.4878 83.5725 114.176C83.46 114.158 83.3487 114.143 83.2412 114.128C80.8982 98.2223 80.2781 73.875 94.226 54.6195Z" fill="#F1F1F1"/>
<path d="M106.179 57.902C107.977 56.2135 109.956 54.6932 112.075 53.4277C115.38 58.7143 115.76 69.2107 115.808 71.4905C116.232 91.218 105.002 107.298 96.322 116.931C95.0955 115.826 93.1913 114.368 90.5733 113.232C88.4491 112.31 86.52 111.888 85.0647 111.686C84.8096 109.956 84.5783 108.107 84.3945 106.165C86.1011 94.2548 89.9269 82.6473 95.7018 72.1019C98.5399 66.9183 101.876 61.9432 106.179 57.902Z" fill="#FAC1C2"/>
<path d="M94.3834 61.214C96.4538 58.3567 103.178 49.0729 108.599 50.5167C110.02 50.8945 111.162 51.9604 112.078 53.4267C109.959 54.6921 107.98 56.2124 106.182 57.901C101.879 61.9421 98.5443 66.9173 95.7049 72.1009C89.93 82.6463 86.1055 94.2525 84.3976 106.164C83.1486 92.9682 84.0713 75.4503 94.3834 61.214Z" fill="#E5ACB1"/>
<path d="M73.4458 115.967C50.2298 115.924 30.6896 135.939 31.1972 159.978C31.2547 159.993 31.3147 160 31.3772 160H31.771C32.1774 160 32.5062 159.669 32.5062 159.261V159.253C32.5062 136.593 50.8012 118.223 73.3683 118.223C95.9354 118.223 114.23 136.593 114.23 159.253V159.261C114.23 159.669 114.56 160 114.967 160H115.358C115.419 160 115.478 159.991 115.534 159.978C116.042 136.046 96.633 116.01 73.4445 115.967H73.4458Z" fill="#DDDCE2"/>
<path d="M73.3686 112.747C49.69 112.747 30.4961 132.022 30.4961 155.797C30.4961 156.982 30.5436 158.155 30.6374 159.315C30.6636 159.641 30.8949 159.903 31.1975 159.978C30.6899 135.94 50.2301 115.925 73.4461 115.967C96.6333 116.01 116.044 136.048 115.536 159.978C115.84 159.903 116.072 159.641 116.099 159.314C116.192 158.154 116.24 156.98 116.24 155.795C116.24 132.02 97.0459 112.746 73.3673 112.746L73.3686 112.747Z" fill="#F1F0F4"/>
</g>
<defs>
<clipPath id="clip0_10888_17703">
<rect width="89.0081" height="119" fill="white" transform="translate(30.4961 41)"/>
</clipPath>
</defs>
</svg>
