<svg width="150" height="200" viewBox="0 0 150 200" fill="none" xmlns="http://www.w3.org/2000/svg">
<rect width="150" height="200" fill="#8AE2FF"/>
<g clip-path="url(#clip0_10888_17719)">
<path d="M98.9358 121.316H47.1523V149.398H98.9358V121.316Z" fill="#FFEBE1"/>
<g style="mix-blend-mode:multiply">
<path d="M98.9358 121.316H80.5586V149.398H98.9358V121.316Z" fill="#FFEBE1"/>
</g>
<path d="M58.9767 118.152H53.2579C52.4186 118.152 51.7383 118.828 51.7383 119.662V121.484C51.7383 122.318 52.4186 122.994 53.2579 122.994H58.9767C59.816 122.994 60.4963 122.318 60.4963 121.484V119.662C60.4963 118.828 59.816 118.152 58.9767 118.152Z" fill="#FFEBE1"/>
<path d="M75.9025 118.152H70.1837C69.3444 118.152 68.6641 118.828 68.6641 119.662V121.484C68.6641 122.318 69.3444 122.994 70.1837 122.994H75.9025C76.7418 122.994 77.4221 122.318 77.4221 121.484V119.662C77.4221 118.828 76.7418 118.152 75.9025 118.152Z" fill="#FFEBE1"/>
<g style="mix-blend-mode:multiply">
<path d="M98.9358 147.471H47.1523V149.398H98.9358V147.471Z" fill="#FFEBE1"/>
</g>
<path d="M98.9358 97.3223H47.1523V125.403H98.9358V97.3223Z" fill="#00C0CF"/>
<g style="mix-blend-mode:multiply">
<path d="M98.9358 97.3223H80.5586V125.403H98.9358V97.3223Z" fill="#00C0CF"/>
</g>
<path d="M58.9767 94.1621H53.2579C52.4186 94.1621 51.7383 94.838 51.7383 95.6719V97.4936C51.7383 98.3274 52.4186 99.0034 53.2579 99.0034H58.9767C59.816 99.0034 60.4963 98.3274 60.4963 97.4936V95.6719C60.4963 94.838 59.816 94.1621 58.9767 94.1621Z" fill="#00C0CF"/>
<path d="M75.9025 94.1621H70.1837C69.3444 94.1621 68.6641 94.838 68.6641 95.6719V97.4936C68.6641 98.3274 69.3444 99.0034 70.1837 99.0034H75.9025C76.7418 99.0034 77.4221 98.3274 77.4221 97.4936V95.6719C77.4221 94.838 76.7418 94.1621 75.9025 94.1621Z" fill="#00C0CF"/>
<g style="mix-blend-mode:multiply">
<path d="M98.9358 123.477H47.1523V125.404H98.9358V123.477Z" fill="#00C0CF"/>
</g>
<path d="M98.9358 69.2422H47.1523V97.3234H98.9358V69.2422Z" fill="#FF4B3A"/>
<g style="mix-blend-mode:multiply">
<path d="M98.9358 69.2422H80.5586V97.3234H98.9358V69.2422Z" fill="#CE241B"/>
</g>
<path d="M58.9767 66.082H53.2579C52.4186 66.082 51.7383 66.758 51.7383 67.5918V69.4135C51.7383 70.2473 52.4186 70.9233 53.2579 70.9233H58.9767C59.816 70.9233 60.4963 70.2473 60.4963 69.4135V67.5918C60.4963 66.758 59.816 66.082 58.9767 66.082Z" fill="#FF4B3A"/>
<path d="M75.9025 66.082H70.1837C69.3444 66.082 68.6641 66.758 68.6641 67.5918V69.4135C68.6641 70.2473 69.3444 70.9233 70.1837 70.9233H75.9025C76.7418 70.9233 77.4221 70.2473 77.4221 69.4135V67.5918C77.4221 66.758 76.7418 66.082 75.9025 66.082Z" fill="#FF4B3A"/>
<g style="mix-blend-mode:multiply">
<path d="M98.9358 95.3965H47.1523V97.3239H98.9358V95.3965Z" fill="#FF4B3A"/>
</g>
<path d="M77.7834 126.918H26V154.999H77.7834V126.918Z" fill="#FFC700"/>
<g style="mix-blend-mode:multiply">
<path d="M77.7835 126.918H59.4062V154.999H77.7835V126.918Z" fill="#FFC700"/>
</g>
<path d="M37.8244 123.758H32.1056C31.2663 123.758 30.5859 124.434 30.5859 125.268V127.089C30.5859 127.923 31.2663 128.599 32.1056 128.599H37.8244C38.6636 128.599 39.344 127.923 39.344 127.089V125.268C39.344 124.434 38.6636 123.758 37.8244 123.758Z" fill="#FFC700"/>
<path d="M54.7502 123.758H49.0313C48.1921 123.758 47.5117 124.434 47.5117 125.268V127.089C47.5117 127.923 48.1921 128.599 49.0313 128.599H54.7502C55.5894 128.599 56.2698 127.923 56.2698 127.089V125.268C56.2698 124.434 55.5894 123.758 54.7502 123.758Z" fill="#FFC700"/>
<g style="mix-blend-mode:multiply">
<path d="M77.7834 153.072H26V155H77.7834V153.072Z" fill="#CCCCCC"/>
</g>
<path d="M123.994 126.918H72.2109V154.999H123.994V126.918Z" fill="#8BC114"/>
<g style="mix-blend-mode:multiply">
<path d="M123.998 126.918H105.621V154.999H123.998V126.918Z" fill="#8BC114"/>
</g>
<path d="M84.0353 123.758H78.3165C77.4772 123.758 76.7969 124.434 76.7969 125.268V127.089C76.7969 127.923 77.4772 128.599 78.3165 128.599H84.0353C84.8746 128.599 85.5549 127.923 85.5549 127.089V125.268C85.5549 124.434 84.8746 123.758 84.0353 123.758Z" fill="#8BC114"/>
<path d="M100.969 123.758H95.2501C94.4108 123.758 93.7305 124.434 93.7305 125.268V127.089C93.7305 127.923 94.4108 128.599 95.2501 128.599H100.969C101.808 128.599 102.489 127.923 102.489 127.089V125.268C102.489 124.434 101.808 123.758 100.969 123.758Z" fill="#8BC114"/>
<g style="mix-blend-mode:multiply">
<path d="M123.994 153.072H72.2109V155H123.994V153.072Z" fill="#8BC114"/>
</g>
<path d="M98.9358 41.1602H47.1523V69.2414H98.9358V41.1602Z" fill="#FFC700"/>
<g style="mix-blend-mode:multiply">
<path d="M98.9358 41.1602H80.5586V69.2414H98.9358V41.1602Z" fill="#FFC700"/>
</g>
<path d="M58.9767 38H53.2579C52.4186 38 51.7383 38.6759 51.7383 39.5097V41.3315C51.7383 42.1653 52.4186 42.8412 53.2579 42.8412H58.9767C59.816 42.8412 60.4963 42.1653 60.4963 41.3315V39.5097C60.4963 38.6759 59.816 38 58.9767 38Z" fill="#FFC700"/>
<path d="M75.9025 38H70.1837C69.3444 38 68.6641 38.6759 68.6641 39.5097V41.3315C68.6641 42.1653 69.3444 42.8412 70.1837 42.8412H75.9025C76.7418 42.8412 77.4221 42.1653 77.4221 41.3315V39.5097C77.4221 38.6759 76.7418 38 75.9025 38Z" fill="#FFC700"/>
<g style="mix-blend-mode:multiply">
<path d="M98.9358 67.3145H47.1523V69.2419H98.9358V67.3145Z" fill="#CCCCCC"/>
</g>
</g>
<defs>
<clipPath id="clip0_10888_17719">
<rect width="98" height="117" fill="white" transform="translate(26 38)"/>
</clipPath>
</defs>
</svg>
