<svg width="150" height="200" viewBox="0 0 150 200" fill="none" xmlns="http://www.w3.org/2000/svg">
<rect width="150" height="200" fill="#FFECB3"/>
<g clip-path="url(#clip0_10888_17902)">
<path d="M113.482 141.838C118.538 141.838 122.637 137.766 122.637 132.743C122.637 127.72 118.538 123.648 113.482 123.648C108.427 123.648 104.328 127.72 104.328 132.743C104.328 137.766 108.427 141.838 113.482 141.838Z" fill="#452A0A"/>
<path d="M113.484 137.108C115.911 137.108 117.878 135.154 117.878 132.743C117.878 130.331 115.911 128.377 113.484 128.377C111.057 128.377 109.09 130.331 109.09 132.743C109.09 135.154 111.057 137.108 113.484 137.108Z" fill="#774815"/>
<path d="M80.502 141.838C85.5578 141.838 89.6563 137.766 89.6563 132.743C89.6563 127.72 85.5578 123.648 80.502 123.648C75.4462 123.648 71.3477 127.72 71.3477 132.743C71.3477 137.766 75.4462 141.838 80.502 141.838Z" fill="#452A0A"/>
<path d="M80.5034 137.108C82.9302 137.108 84.8975 135.154 84.8975 132.743C84.8975 130.331 82.9302 128.377 80.5034 128.377C78.0767 128.377 76.1094 130.331 76.1094 132.743C76.1094 135.154 78.0767 137.108 80.5034 137.108Z" fill="#774815"/>
<path d="M104.588 68.1275L79.9922 60.418L73.3101 81.4607L97.9063 89.1703L104.588 68.1275Z" fill="#AEC212"/>
<g style="mix-blend-mode:multiply">
<path d="M104.582 68.1259L95.8555 65.3906L89.1733 86.4334L97.8997 89.1686L104.582 68.1259Z" fill="#CCCCCC"/>
</g>
<path d="M71.2128 85.935C71.2128 85.935 59.4594 75.7328 54.3171 84.3295C51.129 89.66 58.544 95.9671 57.6166 99.5814C57.4455 100.254 54.7987 101.309 54.7987 101.309C54.7987 101.309 59.0813 104.441 62.1381 102.211C64.6694 100.368 59.3639 92.3647 60.2634 89.3792C61.6087 84.9227 71.2128 85.935 71.2128 85.935Z" fill="#FF4B3A"/>
<path d="M70.9423 97.0574C84.3633 101.372 97.4102 100.486 109.956 96.5711L109.983 78.8913L77.7006 78.8399C70.9145 78.828 65.4418 83.0868 65.8278 89.651C66.6278 94.1985 67.9413 96.0886 70.9423 97.0535V97.0574Z" fill="#FFC700"/>
<path d="M109.021 92.8082L120.094 73.4834L111.811 66.4922C107.107 70.2053 102.482 76.3345 97.5742 83.1439L109.021 92.8043V92.8082Z" fill="#FFC700"/>
<path d="M55.0117 115.92L62.1003 120.091L63.1153 116.829L70.0805 105.152L80.1702 96.6936L70.0328 90.7266L55.0117 115.92Z" fill="#FFC700"/>
<path d="M122.32 116.031L115.215 120.18L114.212 116.913L107.287 105.212L97.0859 96.8016L107.383 90.791L122.32 116.031Z" fill="#FFC700"/>
<path d="M109.496 71.9355L121.735 80.5876C123.462 82.2247 126.201 82.1575 127.849 80.4413C129.146 79.085 129.373 77.0366 128.402 75.4351L119.777 61.2154C113.504 60.8239 109.815 64.0308 109.496 71.9395V71.9355Z" fill="#FFC700"/>
<path d="M103.426 70.4891C103.083 70.1806 102.749 69.8682 102.419 69.544C103.048 68.2707 103.808 67.0844 104.679 66.0009C105.113 66.163 105.539 66.3331 105.961 66.511C105.706 66.1314 105.46 65.7439 105.221 65.3524C106.347 64.0633 107.629 62.9363 109.038 61.9873C109.4 62.272 109.758 62.5607 110.104 62.8572C109.973 62.4183 109.854 61.9794 109.738 61.5365C110.884 60.8326 112.102 60.2395 113.376 59.7808C113.659 60.1446 113.933 60.5123 114.2 60.884C114.184 60.4293 114.172 59.9706 114.176 59.5119C115.533 59.0848 116.946 58.8001 118.391 58.6696C118.654 59.2786 118.896 59.8954 119.119 60.5123C119.271 59.8717 119.442 59.2351 119.633 58.5984C120.564 58.5747 121.507 58.6142 122.455 58.725C122.307 59.9706 122.1 63.0114 121.953 64.261C114.522 63.395 106.63 69.0339 104.158 76.0489C102.964 75.6337 100.839 74.2971 99.6445 73.8819C99.8157 73.4034 101.85 70.7936 102.053 70.3349C102.514 70.3784 102.972 70.4298 103.43 70.493L103.426 70.4891Z" fill="#FF4B3A"/>
<path d="M121.216 61.3085L116.301 66.7141L122.219 68.7783L121.777 61.5062C121.762 61.2255 121.411 61.1029 121.22 61.3125L121.216 61.3085Z" fill="#FFC700"/>
<path d="M120.101 71.8377C120.677 71.8377 121.144 71.3738 121.144 70.8017C121.144 70.2295 120.677 69.7656 120.101 69.7656C119.525 69.7656 119.059 70.2295 119.059 70.8017C119.059 71.3738 119.525 71.8377 120.101 71.8377Z" fill="black"/>
<path d="M119.842 71.1291C120.025 71.1291 120.172 70.9821 120.172 70.8009C120.172 70.6196 120.025 70.4727 119.842 70.4727C119.66 70.4727 119.512 70.6196 119.512 70.8009C119.512 70.9821 119.66 71.1291 119.842 71.1291Z" fill="white"/>
<path d="M88.9212 128.154C101.733 128.174 114.39 124.864 125.527 118.577L123.182 114.48C102.044 126.414 75.8027 126.371 54.7 114.369L52.3438 118.462C63.4603 124.785 76.1091 128.142 88.9172 128.162L88.9212 128.154Z" fill="#2FAFB8" stroke="#009FAF" stroke-width="0.85" stroke-miterlimit="10"/>
<path d="M123.081 119.953C124.908 119.953 126.388 118.482 126.388 116.667C126.388 114.852 124.908 113.381 123.081 113.381C121.254 113.381 119.773 114.852 119.773 116.667C119.773 118.482 121.254 119.953 123.081 119.953Z" fill="#2FAFB8" stroke="#009FAF" stroke-width="0.85" stroke-miterlimit="10"/>
<path d="M52.1942 119.83C54.0209 119.83 55.5017 118.359 55.5017 116.544C55.5017 114.729 54.0209 113.258 52.1942 113.258C50.3675 113.258 48.8867 114.729 48.8867 116.544C48.8867 118.359 50.3675 119.83 52.1942 119.83Z" fill="#2FAFB8" stroke="#009FAF" stroke-width="0.85" stroke-miterlimit="10"/>
<path d="M122.199 77.8791L112.09 66.6211" stroke="#00C0CF" stroke-width="1.7" stroke-linecap="round" stroke-linejoin="round"/>
<path d="M127.429 73.7285L120.086 79.5611" stroke="#00C0CF" stroke-width="1.7" stroke-linecap="round" stroke-linejoin="round"/>
<path d="M111.031 77.5079C112.059 77.5079 112.893 76.6793 112.893 75.6573C112.893 74.6352 112.059 73.8066 111.031 73.8066C110.002 73.8066 109.168 74.6352 109.168 75.6573C109.168 76.6793 110.002 77.5079 111.031 77.5079Z" fill="#FF4B3A"/>
<path d="M114.08 102.006L118.884 110.12L112.257 113.505L107.453 105.391L114.08 102.006Z" fill="#FF4B3A"/>
<path d="M58.4062 110.122L63.2342 102.023L69.8491 105.428L65.0212 113.527L58.4062 110.122Z" fill="#FF4B3A"/>
<path d="M85.6812 99.9246L88.9648 99.9297L88.9914 83.1317L85.7078 83.1266L85.6812 99.9246Z" fill="#009FAF"/>
<path d="M87.6653 78.2471C91.5579 78.255 95.1639 77.4008 98.1131 75.9536C98.2087 76.349 98.2604 76.7523 98.2604 77.1675C98.2525 81.2128 93.5081 84.483 87.6573 84.4751C81.8065 84.4672 77.0702 81.1772 77.0781 77.1319C77.0781 76.7167 77.1299 76.3134 77.2294 75.918C80.1747 77.3771 83.7767 78.2392 87.6693 78.2431L87.6653 78.2471Z" fill="#2FAFB8"/>
<mask id="mask0_10888_17902" style="mask-type:luminance" maskUnits="userSpaceOnUse" x="50" y="56" width="29" height="28">
<path d="M77.3719 64.701C77.0774 63.9497 76.3968 62.4747 75.1788 61.0037C74.554 60.2524 74.0166 59.7541 73.6186 59.4022C73.145 58.9831 72.4524 58.5006 71.931 58.1447C71.6445 57.947 71.2425 57.7177 70.9281 57.5674C70.6136 57.4171 70.2156 57.2194 69.9012 57.085C69.6066 56.9624 69.2126 56.8003 68.9061 56.7133C67.6245 56.3337 67.6007 56.3257 66.7847 56.1913C65.7937 56.0252 65.0295 56.0134 64.7031 56.0094C63.732 55.9936 62.9479 56.1003 62.6932 56.1359C61.7538 56.2625 61.0892 56.4523 60.7668 56.5393C58.8961 57.0652 57.4832 57.951 57.2205 58.121C56.715 58.4492 56.2812 58.7339 55.6324 59.2836C54.8801 59.9281 54.3786 60.4857 54.1956 60.6992C53.8772 61.0709 53.4473 61.5771 52.9458 62.3719C52.7388 62.7041 52.3488 63.3209 51.9269 64.3095C51.7995 64.6101 51.6562 65.0174 51.5408 65.3218C51.4254 65.6659 51.4533 66.0652 51.6324 66.524C52.7468 69.3118 59.1628 72.8153 66.5539 74.6738C66.5539 74.6699 66.5618 74.6659 66.5698 74.6659C66.5778 74.6659 66.5778 74.6738 66.5778 74.6778C66.5778 74.6817 66.5698 74.6857 66.5618 74.6857C66.5539 74.6857 66.5539 74.6778 66.5539 74.6738C59.1628 72.8153 52.7468 69.3078 51.6324 66.524C51.4493 66.0692 51.4254 65.6659 51.5408 65.3218C51.3935 65.7924 51.1985 66.429 51.111 66.9154C50.9876 67.6035 50.8443 68.3785 50.8363 69.205C50.8363 69.5253 50.8244 69.9524 50.8403 70.2727C50.8602 70.6444 50.9 71.1386 50.9518 71.5104C51.026 72.0587 51.1945 72.8113 51.4572 73.7683C51.6045 74.31 51.8911 75.0099 52.1378 75.52C52.2771 75.8087 52.4682 76.1883 52.6274 76.4651C52.8105 76.7854 53.0771 77.1967 53.2801 77.5091C53.7498 78.2327 54.717 79.3557 55.5687 80.0754C56.1817 80.5934 57.3279 81.5583 59.2145 82.361C59.8911 82.6497 60.5797 82.879 61.312 83.0609C62.1439 83.2705 62.6335 83.3259 63.4374 83.4168C63.4454 83.4168 64.3131 83.5157 65.4952 83.4445C66.4305 83.3892 67.1867 83.2349 67.4693 83.1756C67.8116 83.1044 68.5121 82.9423 69.3479 82.6378C69.8972 82.4401 70.6017 82.1119 71.1191 81.847C71.3818 81.7125 71.7161 81.5108 71.9629 81.3566C72.2097 81.2024 72.5281 80.9731 72.7709 80.8109C73.0136 80.6488 73.3201 80.3799 73.551 80.1941C73.7699 80.0201 74.542 79.3043 74.9878 78.7784C75.1948 78.5332 75.4774 78.2129 75.6565 77.948C76.0067 77.4379 76.4525 76.7419 76.759 76.2041C77.1251 75.5675 77.4475 74.6817 77.6386 74.1518C77.8097 73.6852 77.961 73.0407 78.0684 72.5583C78.1401 72.2419 78.1998 71.8148 78.2435 71.4945C78.2953 71.1307 78.3271 70.6364 78.343 70.2687C78.355 69.9484 78.347 69.5213 78.3391 69.201C78.3351 69.0231 78.2953 68.082 78.0445 66.9154C77.8057 65.8161 77.4873 65.0055 77.3679 64.701H77.3719Z" fill="white"/>
</mask>
<g mask="url(#mask0_10888_17902)">
<path d="M51.6311 66.5184C52.6381 69.0334 57.9555 72.1296 64.4153 74.0791C64.276 74.5536 64.1685 75.2733 64.8253 76.0286C57.7526 81.0506 55.2729 79.8326 54.5366 79.0734L53.9077 78.3498C53.0878 77.2544 53.0401 77.1872 52.6222 76.4596C52.3635 75.9614 52.0331 75.2852 51.8102 74.7711C51.3485 73.4701 51.3207 73.391 51.1336 72.5567C50.8948 71.1964 50.8789 71.1173 50.8391 70.2711C50.8311 68.891 50.8311 68.808 50.9306 67.9776C51.1455 66.6845 51.1853 66.4512 51.5396 65.3242C51.4241 65.6682 51.452 66.0676 51.6311 66.5263" fill="white"/>
<path d="M64.8237 76.0293C65.0864 76.3101 65.4367 76.5236 65.8586 76.6264C66.2327 76.7213 66.6188 76.7134 66.977 76.6264C67.8088 80.6756 68.1153 83.0205 67.8526 83.0838L67.4665 83.1708C66.1849 83.3922 66.1611 83.3962 65.4924 83.4397C64.159 83.4753 64.1352 83.4753 63.4347 83.412C62.0615 83.238 62.0337 83.2341 61.3093 83.0561C59.9481 82.6607 59.9202 82.6528 59.2117 82.3562C57.966 81.767 57.9182 81.7433 57.2535 81.3281C56.1192 80.5451 56.0754 80.5175 55.4704 79.9836C55.1878 79.7147 54.8057 79.3549 54.5391 79.0741C57.0465 81.2609 62.571 77.6743 64.8277 76.0293" fill="#09BECD"/>
<path d="M66.9767 76.6311C67.7409 76.4453 68.4016 75.8996 68.6563 75.1443C73.6832 76.125 77.0982 75.7454 77.6236 74.1992C77.2786 75.0982 76.9894 75.7678 76.7559 76.208C76.2889 77.0121 75.9095 77.6092 75.6176 77.9993C75.0524 78.6979 74.6053 79.2093 74.2763 79.5336C73.6288 80.1268 73.1247 80.5538 72.7638 80.8148C72.0474 81.3025 71.4968 81.6479 71.1121 81.8508C70.3373 82.2305 69.7456 82.4941 69.3369 82.6417C68.8912 82.788 68.2981 82.9739 67.8444 83.0925C68.1111 83.0332 67.8006 80.6843 66.9688 76.6351" fill="white"/>
<path d="M69.3001 75.7993V75.131C69.3001 74.3758 69.0215 73.6126 68.4961 73.1064C73.2046 68.2663 75.7519 63.0901 74.7449 60.5752C74.6295 60.2865 74.3907 60.0453 74.1917 59.8555C74.5499 60.2272 74.9797 60.7294 75.3101 61.1209C76.13 62.2162 76.1579 62.2834 76.5758 63.011C76.8345 63.5093 77.1529 64.1855 77.3758 64.6995C77.8375 66.0005 77.8614 66.0796 78.0484 66.9139C78.2872 68.2742 78.2992 68.3533 78.3429 69.1995C78.3509 70.5796 78.3469 70.6626 78.2474 71.493C78.0325 72.7861 77.9927 73.0194 77.6385 74.1464L78.1837 74.1899C77.6584 75.736 74.6852 75.8823 69.5349 74.8977" fill="#FDC500"/>
<path d="M68.178 73.1066C67.9272 72.8654 67.6008 72.6795 67.2227 72.5846C66.8088 72.4818 66.3829 72.4976 65.9889 72.6123C64.1939 66.3091 62.2277 60.0811 61.2207 57.5701C60.9381 56.8622 60.763 56.534 60.6953 56.5538C61.0018 56.4747 61.4078 56.364 61.7182 56.2968C62.9998 56.0753 63.0237 56.0714 63.6924 56.0279C65.0257 55.9923 65.0496 55.9923 65.7501 56.0556C67.1232 56.2295 67.1511 56.2335 67.8755 56.4114C69.2367 56.8069 69.2645 56.8148 69.973 57.1114C71.2188 57.7006 71.2666 57.7243 71.9312 58.1395C73.0656 58.9224 73.1094 58.9501 73.7143 59.484L74.1163 59.8557C74.3153 60.0455 74.4745 60.2867 74.59 60.5753C75.5969 63.0903 72.8904 68.2665 68.1819 73.1066" fill="white"/>
<path d="M65.9869 72.616C65.2705 72.8255 64.6616 73.3594 64.4188 74.083C57.959 72.1335 52.6376 69.0373 51.6346 66.5223C51.4515 66.0676 51.4276 65.6642 51.543 65.3202C52.0525 63.9837 52.0604 63.9599 52.4226 63.2719C52.8896 62.4678 53.2691 61.872 53.561 61.4845C54.1261 60.7859 54.5732 60.2745 54.9023 59.9502C55.5497 59.3571 56.0538 58.93 56.4147 58.669C57.1311 58.1813 57.6817 57.836 58.0665 57.633C58.8413 57.2534 59.433 56.9898 59.8416 56.8421L60.7013 56.5614C60.769 56.5416 60.9441 56.8698 61.2267 57.5777C62.2337 60.0926 64.1999 66.3167 65.9949 72.6199" fill="#FD4B3A"/>
<path d="M66.5584 74.672C66.5584 74.672 66.5584 74.6839 66.5664 74.6839C66.5744 74.6839 66.5783 74.6839 66.5823 74.6759C66.5863 74.668 66.5823 74.6641 66.5744 74.6641C66.5664 74.6641 66.5624 74.6641 66.5584 74.672C65.834 74.4901 65.1216 74.2924 64.4211 74.0828C64.6639 73.3631 65.2728 72.8253 65.9893 72.6157C66.3833 72.5011 66.8052 72.4852 67.2231 72.5881C67.6012 72.683 67.9276 72.8649 68.1783 73.11C68.7037 73.6162 68.9187 74.3833 68.6639 75.1346C68.6639 75.1346 68.6639 75.1386 68.6639 75.1426C68.4052 75.8978 67.7485 76.4475 66.9843 76.6294C66.6221 76.7164 66.24 76.7203 65.8659 76.6294C65.448 76.5266 65.0937 76.313 64.8311 76.0323C64.3296 75.447 64.1982 74.8302 64.4211 74.0828C65.1216 74.2924 65.834 74.4901 66.5584 74.672Z" fill="white"/>
</g>
<path d="M66.5571 74.6761C66.5571 74.6761 66.5571 74.6801 66.565 74.684L66.4297 74.3281C66.4695 74.4309 66.5173 74.5733 66.5571 74.6761Z" fill="#754C24"/>
<path d="M66.4297 74.3281L66.5571 74.6761C66.5571 74.6761 66.5571 74.6722 66.5571 74.6682L66.4297 74.3281Z" fill="#754C24"/>
<path d="M66.4297 74.3281L66.5571 74.6682C66.5571 74.6682 66.565 74.6603 66.573 74.6603L66.4337 74.3281H66.4297Z" fill="#754C24"/>
<path d="M66.4297 74.3281L66.565 74.684C66.565 74.684 66.577 74.684 66.5809 74.6761C66.5372 74.5733 66.4774 74.4349 66.4337 74.3281H66.4297Z" fill="#754C24"/>
<path d="M66.4297 74.3281L66.577 74.6761C66.577 74.6761 66.577 74.6722 66.577 74.6682C66.5332 74.5654 66.4735 74.4309 66.4297 74.3281Z" fill="#754C24"/>
<path d="M66.577 74.6682L66.4297 74.3281L66.569 74.6603C66.569 74.6603 66.577 74.6603 66.577 74.6642V74.6682Z" fill="#754C24"/>
<path d="M67.6422 57.3494C66.7984 57.1556 66.1297 57.0449 65.6641 57.0172C65.3775 57.0014 64.9994 56.9619 64.7128 56.9698C64.4262 56.9777 64.0561 56.9737 63.7735 56.9935C63.4909 57.0093 63.1128 57.0528 62.8302 57.0845C62.1257 57.1715 61.2143 57.4048 61.0352 57.4601C60.7764 57.5432 60.4262 57.6381 60.1715 57.7409C59.67 57.9425 58.9973 58.2154 58.5237 58.4764C58.2849 58.6069 57.9704 58.7848 57.7396 58.9311C57.5088 59.0774 57.2142 59.287 56.9874 59.4412C56.7605 59.5955 56.4819 59.8367 56.267 60.0067C56.0361 60.1886 55.3157 60.8648 54.9416 61.3077C54.7545 61.5291 54.4958 61.8217 54.3326 62.059C54.0062 62.5296 53.5883 63.1781 53.3017 63.6724C53.2978 63.6803 52.856 64.4514 52.458 65.6258C52.3505 65.9461 52.3744 66.3178 52.5455 66.7449C53.5843 69.3389 59.5506 72.5973 66.4282 74.3293C59.5506 72.5973 53.5804 69.3389 52.5455 66.7449C52.3744 66.3218 52.3505 65.9461 52.458 65.6258C52.2868 66.2071 52.0798 66.9861 51.9684 67.5832C51.8848 68.03 51.8172 68.635 51.8092 69.0898C51.8052 69.3864 51.7893 69.7858 51.8012 70.0863C51.8132 70.4264 51.849 70.8811 51.8888 71.2212C51.9246 71.5177 51.9883 71.9092 52.048 72.2018C52.1196 72.5419 52.2391 72.9848 52.3266 73.3209C52.5376 74.1039 52.9714 75.0213 53.1107 75.3258C53.3336 75.7963 53.6998 76.3895 53.9824 76.8324C54.5077 77.6549 55.4988 78.7542 56.1077 79.2682C56.7247 79.7862 57.0311 80.0472 57.7675 80.5178C58.265 80.8341 58.9615 81.2019 59.5028 81.4352C60.1555 81.716 60.7804 81.9295 61.473 82.1074C62.2491 82.3051 62.6829 82.3566 63.475 82.4515C63.4829 82.4515 64.2909 82.5464 65.4093 82.4831C66.277 82.4317 66.9656 82.2933 67.2561 82.234C69.0233 81.8781 70.4004 81.1426 70.6591 80.9963C71.1089 80.7471 71.5746 80.4862 72.1955 80.0314C72.9159 79.5055 73.4174 79.0231 73.6004 78.8372C73.8353 78.5999 74.3288 78.1096 74.8502 77.4136C75.3716 76.7177 75.7139 76.1245 75.9049 75.7489C76.0761 75.4167 76.3985 74.7998 76.7249 73.8429C76.9199 73.2695 77.1069 72.4826 77.2144 71.8855C77.298 71.4387 77.3656 70.8337 77.3736 70.3789C77.3895 69.7027 77.4015 69.1214 77.294 68.2515C77.2263 67.7176 77.1229 67.0533 76.8562 66.1517C76.7726 65.867 76.6452 65.4874 76.5338 65.2106C76.4064 64.8863 76.2154 64.4632 76.0681 64.1469C75.8452 63.6763 75.495 63.0713 75.1965 62.6403C74.8595 62.1552 74.4177 61.6029 73.8711 60.9834C73.6482 60.7303 73.3258 60.418 73.0671 60.2044C72.8402 60.0186 72.5457 59.7576 72.3109 59.5836C72.0482 59.3859 71.694 59.1249 71.4074 58.9588C70.4959 58.425 70.3089 58.3143 69.5845 58.0019C69.0392 57.7686 68.279 57.5234 67.7019 57.3692C67.682 57.3652 67.6541 57.3573 67.6342 57.3534L67.6422 57.3494Z" fill="#754C24"/>
<path d="M52.4618 65.6301C53.0111 63.993 57.023 63.7399 62.7584 65.1397C57.023 63.7359 53.015 63.989 52.4618 65.6301C52.3225 66.069 52.1434 66.6582 52.0598 67.109C51.9444 67.7456 51.813 68.4693 51.8051 69.2364C51.8051 69.533 51.7931 69.9324 51.8091 70.2289C51.825 70.573 51.8648 71.0356 51.9125 71.3796C51.9815 71.8884 52.1381 72.5884 52.3822 73.4794C52.5215 73.9855 52.7842 74.6341 53.015 75.1086C53.1464 75.3775 53.3215 75.7294 53.4688 75.9864C53.6399 76.283 53.8867 76.6666 54.0738 76.9552C54.5076 77.6196 55.3991 78.6675 56.2031 79.3437C56.7763 79.8261 57.839 80.7237 59.5942 81.4711C60.235 81.7439 60.8519 81.9496 61.5445 82.1235C62.3206 82.3173 62.7704 82.3687 63.5226 82.4557C63.5306 82.4557 64.3345 82.5467 65.4331 82.4794C66.3047 82.428 67.0052 82.2857 67.2679 82.2303C67.5863 82.167 68.2351 82.0128 69.0152 81.7321C69.5246 81.5462 70.1814 81.2417 70.663 80.9966C70.9296 80.8582 72.3306 80.1108 73.6242 78.8177C73.855 78.5884 74.3366 78.106 74.8819 77.3705C75.2242 76.9078 75.6262 76.2514 75.9048 75.7492C76.271 75.0967 76.5774 74.2505 76.7247 73.8432C76.8799 73.4122 77.0272 72.8111 77.1267 72.3643C77.4849 70.7311 77.3735 69.1257 77.3695 69.0822C77.3178 68.489 77.2302 67.6982 77.1028 67.1169C76.8919 66.1758 76.6929 65.6261 76.474 65.0567C76.1516 64.2223 75.6461 63.3563 75.6421 63.3484C75.3436 62.8383 74.8819 62.1977 74.5237 61.7271C73.9307 60.9521 72.8083 59.92 72.2232 59.5127C71.5041 59.0145 70.9243 58.6507 70.4839 58.4213C69.8669 58.101 69.2699 57.8479 68.6052 57.6265C67.5147 57.2667 66.643 57.1401 66.6351 57.1401C66.3405 57.1006 65.9465 57.0334 65.652 57.0175C65.3574 57.0017 64.9873 56.974 64.7007 56.9701C64.4141 56.9661 64.036 56.9701 63.7534 56.9938C63.4709 57.0175 63.1047 57.0373 62.8301 57.0848C62.5554 57.1322 62.1932 57.1836 61.9226 57.2429C61.6519 57.3022 61.3017 57.3892 61.039 57.4604C60.7763 57.5316 60.43 57.6384 60.1753 57.7412C59.6738 57.9428 59.0131 58.2355 58.5275 58.4767C58.2847 58.5993 57.9743 58.7891 57.7434 58.9314C57.5126 59.0738 57.2181 59.2873 56.9952 59.4415C56.7723 59.5958 56.4857 59.8409 56.2668 60.0149C56.0638 60.177 55.3434 60.8414 54.9335 61.3317C54.7424 61.5571 54.4797 61.8576 54.3126 62.1028C53.9862 62.5773 53.5723 63.2258 53.2897 63.7241C53.1305 64.0009 52.9553 64.3963 52.828 64.6889C52.7086 64.9657 52.5772 65.3493 52.4698 65.6301H52.4618Z" fill="#754C24"/>
<path d="M77.6426 74.1511C77.8376 73.5302 78.0486 72.688 78.168 72.0474C78.2595 71.5649 78.3312 70.9164 78.3391 70.4261C78.3551 69.5324 78.363 69.0381 78.2516 68.1365C78.2118 67.8202 78.1441 67.3971 78.0804 67.0847C78.0048 66.7209 77.8735 66.2424 77.7779 65.8826C77.5511 65.0403 77.0854 64.0517 76.9341 63.7275C76.6953 63.2213 76.2973 62.5807 75.9988 62.1102C75.7998 61.7978 75.5132 61.3984 75.2704 61.1216C75.0635 60.8843 74.7928 60.5561 74.5739 60.3267C74.3232 60.0658 73.9849 59.7217 73.7102 59.4884C73.0495 58.9309 72.7152 58.6501 71.9271 58.144C71.3938 57.8039 70.6416 57.4085 70.0604 57.1554C69.3599 56.8509 68.6873 56.6215 67.943 56.4317C67.1072 56.2182 66.6415 56.1628 65.7898 56.06C65.4714 56.0205 65.0415 56.0086 64.7191 56.0047C64.4166 56.0007 64.0106 56.0126 63.7082 56.0284C62.7728 56.0838 62.0365 56.234 61.7221 56.2973C61.4474 56.3527 60.7151 56.5148 59.8355 56.8351C59.2862 57.0328 58.5817 57.361 58.0643 57.6259C57.8056 57.7604 57.4713 57.9581 57.2245 58.1123C56.9777 58.2665 56.6593 58.4959 56.4165 58.658C56.1698 58.8241 55.8752 59.0851 55.6404 59.267C55.3937 59.4647 54.6175 60.1883 54.2155 60.6668C54.0125 60.9041 53.7379 61.2165 53.5588 61.4735C53.2046 61.9836 52.7588 62.6756 52.4483 63.2095C52.4444 63.2174 51.9707 64.0478 51.5409 65.3132C51.3578 65.9379 51.1349 66.7763 51.0155 67.4169C50.924 67.8993 50.8523 68.5478 50.8444 69.0381C50.8404 69.3584 50.8245 69.7855 50.8364 70.1098C50.8523 70.4775 50.8881 70.9639 50.9319 71.3277C50.9717 71.644 51.0394 72.0671 51.1031 72.3795C51.1787 72.7433 51.31 73.2218 51.4056 73.5816C51.6324 74.4239 52.0981 75.4125 52.2493 75.7368C52.4881 76.2429 52.8862 76.8835 53.1847 77.3541C53.3837 77.6665 53.6703 78.0619 53.913 78.3427C54.12 78.5799 54.3907 78.9081 54.6096 79.1375C54.8603 79.3985 55.1986 79.7425 55.4733 79.9758C56.134 80.5334 56.4683 80.8141 57.2564 81.3203C57.7897 81.6603 58.5419 82.0558 59.123 82.3088C59.8235 82.6133 60.4962 82.8427 61.2405 83.0325C62.0763 83.246 62.546 83.3014 63.3937 83.4042C63.4017 83.4042 64.2694 83.507 65.4714 83.4358C66.4067 83.3805 67.143 83.2302 67.4574 83.1669C69.356 82.7834 70.8406 81.9925 71.1192 81.8383C71.6286 81.5536 72.2853 81.1305 72.7669 80.8022C73.0137 80.6362 73.3082 80.3752 73.5431 80.1933C73.7898 79.9956 74.566 79.2719 74.968 78.7934C75.1709 78.5562 75.4456 78.2438 75.6247 77.9868C75.9789 77.4767 76.4247 76.7847 76.7351 76.2508C76.9779 75.8237 77.4396 74.7917 77.6426 74.1471V74.1511Z" fill="#F9F0D8"/>
<mask id="mask1_10888_17902" style="mask-type:luminance" maskUnits="userSpaceOnUse" x="50" y="56" width="29" height="28">
<path d="M77.6426 74.1511C77.8376 73.5302 78.0486 72.688 78.168 72.0474C78.2595 71.5649 78.3312 70.9164 78.3391 70.4261C78.3551 69.5324 78.363 69.0381 78.2516 68.1365C78.2118 67.8202 78.1441 67.3971 78.0804 67.0847C78.0048 66.7209 77.8735 66.2424 77.7779 65.8826C77.5511 65.0403 77.0854 64.0517 76.9341 63.7275C76.6953 63.2213 76.2973 62.5807 75.9988 62.1102C75.7998 61.7978 75.5132 61.3984 75.2704 61.1216C75.0635 60.8843 74.7928 60.5561 74.5739 60.3267C74.3232 60.0658 73.9849 59.7217 73.7102 59.4884C73.0495 58.9309 72.7152 58.6501 71.9271 58.144C71.3938 57.8039 70.6416 57.4085 70.0604 57.1554C69.3599 56.8509 68.6873 56.6215 67.943 56.4317C67.1072 56.2182 66.6415 56.1628 65.7898 56.06C65.4714 56.0205 65.0415 56.0086 64.7191 56.0047C64.4166 56.0007 64.0106 56.0126 63.7082 56.0284C62.7728 56.0838 62.0365 56.234 61.7221 56.2973C61.4474 56.3527 60.7151 56.5148 59.8355 56.8351C59.2862 57.0328 58.5817 57.361 58.0643 57.6259C57.8056 57.7604 57.4713 57.9581 57.2245 58.1123C56.9777 58.2665 56.6593 58.4959 56.4165 58.658C56.1698 58.8241 55.8752 59.0851 55.6404 59.267C55.3937 59.4647 54.6175 60.1883 54.2155 60.6668C54.0125 60.9041 53.7379 61.2165 53.5588 61.4735C53.2046 61.9836 52.7588 62.6756 52.4483 63.2095C52.4444 63.2174 51.9707 64.0478 51.5409 65.3132C51.3578 65.9379 51.1349 66.7763 51.0155 67.4169C50.924 67.8993 50.8523 68.5478 50.8444 69.0381C50.8404 69.3584 50.8245 69.7855 50.8364 70.1098C50.8523 70.4775 50.8881 70.9639 50.9319 71.3277C50.9717 71.644 51.0394 72.0671 51.1031 72.3795C51.1787 72.7433 51.31 73.2218 51.4056 73.5816C51.6324 74.4239 52.0981 75.4125 52.2493 75.7368C52.4881 76.2429 52.8862 76.8835 53.1847 77.3541C53.3837 77.6665 53.6703 78.0619 53.913 78.3427C54.12 78.5799 54.3907 78.9081 54.6096 79.1375C54.8603 79.3985 55.1986 79.7425 55.4733 79.9758C56.134 80.5334 56.4683 80.8141 57.2564 81.3203C57.7897 81.6603 58.5419 82.0558 59.123 82.3088C59.8235 82.6133 60.4962 82.8427 61.2405 83.0325C62.0763 83.246 62.546 83.3014 63.3937 83.4042C63.4017 83.4042 64.2694 83.507 65.4714 83.4358C66.4067 83.3805 67.143 83.2302 67.4574 83.1669C69.356 82.7834 70.8406 81.9925 71.1192 81.8383C71.6286 81.5536 72.2853 81.1305 72.7669 80.8022C73.0137 80.6362 73.3082 80.3752 73.5431 80.1933C73.7898 79.9956 74.566 79.2719 74.968 78.7934C75.1709 78.5562 75.4456 78.2438 75.6247 77.9868C75.9789 77.4767 76.4247 76.7847 76.7351 76.2508C76.9779 75.8237 77.4396 74.7917 77.6426 74.1471V74.1511Z" fill="white"/>
</mask>
<g mask="url(#mask1_10888_17902)">
<path d="M51.5417 65.3207C51.1636 66.6177 51.1039 66.8154 50.9327 67.974C50.8133 69.3778 50.8093 69.4332 50.8412 70.2675C50.9566 71.6397 50.9646 71.7227 51.1357 72.5531C51.478 73.8897 51.4979 73.9688 51.8123 74.7676C52.0392 75.2816 52.3616 75.9618 52.6243 76.4561C53.3447 77.6226 53.3885 77.6898 53.9099 78.3462L54.5387 79.0699C52.0392 75.7285 58.2323 69.0022 59.502 67.6893C58.5626 66.594 58.3199 65.4314 58.7338 64.0355C54.682 63.478 51.9994 63.9525 51.5417 65.3128" fill="#F9F0D8"/>
<path d="M54.5388 79.0739C54.8174 79.3507 55.1796 79.7224 55.4701 79.9834C56.5368 80.8613 56.5766 80.8929 57.2532 81.3279C58.4433 82.0199 58.491 82.0436 59.2114 82.356C60.5289 82.8582 60.5567 82.8661 61.309 83.0559C62.2403 83.2484 62.9488 83.367 63.4344 83.4118C64.3445 83.4566 65.0304 83.4658 65.4921 83.4395C66.373 83.3525 67.0311 83.2629 67.4662 83.1706L67.8523 83.0836C67.7488 83.1073 67.5578 82.7831 67.2752 82.0792C66.3717 79.8213 64.8831 74.5106 63.5299 68.8124C62.8533 68.9746 62.1368 68.9864 61.4324 68.8124C60.6483 68.6187 59.9876 68.2193 59.498 67.6934C51.8681 75.8353 54.2403 78.7694 54.5348 79.0739" fill="#09BECD"/>
<path d="M67.8575 83.0843C68.3073 82.9578 68.9083 82.7838 69.3501 82.6336C70.1514 82.3093 70.7431 82.0457 71.1252 81.8427C71.8761 81.4077 72.4267 81.0624 72.777 80.8067C73.7919 80.0079 73.8118 79.9921 74.2894 79.5255C75.1969 78.5685 75.2128 78.5487 75.6307 77.9912C76.3909 76.8958 76.4188 76.8523 76.769 76.1999C77.378 74.9345 77.3899 74.9108 77.6367 74.1911C77.7521 73.847 77.7282 73.4437 77.5452 72.989C76.6417 70.731 72.2556 67.9867 66.6874 66.0254C66.2058 67.441 64.9719 68.4692 63.5391 68.8132C64.8923 74.5114 66.3809 79.8181 67.2844 82.08C67.567 82.7838 67.758 83.1081 67.8615 83.0843" fill="#F9F0D8"/>
<path d="M77.6262 74.1945L77.6421 74.151C78.0202 72.854 78.0799 72.6563 78.2511 71.4977C78.3705 70.0939 78.3745 70.0385 78.3426 69.2042C78.2272 67.832 78.2193 67.749 78.0481 66.9186C77.7058 65.582 77.6859 65.5029 77.3715 64.7041C77.1446 64.1901 76.8222 63.5099 76.5595 63.0156C75.8391 61.8491 75.7953 61.7819 75.274 61.1255C74.9356 60.7379 74.4779 60.2278 74.1157 59.8601C72.7625 58.5552 69.5784 59.4844 65.7773 62.2208C66.7644 63.1698 67.1624 64.6053 66.6848 66.017C66.6848 66.0209 66.6848 66.0249 66.6808 66.0288C72.249 67.9902 76.6352 70.7345 77.5386 72.9924C77.7217 73.4511 77.7456 73.8505 77.6302 74.1945" fill="#FDC500"/>
<path d="M74.1117 59.8561L73.7097 59.4844C72.647 58.6065 72.6033 58.5749 71.9266 58.1399C70.7366 57.4479 70.6888 57.4242 69.9684 57.1118C68.651 56.6096 68.6231 56.6017 67.8709 56.4119C66.9395 56.2194 66.2311 56.1008 65.7455 56.056C64.8354 56.0112 64.1494 56.002 63.6878 56.0283C62.8068 56.1153 62.1488 56.2049 61.7136 56.2972C61.4071 56.3723 60.9972 56.4672 60.6907 56.5542C60.5395 56.5938 60.8897 58.2941 61.6698 61.2955C62.4061 61.0819 63.2022 61.0503 63.9783 61.2401C64.6907 61.4181 65.2997 61.7621 65.7694 62.2168C69.5664 59.4804 72.7545 58.5512 74.1077 59.8561" fill="#F9F0D8"/>
<path d="M60.6974 56.5547L59.8376 56.8355C59.0363 57.1597 58.4446 57.4234 58.0625 57.6264C57.3116 58.0613 56.761 58.4067 56.4108 58.6624C55.3958 59.4612 55.3759 59.477 54.8983 59.9436C53.9908 60.9005 53.9749 60.9203 53.557 61.4779C52.7968 62.5732 52.7689 62.6167 52.4187 63.2652C51.8177 64.5148 51.7938 64.5622 51.5391 65.3136C51.9968 63.9493 54.6794 63.4788 58.7312 64.0363C59.1849 62.6839 60.3272 61.6835 61.6725 61.292C60.8924 58.2907 60.5421 56.5903 60.6934 56.5508" fill="#FD4B3A"/>
<path d="M58.7347 64.0392C58.476 64.929 58.273 66.2774 59.5028 67.693C59.9924 68.219 60.6531 68.6184 61.4372 68.8121C62.1417 68.9861 62.8581 68.9782 63.5347 68.8121C64.9636 68.4681 66.2014 67.44 66.683 66.0243C66.683 66.0204 66.683 66.0164 66.687 66.0125C67.1606 64.6008 66.7626 63.1653 65.7795 62.2163C65.3059 61.7616 64.6969 61.4175 63.9885 61.2396C63.2123 61.0458 62.4163 61.0775 61.68 61.2949C60.3347 61.6864 59.1924 62.6908 58.7387 64.0392C59.9247 64.2014 61.2262 64.4505 62.6233 64.7945C61.2262 64.4545 59.9247 64.2014 58.7387 64.0392" fill="#F9F0D8"/>
</g>
<path d="M95.8124 114.17H104.023V105.905H95.8124V114.17Z" fill="#00C0CF"/>
<path d="M95.8124 105.904H104.023V97.6398H95.8124V105.904Z" fill="#FFC700"/>
<path d="M95.8124 97.6406H104.023V89.3761H95.8124V97.6406Z" fill="#FF4B3A"/>
<path d="M122.579 97.6406V105.905H118.018C117.87 103.505 115.817 101.816 113.301 101.816C110.786 101.816 108.732 103.505 108.585 105.905H104.023V97.6406H122.579Z" fill="#00C0CF"/>
<path d="M104.023 114.17H122.578V105.905H104.023V114.17Z" fill="#FF4B3A"/>
<path d="M113.073 85.4805L106.008 97.64H120.137L113.073 85.4805Z" fill="#FF4B3A"/>
<path d="M84.2292 81.4941C84.3804 82.72 84.6511 84.017 85.0531 85.3377C85.4391 86.5992 85.9088 87.7776 86.4381 88.8413L80.5117 86.7732C81.7058 85.3892 82.9714 83.5939 84.2252 81.4941H84.2292Z" fill="#E9A200"/>
<path d="M86.4381 88.8416L84.1774 91.9338L84.0978 91.8745C83.4172 89.9053 82.1913 88.1258 80.5117 86.7734L86.4381 88.8416Z" fill="#FDC500"/>
<path d="M72.5895 79.7736C73.8512 79.1963 75.0094 78.5359 76.0283 77.832C75.2801 80.1572 74.7706 82.2925 74.5238 84.0996L69.0312 81.0706C70.1815 80.7582 71.3835 80.3233 72.5895 79.7736Z" fill="#E9A200"/>
<path d="M74.5235 84.0993C72.3902 83.7513 70.2369 84.0241 68.3026 84.8269L68.207 84.8071L69.0309 81.0742L74.5235 84.1032V84.0993Z" fill="#FDC500"/>
<path d="M90.5678 56.6562C90.5678 56.6562 91.3161 66.8149 86.7747 76.8589C84.3508 82.217 81.6125 86.7289 79.1687 89.7342L76.1836 88.4016L90.4922 56.7472C90.524 56.68 90.5678 56.6562 90.5678 56.6562Z" fill="#FD4B3A"/>
<path d="M77.8759 72.8896C82.1187 63.502 89.4979 57.4756 90.4929 56.748L76.1843 88.3985L73.1992 87.0659C73.836 83.2539 75.452 78.2438 77.8759 72.8856V72.8896Z" fill="#FD6773"/>
<path d="M84.9053 71.2089C86.1538 71.2089 87.166 70.2033 87.166 68.9629C87.166 67.7224 86.1538 66.7168 84.9053 66.7168C83.6567 66.7168 82.6445 67.7224 82.6445 68.9629C82.6445 70.2033 83.6567 71.2089 84.9053 71.2089Z" fill="white" stroke="#FDC500" stroke-width="0.61" stroke-miterlimit="10"/>
<path d="M82.2138 77.457C83.4624 77.457 84.4746 76.4514 84.4746 75.2109C84.4746 73.9704 83.4624 72.9648 82.2138 72.9648C80.9653 72.9648 79.9531 73.9704 79.9531 75.2109C79.9531 76.4514 80.9653 77.457 82.2138 77.457Z" fill="white" stroke="#FDC500" stroke-width="0.61" stroke-miterlimit="10"/>
<path d="M90.34 64.8969C88.0076 64.9127 85.8902 63.9676 84.4414 62.2949" stroke="#FDC500" stroke-width="0.92" stroke-miterlimit="10"/>
<path d="M26.7148 72.2372C29.5021 72.2372 31.7616 69.9923 31.7616 67.2231C31.7616 64.4539 29.5021 62.209 26.7148 62.209C23.9275 62.209 21.668 64.4539 21.668 67.2231C21.668 69.9923 23.9275 72.2372 26.7148 72.2372Z" fill="#D89347"/>
<path d="M42.7343 66.6414C45.5216 66.6414 47.7811 64.3966 47.7811 61.6274C47.7811 58.8582 45.5216 56.6133 42.7343 56.6133C39.947 56.6133 37.6875 58.8582 37.6875 61.6274C37.6875 64.3966 39.947 66.6414 42.7343 66.6414Z" fill="#D89347"/>
<path d="M35.4609 74.3883C37.8649 74.8826 38.3227 82.4868 37.1724 88.0387C36.0221 93.5905 33.6977 94.9904 31.2937 94.5C28.8897 94.0097 27.3096 91.8111 28.4639 86.2553C29.6141 80.7034 33.0609 73.898 35.4649 74.3883H35.4609Z" fill="#C96900"/>
<path d="M39.9004 72.8379C38.3322 74.7162 42.7661 80.9324 47.1642 84.5467C51.5582 88.1609 54.2528 87.809 55.821 85.9307C57.3891 84.0524 57.2339 81.3556 52.8359 77.7413C48.4418 74.127 41.4686 70.9596 39.9004 72.8379Z" fill="#C96900"/>
<path d="M46.6529 98.9977C52.5817 96.9268 55.4459 89.7597 53.0502 82.9896C50.6545 76.2195 43.9061 72.41 37.9773 74.4808C32.0485 76.5517 29.1843 83.7187 31.58 90.4889C33.9757 97.259 40.724 101.069 46.6529 98.9977Z" fill="#C96900"/>
<path d="M46.1278 97.2271C51.0322 95.514 53.3803 89.5256 51.3725 83.8515C49.3647 78.1775 43.7612 74.9665 38.8568 76.6795C33.9524 78.3926 31.6042 84.381 33.6121 90.055C35.6199 95.7291 41.2234 98.9401 46.1278 97.2271Z" fill="#D89347"/>
<path d="M57.5105 92.3844C57.2438 95.4608 54.9433 98.6164 51.994 98.3633C49.0447 98.1102 46.5611 94.5474 46.8238 91.4709C47.0905 88.3945 50.0039 86.9749 52.9572 87.2279C55.9065 87.481 57.7771 89.3079 57.5105 92.3844Z" fill="#C96900"/>
<path d="M52.5854 95.2674C52.474 95.3069 52.3705 95.3188 52.2591 95.3109C51.7894 95.2714 51.1765 94.8245 50.7028 94.176C50.1456 93.4128 49.8391 92.4796 49.9028 91.7362C49.9267 91.4436 49.9824 90.8307 51.0212 90.4669C51.5028 90.2968 52.0959 90.2335 52.6929 90.285C54.4362 90.4352 54.5118 91.2379 54.4362 92.1237C54.3049 93.6422 53.3536 94.9985 52.5854 95.2674Z" fill="#D89347"/>
<path d="M33.9141 100.3C36.0594 102.534 39.8406 103.566 41.9819 101.534C44.1232 99.5011 43.8167 95.179 41.6714 92.9448C39.5261 90.7106 36.3579 91.4145 34.2166 93.447C32.0753 95.4795 31.7689 98.0656 33.9102 100.3H33.9141Z" fill="#C96900"/>
<path d="M39.5693 99.4851C38.7972 99.754 37.2051 99.2874 36.1464 98.1841C35.5295 97.5435 35.0837 96.8673 36.3494 95.6652C36.7833 95.254 37.2848 94.9376 37.7703 94.7676C38.8131 94.4038 39.239 94.8467 39.442 95.0602C39.9594 95.598 40.3097 96.5193 40.3534 97.4605C40.3932 98.2632 40.1942 98.9908 39.8519 99.315C39.7723 99.3902 39.6808 99.4455 39.5693 99.4851Z" fill="#D89347"/>
<path d="M48.0395 67.7789C49.8903 73.0066 46.4276 78.0048 40.322 80.1362C34.2165 82.2676 27.7886 80.7254 25.9378 75.4978C24.087 70.2702 27.1955 61.9621 33.2971 59.8307C39.3986 57.6994 46.1887 62.5513 48.0395 67.7829V67.7789Z" fill="#C96900"/>
<path d="M39.7952 78.654C43.2542 77.4458 45.4241 74.6742 44.6418 72.4635C43.8596 70.2528 40.4213 69.4401 36.9623 70.6483C33.5033 71.8565 31.3334 74.6281 32.1157 76.8388C32.8979 79.0495 36.3362 79.8622 39.7952 78.654Z" fill="#D89347"/>
<path d="M38.591 75.1879C39.7793 74.7729 40.4535 73.6197 40.097 72.6122C39.7405 71.6047 38.4882 71.1245 37.3 71.5395C36.1117 71.9546 35.4374 73.1077 35.794 74.1152C36.1505 75.1227 37.4027 75.603 38.591 75.1879Z" fill="#141018"/>
<path d="M32.4086 71.8839C33.0592 71.8839 33.5867 71.3599 33.5867 70.7134C33.5867 70.067 33.0592 69.543 32.4086 69.543C31.7579 69.543 31.2305 70.067 31.2305 70.7134C31.2305 71.3599 31.7579 71.8839 32.4086 71.8839Z" fill="#060606"/>
<path d="M40.5609 69.0382C41.2116 69.0382 41.7391 68.5142 41.7391 67.8677C41.7391 67.2213 41.2116 66.6973 40.5609 66.6973C39.9103 66.6973 39.3828 67.2213 39.3828 67.8677C39.3828 68.5142 39.9103 69.0382 40.5609 69.0382Z" fill="#060606"/>
<path d="M38.2578 72.6368C38.5502 72.5346 38.7369 72.3099 38.675 72.1347C38.613 71.9596 38.3257 71.9004 38.0333 72.0026C37.7409 72.1047 37.5541 72.3295 37.6161 72.5046C37.6781 72.6797 37.9654 72.7389 38.2578 72.6368Z" fill="#F6F6F8"/>
<path d="M35.4531 75.887C37.6024 77.793 41.0134 76.5909 41.483 73.7754" stroke="black" stroke-width="0.78" stroke-miterlimit="10"/>
<path d="M82.6792 85.1602H20V133.929H82.6792V85.1602Z" fill="#00997D"/>
<path d="M82.6797 85.1602V133.929H127.607V85.1602H82.6797ZM116.395 99.7991H96.5226V93.4721H116.395V99.7991Z" fill="#00DA91"/>
<path d="M116.396 93.4727H114.23V99.7996H116.396V93.4727Z" fill="#00997D"/>
<path opacity="0.15" d="M34.9722 133.929L59.1476 85.1602H45.7067L21.5273 133.929H34.9722Z" fill="white"/>
<path opacity="0.15" d="M43.3047 133.929H56.7456L80.9249 85.1602H67.48L43.3047 133.929Z" fill="white"/>
<path d="M33.0832 143.815C38.5786 143.815 43.0335 139.389 43.0335 133.929C43.0335 128.469 38.5786 124.043 33.0832 124.043C27.5877 124.043 23.1328 128.469 23.1328 133.929C23.1328 139.389 27.5877 143.815 33.0832 143.815Z" fill="#BA7D24"/>
<path d="M33.0848 138.674C35.7226 138.674 37.8609 136.549 37.8609 133.929C37.8609 131.308 35.7226 129.184 33.0848 129.184C30.447 129.184 28.3086 131.308 28.3086 133.929C28.3086 136.549 30.447 138.674 33.0848 138.674Z" fill="#FFE3BD"/>
<path d="M69.3019 145C74.7973 145 79.2522 140.574 79.2522 135.114C79.2522 129.655 74.7973 125.229 69.3019 125.229C63.8065 125.229 59.3516 129.655 59.3516 135.114C59.3516 140.574 63.8065 145 69.3019 145Z" fill="#BA7D24"/>
<path d="M69.3035 139.86C71.9413 139.86 74.0797 137.735 74.0797 135.114C74.0797 132.494 71.9413 130.369 69.3035 130.369C66.6657 130.369 64.5273 132.494 64.5273 135.114C64.5273 137.735 66.6657 139.86 69.3035 139.86Z" fill="#FFE3BD"/>
</g>
<defs>
<clipPath id="clip0_10888_17902">
<rect width="109" height="89" fill="white" transform="translate(20 56)"/>
</clipPath>
</defs>
</svg>
