<svg width="150" height="200" viewBox="0 0 150 200" fill="none" xmlns="http://www.w3.org/2000/svg">
<rect width="150" height="200" fill="#B3E5FC"/>
<rect x="22" y="52" width="105" height="81" fill="#EDF9FF"/>
<path d="M62.5012 131.5C62.3803 134.823 48.2406 142.389 44.9301 144.241C42.5871 145.224 35.5494 149.486 34.1473 147.656C32.8481 145.549 35.975 137.899 36.9247 134.182C37.7311 131.606 38.5105 128.819 39.5991 126.418C41.9152 120.875 45.6961 124.084 49.1634 126.91C51.7035 129.227 60.9609 125.906 61.0012 129L62.0012 130.5L62.5012 131.5Z" fill="#EDF9FF"/>
<path d="M67.5226 86.3988L67.5235 86.3977C68.7498 84.8506 69.7575 83.4812 70.5443 82.2907C71.3733 81.0916 71.9951 79.9765 72.3999 78.9469C72.8423 77.9182 73.105 76.9257 73.1766 75.9717C73.281 74.9872 73.2498 73.9834 73.085 72.9617L72.976 72.2859C72.6946 70.5407 72.0942 68.9872 71.1691 67.6342C70.246 66.2843 69.0564 65.1976 67.6062 64.3763C66.149 63.5139 64.4659 62.9591 62.5663 62.703C60.6533 62.4051 58.5687 62.4421 56.317 62.8053C53.6915 63.2288 51.4 63.983 49.4519 65.0772C47.5574 66.1132 45.9268 67.3667 44.5645 68.8395C43.7534 69.6823 43.3882 70.6738 43.518 71.7834L43.5192 71.7942L43.521 71.8049C43.6843 72.8179 44.1578 73.6887 44.9255 74.4054C45.6877 75.1516 46.5429 75.5967 47.4875 75.689L47.5024 75.6905L47.5174 75.691C48.5259 75.7288 49.4389 75.3198 50.2427 74.5394L50.2436 74.5386C51.1967 73.6086 52.2309 72.8094 53.3463 72.1402C54.4298 71.49 55.7602 71.0307 57.3501 70.7743C58.5445 70.5816 59.5315 70.5659 60.3237 70.7075L60.338 70.71L60.3525 70.7117C61.2003 70.8126 61.8515 71.0338 62.3325 71.3503L62.3408 71.3558L62.3493 71.3609C62.8958 71.6903 63.308 72.0871 63.6 72.5479C63.9001 73.0216 64.0991 73.5516 64.1946 74.1434L64.2441 74.4506C64.3376 75.0304 64.366 75.574 64.3323 76.0828C64.2946 76.5165 64.1404 77.0531 63.8449 77.7008C63.553 78.3406 63.0915 79.1032 62.4497 79.9918C61.8409 80.8347 60.9942 81.9082 59.9064 83.2146L59.9064 83.2146L59.9032 83.2185C58.9463 84.3917 58.1756 85.4575 57.5958 86.4146L57.5947 86.4166C57.0442 87.335 56.6413 88.2587 56.3913 89.1874L56.3911 89.1873L56.3883 89.1991C56.1757 90.073 56.0781 90.9712 56.0947 91.8927C56.1111 92.8008 56.2077 93.7972 56.3824 94.8804C56.5801 96.1062 57.1555 97.0251 58.1537 97.5266L58.1621 97.5308L58.1706 97.5347C59.0903 97.9544 60.1126 98.063 61.2184 97.8846C62.2578 97.717 63.1349 97.2723 63.8258 96.5446C64.5918 95.7759 64.8861 94.8179 64.7101 93.7264C64.6075 93.0903 64.5594 92.5388 64.5619 92.0687L64.5619 92.0687L64.5619 92.0624C64.5584 91.583 64.6475 91.1035 64.8336 90.621L64.8367 90.613L64.8395 90.6049C65.023 90.0761 65.3213 89.4953 65.7441 88.8617L65.7489 88.8545L65.7534 88.8472C66.1726 88.1699 66.7606 87.3546 67.5226 86.3988ZM65.5694 101.928C64.4122 101.092 63.099 100.792 61.6616 101.023C60.2243 101.255 59.0722 101.954 58.2364 103.111C57.4006 104.268 57.0998 105.581 57.3317 107.019C57.5635 108.456 58.2619 109.608 59.4191 110.444C60.5764 111.28 61.8896 111.58 63.3269 111.349C64.7643 111.117 65.9163 110.418 66.7521 109.261C67.5879 108.104 67.8887 106.791 67.6569 105.353C67.4251 103.916 66.7267 102.764 65.5694 101.928Z" fill="#3196FF" stroke="#3196FF"/>
<path d="M95.8044 102.44L95.8056 102.44C97.2612 101.531 98.4868 100.704 99.4798 99.9588C100.51 99.2182 101.348 98.4846 101.984 97.756C102.649 97.0399 103.158 96.2992 103.498 95.5325C103.874 94.7522 104.143 93.9167 104.307 93.0277L104.415 92.443C104.696 90.9246 104.658 89.4686 104.294 88.0816C103.93 86.6981 103.269 85.4531 102.317 84.3507C101.37 83.2125 100.148 82.2624 98.6626 81.4952C97.1776 80.6893 95.4549 80.1093 93.5016 79.7481C91.2243 79.3271 89.1218 79.2746 87.1998 79.6026C85.3416 79.8981 83.6351 80.4495 82.0843 81.2601C81.1591 81.7207 80.5571 82.4403 80.3347 83.4067L80.3322 83.4173L80.3303 83.428C80.1655 84.319 80.3011 85.1841 80.7261 86.0067C81.1369 86.8499 81.7163 87.4759 82.478 87.8346L82.4916 87.841L82.5055 87.8465C83.3394 88.1798 84.2246 88.1084 85.1228 87.6987L85.1239 87.6982C86.1705 87.2177 87.2449 86.8674 88.3476 86.6466L88.2494 86.1563L88.3476 86.6466C89.4139 86.433 90.6277 86.4449 91.9969 86.698C93.0256 86.8882 93.8299 87.1616 94.4282 87.5037L94.4409 87.511L94.4539 87.5175C95.1119 87.8444 95.5708 88.2096 95.8641 88.5985L95.87 88.6065L95.8763 88.6141C96.2216 89.0361 96.4379 89.472 96.5397 89.9231C96.645 90.3891 96.653 90.8717 96.5599 91.3755L96.5108 91.6412C96.4189 92.1383 96.2848 92.5862 96.1111 92.9874C95.9577 93.3219 95.6805 93.7096 95.2529 94.1497C94.8315 94.5837 94.2352 95.07 93.4528 95.6083C92.7105 96.1189 91.7059 96.7491 90.4353 97.5L90.4353 97.4999L90.431 97.5026C89.304 98.184 88.3597 98.8326 87.603 99.4489L87.6012 99.4504C86.8788 100.044 86.2752 100.687 85.7958 101.379L85.7956 101.379L85.7889 101.389C85.3568 102.047 85.0124 102.758 84.7552 103.522C84.5024 104.273 84.2899 105.12 84.1162 106.059C83.9172 107.135 84.1219 108.078 84.8099 108.798L84.8164 108.805L84.8231 108.812C85.4636 109.434 86.2807 109.826 87.2481 110.005C88.16 110.174 89.0218 110.065 89.813 109.664C90.6834 109.25 91.2166 108.534 91.3948 107.57C91.496 107.022 91.6169 106.561 91.7546 106.181L91.7546 106.181L91.7567 106.175C91.8909 105.79 92.0994 105.431 92.3874 105.096L92.393 105.09L92.3983 105.083C92.6985 104.71 93.1076 104.325 93.6353 103.933L93.6421 103.928L93.6488 103.922C94.1867 103.493 94.9033 102.999 95.8044 102.44ZM89.6932 114.481C88.9803 113.445 87.9784 112.806 86.7183 112.573C85.4583 112.34 84.2941 112.578 83.2578 113.291C82.2215 114.004 81.5826 115.006 81.3496 116.266C81.1167 117.526 81.3551 118.69 82.068 119.727C82.7809 120.763 83.7828 121.402 85.0429 121.635C86.303 121.868 87.4671 121.629 88.5034 120.916C89.5398 120.204 90.1787 119.202 90.4116 117.942C90.6446 116.681 90.4062 115.517 89.6932 114.481Z" fill="#3196FF" stroke="#3196FF"/>
</svg>
