<svg width="150" height="200" viewBox="0 0 150 200" fill="none" xmlns="http://www.w3.org/2000/svg">
<rect width="150" height="200" fill="#FFD3ED"/>
<path d="M74.5 143.111C100.181 143.111 121 122.715 121 97.5557C121 72.396 100.181 52 74.5 52C48.8188 52 28 72.396 28 97.5557C28 122.715 48.8188 143.111 74.5 143.111Z" fill="#FEF0F5"/>
<path d="M74.5025 84.3705C76.5914 81.6925 79.1392 79.9445 82.4821 79.282C89.4252 77.9091 96.3881 83.8756 96.9459 90.5365C97.393 95.8964 95.0193 100.282 91.6723 104.305C87.0673 109.845 81.228 114.103 75.0841 118.01C74.8111 118.182 74.2018 118.19 73.9328 118.014C67.239 113.732 60.8735 109.087 56.1458 102.777C53.6376 99.4284 51.9088 95.7966 52.0037 91.5702C52.1185 86.5575 55.3309 81.2615 60.2365 79.6771C65.1422 78.0927 70.487 79.6132 73.8102 83.5404C74.004 83.7678 74.1939 83.9993 74.5025 84.3705Z" fill="#FF4A87"/>
<path d="M56.6581 136.138C56.5371 139.46 48.2406 142.493 44.9301 144.345C42.5871 145.328 35.5494 149.589 34.1473 147.759C32.8481 145.653 35.975 138.003 36.9247 134.286C37.7311 131.709 38.5105 128.923 39.5991 126.522C41.9152 120.979 45.6961 124.187 49.1634 127.013C51.7035 129.331 56.6222 132.991 56.6626 136.085V136.138H56.6581Z" fill="#FEF0F5"/>
</svg>
