<svg width="150" height="200" viewBox="0 0 150 200" fill="none" xmlns="http://www.w3.org/2000/svg">
<g clip-path="url(#clip0_10888_17778)">
<rect width="150" height="200" fill="#81D4FA"/>
<path d="M47.4514 9.5954L75.3509 33.3096L102.319 58.0008L87.7176 90.6258L71.8534 122.692L34.9298 119.142L-1.84273 114.269L-10.0615 79.4492L-16.924 44.3708L14.9201 26.402L47.4514 9.5954Z" fill="#001AFF" fill-opacity="0.4"/>
<path d="M87.7225 42.1544L126.859 58.4772L165.311 76.2046L160.664 117.299L154.427 158.222L112.419 167.297L70.1125 174.861L48.7965 139.376L28.8866 103.128L57.721 72.1214L87.7225 42.1544Z" fill="#2278D2" fill-opacity="0.4"/>
<path d="M26.4286 137H67.5714L79 231H15L26.4286 137Z" fill="#111D89" fill-opacity="0.4"/>
<path d="M103.837 112.177L178.851 79.9512L236.791 157.367L120.104 207.496L103.837 112.177Z" fill="#0094FF" fill-opacity="0.4"/>
<path d="M22.2543 124.816L46.8692 143.264L-16.4135 193.827L-35.0015 170.564L22.2543 124.816Z" fill="#4DD4FF" fill-opacity="0.8"/>
<path d="M101.644 165.967L74.7908 150.963L54.2764 229.324L83.0832 236.866L101.644 165.967Z" fill="#4DD4FF" fill-opacity="0.8"/>
<path d="M123.097 67.7405L54.0002 69.6002L107.483 -129.999L171.486 -112.849L123.097 67.7405Z" fill="#001AFF" fill-opacity="0.5"/>
<path d="M108.916 -14H14.1006L6 14.0769L24.1006 33H98.9162L114 14.0769L108.916 -14Z" fill="#111D89" fill-opacity="0.4"/>
</g>
<defs>
<clipPath id="clip0_10888_17778">
<rect width="150" height="200" fill="white"/>
</clipPath>
</defs>
</svg>
