<svg width="150" height="200" viewBox="0 0 150 200" fill="none" xmlns="http://www.w3.org/2000/svg">
<g clip-path="url(#clip0_10888_18032)">
<rect width="150" height="200" fill="#FFE082"/>
<path d="M85.8468 104.01C97.0151 112.737 104.305 123.381 107.068 137.348C112.794 166.354 87.9107 195.444 60.1312 197.774C37.7779 199.642 19.4857 189.725 2.70822 175.742C-20.3941 156.504 -38.1537 132.108 -54.4485 106.44C-55.1642 105.3 -55.1975 102.754 -54.4651 101.63C-36.6057 73.665 -17.2317 47.0714 9.08301 27.3204C23.0476 16.8416 38.194 9.61889 55.8204 10.0156C76.7257 10.4949 98.8127 23.9156 105.421 44.4104C112.028 64.9052 105.687 87.2345 89.3088 101.118C88.3601 101.928 87.3947 102.721 85.8468 104.01Z" fill="#F82069" fill-opacity="0.4"/>
<path d="M125.095 124.146C115.124 132.702 104.118 137.383 90.9173 137.345C63.5034 137.253 41.5994 109.331 44.5497 83.6625C46.9306 63.009 59.2834 48.1971 75.056 35.5038C96.7608 18.0225 122.179 6.33755 148.486 -3.78411C149.653 -4.2263 151.973 -3.79192 152.861 -2.92127C175.025 18.4124 195.666 40.8721 208.819 68.3897C215.797 82.9922 219.599 98.0742 216.023 114.019C211.772 132.928 195.542 150.549 175.705 152.812C155.868 155.076 136.726 145.237 127.093 127.82C126.53 126.81 125.985 125.788 125.095 124.146Z" fill="#FF4A87" fill-opacity="0.4"/>
<path d="M102.555 210.008C110.846 216.506 116.257 224.433 118.308 234.833C122.559 256.434 104.087 278.096 83.4655 279.832C66.8719 281.223 53.2931 273.838 40.8386 263.425C23.689 249.098 10.5056 230.932 -1.5906 211.817C-2.1219 210.968 -2.1466 209.072 -1.60295 208.235C11.6546 187.41 26.0366 167.606 45.5708 152.898C55.9372 145.095 67.1808 139.716 80.2654 140.012C95.7841 140.369 112.18 150.363 117.085 165.625C121.99 180.887 117.283 197.515 105.125 207.854C104.421 208.457 103.704 209.048 102.555 210.008Z" fill="#FF4A87" fill-opacity="0.6"/>
<circle cx="76.5" cy="-3.5" r="48.5" fill="#7E57C2" fill-opacity="0.4"/>
<circle cx="26" cy="158" r="36" fill="#FFC700" fill-opacity="0.4"/>
<path d="M132.949 149.214C126.707 147.987 121.629 145.206 117.687 140.175C109.506 129.724 113.558 113.028 124.201 106.457C132.768 101.172 142.102 101.43 151.655 103.623C164.806 106.636 176.867 112.798 188.6 119.767C189.118 120.078 189.648 121.09 189.583 121.689C188.114 136.51 185.761 151.089 179.24 164.337C175.779 171.366 171.185 177.332 164.05 180.751C155.587 184.802 144.023 183.912 137.217 177.048C130.412 170.184 128.415 159.957 132.151 151.075C132.366 150.558 132.591 150.045 132.949 149.214Z" fill="#FFD05E" fill-opacity="0.6"/>
</g>
<defs>
<clipPath id="clip0_10888_18032">
<rect width="150" height="200" fill="white"/>
</clipPath>
</defs>
</svg>
