<svg width="150" height="200" viewBox="0 0 150 200" fill="none" xmlns="http://www.w3.org/2000/svg">
<rect width="150" height="200" fill="#E8F5E9"/>
<path d="M121.671 46.1325C123.978 44.3402 126.973 43.3158 128.638 40.9174C128.949 40.4707 129.207 39.9737 129.283 39.4353C129.358 38.8968 129.227 38.3104 128.847 37.9215C128.583 37.6518 128.225 37.4967 127.87 37.3667C126.683 36.932 125.424 36.6983 124.161 36.6775C125.27 34.8372 126.247 33.3115 126.332 31.5957C126.362 30.9786 126.226 30.2774 125.707 29.9432C125.303 29.6833 124.783 29.7193 124.307 29.7816C122.903 29.9651 121.519 30.2971 120.185 30.77C120.601 29.467 120.819 28.3334 120.798 27.204C120.786 26.5433 120.655 25.8148 120.135 25.4063C119.943 25.2556 119.712 25.1617 119.476 25.0994C118.237 24.774 116.943 25.3026 115.803 25.8891C114.347 26.6383 112.949 27.499 111.785 28.6992C113.514 29.6243 115.276 30.5745 116.611 32.0096C117.862 33.3541 118.667 35.0491 119.344 36.7551C119.905 38.1695 120.394 39.6122 120.882 41.055C121.372 42.5054 121.87 44.0377 121.673 46.1314L121.671 46.1325Z" fill="#EFC33F"/>
<path d="M118.58 79.8075C120.094 79.6721 121.836 79.4001 122.61 78.0917C122.875 77.6428 122.986 77.1219 123.079 76.6096C123.438 74.6197 123.571 72.5893 123.472 70.5699C123.414 69.3904 123.179 68.0492 122.174 67.4288C121.562 67.052 120.802 67.0378 120.083 67.0357C118.242 67.0302 116.402 67.0236 114.56 67.0182C113.149 67.324 111.367 65.9293 111.162 64.1862C110.956 62.4201 112.154 60.8201 113.366 59.5193C115.69 57.0281 118.335 54.8219 120.364 52.086C122.196 49.6166 123.487 46.7486 124.12 43.7407C124.961 40.8061 124.465 37.4214 122.955 34.5588C121.445 31.6962 118.932 29.3754 115.958 28.0975C113.254 26.9355 110.27 26.6373 107.341 26.3523C103.589 26.326 99.8607 27.0425 96.736 28.8992C93.6102 30.7559 91.1386 33.8041 90.3009 37.3417C89.4632 40.8792 90.385 44.8624 92.9374 47.4508C94.296 48.8291 96.2914 49.8165 98.1514 49.2857C100.065 48.7396 101.344 46.754 103.29 46.3433C104.379 46.114 105.572 46.4537 106.378 47.2215C107.183 47.9893 107.578 49.1644 107.401 50.2632C107.222 51.3739 106.513 52.3274 105.729 53.1345C103.43 55.5023 100.371 56.9855 97.8991 59.172C96.4738 60.4335 95.2604 61.9145 94.1344 63.449C92.7331 65.3592 91.4422 67.3961 90.7716 69.6667C90.101 71.9384 90.1043 74.4875 91.144 76.3803C92.1073 78.3451 94.4773 79.1074 96.6202 79.5497C103.671 81.0056 110.916 80.489 118.58 79.8064V79.8075Z" fill="#41CDCD"/>
<path d="M96.1151 62.5345C95.427 62.6929 95.0011 63.3777 94.799 64.0134C94.6985 64.3301 94.7335 64.6719 94.7815 65.0007C94.9519 66.1584 95.2992 67.3303 96.0605 68.2193C96.8217 69.1083 98.0668 69.6522 99.1906 69.3268C99.4844 69.2416 99.7651 69.0985 99.9868 68.8877C100.429 68.4661 100.591 67.8261 100.618 67.2156C100.686 65.6494 99.9573 64.0833 98.7592 63.073C98.1509 62.5597 97.358 62.1709 96.1162 62.5356L96.1151 62.5345Z" fill="#95E9E9"/>
<path d="M95.5136 70.0409C95.1696 69.4992 94.5459 69.2098 93.9037 69.236C93.6798 69.2447 93.4581 69.2688 93.2397 69.3168C92.7362 69.4282 92.2447 69.6925 91.9673 70.1272C91.8472 70.3151 91.7718 70.5281 91.7128 70.7432C91.5381 71.38 91.5075 72.0811 91.7773 72.684C92.046 73.2869 92.6598 73.762 93.3194 73.7314C93.7661 73.7106 94.1735 73.4736 94.5241 73.1962C94.7622 73.0084 94.9839 72.7965 95.1597 72.5497C95.3858 72.2329 95.5322 71.8638 95.6348 71.4892C95.6993 71.2532 95.7375 71.0108 95.732 70.7661C95.7255 70.5149 95.6752 70.2932 95.5136 70.0388V70.0409Z" fill="#95E9E9"/>
<path d="M96.5476 74.4786C96.7256 73.6518 97.287 72.9157 98.0384 72.5258C98.4524 72.3106 98.9657 72.2036 99.3807 72.4166C99.8569 72.6612 100.055 73.2477 100.069 73.784C100.088 74.5146 99.8372 75.2595 99.3359 75.7914C98.8346 76.3233 98.0788 76.6203 97.3547 76.5166C97.157 76.4882 96.9561 76.427 96.8097 76.2905C96.6634 76.1529 96.5913 75.9563 96.5236 75.7674C96.3882 75.3906 96.4253 75.0422 96.5465 74.4786H96.5476Z" fill="#95E9E9"/>
<path d="M107.355 33.2824C107.655 32.3617 108.012 31.3656 108.838 30.8599C109.04 30.7365 109.261 30.648 109.488 30.5781C110.541 30.2538 111.712 30.328 112.716 30.7824C113.72 31.2367 114.546 32.0689 114.997 33.0748C115.268 33.681 115.404 34.3778 115.206 35.0112C114.966 35.779 114.275 36.3295 113.538 36.6506C112.325 37.1792 110.882 37.1891 109.689 36.6157C108.497 36.0423 106.859 34.8158 107.358 33.2813L107.355 33.2824Z" fill="#95E9E9"/>
<path d="M116.853 35.3901C117.093 34.7501 117.431 34.1472 117.849 33.6076C118.042 33.3586 118.261 33.1173 118.545 32.9796C118.877 32.8202 119.265 32.8202 119.628 32.8824C120.721 33.0681 121.733 33.8424 122.057 34.9029C122.382 35.9634 121.905 37.2522 120.904 37.7295C120.218 38.0561 119.407 37.9883 118.674 37.7863C118.152 37.6421 117.63 37.4204 117.265 37.0207C116.9 36.6209 116.632 35.9798 116.854 35.3901H116.853Z" fill="#95E9E9"/>
<path d="M117.617 39.7426C117.221 39.2621 116.739 38.8525 116.199 38.5423C115.907 38.3741 115.591 38.2332 115.254 38.207C114.918 38.1808 114.559 38.2867 114.34 38.5423C114.245 38.6537 114.181 38.7881 114.128 38.9246C113.793 39.7918 113.913 40.8075 114.384 41.6102C114.855 42.413 115.653 43.0016 116.539 43.2845C116.735 43.3468 116.938 43.3959 117.145 43.3926C117.824 43.3817 118.394 42.7636 118.496 42.0919C118.596 41.4191 118.384 40.6753 117.618 39.7415L117.617 39.7426Z" fill="#95E9E9"/>
<path d="M97.8673 29.9936C95.5857 31.8721 93.2365 33.8762 92.1279 36.7017C91.2039 39.0575 91.4267 41.9419 93.2048 43.839C93.7585 44.4299 94.6454 43.5409 94.0927 42.9511C92.532 41.2855 92.567 38.6829 93.4822 36.7071C94.605 34.2847 96.7391 32.5416 98.7552 30.8815C99.3799 30.3671 98.4865 29.4824 97.8673 29.9936Z" fill="white"/>
<path d="M96.0362 45.6578C96.0067 45.5519 95.9521 45.4591 95.8746 45.3804C95.8429 45.3488 95.8123 45.3182 95.7806 45.2865C95.7238 45.2253 95.6561 45.1817 95.5786 45.1565C95.5032 45.1172 95.4235 45.0987 95.3361 45.1019C95.2498 45.0987 95.169 45.1172 95.0937 45.1565C95.0161 45.1817 94.9484 45.2253 94.8916 45.2865C94.8588 45.3291 94.8261 45.3717 94.7933 45.4132C94.7365 45.5115 94.7081 45.6163 94.707 45.7299C94.7147 45.7856 94.7223 45.8413 94.73 45.897C94.7595 46.003 94.8141 46.0958 94.8916 46.1745C94.9233 46.2061 94.9539 46.2367 94.9855 46.2684C95.0423 46.3295 95.11 46.3732 95.1876 46.3983C95.2629 46.4376 95.3427 46.4562 95.4301 46.4529C95.5163 46.4562 95.5972 46.4376 95.6725 46.3983C95.7501 46.3732 95.8178 46.3295 95.8746 46.2684C95.9073 46.2258 95.9401 46.1832 95.9729 46.1417C96.0297 46.0434 96.058 45.9385 96.0591 45.8249C96.0515 45.7692 96.0439 45.7135 96.0362 45.6578Z" fill="white"/>
<path d="M121.959 102.706C122.34 102.953 122.587 103.277 122.702 103.676C122.835 104.076 122.74 104.514 122.416 104.989L114.966 115.75H120.875V111.069C120.875 110.536 121.056 110.146 121.417 109.899C121.779 109.651 122.197 109.528 122.673 109.528C123.149 109.528 123.567 109.651 123.929 109.899C124.29 110.146 124.471 110.536 124.471 111.069V115.75H126.212C126.65 115.75 126.964 115.902 127.154 116.207C127.345 116.492 127.44 116.835 127.44 117.234C127.44 117.615 127.345 117.957 127.154 118.262C126.964 118.547 126.65 118.69 126.212 118.69H124.471V121.516C124.471 122.049 124.29 122.439 123.929 122.686C123.567 122.933 123.149 123.057 122.673 123.057C122.197 123.057 121.779 122.933 121.417 122.686C121.056 122.439 120.875 122.049 120.875 121.516V118.69H112.883C112.084 118.69 111.503 118.547 111.142 118.262C110.799 117.976 110.628 117.529 110.628 116.92C110.628 116.825 110.637 116.73 110.656 116.635C110.676 116.521 110.714 116.397 110.771 116.264C110.828 116.112 110.913 115.94 111.028 115.75C111.142 115.541 111.303 115.284 111.513 114.979L119.705 103.134C119.99 102.716 120.342 102.487 120.761 102.449C121.179 102.392 121.579 102.478 121.959 102.706Z" fill="#4FC3F7"/>
<path d="M68.7615 89.7969C67.9792 89.7969 67.3087 89.9087 66.75 90.1322C66.2136 90.3333 65.7666 90.6239 65.409 91.0038C65.0514 91.3614 64.7832 91.7861 64.6044 92.2778C64.448 92.7695 64.3697 93.2947 64.3697 93.8535V94.1887C64.3697 95.5073 64.7273 96.5354 65.4425 97.273C66.1577 97.9882 67.2082 98.3458 68.5939 98.3458C70.069 98.3458 71.1753 97.9882 71.9128 97.273C72.6727 96.5354 73.0527 95.4962 73.0527 94.1552V93.954C73.0527 92.546 72.7062 91.5067 72.0134 90.8362C71.3206 90.1434 70.2366 89.7969 68.7615 89.7969ZM69.6331 77.6609C70.7059 77.6609 71.7005 77.7615 72.6168 77.9627C73.5332 78.1638 74.2819 78.432 74.863 78.7673C75.3771 79.0802 75.69 79.4489 75.8017 79.8736C75.9135 80.2982 75.8688 80.7676 75.6676 81.2816C75.4665 81.7957 75.1424 82.1533 74.6954 82.3544C74.2707 82.5332 73.7679 82.4997 73.1868 82.2538C72.0022 81.7845 70.7283 81.5498 69.3649 81.5498C68.7168 81.5498 68.1022 81.6616 67.5211 81.8851C66.9623 82.1086 66.4594 82.4885 66.0124 83.0249C65.5654 83.539 65.1855 84.2206 64.8726 85.0699C64.5821 85.8969 64.3921 86.925 64.3027 88.1542C64.8838 87.4614 65.666 86.9362 66.6494 86.5786C67.6552 86.221 68.6833 86.0422 69.7337 86.0422C70.8959 86.0422 71.9464 86.2321 72.885 86.6121C73.8237 86.9697 74.6172 87.4949 75.2653 88.1877C75.9135 88.8582 76.4052 89.674 76.7404 90.6351C77.098 91.5961 77.2768 92.6577 77.2768 93.8199V94.3228C77.2768 95.4403 77.0757 96.4907 76.6734 97.4741C76.2934 98.4352 75.7347 99.2733 74.9971 99.9885C74.2596 100.681 73.3544 101.229 72.2816 101.631C71.2312 102.034 70.0354 102.235 68.6944 102.235C67.1523 102.235 65.8336 102 64.7385 101.531C63.6434 101.039 62.7494 100.346 62.0565 99.4521C61.3637 98.5581 60.8496 97.4853 60.5144 96.2337C60.2015 94.9598 60.045 93.5517 60.045 92.0096V90.8027C60.045 88.143 60.2909 85.9639 60.7826 84.2653C61.2966 82.5444 61.9895 81.2034 62.8611 80.2424C63.7328 79.259 64.7497 78.5885 65.9119 78.2309C67.0741 77.8509 68.3145 77.6609 69.6331 77.6609Z" fill="#424242"/>
<g clip-path="url(#clip0_10888_17787)">
<path d="M49 117.573C49 121.409 48.304 124.433 46.9144 126.645C45.6025 128.74 43.2589 130.718 39.8814 132.576C43.9549 134.355 45.9916 137.351 45.9916 141.561C45.9916 144.961 44.7286 147.6 42.2072 149.478C39.9414 151.16 37.0309 151.998 33.4755 151.998C31.5833 151.998 28.2725 151.653 25.691 151.346C23.5854 151.093 22.0022 149.319 22.0022 147.209C22.0022 144.653 24.3858 142.753 26.8917 143.317C28.5215 143.684 30.0869 143.994 30.7339 143.994C32.1236 143.994 33.2665 143.589 34.1603 142.777C35.0542 141.968 35.5011 140.939 35.5011 139.693C35.5011 138.448 35.0631 137.51 34.1892 136.698C33.7334 136.282 32.3171 135.975 30.9429 135.767C29.1775 135.501 27.8723 133.995 27.8723 132.22V132.123C27.8723 130.738 28.6705 129.47 29.9335 128.884C30.6628 128.546 31.2587 128.066 31.7167 127.446C32.3326 126.597 32.6395 125.656 32.6395 124.63C32.6395 121.962 31.1297 120.628 28.1102 120.628C27.9012 120.628 27.6899 120.632 27.472 120.643C24.5037 120.785 22 118.471 22 115.515V111.889C22 108.682 24.3591 105.963 27.5476 105.489C29.8067 105.153 32.1481 104.991 34.2182 105C38.4495 105.04 41.9715 106.226 44.7842 108.558C47.5947 110.889 49.0022 113.896 49.0022 117.573H49Z" fill="#FF2E5A"/>
<path opacity="0.35" d="M39.55 137.682C39.2388 137.481 38.8385 137.518 38.525 137.682C38.4094 137.742 38.3382 137.799 38.2604 137.906C37.7779 138.574 38.1937 139.682 38.0892 140.465C37.9447 141.567 37.6067 142.857 36.9819 143.777C35.2943 146.264 31.2453 145.476 28.7505 144.943C25.7043 144.292 24.3924 148.879 27.4564 149.615C31.6077 150.615 37.222 150.901 40.0615 147.124C42.0848 144.434 42.7608 139.773 39.55 137.682Z" fill="#BD0019"/>
<path opacity="0.35" d="M35.9691 125.347C35.0998 126.374 34.7974 127.716 33.8279 128.681C32.9252 129.577 31.6311 130.079 30.9996 131.212C30.6105 131.911 30.8707 132.674 31.5021 133.117C33.1453 134.267 35.4666 133.168 36.8674 132.119C38.415 130.96 40.1516 129.097 40.0737 127.039C40.0026 125.133 37.39 123.672 35.9691 125.347Z" fill="#BD0019"/>
<path opacity="0.35" d="M41.9396 109.352C40.1363 107.976 38.1374 107.074 36.0028 106.76C34.6487 106.335 33.2057 106.153 31.9138 106.173C28.4496 106.226 24.9342 108.111 24.0804 111.66C23.3022 114.896 25.5235 119.144 29.3457 118.414C31.3424 118.033 32.8432 116.272 34.5754 115.328C36.4787 114.29 38.4354 114.354 40.5388 114.5C43.605 114.715 43.8763 110.828 41.9396 109.352Z" fill="#BD0019"/>
<path opacity="0.35" d="M44.1759 116.267C44.0825 116.216 43.978 116.172 43.878 116.125C41.8057 114.878 38.9685 114.55 36.9673 115.355C35.3953 115.988 33.83 117.561 34.3769 119.406C34.8328 120.944 36.4181 121.419 37.8478 121.187C37.8767 121.183 37.9034 121.172 37.9323 121.165C39.3554 121.999 40.3026 122.913 41.5077 124.078C42.7217 125.253 44.7474 125.601 46.017 124.28C48.0915 122.125 46.5351 117.535 44.1759 116.269V116.267Z" fill="#BD0019"/>
<path opacity="0.35" d="M46.5435 112.933C46.4323 112.734 46.2878 112.55 46.1366 112.38C45.9142 112.128 45.6118 112.026 45.3117 111.902C44.887 111.729 44.3222 111.94 44.0176 112.243C43.7107 112.548 43.5039 113.108 43.6752 113.53C43.7352 113.676 43.7997 113.822 43.8619 113.966C43.8731 113.993 43.8819 114.019 43.8908 114.046C44.1666 114.864 45.0182 115.331 45.8497 114.982C46.6547 114.643 46.9682 113.696 46.5435 112.933Z" fill="#BD0019"/>
<path opacity="0.35" d="M42.9377 141.12C42.8954 141.08 42.8265 141.086 42.7954 141.137C42.2907 141.967 42.4885 143.203 42.1884 144.15C41.8348 145.263 41.0766 146.208 40.7942 147.34C40.7075 147.686 41.0722 147.951 41.3812 147.79C42.6019 147.148 43.0778 145.737 43.3112 144.458C43.4847 143.502 43.7293 141.85 42.9399 141.117L42.9377 141.12Z" fill="#BD0019"/>
<path opacity="0.35" d="M36.9761 114.582C35.2706 114.582 35.2662 117.221 36.9761 117.221C38.6859 117.221 38.6859 114.582 36.9761 114.582Z" fill="#940015"/>
<path opacity="0.35" d="M39.5961 127.023C38.4732 127.023 38.4732 128.758 39.5961 128.758C40.7189 128.758 40.7189 127.023 39.5961 127.023Z" fill="#940015"/>
<path opacity="0.37" d="M38.4621 111.804C36.2097 109.967 33.4659 108.992 30.5553 108.892C28.3563 108.817 23.8426 109.472 24.474 112.666C25.0766 115.711 29.03 114.222 31.1112 114.485C33.686 114.812 36.0429 116.357 37.208 118.671C38.5043 121.243 38.3443 124.4 36.9523 126.887C36.1252 128.363 34.9223 129.471 33.4103 130.241C32.2229 130.845 30.6576 130.918 29.7015 131.878C29.5236 132.057 29.5169 132.365 29.7015 132.542C31.2357 134.019 34.1863 132.938 35.8473 132.199C38.2086 131.146 40.4232 129.352 41.6373 127.051C44.3032 121.993 42.9024 115.423 38.4643 111.801L38.4621 111.804Z" fill="#FF738F"/>
<path opacity="0.37" d="M46.7426 116.519C45.8621 114.017 44.2678 110.862 41.7486 109.679C41.6241 109.621 41.484 109.772 41.5951 109.878C43.3006 111.484 44.3412 114.451 45.0438 116.656C45.9577 119.523 45.0127 121.818 44.5235 124.607C44.4301 125.138 45.0927 125.678 45.5263 125.187C47.543 122.897 47.7209 119.293 46.7448 116.519H46.7426Z" fill="#FF738F"/>
<path opacity="0.37" d="M40.1333 140.385C39.7953 138.562 39.0037 136.33 37.2983 135.479C37.2316 135.445 37.1382 135.501 37.1649 135.58C38.1232 138.381 38.5346 142.39 35.544 144.089C34.2432 144.828 32.6201 145.071 31.1637 145.348C30.4099 145.491 29.6317 145.666 28.8623 145.677C28.0685 145.688 27.7106 145.509 26.9879 145.797C26.5188 145.982 26.3498 146.396 26.5543 146.859C27.3504 148.657 30.2631 148.308 31.8685 148.164C34.2032 147.956 36.5045 147.418 38.3056 145.828C39.9443 144.381 40.5313 142.518 40.1355 140.385H40.1333Z" fill="#FF738F"/>
<path opacity="0.37" d="M24.4551 144.865C22.9453 145.838 22.634 148.533 24.3217 149.488C24.5996 149.646 25.0421 149.378 24.9087 149.039C24.4017 147.754 24.235 146.65 25.0265 145.433C25.2533 145.088 24.802 144.641 24.4551 144.865Z" fill="#FF738F"/>
<path opacity="0.4" d="M34.2271 112.006C33.7068 111.851 33.2465 112.57 33.6801 112.942C36.0326 114.959 38.1338 116.966 38.7964 120.134C39.5168 123.574 38.4317 126.731 36.5128 129.574C36.4239 129.704 36.604 129.89 36.7374 129.797C42.8076 125.481 41.7981 114.249 34.2293 112.006H34.2271Z" fill="#FFF5FF"/>
<path opacity="0.4" d="M31.9095 110.917C30.9712 110.736 30.0395 110.842 29.099 110.97C28.2185 111.09 27.3113 111.16 26.6442 111.787C26.3507 112.063 26.4775 112.64 26.8932 112.722C27.7026 112.884 28.4186 112.592 29.2124 112.426C30.1084 112.238 31.0267 112.2 31.9095 111.966C32.4075 111.833 32.452 111.021 31.9095 110.917Z" fill="#FFF5FF"/>
<path opacity="0.4" d="M38.1335 138.844C38.1224 138.824 38.0935 138.837 38.0979 138.859C38.7716 141.39 37.6443 144.076 35.592 145.622C35.3341 145.817 35.5475 146.204 35.8477 146.06C38.5782 144.751 39.4587 141.45 38.1312 138.846L38.1335 138.844Z" fill="#FFF5FF"/>
<path opacity="0.4" d="M34.1927 146.283C33.4789 146 32.8675 146.194 32.1248 146.316C31.4489 146.427 30.8641 146.504 30.3549 146.997C30.306 147.046 30.3171 147.134 30.3771 147.168C30.9997 147.515 31.5823 147.44 32.2693 147.373C33.012 147.303 33.6568 147.331 34.2705 146.876C34.5062 146.701 34.4639 146.389 34.1927 146.281V146.283Z" fill="#FFF5FF"/>
<path opacity="0.4" d="M27.0051 106.414C25.5931 106.467 24.4414 107.372 23.692 108.54C23.0294 109.573 22.349 111.376 22.9939 112.536C23.1295 112.781 23.4741 112.699 23.5586 112.463C23.741 111.949 23.6876 111.414 23.801 110.883C23.9411 110.221 24.2146 109.62 24.5681 109.049C25.204 108.022 26.1201 107.266 27.0451 106.507C27.0829 106.476 27.0518 106.412 27.0073 106.414H27.0051Z" fill="#FFF5FF"/>
</g>
<path d="M45.2194 74.4402L45.3094 71.9902L42.6094 74.4402H45.2194Z" fill="#FDD248"/>
<path d="M45.45 68.42L45.48 67.62L45.9 56.29L45.92 55.75L42.73 58.65L38.62 49.01L46.08 51.48L46.6 37.79L40.6 36.06L46.92 29L47.29 19.04L44.69 18.88L38.99 18.52L44.01 25.25L36.33 26.4L37.51 18.43L30.66 18L27.58 22.06L32.19 23.59L25.51 29.65L24.18 26.54L22.17 29.19L20 32.05L25.69 38.38L27.01 39.86L29.42 37.63L30.29 36.83L34.04 33.36L33.2 40.71L32.08 50.54L31.37 56.82L32.42 53.4L39.23 58.4L30.67 62.93L30.16 67.39L29.36 74.45H31.93L35 71.02L35.18 74.45H41.15L37.45 65.77L45.45 68.42ZM35.8 38L42.08 46.42L34.39 47.57L35.8 38Z" fill="#FDD248"/>
<path d="M46.6016 37.79L46.8416 31.08L46.9216 29L40.6016 36.06L46.6016 37.79Z" fill="#EE7A2B"/>
<path d="M31.9219 74.4395H35.1719L34.9919 71.0195L31.9219 74.4395Z" fill="#EE7A2B"/>
<path d="M32.4102 53.3906L31.3602 56.8106L30.6602 62.9306L39.2202 58.3906L32.4102 53.3906Z" fill="#EE7A2B"/>
<path d="M35.8006 38L34.3906 47.57L42.0706 46.42L35.8006 38Z" fill="#C9793E"/>
<path d="M44.0081 25.2497L38.9881 18.5197L37.4981 18.4297L36.3281 26.3997L44.0081 25.2497Z" fill="#C9793E"/>
<path d="M42.7311 58.6398L45.9211 55.7498L46.0811 51.4798L38.6211 49.0098L42.7311 58.6398Z" fill="#EE7A2B"/>
<path d="M32.1819 23.5905L27.5719 22.0605L26.3819 23.6205L25.8419 24.3405L24.1719 26.5405L25.5019 29.6505L32.1819 23.5905Z" fill="#C9793E"/>
<path d="M37.4414 65.7695L41.1414 74.4395H42.6114L45.3114 71.9895L45.4514 68.4195L37.4414 65.7695Z" fill="#C9793E"/>
<g clip-path="url(#clip1_10888_17787)">
<path d="M75.7773 136.866L75.9761 137.417L77.7469 133H76.5182L75.7773 136.866Z" fill="#6B83BA"/>
<path d="M77.5586 138.917L81.0911 133H79.9257L77.5586 138.917Z" fill="#6B83BA"/>
<path d="M98.4836 176.24L98.4656 178.318C98.8541 177.857 99.2606 177.414 99.5949 176.909L96.9297 174.867L98.4836 176.24Z" fill="#6B83BA"/>
<path d="M96.4687 174.516L95.1497 173.504L94.9961 172.98L91.0118 171.372L90.6414 172.321L87.3709 173.386L88.3647 170.83C87.1902 172.176 85.3201 172.971 83.0162 172.799C82.7362 172.781 82.4742 172.7 82.2031 172.646L82.6097 173.278L95.222 181.191C96.1525 180.613 96.9927 179.953 97.7426 179.213L96.2971 177.939L96.4687 174.525V174.516Z" fill="#6B83BA"/>
<path d="M93.865 159.132L97.1897 162.501L97.3524 159.448L102.764 167.813C102.764 167.813 102.764 167.786 102.764 167.777C104.173 158.409 98.563 153.008 92.2478 151.346L92.1484 152.403L93.8469 159.141L93.865 159.132Z" fill="#6B83BA"/>
<path d="M85.7713 150.94L85.7351 150.832C85.7351 150.832 85.6899 150.832 85.6719 150.832L85.7713 150.94Z" fill="#6B83BA"/>
<path d="M91.0399 183.008C91.3291 182.917 91.6182 182.845 91.8982 182.746L91.6904 182.168L92.7385 182.493C92.874 182.439 92.9914 182.357 93.1179 182.303L85.2578 177.371L87.5526 180.921L87.6158 183.73C88.2031 183.649 88.8355 183.604 89.3776 183.486L88.438 181.391L91.0309 183.008H91.0399Z" fill="#6B83BA"/>
<path d="M88.9253 170.524L88.7085 170.434C88.6633 170.497 88.6272 170.56 88.582 170.614L88.9253 170.524Z" fill="#6B83BA"/>
<path d="M98.1749 166.404L96.7655 164.977L96.1602 164.859L101.174 172.619L101.192 173.359L101.319 173.414C101.662 172.519 101.96 171.58 102.204 170.586L98.9789 165.546L98.1749 166.413V166.404Z" fill="#6B83BA"/>
<path d="M74.5156 168.029L78.9968 174.958L79.0149 175.698L79.6292 175.951L81.2825 178.76L79.0691 177.857V178.011L86.7756 183.846C86.8569 183.846 86.9201 183.828 87.0014 183.819L79.2226 171.661C77.0634 170.568 75.3829 168.969 74.5247 168.047L74.5156 168.029Z" fill="#6B83BA"/>
<path d="M93.6397 166.973L92.682 163.107L91.7695 161.68L93.4319 166.214L92.7001 169.882L94.2902 170.532L94.236 170.351L94.6877 170.695L98.5364 172.266L94.2179 165.519L93.6397 166.973Z" fill="#6B83BA"/>
<path d="M72.1203 172.881L72.0661 172.7L72.5178 173.044L76.3666 174.615L72.816 169.078L70.8555 172.366L72.1203 172.881Z" fill="#6B83BA"/>
<path d="M89.9531 155.176L90.965 156.197L90.7301 155.248L89.9531 155.176Z" fill="#6B83BA"/>
<path d="M88.807 153.604V153.495L89.7828 154.995L89.9002 155.112L90.1171 152.773L89.6473 150.876C88.9426 150.794 88.3372 150.749 87.75 150.74L88.798 153.595L88.807 153.604Z" fill="#6B83BA"/>
<path d="M74.7579 177.216L76.3118 178.589L76.2757 182.175L74.1164 180.278L74.2881 176.864L72.9781 175.861L72.8245 175.337L69.825 174.127L68 177.189C68 177.189 73.7189 183.53 83.2865 183.946L83.1871 183.684L74.7669 177.234L74.7579 177.216Z" fill="#6B83BA"/>
<path d="M87.4605 133H87.2617L90.0444 144.002L90.9298 144.038L91.9507 133H88.5988L88.111 134.77L87.4605 133Z" fill="#6B83BA"/>
<path d="M74.333 138.592L74.2969 138.637L74.3601 138.673L74.333 138.592Z" fill="#6B83BA"/>
<path d="M97.5425 140.208L97.5876 139.206L96.8739 137.236L96.4222 136.342L95.3019 137.544L95.8891 134.563L95.3199 133H93.9467L92.9258 144.111L96.4312 144.237L95.5006 143.632L97.5425 140.208Z" fill="#6B83BA"/>
<path d="M96.5049 136.242L96.4688 136.287L96.541 136.323L96.5049 136.242Z" fill="#6B83BA"/>
<path d="M77.4147 139.151L76.457 138.727L76.9088 139.991L77.4147 139.151Z" fill="#6B83BA"/>
<path d="M74.4964 133H74.3789L74.4512 133.199L74.4964 133Z" fill="#6B83BA"/>
<path d="M72.4375 133.381L73.7294 136.912L73.1422 139.893L74.2625 138.692L74.7052 139.586L75.6357 142.143L73.3319 145.982L75.0395 147.093L76.5302 144.59L79.0599 151.528L79.9362 148.366L77.804 142.45L83.4507 133.001H81.0926L77.5511 138.918L79.9272 133.001H77.7589L75.9881 137.418L75.7893 136.858L76.5302 132.992H74.5064L74.4703 133.191L74.398 132.992H72.4827L72.4465 133.372L72.4375 133.381ZM77.4156 139.153L76.9096 139.993L76.4579 138.728L77.4156 139.144V139.153ZM74.3348 138.593L74.3619 138.674L74.2986 138.638L74.3348 138.593Z" fill="#5867AF"/>
<path d="M88.1114 134.77L88.5993 133H87.4609L88.1114 134.77Z" fill="#5867AF"/>
<path d="M70.1484 160.595L71.5669 160.975L70.4827 156.666L70.1484 160.595Z" fill="#5867AF"/>
<path d="M91.8953 182.744C92.1573 182.654 92.4735 182.6 92.7355 182.491L91.6875 182.166L91.8953 182.744Z" fill="#5867AF"/>
<path d="M88.4375 181.391L89.3771 183.486C89.9734 183.36 90.4884 183.17 91.0395 183.008L88.4465 181.391H88.4375Z" fill="#5867AF"/>
<path d="M82.2014 172.636C81.1443 172.447 80.1325 172.112 79.2109 171.643L86.9897 183.801C87.1975 183.774 87.4053 183.747 87.6131 183.72L87.5499 180.91L85.2551 177.36L93.1152 182.292C93.865 181.967 94.5697 181.597 95.2293 181.181L82.617 173.269L82.2104 172.636H82.2014Z" fill="#5867AF"/>
<path d="M86.7665 183.837L79.06 178.002V177.849L81.2735 178.752L79.6202 175.943L79.0058 175.69L78.9877 174.949L74.5066 168.021C74.1 167.587 73.8651 167.289 73.8651 167.289L72.8081 169.06L76.3496 174.597L72.5009 173.025L72.0582 172.682L72.1034 172.862L70.8476 172.348L69.8086 174.091L72.8081 175.301L72.9617 175.825L74.2717 176.828L74.1 180.242L76.2593 182.139L76.2954 178.553L74.7415 177.18L83.1617 183.63L83.2611 183.892C84.0471 183.928 84.797 184 85.6282 183.946C86.0257 183.919 86.36 183.837 86.7484 183.801L86.7665 183.837Z" fill="#5867AF"/>
<path d="M88.3633 170.83C88.4265 170.758 88.5169 170.695 88.5801 170.613L88.4356 170.649L88.3633 170.821V170.83Z" fill="#5867AF"/>
<path d="M97.5418 140.207L95.5 143.631L96.4306 144.236L97.3702 144.272L97.5418 140.207Z" fill="#5867AF"/>
<path d="M95.3008 137.544L96.4211 136.342L96.8728 137.236L97.5865 139.206L97.8485 133H95.3279L95.8971 134.563L95.3098 137.544H95.3008ZM96.5024 136.243L96.5385 136.324L96.4662 136.288L96.5024 136.243Z" fill="#5867AF"/>
<path d="M86.0586 136.423L87.9197 143.921L90.0428 144.002L87.2602 133H87.1156L86.0586 136.423Z" fill="#5867AF"/>
<path d="M101.192 173.35L101.174 172.61L96.1602 164.85L96.7655 164.968L98.1749 166.395L98.979 165.528L102.204 170.568C102.43 169.674 102.629 168.771 102.774 167.804L97.3618 159.44L97.1992 162.493L93.8745 159.123L92.176 152.385L92.2753 151.328C92.2753 151.328 92.2392 151.31 92.2211 151.31C91.2815 151.066 90.4684 150.967 89.6643 150.867L90.1341 152.764L89.9173 155.104L89.7999 154.986L88.8332 153.487V153.595L87.7761 150.741C86.963 150.741 86.2854 150.741 85.7524 150.822L85.7885 150.931L85.6891 150.822C84.8308 150.94 84.2346 151.084 84.2346 151.084L84.3791 149.512L81.4609 146.559L81.9488 149.955L87.4328 155.501L87.6316 156.052L85.644 155.42L86.8004 158.681L88.8061 159.313L92.6096 169.836L89.5198 168.572C89.3572 169.249 89.1132 169.882 88.7247 170.424L88.9416 170.514L88.5983 170.604C88.535 170.686 88.4537 170.74 88.3814 170.821L87.3876 173.377L90.6581 172.312L91.0286 171.363L95.0128 172.971L95.1664 173.495L96.4855 174.507L96.3138 177.921L97.7593 179.195C98.0213 178.924 98.2382 178.607 98.4821 178.318L98.5002 176.241L96.9462 174.868L99.6114 176.909C100.307 175.852 100.849 174.66 101.328 173.405L101.202 173.35H101.192ZM89.9535 155.176L90.7304 155.248L90.9653 156.197L89.9535 155.167V155.176ZM94.6876 170.695L94.2358 170.351L94.2901 170.532L92.6909 169.882L93.4227 166.214L91.7604 161.68L92.6729 163.107L93.6305 166.973L94.2087 165.51L98.5182 172.257L94.6695 170.686L94.6876 170.695Z" fill="#5867AF"/>
<path d="M73.702 161.527L73.7472 161.563L75.1837 161.952L75.1927 161.798L75.3192 161.988L77.4333 162.557L73.684 156.694L73.0967 158.149L72.1391 154.292L71.2266 152.855L72.8889 157.39L72.1571 161.057L72.7263 161.292L73.7111 161.554L73.702 161.527Z" fill="#6B83BA"/>
<path d="M70.4844 156.658V156.667L71.5234 160.795L72.0564 161.012L70.4844 156.658Z" fill="#6B83BA"/>
<path d="M77.6319 157.58L76.2135 156.153L75.6172 156.035L79.6918 162.34C80.1435 162.042 80.7127 161.699 81.4174 161.383L78.436 156.722L77.6319 157.589V157.58Z" fill="#6B83BA"/>
<path d="M92.5904 169.838L88.7868 159.314L86.7811 158.682L85.6247 155.421L87.6123 156.053L87.4136 155.502L81.9296 149.956L81.4417 146.56L84.3599 149.513L84.9019 143.796L87.9195 143.913L86.0584 136.416L87.1154 132.992H83.4564L77.8008 142.45L79.9329 148.366L79.0566 151.528L76.5269 144.59L75.0362 147.093L73.3286 145.982L75.6325 142.143L74.7019 139.586L74.2592 138.692L73.1389 139.893L73.7262 136.912L72.4342 133.381L71.6663 142.504C71.6663 142.504 71.7024 142.522 71.7205 142.522L71.6211 143.579L73.3196 150.317L76.6443 153.687L76.8069 150.634L82.2187 158.998C82.1012 159.793 81.9296 160.525 81.7579 161.265C84.125 160.29 87.3503 160.019 89.1392 164.499C89.7354 165.98 89.7806 167.372 89.4915 168.591L92.5813 169.856L92.5904 169.838Z" fill="#6B83BA"/>
<path d="M73.7083 161.554L73.7444 161.563L73.6992 161.527L73.7083 161.554Z" fill="#5867AF"/>
<path d="M76.8164 150.614L76.6538 153.667L73.329 150.298L71.6305 143.559L71.7299 142.502C71.7299 142.502 71.6938 142.484 71.6757 142.484L70.4922 156.648L72.0642 161.002L71.5312 160.785L71.5763 160.966L72.7328 161.273L72.1636 161.047L72.8954 157.38L71.224 152.845L72.1365 154.272L73.0941 158.138L73.6814 156.684L77.4308 162.556L78.8492 162.935C78.8492 162.935 79.2015 162.655 79.6984 162.33L75.6238 156.025L76.2201 156.142L77.6385 157.569L78.4426 156.702L81.424 161.363C81.5325 161.318 81.6589 161.282 81.7674 161.237C81.939 160.496 82.1107 159.764 82.2281 158.969L76.8164 150.605V150.614Z" fill="#5867AF"/>
<path d="M92.9263 144.111L93.9472 133H91.9506L90.9297 144.038L92.9263 144.111Z" fill="#5867AF"/>
</g>
<defs>
<clipPath id="clip0_10888_17787">
<rect width="27" height="47" fill="white" transform="translate(22 105)"/>
</clipPath>
<clipPath id="clip1_10888_17787">
<rect width="35" height="51" fill="white" transform="translate(68 133)"/>
</clipPath>
</defs>
</svg>
