<svg width="150" height="200" viewBox="0 0 150 200" fill="none" xmlns="http://www.w3.org/2000/svg">
<rect width="150" height="200" fill="#E8F5E9"/>
<path d="M43.3125 73.4989C45.184 73.025 47.096 72.6482 49.0271 72.6646C50.1604 72.6742 51.5091 72.977 51.908 74.0382C52.0849 74.5063 52.0272 75.0312 51.9041 75.5166C51.6244 76.6182 51.0073 77.6323 50.1575 78.3878C51.5744 78.0072 53.1028 78.0485 54.4966 78.507C54.9301 78.6493 55.3723 78.8473 55.6434 79.2145C55.8991 79.5596 55.9683 80.0066 55.9779 80.4353C56.0144 82.0954 55.2166 83.7526 53.793 84.9195C55.1387 84.7994 56.4893 84.734 57.8398 84.7254C58.2407 84.7225 58.6579 84.7282 59.0145 84.9118C59.5259 85.1743 59.8066 85.7635 59.8392 86.3374C59.8719 86.9112 59.6941 87.4755 59.4865 88.0109C58.6271 90.2314 57.2121 92.2356 55.4079 93.789C55.3425 92.894 54.8975 92.077 54.4553 91.2964C51.014 85.2175 47.1344 79.3875 43.3125 73.4999V73.4989Z" fill="#EFC33F"/>
<path d="M62.2998 109.631C61.974 102.727 59.2402 96.1832 56.293 89.9313C53.7899 84.6223 51.0763 79.3566 47.3938 74.7868C46.4056 73.5622 45.3338 72.3741 44.0044 71.5311C42.5933 70.6361 40.9371 70.1642 39.2703 70.0421C37.6573 69.9239 36.0078 70.0498 34.0565 70.4823C32.0696 70.9236 30.7075 72.7047 29.5617 74.3869C22.4677 84.8107 17.1529 96.6168 15.1949 109.072C15.0449 110.021 14.9171 111.176 15.067 112.126C15.1372 112.573 15.2496 112.984 15.4015 113.362C15.9091 114.626 16.8645 115.527 18.2122 116.215C18.7976 116.514 19.4224 116.76 20.0674 116.957C20.0838 116.962 20.1011 116.967 20.1174 116.972C21.3882 117.353 22.7387 117.539 24.0287 117.541C24.4478 117.541 24.8881 117.535 25.3322 117.516C25.3504 117.516 25.3677 117.514 25.387 117.513C27.1691 117.434 29.0186 117.149 29.9164 116.325C30.0875 116.169 30.2509 115.98 30.4066 115.768C31.8196 113.842 32.6944 109.826 33.9699 107.392C34.2055 106.942 34.5515 106.264 34.7428 106.137C35.0533 105.932 35.5262 105.869 35.8905 105.796C37.0959 105.554 38.4686 105.542 39.6846 105.719C40.9005 105.897 41.4023 105.862 42.1175 107.765C42.4924 109.581 43.4286 111.357 44.1755 113.053C44.4101 113.586 44.6811 114.133 45.0935 114.532C45.205 114.643 45.3271 114.741 45.4617 114.825C45.9634 115.137 46.5748 115.211 47.1631 115.277C48.4598 115.423 49.769 115.568 51.0773 115.66C51.1282 115.664 51.1772 115.668 51.2282 115.671C53.2824 115.811 55.3356 115.817 57.3446 115.493C57.4032 115.483 57.4638 115.475 57.5224 115.462C58.029 115.377 58.5337 115.269 59.0335 115.136C59.6737 114.966 60.3177 114.749 60.8426 114.344C61.4914 113.841 61.8721 113.13 62.0816 112.337C62.3114 111.477 62.3402 110.52 62.2989 109.629L62.2998 109.631ZM40.0594 96.9397C39.872 97.3117 39.4068 97.4329 38.9944 97.4944C37.9284 97.6549 36.8441 97.6933 35.7684 97.6116C35.2869 97.5751 34.7889 97.5078 34.3775 97.2531C34.0766 97.0666 33.8277 96.7033 34.044 96.2226C34.3794 95.4796 34.7255 94.7231 35.283 94.13C35.8405 93.5369 36.6576 93.1236 37.4612 93.261C38.1158 93.3716 38.6608 93.8224 39.104 94.3165C39.6154 94.8875 40.0479 95.5709 40.1335 96.3322C40.1565 96.5379 40.1517 96.7542 40.0585 96.9397H40.0594Z" fill="#39B836"/>
<path d="M51.0958 115.205C51.0929 115.357 51.0871 115.51 51.0775 115.663C49.7693 115.571 48.46 115.427 47.1633 115.28C46.575 115.214 45.9646 115.14 45.4619 114.828C45.3273 114.744 45.2053 114.646 45.0938 114.535C45.0938 114.242 45.1187 113.965 45.1966 113.718C45.4725 112.865 45.8464 112.001 46.5375 111.43C47.1979 110.885 48.1178 110.668 48.9512 110.864C49.7846 111.06 50.5133 111.661 50.8612 112.443C51.2419 113.295 51.1727 114.271 51.0948 115.204L51.0958 115.205Z" fill="#90DB90"/>
<path d="M57.3469 115.494C55.3379 115.818 53.2847 115.813 51.2305 115.672C51.2353 115.607 51.241 115.542 51.2458 115.477C51.3295 114.486 51.4814 113.473 51.9629 112.602C52.4445 111.73 53.3183 111.018 54.3122 110.977C55.6359 110.921 56.7682 112.069 57.1479 113.339C57.3575 114.038 57.3911 114.764 57.3469 115.494Z" fill="#90DB90"/>
<path d="M62.0832 112.34C61.8727 113.132 61.493 113.843 60.8442 114.347C60.3203 114.753 59.6763 114.969 59.0351 115.139C58.5343 115.272 58.0306 115.38 57.524 115.465C57.5096 115.336 57.4933 115.207 57.4789 115.077C57.3914 114.317 57.303 113.546 57.4183 112.79C57.5327 112.032 57.8759 111.279 58.4978 110.832C59.1428 110.369 60.0502 110.303 60.7548 110.668C61.4036 111.006 61.8295 111.642 62.0842 112.339L62.0832 112.34Z" fill="#90DB90"/>
<path d="M30.4083 115.771C30.2526 115.983 30.0891 116.171 29.918 116.328C29.0193 117.152 27.1708 117.435 25.3886 117.516C25.3608 116.724 25.4329 115.928 25.604 115.155C25.7357 114.557 25.9308 113.962 26.2961 113.471C26.6623 112.98 27.2189 112.604 27.8283 112.573C28.4762 112.539 29.1 112.895 29.5105 113.397C29.9219 113.898 30.1449 114.527 30.291 115.158C30.3381 115.361 30.3766 115.566 30.4083 115.771Z" fill="#90DB90"/>
<path d="M25.332 117.518C24.8879 117.537 24.4476 117.544 24.0285 117.543C22.7385 117.541 21.388 117.353 20.1172 116.974C20.1278 116.833 20.1422 116.694 20.1595 116.554C20.1874 116.329 20.2248 116.104 20.271 115.881C20.2758 115.859 20.2806 115.836 20.2844 115.814C20.4728 114.944 20.816 114.074 21.4649 113.466C22.1137 112.856 23.1172 112.566 23.9247 112.94C24.437 113.176 24.8148 113.646 25.034 114.165C25.2531 114.684 25.3291 115.252 25.3608 115.815C25.3935 116.382 25.3829 116.953 25.331 117.519L25.332 117.518Z" fill="#90DB90"/>
<path d="M20.3134 115.421C20.3047 115.575 20.2922 115.728 20.272 115.881C20.2451 116.106 20.2076 116.331 20.1605 116.554C20.1326 116.69 20.1028 116.825 20.0682 116.958C19.4232 116.761 18.7984 116.515 18.213 116.216C16.8663 115.529 15.9099 114.627 15.4023 113.363C15.6609 112.664 16.1242 112.056 16.8048 111.79C17.7372 111.424 18.8551 111.834 19.4982 112.602C20.1413 113.37 20.3633 114.42 20.3124 115.42L20.3134 115.421Z" fill="#90DB90"/>
<path d="M41.7035 73.5785C41.2882 73.8034 40.8393 74.0649 40.6807 74.5099C40.5548 74.8637 40.6452 75.2597 40.7951 75.6038C40.9383 75.9326 41.1431 76.245 41.4401 76.4459C41.7371 76.6458 42.1389 76.716 42.46 76.5574C42.732 76.4238 42.9108 76.1498 43.0127 75.8643C43.2271 75.2645 43.1386 74.5647 42.782 74.037C42.6571 73.8515 42.4956 73.6833 42.2899 73.5939C42.0842 73.5054 41.8313 73.5102 41.7035 73.5785Z" fill="#5FDA89"/>
<path d="M45.1608 77.2224C44.8455 77.1205 44.5216 77.3714 44.3418 77.6501C43.9698 78.2259 43.9217 78.968 44.0851 79.6342C44.2486 80.3003 44.6042 80.903 44.9935 81.4673C45.3098 81.9258 45.6549 82.3699 46.0769 82.7332C46.347 82.9658 46.6632 83.1715 47.0189 83.2004C47.4716 83.2379 47.909 82.9745 48.1878 82.6159C48.4656 82.2564 48.6078 81.8123 48.7174 81.3721C48.8203 80.9549 48.8981 80.5223 48.8356 80.0975C48.7539 79.538 48.4367 79.0411 48.0772 78.6047C47.6946 78.1404 47.2457 77.7155 46.6988 77.4656C46.1518 77.2157 45.4943 77.1599 45.1608 77.2233V77.2224Z" fill="#5FDA89"/>
<path d="M42.1362 81.1431C41.8661 81.0883 41.6018 81.2613 41.4085 81.4584C40.7828 82.0957 40.5492 83.0906 40.826 83.9394C40.9327 84.2671 41.1163 84.5786 41.3903 84.7881C41.6642 84.9977 42.0372 85.0919 42.365 84.9852C42.7533 84.8583 43.0081 84.4882 43.184 84.1191C43.4243 83.6144 43.5752 83.0367 43.4368 82.4946C43.2984 81.9525 42.8687 81.2911 42.1352 81.1431H42.1362Z" fill="#5FDA89"/>
<path d="M27.081 92.3791C26.3091 92.0427 25.4151 92.3964 24.7701 92.8617C24.4491 93.0933 24.2395 93.4461 24.0521 93.795C23.3936 95.0245 22.8948 96.3942 22.9928 97.7852C23.0908 99.1761 23.8973 100.582 25.2046 101.068C25.5468 101.195 25.9169 101.257 26.2793 101.212C27.0022 101.123 27.6126 100.624 28.0711 100.058C29.2476 98.6051 29.661 96.5874 29.2313 94.7688C29.0131 93.846 28.5286 92.9097 27.081 92.3772V92.3791Z" fill="#5FDA89"/>
<path d="M22.1147 101.063C21.7052 100.416 20.9603 100.073 20.1961 100.103C19.9298 100.114 19.6645 100.142 19.404 100.201C18.8032 100.334 18.2169 100.648 17.8862 101.168C17.7439 101.392 17.6536 101.645 17.5825 101.902C17.3739 102.661 17.3383 103.497 17.6584 104.217C17.9785 104.936 18.711 105.502 19.4973 105.465C20.0288 105.441 20.5162 105.159 20.9334 104.828C21.2169 104.603 21.4813 104.351 21.6918 104.057C21.9619 103.679 22.1359 103.24 22.258 102.793C22.3349 102.512 22.381 102.223 22.3733 101.932C22.3656 101.633 22.3051 101.368 22.1128 101.064L22.1147 101.063Z" fill="#5FDA89"/>
<path d="M23.3463 106.355C23.5587 105.368 24.2287 104.492 25.1236 104.026C25.6177 103.77 26.2291 103.642 26.7241 103.896C27.2922 104.187 27.5277 104.887 27.545 105.526C27.5681 106.397 27.2692 107.285 26.6713 107.918C26.0734 108.552 25.1717 108.907 24.3095 108.784C24.074 108.75 23.8337 108.677 23.6597 108.514C23.4857 108.349 23.3992 108.116 23.3175 107.89C23.156 107.441 23.2002 107.025 23.3453 106.354L23.3463 106.355Z" fill="#5FDA89"/>
<path d="M36.1161 71.2651C33.7784 71.4199 32.0548 73.0675 30.8139 74.9236C29.3778 77.072 28.1512 79.3819 26.842 81.6091C26.4806 82.2243 27.436 82.7809 27.7965 82.1676C29 80.1201 30.1631 78.041 31.4194 76.0243C32.4778 74.3267 33.961 72.5128 36.1161 72.3706C36.8226 72.3235 36.8274 71.218 36.1161 71.2651Z" fill="white"/>
<path d="M26.1393 83.0898C25.428 83.0898 25.427 84.1953 26.1393 84.1953C26.8516 84.1953 26.8516 83.0898 26.1393 83.0898Z" fill="white"/>
<path d="M107.49 140.48C107.035 138.722 106.525 136.867 105.207 135.618C104.837 135.268 104.366 134.962 103.859 135.004C103.088 135.067 102.616 135.865 102.346 136.59C102.045 137.395 101.827 138.23 101.696 139.08C100.726 137.961 99.6775 137.182 98.502 136.726C98.264 136.634 98.0124 136.553 97.7569 136.573C97.3815 136.603 97.0493 136.852 96.8409 137.165C96.6325 137.478 96.531 137.85 96.4584 138.219C96.2364 139.354 96.2619 140.536 96.5318 141.659C95.8067 140.616 94.9594 140.021 94.0219 139.652C93.625 139.497 93.2041 139.379 92.7784 139.402C92.3528 139.424 91.9207 139.603 91.6668 139.946C91.3945 140.313 91.3649 140.802 91.3673 141.26C91.3801 143.363 91.8712 145.463 92.8575 147.542C94.2223 145.287 96.1805 143.394 98.4804 142.106C100.78 140.818 103.417 140.138 107.49 140.48Z" fill="#EFC33F"/>
<path d="M116.511 143.522C115.868 142.837 115.16 142.209 114.398 141.66C113.635 141.112 112.816 140.644 111.949 140.282C111.346 140.058 110.73 139.853 110.102 139.672C109.474 139.49 108.836 139.331 108.191 139.201C104.049 138.212 99.6755 138.801 96.0394 140.914C95.1306 141.442 94.2682 142.066 93.4656 142.784C85.2903 150.578 85.4429 164.205 90.7144 173.508C91.1856 174.221 91.7198 174.899 92.3252 175.529C93.6181 176.873 94.6994 178.071 96.3557 178.929C101.403 181.546 107.691 180.68 112.743 178.072C115.821 176.483 118.733 174.075 119.719 170.752C119.977 169.883 120.094 168.955 119.912 168.066C119.606 166.575 118.441 165.324 117.019 164.783C115.596 164.241 113.96 164.376 112.578 165.014C111.098 165.696 109.919 166.901 108.491 167.688C107.879 168.026 107.223 168.283 106.546 168.455C105.869 168.626 105.169 168.713 104.469 168.707C103.358 168.721 102.133 168.491 101.291 167.572C98.4584 164.204 98.8417 159.304 100.985 155.63C102.21 153.563 104.736 152.108 107.162 152.933C108.001 153.164 108.815 153.531 109.602 153.805C110.219 154.01 110.841 154.177 111.473 154.229C112.224 154.315 112.979 154.312 113.724 154.185C115.211 153.931 116.648 153.138 117.458 151.865C118.23 150.651 118.371 149.115 118.112 147.7C117.853 146.285 117.617 144.695 116.512 143.522H116.511Z" fill="#3EB3D7"/>
<path d="M103.074 142.201C103.292 141.528 103.553 140.8 104.157 140.43C104.305 140.34 104.467 140.275 104.633 140.224C105.403 139.987 106.259 140.041 106.993 140.373C107.727 140.705 108.331 141.314 108.661 142.049C108.859 142.493 108.958 143.002 108.814 143.465C108.638 144.027 108.133 144.429 107.594 144.664C106.707 145.051 105.652 145.058 104.78 144.638C103.908 144.219 102.71 143.322 103.075 142.2L103.074 142.201Z" fill="#7CD5F1"/>
<path d="M110.019 143.743C110.195 143.275 110.442 142.834 110.747 142.439C110.889 142.257 111.049 142.081 111.256 141.98C111.499 141.864 111.782 141.864 112.048 141.909C112.848 142.045 113.587 142.611 113.824 143.387C114.062 144.162 113.713 145.104 112.981 145.453C112.48 145.692 111.886 145.643 111.35 145.495C110.969 145.389 110.587 145.227 110.32 144.935C110.053 144.643 109.858 144.174 110.02 143.743H110.019Z" fill="#7CD5F1"/>
<path d="M110.577 146.926C110.288 146.575 109.935 146.276 109.54 146.049C109.327 145.926 109.095 145.823 108.85 145.804C108.604 145.784 108.341 145.862 108.181 146.049C108.112 146.13 108.065 146.228 108.026 146.328C107.781 146.962 107.869 147.705 108.213 148.292C108.557 148.879 109.141 149.309 109.789 149.516C109.932 149.562 110.081 149.598 110.232 149.595C110.729 149.587 111.145 149.135 111.22 148.644C111.293 148.152 111.138 147.608 110.578 146.926L110.577 146.926Z" fill="#7CD5F1"/>
<path d="M94.3094 144.461C92.0637 146.09 90.3076 148.302 89.2599 150.873C88.1075 153.699 87.9054 156.815 88.1003 159.833C88.2129 161.574 88.4533 163.306 88.7224 165.029C88.8134 165.611 89.6991 165.364 89.6081 164.785C88.7456 159.267 88.2401 153.223 91.6445 148.414C92.5038 147.201 93.5699 146.127 94.7726 145.254C95.2461 144.91 94.7885 144.113 94.3086 144.461H94.3094Z" fill="white"/>
<path d="M89.5802 166.949C88.9893 166.949 88.9885 167.868 89.5802 167.868C90.172 167.868 90.172 166.949 89.5802 166.949Z" fill="white"/>
<g clip-path="url(#clip0_10888_18039)">
<path d="M128 43.8282C128 46.8834 127.28 49.5244 125.839 51.7473C124.617 53.615 123.091 54.9393 121.268 55.7202C122.439 56.2294 123.395 57.0692 124.131 58.2415C124.868 59.4138 125.237 60.6602 125.237 61.9845C125.237 65.2791 123.503 67.6883 120.036 69.2178C117.356 70.4053 113.84 71 109.486 71C107.063 71 104.527 70.8689 101.873 70.6067C99.3226 70.354 97.349 68.2279 97.2572 65.6306C96.9742 57.6639 96.1327 49.6574 96.0071 41.6831C95.9171 36.0762 96.6406 30.5738 100.515 30.2717C102.644 30.1064 105.013 30 107.627 30C121.209 30 128 34.6094 128 43.8282ZM116.947 61.2758C116.947 59.7102 115.602 58.0762 113.475 58.1617C112.078 58.2168 110.793 58.8001 110.759 60.2156L110.691 63.0029C110.658 64.3652 111.838 65.2012 113.182 65.2145C115.769 65.2411 116.947 63.5064 116.947 61.2758ZM117.776 47.4211C117.776 45.6883 116.513 42.996 113.793 42.5799C112.238 42.3424 110.766 43.2867 110.688 44.8789L110.453 49.6536C110.375 51.2552 111.762 52.2318 113.343 52.2508C116.432 52.2869 117.778 50.1286 117.778 47.4211H117.776Z" fill="#FD6464"/>
<path opacity="0.46" d="M107.547 35.0508C106.338 32.7404 102.965 32.387 101.214 34.2243C99.07 36.4739 99.0644 40.1542 98.8864 43.1372C98.7289 45.7744 98.6109 48.4648 98.7477 51.1058C98.8864 53.7772 99.3118 56.4865 99.919 59.0857C100.225 60.3872 100.706 61.512 101.272 62.7204C101.861 63.9725 102.322 65.2645 103.107 66.4102C103.763 67.3678 105.212 67.2557 105.568 66.0834C105.915 64.9434 105.99 63.7825 106.228 62.6216C106.496 61.3182 106.816 60.0908 106.929 58.7551C107.14 56.2111 107.346 53.6575 107.457 51.1077C107.568 48.5522 107.641 46.0062 107.883 43.4583C108.147 40.6596 108.9 37.6424 107.545 35.0546L107.547 35.0508Z" fill="#E62C2C"/>
<path opacity="0.46" d="M123.028 38.3838C121.797 36.6967 119.842 35.3363 117.808 34.8708C116.161 34.4946 113.546 34.6029 112.737 36.4117C112.658 36.5865 112.656 36.7973 112.804 36.9379C113.642 37.7435 114.804 37.9829 115.835 38.4275C117.147 38.9937 118.356 39.7366 119.19 40.9317C120.833 43.2858 119.9 46.4569 120.342 49.1074C120.415 49.5406 120.912 49.7249 121.283 49.6489C126.222 48.6343 125.311 41.5112 123.026 38.3819L123.028 38.3838Z" fill="#E62C2C"/>
<path opacity="0.46" d="M120.366 52.0987C120.392 51.7624 120.06 51.3729 119.713 51.618C119.689 51.6351 119.663 51.6503 119.636 51.6655C119.324 51.5914 118.977 51.6294 118.647 51.8251C118.437 51.9505 118.28 52.0284 118.081 52.2051C118.028 52.2488 117.978 52.2963 117.931 52.3476C117.893 52.3818 117.873 52.3989 117.864 52.4084C117.751 52.4939 117.64 52.5813 117.53 52.6706C117.496 52.7162 117.464 52.758 117.438 52.7941C117.253 53.043 117.241 53.0525 117.402 52.8226C116.953 53.1684 116.642 53.746 116.829 54.3331C117.007 54.8936 117.524 55.3648 118.135 55.3401C118.216 55.3363 118.295 55.3306 118.375 55.3211C118.473 55.3097 118.548 55.3021 118.609 55.2945C118.613 55.3857 119.466 55.0532 119.638 54.9297C120.176 54.544 120.57 54.1127 120.725 53.442C120.845 52.9271 120.679 52.4369 120.366 52.0949V52.0987Z" fill="#E62C2C"/>
<path opacity="0.46" d="M122.796 62.5881C122.585 60.2245 121.126 58.6228 118.844 58.4898C118.128 58.448 117.83 59.2593 118.09 59.8217C118.403 60.4981 118.722 61.6362 118.808 62.3848C118.919 63.331 118.456 64.0131 118.017 64.8073C117.595 65.573 116.908 66.4147 117.412 67.3248C117.884 68.176 118.896 68.1646 119.71 67.9385C121.945 67.3153 122.989 64.7674 122.794 62.5919L122.796 62.5881Z" fill="#E62C2C"/>
<path opacity="0.68" d="M102.053 66.9219C101.384 66.9219 101.382 67.9764 102.053 67.9764C102.724 67.9764 102.724 66.9219 102.053 66.9219Z" fill="#E62C2C"/>
<path opacity="0.22" d="M102.676 62.0169C102.26 58.9921 101.949 55.9369 101.752 52.8893C101.563 49.9633 101.508 47.0297 101.587 44.0981C101.626 42.6332 101.699 41.1683 101.806 39.7053C101.919 38.1587 102.241 36.5589 102.054 35.0161C101.78 32.7779 98.9799 32.2725 98.1609 34.4822C97.1375 37.2429 97.3306 40.8548 97.2594 43.7846C97.1844 46.8207 97.2556 49.8607 97.4693 52.8893C97.6811 55.9046 98.054 58.8876 98.6032 61.8592C98.8693 63.3013 99.1561 64.7282 99.6452 66.1114C100.056 67.2704 100.483 68.779 101.662 69.3205C101.922 69.4402 102.31 69.4687 102.515 69.2084C103.894 67.4604 102.955 64.0442 102.676 62.0169Z" fill="#E8F5DB"/>
<path opacity="0.22" d="M104.187 34.0496C104.155 33.9831 104.063 33.9945 104.027 34.0496C103.13 35.4898 103.145 37.3233 103.008 38.9744C102.854 40.8326 102.76 42.7934 103.032 44.6421C103.111 45.176 103.913 45.1114 104.037 44.6421C104.513 42.8314 104.618 40.8402 104.668 38.9744C104.713 37.3309 104.912 35.5696 104.185 34.0496H104.187Z" fill="#E8F5DB"/>
<path opacity="0.22" d="M120.437 40.7061C119.144 39.1215 117.083 37.9055 115.098 37.4913C113.619 37.1816 111.168 37.1588 110.206 38.5895C110.163 38.656 110.201 38.7339 110.255 38.7738C111.26 39.5452 112.772 39.7789 113.932 40.2957C115.304 40.9075 116.457 41.7359 117.416 42.9063C118.385 44.0881 118.983 45.5967 119.105 47.1376C119.24 48.8381 118.258 50.5006 117.767 52.0814C117.677 52.3702 118.024 52.6438 118.277 52.4785C120.123 51.2796 121.577 49.2599 122.246 47.1376C122.979 44.8101 121.886 42.4826 120.437 40.7061Z" fill="#E8F5DB"/>
<path opacity="0.22" d="M118.04 52.9437C117.206 52.8544 116.548 53.3788 115.825 53.7132C115.03 54.0799 114.224 54.2243 113.501 54.7449C113.21 54.9539 113.267 55.3548 113.596 55.4821C114.571 55.8583 115.51 55.5885 116.462 55.2446C117.334 54.9311 118.243 54.5606 118.527 53.5916C118.629 53.2439 118.355 52.976 118.04 52.9437Z" fill="#E8F5DB"/>
<path opacity="0.22" d="M118.198 57.7854C117.832 57.6904 117.6 58.1008 117.742 58.4694C118.43 60.2573 118.095 63.6659 116.764 64.8895C115.842 65.7369 114.642 66.4474 113.542 66.8521C113.13 67.0041 110.682 67.443 111.861 68.3569C114.312 70.2569 118.301 68.5165 119.712 65.7122C120.814 63.5215 120.93 58.4884 118.196 57.7873L118.198 57.7854Z" fill="#E8F5DB"/>
<path opacity="0.22" d="M110.523 68.3616C110.437 67.9265 109.925 67.6871 109.537 67.6092C109.071 67.5161 108.713 67.5484 108.276 67.7308C107.884 67.8961 107.798 68.4965 108.276 68.6295C108.437 68.6732 108.587 68.7416 108.745 68.791C108.906 68.8404 109.08 68.8556 109.245 68.8974C109.586 68.9867 109.982 69.0931 110.304 68.9031C110.497 68.791 110.565 68.5706 110.521 68.3597L110.523 68.3616Z" fill="#E8F5DB"/>
<path opacity="0.22" d="M108.86 48.8797C108.867 47.525 108.985 46.1836 108.952 44.8308C108.944 44.5743 108.597 44.466 108.466 44.6978C107.775 45.9176 107.49 47.2001 107.46 48.608C107.432 49.8829 107.405 51.57 108.157 52.6359C108.365 52.9323 108.912 52.9513 108.997 52.5238C109.235 51.3269 108.856 50.1033 108.862 48.8797H108.86Z" fill="#E8F5DB"/>
<path opacity="0.22" d="M108.74 61.9414C108.646 61.6906 108.502 61.4987 108.343 61.2878C108.165 61.0503 107.793 61.056 107.7 61.3733C107.539 61.911 107.407 62.5893 107.87 63.0187C108.11 63.241 108.551 63.2353 108.712 62.9085C108.867 62.595 108.864 62.2663 108.742 61.9414H108.74Z" fill="#E8F5DB"/>
<path opacity="0.52" d="M100.202 48.4802C100.088 45.4839 100.466 42.2083 99.8515 39.2804C99.709 38.5983 98.6389 38.6002 98.4927 39.2804C97.8479 42.2824 98.3708 45.7537 98.547 48.8032C98.7251 51.9135 98.9593 55.1777 99.9021 58.1606C99.9677 58.3696 100.241 58.3164 100.264 58.1112C100.601 54.9326 100.324 51.6684 100.202 48.4821V48.4802Z" fill="#FFF5FF"/>
<path opacity="0.52" d="M100.156 35.4241C99.9199 35.0251 99.427 34.9985 99.0971 35.2854C98.6098 35.711 98.6848 36.3532 98.7129 36.9422C98.7223 37.1531 98.8216 37.3583 98.9828 37.4875C99.0971 37.7231 99.412 37.7497 99.5882 37.5977C99.8 37.5274 99.9555 37.3336 100.036 37.1246C100.252 36.5546 100.497 36.0017 100.154 35.4241H100.156Z" fill="#FFF5FF"/>
<path opacity="0.52" d="M118.116 41.4618C117.808 41.4143 117.615 41.7316 117.818 41.9805C118.374 42.6683 118.991 43.3333 119.326 44.1655C119.643 44.954 119.63 45.8242 119.868 46.6279C119.98 47.006 120.443 47.0326 120.651 46.7324C121.911 44.9084 120.104 41.7658 118.117 41.4618H118.116Z" fill="#FFF5FF"/>
<path opacity="0.22" d="M115.34 31.673C113.177 30.8256 110.565 30.8199 108.276 30.875C106.127 30.9282 103.855 31.1372 101.863 31.9998C101.681 32.0777 101.794 32.3361 101.955 32.3475C104.155 32.4824 106.372 32.2164 108.58 32.2468C110.793 32.2791 112.998 32.7484 115.203 32.7085C115.82 32.6971 115.873 31.8801 115.342 31.6711L115.34 31.673Z" fill="#E8F5DB"/>
<path opacity="0.22" d="M125.618 39.835C125.571 39.7685 125.447 39.8046 125.477 39.8939C126.208 42.0561 126.278 44.1898 125.697 46.4052C125.106 48.651 123.721 50.3686 122.835 52.4491C122.653 52.8766 123.166 53.4124 123.532 52.9944C126.381 49.7511 128.334 43.6787 125.616 39.8331L125.618 39.835Z" fill="#E8F5DB"/>
</g>
<g clip-path="url(#clip1_10888_18039)">
<path d="M38.1236 135C36.3984 135 35 136.42 35 138.172V160.827C35 162.58 36.3984 164 38.1236 164H60.8769C62.6021 164 64.0005 162.579 64.0005 160.827C64.0005 159.076 62.6021 157.655 60.8769 157.655H41.2466V141.344H48.3237L55.6058 135H38.1236Z" fill="black"/>
<path d="M64.0005 138.172C64.0005 136.42 62.6021 135 60.8769 135H55.6058L48.3242 141.344H60.8769C62.6021 141.344 64.0005 139.924 64.0005 138.172Z" fill="#65C8D0"/>
</g>
<g clip-path="url(#clip2_10888_18039)">
<path d="M66.908 22H56.1437L47.3672 30.3133H62.8155V55.8434C62.8155 58.1387 64.6477 60 66.908 60C69.1682 60 71.0004 58.1387 71.0004 55.8434V26.1566C71.0004 23.8613 69.1682 22 66.908 22Z" fill="black"/>
<path d="M37.0924 22C34.8321 22 33 23.8613 33 26.1566C33 28.452 34.8321 30.3133 37.0924 30.3133H47.3661L56.1433 22H37.0924Z" fill="#D872DB"/>
</g>
<path d="M93.137 104.847V86H91.3088L90.4414 115H94.6028L94.6577 104.847H93.137Z" fill="#AC61B0"/>
<path d="M86.0742 86L86.4969 115H88.4404L89.3188 86H86.0742Z" fill="#AC61B0"/>
<path d="M96.6549 104.848L96.6055 115.001H98.225L99.0375 104.848H96.6549Z" fill="#AC61B0"/>
<path d="M101.041 104.848L100.234 115.001H103.572L103.622 104.848H101.041Z" fill="#AC61B0"/>
<path d="M85 86L86.1309 115H87.7175L87.2948 86H85Z" fill="#88458C"/>
<path d="M99.0391 104.848L98.2266 115.001H101.284L102.092 104.848H99.0391Z" fill="#88458C"/>
<path d="M93.3947 104.848L93.3398 115.001H96.6064L96.6558 104.848H93.3947Z" fill="#88458C"/>
<path d="M108.002 104.848H103.624L103.574 115.001H108.002V104.848Z" fill="#88458C"/>
<path d="M89.3198 86L88.4414 115H91.3676L92.2295 86H89.3198Z" fill="#88458C"/>
<defs>
<clipPath id="clip0_10888_18039">
<rect width="32" height="41" fill="white" transform="translate(96 30)"/>
</clipPath>
<clipPath id="clip1_10888_18039">
<rect width="29" height="29" fill="white" transform="translate(35 135)"/>
</clipPath>
<clipPath id="clip2_10888_18039">
<rect width="38" height="38" fill="white" transform="translate(33 22)"/>
</clipPath>
</defs>
</svg>
