<svg width="150" height="200" viewBox="0 0 150 200" fill="none" xmlns="http://www.w3.org/2000/svg">
<rect width="150" height="200" fill="#EEEEEE"/>
<g clip-path="url(#clip0_10888_17874)">
<path d="M37.7533 74.1189C38.85 75.3911 45.8458 75.3658 47.168 75.2543C47.5165 75.2188 43.7188 74.8944 43.8469 74.6764C43.9904 74.4686 43.9545 74.2051 43.9135 73.9466C43.7085 72.2233 41.7303 66.1918 38.317 62.431C36.4874 60.2819 33.9813 57.92 31.6084 56.7999C30.5117 56.3538 32.7154 59.2834 33.0127 60.0336C34.2017 62.1775 35.6059 65.0716 36.3542 67.981C36.9692 69.8614 36.7949 72.9836 37.7072 74.0631L37.7482 74.1138L37.7533 74.1189Z" fill="#4CAF50"/>
<path d="M41.0486 73.8705C42.458 75.7104 46.4452 74.9552 48.6644 75.1123C49.5869 75.0768 51.1807 75.1833 51.8316 74.7423C52.2211 71.833 49.2537 61.2247 41.8789 52.8059C38.8551 49.3492 34.6885 45.7455 30.9165 43.9766C30.1887 43.6978 30.6141 44.4175 30.8704 44.8331C33.192 48.4064 40.367 60.363 40.4592 69.613C40.5412 71.0068 40.3721 72.7555 41.0127 73.8148L41.0486 73.8705Z" fill="#2E8232"/>
<path d="M58.3579 73.6312C56.6769 75.8208 51.9363 74.9186 49.2969 75.1112C48.2002 75.0707 46.3039 75.1974 45.5249 74.6703C45.0586 71.2085 48.5897 58.593 57.3637 48.5777C60.9717 44.4671 65.9276 40.1842 70.4119 38.0757C71.2781 37.7463 70.7758 38.5978 70.4683 39.0945C67.7111 43.347 59.1779 57.5641 59.0652 68.5678C58.9678 70.2252 59.1677 72.3033 58.4041 73.5653L58.3579 73.6312Z" fill="#4CAF50"/>
<path d="M60.5821 73.9566C59.3111 75.4316 56.2002 75.1629 54.6678 75.0413C54.2681 75.0007 53.6736 74.8588 53.5301 74.6054C53.3661 74.3672 53.4019 74.0631 53.4532 73.764C53.6889 71.767 55.9798 64.7877 59.9312 60.4339C62.0478 57.9453 64.9537 55.2134 67.7007 53.9107C68.9717 53.3938 66.4194 56.7846 66.0761 57.6564C64.7026 60.1349 63.0728 63.4902 62.2016 66.8557C61.4892 69.0351 61.6942 72.6439 60.6333 73.9009L60.5872 73.9566H60.5821Z" fill="#2E8232"/>
</g>
<g clip-path="url(#clip1_10888_17874)">
<path d="M99.2734 114.929C99.2734 114.929 102.053 126.554 111.065 131.737C112.338 132.47 113.972 131.854 114.378 130.439C115.579 126.299 117.269 117.709 113.544 110.274C110.976 104.858 104.41 100.446 103.699 99.1644C102.987 97.8826 99.2734 106.855 99.2734 106.855V114.929Z" fill="#EB9B5F"/>
<path d="M93.1579 81.2264C93.1579 81.2264 98.9284 105.725 114.283 105.586C115.767 105.575 116.54 103.833 115.556 102.723C114.194 101.186 112.582 98.7501 111.37 95.0656C108.824 87.3081 104.999 80.3552 93.1523 81.2264H93.1579Z" fill="#FAAC68"/>
<path d="M74.528 95.48C74.528 95.48 75.4842 109.214 68.9855 115.318C62.4867 121.422 57.9948 126.288 59.7181 131.82C61.436 137.353 76.4404 142.691 90.4887 138.496C104.537 134.301 110.458 123.808 103.292 96.4345C96.1258 69.0612 81.1213 73.2563 81.1213 73.2563L72.0431 80.0261L74.528 95.4745V95.48Z" fill="#BA6339"/>
<path d="M103.286 96.4345C96.12 69.0612 81.1155 73.2563 81.1155 73.2563L79.4922 74.466C84.3899 75.032 93.0846 78.8663 98.0379 97.7884C104.97 124.263 99.6557 134.945 86.5914 139.412C87.8867 139.178 89.1876 138.879 90.4773 138.49C104.526 134.295 110.446 123.802 103.28 96.4289L103.286 96.4345Z" fill="#9C4F28"/>
<path d="M74.2222 103.666C74.2222 103.666 81.8884 102.467 82.8391 91.6908C83.3116 84.8211 80.6376 81.1532 80.6376 81.1532C80.6376 81.1532 85.2351 78.2011 86.4637 74.5221L82.8391 72.6133L72.1875 80.9479V94.9314L74.2222 103.666Z" fill="#9C4F28"/>
<path d="M81.0525 74.8486C81.0525 74.8486 87.2956 76.1193 88.4408 80.3144C89.3914 83.7991 91.3094 88.9486 94.2669 90.8852C95.0397 91.3957 96.0681 90.8242 96.0403 89.8975C96.007 88.5158 96.1682 86.4682 97.1022 84.3818C98.7588 80.6917 101.472 67.7514 79.6016 71.4859L81.047 74.843L81.0525 74.8486Z" fill="#FAAC68"/>
<path d="M37.9922 111.09C37.9922 111.09 42.1283 119.63 46.4034 116.306C51.2789 112.516 49.1719 108.682 49.1719 108.682L43.6849 106.518L37.9977 111.096L37.9922 111.09Z" fill="#DFAC8E"/>
<path d="M61.9156 73.0235C61.9156 73.0235 49.3016 85.9416 45.4824 88.705C41.88 91.313 28.8435 100.791 34.336 112.421C34.9142 113.648 36.3485 114.225 37.6049 113.703C41.7521 111.978 51.1362 107.993 56.1784 105.247C57.4737 104.542 58.9803 104.331 60.4202 104.647C65.3735 105.724 77.1035 107.006 80.1667 95.9576C82.0791 88.6162 79.0215 83.1782 76.1529 80.3149C76.1529 80.3149 88.7669 76.0255 86.949 60C86.949 60 78.9214 60.9544 72.6172 70.8705L61.9156 73.0235Z" fill="#C66839"/>
<path d="M66.035 72.197L61.9156 73.0238C61.9156 73.0238 49.3016 85.9418 45.4824 88.7052C41.88 91.3133 28.8435 100.791 34.336 112.416C34.9198 113.648 36.3485 114.22 37.6049 113.698C40.1955 112.621 44.8319 110.663 49.1737 108.671C49.1237 104.98 49.196 95.4861 51.1195 90.7362C53.5378 84.7599 65.0066 75.8593 65.0066 75.8593L66.0406 72.1914L66.035 72.197Z" fill="#FDD5C1"/>
<path d="M38.3327 99.8478C37.799 100.802 37.3154 102.156 37.5211 103.704C37.6434 104.625 38.5773 105.225 39.4724 104.981C40.2006 104.781 41.0901 104.387 41.9296 103.61C42.4132 103.161 42.58 102.461 42.3298 101.851C42.063 101.202 41.596 100.319 40.8233 99.5093C40.1006 98.7546 38.8442 98.9378 38.3383 99.8478H38.3327Z" fill="#BA8466"/>
<path d="M38.5384 103.699C38.3272 102.151 38.8164 100.797 39.3501 99.8421C39.5502 99.4815 39.8671 99.2428 40.2229 99.1208C39.5335 98.8822 38.7163 99.1485 38.3327 99.8421C37.799 100.797 37.3154 102.151 37.5211 103.699C37.6434 104.62 38.5773 105.219 39.4724 104.975C39.5057 104.964 39.5446 104.953 39.578 104.942C39.0443 104.759 38.6162 104.298 38.5384 103.699Z" fill="#DFAC8E"/>
<path d="M74.2237 68.574C74.2237 68.574 72.7116 77.5967 63.7778 77.9297C55.7947 78.2293 48.9735 76.1928 47.3779 69.8614C47.2223 69.2344 47.9061 68.7461 48.4731 69.0624C49.4627 69.6173 51.086 69.8503 53.6599 68.7405C59.1358 66.3877 67.5192 61.7876 74.2237 68.5685V68.574Z" fill="#FAAC68"/>
<path d="M83.7015 64.4844C83.7015 64.4844 77.5251 66.2767 75.5683 73.8233C75.2514 75.0386 76.5411 76.054 77.6641 75.4881C80.2436 74.184 83.8238 71.1654 83.7015 64.4899V64.4844Z" fill="#9C4F28"/>
<path d="M63.3539 86.5034C63.3539 85.0884 62.2031 83.9453 60.791 83.9453C59.379 83.9453 58.2227 85.094 58.2227 86.5034C58.2227 87.9128 59.3734 89.0615 60.791 89.0615C62.2087 89.0615 63.3539 87.9128 63.3539 86.5034Z" fill="#9C4F28"/>
<path d="M62.9303 85.9858C62.9303 84.5708 61.7796 83.4277 60.3675 83.4277C58.9555 83.4277 57.8047 84.5764 57.8047 85.9858C57.8047 87.3953 58.9555 88.5439 60.3675 88.5439C61.7796 88.5439 62.9303 87.3953 62.9303 85.9858Z" fill="#263036"/>
<path d="M60.062 85.3306C60.062 84.9699 59.7673 84.6758 59.406 84.6758C59.0446 84.6758 58.75 84.9699 58.75 85.3306C58.75 85.6912 59.0446 85.9853 59.406 85.9853C59.7673 85.9853 60.062 85.6912 60.062 85.3306Z" fill="#FDD5C1"/>
</g>
<g clip-path="url(#clip2_10888_17874)">
<path d="M94.7533 149.119C95.85 150.391 102.846 150.366 104.168 150.254C104.517 150.219 100.719 149.894 100.847 149.676C100.99 149.469 100.955 149.205 100.914 148.947C100.709 147.223 98.7303 141.192 95.317 137.431C93.4874 135.282 90.9813 132.92 88.6084 131.8C87.5117 131.354 89.7154 134.283 90.0127 135.034C91.2017 137.178 92.6059 140.072 93.3542 142.981C93.9692 144.861 93.7949 147.984 94.7072 149.063L94.7482 149.114L94.7533 149.119Z" fill="#4CAF50"/>
<path d="M98.0486 148.871C99.458 150.71 103.445 149.955 105.664 150.112C106.587 150.077 108.181 150.183 108.832 149.742C109.221 146.833 106.254 136.225 98.8789 127.806C95.8551 124.349 91.6885 120.745 87.9165 118.977C87.1887 118.698 87.6141 119.418 87.8704 119.833C90.192 123.406 97.367 135.363 97.4592 144.613C97.5412 146.007 97.3721 147.755 98.0127 148.815L98.0486 148.871Z" fill="#2E8232"/>
<path d="M115.358 148.631C113.677 150.821 108.936 149.919 106.297 150.111C105.2 150.071 103.304 150.197 102.525 149.67C102.059 146.208 105.59 133.593 114.364 123.578C117.972 119.467 122.928 115.184 127.412 113.076C128.278 112.746 127.776 113.598 127.468 114.095C124.711 118.347 116.178 132.564 116.065 143.568C115.968 145.225 116.168 147.303 115.404 148.565L115.358 148.631Z" fill="#4CAF50"/>
<path d="M117.582 148.957C116.311 150.432 113.2 150.163 111.668 150.041C111.268 150.001 110.674 149.859 110.53 149.605C110.366 149.367 110.402 149.063 110.453 148.764C110.689 146.767 112.98 139.788 116.931 135.434C119.048 132.945 121.954 130.213 124.701 128.911C125.972 128.394 123.419 131.785 123.076 132.656C121.703 135.135 120.073 138.49 119.202 141.856C118.489 144.035 118.694 147.644 117.633 148.901L117.587 148.957H117.582Z" fill="#2E8232"/>
</g>
<defs>
<clipPath id="clip0_10888_17874">
<rect width="41" height="37" fill="white" transform="translate(30 38)"/>
</clipPath>
<clipPath id="clip1_10888_17874">
<rect width="83" height="80" fill="white" transform="translate(33 60)"/>
</clipPath>
<clipPath id="clip2_10888_17874">
<rect width="41" height="37" fill="white" transform="translate(87 113)"/>
</clipPath>
</defs>
</svg>
