<svg width="150" height="200" viewBox="0 0 150 200" fill="none" xmlns="http://www.w3.org/2000/svg">
<rect width="150" height="200" fill="#EEEEEE"/>
<g clip-path="url(#clip0_10888_18101)">
<path d="M93.7524 75.7389C99.5122 75.7389 104.488 79.1693 106.783 84.0992H128.505C125.614 67.4207 111.136 54.6934 93.7524 54.6934C76.3684 54.6934 61.8851 67.4207 59 84.0992H80.7222C83.0167 79.1641 87.9926 75.7389 93.7472 75.7389H93.7524Z" fill="#F44336"/>
<path d="M93.7507 75.7392C99.5105 75.7392 104.486 79.1697 106.781 84.0996H123.193C120.376 70.3358 108.244 59.9551 93.7507 59.9551C79.257 59.9551 67.1258 70.3358 64.3086 84.0996H80.7205C83.015 79.1644 87.9908 75.7392 93.7454 75.7392H93.7507Z" fill="#FFB300"/>
<path d="M93.7531 75.7379C99.5129 75.7379 104.489 79.1684 106.783 84.0983H112.397C109.841 76.1904 102.461 70.4766 93.7531 70.4766C85.0454 70.4766 77.6652 76.1957 75.1094 84.0983H80.7229C83.0174 79.1631 87.9932 75.7379 93.7478 75.7379H93.7531Z" fill="#2F74DC"/>
<path d="M93.7513 75.7376C99.5112 75.7376 104.487 79.168 106.782 84.098H117.831C115.113 73.2595 105.349 65.2148 93.7513 65.2148C82.1533 65.2148 72.3898 73.2595 69.6719 84.098H80.7211C83.0157 79.1628 87.9915 75.7376 93.7461 75.7376H93.7513Z" fill="#4CAF50"/>
<path d="M93.7531 75.7379C99.5129 75.7379 104.489 79.1684 106.783 84.0983H112.397C109.841 76.1904 102.461 70.4766 93.7531 70.4766C85.0454 70.4766 77.6652 76.1957 75.1094 84.0983H80.7229C83.0174 79.1631 87.9932 75.7379 93.7478 75.7379H93.7531Z" fill="#2F74DC"/>
<ellipse cx="121.908" cy="60.5722" rx="1.4238" ry="1.4238" fill="#4ED3FF"/>
</g>
<path d="M111.389 47.2907L109.169 46.4047L108.283 44.1847C108.184 43.9384 107.835 43.9384 107.736 44.1847L106.85 46.4047L104.63 47.2907C104.384 47.3899 104.384 47.7388 104.63 47.838L106.85 48.724L107.736 50.944C107.835 51.1903 108.184 51.1903 108.283 50.944L109.169 48.724L111.389 47.838C111.636 47.7388 111.636 47.3899 111.389 47.2907Z" fill="#FFCA28"/>
<path d="M116.104 53.0075L114.493 52.3632L113.849 50.7527C113.777 50.5746 113.523 50.5746 113.451 50.7527L112.807 52.3632L111.196 53.0075C111.018 53.0795 111.018 53.3338 111.196 53.4059L112.807 54.0501L113.451 55.6607C113.523 55.8387 113.777 55.8387 113.849 55.6607L114.493 54.0501L116.104 53.4059C116.282 53.3338 116.282 53.0795 116.104 53.0075Z" fill="#FFD54F"/>
<path d="M129.893 79.5979C129.124 79.5979 128.387 79.734 127.699 79.9822C126.402 75.9306 122.614 73 118.13 73C113.646 73 109.603 76.1468 108.442 80.4146C108.009 80.3185 107.553 80.2625 107.088 80.2625C103.661 80.2625 100.883 83.041 100.883 86.468C100.883 89.8951 103.661 92.6735 107.088 92.6735C108.882 92.6735 110.491 91.9129 111.62 90.6958C113.374 92.1851 115.64 93.0899 118.122 93.0899C120.741 93.0899 123.119 92.081 124.912 90.4315C126.113 91.8328 127.899 92.7216 129.885 92.7216C133.512 92.7216 136.451 89.783 136.451 86.1557C136.451 82.5285 133.512 79.5899 129.885 79.5899L129.893 79.5979Z" fill="white"/>
<g clip-path="url(#clip1_10888_18101)">
<path d="M71.7755 76.5841L66.7388 79.8211L53.7801 58.7193C53.0574 57.5997 53.3798 56.1031 54.5028 55.3825C55.6258 54.6619 57.1268 54.9834 57.8495 56.1031L71.7811 76.5841H71.7755Z" fill="#E08700"/>
<path d="M60.8359 70.2175L63.1264 73.9424L66.4175 68.7043L64.0103 65.168L60.8359 70.2175Z" fill="#FFB500"/>
<path d="M65.1445 77.2285L66.74 79.8282L69.0861 78.315L70.9429 75.3606L68.5412 71.8242L65.1445 77.2285Z" fill="white"/>
<path d="M57.2825 55.511C56.493 54.9068 55.3867 54.8182 54.5028 55.3891C53.3798 56.1097 53.0574 57.6062 53.7801 58.7259L54.5139 59.9232L57.2825 55.5166V55.511Z" fill="#FFB500"/>
<path d="M56.5312 63.2046L58.8161 66.9294L61.8848 62.0461L59.4777 58.5098L56.5312 63.2046Z" fill="#FFB500"/>
<path d="M99.2734 119.957C99.2734 119.957 102.053 131.569 111.065 136.746C112.338 137.478 113.972 136.862 114.378 135.449C115.579 131.314 117.269 122.734 113.544 115.306C110.976 109.896 104.41 105.49 103.699 104.209C102.987 102.929 99.2734 111.892 99.2734 111.892V119.957Z" fill="#AE95E2"/>
<path d="M93.1579 86.2907C93.1579 86.2907 98.9284 110.763 114.283 110.624C115.767 110.613 116.54 108.872 115.556 107.764C114.194 106.229 112.582 103.795 111.37 100.115C108.824 92.3657 104.999 85.4205 93.1523 86.2907H93.1579Z" fill="#74BAFF"/>
<path d="M74.528 100.53C74.528 100.53 75.4842 114.248 68.9855 120.345C62.4867 126.443 57.9948 131.304 59.7181 136.83C61.436 142.356 76.4404 147.688 90.4887 143.498C104.537 139.308 110.458 128.826 103.292 101.483C96.1258 74.1398 81.1213 78.3302 81.1213 78.3302L72.0431 85.0926L74.528 100.524V100.53Z" fill="#FDAFD7"/>
<path d="M103.286 101.483C96.12 74.1398 81.1155 78.3302 81.1155 78.3302L79.4922 79.5386C84.3899 80.104 93.0846 83.9341 98.0379 102.835C104.97 129.281 99.6557 139.951 86.5914 144.413C87.8867 144.18 89.1876 143.881 90.4773 143.493C104.526 139.302 110.446 128.82 103.28 101.477L103.286 101.483Z" fill="#FF7DB8"/>
<path d="M74.2222 108.706C74.2222 108.706 81.8884 107.508 82.8391 96.744C83.3116 89.8819 80.6376 86.218 80.6376 86.218C80.6376 86.218 85.2351 83.2692 86.4637 79.5943L82.8391 77.6875L72.1875 86.0129V99.981L74.2222 108.706Z" fill="#FF7DB8"/>
<path d="M81.0564 79.9223C81.0564 79.9223 87.2995 81.1916 88.4447 85.382C89.3954 88.863 91.3133 94.0068 94.2708 95.9412C95.0436 96.4512 96.072 95.8803 96.0442 94.9546C96.0109 93.5744 96.1721 91.5291 97.1061 89.445C98.7627 85.7589 101.476 72.8329 79.6055 76.5633L81.0509 79.9167L81.0564 79.9223Z" fill="#71BDFF"/>
<path d="M37.9922 116.122C37.9922 116.122 42.1283 124.653 46.4034 121.332C51.2789 117.547 49.1719 113.716 49.1719 113.716L43.6849 111.555L37.9977 116.128L37.9922 116.122Z" fill="#EFADD1"/>
<path d="M61.9156 78.1029C61.9156 78.1029 49.3016 91.0068 45.4824 93.7672C41.88 96.3723 28.8435 105.84 34.336 117.457C34.9142 118.682 36.3485 119.259 37.6049 118.738C41.7521 117.014 51.1362 113.034 56.1784 110.291C57.4737 109.587 58.9803 109.376 60.4202 109.692C65.3735 110.767 77.1035 112.048 80.1667 101.012C82.0791 93.6785 79.0215 88.2464 76.1529 85.3863C76.1529 85.3863 88.7669 81.1016 86.949 65.0938C86.949 65.0938 78.9214 66.0471 72.6172 75.9523L61.9156 78.1029Z" fill="#FDAFD7"/>
<path d="M66.035 77.2712L61.9156 78.0971C61.9156 78.0971 49.3016 91.0009 45.4824 93.7613C41.88 96.3664 28.8435 105.834 34.336 117.446C34.9198 118.677 36.3485 119.248 37.6049 118.726C40.1955 117.651 44.8319 115.695 49.1737 113.705C49.1237 110.019 49.196 100.535 51.1195 95.79C53.5378 89.8203 65.0066 80.9295 65.0066 80.9295L66.0406 77.2656L66.035 77.2712Z" fill="#FFC7E3"/>
<path d="M38.3327 104.892C37.799 105.845 37.3154 107.198 37.5211 108.744C37.6434 109.664 38.5773 110.263 39.4724 110.019C40.2006 109.819 41.0901 109.426 41.9296 108.65C42.4132 108.201 42.58 107.503 42.3298 106.893C42.063 106.244 41.596 105.363 40.8233 104.554C40.1006 103.8 38.8442 103.983 38.3383 104.892H38.3327Z" fill="#FF7DB8"/>
<path d="M38.5384 108.738C38.3272 107.192 38.8164 105.84 39.3501 104.886C39.5502 104.526 39.8671 104.288 40.2229 104.166C39.5335 103.927 38.7163 104.193 38.3327 104.886C37.799 105.84 37.3154 107.192 37.5211 108.738C37.6434 109.659 38.5773 110.257 39.4724 110.013C39.5057 110.002 39.5446 109.991 39.578 109.98C39.0443 109.797 38.6162 109.337 38.5384 108.738Z" fill="#FDAFD7"/>
<path d="M74.2237 73.6522C74.2237 73.6522 72.7116 82.6649 63.7778 82.9975C55.7947 83.2968 48.9735 81.2626 47.3779 74.9381C47.2223 74.3118 47.9061 73.824 48.4731 74.1399C49.4627 74.6942 51.086 74.927 53.6599 73.8185C59.1358 71.4683 67.5192 66.8732 74.2237 73.6466V73.6522Z" fill="#A5CFFF"/>
<path d="M83.7015 69.5664C83.7015 69.5664 77.5251 71.3568 75.5683 78.8951C75.2514 80.109 76.5411 81.1233 77.6641 80.558C80.2436 79.2554 83.8238 76.2401 83.7015 69.5719V69.5664Z" fill="#FF7DB8"/>
<path d="M63.3561 91.5611C63.3561 90.1477 62.2054 89.0059 60.7933 89.0059C59.3812 89.0059 58.2305 90.1532 58.2305 91.5611C58.2305 92.969 59.3812 94.1164 60.7933 94.1164C62.2054 94.1164 63.3561 92.969 63.3561 91.5611Z" fill="#FF7DB8"/>
<path d="M62.9342 91.0455C62.9342 89.6321 61.7835 88.4902 60.3714 88.4902C58.9594 88.4902 57.8086 89.6376 57.8086 91.0455C57.8086 92.4534 58.9594 93.6008 60.3714 93.6008C61.7835 93.6008 62.9342 92.4534 62.9342 91.0455Z" fill="#263036"/>
<path d="M60.0659 90.3923C60.0659 90.0321 59.7713 89.7383 59.4099 89.7383C59.0485 89.7383 58.7539 90.0321 58.7539 90.3923C58.7539 90.7526 59.0485 91.0464 59.4099 91.0464C59.7713 91.0464 60.0659 90.7526 60.0659 90.3923Z" fill="#FDD5C1"/>
</g>
<defs>
<clipPath id="clip0_10888_18101">
<rect width="69.5048" height="29.4059" fill="white" transform="translate(59 54.6934)"/>
</clipPath>
<clipPath id="clip1_10888_18101">
<rect width="83" height="90" fill="white" transform="translate(33 55)"/>
</clipPath>
</defs>
</svg>
