<svg width="150" height="200" viewBox="0 0 150 200" fill="none" xmlns="http://www.w3.org/2000/svg">
<rect width="150" height="200" fill="#FFF1D6"/>
<path d="M43.2189 42.3464C43.1892 42.2425 43.1299 42.1313 43.0298 42.0237C39.451 37.9887 31.9929 38.8343 27.9765 41.727C26.8899 42.5096 27.3423 43.4738 28.2287 43.9819C28.1953 44.0635 31.1956 58.8312 34.2478 65.5549C34.6705 66.4858 36.2801 66.6898 36.6695 65.5549C39.069 58.5753 41.6724 50.7279 43.4748 43.3329C43.5749 42.9175 43.4488 42.5837 43.2152 42.3464H43.2189Z" fill="#F7BA84"/>
<path d="M42.7791 42.0415C41.8148 43.2282 40.8951 44.4447 39.9828 45.6611C39.0853 44.6116 38.2286 43.5249 37.5017 42.3345C38.084 41.4852 38.6625 40.6322 39.2411 39.7792C39.4858 39.4158 38.8739 39.1302 38.6551 39.4306C38.1248 40.1538 37.5981 40.8844 37.0752 41.6187C36.9232 41.3405 36.3669 41.5 36.5412 41.8338C36.5931 41.9339 36.6562 42.0303 36.7118 42.1305C36.0146 43.1096 35.3173 44.0923 34.6127 45.0677C34.1306 44.1999 33.6633 43.3061 33.1997 42.4012C33.6818 41.6261 34.1528 40.8436 34.5979 40.0462C34.7722 39.731 34.1751 39.5344 34.0008 39.7792C33.578 40.3726 33.1775 40.9808 32.7881 41.5964C32.7324 41.4852 32.6768 41.3813 32.6212 41.2701C32.4765 40.9845 31.9202 41.1477 32.0871 41.4852C32.1984 41.7151 32.3096 41.9488 32.4209 42.1787C31.694 43.3469 30.9857 44.5263 30.2217 45.6648C29.773 44.8897 29.3465 44.0961 28.9533 43.2876C28.8532 43.0836 28.3933 43.1652 28.4898 43.4137C28.8718 44.3853 29.3057 45.3496 29.7841 46.299C29.658 46.477 29.5356 46.655 29.4058 46.8293C29.1944 47.1112 29.6914 47.3411 29.8768 47.1112C29.9435 47.0259 30.0103 46.9369 30.0771 46.8478C30.5035 47.66 30.9597 48.4611 31.4492 49.2399C30.8967 49.9223 30.3404 50.601 29.7581 51.2574C29.5245 51.5207 30.0288 51.7432 30.2291 51.5393C30.7743 50.9755 31.3009 50.397 31.8164 49.8073C32.5285 50.8902 33.2999 51.9398 34.1232 52.9263C33.5335 53.553 32.9216 54.1613 32.2837 54.7472C31.6087 53.8163 30.982 52.841 30.422 51.8174C30.2514 51.5059 29.632 51.6839 29.8249 52.0585C30.3849 53.1451 31.019 54.2169 31.7237 55.2479C31.5383 55.4111 31.3528 55.5742 31.16 55.7337C30.893 55.9525 31.2898 56.2529 31.5123 56.0823C31.6866 55.9488 31.8535 55.8116 32.0241 55.6781C32.6953 56.6201 33.4185 57.5213 34.201 58.3483C33.6522 58.8675 33.0922 59.383 32.5136 59.8799C32.3838 59.9912 32.4098 60.121 32.4914 60.2063C32.369 60.2619 32.2948 60.3769 32.3912 60.529C33.0143 61.5229 33.9006 62.4797 34.8983 63.2103C34.5126 63.4996 34.112 63.7666 33.7004 64.0151C33.4037 64.1931 33.7894 64.5751 34.0342 64.4416C34.4903 64.1968 34.9761 63.9075 35.4583 63.5849C35.8885 63.8482 36.3298 64.0707 36.7785 64.2302C37.1494 64.3637 37.4832 63.9223 37.1197 63.6553C36.8193 63.4365 36.4967 63.2511 36.1666 63.0694C36.9232 62.4686 37.5981 61.7602 37.9875 60.9258C38.0988 60.6847 37.8985 60.5327 37.6797 60.503C37.6612 60.4696 37.6352 60.4325 37.5944 60.3954C36.786 59.7242 36.0109 59.0121 35.2691 58.263C35.9886 57.6288 36.6932 56.965 37.3719 56.2826C37.6983 56.5681 38.3324 57.3581 38.6699 57.6251C39.0556 57.9329 39.8901 57.5324 39.4042 57.0911C39.0482 56.7647 38.3992 55.9191 38.0506 55.5817C38.733 54.8585 39.3857 54.1093 39.9976 53.3194C40.0903 53.3899 40.1793 53.464 40.2758 53.5308C40.5391 53.7162 41.0472 53.3713 40.7356 53.0969C40.6207 52.993 40.5094 52.8892 40.3944 52.7854C40.884 52.1215 41.125 51.4836 41.5515 50.7716C41.7778 50.3933 41.4217 50.0818 41.1992 50.3785C40.7356 51.0015 40.2646 51.6097 39.7862 52.2068C39.0816 51.5096 38.44 50.7753 37.8392 50.015C38.6848 49.0285 39.497 48.0086 40.2758 46.9628C40.7579 47.5265 41.24 48.0902 41.7073 48.6651C41.9446 48.9581 42.5269 48.6354 42.2339 48.2831C41.7184 47.66 41.1844 47.0555 40.654 46.4473C41.6146 45.1233 42.5232 43.766 43.365 42.3975C43.5987 42.0192 43.0127 41.7596 42.7791 42.0489V42.0415ZM30.5481 46.2174C31.3417 45.1753 32.0983 44.0998 32.814 42.9909C33.2479 43.8921 33.6855 44.797 34.1491 45.6908C33.4556 46.6439 32.751 47.5859 32.0241 48.513C31.5086 47.7676 31.0153 46.9999 30.5481 46.2174ZM32.4246 49.0879C33.1552 48.2237 33.8599 47.3374 34.5459 46.4362C35.2024 47.6526 35.907 48.832 36.7118 49.9223C36.0999 50.6826 35.4731 51.4243 34.8278 52.1512C33.9859 51.1684 33.1849 50.1485 32.4283 49.0916L32.4246 49.0879ZM37.0901 60.8664C36.6339 61.4376 36.226 62.0309 35.6882 62.539C35.6326 62.5909 35.5732 62.6392 35.5176 62.6874C35.3915 62.6132 35.2654 62.539 35.1467 62.4611C34.2901 61.89 33.552 61.1594 32.9587 60.2916C32.9438 60.2656 32.9179 60.2508 32.8956 60.2323C33.4816 59.765 34.0638 59.2829 34.6424 58.7896C35.4101 59.5536 36.2222 60.2582 37.0901 60.8627V60.8664ZM34.7981 57.7734C34.023 56.9576 33.2961 56.0934 32.6138 55.1922C33.2813 54.636 33.9377 54.0537 34.5756 53.4492C35.2765 54.254 36.0034 55.0254 36.7711 55.7374C36.1295 56.4309 35.4768 57.1133 34.7981 57.7734ZM39.3264 52.7779C38.7144 53.5308 38.0877 54.2688 37.4498 54.9883C36.7192 54.2577 36.0146 53.4974 35.3248 52.7186C35.9923 52.0548 36.645 51.365 37.2792 50.6529C37.9022 51.4206 38.5772 52.1401 39.3264 52.7779ZM37.257 49.2399C36.4485 48.1459 35.7216 46.9925 35.0318 45.802C35.7512 44.8378 36.4485 43.855 37.1383 42.8648C37.8689 44.0404 38.7219 45.1159 39.6045 46.1655C38.8294 47.2002 38.0506 48.2312 37.257 49.2399Z" fill="#D38442"/>
<path d="M44.7653 37.142C47.0313 35.5696 47.7619 30.893 47.2871 28.9683C46.1857 24.5142 41.8837 21.3693 37.1218 20.7944C32.8643 20.2827 28.3287 21.7179 25.7771 25.0149C22.7435 28.9349 23.8487 34.3828 27.1679 37.7577C24.8277 39.1113 23.7226 43.0388 26.6153 44.3108C28.6291 45.1972 30.3313 43.087 31.4402 41.0509C32.0188 42.7384 32.8717 44.3702 34.7668 44.3961C36.3949 44.4184 37.1737 43.0907 37.6114 41.6109C39.4063 44.2218 42.4363 46.3246 45.6146 45.2825C49.2675 44.0846 46.894 38.9741 44.7616 37.142H44.7653Z" fill="#FCD2D9"/>
<path d="M29.3138 23.6498C28.8613 23.4199 28.3125 23.5349 27.8378 23.6313C27.3223 23.7388 26.8105 23.7945 26.3543 24.0726C26.0724 24.2432 26.1021 24.6066 26.4544 24.6771C26.9848 24.7847 27.4743 24.7031 28.0083 24.6474C28.5201 24.5918 29.1172 24.5584 29.4733 24.1394C29.6253 23.9613 29.4844 23.7314 29.3101 23.6461L29.3138 23.6498Z" fill="#DD4737"/>
<path d="M34.343 27.9373C34.2688 27.5516 33.7793 27.2772 33.4826 27.051C33.1562 26.8025 32.7594 26.6208 32.4145 26.3908C32.1512 26.2128 31.5356 26.3834 31.7915 26.7728C31.9991 27.0843 32.2254 27.3847 32.4516 27.6851C32.726 28.0449 33.1266 28.4343 33.5531 28.5641C33.9647 28.6902 34.4246 28.3712 34.3393 27.9373H34.343Z" fill="#DD4737"/>
<path d="M36.412 22.8011C36.3378 22.5601 35.8631 22.5119 35.6739 22.6528C35.5886 22.7158 35.5108 22.79 35.4366 22.8679C35.1844 23.0422 34.9656 23.2944 34.7357 23.5095C34.3796 23.8395 34.057 24.1956 33.7084 24.5331C33.3857 24.8446 33.79 25.0931 34.1089 25.0448C34.261 25.0968 34.439 25.0931 34.5465 24.9892C34.6244 24.915 34.7023 24.8372 34.7802 24.763C35.0212 24.6258 35.2475 24.4663 35.4774 24.2772C35.6814 24.1029 35.8816 23.9248 36.0856 23.7505C36.3118 23.554 36.5603 23.4093 36.5492 23.0793C36.5492 22.968 36.4898 22.8753 36.4082 22.8048L36.412 22.8011Z" fill="#DD4737"/>
<path d="M32.7522 20.3085C32.6854 19.9636 32.1959 19.9599 31.9511 20.0489C31.5914 20.1787 31.4208 20.6015 31.2131 20.8982C30.9758 21.2394 30.7236 21.5731 30.4788 21.9069C30.3342 22.1035 30.4491 22.3482 30.6531 22.441C30.8905 22.5522 31.1501 22.4855 31.3207 22.3C31.6137 21.9885 31.9103 21.677 32.1959 21.358C32.4741 21.0465 32.8412 20.7535 32.7522 20.3085Z" fill="#DD4737"/>
<path d="M41.4247 24.7331C40.6051 24.7776 39.8967 25.5787 39.2032 25.9718C38.5802 26.3278 39.2144 26.9731 39.7521 26.7246C40.1156 26.554 40.4642 26.3575 40.8091 26.1572C41.1688 25.9458 41.688 25.7864 41.9254 25.434C42.1627 25.078 41.7919 24.7146 41.421 24.7331H41.4247Z" fill="#DD4737"/>
<path d="M45.564 25.349C45.4008 24.8965 45.2413 24.4441 45.0782 23.9916C44.9113 23.5243 43.973 23.6727 44.1362 24.1993C44.2585 24.5998 44.3846 25.0003 44.507 25.3972C44.6368 25.82 44.711 26.328 44.9966 26.6729C45.2376 26.9585 45.8347 26.914 45.8718 26.4838C45.9052 26.0944 45.6938 25.7087 45.564 25.349Z" fill="#DD4737"/>
<path d="M39.9773 21.2798C39.8067 21.0981 39.6287 20.9238 39.4395 20.7569C39.3542 20.6827 39.243 20.6308 39.128 20.5863C39.1057 20.5603 39.0835 20.5344 39.0649 20.5084C38.9685 20.3823 38.7275 20.3638 38.5717 20.4305C38.3788 20.4416 38.2008 20.6271 38.3195 20.8199C38.4159 20.972 38.4975 21.1314 38.5865 21.2872C38.6533 21.4059 38.7683 21.5171 38.8832 21.6247C39.0909 22.0067 39.3357 22.3701 39.6509 22.6075C39.751 22.7224 39.8623 22.7929 40.0551 22.8522C40.2962 22.9227 40.5818 22.7966 40.6782 22.5704C40.871 22.1254 40.2554 21.5802 39.981 21.2835L39.9773 21.2798Z" fill="#DD4737"/>
<path d="M82.0588 42.3464C82.0291 42.2425 81.9697 42.1313 81.8696 42.0237C78.2908 37.9887 70.8328 38.8343 66.8163 41.727C65.7297 42.5096 66.1821 43.4738 67.0685 43.9819C67.0351 44.0635 70.0354 58.8312 73.0876 65.5549C73.5104 66.4858 75.1199 66.6898 75.5093 65.5549C77.9088 58.5753 80.5123 50.7279 82.3146 43.3329C82.4148 42.9175 82.2887 42.5837 82.055 42.3464H82.0588Z" fill="#F7BA84"/>
<path d="M81.6189 42.0415C80.6547 43.2282 79.735 44.4447 78.8226 45.6611C77.9251 44.6116 77.0685 43.5249 76.3416 42.3345C76.9238 41.4852 77.5024 40.6322 78.0809 39.7792C78.3257 39.4158 77.7138 39.1302 77.4949 39.4306C76.9646 40.1538 76.438 40.8844 75.9151 41.6187C75.763 41.3405 75.2067 41.5 75.381 41.8338C75.433 41.9339 75.496 42.0303 75.5516 42.1305C74.8544 43.1096 74.1572 44.0923 73.4525 45.0677C72.9704 44.1999 72.5031 43.3061 72.0396 42.4012C72.5217 41.6261 72.9927 40.8436 73.4377 40.0462C73.612 39.731 73.0149 39.5344 72.8406 39.7792C72.4178 40.3726 72.0173 40.9808 71.6279 41.5964C71.5723 41.4852 71.5166 41.3813 71.461 41.2701C71.3164 40.9845 70.7601 41.1477 70.927 41.4852C71.0382 41.7151 71.1495 41.9488 71.2608 42.1787C70.5339 43.3469 69.8255 44.5263 69.0615 45.6648C68.6128 44.8897 68.1863 44.0961 67.7932 43.2876C67.6931 43.0836 67.2332 43.1652 67.3296 43.4137C67.7116 44.3853 68.1455 45.3496 68.6239 46.299C68.4978 46.477 68.3754 46.655 68.2456 46.8293C68.0343 47.1112 68.5312 47.3411 68.7166 47.1112C68.7834 47.0259 68.8501 46.9369 68.9169 46.8478C69.3434 47.66 69.7996 48.4611 70.2891 49.2399C69.7365 49.9223 69.1802 50.601 68.598 51.2574C68.3643 51.5207 68.8687 51.7432 69.069 51.5393C69.6141 50.9755 70.1407 50.397 70.6562 49.8073C71.3683 50.8902 72.1397 51.9398 72.963 52.9263C72.3733 53.553 71.7614 54.1613 71.1235 54.7472C70.4486 53.8163 69.8218 52.841 69.2618 51.8174C69.0912 51.5059 68.4719 51.6839 68.6647 52.0585C69.2247 53.1451 69.8589 54.2169 70.5635 55.2479C70.3781 55.4111 70.1927 55.5742 69.9998 55.7337C69.7328 55.9525 70.1296 56.2529 70.3521 56.0823C70.5264 55.9488 70.6933 55.8116 70.8639 55.6781C71.5352 56.6201 72.2584 57.5213 73.0409 58.3483C72.492 58.8675 71.932 59.383 71.3535 59.8799C71.2237 59.9912 71.2496 60.121 71.3312 60.2063C71.2088 60.2619 71.1347 60.3769 71.2311 60.529C71.8541 61.5229 72.7405 62.4797 73.7381 63.2103C73.3524 63.4996 72.9519 63.7666 72.5402 64.0151C72.2435 64.1931 72.6292 64.5751 72.874 64.4416C73.3302 64.1968 73.816 63.9075 74.2981 63.5849C74.7283 63.8482 75.1696 64.0707 75.6184 64.2302C75.9892 64.3637 76.323 63.9223 75.9596 63.6553C75.6592 63.4365 75.3365 63.2511 75.0065 63.0694C75.763 62.4686 76.438 61.7602 76.8274 60.9258C76.9387 60.6847 76.7384 60.5327 76.5196 60.503C76.501 60.4696 76.4751 60.4325 76.4343 60.3954C75.6258 59.7242 74.8507 59.0121 74.109 58.263C74.8284 57.6288 75.5331 56.965 76.2118 56.2826C76.5381 56.5681 77.1723 57.3581 77.5098 57.6251C77.8955 57.9329 78.7299 57.5324 78.2441 57.0911C77.8881 56.7647 77.239 55.9191 76.8904 55.5817C77.5728 54.8585 78.2255 54.1093 78.8375 53.3194C78.9302 53.3899 79.0192 53.464 79.1156 53.5308C79.3789 53.7162 79.887 53.3713 79.5755 53.0969C79.4605 52.993 79.3493 52.8892 79.2343 52.7854C79.7238 52.1215 79.9649 51.4836 80.3914 50.7716C80.6176 50.3933 80.2616 50.0818 80.0391 50.3785C79.5755 51.0015 79.1045 51.6097 78.6261 52.2068C77.9214 51.5096 77.2798 50.7753 76.679 50.015C77.5246 49.0285 78.3368 48.0086 79.1156 46.9628C79.5977 47.5265 80.0799 48.0902 80.5471 48.6651C80.7845 48.9581 81.3667 48.6354 81.0738 48.2831C80.5583 47.66 80.0242 47.0555 79.4939 46.4473C80.4544 45.1233 81.363 43.766 82.2049 42.3975C82.4385 42.0192 81.8526 41.7596 81.6189 42.0489V42.0415ZM69.3879 46.2174C70.1815 45.1753 70.9381 44.0998 71.6539 42.9909C72.0878 43.8921 72.5254 44.797 72.989 45.6908C72.2955 46.6439 71.5908 47.5859 70.8639 48.513C70.3484 47.7676 69.8552 46.9999 69.3879 46.2174ZM71.2645 49.0879C71.9951 48.2237 72.6997 47.3374 73.3858 46.4362C74.0422 47.6526 74.7469 48.832 75.5516 49.9223C74.9397 50.6826 74.3129 51.4243 73.6676 52.1512C72.8258 51.1684 72.0247 50.1485 71.2682 49.0916L71.2645 49.0879ZM75.9299 60.8664C75.4737 61.4376 75.0658 62.0309 74.528 62.539C74.4724 62.5909 74.4131 62.6392 74.3574 62.6874C74.2314 62.6132 74.1053 62.539 73.9866 62.4611C73.1299 61.89 72.3919 61.1594 71.7985 60.2916C71.7837 60.2656 71.7577 60.2508 71.7355 60.2323C72.3214 59.765 72.9037 59.2829 73.4822 58.7896C74.2499 59.5536 75.0621 60.2582 75.9299 60.8627V60.8664ZM73.638 57.7734C72.8629 56.9576 72.136 56.0934 71.4536 55.1922C72.1212 54.636 72.7776 54.0537 73.4155 53.4492C74.1164 54.254 74.8433 55.0254 75.611 55.7374C74.9694 56.4309 74.3167 57.1133 73.638 57.7734ZM78.1662 52.7779C77.5543 53.5308 76.9275 54.2688 76.2896 54.9883C75.559 54.2577 74.8544 53.4974 74.1646 52.7186C74.8322 52.0548 75.4849 51.365 76.119 50.6529C76.7421 51.4206 77.4171 52.1401 78.1662 52.7779ZM76.0968 49.2399C75.2883 48.1459 74.5614 46.9925 73.8716 45.802C74.5911 44.8378 75.2883 43.855 75.9781 42.8648C76.7087 44.0404 77.5617 45.1159 78.4444 46.1655C77.6692 47.2002 76.8904 48.2312 76.0968 49.2399Z" fill="#D38442"/>
<path d="M83.6051 37.142C85.8711 35.5696 86.6017 30.893 86.127 28.9683C85.0255 24.5142 80.7235 21.3693 75.9617 20.7944C71.7042 20.2827 67.1685 21.7179 64.617 25.0149C61.5833 28.9349 62.6885 34.3828 66.0077 37.7577C63.6676 39.1113 62.5624 43.0388 65.4551 44.3108C67.4689 45.1972 69.1712 43.087 70.2801 41.0509C70.8586 42.7384 71.7116 44.3702 73.6067 44.3961C75.2348 44.4184 76.0136 43.0907 76.4512 41.6109C78.2462 44.2218 81.2761 46.3246 84.4544 45.2825C88.1074 44.0846 85.7339 38.9741 83.6014 37.142H83.6051Z" fill="#FCD2D9"/>
<path d="M68.1536 23.6498C67.7012 23.4199 67.1523 23.5349 66.6776 23.6313C66.1621 23.7388 65.6503 23.7945 65.1941 24.0726C64.9123 24.2432 64.942 24.6066 65.2943 24.6771C65.8246 24.7847 66.3142 24.7031 66.8482 24.6474C67.36 24.5918 67.9571 24.5584 68.3131 24.1394C68.4652 23.9613 68.3242 23.7314 68.1499 23.6461L68.1536 23.6498Z" fill="#DD4737"/>
<path d="M73.1828 27.9373C73.1087 27.5516 72.6191 27.2772 72.3224 27.051C71.9961 26.8025 71.5992 26.6208 71.2543 26.3908C70.991 26.2128 70.3754 26.3834 70.6313 26.7728C70.839 27.0843 71.0652 27.3847 71.2914 27.6851C71.5659 28.0449 71.9664 28.4343 72.3929 28.5641C72.8046 28.6902 73.2644 28.3712 73.1791 27.9373H73.1828Z" fill="#DD4737"/>
<path d="M75.2518 22.8011C75.1776 22.5601 74.7029 22.5119 74.5138 22.6528C74.4285 22.7158 74.3506 22.79 74.2764 22.8679C74.0242 23.0422 73.8054 23.2944 73.5755 23.5095C73.2195 23.8395 72.8968 24.1956 72.5482 24.5331C72.2256 24.8446 72.6298 25.0931 72.9487 25.0448C73.1008 25.0968 73.2788 25.0931 73.3864 24.9892C73.4642 24.915 73.5421 24.8372 73.62 24.763C73.8611 24.6258 74.0873 24.4663 74.3172 24.2772C74.5212 24.1029 74.7215 23.9248 74.9254 23.7505C75.1517 23.554 75.4001 23.4093 75.389 23.0793C75.389 22.968 75.3297 22.8753 75.2481 22.8048L75.2518 22.8011Z" fill="#DD4737"/>
<path d="M71.592 20.3085C71.5253 19.9636 71.0357 19.9599 70.791 20.0489C70.4312 20.1787 70.2606 20.6015 70.053 20.8982C69.8156 21.2394 69.5634 21.5731 69.3187 21.9069C69.174 22.1035 69.289 22.3482 69.493 22.441C69.7303 22.5522 69.9899 22.4855 70.1605 22.3C70.4535 21.9885 70.7502 21.677 71.0357 21.358C71.3139 21.0465 71.681 20.7535 71.592 20.3085Z" fill="#DD4737"/>
<path d="M80.2645 24.7331C79.4449 24.7776 78.7366 25.5787 78.0431 25.9718C77.42 26.3278 78.0542 26.9731 78.592 26.7246C78.9554 26.554 79.304 26.3575 79.6489 26.1572C80.0086 25.9458 80.5279 25.7864 80.7652 25.434C81.0026 25.078 80.6317 24.7146 80.2608 24.7331H80.2645Z" fill="#DD4737"/>
<path d="M84.4038 25.349C84.2406 24.8965 84.0812 24.4441 83.918 23.9916C83.7511 23.5243 82.8128 23.6727 82.976 24.1993C83.0984 24.5998 83.2245 25.0003 83.3469 25.3972C83.4767 25.82 83.5508 26.328 83.8364 26.6729C84.0775 26.9585 84.6746 26.914 84.7116 26.4838C84.745 26.0944 84.5336 25.7087 84.4038 25.349Z" fill="#DD4737"/>
<path d="M78.8171 21.2798C78.6465 21.0981 78.4685 20.9238 78.2794 20.7569C78.1941 20.6827 78.0828 20.6308 77.9678 20.5863C77.9456 20.5603 77.9233 20.5344 77.9048 20.5084C77.8084 20.3823 77.5673 20.3638 77.4115 20.4305C77.2187 20.4416 77.0407 20.6271 77.1594 20.8199C77.2558 20.972 77.3374 21.1314 77.4264 21.2872C77.4931 21.4059 77.6081 21.5171 77.7231 21.6247C77.9307 22.0067 78.1755 22.3701 78.4907 22.6075C78.5909 22.7224 78.7021 22.7929 78.895 22.8522C79.136 22.9227 79.4216 22.7966 79.518 22.5704C79.7109 22.1254 79.0953 21.5802 78.8208 21.2835L78.8171 21.2798Z" fill="#DD4737"/>
<path d="M120.899 42.3464C120.869 42.2425 120.81 42.1313 120.709 42.0237C117.131 37.9887 109.673 38.8343 105.656 41.727C104.57 42.5096 105.022 43.4738 105.908 43.9819C105.875 44.0635 108.875 58.8312 111.927 65.5549C112.35 66.4858 113.96 66.6898 114.349 65.5549C116.749 58.5753 119.352 50.7279 121.154 43.3329C121.255 42.9175 121.129 42.5837 120.895 42.3464H120.899Z" fill="#F7BA84"/>
<path d="M120.459 42.0415C119.495 43.2282 118.575 44.4447 117.662 45.6611C116.765 44.6116 115.908 43.5249 115.181 42.3345C115.764 41.4852 116.342 40.6322 116.921 39.7792C117.166 39.4158 116.554 39.1302 116.335 39.4306C115.804 40.1538 115.278 40.8844 114.755 41.6187C114.603 41.3405 114.047 41.5 114.221 41.8338C114.273 41.9339 114.336 42.0303 114.391 42.1305C113.694 43.1096 112.997 44.0923 112.292 45.0677C111.81 44.1999 111.343 43.3061 110.879 42.4012C111.362 41.6261 111.833 40.8436 112.278 40.0462C112.452 39.731 111.855 39.5344 111.68 39.7792C111.258 40.3726 110.857 40.9808 110.468 41.5964C110.412 41.4852 110.356 41.3813 110.301 41.2701C110.156 40.9845 109.6 41.1477 109.767 41.4852C109.878 41.7151 109.989 41.9488 110.101 42.1787C109.374 43.3469 108.665 44.5263 107.901 45.6648C107.453 44.8897 107.026 44.0961 106.633 43.2876C106.533 43.0836 106.073 43.1652 106.169 43.4137C106.551 44.3853 106.985 45.3496 107.464 46.299C107.338 46.477 107.215 46.655 107.085 46.8293C106.874 47.1112 107.371 47.3411 107.556 47.1112C107.623 47.0259 107.69 46.9369 107.757 46.8478C108.183 47.66 108.639 48.4611 109.129 49.2399C108.576 49.9223 108.02 50.601 107.438 51.2574C107.204 51.5207 107.709 51.7432 107.909 51.5393C108.454 50.9755 108.981 50.397 109.496 49.8073C110.208 50.8902 110.98 51.9398 111.803 52.9263C111.213 53.553 110.601 54.1613 109.963 54.7472C109.288 53.8163 108.662 52.841 108.102 51.8174C107.931 51.5059 107.312 51.6839 107.505 52.0585C108.065 53.1451 108.699 54.2169 109.403 55.2479C109.218 55.4111 109.033 55.5742 108.84 55.7337C108.573 55.9525 108.969 56.2529 109.192 56.0823C109.366 55.9488 109.533 55.8116 109.704 55.6781C110.375 56.6201 111.098 57.5213 111.881 58.3483C111.332 58.8675 110.772 59.383 110.193 59.8799C110.064 59.9912 110.089 60.121 110.171 60.2063C110.049 60.2619 109.975 60.3769 110.071 60.529C110.694 61.5229 111.58 62.4797 112.578 63.2103C112.192 63.4996 111.792 63.7666 111.38 64.0151C111.083 64.1931 111.469 64.5751 111.714 64.4416C112.17 64.1968 112.656 63.9075 113.138 63.5849C113.568 63.8482 114.009 64.0707 114.458 64.2302C114.829 64.3637 115.163 63.9223 114.799 63.6553C114.499 63.4365 114.176 63.2511 113.846 63.0694C114.603 62.4686 115.278 61.7602 115.667 60.9258C115.778 60.6847 115.578 60.5327 115.359 60.503C115.341 60.4696 115.315 60.4325 115.274 60.3954C114.466 59.7242 113.691 59.0121 112.949 58.263C113.668 57.6288 114.373 56.965 115.052 56.2826C115.378 56.5681 116.012 57.3581 116.35 57.6251C116.735 57.9329 117.57 57.5324 117.084 57.0911C116.728 56.7647 116.079 55.9191 115.73 55.5817C116.413 54.8585 117.065 54.1093 117.677 53.3194C117.77 53.3899 117.859 53.464 117.955 53.5308C118.219 53.7162 118.727 53.3713 118.415 53.0969C118.3 52.993 118.189 52.8892 118.074 52.7854C118.564 52.1215 118.805 51.4836 119.231 50.7716C119.457 50.3933 119.101 50.0818 118.879 50.3785C118.415 51.0015 117.944 51.6097 117.466 52.2068C116.761 51.5096 116.12 50.7753 115.519 50.015C116.364 49.0285 117.177 48.0086 117.955 46.9628C118.438 47.5265 118.92 48.0902 119.387 48.6651C119.624 48.9581 120.207 48.6354 119.914 48.2831C119.398 47.66 118.864 47.0555 118.334 46.4473C119.294 45.1233 120.203 43.766 121.045 42.3975C121.278 42.0192 120.692 41.7596 120.459 42.0489V42.0415ZM108.228 46.2174C109.021 45.1753 109.778 44.0998 110.494 42.9909C110.928 43.8921 111.365 44.797 111.829 45.6908C111.135 46.6439 110.431 47.5859 109.704 48.513C109.188 47.7676 108.695 46.9999 108.228 46.2174ZM110.104 49.0879C110.835 48.2237 111.54 47.3374 112.226 46.4362C112.882 47.6526 113.587 48.832 114.391 49.9223C113.78 50.6826 113.153 51.4243 112.507 52.1512C111.666 51.1684 110.865 50.1485 110.108 49.0916L110.104 49.0879ZM114.77 60.8664C114.314 61.4376 113.906 62.0309 113.368 62.539C113.312 62.5909 113.253 62.6392 113.197 62.6874C113.071 62.6132 112.945 62.539 112.826 62.4611C111.97 61.89 111.232 61.1594 110.638 60.2916C110.624 60.2656 110.598 60.2508 110.575 60.2323C111.161 59.765 111.744 59.2829 112.322 58.7896C113.09 59.5536 113.902 60.2582 114.77 60.8627V60.8664ZM112.478 57.7734C111.703 56.9576 110.976 56.0934 110.293 55.1922C110.961 54.636 111.617 54.0537 112.255 53.4492C112.956 54.254 113.683 55.0254 114.451 55.7374C113.809 56.4309 113.156 57.1133 112.478 57.7734ZM117.006 52.7779C116.394 53.5308 115.767 54.2688 115.129 54.9883C114.399 54.2577 113.694 53.4974 113.004 52.7186C113.672 52.0548 114.325 51.365 114.959 50.6529C115.582 51.4206 116.257 52.1401 117.006 52.7779ZM114.937 49.2399C114.128 48.1459 113.401 46.9925 112.711 45.802C113.431 44.8378 114.128 43.855 114.818 42.8648C115.549 44.0404 116.402 45.1159 117.284 46.1655C116.509 47.2002 115.73 48.2312 114.937 49.2399Z" fill="#D38442"/>
<path d="M122.445 37.142C124.711 35.5696 125.442 30.893 124.967 28.9683C123.865 24.5142 119.563 21.3693 114.802 20.7944C110.544 20.2827 106.008 21.7179 103.457 25.0149C100.423 28.9349 101.528 34.3828 104.848 37.7577C102.507 39.1113 101.402 43.0388 104.295 44.3108C106.309 45.1972 108.011 43.087 109.12 41.0509C109.698 42.7384 110.551 44.3702 112.447 44.3961C114.075 44.4184 114.853 43.0907 115.291 41.6109C117.086 44.2218 120.116 46.3246 123.294 45.2825C126.947 44.0846 124.574 38.9741 122.441 37.142H122.445Z" fill="#FCD2D9"/>
<path d="M106.993 23.6498C106.541 23.4199 105.992 23.5349 105.517 23.6313C105.002 23.7388 104.49 23.7945 104.034 24.0726C103.752 24.2432 103.782 24.6066 104.134 24.6771C104.664 24.7847 105.154 24.7031 105.688 24.6474C106.2 24.5918 106.797 24.5584 107.153 24.1394C107.305 23.9613 107.164 23.7314 106.99 23.6461L106.993 23.6498Z" fill="#DD4737"/>
<path d="M112.023 27.9373C111.949 27.5516 111.459 27.2772 111.162 27.051C110.836 26.8025 110.439 26.6208 110.094 26.3908C109.831 26.2128 109.215 26.3834 109.471 26.7728C109.679 27.0843 109.905 27.3847 110.131 27.6851C110.406 28.0449 110.806 28.4343 111.233 28.5641C111.644 28.6902 112.104 28.3712 112.019 27.9373H112.023Z" fill="#DD4737"/>
<path d="M114.092 22.8011C114.017 22.5601 113.543 22.5119 113.354 22.6528C113.268 22.7158 113.19 22.79 113.116 22.8679C112.864 23.0422 112.645 23.2944 112.415 23.5095C112.059 23.8395 111.737 24.1956 111.388 24.5331C111.065 24.8446 111.47 25.0931 111.789 25.0448C111.941 25.0968 112.119 25.0931 112.226 24.9892C112.304 24.915 112.382 24.8372 112.46 24.763C112.701 24.6258 112.927 24.4663 113.157 24.2772C113.361 24.1029 113.561 23.9248 113.765 23.7505C113.992 23.554 114.24 23.4093 114.229 23.0793C114.229 22.968 114.17 22.8753 114.088 22.8048L114.092 22.8011Z" fill="#DD4737"/>
<path d="M110.432 20.3085C110.365 19.9636 109.876 19.9599 109.631 20.0489C109.271 20.1787 109.1 20.6015 108.893 20.8982C108.655 21.2394 108.403 21.5731 108.159 21.9069C108.014 22.1035 108.129 22.3482 108.333 22.441C108.57 22.5522 108.83 22.4855 109 22.3C109.293 21.9885 109.59 21.677 109.876 21.358C110.154 21.0465 110.521 20.7535 110.432 20.3085Z" fill="#DD4737"/>
<path d="M119.104 24.7331C118.285 24.7776 117.576 25.5787 116.883 25.9718C116.26 26.3278 116.894 26.9731 117.432 26.7246C117.795 26.554 118.144 26.3575 118.489 26.1572C118.848 25.9458 119.368 25.7864 119.605 25.434C119.842 25.078 119.472 24.7146 119.101 24.7331H119.104Z" fill="#DD4737"/>
<path d="M123.244 25.349C123.08 24.8965 122.921 24.4441 122.758 23.9916C122.591 23.5243 121.653 23.6727 121.816 24.1993C121.938 24.5998 122.064 25.0003 122.187 25.3972C122.317 25.82 122.391 26.328 122.676 26.6729C122.917 26.9585 123.514 26.914 123.551 26.4838C123.585 26.0944 123.373 25.7087 123.244 25.349Z" fill="#DD4737"/>
<path d="M117.657 21.2798C117.486 21.0981 117.308 20.9238 117.119 20.7569C117.034 20.6827 116.923 20.6308 116.808 20.5863C116.785 20.5603 116.763 20.5344 116.745 20.5084C116.648 20.3823 116.407 20.3638 116.251 20.4305C116.059 20.4416 115.881 20.6271 115.999 20.8199C116.096 20.972 116.177 21.1314 116.266 21.2872C116.333 21.4059 116.448 21.5171 116.563 21.6247C116.771 22.0067 117.015 22.3701 117.331 22.6075C117.431 22.7224 117.542 22.7929 117.735 22.8522C117.976 22.9227 118.261 22.7966 118.358 22.5704C118.551 22.1254 117.935 21.5802 117.661 21.2835L117.657 21.2798Z" fill="#DD4737"/>
<path d="M37.871 164.275C36.5136 163.963 30.1088 163.881 28.4029 164.215C27.9504 164.304 27.4312 164.794 27.3756 165.194C27.1531 166.759 28.8405 176.324 29.2855 178.883C29.3857 179.458 29.8233 179.936 30.4241 180.055C32.0781 180.381 34.0511 180.236 35.5123 180.084C36.0575 180.025 36.5248 179.658 36.7139 178.72C37.4408 175.111 38.2938 170.268 38.8723 165.984C38.9465 165.432 38.7796 164.482 37.871 164.275Z" fill="#F7BA84"/>
<path d="M38.4513 168.089C38.9 168.089 38.9 167.581 38.4513 167.585C34.8762 167.614 31.3085 167.918 27.7445 167.518C27.5702 167.499 27.4329 167.599 27.4033 167.707C27.3476 167.737 27.318 167.792 27.3476 167.863C27.8335 168.998 28.4825 170.062 29.1797 171.108C28.7384 171.749 28.4788 172.057 28.1376 172.751C27.9929 173.047 28.3712 173.567 28.5122 173.307C28.8014 172.766 29.1945 172.15 29.5246 171.623C29.8769 172.139 30.233 172.651 30.5816 173.166C30.1625 173.793 29.7471 174.423 29.3318 175.05C28.998 174.65 28.7124 174.319 28.5122 174.108C28.3749 173.963 28.3304 174.223 28.4417 174.416C28.5752 174.642 28.8051 174.998 29.087 175.417C28.9164 175.681 28.9535 175.695 28.7829 175.959C28.6345 176.189 28.8608 176.578 28.998 176.389C29.1278 176.211 29.2539 176.029 29.38 175.851C29.6841 176.296 30.0327 176.793 30.385 177.286C29.9734 177.787 29.7397 178.102 29.2947 178.584C29.1241 178.77 29.3429 179.081 29.4875 178.929C29.8806 178.518 30.2738 178.099 30.6669 177.676C31.0006 178.136 31.3307 178.581 31.6311 178.974C31.3863 179.304 31.149 179.638 30.9339 179.983C30.7967 180.205 31.2009 180.327 31.3381 180.153C31.5347 179.894 31.7424 179.641 31.9538 179.385C32.2245 179.727 32.4581 180.001 32.6176 180.161C32.8438 180.383 33.3742 180.313 33.1776 180.008C33.0367 179.79 32.7437 179.389 32.3728 178.892C32.7956 178.406 33.2332 177.921 33.6783 177.438C34.0269 177.865 34.3866 178.288 34.7538 178.703C34.3273 179.163 33.9008 179.619 33.4632 180.072C33.3037 180.238 33.682 180.357 33.8155 180.22C34.2197 179.816 34.6351 179.415 35.0467 179.015C35.3138 179.311 35.5845 179.604 35.8664 179.89C36.0703 180.097 36.4634 179.76 36.2261 179.478C35.922 179.118 35.8107 178.929 35.5066 178.566C35.8923 178.191 36.2706 177.817 36.6415 177.431C36.6489 177.438 36.6563 177.45 36.6637 177.457C36.8417 177.687 37.2015 177.297 37.0234 177.019C37.2237 176.804 37.1829 176.804 37.2348 176.712C37.4128 176.385 37.3201 175.955 37.0494 176.185C36.9011 176.311 36.7824 176.411 36.66 176.552C36.3188 176.122 35.9776 175.692 35.6438 175.258C36.0926 174.739 36.5265 174.212 36.9307 173.674C37.1087 173.886 37.2682 174.071 37.3869 174.208C37.5797 174.423 37.9283 174.09 37.7021 173.834C37.5389 173.644 37.3832 173.459 37.2274 173.27C37.6279 172.706 37.8134 172.335 38.1212 171.735C38.2584 171.471 38.0248 171.137 37.8987 171.379C37.6465 171.868 37.1903 172.369 36.8714 172.821C36.4931 172.339 36.1334 171.853 35.7773 171.371C36.1816 170.793 36.571 170.207 36.9419 169.613C37.3164 170.003 37.6539 170.422 38.0656 170.785C38.251 170.948 38.4995 170.585 38.2732 170.388C37.8208 169.988 37.5946 169.665 37.1718 169.239C37.4017 168.857 37.6279 168.471 37.843 168.085C38.047 168.085 38.2473 168.078 38.4513 168.078V168.089ZM34.0009 168.156C33.8637 168.356 33.7228 168.56 33.5855 168.76C33.3816 168.56 33.1702 168.363 32.944 168.171C33.2963 168.171 33.6486 168.159 34.0009 168.156ZM32.6176 171.241C32.9736 170.726 33.3334 170.214 33.6894 169.702C34.0454 170.147 34.4534 170.659 34.8687 171.171C34.4942 171.701 34.1233 172.228 33.7524 172.762C33.3742 172.254 32.9959 171.749 32.6176 171.241ZM33.4706 173.166C33.1034 173.689 32.7363 174.212 32.358 174.731C31.9723 174.238 31.594 173.745 31.2269 173.24C31.6014 172.699 31.9797 172.161 32.3543 171.62C32.7251 172.135 33.0997 172.651 33.4706 173.166ZM31.3307 168.156C31.7201 168.163 32.1095 168.167 32.5026 168.171C32.4989 168.185 32.8104 168.59 33.2889 169.19C32.9365 169.702 32.5842 170.214 32.2319 170.73C31.8202 170.184 31.4049 169.635 30.9821 169.09C31.1119 168.816 31.2343 168.534 31.3381 168.245C31.3493 168.211 31.3455 168.182 31.3344 168.156H31.3307ZM30.9561 168.145C30.9561 168.145 30.9413 168.159 30.9376 168.167C30.8597 168.356 30.7707 168.538 30.6817 168.716C30.5259 168.515 30.3665 168.315 30.207 168.115C30.4555 168.126 30.704 168.133 30.9561 168.141V168.145ZM29.4653 170.692C28.8867 169.791 28.3453 168.871 27.852 167.933C28.4788 168.007 29.1092 168.056 29.736 168.093C29.736 168.111 29.7471 168.137 29.7657 168.159C30.0067 168.467 30.2441 168.779 30.4814 169.09C30.1736 169.643 29.825 170.17 29.4616 170.692H29.4653ZM29.7916 171.193C30.1439 170.633 30.4889 170.069 30.7855 169.487C31.1861 170.021 31.5829 170.563 31.976 171.1C31.6051 171.646 31.2343 172.191 30.8671 172.74C30.5 172.228 30.1402 171.716 29.7916 171.193ZM29.6692 175.451C30.092 174.857 30.5111 174.264 30.9265 173.67C30.9673 173.734 31.0118 173.797 31.0563 173.86C31.3604 174.319 31.6719 174.776 31.9908 175.224C31.594 175.762 31.1861 176.292 30.767 176.815C30.3924 176.341 30.0141 175.87 29.6692 175.454V175.451ZM32.0391 178.451C31.7424 178.065 31.416 177.642 31.0822 177.216C31.5161 176.737 31.9463 176.248 32.3728 175.755C32.6769 176.17 32.9885 176.574 33.3074 176.979C32.8698 177.461 32.4433 177.95 32.0391 178.451ZM32.7882 175.269C33.185 174.798 33.5781 174.319 33.9601 173.837C34.2865 174.29 34.6203 174.739 34.9503 175.187C34.5609 175.617 34.1641 176.044 33.771 176.47C33.4446 176.07 33.1108 175.673 32.7919 175.265L32.7882 175.269ZM36.3003 176.982C35.9405 177.398 35.5771 177.806 35.2099 178.21C34.8539 177.783 34.4979 177.361 34.1418 176.934C34.5275 176.515 34.9169 176.092 35.2952 175.666C35.6253 176.107 35.9628 176.545 36.3003 176.982ZM36.571 173.251C36.1742 173.782 35.744 174.297 35.2952 174.802C34.9503 174.349 34.6091 173.897 34.2679 173.441C34.6685 172.925 35.0579 172.398 35.4399 171.868C35.8441 172.365 36.2335 172.84 36.5747 173.251H36.571ZM35.2285 170.659C34.8502 170.17 34.4608 169.687 34.0269 169.22C34.2716 168.871 34.5127 168.523 34.7612 168.178C34.7686 168.167 34.7686 168.156 34.776 168.145C34.9763 168.145 35.1765 168.145 35.3768 168.137C35.7069 168.456 36.0444 168.768 36.3818 169.083C35.9887 169.606 35.6067 170.129 35.2322 170.659H35.2285ZM36.634 168.749C36.3967 168.541 36.1593 168.334 35.922 168.126C36.3225 168.119 36.7268 168.115 37.131 168.108C36.9641 168.323 36.7972 168.534 36.634 168.749Z" fill="#D38442"/>
<path d="M41.9608 152.583C40.2733 149.46 36.0529 148.448 32.7597 148.411C29.7223 148.378 26.0767 149.46 24.7602 152.412C23.3509 155.572 24.1816 159.088 25.8394 161.984C24.8789 163.138 23.9888 165.003 26.0322 165.556C27.0632 165.834 27.894 165.207 28.5356 164.495C28.6357 164.384 28.721 164.262 28.8137 164.143C29.0473 164.877 29.6073 165.433 30.6272 165.433C31.5247 165.433 32.0179 164.892 32.3109 164.187C32.9117 164.911 33.7202 165.4 34.792 165.289C35.6079 165.204 36.1048 164.803 36.3941 164.254C37.2508 165.437 38.4153 166.223 40.214 165.756C42.2982 165.211 41.4416 162.819 40.596 161.376C43.0437 159.11 43.5406 155.502 41.9645 152.583H41.9608Z" fill="#C0E6ED"/>
<path d="M41.5747 137.701C39.8984 134.853 36.7387 133.551 33.4936 133.425C30.0186 133.292 26.6698 135.001 25.0268 138.017C23.4025 140.995 23.6361 145.89 26.2247 148.334C24.6003 149.702 22.9871 151.991 25.3866 153.092C26.7884 153.737 28.1384 152.525 29.0915 151.145C29.3845 152.654 30.1559 154.112 31.6987 153.96C33.1636 153.815 33.883 152.781 34.2724 151.546C34.8695 152.491 35.7596 153.188 37.0279 153.151C37.8624 153.125 38.3371 152.766 38.5819 152.243C39.2568 152.951 40.0913 153.359 41.0629 153.044C43.7888 152.15 42.1607 149.001 40.6513 147.34C42.5983 144.596 43.3326 140.676 41.5821 137.698L41.5747 137.701Z" fill="#F9BE2B"/>
<path d="M30.4399 133.433C29.8947 134.071 29.2717 134.642 28.7784 135.328C28.6116 135.561 28.1035 135.432 28.3 135.131C28.7599 134.438 29.3533 133.852 29.8688 133.203C30.0839 132.928 30.7032 133.117 30.4362 133.433H30.4399ZM33.9186 133.904C33.4921 133.555 32.9247 133.318 32.4092 133.132C32.2571 133.077 32.068 133.084 31.9642 133.225C31.8677 133.355 31.9456 133.514 32.0791 133.574C32.5687 133.792 32.9951 134.137 33.4921 134.338C33.7702 134.449 34.245 134.171 33.9186 133.904ZM33.9297 137.075C33.7332 136.411 33.3141 135.728 32.8542 135.209C32.5909 134.912 32.0643 135.139 32.3573 135.495C32.7912 136.018 32.9729 136.663 33.3623 137.208C33.5144 137.419 34.0336 137.434 33.9297 137.078V137.075ZM37.3268 133.737C37.197 133.562 36.9597 133.555 36.7705 133.622C36.166 133.837 35.6654 134.304 35.1869 134.712C34.8198 135.024 35.4169 135.357 35.7247 135.131C36.2254 134.768 36.7594 134.467 37.2638 134.122C37.3899 134.033 37.4158 133.855 37.3268 133.737ZM38.8956 136.63C38.7917 136.199 38.3356 135.869 38.05 135.55C37.8349 135.313 37.2378 135.472 37.464 135.817C37.5753 135.984 37.6903 136.147 37.8052 136.311C37.9313 136.496 38.0277 136.696 38.1761 136.863C38.3986 137.108 38.992 137.034 38.8919 136.626L38.8956 136.63ZM35.543 138.858C36.0733 138.513 36.6073 138.165 37.0561 137.716C37.2675 137.505 37.0672 137.015 36.7779 137.264C36.3403 137.638 35.8322 137.909 35.3279 138.183C34.9793 138.373 35.1795 139.096 35.543 138.858ZM31.6526 137.972C31.1594 137.772 30.7143 137.497 30.2953 137.175C30.0208 136.963 29.4794 137.29 29.8169 137.549C30.2767 137.905 30.77 138.209 31.3114 138.428C31.4672 138.491 31.6712 138.473 31.775 138.332C31.8714 138.202 31.7973 138.028 31.6526 137.968V137.972ZM34.7938 141.106C34.5342 140.572 34.1374 140.053 33.7257 139.589C33.4884 139.322 32.9914 139.608 33.2288 139.978C33.6071 140.568 33.8704 140.894 34.0632 141.262C34.2412 141.603 34.9756 141.477 34.7938 141.102V141.106ZM29.5128 140.575C29.3051 140.36 29.1901 140.082 29.0269 139.834C28.8304 139.541 28.1962 139.76 28.4187 140.112C28.5745 140.36 28.682 140.642 28.8823 140.865C29.0084 141.002 29.2086 141.046 29.383 140.969C29.5202 140.906 29.6426 140.709 29.5128 140.575ZM39.7263 139.348C39.6299 139.708 39.526 140.071 39.5112 140.442C39.4964 140.791 40.1825 140.794 40.1899 140.442C40.1936 140.116 40.2789 139.8 40.3568 139.481C40.4421 139.133 39.8153 139.029 39.73 139.344L39.7263 139.348ZM26.9686 137.256C26.5273 137.46 26.1824 137.864 25.8486 138.202C25.5853 138.469 26.1787 138.747 26.4012 138.536C26.7239 138.232 27.0651 137.979 27.41 137.705C27.7474 137.438 27.2579 137.123 26.9686 137.256ZM27.0354 135.688C26.6497 135.58 26.2566 135.521 25.8746 135.398C25.6076 135.313 25.3554 135.669 25.6558 135.806C26.0229 135.977 26.4383 136.181 26.8425 136.24C27.2579 136.299 27.5064 135.817 27.0354 135.688ZM40.2195 135.532C40.1231 135.265 39.5817 135.346 39.6707 135.65C39.8301 136.21 39.8969 136.785 39.9748 137.364C40.0267 137.764 40.7536 137.705 40.6646 137.29C40.5422 136.696 40.4272 136.103 40.2195 135.532Z" fill="#995619"/>
<path d="M77.8475 164.275C76.4902 163.963 70.0854 163.881 68.3794 164.215C67.927 164.304 67.4078 164.794 67.3521 165.194C67.1296 166.759 68.8171 176.324 69.2621 178.883C69.3622 179.458 69.7998 179.936 70.4006 180.055C72.0547 180.381 74.0277 180.236 75.4889 180.084C76.034 180.025 76.5013 179.658 76.6905 178.72C77.4173 175.111 78.2703 170.268 78.8489 165.984C78.923 165.432 78.7562 164.482 77.8475 164.275Z" fill="#F7BA84"/>
<path d="M78.4278 168.089C78.8766 168.089 78.8766 167.581 78.4278 167.585C74.8527 167.614 71.285 167.918 67.721 167.518C67.5467 167.499 67.4095 167.599 67.3798 167.707C67.3242 167.737 67.2945 167.792 67.3242 167.863C67.81 168.998 68.459 170.062 69.1563 171.108C68.7149 171.749 68.4553 172.057 68.1141 172.751C67.9695 173.047 68.3478 173.567 68.4887 173.307C68.778 172.766 69.1711 172.15 69.5012 171.623C69.8535 172.139 70.2095 172.651 70.5581 173.166C70.1391 173.793 69.7237 174.423 69.3083 175.05C68.9745 174.65 68.689 174.319 68.4887 174.108C68.3515 173.963 68.307 174.223 68.4183 174.416C68.5518 174.642 68.7817 174.998 69.0636 175.417C68.893 175.681 68.93 175.695 68.7594 175.959C68.6111 176.189 68.8373 176.578 68.9745 176.389C69.1043 176.211 69.2304 176.029 69.3565 175.851C69.6606 176.296 70.0093 176.793 70.3616 177.286C69.9499 177.787 69.7163 178.102 69.2712 178.584C69.1006 178.77 69.3194 179.081 69.4641 178.929C69.8572 178.518 70.2503 178.099 70.6434 177.676C70.9772 178.136 71.3073 178.581 71.6077 178.974C71.3629 179.304 71.1255 179.638 70.9104 179.983C70.7732 180.205 71.1775 180.327 71.3147 180.153C71.5112 179.894 71.7189 179.641 71.9303 179.385C72.201 179.727 72.4347 180.001 72.5942 180.161C72.8204 180.383 73.3507 180.313 73.1542 180.008C73.0132 179.79 72.7203 179.389 72.3494 178.892C72.7722 178.406 73.2098 177.921 73.6548 177.438C74.0034 177.865 74.3632 178.288 74.7303 178.703C74.3038 179.163 73.8773 179.619 73.4397 180.072C73.2803 180.238 73.6585 180.357 73.792 180.22C74.1963 179.816 74.6117 179.415 75.0233 179.015C75.2903 179.311 75.5611 179.604 75.8429 179.89C76.0469 180.097 76.44 179.76 76.2027 179.478C75.8985 179.118 75.7873 178.929 75.4832 178.566C75.8689 178.191 76.2472 177.817 76.618 177.431C76.6254 177.438 76.6329 177.45 76.6403 177.457C76.8183 177.687 77.178 177.297 77 177.019C77.2003 176.804 77.1595 176.804 77.2114 176.712C77.3894 176.385 77.2967 175.955 77.026 176.185C76.8776 176.311 76.7589 176.411 76.6366 176.552C76.2954 176.122 75.9542 175.692 75.6204 175.258C76.0691 174.739 76.503 174.212 76.9073 173.674C77.0853 173.886 77.2448 174.071 77.3634 174.208C77.5563 174.423 77.9049 174.09 77.6787 173.834C77.5155 173.644 77.3597 173.459 77.204 173.27C77.6045 172.706 77.7899 172.335 78.0978 171.735C78.235 171.471 78.0013 171.137 77.8752 171.379C77.6231 171.868 77.1669 172.369 76.8479 172.821C76.4697 172.339 76.1099 171.853 75.7539 171.371C76.1581 170.793 76.5476 170.207 76.9184 169.613C77.293 170.003 77.6305 170.422 78.0421 170.785C78.2276 170.948 78.476 170.585 78.2498 170.388C77.7974 169.988 77.5711 169.665 77.1483 169.239C77.3783 168.857 77.6045 168.471 77.8196 168.085C78.0236 168.085 78.2238 168.078 78.4278 168.078V168.089ZM73.9775 168.156C73.8403 168.356 73.6993 168.56 73.5621 168.76C73.3581 168.56 73.1467 168.363 72.9205 168.171C73.2728 168.171 73.6252 168.159 73.9775 168.156ZM72.5942 171.241C72.9502 170.726 73.3099 170.214 73.666 169.702C74.022 170.147 74.4299 170.659 74.8453 171.171C74.4707 171.701 74.0999 172.228 73.729 172.762C73.3507 172.254 72.9724 171.749 72.5942 171.241ZM73.4471 173.166C73.08 173.689 72.7128 174.212 72.3346 174.731C71.9489 174.238 71.5706 173.745 71.2034 173.24C71.578 172.699 71.9563 172.161 72.3309 171.62C72.7017 172.135 73.0763 172.651 73.4471 173.166ZM71.3073 168.156C71.6967 168.163 72.0861 168.167 72.4792 168.171C72.4755 168.185 72.787 168.59 73.2654 169.19C72.9131 169.702 72.5608 170.214 72.2085 170.73C71.7968 170.184 71.3814 169.635 70.9587 169.09C71.0885 168.816 71.2108 168.534 71.3147 168.245C71.3258 168.211 71.3221 168.182 71.311 168.156H71.3073ZM70.9327 168.145C70.9327 168.145 70.9179 168.159 70.9142 168.167C70.8363 168.356 70.7473 168.538 70.6583 168.716C70.5025 168.515 70.343 168.315 70.1836 168.115C70.432 168.126 70.6805 168.133 70.9327 168.141V168.145ZM69.4418 170.692C68.8633 169.791 68.3218 168.871 67.8286 167.933C68.4553 168.007 69.0858 168.056 69.7126 168.093C69.7126 168.111 69.7237 168.137 69.7422 168.159C69.9833 168.467 70.2206 168.779 70.458 169.09C70.1502 169.643 69.8016 170.17 69.4381 170.692H69.4418ZM69.7682 171.193C70.1205 170.633 70.4654 170.069 70.7621 169.487C71.1626 170.021 71.5595 170.563 71.9526 171.1C71.5817 171.646 71.2108 172.191 70.8437 172.74C70.4765 172.228 70.1168 171.716 69.7682 171.193ZM69.6458 175.451C70.0686 174.857 70.4877 174.264 70.903 173.67C70.9438 173.734 70.9883 173.797 71.0328 173.86C71.3369 174.319 71.6485 174.776 71.9674 175.224C71.5706 175.762 71.1626 176.292 70.7436 176.815C70.369 176.341 69.9907 175.87 69.6458 175.454V175.451ZM72.0156 178.451C71.7189 178.065 71.3926 177.642 71.0588 177.216C71.4927 176.737 71.9229 176.248 72.3494 175.755C72.6535 176.17 72.965 176.574 73.284 176.979C72.8463 177.461 72.4199 177.95 72.0156 178.451ZM72.7648 175.269C73.1616 174.798 73.5547 174.319 73.9367 173.837C74.263 174.29 74.5968 174.739 74.9269 175.187C74.5375 175.617 74.1407 176.044 73.7475 176.47C73.4212 176.07 73.0874 175.673 72.7685 175.265L72.7648 175.269ZM76.2768 176.982C75.9171 177.398 75.5536 177.806 75.1865 178.21C74.8305 177.783 74.4744 177.361 74.1184 176.934C74.5041 176.515 74.8935 176.092 75.2718 175.666C75.6019 176.107 75.9393 176.545 76.2768 176.982ZM76.5476 173.251C76.1507 173.782 75.7205 174.297 75.2718 174.802C74.9269 174.349 74.5857 173.897 74.2445 173.441C74.645 172.925 75.0344 172.398 75.4164 171.868C75.8207 172.365 76.2101 172.84 76.5513 173.251H76.5476ZM75.205 170.659C74.8268 170.17 74.4373 169.687 74.0034 169.22C74.2482 168.871 74.4893 168.523 74.7377 168.178C74.7452 168.167 74.7452 168.156 74.7526 168.145C74.9528 168.145 75.1531 168.145 75.3534 168.137C75.6834 168.456 76.0209 168.768 76.3584 169.083C75.9653 169.606 75.5833 170.129 75.2087 170.659H75.205ZM76.6106 168.749C76.3732 168.541 76.1359 168.334 75.8985 168.126C76.2991 168.119 76.7033 168.115 77.1076 168.108C76.9407 168.323 76.7738 168.534 76.6106 168.749Z" fill="#D38442"/>
<path d="M81.9373 152.583C80.2499 149.46 76.0295 148.448 72.7362 148.411C69.6989 148.378 66.0533 149.46 64.7367 152.412C63.3275 155.572 64.1582 159.088 65.8159 161.984C64.8554 163.138 63.9653 165.003 66.0088 165.556C67.0398 165.834 67.8705 165.207 68.5121 164.495C68.6122 164.384 68.6975 164.262 68.7903 164.143C69.0239 164.877 69.5839 165.433 70.6038 165.433C71.5013 165.433 71.9945 164.892 72.2875 164.187C72.8883 164.911 73.6968 165.4 74.7686 165.289C75.5845 165.204 76.0814 164.803 76.3707 164.254C77.2274 165.437 78.3919 166.223 80.1906 165.756C82.2748 165.211 81.4181 162.819 80.5726 161.376C83.0202 159.11 83.5172 155.502 81.941 152.583H81.9373Z" fill="#C0E6ED"/>
<path d="M81.5513 137.701C79.875 134.853 76.7152 133.551 73.4702 133.425C69.9952 133.292 66.6463 135.001 65.0034 138.017C63.379 140.995 63.6127 145.89 66.2013 148.334C64.5769 149.702 62.9637 151.991 65.3631 153.092C66.765 153.737 68.1149 152.525 69.0681 151.145C69.361 152.654 70.1324 154.112 71.6752 153.96C73.1401 153.815 73.8596 152.781 74.249 151.546C74.8461 152.491 75.7362 153.188 77.0045 153.151C77.8389 153.125 78.3136 152.766 78.5584 152.243C79.2334 152.951 80.0678 153.359 81.0395 153.044C83.7653 152.15 82.1372 149.001 80.6278 147.34C82.5749 144.596 83.3092 140.676 81.5587 137.698L81.5513 137.701Z" fill="#F9BE2B"/>
<path d="M70.4165 133.433C69.8713 134.071 69.2483 134.642 68.755 135.328C68.5881 135.561 68.08 135.432 68.2766 135.131C68.7365 134.438 69.3298 133.852 69.8453 133.203C70.0604 132.928 70.6798 133.117 70.4128 133.433H70.4165ZM73.8952 133.904C73.4687 133.555 72.9012 133.318 72.3857 133.132C72.2337 133.077 72.0446 133.084 71.9407 133.225C71.8443 133.355 71.9222 133.514 72.0557 133.574C72.5452 133.792 72.9717 134.137 73.4687 134.338C73.7468 134.449 74.2215 134.171 73.8952 133.904ZM73.9063 137.075C73.7097 136.411 73.2907 135.728 72.8308 135.209C72.5675 134.912 72.0408 135.139 72.3338 135.495C72.7677 136.018 72.9495 136.663 73.3389 137.208C73.4909 137.419 74.0101 137.434 73.9063 137.078V137.075ZM77.3034 133.737C77.1736 133.562 76.9362 133.555 76.7471 133.622C76.1426 133.837 75.6419 134.304 75.1635 134.712C74.7964 135.024 75.3934 135.357 75.7013 135.131C76.2019 134.768 76.736 134.467 77.2403 134.122C77.3664 134.033 77.3924 133.855 77.3034 133.737ZM78.8721 136.63C78.7683 136.199 78.3121 135.869 78.0266 135.55C77.8115 135.313 77.2144 135.472 77.4406 135.817C77.5519 135.984 77.6668 136.147 77.7818 136.311C77.9079 136.496 78.0043 136.696 78.1527 136.863C78.3752 137.108 78.9686 137.034 78.8684 136.626L78.8721 136.63ZM75.5195 138.858C76.0499 138.513 76.5839 138.165 77.0326 137.716C77.244 137.505 77.0438 137.015 76.7545 137.264C76.3169 137.638 75.8088 137.909 75.3044 138.183C74.9558 138.373 75.1561 139.096 75.5195 138.858ZM71.6292 137.972C71.1359 137.772 70.6909 137.497 70.2718 137.175C69.9974 136.963 69.4559 137.29 69.7934 137.549C70.2533 137.905 70.7465 138.209 71.288 138.428C71.4438 138.491 71.6477 138.473 71.7516 138.332C71.848 138.202 71.7738 138.028 71.6292 137.968V137.972ZM74.7704 141.106C74.5108 140.572 74.114 140.053 73.7023 139.589C73.465 139.322 72.968 139.608 73.2054 139.978C73.5836 140.568 73.8469 140.894 74.0398 141.262C74.2178 141.603 74.9521 141.477 74.7704 141.102V141.106ZM69.4893 140.575C69.2816 140.36 69.1667 140.082 69.0035 139.834C68.8069 139.541 68.1728 139.76 68.3953 140.112C68.551 140.36 68.6586 140.642 68.8588 140.865C68.9849 141.002 69.1852 141.046 69.3595 140.969C69.4967 140.906 69.6191 140.709 69.4893 140.575ZM79.7029 139.348C79.6064 139.708 79.5026 140.071 79.4878 140.442C79.4729 140.791 80.159 140.794 80.1664 140.442C80.1701 140.116 80.2554 139.8 80.3333 139.481C80.4186 139.133 79.7919 139.029 79.7066 139.344L79.7029 139.348ZM66.9452 137.256C66.5039 137.46 66.159 137.864 65.8252 138.202C65.5619 138.469 66.1553 138.747 66.3778 138.536C66.7004 138.232 67.0416 137.979 67.3865 137.705C67.724 137.438 67.2345 137.123 66.9452 137.256ZM67.012 135.688C66.6263 135.58 66.2331 135.521 65.8512 135.398C65.5841 135.313 65.332 135.669 65.6323 135.806C65.9995 135.977 66.4149 136.181 66.8191 136.24C67.2345 136.299 67.483 135.817 67.012 135.688ZM80.1961 135.532C80.0997 135.265 79.5582 135.346 79.6472 135.65C79.8067 136.21 79.8735 136.785 79.9513 137.364C80.0033 137.764 80.7301 137.705 80.6411 137.29C80.5188 136.696 80.4038 136.103 80.1961 135.532Z" fill="#995619"/>
<path d="M116.848 164.275C115.49 163.963 109.085 163.881 107.379 164.215C106.927 164.304 106.408 164.794 106.352 165.194C106.13 166.759 107.817 176.324 108.262 178.883C108.362 179.458 108.8 179.936 109.401 180.055C111.055 180.381 113.028 180.236 114.489 180.084C115.034 180.025 115.501 179.658 115.69 178.72C116.417 175.111 117.27 170.268 117.849 165.984C117.923 165.432 117.756 164.482 116.848 164.275Z" fill="#F7BA84"/>
<path d="M117.428 168.089C117.877 168.089 117.877 167.581 117.428 167.585C113.853 167.614 110.285 167.918 106.721 167.518C106.547 167.499 106.41 167.599 106.38 167.707C106.324 167.737 106.295 167.792 106.324 167.863C106.81 168.998 107.459 170.062 108.156 171.108C107.715 171.749 107.455 172.057 107.114 172.751C106.97 173.047 107.348 173.567 107.489 173.307C107.778 172.766 108.171 172.15 108.501 171.623C108.853 172.139 109.21 172.651 109.558 173.166C109.139 173.793 108.724 174.423 108.308 175.05C107.975 174.65 107.689 174.319 107.489 174.108C107.351 173.963 107.307 174.223 107.418 174.416C107.552 174.642 107.782 174.998 108.064 175.417C107.893 175.681 107.93 175.695 107.759 175.959C107.611 176.189 107.837 176.578 107.975 176.389C108.104 176.211 108.23 176.029 108.357 175.851C108.661 176.296 109.009 176.793 109.362 177.286C108.95 177.787 108.716 178.102 108.271 178.584C108.101 178.77 108.319 179.081 108.464 178.929C108.857 178.518 109.25 178.099 109.643 177.676C109.977 178.136 110.307 178.581 110.608 178.974C110.363 179.304 110.126 179.638 109.91 179.983C109.773 180.205 110.177 180.327 110.315 180.153C110.511 179.894 110.719 179.641 110.93 179.385C111.201 179.727 111.435 180.001 111.594 180.161C111.82 180.383 112.351 180.313 112.154 180.008C112.013 179.79 111.72 179.389 111.349 178.892C111.772 178.406 112.21 177.921 112.655 177.438C113.003 177.865 113.363 178.288 113.73 178.703C113.304 179.163 112.877 179.619 112.44 180.072C112.28 180.238 112.659 180.357 112.792 180.22C113.196 179.816 113.612 179.415 114.023 179.015C114.29 179.311 114.561 179.604 114.843 179.89C115.047 180.097 115.44 179.76 115.203 179.478C114.899 179.118 114.787 178.929 114.483 178.566C114.869 178.191 115.247 177.817 115.618 177.431C115.625 177.438 115.633 177.45 115.64 177.457C115.818 177.687 116.178 177.297 116 177.019C116.2 176.804 116.159 176.804 116.211 176.712C116.389 176.385 116.297 175.955 116.026 176.185C115.878 176.311 115.759 176.411 115.637 176.552C115.295 176.122 114.954 175.692 114.62 175.258C115.069 174.739 115.503 174.212 115.907 173.674C116.085 173.886 116.245 174.071 116.363 174.208C116.556 174.423 116.905 174.09 116.679 173.834C116.516 173.644 116.36 173.459 116.204 173.27C116.605 172.706 116.79 172.335 117.098 171.735C117.235 171.471 117.001 171.137 116.875 171.379C116.623 171.868 116.167 172.369 115.848 172.821C115.47 172.339 115.11 171.853 114.754 171.371C115.158 170.793 115.548 170.207 115.918 169.613C116.293 170.003 116.63 170.422 117.042 170.785C117.228 170.948 117.476 170.585 117.25 170.388C116.797 169.988 116.571 169.665 116.148 169.239C116.378 168.857 116.605 168.471 116.82 168.085C117.024 168.085 117.224 168.078 117.428 168.078V168.089ZM112.977 168.156C112.84 168.356 112.699 168.56 112.562 168.76C112.358 168.56 112.147 168.363 111.921 168.171C112.273 168.171 112.625 168.159 112.977 168.156ZM111.594 171.241C111.95 170.726 112.31 170.214 112.666 169.702C113.022 170.147 113.43 170.659 113.845 171.171C113.471 171.701 113.1 172.228 112.729 172.762C112.351 172.254 111.972 171.749 111.594 171.241ZM112.447 173.166C112.08 173.689 111.713 174.212 111.335 174.731C110.949 174.238 110.571 173.745 110.203 173.24C110.578 172.699 110.956 172.161 111.331 171.62C111.702 172.135 112.076 172.651 112.447 173.166ZM110.307 168.156C110.697 168.163 111.086 168.167 111.479 168.171C111.475 168.185 111.787 168.59 112.265 169.19C111.913 169.702 111.561 170.214 111.208 170.73C110.797 170.184 110.381 169.635 109.959 169.09C110.088 168.816 110.211 168.534 110.315 168.245C110.326 168.211 110.322 168.182 110.311 168.156H110.307ZM109.933 168.145C109.933 168.145 109.918 168.159 109.914 168.167C109.836 168.356 109.747 168.538 109.658 168.716C109.502 168.515 109.343 168.315 109.184 168.115C109.432 168.126 109.681 168.133 109.933 168.141V168.145ZM108.442 170.692C107.863 169.791 107.322 168.871 106.829 167.933C107.455 168.007 108.086 168.056 108.713 168.093C108.713 168.111 108.724 168.137 108.742 168.159C108.983 168.467 109.221 168.779 109.458 169.09C109.15 169.643 108.802 170.17 108.438 170.692H108.442ZM108.768 171.193C109.121 170.633 109.465 170.069 109.762 169.487C110.163 170.021 110.559 170.563 110.953 171.1C110.582 171.646 110.211 172.191 109.844 172.74C109.477 172.228 109.117 171.716 108.768 171.193ZM108.646 175.451C109.069 174.857 109.488 174.264 109.903 173.67C109.944 173.734 109.988 173.797 110.033 173.86C110.337 174.319 110.648 174.776 110.967 175.224C110.571 175.762 110.163 176.292 109.744 176.815C109.369 176.341 108.991 175.87 108.646 175.454V175.451ZM111.016 178.451C110.719 178.065 110.393 177.642 110.059 177.216C110.493 176.737 110.923 176.248 111.349 175.755C111.654 176.17 111.965 176.574 112.284 176.979C111.846 177.461 111.42 177.95 111.016 178.451ZM111.765 175.269C112.162 174.798 112.555 174.319 112.937 173.837C113.263 174.29 113.597 174.739 113.927 175.187C113.537 175.617 113.141 176.044 112.748 176.47C112.421 176.07 112.087 175.673 111.768 175.265L111.765 175.269ZM115.277 176.982C114.917 177.398 114.554 177.806 114.186 178.21C113.83 177.783 113.474 177.361 113.118 176.934C113.504 176.515 113.894 176.092 114.272 175.666C114.602 176.107 114.939 176.545 115.277 176.982ZM115.548 173.251C115.151 173.782 114.721 174.297 114.272 174.802C113.927 174.349 113.586 173.897 113.244 173.441C113.645 172.925 114.034 172.398 114.416 171.868C114.821 172.365 115.21 172.84 115.551 173.251H115.548ZM114.205 170.659C113.827 170.17 113.437 169.687 113.003 169.22C113.248 168.871 113.489 168.523 113.738 168.178C113.745 168.167 113.745 168.156 113.753 168.145C113.953 168.145 114.153 168.145 114.353 168.137C114.683 168.456 115.021 168.768 115.358 169.083C114.965 169.606 114.583 170.129 114.209 170.659H114.205ZM115.611 168.749C115.373 168.541 115.136 168.334 114.899 168.126C115.299 168.119 115.703 168.115 116.108 168.108C115.941 168.323 115.774 168.534 115.611 168.749Z" fill="#D38442"/>
<path d="M120.937 152.583C119.25 149.46 115.029 148.448 111.736 148.411C108.699 148.378 105.053 149.46 103.737 152.412C102.327 155.572 103.158 159.088 104.816 161.984C103.855 163.138 102.965 165.003 105.009 165.556C106.04 165.834 106.871 165.207 107.512 164.495C107.612 164.384 107.698 164.262 107.79 164.143C108.024 164.877 108.584 165.433 109.604 165.433C110.501 165.433 110.995 164.892 111.287 164.187C111.888 164.911 112.697 165.4 113.769 165.289C114.584 165.204 115.081 164.803 115.371 164.254C116.227 165.437 117.392 166.223 119.191 165.756C121.275 165.211 120.418 162.819 119.573 161.376C122.02 159.11 122.517 155.502 120.941 152.583H120.937Z" fill="#C0E6ED"/>
<path d="M120.551 137.701C118.875 134.853 115.715 133.551 112.47 133.425C108.995 133.292 105.646 135.001 104.003 138.017C102.379 140.995 102.613 145.89 105.201 148.334C103.577 149.702 101.964 151.991 104.363 153.092C105.765 153.737 107.115 152.525 108.068 151.145C108.361 152.654 109.132 154.112 110.675 153.96C112.14 153.815 112.86 152.781 113.249 151.546C113.846 152.491 114.736 153.188 116.005 153.151C116.839 153.125 117.314 152.766 117.558 152.243C118.233 152.951 119.068 153.359 120.039 153.044C122.765 152.15 121.137 149.001 119.628 147.34C121.575 144.596 122.309 140.676 120.559 137.698L120.551 137.701Z" fill="#F9BE2B"/>
<path d="M109.416 133.433C108.871 134.071 108.248 134.642 107.755 135.328C107.588 135.561 107.08 135.432 107.277 135.131C107.736 134.438 108.33 133.852 108.845 133.203C109.06 132.928 109.68 133.117 109.413 133.433H109.416ZM112.895 133.904C112.469 133.555 111.901 133.318 111.386 133.132C111.234 133.077 111.045 133.084 110.941 133.225C110.844 133.355 110.922 133.514 111.056 133.574C111.545 133.792 111.972 134.137 112.469 134.338C112.747 134.449 113.222 134.171 112.895 133.904ZM112.906 137.075C112.71 136.411 112.291 135.728 111.831 135.209C111.567 134.912 111.041 135.139 111.334 135.495C111.768 136.018 111.949 136.663 112.339 137.208C112.491 137.419 113.01 137.434 112.906 137.078V137.075ZM116.303 133.737C116.174 133.562 115.936 133.555 115.747 133.622C115.143 133.837 114.642 134.304 114.164 134.712C113.796 135.024 114.393 135.357 114.701 135.131C115.202 134.768 115.736 134.467 116.24 134.122C116.366 134.033 116.392 133.855 116.303 133.737ZM117.872 136.63C117.768 136.199 117.312 135.869 117.027 135.55C116.811 135.313 116.214 135.472 116.441 135.817C116.552 135.984 116.667 136.147 116.782 136.311C116.908 136.496 117.004 136.696 117.153 136.863C117.375 137.108 117.969 137.034 117.868 136.626L117.872 136.63ZM114.52 138.858C115.05 138.513 115.584 138.165 116.033 137.716C116.244 137.505 116.044 137.015 115.755 137.264C115.317 137.638 114.809 137.909 114.304 138.183C113.956 138.373 114.156 139.096 114.52 138.858ZM110.629 137.972C110.136 137.772 109.691 137.497 109.272 137.175C108.997 136.963 108.456 137.29 108.793 137.549C109.253 137.905 109.747 138.209 110.288 138.428C110.444 138.491 110.648 138.473 110.752 138.332C110.848 138.202 110.774 138.028 110.629 137.968V137.972ZM113.77 141.106C113.511 140.572 113.114 140.053 112.702 139.589C112.465 139.322 111.968 139.608 112.205 139.978C112.584 140.568 112.847 140.894 113.04 141.262C113.218 141.603 113.952 141.477 113.77 141.102V141.106ZM108.489 140.575C108.282 140.36 108.167 140.082 108.003 139.834C107.807 139.541 107.173 139.76 107.395 140.112C107.551 140.36 107.659 140.642 107.859 140.865C107.985 141.002 108.185 141.046 108.36 140.969C108.497 140.906 108.619 140.709 108.489 140.575ZM118.703 139.348C118.606 139.708 118.503 140.071 118.488 140.442C118.473 140.791 119.159 140.794 119.166 140.442C119.17 140.116 119.255 139.8 119.333 139.481C119.419 139.133 118.792 139.029 118.707 139.344L118.703 139.348ZM105.945 137.256C105.504 137.46 105.159 137.864 104.825 138.202C104.562 138.469 105.155 138.747 105.378 138.536C105.7 138.232 106.042 137.979 106.387 137.705C106.724 137.438 106.234 137.123 105.945 137.256ZM106.012 135.688C105.626 135.58 105.233 135.521 104.851 135.398C104.584 135.313 104.332 135.669 104.632 135.806C105 135.977 105.415 136.181 105.819 136.24C106.234 136.299 106.483 135.817 106.012 135.688ZM119.196 135.532C119.1 135.265 118.558 135.346 118.647 135.65C118.807 136.21 118.873 136.785 118.951 137.364C119.003 137.764 119.73 137.705 119.641 137.29C119.519 136.696 119.404 136.103 119.196 135.532Z" fill="#995619"/>
<path d="M44.324 96.3657C44.3054 96.0505 44.0458 95.8762 43.7565 95.8354C43.7046 95.7686 43.623 95.7167 43.5118 95.687C42.2063 95.3532 40.7526 95.4534 39.3989 95.3978C37.7894 95.3347 36.1798 95.2457 34.5703 95.1827C31.8148 95.0788 28.4622 94.7487 25.7994 95.7501C25.3507 95.9207 25.347 96.247 25.5324 96.5029C25.499 96.5363 25.4768 96.5734 25.4693 96.6216C25.0985 98.8839 25.1467 102.24 26.9639 103.868C27.6092 104.447 28.3954 104.844 29.2447 105.125C29.8047 110.039 32.2005 123.554 34.8484 122.905C37.3888 122.282 39.5584 110.648 40.3261 105.266C40.8601 105.07 41.3682 104.825 41.8392 104.514C44.5947 102.685 44.4909 99.2621 44.324 96.362V96.3657Z" fill="#F7BA84"/>
<path d="M43.4951 91.021C45.5015 87.8872 45.8056 83.7039 43.6323 80.5293C41.5629 77.4994 37.4093 76.4276 33.9417 76.8318C30.0662 77.2843 26.9843 79.324 25.2858 82.8435C24.4662 84.5458 23.921 86.7709 24.303 88.6586C24.5181 89.7193 25.0596 91.11 26.0164 91.7739C23.8876 92.7492 23.0792 95.4046 25.4119 96.9697C26.7433 97.8634 30.5446 98.6979 35.0766 98.442C39.0893 98.212 42.7015 98.3381 44.8859 95.9127C46.4694 94.1511 45.279 91.8888 43.4914 91.021H43.4951Z" fill="#ACE5CA"/>
<path d="M41.6246 86.0329C41.7803 84.9315 41.3613 82.7879 42.1141 83.0809C42.37 83.2811 42.6074 83.5148 42.8521 83.7299C43.4307 84.2268 44.28 84.6051 45.0847 84.5643C44.9438 83.1476 44.4765 81.7606 43.6347 80.5293C41.5652 77.4994 37.4116 76.4276 33.944 76.8318C30.0685 77.2843 26.9866 79.324 25.2881 82.8435C25.0619 83.3145 24.8542 83.83 24.6836 84.364C24.8913 84.3307 25.1064 84.2713 25.3215 84.1823C26.1633 83.83 26.8902 83.1699 27.5726 82.5839C28.0696 82.1537 28.5072 81.5566 28.9114 82.3614C29.4084 83.3405 29.4418 85.3765 30.6322 85.8549C32.3271 86.541 33.4471 84.657 33.9144 83.3293C34.1035 82.7879 34.5893 81.4899 35.1938 82.7731C35.4979 83.4146 35.4942 84.2157 35.5647 84.9092C35.6908 86.1479 36.0134 87.2642 36.7997 88.2507C38.602 90.5167 41.3205 88.1505 41.6246 86.0329Z" fill="#D2F9E5"/>
<path d="M39.9821 104.832C38.1723 105.228 36.3366 105.214 34.4897 105.332C33.6515 105.388 30.8664 105.151 29.4052 104.947C29.242 104.924 29.0899 105.076 29.1863 105.251C29.5535 105.9 30.6958 106.207 31.8936 106.348C32.0234 106.604 32.157 106.86 32.2942 107.116C31.7008 107.761 31.1074 108.41 30.5437 109.078C30.3286 108.737 30.1135 108.392 29.8947 108.047C29.7723 107.85 29.5127 108.077 29.6351 108.329C29.8613 108.8 29.865 109.148 30.1098 109.612C29.9689 109.786 30.0875 109.753 29.9503 109.931C29.7538 110.187 29.9874 110.565 30.1543 110.354C30.2248 110.265 30.3026 110.179 30.3731 110.094C30.8181 110.91 31.2854 111.718 31.7824 112.512C31.3707 112.931 31.1408 113.213 30.7217 113.628C30.4881 113.862 30.7514 114.159 30.9517 113.973C31.3411 113.606 31.6822 113.328 32.0717 112.957C32.6799 113.899 33.3215 114.819 33.989 115.713C33.5848 116.135 33.1917 116.569 32.8282 117.029C32.335 116.358 31.8417 115.683 31.3373 115.015C31.2075 114.841 30.9294 115.001 31.0036 115.26C31.2669 116.184 31.634 116.974 32.246 117.808C32.1347 117.971 32.0234 118.134 31.9196 118.305C31.7898 118.513 32.1532 118.639 32.2719 118.468C32.3498 118.361 32.4277 118.257 32.5056 118.153C33.0804 118.895 33.7331 119.603 34.371 120.274C33.9853 120.649 33.5959 121.02 33.2176 121.398C32.8987 121.717 33.3771 121.921 33.6441 121.658C34.0001 121.305 34.371 120.983 34.7456 120.664C35.109 121.042 35.4613 121.409 35.7914 121.765C35.9657 121.958 36.4627 121.802 36.255 121.55C35.9064 121.12 35.5689 120.686 35.2314 120.248C35.5986 119.933 35.962 119.61 36.3069 119.258C36.4144 119.147 36.5183 119.039 36.6184 118.935C36.6815 119.006 36.7408 119.08 36.8039 119.151C37.0635 119.436 37.6123 119.036 37.1043 118.401C37.4047 118.045 37.6643 117.671 37.8868 117.189C38.0314 116.87 37.9313 116.673 37.7718 116.844C37.438 117.211 37.0783 117.578 36.7111 117.942C36.0733 117.185 35.465 116.402 34.8828 115.613C35.4799 115.067 36.0955 114.537 36.7074 114.007C37.1228 114.552 37.5456 115.086 37.9795 115.601C38.1872 115.846 38.7323 115.687 38.5395 115.338C38.1798 114.685 37.7829 114.047 37.375 113.421C37.9795 112.883 38.5766 112.342 39.1366 111.756C39.3739 111.507 38.8399 111.259 38.6396 111.448C38.1167 111.93 37.5752 112.408 37.0338 112.887C36.4033 111.948 35.7358 111.032 35.0645 110.113C35.8211 109.386 36.5813 108.659 37.3342 107.932C37.846 108.87 38.38 109.797 39.0661 110.628C39.2998 110.914 39.7745 110.465 39.4963 110.139C38.7546 109.26 38.3911 108.459 37.8163 107.465C38.3874 106.908 38.9586 106.356 39.526 105.796C39.7559 105.729 39.9933 105.659 40.2417 105.577C40.8425 105.388 40.5459 104.702 39.9821 104.828V104.832ZM32.9209 106.441C32.8356 106.534 32.7466 106.63 32.6613 106.723C32.5909 106.619 32.5241 106.515 32.4574 106.408C32.6131 106.423 32.7689 106.43 32.9209 106.441ZM30.8404 109.553C31.4041 108.907 31.9975 108.288 32.602 107.683C33.0656 108.522 33.5514 109.356 34.0669 110.179C33.4958 110.765 32.9283 111.351 32.3572 111.934C31.8454 111.144 31.3411 110.35 30.8404 109.553ZM36.2031 118.461C35.988 118.676 35.7766 118.887 35.5726 119.099C35.3427 119.332 35.109 119.562 34.8754 119.792C34.2783 119.006 33.6923 118.212 33.1101 117.419C33.4921 116.977 33.9 116.562 34.3191 116.154C34.9273 116.948 35.5578 117.715 36.2031 118.461ZM36.3329 113.513C35.7284 114.051 35.1276 114.596 34.5527 115.16C33.9037 114.259 33.277 113.339 32.6687 112.408C33.2547 111.856 33.837 111.296 34.4192 110.739C35.0274 111.689 35.669 112.62 36.3329 113.517V113.513ZM34.6677 109.567C34.1114 108.804 33.5588 108.04 33.0285 107.264C33.3029 106.997 33.5848 106.734 33.8629 106.471C34.2634 106.474 34.6083 106.471 34.8531 106.471C35.4576 106.463 35.988 106.437 36.4886 106.393C36.6555 106.686 36.8187 106.983 36.9782 107.279C36.1994 108.032 35.428 108.796 34.6677 109.571V109.567ZM37.4417 106.831C37.3379 106.66 37.2341 106.486 37.1265 106.319C37.4751 106.274 37.8163 106.215 38.1612 106.141C37.9164 106.367 37.6791 106.601 37.438 106.831H37.4417Z" fill="#D38442"/>
<path d="M44.161 97.7467C43.3006 98.4032 41.8616 98.8111 40.6823 99.1041C38.9021 99.5454 37.0664 99.6604 35.2417 99.7049C32.4306 99.7753 28.1212 99.6122 25.7106 97.9285C25.54 97.8098 25.0467 97.9136 25.2952 98.1732C27.3869 100.38 32.8719 100.487 35.2417 100.487C37.3631 100.487 39.4807 100.272 41.513 99.653C42.6404 99.3081 43.9459 98.8334 44.5318 97.921C44.6468 97.743 44.2871 97.654 44.1647 97.7504L44.161 97.7467Z" fill="#D38442"/>
<path d="M31.8428 78.5496C31.5016 78.1157 31.2457 77.6224 30.9045 77.1848C30.7413 76.9771 31.1196 76.8251 31.2642 76.9549C31.6981 77.3406 32.1098 77.7708 32.4324 78.2603C32.6698 78.6163 32.0541 78.8166 31.8428 78.5459V78.5496ZM35.047 76.1761C34.6242 76.5506 34.2756 77.0328 33.9047 77.463C33.6934 77.7077 34.1718 77.9191 34.3535 77.7522C34.7726 77.3591 35.2436 76.9883 35.6107 76.5395C35.8703 76.2206 35.2769 75.9758 35.047 76.1761ZM38.5294 78.175C37.9731 78.4161 37.5058 78.8277 37.0682 79.2542C36.9199 79.3989 37.1424 79.5806 37.287 79.4916C37.7988 79.1838 38.344 78.9501 38.852 78.6349C39.2118 78.4087 38.8483 78.0415 38.5294 78.1787V78.175ZM38.3069 76.6916C37.8359 76.7806 37.402 77.029 37.0385 77.3554C36.8197 77.5557 37.1906 77.8746 37.402 77.7448C37.7766 77.5223 38.1326 77.2701 38.5183 77.0661C38.763 76.94 38.496 76.6508 38.3069 76.6879V76.6916ZM34.2014 80.5077C34.6391 80.059 35.0396 79.5695 35.4772 79.1207C35.7516 78.8389 35.2955 78.5718 35.0618 78.8018C34.6131 79.2431 34.2051 79.7252 33.7564 80.1665C33.4597 80.4595 33.953 80.7599 34.1977 80.5077H34.2014ZM30.1182 78.5644C29.625 78.3085 29.1243 78.0712 28.6088 77.8709C28.3937 77.7856 28.0674 78.0675 28.3418 78.2195C28.8202 78.4865 29.2578 78.8203 29.7622 79.0317C30.0552 79.1578 30.4854 78.7536 30.1182 78.5607V78.5644ZM41.003 77.1514C40.9326 76.9326 40.4727 76.9512 40.5061 77.2071C40.5766 77.7559 40.5283 78.2937 40.673 78.8351C40.7657 79.1726 41.3628 79.0614 41.3034 78.6905C41.2144 78.1713 41.1625 77.6558 41.003 77.1514ZM40.1204 80.8007C39.8682 80.6042 39.5826 80.4595 39.3675 80.211C39.2934 80.1258 39.1932 80.0887 39.082 80.1146C38.9856 80.1369 38.8483 80.2518 38.904 80.3742C39.056 80.6969 39.286 80.9231 39.4936 81.205C39.6197 81.3718 39.8571 81.4126 40.0388 81.3236C40.2391 81.2272 40.3132 80.9528 40.1204 80.8007ZM43.8624 79.5287C43.7252 79.4137 43.5435 79.4359 43.4025 79.5287C43.0428 79.766 42.709 80.059 42.4865 80.4484C42.3233 80.734 42.7758 80.8786 42.939 80.6672C43.1874 80.3446 43.5435 80.148 43.8624 79.9107C43.9922 79.8142 43.9811 79.6251 43.8624 79.5287ZM32.2062 82.4028C32.0875 82.0542 31.8094 81.8132 31.5572 81.5684C31.3569 81.3718 30.8229 81.6277 31.0565 81.8873C31.2605 82.1136 31.4608 82.3509 31.6388 82.6031C31.7908 82.8219 32.3175 82.7292 32.2062 82.4028ZM27.1143 80.6672C26.621 80.8267 26.2687 81.1567 25.8756 81.4905C25.6531 81.6759 25.9794 81.9244 26.1723 81.8132C26.558 81.5906 26.9437 81.3162 27.3553 81.1419C27.6891 80.9973 27.4072 80.5782 27.118 80.6709L27.1143 80.6672ZM39.9869 83.9345C39.6049 83.7305 39.2007 83.5636 38.8632 83.2818C38.7074 83.152 38.2958 83.3077 38.4775 83.5303C38.8187 83.9456 39.2378 84.272 39.7607 84.3795C40.0351 84.4352 40.2984 84.1014 39.9869 83.9345Z" fill="#995619"/>
<path d="M83.1638 96.3657C83.1453 96.0505 82.8857 95.8762 82.5964 95.8354C82.5445 95.7686 82.4629 95.7167 82.3516 95.687C81.0462 95.3532 79.5924 95.4534 78.2388 95.3978C76.6292 95.3347 75.0197 95.2457 73.4101 95.1827C70.6546 95.0788 67.302 94.7487 64.6392 95.7501C64.1905 95.9207 64.1868 96.247 64.3722 96.5029C64.3388 96.5363 64.3166 96.5734 64.3092 96.6216C63.9383 98.8839 63.9865 102.24 65.8038 103.868C66.4491 104.447 67.2353 104.844 68.0846 105.125C68.6446 110.039 71.0403 123.554 73.6883 122.905C76.2287 122.282 78.3982 110.648 79.1659 105.266C79.7 105.07 80.208 104.825 80.679 104.514C83.4345 102.685 83.3307 99.2621 83.1638 96.362V96.3657Z" fill="#F7BA84"/>
<path d="M82.335 91.021C84.3413 87.8872 84.6454 83.7039 82.4722 80.5293C80.4028 77.4994 76.2491 76.4276 72.7816 76.8318C68.9061 77.2843 65.8242 79.324 64.1256 82.8435C63.306 84.5458 62.7609 86.7709 63.1429 88.6586C63.358 89.7193 63.8994 91.11 64.8562 91.7739C62.7275 92.7492 61.919 95.4046 64.2517 96.9697C65.5831 97.8634 69.3845 98.6979 73.9164 98.442C77.9291 98.212 81.5413 98.3381 83.7257 95.9127C85.3093 94.1511 84.1188 91.8888 82.3313 91.021H82.335Z" fill="#ACE5CA"/>
<path d="M80.4644 86.0329C80.6202 84.9315 80.2011 82.7879 80.954 83.0809C81.2099 83.2811 81.4472 83.5148 81.692 83.7299C82.2705 84.2268 83.1198 84.6051 83.9246 84.5643C83.7836 83.1476 83.3164 81.7606 82.4745 80.5293C80.4051 77.4994 76.2514 76.4276 72.7839 76.8318C68.9084 77.2843 65.8265 79.324 64.1279 82.8435C63.9017 83.3145 63.694 83.83 63.5234 84.364C63.7311 84.3307 63.9462 84.2713 64.1613 84.1823C65.0032 83.83 65.7301 83.1699 66.4125 82.5839C66.9094 82.1537 67.347 81.5566 67.7513 82.3614C68.2482 83.3405 68.2816 85.3765 69.4721 85.8549C71.1669 86.541 72.2869 84.657 72.7542 83.3293C72.9433 82.7879 73.4292 81.4899 74.0337 82.7731C74.3378 83.4146 74.3341 84.2157 74.4045 84.9092C74.5306 86.1479 74.8533 87.2642 75.6395 88.2507C77.4419 90.5167 80.1603 88.1505 80.4644 86.0329Z" fill="#D2F9E5"/>
<path d="M78.822 104.832C77.0122 105.228 75.1764 105.214 73.3295 105.332C72.4914 105.388 69.7062 105.151 68.245 104.947C68.0818 104.924 67.9298 105.076 68.0262 105.251C68.3933 105.9 69.5356 106.207 70.7335 106.348C70.8633 106.604 70.9968 106.86 71.134 107.116C70.5406 107.761 69.9473 108.41 69.3835 109.078C69.1684 108.737 68.9533 108.392 68.7345 108.047C68.6122 107.85 68.3526 108.077 68.4749 108.329C68.7012 108.8 68.7049 109.148 68.9496 109.612C68.8087 109.786 68.9274 109.753 68.7902 109.931C68.5936 110.187 68.8273 110.565 68.9941 110.354C69.0646 110.265 69.1425 110.179 69.2129 110.094C69.658 110.91 70.1253 111.718 70.6222 112.512C70.2106 112.931 69.9806 113.213 69.5616 113.628C69.3279 113.862 69.5912 114.159 69.7915 113.973C70.1809 113.606 70.5221 113.328 70.9115 112.957C71.5197 113.899 72.1613 114.819 72.8289 115.713C72.4246 116.135 72.0315 116.569 71.6681 117.029C71.1748 116.358 70.6816 115.683 70.1772 115.015C70.0474 114.841 69.7692 115.001 69.8434 115.26C70.1067 116.184 70.4739 116.974 71.0858 117.808C70.9745 117.971 70.8633 118.134 70.7594 118.305C70.6296 118.513 70.9931 118.639 71.1118 118.468C71.1896 118.361 71.2675 118.257 71.3454 118.153C71.9202 118.895 72.573 119.603 73.2108 120.274C72.8251 120.649 72.4357 121.02 72.0575 121.398C71.7385 121.717 72.2169 121.921 72.484 121.658C72.84 121.305 73.2108 120.983 73.5854 120.664C73.9489 121.042 74.3012 121.409 74.6312 121.765C74.8055 121.958 75.3025 121.802 75.0948 121.55C74.7462 121.12 74.4087 120.686 74.0712 120.248C74.4384 119.933 74.8018 119.61 75.1467 119.258C75.2543 119.147 75.3581 119.039 75.4583 118.935C75.5213 119.006 75.5807 119.08 75.6437 119.151C75.9033 119.436 76.4522 119.036 75.9441 118.401C76.2445 118.045 76.5041 117.671 76.7266 117.189C76.8713 116.87 76.7711 116.673 76.6117 116.844C76.2779 117.211 75.9181 117.578 75.551 117.942C74.9131 117.185 74.3049 116.402 73.7226 115.613C74.3197 115.067 74.9354 114.537 75.5473 114.007C75.9626 114.552 76.3854 115.086 76.8193 115.601C77.027 115.846 77.5722 115.687 77.3793 115.338C77.0196 114.685 76.6228 114.047 76.2148 113.421C76.8193 112.883 77.4164 112.342 77.9764 111.756C78.2138 111.507 77.6797 111.259 77.4795 111.448C76.9566 111.93 76.4151 112.408 75.8736 112.887C75.2432 111.948 74.5756 111.032 73.9044 110.113C74.6609 109.386 75.4212 108.659 76.174 107.932C76.6858 108.87 77.2199 109.797 77.906 110.628C78.1396 110.914 78.6143 110.465 78.3362 110.139C77.5944 109.26 77.231 108.459 76.6562 107.465C77.2273 106.908 77.7984 106.356 78.3658 105.796C78.5958 105.729 78.8331 105.659 79.0816 105.577C79.6824 105.388 79.3857 104.702 78.822 104.828V104.832ZM71.7608 106.441C71.6755 106.534 71.5865 106.63 71.5012 106.723C71.4307 106.619 71.364 106.515 71.2972 106.408C71.453 106.423 71.6087 106.43 71.7608 106.441ZM69.6802 109.553C70.2439 108.907 70.8373 108.288 71.4418 107.683C71.9054 108.522 72.3912 109.356 72.9067 110.179C72.3356 110.765 71.7682 111.351 71.1971 111.934C70.6853 111.144 70.1809 110.35 69.6802 109.553ZM75.0429 118.461C74.8278 118.676 74.6164 118.887 74.4124 119.099C74.1825 119.332 73.9489 119.562 73.7152 119.792C73.1181 119.006 72.5322 118.212 71.9499 117.419C72.3319 116.977 72.7398 116.562 73.1589 116.154C73.7671 116.948 74.3976 117.715 75.0429 118.461ZM75.1727 113.513C74.5682 114.051 73.9674 114.596 73.3926 115.16C72.7436 114.259 72.1168 113.339 71.5086 112.408C72.0945 111.856 72.6768 111.296 73.2591 110.739C73.8673 111.689 74.5089 112.62 75.1727 113.517V113.513ZM73.5075 109.567C72.9512 108.804 72.3987 108.04 71.8683 107.264C72.1428 106.997 72.4246 106.734 72.7028 106.471C73.1033 106.474 73.4482 106.471 73.693 106.471C74.2975 106.463 74.8278 106.437 75.3285 106.393C75.4954 106.686 75.6585 106.983 75.818 107.279C75.0392 108.032 74.2678 108.796 73.5075 109.571V109.567ZM76.2816 106.831C76.1777 106.66 76.0739 106.486 75.9663 106.319C76.315 106.274 76.6562 106.215 77.0011 106.141C76.7563 106.367 76.5189 106.601 76.2779 106.831H76.2816Z" fill="#D38442"/>
<path d="M82.9969 97.7467C82.1365 98.4032 80.6976 98.8111 79.5182 99.1041C77.7381 99.5454 75.9023 99.6604 74.0777 99.7049C71.2665 99.7753 66.9571 99.6122 64.5465 97.9285C64.3759 97.8098 63.8827 97.9136 64.1311 98.1732C66.2228 100.38 71.7079 100.487 74.0777 100.487C76.199 100.487 78.3166 100.272 80.3489 99.653C81.4764 99.3081 82.7818 98.8334 83.3678 97.921C83.4827 97.743 83.123 97.654 83.0006 97.7504L82.9969 97.7467Z" fill="#D38442"/>
<path d="M70.6826 78.5496C70.3414 78.1157 70.0855 77.6224 69.7443 77.1848C69.5811 76.9771 69.9594 76.8251 70.1041 76.9549C70.538 77.3406 70.9496 77.7708 71.2723 78.2603C71.5096 78.6163 70.894 78.8166 70.6826 78.5459V78.5496ZM73.8868 76.1761C73.4641 76.5506 73.1155 77.0328 72.7446 77.463C72.5332 77.7077 73.0116 77.9191 73.1933 77.7522C73.6124 77.3591 74.0834 76.9883 74.4506 76.5395C74.7102 76.2206 74.1168 75.9758 73.8868 76.1761ZM77.3692 78.175C76.813 78.4161 76.3457 78.8277 75.908 79.2542C75.7597 79.3989 75.9822 79.5806 76.1269 79.4916C76.6386 79.1838 77.1838 78.9501 77.6919 78.6349C78.0516 78.4087 77.6882 78.0415 77.3692 78.1787V78.175ZM77.1467 76.6916C76.6757 76.7806 76.2418 77.029 75.8784 77.3554C75.6596 77.5557 76.0304 77.8746 76.2418 77.7448C76.6164 77.5223 76.9724 77.2701 77.3581 77.0661C77.6029 76.94 77.3359 76.6508 77.1467 76.6879V76.6916ZM73.0413 80.5077C73.4789 80.059 73.8794 79.5695 74.317 79.1207C74.5915 78.8389 74.1353 78.5718 73.9017 78.8018C73.4529 79.2431 73.045 79.7252 72.5963 80.1665C72.2996 80.4595 72.7928 80.7599 73.0376 80.5077H73.0413ZM68.9581 78.5644C68.4648 78.3085 67.9642 78.0712 67.4487 77.8709C67.2336 77.7856 66.9072 78.0675 67.1817 78.2195C67.6601 78.4865 68.0977 78.8203 68.6021 79.0317C68.895 79.1578 69.3252 78.7536 68.9581 78.5607V78.5644ZM79.8429 77.1514C79.7724 76.9326 79.3126 76.9512 79.3459 77.2071C79.4164 77.7559 79.3682 78.2937 79.5128 78.8351C79.6055 79.1726 80.2026 79.0614 80.1433 78.6905C80.0543 78.1713 80.0024 77.6558 79.8429 77.1514ZM78.9602 80.8007C78.7081 80.6042 78.4225 80.4595 78.2074 80.211C78.1332 80.1258 78.0331 80.0887 77.9218 80.1146C77.8254 80.1369 77.6882 80.2518 77.7438 80.3742C77.8959 80.6969 78.1258 80.9231 78.3335 81.205C78.4596 81.3718 78.6969 81.4126 78.8787 81.3236C79.0789 81.2272 79.1531 80.9528 78.9602 80.8007ZM82.7022 79.5287C82.565 79.4137 82.3833 79.4359 82.2424 79.5287C81.8826 79.766 81.5489 80.059 81.3263 80.4484C81.1632 80.734 81.6156 80.8786 81.7788 80.6672C82.0273 80.3446 82.3833 80.148 82.7022 79.9107C82.832 79.8142 82.8209 79.6251 82.7022 79.5287ZM71.046 82.4028C70.9274 82.0542 70.6492 81.8132 70.397 81.5684C70.1968 81.3718 69.6627 81.6277 69.8964 81.8873C70.1003 82.1136 70.3006 82.3509 70.4786 82.6031C70.6307 82.8219 71.1573 82.7292 71.046 82.4028ZM65.9541 80.6672C65.4609 80.8267 65.1085 81.1567 64.7154 81.4905C64.4929 81.6759 64.8193 81.9244 65.0121 81.8132C65.3978 81.5906 65.7835 81.3162 66.1952 81.1419C66.5289 80.9973 66.2471 80.5782 65.9578 80.6709L65.9541 80.6672ZM78.8267 83.9345C78.4447 83.7305 78.0405 83.5636 77.703 83.2818C77.5473 83.152 77.1356 83.3077 77.3173 83.5303C77.6585 83.9456 78.0776 84.272 78.6005 84.3795C78.8749 84.4352 79.1383 84.1014 78.8267 83.9345Z" fill="#995619"/>
<path d="M122.004 96.3657C121.985 96.0505 121.726 95.8762 121.436 95.8354C121.384 95.7686 121.303 95.7167 121.191 95.687C119.886 95.3532 118.432 95.4534 117.079 95.3978C115.469 95.3347 113.86 95.2457 112.25 95.1827C109.494 95.0788 106.142 94.7487 103.479 95.7501C103.03 95.9207 103.027 96.247 103.212 96.5029C103.179 96.5363 103.156 96.5734 103.149 96.6216C102.778 98.8839 102.826 102.24 104.644 103.868C105.289 104.447 106.075 104.844 106.924 105.125C107.484 110.039 109.88 123.554 112.528 122.905C115.069 122.282 117.238 110.648 118.006 105.266C118.54 105.07 119.048 104.825 119.519 104.514C122.274 102.685 122.171 99.2621 122.004 96.362V96.3657Z" fill="#F7BA84"/>
<path d="M121.175 91.021C123.181 87.8872 123.485 83.7039 121.312 80.5293C119.243 77.4994 115.089 76.4276 111.621 76.8318C107.746 77.2843 104.664 79.324 102.965 82.8435C102.146 84.5458 101.601 86.7709 101.983 88.6586C102.198 89.7193 102.739 91.11 103.696 91.7739C101.567 92.7492 100.759 95.4046 103.092 96.9697C104.423 97.8634 108.224 98.6979 112.756 98.442C116.769 98.212 120.381 98.3381 122.566 95.9127C124.149 94.1511 122.959 91.8888 121.171 91.021H121.175Z" fill="#ACE5CA"/>
<path d="M119.304 86.0329C119.46 84.9315 119.041 82.7879 119.794 83.0809C120.05 83.2811 120.287 83.5148 120.532 83.7299C121.11 84.2268 121.96 84.6051 122.764 84.5643C122.623 83.1476 122.156 81.7606 121.314 80.5293C119.245 77.4994 115.091 76.4276 111.624 76.8318C107.748 77.2843 104.666 79.324 102.968 82.8435C102.742 83.3145 102.534 83.83 102.363 84.364C102.571 84.3307 102.786 84.2713 103.001 84.1823C103.843 83.83 104.57 83.1699 105.252 82.5839C105.749 82.1537 106.187 81.5566 106.591 82.3614C107.088 83.3405 107.121 85.3765 108.312 85.8549C110.007 86.541 111.127 84.657 111.594 83.3293C111.783 82.7879 112.269 81.4899 112.874 82.7731C113.178 83.4146 113.174 84.2157 113.244 84.9092C113.37 86.1479 113.693 87.2642 114.479 88.2507C116.282 90.5167 119 88.1505 119.304 86.0329Z" fill="#D2F9E5"/>
<path d="M117.662 104.832C115.852 105.228 114.016 105.214 112.169 105.332C111.331 105.388 108.546 105.151 107.085 104.947C106.922 104.924 106.77 105.076 106.866 105.251C107.233 105.9 108.375 106.207 109.573 106.348C109.703 106.604 109.837 106.86 109.974 107.116C109.38 107.761 108.787 108.41 108.223 109.078C108.008 108.737 107.793 108.392 107.574 108.047C107.452 107.85 107.192 108.077 107.315 108.329C107.541 108.8 107.545 109.148 107.789 109.612C107.649 109.786 107.767 109.753 107.63 109.931C107.433 110.187 107.667 110.565 107.834 110.354C107.904 110.265 107.982 110.179 108.053 110.094C108.498 110.91 108.965 111.718 109.462 112.512C109.05 112.931 108.82 113.213 108.401 113.628C108.168 113.862 108.431 114.159 108.631 113.973C109.021 113.606 109.362 113.328 109.751 112.957C110.36 113.899 111.001 114.819 111.669 115.713C111.264 116.135 110.871 116.569 110.508 117.029C110.015 116.358 109.521 115.683 109.017 115.015C108.887 114.841 108.609 115.001 108.683 115.26C108.947 116.184 109.314 116.974 109.926 117.808C109.814 117.971 109.703 118.134 109.599 118.305C109.469 118.513 109.833 118.639 109.952 118.468C110.029 118.361 110.107 118.257 110.185 118.153C110.76 118.895 111.413 119.603 112.051 120.274C111.665 120.649 111.276 121.02 110.897 121.398C110.578 121.717 111.057 121.921 111.324 121.658C111.68 121.305 112.051 120.983 112.425 120.664C112.789 121.042 113.141 121.409 113.471 121.765C113.645 121.958 114.142 121.802 113.935 121.55C113.586 121.12 113.249 120.686 112.911 120.248C113.278 119.933 113.642 119.61 113.987 119.258C114.094 119.147 114.198 119.039 114.298 118.935C114.361 119.006 114.42 119.08 114.484 119.151C114.743 119.436 115.292 119.036 114.784 118.401C115.084 118.045 115.344 117.671 115.566 117.189C115.711 116.87 115.611 116.673 115.451 116.844C115.118 117.211 114.758 117.578 114.391 117.942C113.753 117.185 113.145 116.402 112.562 115.613C113.16 115.067 113.775 114.537 114.387 114.007C114.802 114.552 115.225 115.086 115.659 115.601C115.867 115.846 116.412 115.687 116.219 115.338C115.859 114.685 115.463 114.047 115.055 113.421C115.659 112.883 116.256 112.342 116.816 111.756C117.054 111.507 116.52 111.259 116.319 111.448C115.796 111.93 115.255 112.408 114.713 112.887C114.083 111.948 113.415 111.032 112.744 110.113C113.501 109.386 114.261 108.659 115.014 107.932C115.526 108.87 116.06 109.797 116.746 110.628C116.979 110.914 117.454 110.465 117.176 110.139C116.434 109.26 116.071 108.459 115.496 107.465C116.067 106.908 116.638 106.356 117.206 105.796C117.436 105.729 117.673 105.659 117.921 105.577C118.522 105.388 118.226 104.702 117.662 104.828V104.832ZM110.601 106.441C110.515 106.534 110.426 106.63 110.341 106.723C110.271 106.619 110.204 106.515 110.137 106.408C110.293 106.423 110.449 106.43 110.601 106.441ZM108.52 109.553C109.084 108.907 109.677 108.288 110.282 107.683C110.745 108.522 111.231 109.356 111.747 110.179C111.175 110.765 110.608 111.351 110.037 111.934C109.525 111.144 109.021 110.35 108.52 109.553ZM113.883 118.461C113.668 118.676 113.456 118.887 113.252 119.099C113.022 119.332 112.789 119.562 112.555 119.792C111.958 119.006 111.372 118.212 110.79 117.419C111.172 116.977 111.58 116.562 111.999 116.154C112.607 116.948 113.237 117.715 113.883 118.461ZM114.013 113.513C113.408 114.051 112.807 114.596 112.232 115.16C111.583 114.259 110.957 113.339 110.348 112.408C110.934 111.856 111.517 111.296 112.099 110.739C112.707 111.689 113.349 112.62 114.013 113.517V113.513ZM112.347 109.567C111.791 108.804 111.238 108.04 110.708 107.264C110.983 106.997 111.264 106.734 111.543 106.471C111.943 106.474 112.288 106.471 112.533 106.471C113.137 106.463 113.668 106.437 114.168 106.393C114.335 106.686 114.498 106.983 114.658 107.279C113.879 108.032 113.108 108.796 112.347 109.571V109.567ZM115.121 106.831C115.018 106.66 114.914 106.486 114.806 106.319C115.155 106.274 115.496 106.215 115.841 106.141C115.596 106.367 115.359 106.601 115.118 106.831H115.121Z" fill="#D38442"/>
<path d="M121.841 97.7467C120.98 98.4032 119.541 98.8111 118.362 99.1041C116.582 99.5454 114.746 99.6604 112.921 99.7049C110.11 99.7753 105.801 99.6122 103.39 97.9285C103.22 97.8098 102.726 97.9136 102.975 98.1732C105.067 100.38 110.552 100.487 112.921 100.487C115.043 100.487 117.16 100.272 119.193 99.653C120.32 99.3081 121.626 98.8334 122.212 97.921C122.326 97.743 121.967 97.654 121.844 97.7504L121.841 97.7467Z" fill="#D38442"/>
<path d="M109.522 78.5496C109.181 78.1157 108.925 77.6224 108.584 77.1848C108.421 76.9771 108.799 76.8251 108.944 76.9549C109.378 77.3406 109.789 77.7708 110.112 78.2603C110.349 78.6163 109.734 78.8166 109.522 78.5459V78.5496ZM112.727 76.1761C112.304 76.5506 111.955 77.0328 111.584 77.463C111.373 77.7077 111.851 77.9191 112.033 77.7522C112.452 77.3591 112.923 76.9883 113.29 76.5395C113.55 76.2206 112.957 75.9758 112.727 76.1761ZM116.209 78.175C115.653 78.4161 115.186 78.8277 114.748 79.2542C114.6 79.3989 114.822 79.5806 114.967 79.4916C115.478 79.1838 116.024 78.9501 116.532 78.6349C116.891 78.4087 116.528 78.0415 116.209 78.1787V78.175ZM115.987 76.6916C115.516 76.7806 115.082 77.029 114.718 77.3554C114.499 77.5557 114.87 77.8746 115.082 77.7448C115.456 77.5223 115.812 77.2701 116.198 77.0661C116.443 76.94 116.176 76.6508 115.987 76.6879V76.6916ZM111.881 80.5077C112.319 80.059 112.719 79.5695 113.157 79.1207C113.431 78.8389 112.975 78.5718 112.742 78.8018C112.293 79.2431 111.885 79.7252 111.436 80.1665C111.139 80.4595 111.633 80.7599 111.877 80.5077H111.881ZM107.798 78.5644C107.305 78.3085 106.804 78.0712 106.289 77.8709C106.073 77.7856 105.747 78.0675 106.022 78.2195C106.5 78.4865 106.938 78.8203 107.442 79.0317C107.735 79.1578 108.165 78.7536 107.798 78.5607V78.5644ZM118.683 77.1514C118.612 76.9326 118.152 76.9512 118.186 77.2071C118.256 77.7559 118.208 78.2937 118.353 78.8351C118.445 79.1726 119.042 79.0614 118.983 78.6905C118.894 78.1713 118.842 77.6558 118.683 77.1514ZM117.8 80.8007C117.548 80.6042 117.262 80.4595 117.047 80.211C116.973 80.1258 116.873 80.0887 116.762 80.1146C116.665 80.1369 116.528 80.2518 116.584 80.3742C116.736 80.6969 116.966 80.9231 117.173 81.205C117.299 81.3718 117.537 81.4126 117.718 81.3236C117.919 81.2272 117.993 80.9528 117.8 80.8007ZM121.542 79.5287C121.405 79.4137 121.223 79.4359 121.082 79.5287C120.722 79.766 120.389 80.059 120.166 80.4484C120.003 80.734 120.455 80.8786 120.619 80.6672C120.867 80.3446 121.223 80.148 121.542 79.9107C121.672 79.8142 121.661 79.6251 121.542 79.5287ZM109.886 82.4028C109.767 82.0542 109.489 81.8132 109.237 81.5684C109.037 81.3718 108.503 81.6277 108.736 81.8873C108.94 82.1136 109.14 82.3509 109.318 82.6031C109.471 82.8219 109.997 82.7292 109.886 82.4028ZM104.794 80.6672C104.301 80.8267 103.948 81.1567 103.555 81.4905C103.333 81.6759 103.659 81.9244 103.852 81.8132C104.238 81.5906 104.623 81.3162 105.035 81.1419C105.369 80.9973 105.087 80.5782 104.798 80.6709L104.794 80.6672ZM117.667 83.9345C117.285 83.7305 116.88 83.5636 116.543 83.2818C116.387 83.152 115.975 83.3077 116.157 83.5303C116.498 83.9456 116.917 84.272 117.44 84.3795C117.715 84.4352 117.978 84.1014 117.667 83.9345Z" fill="#995619"/>
</svg>
