<svg width="150" height="200" viewBox="0 0 150 200" fill="none" xmlns="http://www.w3.org/2000/svg">
<rect width="150" height="200" fill="#FFF1D6"/>
<path d="M100.11 30.8146C99.9564 30.5387 99.6468 30.4946 99.3685 30.5836C99.2928 30.546 99.1967 30.5347 99.0836 30.5564C97.7629 30.8232 96.4971 31.5453 95.2539 32.0836C93.7769 32.7264 92.2887 33.3459 90.8118 33.9887C88.285 35.0929 85.1223 36.2529 83.1594 38.3121C82.8294 38.6608 82.9679 38.9563 83.2462 39.1062C83.2306 39.1508 83.2267 39.1938 83.241 39.2405C83.8903 41.439 85.3926 44.4407 87.7368 45.1171C88.5695 45.3576 89.45 45.3733 90.3374 45.258C92.9776 49.44 101.009 60.5694 103.112 58.834C105.129 57.1686 102.026 45.7482 100.378 40.5682C100.774 40.1591 101.125 39.7178 101.414 39.2325C103.101 36.3882 101.519 33.3505 100.108 30.8112L100.11 30.8146Z" fill="#F7BA84"/>
<path d="M97.0415 26.3629C97.4863 22.6685 95.9418 18.7689 92.6047 16.8545C89.424 15.0253 85.2174 15.8655 82.2703 17.7368C78.9767 19.8288 77.0878 23.0053 77.0879 26.9133C77.0896 28.8026 77.5659 31.0435 78.7304 32.5775C79.3852 33.4392 80.4773 34.4563 81.6276 34.6383C80.1344 36.442 80.5605 39.1848 83.3416 39.5803C84.9291 39.8066 88.7153 38.9057 92.6855 36.7054C96.1993 34.7541 99.5073 33.2976 100.42 30.1638C101.081 27.889 99.0253 26.3691 97.0382 26.3645L97.0415 26.3629Z" fill="#ACE5CA"/>
<path d="M93.1903 22.682C92.8518 21.6223 91.5427 19.874 92.348 19.8106C92.6655 19.8798 92.9809 19.987 93.2948 20.0743C94.0318 20.2704 94.9611 20.2419 95.6681 19.8554C94.9254 18.6408 93.9017 17.5948 92.6084 16.8518C89.4276 15.0226 85.221 15.8628 82.2739 17.7341C78.9803 19.8261 77.0914 23.0026 77.0915 26.9106C77.0925 27.4331 77.1295 27.9876 77.208 28.5427C77.3805 28.4224 77.5485 28.2754 77.7035 28.1018C78.3085 27.4186 78.6762 26.5081 79.0361 25.6838C79.2966 25.0803 79.4312 24.3524 80.1451 24.9014C81.0182 25.5672 81.9332 27.3863 83.2133 27.2997C85.0379 27.1809 85.2277 24.9974 85.0714 23.5986C85.0064 23.0287 84.8797 21.6486 85.9819 22.5414C86.5346 22.9871 86.8795 23.7101 87.2444 24.304C87.8964 25.3648 88.6722 26.2299 89.809 26.7765C92.4172 28.0338 93.8369 24.7213 93.1903 22.682Z" fill="#D2F9E5"/>
<path d="M99.883 40.3272C98.4256 41.4712 96.7659 42.2558 95.1541 43.1654C94.4235 43.5798 91.812 44.5767 90.4074 45.0281C90.2508 45.079 90.1799 45.2821 90.3425 45.3971C90.9553 45.822 92.1178 45.6027 93.2579 45.209C93.486 45.383 93.7175 45.5554 93.9523 45.7263C93.6984 46.5653 93.4461 47.4077 93.2286 48.254C92.8865 48.0402 92.5429 47.8231 92.1959 47.6076C92.0003 47.4837 91.8648 47.8003 92.0846 47.9742C92.4931 48.3001 92.648 48.6124 93.0699 48.9235C93.0188 49.1418 93.1111 49.0601 93.0649 49.2801C92.9991 49.596 93.374 49.8351 93.4324 49.5722C93.4572 49.4614 93.4902 49.3507 93.5166 49.2433C94.2721 49.7846 95.0443 50.3096 95.8368 50.8084C95.6483 51.3647 95.5637 51.7185 95.3668 52.2747C95.258 52.5867 95.6241 52.7394 95.7238 52.4854C95.9149 51.9855 96.1013 51.5867 96.2908 51.0834C97.248 51.6674 98.2256 52.2168 99.2153 52.7316C99.035 53.288 98.8696 53.8497 98.7421 54.4218C98.0061 54.0317 97.2685 53.6382 96.5241 53.2563C96.3315 53.1557 96.1503 53.4202 96.3299 53.6218C96.9685 54.339 97.6425 54.8908 98.5563 55.3763C98.527 55.5716 98.4977 55.7669 98.4784 55.9657C98.4517 56.2092 98.8339 56.1648 98.8666 55.9595C98.89 55.8288 98.915 55.7015 98.94 55.5741C99.7801 55.9922 100.676 56.3464 101.542 56.6737C101.358 57.1787 101.168 57.6819 100.992 58.187C100.843 58.6129 101.363 58.5887 101.489 58.2354C101.656 57.7634 101.85 57.3116 102.049 56.8616C102.54 57.0443 103.017 57.2218 103.469 57.399C103.71 57.4969 104.09 57.1406 103.793 57.0037C103.292 56.7678 102.8 56.5238 102.306 56.2763C102.499 55.8328 102.686 55.3843 102.844 54.9171C102.892 54.7701 102.939 54.6281 102.984 54.4911C103.072 54.5271 103.157 54.5682 103.245 54.6042C103.603 54.7486 103.923 54.1493 103.19 53.799C103.305 53.3478 103.376 52.8976 103.367 52.3667C103.359 52.0166 103.183 51.8831 103.114 52.106C102.973 52.5818 102.808 53.0688 102.636 53.5557C101.732 53.1516 100.844 52.7112 99.9767 52.2529C100.277 51.5024 100.601 50.7572 100.922 50.0136C101.533 50.324 102.146 50.6212 102.761 50.8969C103.054 51.027 103.476 50.6465 103.151 50.4163C102.543 49.9849 101.908 49.5829 101.268 49.1957C101.579 48.4487 101.881 47.7015 102.131 46.9304C102.237 46.6034 101.648 46.6118 101.55 46.8692C101.288 47.5307 101.009 48.1969 100.729 48.8631C99.7534 48.2921 98.754 47.7573 97.7497 47.2208C98.1151 46.2373 98.4839 45.2522 98.8459 44.2703C99.7147 44.8929 100.599 45.4957 101.578 45.9457C101.912 46.1013 102.145 45.4908 101.752 45.3178C100.702 44.8486 100.027 44.2852 99.077 43.6399C99.3495 42.8907 99.6237 42.1448 99.8913 41.3938C100.069 41.2338 100.252 41.0671 100.441 40.8856C100.9 40.4542 100.334 39.9652 99.8814 40.3238L99.883 40.3272ZM94.2233 44.846C94.1868 44.9665 94.1486 45.0921 94.1121 45.2126C94.0035 45.1497 93.8982 45.0852 93.7913 45.0174C93.9381 44.9631 94.0816 44.902 94.2233 44.846ZM93.7021 48.5525C93.9293 47.7263 94.1945 46.9106 94.4761 46.1035C95.2579 46.6568 96.0582 47.1971 96.8803 47.7145C96.6206 48.4905 96.3643 49.2648 96.103 50.0375C95.2988 49.5485 94.4996 49.053 93.7021 48.5525ZM102.404 54.2441C102.303 54.5313 102.205 54.8136 102.113 55.0926C102.008 55.403 101.897 55.7116 101.787 56.0203C100.907 55.5717 100.035 55.1117 99.1652 54.65C99.3174 54.0865 99.5043 53.5351 99.7043 52.9856C100.597 53.436 101.499 53.8533 102.404 54.2441ZM100.37 49.7322C100.06 50.4793 99.7554 51.2314 99.4828 51.9889C98.5065 51.4594 97.5423 50.9035 96.5899 50.3296C96.8775 49.5772 97.1584 48.8198 97.441 48.0657C98.4014 48.6564 99.3839 49.2158 100.372 49.7355L100.37 49.7322ZM97.1554 46.9023C96.3223 46.4561 95.4926 46.0082 94.6781 45.5407C94.8092 45.1809 94.9485 44.8213 95.0846 44.4632C95.4469 44.2925 95.7559 44.1392 95.9764 44.0328C96.5175 43.7634 96.9839 43.5095 97.4154 43.2518C97.6931 43.4431 97.969 43.6394 98.2416 43.8373C97.8674 44.8538 97.5048 45.8771 97.157 46.9056L97.1554 46.9023ZM98.464 43.2316C98.2963 43.1231 98.1271 43.0113 97.9577 42.9077C98.2523 42.7161 98.5337 42.5144 98.8121 42.2977C98.69 42.6078 98.5778 42.9214 98.4607 43.2332L98.464 43.2316Z" fill="#D38442"/>
<path d="M100.564 32.1283C100.074 33.0934 98.9557 34.0863 98.0209 34.8628C96.6096 36.034 95.0063 36.9355 93.3824 37.7687C90.8813 39.054 86.9294 40.7802 84.0265 40.3117C83.8213 40.279 83.4222 40.5869 83.7588 40.7127C86.6017 41.7908 91.5883 39.5035 93.7225 38.4734C95.633 37.5513 97.4466 36.4371 99.0077 34.996C99.8731 34.1953 100.842 33.2004 100.974 32.1241C101 31.9138 100.637 31.99 100.569 32.13L100.564 32.1283Z" fill="#D38442"/>
<path d="M81.1257 20.1939C80.6298 19.9514 80.1849 19.6184 79.6874 19.3726C79.4502 19.2565 79.7248 18.9551 79.9115 19.0092C80.4699 19.1679 81.0276 19.3764 81.531 19.677C81.8995 19.8945 81.4321 20.3424 81.1241 20.1905L81.1257 20.1939ZM82.9797 16.6635C82.7618 17.1846 82.6574 17.7703 82.5104 18.319C82.4264 18.6313 82.9491 18.6137 83.0402 18.3844C83.2468 17.8482 83.5098 17.3095 83.6454 16.7458C83.7405 16.3457 83.0997 16.3832 82.9797 16.6635ZM86.9848 16.9501C86.5886 17.409 86.3467 17.9828 86.1379 18.5571C86.0672 18.7519 86.3466 18.8188 86.4382 18.6758C86.7653 18.1761 87.1547 17.7287 87.4753 17.224C87.7009 16.8639 87.214 16.6912 86.9864 16.9534L86.9848 16.9501ZM86.1396 15.7108C85.7541 15.9957 85.4713 16.4081 85.2859 16.86C85.1759 17.1354 85.6485 17.2615 85.7825 17.0527C86.0231 16.6895 86.2341 16.3076 86.4928 15.9563C86.6584 15.7363 86.2922 15.5919 86.138 15.7075L86.1396 15.7108ZM84.101 20.9321C84.3001 20.3378 84.448 19.7228 84.6471 19.1284C84.7717 18.7553 84.2448 18.7131 84.1344 19.0218C83.9221 19.6143 83.7642 20.2258 83.5519 20.8183C83.4121 21.2111 83.9869 21.2672 84.0977 20.9337L84.101 20.9321ZM79.579 20.9568C79.0236 20.9407 78.4695 20.9446 77.9182 20.9883C77.6874 21.005 77.516 21.4007 77.8293 21.4183C78.3762 21.4509 78.9154 21.5612 79.4615 21.5324C79.7802 21.5186 79.9919 20.9676 79.5774 20.9535L79.579 20.9568ZM88.7676 14.953C88.6091 14.7866 88.203 15.0032 88.3443 15.2191C88.6463 15.6828 88.8366 16.1881 89.2022 16.6128C89.4324 16.8765 89.9218 16.5167 89.7071 16.2085C89.4013 15.7796 89.1305 15.338 88.7676 14.953ZM89.5589 18.6232C89.2464 18.5558 88.9263 18.5497 88.6246 18.4194C88.5207 18.3748 88.4144 18.3849 88.3255 18.4567C88.2484 18.5186 88.1748 18.6818 88.2781 18.7679C88.5552 18.9923 88.8606 19.0961 89.1702 19.2597C89.3563 19.3552 89.5878 19.2888 89.7128 19.1296C89.8512 18.9557 89.7987 18.6763 89.5589 18.6232ZM92.376 15.8511C92.2025 15.8072 92.0485 15.9062 91.9619 16.051C91.7411 16.4211 91.5678 16.83 91.5367 17.2774C91.5139 17.6056 91.9842 17.5391 92.0393 17.2778C92.1228 16.8793 92.358 16.5475 92.5421 16.1951C92.6171 16.0518 92.5248 15.8863 92.376 15.8511ZM83.1279 23.5061C82.8695 23.2437 82.5142 23.1475 82.1807 23.0367C81.9149 22.9467 81.5452 23.4093 81.8684 23.5416C82.1504 23.6566 82.434 23.7833 82.7039 23.9331C82.9359 24.0641 83.3699 23.7517 83.1279 23.5061ZM77.7877 24.1563C77.4128 24.5143 77.239 24.9647 77.03 25.4362C76.9102 25.6999 77.3121 25.7818 77.4374 25.5978C77.6881 25.2297 77.9161 24.8149 78.2111 24.479C78.4488 24.2037 78.0128 23.9488 77.7926 24.158L77.7877 24.1563ZM90.8008 21.5035C90.3682 21.4858 89.9316 21.5113 89.5051 21.4041C89.3084 21.3549 89.0054 21.6741 89.2658 21.7955C89.7536 22.0213 90.2729 22.1331 90.7906 22.0026C91.0619 21.9334 91.1539 21.5184 90.8008 21.5035Z" fill="#995619"/>
<path d="M38.8702 41.9586C38.882 41.8512 38.8692 41.7258 38.8172 41.5883C37.0321 36.4989 29.809 34.4584 24.9964 35.6155C23.6944 35.9285 23.7482 36.9922 24.3763 37.798C24.3145 37.8609 21.5014 52.6654 21.7813 60.0442C21.8203 61.0658 23.2328 61.8639 24.0229 60.9609C28.8858 55.409 34.2661 49.131 38.7336 42.9685C38.9835 42.622 38.9932 42.2653 38.8667 41.9572L38.8702 41.9586Z" fill="#F7BA84"/>
<path d="M38.5773 41.5096C37.2355 42.2431 35.9238 43.0209 34.6189 43.8014C34.1855 42.4902 33.8039 41.1602 33.5817 39.7832C34.4421 39.2175 35.3005 38.647 36.1589 38.0765C36.523 37.8327 36.0647 37.3368 35.7485 37.532C34.9838 38.0006 34.2198 38.4775 33.4579 38.9592C33.4224 38.6442 32.8472 38.5812 32.8822 38.9562C32.8923 39.0685 32.9142 39.1816 32.9277 39.2953C31.9118 39.9376 30.8944 40.5834 29.873 41.2194C29.7553 40.2337 29.6611 39.2295 29.5745 38.2165C30.3142 37.6816 31.0464 37.1356 31.7601 36.566C32.0408 36.3402 31.5625 35.9323 31.3085 36.0928C30.6926 36.482 30.0916 36.8934 29.4982 37.3158C29.4888 37.1917 29.4766 37.0746 29.4672 36.9505C29.4414 36.6315 28.8648 36.5719 28.8915 36.9475C28.9074 37.2024 28.922 37.4608 28.9379 37.7157C27.8229 38.5218 26.7209 39.3453 25.5827 40.1099C25.4608 39.2226 25.3665 38.3266 25.3086 37.4295C25.2932 37.2028 24.8366 37.1042 24.8318 37.3707C24.8176 38.4147 24.8542 39.4714 24.9376 40.5313C24.7535 40.6483 24.5729 40.7667 24.3868 40.8789C24.0844 41.0598 24.4573 41.4607 24.716 41.3181C24.8101 41.2644 24.9056 41.2073 25.001 41.1502C25.0884 42.0634 25.2073 42.9775 25.3656 43.8837C24.5959 44.3061 23.8241 44.7237 23.0367 45.1109C22.7207 45.2662 23.1033 45.663 23.3659 45.5501C24.0839 45.2347 24.7903 44.8985 25.4907 44.5479C25.7398 45.8197 26.0565 47.0832 26.4452 48.3079C25.6621 48.6648 24.8655 48.9961 24.0533 49.297C23.7809 48.1799 23.57 47.0399 23.4391 45.8805C23.3991 45.5276 22.7585 45.4579 22.7952 45.8776C22.9022 47.0954 23.0835 48.3274 23.3454 49.5485C23.112 49.6293 22.8786 49.7101 22.6398 49.7847C22.3098 49.8862 22.5634 50.3145 22.8339 50.2408C23.0458 50.1832 23.2522 50.1194 23.4606 50.0604C23.7254 51.1863 24.0536 52.2942 24.4648 53.3559C23.7603 53.6287 23.0468 53.8939 22.3232 54.1349C22.1609 54.1887 22.1358 54.3187 22.179 54.4285C22.0447 54.4337 21.9325 54.512 21.9642 54.6892C22.1647 55.845 22.6229 57.0662 23.2697 58.1201C22.8032 58.2418 22.3314 58.3373 21.8563 58.4115C21.5143 58.464 21.7267 58.9635 22.0038 58.9326C22.5187 58.8787 23.0779 58.7949 23.6463 58.6787C23.9448 59.0853 24.269 59.4583 24.624 59.7758C24.9167 60.0397 25.3927 59.7576 25.1574 59.3729C24.9622 59.0566 24.7338 58.7629 24.497 58.4697C25.4247 58.2 26.3176 57.7999 26.9939 57.1749C27.1881 56.9939 27.0603 56.7774 26.869 56.6671C26.8645 56.6292 26.8545 56.585 26.8308 56.5353C26.3366 55.6079 25.8887 54.6554 25.4857 53.6813C26.3917 53.3666 27.2952 53.0189 28.1817 52.6442C28.3757 53.0321 28.6636 54.0033 28.8749 54.3782C29.1154 54.8091 30.0394 54.7542 29.7567 54.1618C29.5507 53.725 29.2701 52.6967 29.0752 52.2524C29.9805 51.8413 30.8683 51.395 31.7337 50.8955C31.7928 50.9958 31.8471 51.0981 31.9111 51.1964C32.0846 51.4677 32.6855 51.3408 32.501 50.9689C32.4339 50.8292 32.3702 50.691 32.3031 50.5514C33.0075 50.1222 33.4721 49.6231 34.1364 49.1254C34.489 48.8609 34.2774 48.4378 33.9591 48.6282C33.2942 49.0294 32.628 49.4141 31.9592 49.7856C31.5709 48.8736 31.255 47.951 30.9867 47.0199C32.1428 46.4269 33.2806 45.7904 34.3973 45.1172C34.6302 45.8214 34.863 46.5257 35.078 47.2347C35.1867 47.5957 35.8478 47.5174 35.71 47.0804C35.4687 46.3086 35.2032 45.5469 34.9426 44.7832C36.3328 43.9214 37.6876 43.009 38.9848 42.061C39.3443 41.7993 38.9002 41.3372 38.5744 41.5165L38.5773 41.5096ZM25.6756 40.7449C26.8047 40.0808 27.9121 39.3717 28.9943 38.6163C29.0548 39.6147 29.1173 40.6179 29.2081 41.6206C28.2054 42.2403 27.1966 42.8455 26.1729 43.4285C25.9779 42.5434 25.8119 41.6461 25.6756 40.7449ZM26.326 44.1121C27.3293 43.5889 28.317 43.0352 29.2932 42.4608C29.4403 43.8352 29.6461 45.1935 29.9783 46.5073C29.1241 46.9794 28.2632 47.4287 27.3908 47.8572C26.9836 46.6289 26.6282 45.3817 26.328 44.117L26.326 44.1121ZM26.1857 56.7803C25.5472 57.1362 24.945 57.531 24.255 57.7978C24.1838 57.8248 24.1107 57.8469 24.0409 57.8705C23.9523 57.7541 23.8637 57.6377 23.7833 57.5207C23.2065 56.6678 22.8 55.7122 22.5793 54.6843C22.5754 54.6547 22.557 54.6311 22.5434 54.6056C23.2626 54.3948 23.9841 54.169 24.7063 53.9315C25.1276 54.9292 25.6126 55.8888 26.1871 56.7769L26.1857 56.7803ZM25.2351 53.0499C24.8265 52.0013 24.4808 50.9263 24.1903 49.8339C25.0188 49.5717 25.8468 49.2812 26.666 48.9632C27.0101 49.9734 27.3909 50.9625 27.832 51.9122C26.9756 52.3112 26.1131 52.6958 25.2351 53.0499ZM31.3173 50.1402C30.466 50.6054 29.6065 51.0512 28.7437 51.4757C28.344 50.5229 27.9796 49.5525 27.636 48.5705C28.5051 48.2088 29.3704 47.8174 30.2269 47.3984C30.513 48.3448 30.8654 49.2662 31.3173 50.1402ZM30.7412 46.0821C30.407 44.7634 30.1708 43.4207 29.9829 42.0577C31.0139 41.4376 32.0312 40.7919 33.0445 40.1364C33.2758 41.5012 33.6581 42.8195 34.0778 44.1251C32.9687 44.7894 31.8576 45.4488 30.7412 46.0821Z" fill="#D38442"/>
<path d="M42.271 37.7277C44.9636 37.13 47.4101 33.078 47.6993 31.1167C48.3658 26.5772 45.5744 22.0378 41.3845 19.7032C37.6375 17.6179 32.8961 17.2294 29.2864 19.3152C24.9946 21.7952 23.9553 27.2561 25.75 31.6362C23.0716 32.0033 20.562 35.2202 22.758 37.4926C24.2864 39.0753 26.6608 37.7664 28.4578 36.3017C28.3546 38.0825 28.5264 39.9158 30.2707 40.6572C31.7692 41.294 32.9926 40.36 33.9578 39.156C34.6309 42.252 36.6394 45.3453 39.9756 45.5838C43.8102 45.8579 43.5478 40.2292 42.2676 37.7263L42.271 37.7277Z" fill="#FCD2D9"/>
<path d="M33.0755 19.3907C32.7437 19.0066 32.1922 18.9053 31.7163 18.8148C31.1985 18.7192 30.7037 18.577 30.1762 18.6618C29.8507 18.713 29.7406 19.0606 30.04 19.2592C30.4902 19.5595 30.9742 19.6693 31.4896 19.8199C31.9843 19.9622 32.5496 20.1573 33.0378 19.9042C33.2459 19.797 33.2025 19.5308 33.0735 19.3859L33.0755 19.3907Z" fill="#DD4737"/>
<path d="M36.1068 25.2629C36.1841 24.8779 35.8349 24.4386 35.6459 24.1169C35.4379 23.7633 35.1394 23.4449 34.9072 23.1015C34.7309 22.8371 34.0965 22.762 34.1859 23.2193C34.2602 23.5862 34.3559 23.9499 34.4516 24.3136C34.5695 24.7504 34.7928 25.2625 35.1384 25.544C35.4717 25.8166 36.0181 25.6955 36.1034 25.2615L36.1068 25.2629Z" fill="#DD4737"/>
<path d="M39.9676 21.292C39.9902 21.0408 39.5691 20.8164 39.3407 20.8753C39.2379 20.9014 39.1377 20.9405 39.0396 20.9845C38.7402 21.0504 38.4422 21.201 38.1479 21.3131C37.6935 21.4838 37.26 21.6912 36.8096 21.8716C36.3931 22.0378 36.6732 22.4208 36.9866 22.4969C37.1077 22.6025 37.2739 22.6665 37.4127 22.6111C37.5129 22.5719 37.6145 22.5293 37.7146 22.4901C37.9897 22.4544 38.2594 22.3924 38.5439 22.3044C38.7986 22.2203 39.0514 22.1313 39.3062 22.0472C39.59 21.9509 39.8747 21.9111 39.9893 21.6014C40.0315 21.4984 40.0116 21.3901 39.9628 21.294L39.9676 21.292Z" fill="#DD4737"/>
<path d="M37.5239 17.5983C37.5927 17.2538 37.141 17.0651 36.8807 17.0548C36.4986 17.0388 36.1807 17.3655 35.8762 17.5615C35.5273 17.7875 35.1676 18.001 34.8147 18.2173C34.6064 18.3444 34.6201 18.6145 34.7738 18.7775C34.9514 18.9704 35.217 19.0069 35.4451 18.8998C35.8342 18.7224 36.2267 18.5463 36.6117 18.3592C36.9871 18.1762 37.4379 18.044 37.5239 17.5983Z" fill="#DD4737"/>
<path d="M43.8728 24.9763C43.0973 24.7072 42.1384 25.1805 41.3477 25.2819C40.6363 25.3756 40.979 26.2129 41.5708 26.1865C41.9717 26.1661 42.3688 26.1162 42.7639 26.0614C43.1768 26.0019 43.7178 26.0508 44.0708 25.8146C44.4253 25.5749 44.2196 25.0981 43.8693 24.9749L43.8728 24.9763Z" fill="#DD4737"/>
<path d="M47.473 27.1126C47.4932 26.6321 47.5169 26.1529 47.5371 25.6724C47.5595 25.1767 46.6349 24.9588 46.5866 25.508C46.5483 25.9251 46.5134 26.3435 46.4764 26.7572C46.4365 27.1976 46.3129 27.696 46.4466 28.1233C46.5616 28.4789 47.1312 28.6637 47.3283 28.2795C47.5066 27.9317 47.457 27.4947 47.473 27.1126Z" fill="#DD4737"/>
<path d="M43.8433 21.2327C43.7542 21 43.6554 20.7712 43.5435 20.5452C43.4927 20.4442 43.4093 20.3541 43.3198 20.2693C43.309 20.2369 43.2982 20.2044 43.2909 20.1734C43.2494 20.0202 43.0333 19.9118 42.8638 19.9146C42.6811 19.8519 42.4462 19.9561 42.483 20.1796C42.5147 20.3568 42.5299 20.5353 42.5533 20.7132C42.5702 20.8483 42.6344 20.9948 42.7001 21.1378C42.7478 21.57 42.8368 21.9991 43.0387 22.3381C43.0879 22.4824 43.1642 22.5897 43.3202 22.7177C43.5166 22.8741 43.8287 22.8655 44.0036 22.6926C44.3505 22.3537 43.9871 21.6161 43.8454 21.2376L43.8433 21.2327Z" fill="#DD4737"/>
<path d="M95.9392 104.475C95.9221 104.369 95.8764 104.251 95.7898 104.132C92.717 99.7 85.2113 99.6514 80.879 102.045C79.7069 102.693 80.0413 103.704 80.8608 104.314C80.818 104.391 82.0381 119.411 84.2678 126.45C84.5768 127.425 86.1506 127.819 86.6723 126.739C89.886 120.095 93.4055 112.613 96.0757 105.485C96.2246 105.085 96.1392 104.738 95.9355 104.475L95.9392 104.475Z" fill="#F7BA84"/>
<path d="M95.5389 104.12C94.4401 105.183 93.3821 106.282 92.3314 107.381C91.5653 106.232 90.8441 105.051 90.2642 103.782C90.9434 103.008 91.6194 102.23 92.2954 101.452C92.5817 101.121 92.0082 100.764 91.7552 101.036C91.1425 101.691 90.5326 102.354 89.9259 103.021C89.8081 102.727 89.2368 102.819 89.3701 103.171C89.4097 103.276 89.4608 103.38 89.5041 103.486C88.6953 104.375 87.886 105.267 87.0702 106.152C86.6949 105.233 86.3373 104.29 85.9848 103.336C86.5558 102.624 87.1167 101.903 87.6535 101.165C87.8641 100.872 87.2947 100.606 87.0924 100.828C86.602 101.367 86.1319 101.923 85.6719 102.488C85.63 102.371 85.5871 102.261 85.5451 102.144C85.4355 101.843 84.8637 101.939 84.9893 102.294C85.0723 102.536 85.155 102.781 85.2381 103.023C84.3772 104.096 83.5335 105.182 82.6393 106.222C82.2861 105.399 81.9571 104.56 81.6631 103.711C81.588 103.496 81.1217 103.522 81.1878 103.781C81.4514 104.791 81.7674 105.8 82.1293 106.799C81.9829 106.961 81.8402 107.123 81.6905 107.281C81.4471 107.536 81.9131 107.823 82.1246 107.617C82.2011 107.54 82.2779 107.46 82.3548 107.379C82.6816 108.237 83.0391 109.086 83.4324 109.918C82.8024 110.529 82.1693 111.137 81.513 111.719C81.2497 111.953 81.7239 112.234 81.9471 112.055C82.5555 111.561 83.1473 111.049 83.7293 110.525C84.3073 111.685 84.9483 112.819 85.6482 113.896C84.9881 114.448 84.3081 114.979 83.605 115.485C83.0457 114.481 82.5395 113.438 82.1054 112.355C81.9731 112.025 81.337 112.128 81.4839 112.523C81.9105 113.668 82.4125 114.808 82.9893 115.916C82.7858 116.056 82.5822 116.196 82.3718 116.331C82.0806 116.516 82.4388 116.862 82.6801 116.719C82.869 116.607 83.0511 116.491 83.2364 116.379C83.7907 117.394 84.4014 118.375 85.0798 119.289C84.473 119.739 83.8556 120.184 83.222 120.609C83.0799 120.704 83.0902 120.836 83.161 120.93C83.0329 120.971 82.9456 121.076 83.0232 121.239C83.5234 122.3 84.2895 123.355 85.193 124.199C84.7756 124.441 84.3462 124.658 83.9078 124.856C83.5921 124.997 83.9295 125.422 84.1885 125.319C84.6705 125.13 85.1873 124.901 85.7045 124.638C86.1002 124.951 86.5119 125.224 86.9385 125.436C87.2908 125.613 87.6748 125.214 87.3457 124.906C87.0735 124.653 86.7752 124.43 86.4692 124.211C87.2919 123.704 88.0464 123.081 88.5324 122.299C88.6716 122.073 88.4909 121.898 88.2771 121.843C88.2627 121.807 88.2413 121.767 88.2053 121.726C87.4825 120.963 86.7977 120.164 86.1505 119.332C86.9403 118.788 87.719 118.212 88.4741 117.616C88.7642 117.938 89.2998 118.798 89.603 119.103C89.9493 119.455 90.8255 119.156 90.3957 118.66C90.0811 118.294 89.5374 117.377 89.2315 117.001C89.9951 116.364 90.7324 115.698 91.4341 114.986C91.5177 115.067 91.5973 115.152 91.685 115.229C91.9244 115.445 92.4699 115.163 92.1933 114.853C92.0915 114.736 91.9934 114.62 91.8917 114.503C92.4568 113.902 92.7721 113.298 93.2803 112.642C93.55 112.293 93.2336 111.941 92.9773 112.209C92.4429 112.773 91.9028 113.321 91.3567 113.856C90.7401 113.08 90.1905 112.275 89.6845 111.448C90.6416 110.57 91.5694 109.654 92.4673 108.708C92.8788 109.325 93.2904 109.942 93.6859 110.569C93.8866 110.888 94.5032 110.637 94.2542 110.252C93.8166 109.572 93.3584 108.908 92.9042 108.241C94.0156 107.041 95.0794 105.802 96.0782 104.543C96.3553 104.195 95.8044 103.868 95.538 104.127L95.5389 104.12ZM82.8975 106.809C83.8097 105.869 84.6889 104.891 85.5316 103.876C85.8551 104.822 86.1819 105.773 86.5357 106.715C85.7336 107.579 84.9218 108.431 84.0897 109.265C83.6666 108.463 83.2683 107.642 82.8975 106.809ZM84.4189 109.883C85.2472 109.112 86.0524 108.316 86.8409 107.503C87.3478 108.789 87.907 110.044 88.5762 111.222C87.8781 111.904 87.1674 112.566 86.4402 113.211C85.7213 112.135 85.0474 111.027 84.4221 109.887L84.4189 109.883ZM87.6484 122.133C87.1275 122.646 86.6517 123.187 86.0573 123.627C85.9959 123.672 85.9312 123.713 85.8703 123.754C85.7539 123.665 85.6375 123.577 85.529 123.485C84.7464 122.816 84.1006 122.003 83.6148 121.071C83.6032 121.043 83.5792 121.025 83.5593 121.004C84.1968 120.61 84.8323 120.201 85.4655 119.78C86.1367 120.63 86.8592 121.426 87.6488 122.13L87.6484 122.133ZM85.7411 118.789C85.0687 117.887 84.4499 116.942 83.8797 115.966C84.6087 115.494 85.3298 114.994 86.0352 114.469C86.6353 115.352 87.2651 116.204 87.9425 117.003C87.2229 117.615 86.4936 118.215 85.7411 118.789ZM90.8321 114.369C90.1348 115.043 89.4246 115.701 88.7056 116.34C88.0672 115.527 87.4581 114.689 86.866 113.833C87.6079 113.254 88.3381 112.646 89.0525 112.015C89.5797 112.851 90.1642 113.646 90.8321 114.369ZM89.1987 110.609C88.5263 109.427 87.9419 108.195 87.3988 106.931C88.228 106.059 89.0373 105.167 89.8401 104.266C90.4255 105.52 91.1444 106.689 91.8957 107.836C91.0029 108.771 90.1069 109.702 89.1987 110.609Z" fill="#D38442"/>
<path d="M98.0961 99.4941C100.533 98.2027 101.816 93.6464 101.573 91.6788C101.01 87.1253 97.1134 83.4904 92.4539 82.3526C88.2876 81.3374 83.6133 82.2222 80.6873 85.1918C77.2084 88.7227 77.6569 94.2635 80.5506 98.0096C78.0659 99.0749 76.5008 102.843 79.2215 104.45C81.1154 105.57 83.0568 103.678 84.4003 101.788C84.7738 103.533 85.4263 105.254 87.3049 105.506C88.9187 105.722 89.8501 104.496 90.4608 103.079C91.9321 105.885 94.69 108.334 97.9698 107.678C101.739 106.923 99.9915 101.567 98.0924 99.4937L98.0961 99.4941Z" fill="#FCD2D9"/>
<path d="M84.3613 84.2584C83.9395 83.9762 83.3808 84.025 82.898 84.0642C82.3734 84.1095 81.8586 84.1038 81.3726 84.3257C81.0724 84.4615 81.0586 84.8259 81.4 84.9378C81.9137 85.1077 82.4095 85.085 82.9464 85.0934C83.4611 85.0991 84.058 85.1371 84.4614 84.7634C84.6335 84.6048 84.521 84.3597 84.3581 84.2542L84.3613 84.2584Z" fill="#DD4737"/>
<path d="M88.8428 89.1139C88.815 88.7221 88.3617 88.3913 88.094 88.1314C87.7996 87.8458 87.4272 87.6181 87.1122 87.3487C86.8719 87.1406 86.2404 87.2367 86.4481 87.6538C86.6172 87.9878 86.806 88.313 86.9949 88.6382C87.2245 89.0281 87.5758 89.4624 87.9838 89.6421C88.3775 89.8163 88.8721 89.5544 88.8391 89.1135L88.8428 89.1139Z" fill="#DD4737"/>
<path d="M91.5094 84.2587C91.4644 84.0105 90.9989 83.9061 90.7943 84.0235C90.7021 84.0759 90.6159 84.1403 90.533 84.2088C90.2619 84.3518 90.0146 84.5761 89.7607 84.7623C89.3679 85.0476 89.0051 85.3627 88.6188 85.6563C88.2613 85.9272 88.6331 86.222 88.9555 86.2121C89.1003 86.2818 89.2775 86.2993 89.3966 86.209C89.4828 86.1446 89.5694 86.0766 89.6556 86.0122C89.9112 85.9047 90.1548 85.7733 90.4057 85.6129C90.629 85.4641 90.849 85.3112 91.0723 85.1624C91.3203 84.9942 91.5842 84.8802 91.6125 84.5512C91.6257 84.4407 91.5779 84.3416 91.5053 84.2619L91.5094 84.2587Z" fill="#DD4737"/>
<path d="M88.1754 81.3484C88.1502 80.998 87.6646 80.9361 87.4109 80.9953C87.0383 81.0813 86.8186 81.4808 86.577 81.7506C86.3007 82.0611 86.0106 82.3625 85.7278 82.6647C85.5608 82.8427 85.6458 83.0994 85.8373 83.2157C86.0597 83.3545 86.3254 83.3191 86.5169 83.1553C86.8449 82.8809 87.1765 82.6069 87.4981 82.3243C87.8113 82.0481 88.2108 81.8009 88.1754 81.3484Z" fill="#DD4737"/>
<path d="M96.2546 86.7745C95.4356 86.721 94.6368 87.432 93.9015 87.7398C93.2404 88.0191 93.7932 88.7353 94.3568 88.5526C94.7379 88.4265 95.1075 88.2729 95.4738 88.1151C95.8561 87.9481 96.3906 87.8516 96.6683 87.53C96.9463 87.2048 96.6214 86.7998 96.2509 86.774L96.2546 86.7745Z" fill="#DD4737"/>
<path d="M100.292 87.8787C100.184 87.4101 100.08 86.9419 99.9715 86.4732C99.8614 85.9894 98.9122 86.0249 99.0115 86.5672C99.0853 86.9795 99.1628 87.3922 99.237 87.8007C99.3156 88.236 99.3287 88.7493 99.5711 89.1257C99.7765 89.438 100.375 89.4649 100.463 89.0422C100.542 88.6595 100.378 88.2514 100.292 87.8787Z" fill="#DD4737"/>
<path d="M95.2306 83.1747C95.0829 82.9739 94.9269 82.7797 94.759 82.5914C94.6831 82.5076 94.5788 82.4428 94.47 82.385C94.451 82.3565 94.432 82.3281 94.4167 82.3001C94.3359 82.1634 94.0988 82.1163 93.9362 82.1641C93.7434 82.1521 93.5446 82.315 93.6394 82.5207C93.7171 82.6831 93.7791 82.8512 93.8489 83.0164C93.9011 83.1422 94.0019 83.2664 94.1033 83.3868C94.264 83.7908 94.4637 84.1808 94.7485 84.4541C94.8342 84.5801 94.9363 84.6633 95.1207 84.7452C95.3516 84.8439 95.6502 84.7527 95.7729 84.5396C96.0173 84.1207 95.471 83.5061 95.2339 83.1788L95.2306 83.1747Z" fill="#DD4737"/>
<path d="M59.9013 83.6014C58.5109 83.5216 52.1829 84.5138 50.5569 85.1285C50.1258 85.292 49.6959 85.8616 49.7081 86.2658C49.7508 87.846 53.0162 96.9929 53.8835 99.4411C54.0785 99.9911 54.5901 100.389 55.2023 100.406C56.8876 100.451 58.8085 99.9776 60.2236 99.583C60.7511 99.4332 61.1503 98.9929 61.1797 98.0362C61.292 94.357 61.3218 89.439 61.1748 85.1192C61.1553 84.562 60.8318 83.654 59.9013 83.6014Z" fill="#F7BA84"/>
<path d="M61.113 87.2643C61.5554 87.1891 61.4703 86.6882 61.0285 86.767C57.5088 87.395 54.0425 88.2923 50.4617 88.4943C50.2868 88.5052 50.1683 88.6269 50.157 88.7379C50.1072 88.7765 50.0872 88.8363 50.1283 88.9008C50.7973 89.9383 51.6154 90.8789 52.4779 91.7932C52.1503 92.4996 51.9459 92.8466 51.7257 93.5874C51.6327 93.9042 52.0926 94.3527 52.1881 94.0732C52.3826 93.4909 52.6671 92.8181 52.9043 92.2437C53.338 92.6929 53.7747 93.1378 54.2047 93.5877C53.8965 94.2757 53.5926 94.9669 53.288 95.6543C52.8919 95.3154 52.5551 95.0378 52.3223 94.8629C52.1628 94.7433 52.1624 95.0067 52.3043 95.1782C52.4739 95.3788 52.7602 95.6913 53.1082 96.0573C52.9841 96.3454 53.0232 96.3539 52.8991 96.642C52.7913 96.8936 53.0796 97.2396 53.1832 97.0301C53.2814 96.8329 53.3752 96.6326 53.4697 96.436C53.8441 96.8238 54.271 97.2554 54.7009 97.6827C54.3789 98.2452 54.2014 98.5951 53.8434 99.1449C53.7063 99.3563 53.9741 99.6268 54.0913 99.4527C54.4099 98.981 54.7273 98.502 55.044 98.0194C55.4501 98.4168 55.85 98.8003 56.212 99.1376C56.026 99.504 55.8479 99.8728 55.6936 100.249C55.5956 100.491 56.0146 100.544 56.1207 100.349C56.271 100.06 56.4335 99.777 56.5991 99.4894C56.9231 99.7804 57.1994 100.012 57.3833 100.142C57.6436 100.324 58.1547 100.166 57.91 99.8986C57.7344 99.7065 57.3785 99.3607 56.9296 98.9329C57.2651 98.3831 57.6151 97.8309 57.9731 97.281C58.3883 97.6431 58.8137 97.9997 59.2452 98.3477C58.9018 98.8725 58.5577 99.3936 58.2021 99.913C58.0728 100.104 58.4656 100.158 58.5742 100C58.9051 99.534 59.2475 99.0696 59.5863 98.6057C59.8992 98.8535 60.2152 99.097 60.5409 99.3314C60.7767 99.5019 61.1078 99.1034 60.8266 98.8653C60.4665 98.5615 60.3252 98.3937 59.9645 98.0863C60.282 97.6525 60.5922 97.2198 60.8932 96.7775C60.9018 96.7835 60.911 96.7933 60.9195 96.7993C61.1335 96.9962 61.423 96.552 61.2009 96.3076C61.3623 96.062 61.3221 96.0689 61.3577 95.9688C61.4786 95.6172 61.3151 95.2086 61.0867 95.4806C60.9616 95.6298 60.8614 95.7484 60.7643 95.9078C60.3559 95.5408 59.9475 95.1739 59.5458 94.802C59.9012 94.2149 60.2408 93.6231 60.5493 93.0252C60.7602 93.2038 60.9484 93.3599 61.0884 93.4753C61.3146 93.6551 61.6024 93.2677 61.3365 93.0533C61.1439 92.8941 60.9593 92.7374 60.7741 92.577C61.0745 91.9542 61.1952 91.5575 61.3981 90.9137C61.4893 90.6311 61.203 90.3411 61.1191 90.5999C60.9524 91.1248 60.5866 91.6948 60.3479 92.1942C59.8942 91.7823 59.4582 91.3636 59.0265 90.9479C59.3281 90.3098 59.6139 89.6669 59.8801 89.0198C60.3146 89.341 60.7175 89.6976 61.1842 89.987C61.3944 90.1168 61.5785 89.7169 61.3225 89.561C60.8094 89.2419 60.5323 88.9617 60.0441 88.612C60.2068 88.1969 60.3652 87.7788 60.5127 87.3625C60.7138 87.3283 60.91 87.2875 61.1111 87.2533L61.113 87.2643ZM56.7366 88.0754C56.6349 88.2958 56.5301 88.5205 56.4284 88.7409C56.1937 88.5777 55.9524 88.4193 55.6971 88.2671C56.0444 88.2081 56.3899 88.1381 56.7366 88.0754ZM55.8896 91.3491C56.1543 90.7812 56.4232 90.2164 56.6885 89.6522C57.114 90.0314 57.6019 90.4676 58.0972 90.9026C57.8167 91.4882 57.5393 92.0695 57.2631 92.6581C56.805 92.2205 56.3476 91.7866 55.8896 91.3491ZM57.0529 93.1038C56.7785 93.6808 56.5041 94.2579 56.2181 94.8331C55.7553 94.4114 55.2997 93.9885 54.8533 93.5527C55.1319 92.9562 55.4148 92.3627 55.6934 91.7661C56.1453 92.2122 56.6009 92.6577 57.0529 93.1038ZM54.1041 88.5226C54.4893 88.4647 54.8738 88.4031 55.262 88.341C55.2608 88.3562 55.6357 88.7026 56.2079 89.2148C55.9463 89.7783 55.6847 90.3419 55.4237 90.9091C54.9265 90.4406 54.4251 89.969 53.917 89.5024C53.999 89.2101 54.0724 88.9117 54.1264 88.6091C54.1317 88.5743 54.1231 88.5457 54.1078 88.522L54.1041 88.5226ZM53.733 88.5744C53.733 88.5744 53.7209 88.5915 53.7184 88.5994C53.6733 88.7989 53.616 88.993 53.5581 89.1834C53.371 89.012 53.1802 88.8413 52.9895 88.6706C53.2363 88.6399 53.4825 88.6056 53.7324 88.5707L53.733 88.5744ZM52.6899 91.3359C51.9686 90.5443 51.2807 89.7282 50.6373 88.8858C51.2677 88.854 51.8973 88.7959 52.5214 88.7275C52.5245 88.7458 52.5398 88.7695 52.5618 88.7884C52.851 89.0515 53.1372 89.3188 53.4234 89.5862C53.2125 90.1825 52.957 90.7601 52.6862 91.3365L52.6899 91.3359ZM53.0955 91.7748C53.349 91.1637 53.5947 90.5502 53.7897 89.9265C54.274 90.3859 54.7559 90.8533 55.2335 91.3176C54.9592 91.9172 54.6848 92.5167 54.4148 93.1194C53.9671 92.6763 53.5267 92.232 53.0955 91.7748ZM53.6878 95.9927C54.0053 95.3369 54.3191 94.6817 54.6292 94.0271C54.68 94.0825 54.7344 94.1372 54.7888 94.1919C55.1657 94.5943 55.5492 94.9919 55.9388 95.3808C55.6376 95.9775 55.3242 96.5686 54.9987 97.1543C54.5499 96.7491 54.0981 96.3481 53.6885 95.9963L53.6878 95.9927ZM56.5266 98.5537C56.1696 98.2231 55.777 97.861 55.3765 97.4964C55.7242 96.9521 56.0663 96.3974 56.4042 95.8397C56.7735 96.1983 57.1484 96.5446 57.5305 96.8898C57.1798 97.4384 56.8413 97.9924 56.5266 98.5537ZM56.7323 95.2912C57.0446 94.7604 57.3521 94.2229 57.6479 93.6836C58.0455 94.075 58.4497 94.4615 58.8502 94.8486C58.5384 95.338 58.2186 95.8249 57.9024 96.3112C57.5136 95.971 57.1181 95.6357 56.7353 95.2869L56.7323 95.2912ZM60.4817 96.3922C60.1966 96.8619 59.9066 97.325 59.6124 97.785C59.1899 97.4242 58.7681 97.067 58.3457 96.7061C58.6558 96.2284 58.9689 95.7464 59.2704 95.2625C59.6697 95.6424 60.0757 96.0173 60.4817 96.3922ZM60.1238 92.6687C59.8214 93.258 59.4836 93.8382 59.1257 94.4106C58.7099 94.0223 58.2977 93.6334 57.8849 93.2408C58.1935 92.6655 58.4892 92.0811 58.777 91.4943C59.2587 91.9166 59.7221 92.3193 60.1275 92.6681L60.1238 92.6687ZM58.3661 90.3378C57.9112 89.9185 57.4465 89.5084 56.9405 89.1204C57.1234 88.7357 57.3027 88.3517 57.4899 87.97C57.4953 87.9578 57.4935 87.9468 57.4989 87.9346C57.6964 87.9011 57.8938 87.8676 58.09 87.8267C58.4688 88.0859 58.8537 88.3365 59.2392 88.5907C58.9392 89.1721 58.6502 89.7516 58.3698 90.3372L58.3661 90.3378ZM59.4319 88.2194C59.1632 88.0544 58.8944 87.8894 58.6256 87.7244C59.0192 87.6501 59.4171 87.5787 59.8144 87.5037C59.6859 87.7437 59.5568 87.98 59.4319 88.2194Z" fill="#D38442"/>
<path d="M61.973 71.3906C59.7864 68.5946 55.456 68.3033 52.2031 68.8183C49.203 69.294 45.7903 70.9722 44.9867 74.103C44.1265 77.4542 45.5343 80.7812 47.6537 83.3591C46.8999 84.657 46.3349 86.6452 48.442 86.8477C49.505 86.9493 50.219 86.1923 50.7323 85.3828C50.8124 85.2564 50.876 85.1214 50.9475 84.9889C51.3009 85.6737 51.9461 86.1284 52.9516 85.9576C53.8364 85.8072 54.232 85.1908 54.4028 84.4471C55.1162 85.0594 55.9953 85.4066 57.0333 85.1175C57.8234 84.8967 58.2463 84.4186 58.4395 83.8291C59.4822 84.8519 60.762 85.432 62.457 84.6701C64.4205 83.7836 63.1753 81.5688 62.1001 80.2881C64.1337 77.6442 64.0193 74.0035 61.9766 71.39L61.973 71.3906Z" fill="#C0E6ED"/>
<path d="M59.1024 56.7834C56.9728 54.2562 53.6397 53.502 50.4194 53.9212C46.9711 54.3715 43.9558 56.6179 42.8411 59.8655C41.7384 63.0735 42.7886 67.8606 45.7499 69.8366C44.3777 71.4578 43.1704 73.9839 45.7205 74.6679C47.2106 75.0693 48.3384 73.6477 49.047 72.1279C49.5886 73.5669 50.5932 74.8747 52.0887 74.4664C53.5087 74.0785 54.0447 72.9379 54.2218 71.6551C54.9689 72.4875 55.9631 73.0258 57.2074 72.7768C58.0257 72.6115 58.4334 72.1773 58.5871 71.6208C59.3712 72.2061 60.2622 72.4685 61.1673 71.995C63.705 70.6574 61.5726 67.8259 59.8062 66.4407C61.2662 63.409 61.3336 59.4213 59.1091 56.7785L59.1024 56.7834Z" fill="#F9BE2B"/>
<path d="M47.4116 54.4395C46.9809 55.1596 46.4623 55.8271 46.091 56.5861C45.9656 56.8444 45.4429 56.8015 45.5864 56.4724C45.9236 55.7117 46.4105 55.0346 46.81 54.3084C46.9761 54.0018 47.6184 54.0846 47.4079 54.4401L47.4116 54.4395ZM50.92 54.3212C50.4412 54.049 49.842 53.91 49.3027 53.8135C49.1435 53.7841 48.9583 53.8231 48.8795 53.9794C48.8062 54.1236 48.9097 54.2677 49.0512 54.3039C49.5705 54.4376 50.0487 54.7062 50.5722 54.8204C50.8651 54.8835 51.2865 54.5298 50.92 54.3212ZM51.462 57.4454C51.1571 56.8239 50.6296 56.2213 50.0893 55.7865C49.78 55.5381 49.2987 55.8493 49.6472 56.1512C50.1625 56.5941 50.4498 57.1998 50.925 57.6721C51.1103 57.855 51.6246 57.7827 51.4626 57.4491L51.462 57.4454ZM54.2521 53.5859C54.095 53.4358 53.8597 53.4682 53.6845 53.5657C53.1245 53.879 52.7092 54.4236 52.3058 54.9059C51.996 55.2745 52.6406 55.5036 52.9062 55.229C53.3389 54.7868 53.8151 54.4012 54.2546 53.9767C54.364 53.8679 54.3598 53.688 54.2521 53.5859ZM56.2832 56.1751C56.1088 55.7683 55.6038 55.5193 55.2688 55.2527C55.017 55.0547 54.4551 55.3119 54.7359 55.6141C54.8735 55.76 55.0142 55.9016 55.1548 56.0432C55.3102 56.2049 55.4388 56.3862 55.613 56.5259C55.8734 56.7299 56.4459 56.5574 56.2789 56.172L56.2832 56.1751ZM53.3512 58.9339C53.8163 58.5051 54.2844 58.072 54.6517 57.5544C54.8247 57.3106 54.5453 56.8615 54.3017 57.1549C53.933 57.5975 53.4774 57.9495 53.0261 58.3045C52.7141 58.5494 53.0327 59.2288 53.3512 58.9339ZM49.3674 58.7116C48.8476 58.5968 48.3629 58.4007 47.8957 58.1528C47.5897 57.9904 47.1105 58.4028 47.4867 58.6022C47.9997 58.8762 48.5369 59.0934 49.1074 59.2185C49.2715 59.2545 49.4695 59.2021 49.5483 59.0458C49.6216 58.9016 49.5193 58.7422 49.3668 58.708L49.3674 58.7116ZM52.989 61.2751C52.6437 60.792 52.1655 60.3466 51.682 59.9585C51.4033 59.735 50.9612 60.0998 51.2573 60.4257C51.729 60.9437 52.0432 61.2213 52.2948 61.551C52.5275 61.8576 53.2303 61.6103 52.9884 61.2714L52.989 61.2751ZM47.6937 61.6367C47.453 61.4594 47.293 61.2044 47.0906 60.9868C46.8477 60.7309 46.2591 61.0528 46.5375 61.3629C46.7327 61.5817 46.8859 61.8416 47.1206 62.0274C47.2679 62.1416 47.4728 62.1519 47.6316 62.046C47.7563 61.9608 47.8441 61.7466 47.6937 61.6367ZM57.5574 58.716C57.5226 59.0868 57.4811 59.4625 57.5286 59.8306C57.5724 60.1767 58.2494 60.0655 58.1977 59.7169C58.1467 59.3945 58.178 59.0695 58.2014 58.742C58.2271 58.384 57.5918 58.3866 57.5605 58.7117L57.5574 58.716ZM44.6297 58.7904C44.2287 59.0654 43.9564 59.5217 43.6839 59.9103C43.469 60.2177 44.1006 60.3925 44.2845 60.1468C44.5517 59.793 44.8459 59.4872 45.1399 59.1589C45.4279 58.8391 44.8925 58.6103 44.6297 58.7904ZM44.4328 57.2326C44.0345 57.1912 43.637 57.1985 43.2399 57.1418C42.9624 57.1025 42.7734 57.4957 43.0925 57.5807C43.4831 57.6874 43.9267 57.8189 44.3352 57.8097C44.7546 57.7986 44.9188 57.2817 44.4328 57.2326ZM57.4046 54.8711C57.2648 54.624 56.7447 54.7951 56.8834 55.08C57.1344 55.6054 57.2965 56.1609 57.4701 56.7183C57.5884 57.1044 58.2951 56.9242 58.1378 56.5296C57.9177 55.9651 57.705 55.3994 57.4046 54.8711Z" fill="#995619"/>
<path d="M56.2438 174.014C54.9534 173.491 48.6434 172.39 46.906 172.448C46.4452 172.463 45.8546 172.864 45.7359 173.251C45.2669 174.76 45.4094 184.471 45.4411 187.069C45.4484 187.652 45.8043 188.194 46.3785 188.407C47.9594 188.993 49.9303 189.164 51.397 189.247C51.9447 189.275 52.4645 188.987 52.8007 188.091C54.093 184.644 55.7066 179.998 56.96 175.862C57.1213 175.328 57.1077 174.364 56.2438 174.014Z" fill="#F7BA84"/>
<path d="M56.2102 177.874C56.6532 177.945 56.7342 177.443 56.2906 177.376C52.7564 176.836 49.1858 176.567 45.7311 175.604C45.562 175.558 45.4105 175.635 45.3641 175.737C45.3045 175.757 45.2663 175.807 45.2844 175.882C45.5833 177.079 46.0545 178.234 46.5762 179.377C46.0383 179.94 45.733 180.203 45.2857 180.833C45.0957 181.103 45.3864 181.676 45.5669 181.442C45.9387 180.953 46.4249 180.408 46.8346 179.941C47.1003 180.506 47.3703 181.068 47.6323 181.632C47.1188 182.184 46.6083 182.741 46.0984 183.293C45.8327 182.845 45.6033 182.473 45.4393 182.233C45.3269 182.068 45.2416 182.317 45.3207 182.525C45.4165 182.77 45.5868 183.158 45.7983 183.617C45.5879 183.85 45.6222 183.87 45.4118 184.103C45.2287 184.306 45.39 184.727 45.5556 184.562C45.7121 184.407 45.8656 184.247 46.0184 184.092C46.2477 184.58 46.5127 185.126 46.782 185.669C46.2958 186.097 46.015 186.371 45.4988 186.777C45.3009 186.932 45.4673 187.275 45.6343 187.148C46.0879 186.804 46.5428 186.453 46.9982 186.098C47.2545 186.605 47.5095 187.097 47.7434 187.533C47.4492 187.82 47.1617 188.112 46.8944 188.418C46.7235 188.616 47.1031 188.801 47.2663 188.651C47.5017 188.426 47.7469 188.21 47.9964 187.991C48.2093 188.371 48.3963 188.679 48.5283 188.862C48.7162 189.118 49.251 189.132 49.1054 188.801C49.0011 188.562 48.7756 188.12 48.4887 187.571C48.9834 187.158 49.4928 186.749 50.009 186.343C50.2852 186.82 50.573 187.295 50.8693 187.763C50.375 188.149 49.8813 188.532 49.3772 188.909C49.1932 189.048 49.5478 189.225 49.7014 189.111C50.1649 188.777 50.6388 188.447 51.1089 188.117C51.3253 188.453 51.5459 188.785 51.7787 189.112C51.947 189.35 52.3888 189.079 52.1994 188.763C51.9565 188.359 51.8768 188.155 51.6344 187.748C52.0749 187.439 52.508 187.13 52.9355 186.808C52.9417 186.817 52.9472 186.829 52.9534 186.837C53.0925 187.093 53.5096 186.765 53.3782 186.463C53.6102 186.282 53.5699 186.276 53.6359 186.192C53.8637 185.898 53.8406 185.459 53.5367 185.643C53.3702 185.744 53.2371 185.824 53.0938 185.943C52.8255 185.464 52.5572 184.985 52.2968 184.504C52.8225 184.063 53.3348 183.612 53.8195 183.145C53.9616 183.382 54.0895 183.591 54.1848 183.745C54.3409 183.988 54.7382 183.714 54.5556 183.426C54.4247 183.213 54.3004 183.005 54.1768 182.793C54.662 182.301 54.9041 181.964 55.3037 181.42C55.4811 181.182 55.3036 180.815 55.1407 181.033C54.8138 181.476 54.2837 181.898 53.8968 182.294C53.6001 181.758 53.3224 181.221 53.0477 180.688C53.5389 180.181 54.0167 179.665 54.4773 179.138C54.7851 179.582 55.0515 180.05 55.4 180.474C55.5571 180.665 55.8603 180.345 55.6682 180.115C55.2854 179.648 55.1134 179.293 54.764 178.805C55.0518 178.464 55.3366 178.12 55.6104 177.773C55.8117 177.806 56.0106 177.83 56.212 177.863L56.2102 177.874ZM51.8061 177.231C51.6387 177.406 51.4671 177.585 51.2997 177.761C51.1302 177.531 50.9529 177.303 50.7602 177.077C51.1081 177.133 51.4576 177.178 51.8061 177.231ZM49.9489 180.056C50.3825 179.604 50.8192 179.156 51.2522 178.708C51.5328 179.204 51.854 179.774 52.1826 180.345C51.7283 180.809 51.2783 181.27 50.8271 181.738C50.5346 181.177 50.2415 180.618 49.9489 180.056ZM50.4845 182.093C50.0387 182.55 49.5929 183.008 49.1368 183.46C48.8346 182.912 48.5397 182.365 48.2576 181.808C48.7136 181.334 49.1727 180.863 49.6287 180.388C49.9128 180.956 50.2004 181.525 50.4845 182.093ZM49.1699 176.805C49.5532 176.875 49.937 176.94 50.3245 177.007C50.3185 177.021 50.5617 177.469 50.9383 178.139C50.5089 178.588 50.0796 179.037 49.6497 179.49C49.3301 178.886 49.0075 178.278 48.6769 177.672C48.8488 177.422 49.0145 177.163 49.1631 176.894C49.1794 176.863 49.1805 176.833 49.1736 176.806L49.1699 176.805ZM48.8019 176.735C48.8019 176.735 48.7849 176.747 48.7801 176.754C48.6731 176.928 48.5562 177.093 48.44 177.255C48.3181 177.032 48.1926 176.809 48.0671 176.586C48.3106 176.637 48.5547 176.684 48.8025 176.731L48.8019 176.735ZM46.9243 179.013C46.4967 178.031 46.1086 177.036 45.7711 176.032C46.378 176.205 46.9928 176.353 47.6056 176.489C47.6027 176.507 47.6095 176.535 47.6243 176.56C47.8132 176.902 47.9979 177.247 48.1827 177.593C47.7907 178.089 47.3627 178.554 46.9206 179.012L46.9243 179.013ZM47.1667 179.559C47.6037 179.062 48.034 178.56 48.4197 178.033C48.73 178.624 49.0355 179.222 49.338 179.815C48.885 180.294 48.4321 180.773 47.9822 181.257C47.7012 180.693 47.4276 180.131 47.1667 179.559ZM46.3678 183.742C46.8797 183.224 47.3879 182.705 47.8925 182.185C47.9227 182.254 47.9566 182.323 47.9905 182.393C48.2175 182.895 48.4524 183.395 48.6958 183.889C48.2184 184.357 47.7311 184.815 47.2341 185.265C46.9399 184.736 46.6415 184.211 46.3672 183.746L46.3678 183.742ZM48.2294 187.082C47.998 186.654 47.7431 186.184 47.4815 185.71C47.9861 185.307 48.4888 184.892 48.9884 184.473C49.2225 184.932 49.4656 185.38 49.7161 185.83C49.2073 186.237 48.7083 186.652 48.2294 187.082ZM49.4758 184.06C49.9426 183.658 50.4069 183.248 50.8608 182.833C51.1109 183.332 51.369 183.828 51.6234 184.324C51.1704 184.686 50.7107 185.044 50.2547 185.403C49.9963 184.955 49.73 184.51 49.4801 184.057L49.4758 184.06ZM52.6702 186.311C52.2489 186.663 51.8251 187.008 51.3982 187.349C51.1147 186.871 50.8305 186.397 50.547 185.919C50.9945 185.567 51.4463 185.212 51.8877 184.851C52.1432 185.339 52.4067 185.825 52.6702 186.311ZM53.5317 182.671C53.0555 183.131 52.5486 183.571 52.0253 183.998C51.7569 183.496 51.4921 182.995 51.2279 182.49C51.7054 182.045 52.1738 181.587 52.6353 181.125C52.9553 181.68 53.2641 182.21 53.5354 182.671L53.5317 182.671ZM52.6192 179.898C52.3237 179.354 52.0161 178.816 51.6622 178.286C51.9593 177.98 52.2528 177.675 52.5531 177.374C52.5622 177.364 52.5639 177.353 52.573 177.343C52.7707 177.375 52.9685 177.407 53.1673 177.431C53.4424 177.799 53.726 178.16 54.0089 178.525C53.5375 178.979 53.0771 179.434 52.6229 179.898L52.6192 179.898ZM54.3111 178.236C54.1098 177.993 53.9086 177.75 53.7073 177.507C54.1039 177.564 54.5036 177.625 54.9039 177.682C54.7048 177.867 54.5064 178.049 54.3111 178.236Z" fill="#D38442"/>
<path d="M62.1416 163.126C60.9731 159.774 56.9678 158.103 53.7225 157.541C50.7292 157.025 46.9577 157.513 45.1877 160.218C43.2932 163.113 43.5533 166.716 44.7286 169.839C43.5966 170.825 42.4208 172.525 44.3501 173.396C45.3236 173.835 46.2436 173.348 46.9904 172.748C47.107 172.654 47.2107 172.546 47.3211 172.444C47.4348 173.206 47.8991 173.845 48.9059 174.007C49.7919 174.15 50.3651 173.694 50.7666 173.045C51.2446 173.855 51.9647 174.467 53.0406 174.528C53.8596 174.573 54.414 174.257 54.787 173.761C55.4444 175.066 56.4688 176.027 58.3189 175.853C60.4634 175.646 59.9986 173.148 59.3937 171.589C62.171 169.742 63.2364 166.259 62.1452 163.127L62.1416 163.126Z" fill="#C0E6ED"/>
<path d="M64.1329 148.372C62.9317 145.293 60.0196 143.504 56.8361 142.863C53.4268 142.178 49.8483 143.332 47.7461 146.047C45.6681 148.728 45.1191 153.599 47.2854 156.424C45.4638 157.516 43.5066 159.518 45.7 160.988C46.9812 161.848 48.5071 160.866 49.6678 159.655C49.7166 161.192 50.246 162.754 51.7933 162.85C53.2625 162.94 54.1376 162.033 54.7188 160.876C55.1576 161.905 55.9253 162.735 57.1833 162.9C58.0113 163.008 58.5372 162.728 58.8621 162.251C59.4157 163.058 60.1745 163.593 61.1839 163.437C64.0173 162.989 62.9115 159.621 61.686 157.74C64.0453 155.341 65.3946 151.588 64.1409 148.369L64.1329 148.372Z" fill="#F9BE2B"/>
<path d="M53.8194 142.384C53.1796 142.927 52.4735 143.391 51.8773 143.99C51.6753 144.194 51.1944 143.985 51.4363 143.72C52.0007 143.108 52.6799 142.624 53.2922 142.066C53.5482 141.829 54.1295 142.114 53.8157 142.383L53.8194 142.384ZM57.1786 143.403C56.8131 142.991 56.2907 142.666 55.8114 142.401C55.6701 142.322 55.4822 142.299 55.3572 142.421C55.2414 142.534 55.2929 142.704 55.4152 142.784C55.8636 143.078 56.2298 143.486 56.6885 143.763C56.9453 143.917 57.4583 143.718 57.1786 143.403ZM56.6846 146.535C56.5962 145.848 56.2912 145.108 55.9199 144.522C55.7072 144.187 55.1513 144.327 55.3838 144.725C55.7289 145.31 55.8055 145.976 56.1031 146.576C56.2196 146.809 56.7298 146.907 56.684 146.539L56.6846 146.535ZM60.5699 143.781C60.4695 143.588 60.2364 143.543 60.039 143.579C59.408 143.695 58.8393 144.076 58.302 144.403C57.8899 144.652 58.4262 145.077 58.7661 144.902C59.3183 144.623 59.8934 144.412 60.4462 144.152C60.5849 144.084 60.6389 143.912 60.5699 143.781ZM61.6579 146.886C61.6239 146.445 61.2261 146.047 60.995 145.686C60.8205 145.418 60.2056 145.48 60.374 145.857C60.4573 146.039 60.5448 146.219 60.6323 146.398C60.7272 146.601 60.7905 146.814 60.9104 147.003C61.0911 147.28 61.6887 147.301 61.6548 146.882L61.6579 146.886ZM57.9931 148.553C58.5716 148.297 59.1543 148.038 59.6688 147.666C59.9112 147.491 59.7915 146.976 59.4663 147.175C58.9746 147.475 58.4299 147.662 57.8882 147.852C57.514 147.983 57.5965 148.729 57.9931 148.553ZM54.2936 147.058C53.8385 146.782 53.4429 146.44 53.0806 146.055C52.8433 145.802 52.2568 146.038 52.5486 146.348C52.9459 146.773 53.3844 147.152 53.8841 147.454C54.0278 147.541 54.2321 147.555 54.3571 147.433C54.473 147.32 54.4275 147.136 54.2942 147.055L54.2936 147.058ZM56.8955 150.652C56.7243 150.084 56.4153 149.508 56.0827 148.985C55.8909 148.683 55.3548 148.886 55.5301 149.29C55.8096 149.932 56.0176 150.297 56.1495 150.69C56.2709 151.055 57.0159 151.047 56.8961 150.649L56.8955 150.652ZM51.7664 149.288C51.5956 149.042 51.5264 148.749 51.4049 148.478C51.2575 148.157 50.5966 148.272 50.7601 148.656C50.8743 148.926 50.9356 149.221 51.0979 149.473C51.2005 149.628 51.3911 149.704 51.5756 149.655C51.7211 149.615 51.8732 149.44 51.7664 149.288ZM62.045 149.703C61.8925 150.042 61.7321 150.385 61.6584 150.748C61.5882 151.09 62.265 151.203 62.3284 150.856C62.3841 150.535 62.5185 150.237 62.6462 149.935C62.7859 149.604 62.1837 149.402 62.0493 149.699L62.045 149.703ZM49.7834 145.606C49.3152 145.737 48.9103 146.081 48.5271 146.361C48.2246 146.582 48.7661 146.952 49.0194 146.778C49.3864 146.529 49.7634 146.335 50.1476 146.119C50.5233 145.909 50.0902 145.52 49.7834 145.606ZM50.0992 144.067C49.7355 143.9 49.3569 143.779 48.9993 143.597C48.7492 143.47 48.4436 143.782 48.7183 143.965C49.0536 144.192 49.4311 144.459 49.8208 144.582C50.2214 144.707 50.5435 144.271 50.0992 144.067ZM63.1398 146.014C63.0872 145.735 62.5396 145.729 62.579 146.043C62.6473 146.622 62.6216 147.2 62.6064 147.783C62.5938 148.187 63.3209 148.244 63.2992 147.82C63.2729 147.215 63.2539 146.611 63.1398 146.014Z" fill="#995619"/>
<path d="M124.861 62.8604C123.649 62.1751 117.532 60.2723 115.802 60.1062C115.343 60.0626 114.706 60.384 114.538 60.7521C113.879 62.1889 112.772 71.8378 112.47 74.4175C112.402 74.997 112.685 75.5803 113.227 75.8652C114.72 76.6492 116.652 77.0727 118.096 77.3432C118.636 77.4416 119.188 77.2228 119.637 76.3773C121.361 73.1254 123.559 68.7256 125.334 64.7845C125.562 64.2759 125.673 63.3183 124.861 62.8604Z" fill="#F7BA84"/>
<path d="M124.331 66.6849C124.761 66.8127 124.906 66.3257 124.475 66.2014C121.04 65.2114 117.533 64.4865 114.231 63.0873C114.069 63.0198 113.909 63.0767 113.85 63.1714C113.788 63.184 113.744 63.2288 113.752 63.3048C113.895 64.531 114.213 65.7362 114.584 66.9373C113.978 67.4266 113.642 67.6477 113.117 68.2153C112.894 68.4585 113.108 69.0639 113.317 68.8552C113.749 68.4186 114.301 67.9405 114.768 67.5297C114.958 68.1242 115.154 68.7162 115.341 69.3097C114.761 69.7911 114.183 70.2771 113.607 70.7596C113.401 70.2805 113.221 69.8828 113.089 69.6231C112.999 69.4454 112.882 69.6815 112.934 69.8981C112.998 70.153 113.117 70.5598 113.267 71.0418C113.029 71.2456 113.06 71.2704 112.822 71.4742C112.614 71.6523 112.72 72.09 112.905 71.9478C113.08 71.8141 113.253 71.6759 113.425 71.5412C113.589 72.0544 113.782 72.6301 113.979 73.2032C113.442 73.5659 113.128 73.8015 112.564 74.1369C112.348 74.266 112.469 74.6269 112.651 74.5224C113.145 74.2398 113.641 73.9501 114.138 73.6568C114.327 74.1927 114.517 74.7133 114.693 75.1757C114.364 75.4224 114.042 75.6747 113.737 75.944C113.542 76.1183 113.895 76.3507 114.076 76.2227C114.338 76.0299 114.609 75.8473 114.885 75.6622C115.047 76.0664 115.193 76.3961 115.3 76.5943C115.454 76.8721 115.982 76.9556 115.88 76.6081C115.808 76.3582 115.641 75.8908 115.427 75.3088C115.971 74.9636 116.529 74.6225 117.093 74.2872C117.305 74.7953 117.53 75.3031 117.763 75.8058C117.223 76.1251 116.685 76.4409 116.136 76.7499C115.936 76.8645 116.265 77.086 116.432 76.9925C116.934 76.7202 117.447 76.4545 117.955 76.1879C118.127 76.5484 118.303 76.9063 118.492 77.2603C118.628 77.5175 119.101 77.306 118.954 76.9682C118.765 76.5368 118.712 76.3238 118.524 75.8888C119 75.6396 119.47 75.3883 119.935 75.1242C119.94 75.1335 119.944 75.1462 119.949 75.1555C120.054 75.4266 120.51 75.1558 120.418 74.8385C120.672 74.6893 120.633 74.6777 120.709 74.6036C120.972 74.3415 121.006 73.9027 120.681 74.046C120.503 74.1246 120.361 74.1868 120.203 74.287C119.999 73.7774 119.794 73.2678 119.598 72.7568C120.176 72.387 120.742 72.0058 121.283 71.6055C121.393 71.8588 121.493 72.082 121.568 72.2473C121.691 72.5085 122.121 72.2878 121.977 71.9781C121.874 71.7503 121.778 71.5282 121.682 71.3025C122.227 70.8763 122.51 70.5736 122.976 70.0854C123.183 69.8721 123.054 69.4856 122.864 69.6807C122.483 70.0781 121.903 70.4281 121.469 70.7709C121.243 70.201 121.037 69.6329 120.833 69.0693C121.385 68.6299 121.926 68.1791 122.45 67.716C122.698 68.196 122.902 68.6938 123.193 69.1595C123.325 69.3687 123.666 69.0911 123.506 68.8383C123.186 68.3254 123.061 67.9517 122.777 67.4224C123.106 67.1218 123.433 66.8165 123.749 66.5081C123.945 66.5662 124.139 66.6161 124.334 66.6742L124.331 66.6849ZM120.046 65.4811C119.858 65.6339 119.665 65.7893 119.476 65.9422C119.337 65.6921 119.191 65.4435 119.029 65.1942C119.367 65.2946 119.708 65.3843 120.046 65.4811ZM117.841 68.0447C118.329 67.652 118.82 67.2639 119.307 66.8747C119.522 67.4028 119.767 68.0096 120.019 68.6185C119.509 69.0201 119.004 69.4193 118.496 69.8255C118.278 69.2307 118.059 68.6395 117.841 68.0447ZM118.111 70.1327C117.61 70.5294 117.109 70.926 116.598 71.316C116.369 70.7333 116.147 70.1527 115.939 69.5646C116.452 69.1523 116.968 68.7446 117.481 68.3323C117.69 68.9321 117.902 69.5329 118.111 70.1327ZM117.487 64.7204C117.858 64.8384 118.23 64.9529 118.606 65.0685C118.598 65.0816 118.782 65.5579 119.069 66.2701C118.585 66.6603 118.102 67.0505 117.617 67.4442C117.378 66.8044 117.136 66.1599 116.886 65.5169C117.089 65.2908 117.287 65.0555 117.468 64.8078C117.489 64.779 117.494 64.7495 117.49 64.7214L117.487 64.7204ZM117.131 64.603C117.131 64.603 117.112 64.613 117.107 64.6191C116.978 64.7782 116.841 64.927 116.705 65.0723C116.613 64.8359 116.517 64.5985 116.421 64.3611C116.656 64.4426 116.892 64.5205 117.132 64.5994L117.131 64.603ZM114.976 66.6205C114.678 65.5919 114.421 64.556 114.216 63.5161C114.795 63.7657 115.386 63.9915 115.976 64.2056C115.971 64.2234 115.974 64.2515 115.985 64.2781C116.129 64.6418 116.268 65.008 116.406 65.3743C115.954 65.8163 115.47 66.2218 114.972 66.6195L114.976 66.6205ZM115.146 67.1934C115.643 66.757 116.135 66.3149 116.585 65.8413C116.817 66.4673 117.043 67.0994 117.266 67.7268C116.756 68.1438 116.245 68.5607 115.736 68.9822C115.53 68.387 115.331 67.794 115.146 67.1934ZM113.816 71.2396C114.39 70.7913 114.961 70.3419 115.528 69.8914C115.549 69.9635 115.574 70.0366 115.599 70.1097C115.759 70.6371 115.928 71.1632 116.106 71.6842C115.572 72.0866 115.03 72.4787 114.479 72.8606C114.256 72.2988 114.027 71.7396 113.815 71.2432L113.816 71.2396ZM115.233 74.7907C115.058 74.3365 114.866 73.8382 114.667 73.3343C115.22 72.9993 115.772 72.6526 116.321 72.3013C116.494 72.7861 116.677 73.2624 116.868 73.7407C116.311 74.0782 115.763 74.4259 115.233 74.7907ZM116.857 71.954C117.372 71.6155 117.885 71.2689 118.389 70.9156C118.573 71.4423 118.765 71.9675 118.953 72.4917C118.457 72.7932 117.955 73.0889 117.457 73.3858C117.258 72.9089 117.052 72.4334 116.862 71.9515L116.857 71.954ZM119.736 74.5969C119.273 74.8926 118.808 75.1801 118.341 75.4629C118.121 74.9527 117.9 74.446 117.681 73.9358C118.17 73.6439 118.663 73.3496 119.148 73.0486C119.338 73.5656 119.537 74.0813 119.736 74.5969ZM121.058 71.0977C120.527 71.493 119.968 71.8646 119.394 72.2203C119.192 71.6883 118.994 71.1574 118.797 70.6229C119.327 70.2429 119.851 69.849 120.368 69.4495C120.614 70.041 120.852 70.607 121.062 71.0988L121.058 71.0977ZM120.51 68.2304C120.287 67.6533 120.051 67.0803 119.768 66.5087C120.102 66.2443 120.432 65.9788 120.769 65.719C120.779 65.7104 120.782 65.6998 120.792 65.6912C120.984 65.7483 121.176 65.8053 121.37 65.8553C121.596 66.255 121.831 66.6498 122.064 67.0481C121.539 67.4373 121.024 67.8298 120.513 68.2314L120.51 68.2304ZM122.401 66.8C122.233 66.5333 122.065 66.2666 121.896 65.9999C122.282 66.1069 122.671 66.2185 123.06 66.3266C122.839 66.4852 122.619 66.6403 122.401 66.8Z" fill="#D38442"/>
<path d="M132.112 52.8213C131.384 49.3473 127.627 47.1745 124.48 46.2007C121.578 45.3035 117.775 45.3029 115.672 47.7576C113.421 50.3849 113.216 53.9917 113.98 57.2404C112.731 58.0723 111.346 59.6069 113.147 60.7187C114.056 61.2791 115.031 60.9149 115.849 60.4152C115.977 60.337 116.093 60.244 116.216 60.1567C116.231 60.9271 116.609 61.6199 117.587 61.9104C118.447 62.1661 119.074 61.7876 119.556 61.1956C119.926 62.06 120.561 62.7596 121.62 62.9583C122.427 63.1089 123.017 62.8666 123.451 62.4229C123.935 63.8009 124.827 64.8863 126.684 64.9508C128.838 65.022 128.698 62.485 128.298 60.8613C131.29 59.3865 132.794 56.0691 132.115 52.8223L132.112 52.8213Z" fill="#C0E6ED"/>
<path d="M135.982 38.4446C135.186 35.2368 132.528 33.0889 129.454 32.0436C126.161 30.9256 122.464 31.6104 120.03 34.0326C117.624 36.4244 116.454 41.1835 118.239 44.2637C116.292 45.1127 114.094 46.8465 116.08 48.5859C117.24 49.6038 118.879 48.8259 120.186 47.775C120.037 49.3053 120.361 50.9222 121.883 51.2159C123.328 51.4946 124.313 50.7078 125.038 49.6349C125.341 50.7115 125.996 51.6334 127.222 51.9592C128.029 52.172 128.587 51.9624 128.97 51.5309C129.415 52.4022 130.099 53.031 131.12 53.0056C133.988 52.9254 133.324 49.4434 132.351 47.4208C134.999 45.3448 136.819 41.7964 135.99 38.4431L135.982 38.4446Z" fill="#F9BE2B"/>
<path d="M126.523 31.1827C125.819 31.6388 125.059 32.0088 124.391 32.5259C124.164 32.7023 123.714 32.4332 123.988 32.2012C124.627 31.6675 125.362 31.2748 126.041 30.7996C126.326 30.5978 126.866 30.9555 126.52 31.1816L126.523 31.1827ZM129.724 32.6252C129.414 32.1695 128.938 31.7803 128.497 31.4557C128.367 31.3591 128.183 31.3123 128.044 31.4178C127.914 31.5148 127.943 31.6898 128.055 31.7847C128.461 32.1339 128.772 32.5861 129.191 32.9196C129.426 33.1055 129.961 32.9741 129.724 32.6252ZM128.831 35.6678C128.832 34.9755 128.625 34.202 128.332 33.5733C128.164 33.2139 127.594 33.2807 127.774 33.7054C128.041 34.3303 128.031 35.0006 128.249 35.6341C128.335 35.8801 128.828 36.0422 128.83 35.6714L128.831 35.6678ZM133.038 33.4361C132.964 33.2321 132.738 33.1573 132.538 33.1675C131.897 33.2014 131.284 33.5067 130.709 33.7615C130.269 33.9555 130.746 34.4455 131.105 34.3164C131.689 34.1106 132.286 33.9748 132.868 33.7879C133.014 33.7385 133.09 33.5752 133.038 33.4361ZM133.718 36.6559C133.741 36.2139 133.398 35.7676 133.215 35.3805C133.076 35.0917 132.459 35.0745 132.577 35.4695C132.636 35.6612 132.7 35.8504 132.764 36.0396C132.832 36.2532 132.867 36.4727 132.962 36.6749C133.105 36.9729 133.695 37.0709 133.715 36.6513L133.718 36.6559ZM129.869 37.8373C130.476 37.6578 131.087 37.4758 131.645 37.1735C131.908 37.0311 131.856 36.5048 131.507 36.6605C130.981 36.8949 130.417 37.0097 129.855 37.129C129.467 37.211 129.453 37.9613 129.869 37.8373ZM126.393 35.8794C125.977 35.5469 125.629 35.1571 125.319 34.7284C125.116 34.4476 124.504 34.6062 124.753 34.9512C125.093 35.4234 125.479 35.8555 125.936 36.2195C126.067 36.3243 126.268 36.3646 126.408 36.2591C126.537 36.1621 126.515 35.9739 126.394 35.8759L126.393 35.8794ZM128.511 39.7782C128.414 39.1923 128.182 38.5816 127.919 38.02C127.768 37.6964 127.21 37.8285 127.332 38.2516C127.527 38.9246 127.686 39.3125 127.766 39.7194C127.84 40.0972 128.58 40.1855 128.512 39.7746L128.511 39.7782ZM123.6 37.7654C123.462 37.5 123.431 37.2006 123.345 36.916C123.24 36.5791 122.57 36.6082 122.683 37.0093C122.762 37.2919 122.784 37.5927 122.913 37.863C122.995 38.0305 123.174 38.1302 123.363 38.1052C123.513 38.0839 123.686 37.9303 123.6 37.7654ZM133.74 39.4983C133.545 39.8157 133.342 40.1345 133.222 40.4858C133.108 40.8157 133.765 41.0147 133.873 40.6791C133.969 40.3673 134.141 40.0895 134.306 39.8059C134.487 39.4961 133.916 39.218 133.744 39.4958L133.74 39.4983ZM122.107 33.8589C121.626 33.9287 121.18 34.2179 120.764 34.4464C120.435 34.6273 120.925 35.063 121.198 34.9237C121.594 34.7241 121.993 34.5796 122.402 34.4148C122.801 34.255 122.422 33.8133 122.107 33.8589ZM122.618 32.3742C122.279 32.1612 121.919 31.9924 121.587 31.7662C121.356 31.6084 121.013 31.8778 121.261 32.0949C121.565 32.363 121.905 32.6769 122.275 32.8489C122.657 33.0241 123.032 32.6328 122.618 32.3742ZM135.3 35.9808C135.283 35.6974 134.741 35.6213 134.74 35.9382C134.733 36.5204 134.633 37.0905 134.543 37.6672C134.479 38.066 135.193 38.2161 135.226 37.7926C135.277 37.189 135.336 36.5874 135.3 35.9808Z" fill="#995619"/>
<path d="M34.3104 112.048C34.2224 111.745 33.9306 111.633 33.6395 111.657C33.574 111.604 33.483 111.571 33.3679 111.567C32.021 111.531 30.6256 111.951 29.2933 112.197C27.7098 112.492 26.1206 112.762 24.5372 113.058C21.8273 113.568 18.4849 113.989 16.1105 115.556C15.7108 115.822 15.7795 116.141 16.0171 116.349C15.9919 116.389 15.9785 116.43 15.9819 116.479C16.122 118.767 16.9133 122.029 19.0463 123.214C19.8038 123.635 20.6585 123.847 21.5491 123.934C23.1848 128.601 28.5178 141.248 30.9559 140.028C33.2949 138.857 32.8305 127.031 32.3858 121.614C32.863 121.304 33.3041 120.953 33.6943 120.544C35.9757 118.151 35.1154 114.836 34.3095 112.045L34.3104 112.048Z" fill="#F7BA84"/>
<path d="M32.319 107.02C33.5804 103.52 32.9493 99.373 30.1262 96.7594C27.4364 94.2638 23.1485 94.1398 19.8569 95.3029C16.1782 96.6035 13.6254 99.2759 12.7496 103.084C12.3279 104.926 12.2897 107.217 13.0808 108.973C13.5258 109.959 14.3621 111.195 15.4424 111.63C13.5829 113.054 13.3834 115.822 16.0051 116.831C17.5016 117.407 21.3933 117.378 25.7556 116.123C29.6175 115.009 33.1677 114.331 34.7598 111.482C35.9133 109.413 34.2508 107.471 32.3153 107.021L32.319 107.02Z" fill="#ACE5CA"/>
<path d="M29.3902 102.572C29.2979 101.464 28.4139 99.4665 29.2129 99.5853C29.5069 99.7238 29.7901 99.899 30.0765 100.054C30.7509 100.411 31.6629 100.591 32.4386 100.373C31.987 99.0228 31.2237 97.774 30.1298 96.7601C27.44 94.2645 23.1521 94.1405 19.8605 95.3036C16.1818 96.6042 13.629 99.2766 12.7532 103.085C12.6371 103.595 12.5489 104.143 12.501 104.702C12.6961 104.623 12.8927 104.518 13.0827 104.383C13.8254 103.853 14.3878 103.048 14.9233 102.325C15.3125 101.796 15.6068 101.116 16.1794 101.811C16.8811 102.656 17.3652 104.634 18.6321 104.836C20.4369 105.13 21.1112 103.044 21.2724 101.646C21.3368 101.076 21.5227 99.7025 22.3967 100.82C22.8355 101.378 23.0095 102.16 23.232 102.82C23.6297 104 24.1918 105.017 25.1773 105.805C27.4373 107.615 29.5633 104.705 29.3902 102.572Z" fill="#D2F9E5"/>
<path d="M31.9551 121.266C30.2784 122.055 28.485 122.447 26.7104 122.973C25.9055 123.213 23.137 123.599 21.667 123.724C21.5029 123.738 21.3884 123.92 21.521 124.069C22.023 124.62 23.205 124.667 24.4044 124.539C24.5877 124.76 24.7746 124.98 24.9652 125.199C24.5297 125.96 24.095 126.724 23.6933 127.5C23.4079 127.215 23.1217 126.926 22.8318 126.639C22.6689 126.474 22.4659 126.752 22.6412 126.971C22.9663 127.38 23.0472 127.719 23.3887 128.117C23.2899 128.318 23.3982 128.259 23.3039 128.463C23.169 128.756 23.4807 129.073 23.5965 128.83C23.6455 128.728 23.7025 128.627 23.7523 128.529C24.3672 129.226 25.0021 129.91 25.6627 130.574C25.3542 131.074 25.1925 131.4 24.876 131.898C24.7 132.177 25.0225 132.408 25.1767 132.183C25.475 131.739 25.746 131.392 26.0435 130.944C26.8454 131.727 27.675 132.482 28.5241 133.206C28.2237 133.707 27.9366 134.218 27.6842 134.747C27.0544 134.202 26.4237 133.653 25.7839 133.114C25.6187 132.972 25.3828 133.19 25.5127 133.426C25.9742 134.268 26.5074 134.957 27.2892 135.635C27.2169 135.819 27.1446 136.003 27.0811 136.192C27.0006 136.423 27.383 136.466 27.4609 136.273C27.513 136.151 27.5659 136.033 27.6188 135.914C28.3438 136.51 29.1373 137.056 29.9082 137.569C29.6152 138.02 29.3177 138.468 29.0327 138.92C28.7924 139.302 29.3042 139.395 29.5062 139.079C29.7752 138.656 30.0653 138.26 30.3598 137.865C30.7981 138.154 31.223 138.434 31.6238 138.708C31.8366 138.857 32.2866 138.595 32.0282 138.395C31.5928 138.053 31.1675 137.705 30.7414 137.353C31.0295 136.964 31.3124 136.569 31.5705 136.149C31.6507 136.016 31.7282 135.888 31.8028 135.765C31.8799 135.82 31.9542 135.879 32.0313 135.934C32.3478 136.154 32.7941 135.642 32.1581 135.136C32.372 134.723 32.5421 134.3 32.6522 133.78C32.7225 133.437 32.5813 133.268 32.4636 133.47C32.2195 133.902 31.9502 134.339 31.6728 134.775C30.883 134.179 30.1164 133.551 29.3735 132.91C29.8348 132.246 30.3175 131.592 30.7966 130.939C31.3225 131.379 31.8532 131.806 32.3906 132.212C32.6474 132.405 33.1436 132.128 32.8783 131.831C32.3827 131.274 31.8543 130.74 31.3176 130.22C31.7878 129.561 32.2499 128.901 32.666 128.205C32.8424 127.911 32.2665 127.787 32.1132 128.015C31.7102 128.602 31.2883 129.188 30.8664 129.775C30.0436 129 29.1895 128.254 28.331 127.506C28.9076 126.63 29.4877 125.752 30.0606 124.877C30.7677 125.678 31.4941 126.464 32.3473 127.122C32.6385 127.348 33.0018 126.806 32.6582 126.549C31.7401 125.856 31.208 125.156 30.4271 124.314C30.8607 123.645 31.295 122.98 31.7241 122.308C31.9335 122.192 32.1494 122.07 32.3736 121.936C32.9174 121.618 32.476 121.015 31.9543 121.263L31.9551 121.266ZM25.4266 124.402C25.364 124.511 25.2986 124.625 25.236 124.734C25.1443 124.648 25.0561 124.562 24.9672 124.472C25.1224 124.452 25.2759 124.425 25.4266 124.402ZM24.0879 127.897C24.4945 127.143 24.9357 126.407 25.3911 125.684C26.029 126.398 26.6878 127.104 27.3731 127.793C26.9461 128.491 26.5227 129.188 26.0949 129.882C25.4207 129.226 24.7529 128.564 24.0879 127.897ZM31.2925 135.394C31.1304 135.652 30.9712 135.905 30.8192 136.156C30.6468 136.435 30.4699 136.711 30.2931 136.987C29.5365 136.353 28.7891 135.709 28.0454 135.064C28.32 134.549 28.6257 134.053 28.9439 133.563C29.7129 134.202 30.4979 134.81 31.2925 135.394ZM30.322 130.541C29.8517 131.2 29.3868 131.865 28.9513 132.542C28.1186 131.807 27.3035 131.049 26.504 130.276C26.9528 129.607 27.3964 128.932 27.8408 128.261C28.6444 129.052 29.4764 129.817 30.3228 130.545L30.322 130.541ZM27.8232 127.063C27.1113 126.441 26.4031 125.819 25.7141 125.181C25.9225 124.859 26.1389 124.54 26.3517 124.222C26.7431 124.136 27.0786 124.056 27.3173 124.002C27.9051 123.861 28.4165 123.718 28.8948 123.563C29.1225 123.812 29.3474 124.065 29.5687 124.319C28.9762 125.226 28.3935 126.142 27.824 127.066L27.8232 127.063ZM29.9212 123.779C29.7822 123.636 29.6422 123.489 29.5004 123.35C29.8304 123.229 30.15 123.095 30.4698 122.947C30.2813 123.222 30.1017 123.502 29.9176 123.78L29.9212 123.779Z" fill="#D38442"/>
<path d="M34.4553 113.43C33.7619 114.261 32.4492 114.978 31.3642 115.525C29.7263 116.35 27.9617 116.869 26.1924 117.317C23.4668 118.009 19.2285 118.806 16.5046 117.699C16.3119 117.621 15.854 117.831 16.1538 118.029C18.6827 119.717 24.0551 118.606 26.3659 118.08C28.4344 117.61 30.4516 116.93 32.296 115.876C33.3188 115.289 34.4865 114.537 34.8556 113.518C34.9282 113.318 34.5577 113.311 34.4597 113.433L34.4553 113.43Z" fill="#D38442"/>
<path d="M18.1918 97.4418C17.7629 97.0944 17.404 96.6701 16.9742 96.3191C16.769 96.1528 17.1042 95.9206 17.274 96.0151C17.7826 96.295 18.2795 96.6232 18.7026 97.029C19.013 97.3235 18.4571 97.6553 18.191 97.4382L18.1918 97.4418ZM20.7899 94.4168C20.4607 94.8758 20.2277 95.4232 19.9615 95.925C19.8096 96.2105 20.323 96.3106 20.4632 96.1075C20.7847 95.6313 21.1617 95.1652 21.4202 94.6462C21.6026 94.2776 20.9697 94.1706 20.7899 94.4168ZM24.6289 95.5937C24.1399 95.9522 23.7755 96.4572 23.4434 96.9701C23.3308 97.144 23.5881 97.2719 23.7094 97.153C24.1402 96.7394 24.62 96.3907 25.0455 95.9706C25.3461 95.6703 24.9103 95.3928 24.6297 95.5974L24.6289 95.5937ZM24.0829 94.1966C23.6434 94.3878 23.2754 94.7263 22.9934 95.1252C22.8244 95.369 23.2568 95.5977 23.4341 95.4243C23.75 95.1242 24.0413 94.7994 24.3721 94.5149C24.5828 94.3377 24.2583 94.1149 24.0821 94.193L24.0829 94.1966ZM20.926 98.8281C21.2532 98.2935 21.5352 97.7274 21.8624 97.1928C22.0675 96.8571 21.5635 96.6978 21.3866 96.9739C21.0469 97.5037 20.7561 98.0643 20.4164 98.5941C20.192 98.9456 20.7396 99.1292 20.9224 98.829L20.926 98.8281ZM16.5135 97.8387C15.9758 97.6985 15.435 97.5781 14.8879 97.4972C14.6592 97.4617 14.4035 97.8089 14.7048 97.8963C15.2305 98.0506 15.7313 98.279 16.27 98.3733C16.5836 98.4313 16.9135 97.9417 16.5127 97.8351L16.5135 97.8387ZM26.814 94.0471C26.6967 93.8494 26.2524 93.9694 26.3417 94.2116C26.5321 94.7311 26.6044 95.2662 26.8655 95.7621C27.0307 96.0706 27.5883 95.8297 27.4482 95.4813C27.2462 94.9947 27.0813 94.5036 26.814 94.0471ZM26.7625 97.8013C26.473 97.6655 26.1625 97.5878 25.8977 97.3932C25.8064 97.3265 25.7006 97.3125 25.5978 97.3625C25.5087 97.4056 25.4004 97.5481 25.4818 97.6551C25.7016 97.936 25.976 98.1056 26.241 98.3344C26.401 98.4692 26.6415 98.4563 26.7989 98.3293C26.9728 98.1908 26.9843 97.9068 26.7625 97.8013ZM30.1293 95.7311C29.97 95.6494 29.7977 95.7114 29.6809 95.8331C29.3827 96.1443 29.1222 96.504 28.9916 96.933C28.8958 97.2477 29.3691 97.2884 29.4813 97.046C29.652 96.6763 29.9556 96.4057 30.214 96.1035C30.3192 95.9807 30.2664 95.7988 30.1293 95.7311ZM19.4007 101.119C19.2076 100.805 18.883 100.632 18.5828 100.449C18.3439 100.302 17.8799 100.669 18.1653 100.871C18.4144 101.046 18.6623 101.233 18.8918 101.44C19.0886 101.619 19.5815 101.412 19.4007 101.119ZM14.0506 100.555C13.605 100.82 13.3347 101.22 13.0254 101.633C12.8495 101.863 13.2228 102.033 13.3862 101.882C13.713 101.579 14.0282 101.226 14.3909 100.965C14.6843 100.75 14.3166 100.404 14.0551 100.558L14.0506 100.555ZM27.3273 100.887C26.9096 100.772 26.4784 100.699 26.0868 100.499C25.9061 100.407 25.5393 100.65 25.7658 100.827C26.1906 101.157 26.6716 101.382 27.2054 101.371C27.4853 101.364 27.6681 100.98 27.3273 100.887Z" fill="#995619"/>
<path d="M134.022 123.883C134.11 123.58 133.924 123.329 133.665 123.194C133.638 123.113 133.578 123.037 133.483 122.972C132.364 122.222 130.96 121.831 129.703 121.327C128.207 120.73 126.719 120.109 125.223 119.512C122.66 118.495 119.61 117.065 116.766 117.12C116.286 117.131 116.173 117.437 116.263 117.74C116.22 117.761 116.187 117.788 116.164 117.831C115.059 119.84 113.984 123.02 115.154 125.161C115.569 125.922 116.178 126.558 116.884 127.107C115.772 131.926 113.52 145.465 116.232 145.737C118.835 145.998 124.763 135.755 127.283 130.939C127.852 130.932 128.413 130.871 128.961 130.734C132.168 129.93 133.213 126.669 134.024 123.879L134.022 123.883Z" fill="#F7BA84"/>
<path d="M135.028 118.571C137.965 116.286 139.648 112.444 138.659 108.727C137.72 105.18 134.162 102.783 130.758 102.007C126.954 101.14 123.368 102.034 120.592 104.785C119.252 106.116 117.995 108.031 117.725 109.938C117.574 111.01 117.62 112.502 118.3 113.447C115.968 113.656 114.32 115.889 115.996 118.143C116.953 119.43 120.258 121.485 124.615 122.756C128.475 123.879 131.838 125.203 134.706 123.646C136.787 122.514 136.42 119.984 135.025 118.57L135.028 118.571Z" fill="#ACE5CA"/>
<path d="M134.93 113.245C135.444 112.258 135.765 110.098 136.377 110.625C136.551 110.9 136.697 111.199 136.856 111.484C137.235 112.145 137.909 112.785 138.682 113.015C139.022 111.633 139.044 110.169 138.661 108.728C137.722 105.181 134.164 102.784 130.761 102.008C126.956 101.141 123.37 102.035 120.595 104.786C120.224 105.154 119.856 105.571 119.517 106.017C119.724 106.055 119.947 106.071 120.179 106.059C121.09 106.008 121.996 105.628 122.835 105.303C123.447 105.064 124.059 104.647 124.171 105.541C124.313 106.629 123.665 108.56 124.627 109.408C125.996 110.621 127.68 109.218 128.564 108.123C128.923 107.676 129.814 106.614 129.956 108.025C130.028 108.732 129.757 109.486 129.592 110.163C129.298 111.373 129.229 112.533 129.641 113.725C130.584 116.463 133.936 115.139 134.93 113.245Z" fill="#D2F9E5"/>
<path d="M127.105 130.416C125.267 130.186 123.541 129.56 121.76 129.055C120.952 128.828 118.405 127.675 117.096 126.995C116.95 126.919 116.756 127.012 116.788 127.208C116.918 127.943 117.892 128.614 118.974 129.147C119.011 129.431 119.051 129.717 119.095 130.004C118.321 130.414 117.545 130.828 116.79 131.269C116.702 130.876 116.614 130.479 116.523 130.081C116.473 129.854 116.153 129.981 116.184 130.26C116.24 130.779 116.127 131.109 116.203 131.628C116.012 131.745 116.135 131.753 115.946 131.875C115.676 132.051 115.77 132.485 115.998 132.342C116.094 132.281 116.196 132.227 116.29 132.17C116.438 133.088 116.608 134.006 116.812 134.92C116.284 135.177 115.973 135.366 115.439 135.618C115.141 135.76 115.29 136.128 115.541 136.02C116.031 135.804 116.445 135.655 116.936 135.436C117.195 136.527 117.493 137.608 117.824 138.673C117.302 138.937 116.786 139.215 116.29 139.527C116.049 138.73 115.809 137.929 115.557 137.131C115.493 136.923 115.177 136.981 115.161 137.25C115.101 138.209 115.183 139.076 115.481 140.067C115.322 140.183 115.163 140.3 115.008 140.426C114.816 140.579 115.117 140.819 115.285 140.698C115.395 140.622 115.503 140.55 115.611 140.478C115.905 141.37 116.284 142.255 116.661 143.101C116.173 143.325 115.682 143.545 115.199 143.775C114.792 143.969 115.175 144.321 115.514 144.162C115.968 143.949 116.425 143.769 116.884 143.593C117.101 144.071 117.31 144.534 117.503 144.98C117.603 145.22 118.123 145.239 118.011 144.932C117.826 144.41 117.653 143.889 117.481 143.363C117.932 143.189 118.383 143.006 118.825 142.789C118.964 142.72 119.098 142.653 119.227 142.589C119.263 142.676 119.294 142.766 119.33 142.854C119.479 143.209 120.13 143.015 119.863 142.248C120.265 142.012 120.635 141.746 121.005 141.366C121.248 141.113 121.219 140.895 121.012 141.002C120.575 141.237 120.113 141.463 119.646 141.683C119.297 140.757 118.985 139.816 118.7 138.877C119.445 138.563 120.202 138.268 120.956 137.972C121.165 138.625 121.386 139.27 121.623 139.9C121.737 140.2 122.304 140.232 122.238 139.839C122.117 139.104 121.956 138.37 121.781 137.643C122.53 137.338 123.273 137.027 123.997 136.661C124.304 136.506 123.883 136.094 123.631 136.205C122.977 136.485 122.307 136.755 121.637 137.026C121.356 135.931 121.032 134.844 120.707 133.753C121.662 133.321 122.622 132.889 123.574 132.455C123.743 133.511 123.937 134.563 124.307 135.575C124.432 135.922 125.029 135.657 124.876 135.257C124.47 134.181 124.395 133.304 124.184 132.176C124.909 131.842 125.631 131.512 126.353 131.173C126.592 131.187 126.839 131.2 127.101 131.206C127.73 131.228 127.68 130.482 127.106 130.413L127.105 130.416ZM119.911 129.577C119.8 129.636 119.684 129.697 119.573 129.756C119.541 129.635 119.513 129.514 119.486 129.391C119.627 129.457 119.772 129.516 119.911 129.577ZM116.912 131.816C117.658 131.395 118.425 131.01 119.196 130.642C119.353 131.586 119.533 132.535 119.744 133.483C119.01 133.845 118.28 134.208 117.547 134.566C117.328 133.651 117.118 132.734 116.912 131.816ZM118.994 142.003C118.719 142.134 118.449 142.262 118.186 142.394C117.892 142.537 117.595 142.676 117.298 142.815C116.997 141.874 116.71 140.931 116.426 139.988C116.933 139.7 117.456 139.444 117.988 139.199C118.296 140.151 118.634 141.085 118.994 142.003ZM120.767 137.382C120.018 137.688 119.27 138.001 118.54 138.341C118.229 137.274 117.945 136.198 117.682 135.118C118.419 134.792 119.155 134.459 119.889 134.129C120.146 135.227 120.44 136.318 120.766 137.386L120.767 137.382ZM120.515 133.107C120.245 132.201 119.979 131.297 119.738 130.389C120.086 130.229 120.439 130.075 120.79 129.919C121.166 130.056 121.492 130.168 121.723 130.25C122.295 130.445 122.804 130.597 123.291 130.722C123.35 131.054 123.405 131.388 123.456 131.721C122.471 132.171 121.489 132.634 120.513 133.11L120.515 133.107ZM124.043 131.453C124.002 131.257 123.962 131.058 123.917 130.865C124.26 130.94 124.602 130.998 124.952 131.043C124.645 131.174 124.344 131.315 124.04 131.452L124.043 131.453Z" fill="#D38442"/>
<path d="M133.407 125.129C132.377 125.46 130.884 125.365 129.675 125.247C127.849 125.069 126.081 124.565 124.346 123.998C121.672 123.126 117.664 121.534 115.954 119.142C115.833 118.973 115.333 118.906 115.481 119.234C116.716 122.012 121.851 123.944 124.084 124.735C126.084 125.443 128.152 125.947 130.275 126.042C131.453 126.093 132.842 126.081 133.698 125.417C133.866 125.287 133.557 125.084 133.409 125.134L133.407 125.129Z" fill="#D38442"/>
<path d="M128.203 102.924C128.026 102.401 127.95 101.851 127.774 101.324C127.69 101.074 128.097 101.057 128.19 101.228C128.47 101.736 128.715 102.279 128.856 102.848C128.961 103.263 128.313 103.246 128.205 102.92L128.203 102.924ZM132.016 101.756C131.492 101.968 131.003 102.306 130.51 102.588C130.229 102.748 130.609 103.107 130.836 103.01C131.362 102.78 131.93 102.587 132.426 102.287C132.777 102.073 132.3 101.644 132.016 101.756ZM134.632 104.803C134.027 104.844 133.449 105.076 132.894 105.332C132.706 105.419 132.855 105.665 133.021 105.629C133.606 105.51 134.198 105.471 134.782 105.344C135.197 105.251 134.977 104.783 134.63 104.806L134.632 104.803ZM134.917 103.33C134.443 103.257 133.951 103.346 133.5 103.532C133.227 103.648 133.47 104.073 133.712 104.021C134.14 103.936 134.559 103.817 134.991 103.754C135.264 103.717 135.109 103.355 134.918 103.327L134.917 103.33ZM129.773 105.557C130.335 105.28 130.876 104.952 131.439 104.675C131.791 104.501 131.451 104.097 131.154 104.236C130.583 104.502 130.038 104.821 129.468 105.087C129.09 105.264 129.455 105.712 129.77 105.556L129.773 105.557ZM126.573 102.362C126.193 101.957 125.8 101.566 125.381 101.205C125.207 101.053 124.805 101.209 125.013 101.444C125.375 101.856 125.676 102.316 126.081 102.684C126.315 102.901 126.856 102.663 126.574 102.359L126.573 102.362ZM137.305 104.663C137.312 104.434 136.872 104.298 136.818 104.55C136.701 105.091 136.476 105.582 136.432 106.14C136.407 106.489 137.007 106.584 137.074 106.215C137.164 105.695 137.287 105.192 137.305 104.663ZM135.255 107.809C135.083 107.539 134.862 107.308 134.742 107.002C134.701 106.897 134.619 106.828 134.505 106.815C134.407 106.804 134.239 106.867 134.251 107.001C134.286 107.356 134.427 107.646 134.529 107.981C134.592 108.18 134.802 108.298 135.003 108.275C135.224 108.25 135.386 108.017 135.255 107.809ZM139.207 107.859C139.116 107.705 138.937 107.665 138.773 107.705C138.355 107.809 137.943 107.974 137.603 108.266C137.354 108.481 137.732 108.769 137.956 108.624C138.298 108.403 138.7 108.336 139.079 108.219C139.234 108.171 139.287 107.989 139.207 107.859ZM127.26 106.678C127.264 106.309 127.083 105.989 126.927 105.674C126.803 105.422 126.215 105.485 126.348 105.808C126.465 106.089 126.574 106.38 126.658 106.677C126.728 106.934 127.256 107.022 127.26 106.678ZM123.039 103.342C122.521 103.328 122.079 103.521 121.597 103.705C121.325 103.805 121.55 104.148 121.769 104.108C122.207 104.027 122.662 103.897 123.108 103.87C123.471 103.845 123.345 103.356 123.041 103.347L123.039 103.342ZM134.083 110.718C133.791 110.399 133.466 110.106 133.242 109.728C133.138 109.554 132.698 109.563 132.795 109.834C132.978 110.339 133.264 110.786 133.721 111.062C133.961 111.206 134.321 110.98 134.083 110.718Z" fill="#995619"/>
<path d="M107.845 165.073C107.774 164.992 107.673 164.916 107.537 164.86C102.592 162.708 96.1836 166.616 93.7593 170.932C93.1034 172.099 93.9199 172.783 94.9378 172.871C94.9419 172.959 103.883 185.089 109.484 189.901C110.259 190.568 111.805 190.075 111.68 188.881C110.916 181.54 109.972 173.326 108.492 165.86C108.408 165.441 108.153 165.192 107.841 165.075L107.845 165.073Z" fill="#F7BA84"/>
<path d="M107.316 164.983C106.941 166.466 106.62 167.956 106.305 169.444C105.048 168.87 103.814 168.245 102.653 167.472C102.823 166.456 102.989 165.439 103.154 164.422C103.223 163.989 102.548 163.988 102.476 164.352C102.3 165.232 102.13 166.116 101.965 167.002C101.71 166.814 101.272 167.193 101.571 167.422C101.66 167.491 101.758 167.552 101.851 167.62C101.631 168.801 101.412 169.986 101.184 171.168C100.381 170.584 99.581 169.97 98.7794 169.344C98.8902 168.438 98.9878 167.53 99.0556 166.62C99.0809 166.26 98.4565 166.334 98.4015 166.629C98.268 167.345 98.161 168.066 98.0671 168.788C97.9698 168.71 97.8756 168.64 97.7783 168.562C97.5268 168.364 97.091 168.746 97.3845 168.982C97.5823 169.144 97.7816 169.309 97.9793 169.471C97.8121 170.836 97.6664 172.204 97.4531 173.559C96.7196 173.045 95.9985 172.505 95.3015 171.937C95.1247 171.794 94.742 172.062 94.9341 172.247C95.6898 172.967 96.4895 173.659 97.3233 174.318C97.2839 174.533 97.2479 174.746 97.2036 174.959C97.1306 175.303 97.6782 175.302 97.7495 175.016C97.7741 174.91 97.7972 174.801 97.8202 174.693C98.5491 175.25 99.3003 175.784 100.072 176.284C99.8586 177.136 99.6399 177.986 99.3883 178.826C99.2873 179.164 99.8385 179.153 99.9342 178.884C100.191 178.143 100.425 177.396 100.644 176.644C101.746 177.326 102.888 177.953 104.05 178.501C103.779 179.318 103.481 180.127 103.149 180.928C102.145 180.368 101.165 179.747 100.226 179.055C99.9403 178.844 99.4536 179.266 99.7863 179.525C100.752 180.274 101.778 180.979 102.852 181.618C102.752 181.844 102.653 182.07 102.545 182.296C102.395 182.607 102.882 182.712 103.012 182.463C103.113 182.269 103.207 182.074 103.305 181.881C104.311 182.453 105.347 182.966 106.405 183.386C106.125 184.088 105.835 184.792 105.519 185.486C105.448 185.642 105.527 185.748 105.637 185.791C105.549 185.893 105.53 186.029 105.682 186.126C106.665 186.765 107.872 187.26 109.085 187.502C108.857 187.927 108.606 188.338 108.337 188.737C108.143 189.023 108.654 189.207 108.82 188.983C109.13 188.569 109.449 188.102 109.751 187.606C110.252 187.664 110.746 187.679 111.22 187.635C111.612 187.6 111.729 187.059 111.287 186.97C110.923 186.898 110.552 186.866 110.176 186.84C110.609 185.976 110.923 185.05 110.924 184.129C110.924 183.863 110.678 183.81 110.467 183.875C110.436 183.853 110.397 183.83 110.345 183.813C109.329 183.545 108.326 183.226 107.337 182.859C107.723 181.981 108.082 181.082 108.41 180.177C108.827 180.298 109.735 180.748 110.153 180.848C110.633 180.965 111.221 180.25 110.594 180.054C110.134 179.908 109.189 179.415 108.731 179.255C109.045 178.312 109.321 177.358 109.544 176.383C109.657 176.408 109.769 176.438 109.885 176.458C110.202 176.515 110.517 175.988 110.119 175.871C109.971 175.825 109.827 175.778 109.679 175.732C109.843 174.924 109.793 174.244 109.88 173.418C109.926 172.98 109.472 172.847 109.395 173.21C109.237 173.97 109.066 174.72 108.883 175.463C107.951 175.128 107.059 174.732 106.194 174.296C106.546 173.045 106.853 171.778 107.119 170.501C107.793 170.809 108.468 171.118 109.134 171.442C109.473 171.608 109.865 171.07 109.451 170.874C108.721 170.526 107.982 170.203 107.244 169.874C107.558 168.269 107.81 166.655 107.997 165.059C108.05 164.618 107.409 164.629 107.319 164.99L107.316 164.983ZM97.9819 173.922C98.2627 172.643 98.4959 171.349 98.678 170.042C99.4511 170.676 100.229 171.313 101.026 171.928C100.799 173.085 100.556 174.236 100.287 175.383C99.506 174.924 98.7353 174.435 97.9819 173.922ZM100.893 175.735C101.192 174.644 101.457 173.543 101.7 172.437C102.808 173.264 103.944 174.037 105.133 174.686C104.898 175.634 104.642 176.57 104.363 177.502C103.185 176.965 102.029 176.377 100.898 175.737L100.893 175.735ZM110.086 184.453C109.912 185.163 109.792 185.873 109.519 186.561C109.49 186.631 109.456 186.7 109.426 186.767C109.281 186.753 109.135 186.739 108.995 186.718C107.977 186.561 107 186.209 106.096 185.672C106.072 185.655 106.042 185.652 106.014 185.645C106.349 184.974 106.674 184.291 106.991 183.6C108.009 183.97 109.042 184.267 110.084 184.45L110.086 184.453ZM106.704 182.613C105.657 182.2 104.634 181.722 103.636 181.192C104.007 180.407 104.357 179.602 104.681 178.785C105.655 179.22 106.64 179.613 107.636 179.936C107.346 180.835 107.042 181.729 106.704 182.613ZM108.707 176.175C108.469 177.116 108.211 178.049 107.936 178.97C106.965 178.615 106.006 178.223 105.053 177.807C105.378 176.924 105.68 176.023 105.955 175.11C106.843 175.544 107.759 175.912 108.707 176.175ZM105.34 173.838C104.146 173.186 103.001 172.446 101.873 171.657C102.12 170.48 102.338 169.295 102.547 168.106C103.705 168.864 104.931 169.481 106.174 170.061C105.907 171.326 105.635 172.589 105.34 173.838Z" fill="#D38442"/>
<path d="M107.055 159.703C108.447 157.323 107.14 152.773 105.899 151.228C103.024 147.652 97.7975 146.612 93.2366 148.096C89.1596 149.425 85.6505 152.637 84.725 156.702C83.6247 161.535 86.9218 166.011 91.3537 167.674C89.8015 169.887 90.4534 173.915 93.6128 173.85C95.8126 173.806 96.4676 171.175 96.6157 168.861C97.8512 170.148 99.3122 171.268 101.042 170.494C102.528 169.828 102.675 168.296 102.449 166.77C105.176 168.381 108.81 169.012 111.254 166.728C114.062 164.103 109.757 160.468 107.051 159.705L107.055 159.703Z" fill="#FCD2D9"/>
<path d="M87.3585 153.975C86.8513 153.957 86.4019 154.292 86.012 154.58C85.5898 154.894 85.149 155.16 84.8525 155.605C84.6687 155.878 84.8487 156.195 85.1979 156.111C85.7242 155.985 86.1338 155.705 86.5947 155.429C87.0355 155.163 87.563 154.882 87.7094 154.352C87.7723 154.126 87.5476 153.977 87.3536 153.973L87.3585 153.975Z" fill="#DD4737"/>
<path d="M93.7263 155.743C93.4966 155.425 92.937 155.382 92.5726 155.302C92.172 155.214 91.7355 155.216 91.3259 155.153C91.0121 155.102 90.5256 155.516 90.9217 155.762C91.2413 155.957 91.573 156.134 91.9047 156.311C92.3051 156.522 92.8324 156.706 93.2739 156.644C93.7004 156.585 93.9831 156.102 93.723 155.745L93.7263 155.743Z" fill="#DD4737"/>
<path d="M93.4364 150.214C93.2676 150.027 92.8167 150.183 92.7045 150.391C92.6537 150.484 92.6143 150.584 92.5799 150.686C92.4246 150.95 92.3323 151.271 92.2144 151.563C92.0305 152.012 91.8879 152.471 91.7138 152.924C91.5524 153.342 92.0237 153.397 92.2927 153.219C92.4524 153.202 92.6123 153.124 92.6661 152.985C92.7055 152.885 92.7434 152.781 92.7828 152.681C92.9436 152.455 93.0816 152.215 93.2105 151.947C93.3221 151.703 93.4287 151.457 93.5403 151.213C93.6627 150.939 93.8271 150.704 93.678 150.409C93.6311 150.308 93.5383 150.249 93.4346 150.219L93.4364 150.214Z" fill="#DD4737"/>
<path d="M89.067 149.496C88.8611 149.211 88.4156 149.414 88.2311 149.598C87.9595 149.867 87.9828 150.323 87.9194 150.679C87.8479 151.089 87.7597 151.498 87.6783 151.903C87.63 152.143 87.8373 152.316 88.0614 152.314C88.3235 152.315 88.5308 152.145 88.6075 151.905C88.742 151.499 88.8798 151.092 89.0045 150.682C89.1255 150.283 89.3351 149.862 89.067 149.496Z" fill="#DD4737"/>
<path d="M98.7959 149.855C98.0713 150.24 97.7662 151.265 97.3028 151.914C96.8877 152.499 97.7347 152.817 98.1177 152.365C98.3755 152.058 98.6089 151.733 98.8374 151.406C99.0746 151.062 99.4783 150.699 99.5452 150.28C99.6105 149.857 99.1211 149.683 98.7925 149.856L98.7959 149.855Z" fill="#DD4737"/>
<path d="M102.811 148.671C102.472 148.33 102.137 147.986 101.798 147.645C101.45 147.291 100.662 147.821 101.031 148.23C101.311 148.542 101.594 148.852 101.872 149.16C102.168 149.489 102.449 149.918 102.854 150.111C103.193 150.268 103.715 149.977 103.568 149.571C103.434 149.204 103.08 148.943 102.811 148.671Z" fill="#DD4737"/>
<path d="M96.0291 147.332C95.7978 147.24 95.563 147.156 95.3211 147.085C95.2125 147.053 95.0898 147.053 94.9667 147.061C94.9356 147.047 94.9045 147.033 94.8768 147.017C94.7362 146.943 94.5097 147.028 94.3966 147.154C94.2264 147.246 94.143 147.489 94.3319 147.614C94.4834 147.711 94.6246 147.821 94.7709 147.925C94.8814 148.005 95.0326 148.057 95.1821 148.106C95.5314 148.365 95.9065 148.592 96.2923 148.674C96.4316 148.736 96.5622 148.753 96.7621 148.726C97.0104 148.688 97.2163 148.454 97.2084 148.208C97.1959 147.723 96.4079 147.488 96.034 147.334L96.0291 147.332Z" fill="#DD4737"/>
</svg>
