<svg width="150" height="200" viewBox="0 0 150 200" fill="none" xmlns="http://www.w3.org/2000/svg">
<rect width="150" height="200" fill="#D2F4F2"/>
<path d="M99.8069 113.472V151.628C99.8069 152.384 99.193 153 98.4403 153H55.9135C55.1609 153 54.5469 152.384 54.5469 151.628V113.472C54.5469 113.436 54.5479 113.401 54.5508 113.366C54.6013 112.694 55.1381 112.154 55.8085 112.104C55.8432 112.101 55.8778 112.1 55.9135 112.1H98.4403C98.476 112.1 98.5106 112.101 98.5453 112.104C99.2494 112.157 99.8069 112.752 99.8069 113.472Z" fill="#39B54A"/>
<path d="M99.8168 112.104H54.5508V118.74H99.8168V112.104Z" fill="#2B8838"/>
<path d="M81.8103 112.135H72.543V153H81.8103V112.135Z" fill="#FFD000"/>
<path d="M81.8103 113.113H72.543V118.74H81.8103V113.113Z" fill="#BFBF00"/>
<path d="M103.464 102.45V111.623C103.464 112.497 102.761 113.209 101.899 113.209H52.9553C52.0928 113.209 51.3906 112.498 51.3906 111.623V102.45C51.3906 101.574 52.0937 100.863 52.9553 100.863H101.899C102.762 100.863 103.464 101.574 103.464 102.45Z" fill="#39B54A"/>
<path d="M97.4092 90.2507C95.7147 87.0433 91.7535 85.8223 88.5598 87.5235C85.5978 89.0993 78.4368 99.3081 77.4119 100.785C77.4109 100.786 77.4089 100.788 77.4089 100.789C77.3396 100.889 77.299 100.949 77.2901 100.961H77.2891C77.2891 100.961 77.299 100.962 77.3178 100.962H77.3267C77.3643 100.961 77.4317 100.961 77.5228 100.959C78.2209 100.949 80.4036 100.911 83.0111 100.784C87.3427 100.572 92.8508 100.115 94.6937 99.1351C97.8885 97.435 99.1036 93.4571 97.4102 90.2507H97.4092ZM93.0201 98.6311C90.3502 100.053 78.5468 100.291 78.5468 100.291C78.5468 100.291 85.367 90.6175 88.0369 89.1968C90.7058 87.775 93.9837 88.7364 95.3602 91.3413C96.7367 93.9462 95.688 97.2103 93.0201 98.6311Z" fill="#FFCE00"/>
<path d="M77.5574 78.0002C73.9418 77.9753 70.9907 80.8954 70.9649 84.5253C70.9402 87.8908 76.4899 99.065 77.298 100.672C77.298 100.674 77.2989 100.676 77.2999 100.677C77.3554 100.786 77.3881 100.851 77.394 100.864V100.866C77.394 100.866 77.399 100.857 77.4089 100.84L77.4128 100.832C77.4297 100.798 77.4614 100.738 77.5029 100.657C77.8258 100.034 78.828 98.0886 79.9549 95.7244C81.8256 91.7971 84.041 86.7126 84.0558 84.6188C84.0835 80.9888 81.173 78.027 77.5574 78.0002ZM82.8209 85.8576C82.7991 88.892 77.4059 99.4348 77.4059 99.4348C77.4059 99.4348 72.1632 88.8164 72.185 85.782C72.2058 82.7496 74.6043 80.3078 77.5416 80.3287C80.4788 80.3495 82.8427 82.8252 82.8209 85.8576Z" fill="#FFCE00"/>
<path d="M77.5202 100.958C77.5073 100.937 77.4677 100.879 77.4073 100.787C77.4073 100.786 77.4063 100.784 77.4043 100.783C76.4012 99.2768 69.4472 88.9417 66.5189 87.3092C63.3598 85.5454 59.3738 86.6898 57.618 89.8614C55.8622 93.035 57.001 97.0348 60.1601 98.7986C62.2308 99.9529 69.0392 100.525 73.4897 100.782C75.3158 100.888 76.7448 100.939 77.2885 100.958C77.2984 100.958 77.3073 100.958 77.3162 100.959H77.3251C77.4568 100.963 77.5271 100.965 77.5271 100.965C77.5271 100.965 77.5261 100.962 77.5212 100.956L77.5202 100.958ZM61.8436 98.3273C59.2025 96.8548 58.2181 93.5709 59.6451 90.9938C61.0712 88.4148 64.3679 87.52 67.0091 88.9924C69.6502 90.4659 76.2813 100.272 76.2813 100.272C76.2813 100.272 64.4838 99.8007 61.8426 98.3273H61.8436Z" fill="#FFCE00"/>
<path d="M54.9585 103.094C53.3621 100.072 49.6296 98.9211 46.6201 100.524C43.8294 102.008 37.0814 111.627 36.1159 113.019C36.1149 113.02 36.1129 113.022 36.1129 113.023C36.0475 113.118 36.0089 113.174 36.001 113.185H36C36 113.185 36.0099 113.186 36.0277 113.186H36.0357C36.0713 113.185 36.1337 113.185 36.2198 113.183C36.8784 113.173 38.9343 113.138 41.3912 113.018C45.4723 112.819 50.6635 112.389 52.3995 111.464C55.4091 109.863 56.5548 106.114 54.9595 103.093L54.9585 103.094ZM50.8229 110.99C48.3066 112.329 37.1854 112.555 37.1854 112.555C37.1854 112.555 43.6115 103.44 46.1279 102.101C48.6423 100.761 51.732 101.666 53.0284 104.121C54.3257 106.576 53.3373 109.651 50.8229 110.99Z" fill="#FF549C"/>
<path d="M36.2504 91.5509C32.8437 91.5271 30.0619 94.2791 30.0391 97.6993C30.0154 100.87 35.2452 111.399 36.0067 112.913C36.0067 112.915 36.0077 112.917 36.0087 112.917C36.0602 113.02 36.0919 113.081 36.0979 113.093V113.095C36.0979 113.095 36.1028 113.086 36.1117 113.071L36.1157 113.064C36.1315 113.032 36.1612 112.977 36.2008 112.9C36.5049 112.315 37.4496 110.48 38.5112 108.252C40.274 104.552 42.3616 99.7603 42.3754 97.7878C42.4002 94.3676 39.658 91.5768 36.2513 91.5519L36.2504 91.5509ZM41.2088 98.954C41.188 101.813 36.1058 111.747 36.1058 111.747C36.1058 111.747 31.1661 101.742 31.1859 98.8824C31.2057 96.025 33.4656 93.7243 36.2335 93.7442C39.0014 93.7631 41.2286 96.0966 41.2088 98.954Z" fill="#FF549C"/>
<path d="M36.2181 113.184C36.2062 113.166 36.1685 113.11 36.1111 113.023C36.1111 113.022 36.1101 113.02 36.1081 113.019C35.1624 111.601 28.6105 101.862 25.8515 100.324C22.8746 98.6617 19.1184 99.7404 17.4646 102.729C15.8108 105.72 16.8833 109.489 19.8601 111.15C21.811 112.238 28.2263 112.777 32.4192 113.019C34.1404 113.12 35.4862 113.168 35.9982 113.185C36.0081 113.185 36.016 113.185 36.024 113.186H36.0319C36.1567 113.19 36.222 113.192 36.222 113.192C36.222 113.192 36.221 113.189 36.2161 113.184H36.2181ZM21.4456 110.705C18.957 109.318 18.0291 106.223 19.3739 103.794C20.7177 101.364 23.8243 100.521 26.313 101.908C28.8016 103.297 35.0495 112.536 35.0495 112.536C35.0495 112.536 23.9333 112.093 21.4446 110.704L21.4456 110.705Z" fill="#FF549C"/>
<path d="M53.6786 122.654V151.948C53.6786 152.528 53.2072 153 52.6298 153H19.9813C19.403 153 18.9336 152.527 18.9336 151.948V122.654C18.9336 122.074 19.404 121.602 19.9813 121.602H52.6288C53.2072 121.602 53.6776 122.075 53.6776 122.654H53.6786Z" fill="#FFD500"/>
<path d="M53.6806 121.604H18.9297V126.698H53.6806V121.604Z" fill="#FFAE00"/>
<path d="M39.8605 121.406H32.7461V152.724H39.8605V121.406Z" fill="#FF549C"/>
<path d="M39.8644 122.379H32.75V126.699H39.8644V122.379Z" fill="#A60078"/>
<path d="M56.36 114.194V121.237C56.36 121.908 55.8163 122.454 55.1479 122.454H17.2131C16.5437 122.454 16 121.908 16 121.237V114.194C16 113.522 16.5437 112.977 17.2131 112.977H55.1469C55.8154 112.977 56.359 113.522 56.359 114.194H56.36Z" fill="#FFD500"/>
<path d="M40.8303 112.977H31.5273V122.491H40.8303V112.977Z" fill="#FF549C"/>
<path d="M122.083 109.965C120.707 107.359 117.488 106.367 114.893 107.749C112.486 109.029 106.667 117.323 105.834 118.523C105.833 118.524 105.832 118.525 105.832 118.527C105.776 118.609 105.742 118.657 105.735 118.667H105.734C105.734 118.667 105.742 118.668 105.758 118.668H105.765C105.796 118.667 105.85 118.667 105.925 118.666C106.492 118.658 108.266 118.627 110.384 118.524C113.903 118.352 118.379 117.981 119.876 117.185C122.472 115.804 123.459 112.572 122.083 109.966V109.965ZM118.517 116.774C116.348 117.928 106.757 118.123 106.757 118.123C106.757 118.123 112.298 110.264 114.468 109.109C116.637 107.954 119.3 108.735 120.419 110.851C121.537 112.967 120.685 115.619 118.517 116.774Z" fill="#FF549C"/>
<path d="M105.95 100.012C103.012 99.991 100.615 102.364 100.594 105.313C100.574 108.047 105.083 117.127 105.739 118.432C105.739 118.434 105.739 118.435 105.741 118.436C105.786 118.524 105.813 118.577 105.818 118.588V118.59C105.818 118.59 105.822 118.583 105.83 118.569L105.833 118.563C105.846 118.535 105.872 118.488 105.906 118.421C106.168 117.916 106.982 116.334 107.898 114.413C109.418 111.222 111.218 107.091 111.231 105.39C111.253 102.441 108.888 100.034 105.95 100.012ZM110.227 106.396C110.209 108.862 105.827 117.427 105.827 117.427C105.827 117.427 101.567 108.799 101.584 106.334C101.601 103.869 103.55 101.887 105.937 101.903C108.323 101.92 110.243 103.931 110.227 106.395V106.396Z" fill="#FF549C"/>
<path d="M105.923 118.665C105.912 118.648 105.88 118.602 105.831 118.527C105.831 118.526 105.83 118.525 105.829 118.523C105.014 117.299 99.364 108.902 96.9843 107.575C94.4174 106.143 91.1791 107.072 89.7521 109.649C88.326 112.227 89.251 115.478 91.8178 116.911C93.5004 117.849 99.0322 118.313 102.648 118.523C104.132 118.609 105.293 118.651 105.734 118.666C105.742 118.666 105.749 118.666 105.756 118.667H105.763C105.87 118.671 105.928 118.672 105.928 118.672C105.928 118.672 105.927 118.67 105.923 118.665ZM93.1845 116.528C91.0385 115.331 90.2383 112.663 91.398 110.569C92.5566 108.474 95.2354 107.746 97.3814 108.943C99.5274 110.14 104.916 118.107 104.916 118.107C104.916 118.107 95.3305 117.725 93.1845 116.528Z" fill="#FF549C"/>
<path d="M130.687 126.833V152.091C130.687 152.591 130.281 153 129.782 153H82.2127C81.7146 153 81.3086 152.592 81.3086 152.091V126.833C81.3086 126.332 81.7136 125.924 82.2127 125.924H129.782C130.28 125.924 130.687 126.331 130.687 126.833Z" fill="#089ED7"/>
<path d="M130.685 130.319H81.3077L81.3047 125.926H130.685V130.319Z" fill="#0071BC"/>
<path d="M133.002 119.535V125.607C133.002 126.186 132.532 126.657 131.956 126.657H79.828C79.2507 126.657 78.7812 126.186 78.7812 125.607V119.535C78.7812 118.956 79.2507 118.484 79.828 118.484H131.956C132.532 118.484 133.002 118.956 133.002 119.535Z" fill="#089ED7"/>
<path d="M109.17 125.754L109.384 152.973H103.249L103.035 125.754H109.17Z" fill="#FF549C"/>
<path d="M109.174 126.594H103.039V130.318H109.174V126.594Z" fill="#A60078"/>
<path d="M110.007 118.484H101.984V126.689H110.007V118.484Z" fill="#FF549C"/>
<path d="M55.207 120.889C52.7302 120.889 49.4939 120.692 47.844 119.776C46.1803 118.853 44.9692 117.411 44.6047 115.922C44.3582 114.911 44.5047 113.957 45.0296 113.16C46.3576 111.143 49.7722 110.799 52.6431 112.393C55.0891 113.751 57.6897 118.611 58.4285 120.069C58.5067 120.223 58.5017 120.405 58.4166 120.555C58.3304 120.705 58.1759 120.8 58.0036 120.81C57.4282 120.843 56.4072 120.89 55.208 120.89L55.207 120.889ZM48.8839 112.044C47.4638 112.044 46.2249 112.549 45.5812 113.525C45.1603 114.164 45.0454 114.938 45.2475 115.763C45.5683 117.077 46.6596 118.36 48.1649 119.197C50.3941 120.434 56.0983 120.243 57.7333 120.161C57.0291 118.799 54.5326 114.201 52.3242 112.974C51.1982 112.348 49.9871 112.044 48.8849 112.044H48.8839Z" fill="#AA88DE"/>
<path d="M61.0888 120.89C59.8896 120.89 58.8686 120.844 58.2932 120.81C58.1209 120.8 57.9664 120.705 57.8802 120.555C57.7941 120.405 57.7901 120.223 57.8683 120.069C58.6071 118.611 61.2077 113.751 63.6537 112.393C66.5236 110.799 69.9392 111.143 71.2662 113.16C71.7911 113.957 71.9377 114.911 71.6911 115.922C71.3266 117.412 70.1155 118.853 68.4518 119.776C66.8019 120.692 63.5656 120.889 61.0888 120.889V120.89ZM58.5635 120.161C60.1976 120.243 65.9027 120.434 68.1319 119.197C69.6372 118.36 70.7275 117.078 71.0494 115.763C71.2514 114.938 71.1355 114.164 70.7156 113.525C69.5738 111.791 66.5494 111.543 63.9736 112.974C61.7652 114.2 59.2686 118.798 58.5645 120.161H58.5635Z" fill="#AA88DE"/>
<path d="M58.2644 119.834H58.2634C58.0811 119.834 57.9336 119.685 57.9336 119.501C57.9415 117.109 58.4901 114.858 59.4814 113.162C60.5025 111.416 61.875 110.453 63.3466 110.453H63.3575C63.5397 110.453 63.6873 110.602 63.6873 110.786C63.6873 110.969 63.5387 111.116 63.3565 111.116C63.3536 111.116 63.3496 111.116 63.3466 111.116C60.7391 111.116 58.609 114.875 58.5941 119.503C58.5941 119.686 58.4456 119.833 58.2634 119.833L58.2644 119.834Z" fill="#AA88DE"/>
<path d="M58.0793 119.578C57.906 119.578 57.7595 119.442 57.7496 119.266C57.6198 116.993 56.989 114.891 55.972 113.348C54.9916 111.86 53.7715 111.08 52.5445 111.15C52.3653 111.159 52.2058 111.021 52.1959 110.838C52.185 110.655 52.3247 110.498 52.5069 110.488C53.9814 110.403 55.4075 111.289 56.5236 112.982C57.604 114.622 58.2734 116.839 58.4091 119.228C58.42 119.411 58.2804 119.568 58.0981 119.578C58.0922 119.578 58.0853 119.578 58.0793 119.578Z" fill="#AA88DE"/>
<path d="M71.1303 127.73H44.8565C44.3899 127.73 44.0117 128.11 44.0117 128.579V152.153C44.0117 152.621 44.3899 153.001 44.8565 153.001H71.1303C71.5969 153.001 71.9751 152.621 71.9751 152.153V128.579C71.9751 128.11 71.5969 127.73 71.1303 127.73Z" fill="#664B91"/>
<path d="M71.9829 127.732H44.0156V131.833H71.9829V127.732Z" fill="#4D386D"/>
<path d="M60.8588 127.752H55.1328V152.957H60.8588V127.752Z" fill="#AA88DE"/>
<path d="M60.8588 128.355H55.1328V131.832H60.8588V128.355Z" fill="#7F69A0"/>
<path d="M74.2356 121.769V127.437C74.2356 127.976 73.8019 128.416 73.2691 128.416H43.029C42.4963 128.416 42.0625 127.976 42.0625 127.437V121.769C42.0625 121.229 42.4963 120.789 43.029 120.789H73.2691C73.8019 120.789 74.2356 121.229 74.2356 121.769Z" fill="#664B91"/>
<path d="M75.5733 129.668C73.7591 129.668 71.3863 129.523 70.1781 128.852C68.959 128.175 68.0717 127.119 67.8043 126.028C67.6231 125.288 67.7311 124.588 68.1153 124.003C69.0878 122.526 71.5913 122.273 73.6937 123.442C75.4862 124.437 77.3915 127.998 77.9332 129.066C77.9906 129.179 77.9877 129.312 77.9243 129.422C77.8609 129.532 77.748 129.602 77.6223 129.61C77.2004 129.634 76.4527 129.668 75.5733 129.668ZM70.9387 123.185C69.8978 123.185 68.9897 123.555 68.5183 124.271C68.2104 124.739 68.1252 125.306 68.2737 125.91C68.5094 126.873 69.3086 127.813 70.4118 128.426C72.0448 129.333 76.2259 129.193 77.4232 129.133C76.9072 128.134 75.0772 124.764 73.459 123.866C72.6341 123.408 71.7458 123.185 70.9387 123.185Z" fill="black"/>
<path d="M79.8849 129.668C79.0055 129.668 78.2578 129.634 77.8359 129.61C77.7092 129.603 77.5963 129.532 77.5339 129.422C77.4715 129.312 77.4675 129.179 77.525 129.066C78.0667 127.998 79.972 124.437 81.7645 123.442C83.8679 122.273 86.3704 122.526 87.3429 124.003C87.7271 124.587 87.8351 125.287 87.6539 126.028C87.3865 127.119 86.4992 128.175 85.2801 128.852C84.0709 129.523 81.6991 129.668 79.8849 129.668ZM78.035 129.134C79.2333 129.194 83.4134 129.334 85.0464 128.427C86.1496 127.814 86.9488 126.874 87.1845 125.911C87.332 125.307 87.2478 124.739 86.9398 124.272C86.103 123 83.8867 122.819 81.9992 123.867C80.381 124.766 78.5519 128.135 78.035 129.134Z" fill="black"/>
<path d="M77.8119 128.894C77.6783 128.894 77.5703 128.784 77.5703 128.65C77.5763 126.897 77.9783 125.248 78.7042 124.005C79.4519 122.724 80.4581 122.02 81.5365 122.02H81.5444C81.6781 122.02 81.7861 122.129 81.7861 122.263C81.7861 122.397 81.6771 122.506 81.5444 122.506H81.5375C79.6272 122.506 78.0655 125.26 78.0546 128.651C78.0546 128.785 77.9456 128.894 77.8129 128.894H77.8119Z" fill="black"/>
<path d="M77.6784 128.706C77.5507 128.706 77.4447 128.607 77.4368 128.478C77.3417 126.812 76.8793 125.272 76.1345 124.141C75.4156 123.05 74.5223 122.479 73.6231 122.53C73.4914 122.537 73.3755 122.436 73.3676 122.302C73.3597 122.167 73.4617 122.053 73.5954 122.045C74.6758 121.983 75.7206 122.633 76.5386 123.873C77.3298 125.074 77.821 126.7 77.9211 128.45C77.929 128.584 77.827 128.698 77.6933 128.706C77.6883 128.706 77.6834 128.706 77.6794 128.706H77.6784Z" fill="black"/>
<path d="M87.9758 130.36V152.276C87.9758 152.675 87.6986 152.999 87.3579 152.999H68.1033C67.7617 152.999 67.4844 152.675 67.4844 152.276V130.36C67.4844 129.961 67.7617 129.637 68.1033 129.637H87.3579C87.6986 129.637 87.9758 129.961 87.9758 130.36Z" fill="#FF57A1"/>
<path d="M77.9886 152.991L77.5043 152.992L77.4895 141.626L77.4727 129.516H77.9559L77.9728 141.626L77.9886 152.991Z" fill="black"/>
<path d="M87.9758 140.763V141.249L67.4844 141.181V140.695L87.9758 140.763Z" fill="black"/>
<path d="M134.005 75.7581L132.146 73.0483L128.874 73.0835L130.859 70.433L129.843 67.2943L132.929 68.3644L135.572 66.3893L135.494 69.7023L138.145 71.6209L135.011 72.5973L134.005 75.7581Z" fill="#F7D323"/>
<path d="M115.872 98.8745C115.732 98.8433 115.597 98.7773 115.481 98.6756C115.109 98.3478 115.071 97.7754 115.395 97.3958C116.23 96.4202 117.413 96.6326 118.196 96.773C118.906 96.9011 119.184 96.9167 119.324 96.7526C119.464 96.5884 119.409 96.3128 119.185 95.619C118.938 94.8551 118.563 93.6984 119.398 92.7241C120.233 91.7485 121.415 91.9608 122.199 92.1013C122.909 92.2294 123.187 92.245 123.327 92.0808C123.467 91.9167 123.412 91.6411 123.187 90.9473C122.94 90.1834 122.566 89.0267 123.401 88.0523C124.236 87.0767 125.418 87.2891 126.201 87.4295C126.912 87.5564 127.189 87.5732 127.33 87.4091C127.47 87.2449 127.415 86.9694 127.19 86.2743C126.943 85.5104 126.569 84.3537 127.404 83.3781C127.728 82.9985 128.294 82.9561 128.667 83.2827C129.039 83.6105 129.077 84.1828 128.753 84.5624C128.613 84.7266 128.668 85.0021 128.892 85.6972C129.139 86.4612 129.514 87.6178 128.679 88.5934C127.844 89.569 126.661 89.3567 125.878 89.2162C125.168 89.0894 124.89 89.0725 124.75 89.2367C124.609 89.4008 124.664 89.6764 124.889 90.3702C125.136 91.1342 125.511 92.2908 124.676 93.2652C123.841 94.2408 122.659 94.0284 121.875 93.888C121.165 93.7599 120.887 93.7443 120.747 93.9084C120.607 94.0726 120.662 94.3482 120.887 95.042C121.134 95.8059 121.508 96.9626 120.673 97.9369C119.838 98.9125 118.656 98.7002 117.873 98.5597C117.163 98.4316 116.884 98.416 116.744 98.5802C116.519 98.8424 116.181 98.9437 115.87 98.8743L115.872 98.8745Z" fill="#FDA4CD"/>
<path d="M100.64 60.3595C102.097 60.3595 103.279 59.1597 103.279 57.6797C103.279 56.1998 102.097 55 100.64 55C99.1818 55 98 56.1998 98 57.6797C98 59.1597 99.1818 60.3595 100.64 60.3595Z" fill="#FDA4CD"/>
<path d="M128.853 52.7633C129.877 52.7633 130.707 51.9209 130.707 50.8817C130.707 49.8424 129.877 49 128.853 49C127.83 49 127 49.8424 127 50.8817C127 51.9209 127.83 52.7633 128.853 52.7633Z" fill="#FDA4CD"/>
<path d="M115.853 80.7633C116.877 80.7633 117.707 79.9209 117.707 78.8817C117.707 77.8424 116.877 77 115.853 77C114.83 77 114 77.8424 114 78.8817C114 79.9209 114.83 80.7633 115.853 80.7633Z" fill="#F7D323"/>
<path d="M102.801 84.8036L102.662 83.5137C102.795 83.4981 105.91 83.1088 105.645 80.4395C105.616 80.1449 105.559 79.8854 105.482 79.6557C105.059 80.3136 104.546 80.8469 103.979 81.1221C103.123 81.5373 102.061 81.4802 101.206 80.9715C100.547 80.5796 100.146 79.9918 100.107 79.3585C100.021 77.9868 101.478 76.7397 102.79 76.5814C103.609 76.4815 104.463 76.7047 105.179 77.1926C105.35 76.5814 105.431 75.9767 105.383 75.5004C105.323 74.8879 105.143 74.3688 104.893 73.9328C104.291 74.8633 103.428 75.4758 102.524 75.699C101.38 75.9819 100.572 75.6406 100.097 75.3045C99.5086 74.8892 99.0982 74.2469 99.0254 73.6279C98.8988 72.5404 99.2695 71.8656 99.6032 71.4906C100.121 70.9092 100.93 70.5951 101.878 70.6159C102.535 70.6276 103.507 70.9325 104.404 71.5632C104.454 71.1661 104.458 70.7353 104.404 70.2733C104.146 68.0646 100.98 68.3034 100.846 68.3138L100.737 67.0213C102.304 66.8837 105.351 67.3561 105.674 70.1202C105.78 71.0325 105.707 71.8565 105.502 72.5741C106.095 73.2931 106.542 74.2209 106.655 75.372C106.737 76.1999 106.558 77.2393 106.194 78.2165C106.539 78.7252 106.829 79.4078 106.917 80.3097C107.229 83.4722 104.361 84.631 102.8 84.8023L102.801 84.8036ZM103.169 77.8584C103.093 77.8584 103.016 77.8635 102.941 77.8713C102.178 77.9635 101.347 78.7122 101.382 79.2767C101.394 79.4636 101.579 79.6894 101.853 79.8529C102.222 80.0722 102.856 80.2305 103.426 79.9528C103.903 79.7205 104.349 79.1444 104.696 78.4514C104.674 78.4319 104.652 78.4138 104.632 78.3969C104.209 78.0517 103.676 77.8584 103.169 77.8584ZM101.807 71.9136C101.262 71.9136 100.807 72.0758 100.552 72.3626C100.325 72.617 100.238 72.992 100.295 73.476C100.315 73.6473 100.472 73.9912 100.825 74.2404C101.204 74.5077 101.674 74.5752 102.221 74.4389C102.928 74.2637 103.598 73.7239 104.013 72.8882C103.193 72.1939 102.241 71.9201 101.855 71.9136C101.839 71.9136 101.822 71.9136 101.806 71.9136H101.807Z" fill="#65C8D0"/>
<path d="M114.153 57.0013C114.153 57.0013 114.624 58.7052 115.176 59.245C115.727 59.7849 117.309 60.2053 117.309 60.2053C117.309 60.2053 115.756 60.5401 115.161 61.2084C114.564 61.8767 114.155 63.408 114.155 63.408C114.155 63.408 113.92 61.8482 113.259 61.2551C112.598 60.6634 111 60.204 111 60.204C111 60.204 112.568 59.9172 113.243 59.1801C113.918 58.443 114.155 57 114.155 57L114.153 57.0013Z" fill="#FCA51F"/>
<path d="M124.678 60.5624L118.999 72.1754L120.522 71.3551L126.466 61.3445L124.678 60.5624Z" fill="#9F9AF7"/>
<path d="M41.7641 87.1593C42.1699 87.2493 42.6416 87.1303 43.0284 87.0341C43.2257 86.9851 43.5391 86.9059 43.6952 86.9049C43.8962 87.1267 44.2109 87.1798 44.4623 87.012C44.7583 86.8136 44.8518 86.3835 44.6715 86.0509C44.2562 85.2856 43.3798 85.5052 42.7399 85.6653C42.6631 85.684 42.5692 85.7084 42.4738 85.73C42.5359 85.6462 42.5986 85.565 42.6492 85.4989C43.0762 84.9466 43.6612 84.1902 43.2459 83.4249C42.8295 82.6593 41.9532 82.8789 41.3143 83.0393C41.2372 83.0591 41.1436 83.0823 41.0471 83.1037C41.1092 83.02 41.172 82.9387 41.2236 82.8729C41.6505 82.3205 42.2356 81.5642 41.8202 80.7989C41.4041 80.0322 40.5275 80.2528 39.8876 80.413C39.8106 80.4328 39.7159 80.4558 39.6194 80.4772C39.6815 80.3935 39.7455 80.3113 39.7961 80.2452C40.223 79.6929 40.8081 78.9365 40.3917 78.171C40.2104 77.8382 39.8241 77.7275 39.5281 77.9259C39.2778 78.094 39.1717 78.4273 39.2548 78.7276C39.1812 78.8802 38.9715 79.15 38.8403 79.3208C38.4134 79.8731 37.8283 80.6295 38.2447 81.395C38.661 82.1606 39.5374 81.941 40.1763 81.7806C40.2531 81.762 40.348 81.7378 40.4434 81.7162C40.3813 81.7999 40.3186 81.8812 40.2668 81.9482C39.8398 82.5005 39.2548 83.2569 39.6701 84.0222C40.0863 84.7889 40.9628 84.5682 41.6017 84.4078C41.6787 84.388 41.7724 84.3648 41.8689 84.3434C41.8068 84.4271 41.744 84.5084 41.6924 84.5742C41.2654 85.1266 40.6804 85.8829 41.0957 86.6482C41.2607 86.9513 41.4974 87.1001 41.7631 87.159L41.7641 87.1593Z" fill="#FBB03B"/>
<path d="M43.2411 53.9985L46.4727 55.582L44.8831 58.8679L41.6515 57.2844L43.2411 53.9985Z" fill="#F7931E"/>
<path d="M36.2499 78.2918L37.7431 76.7699L39.7262 77.2942L38.8741 75.2224L39.9116 73.2842L37.8918 73.5261L36.5487 71.8033L36.1538 74.0243L34.2865 74.8983L36.0611 76.0293L36.2499 78.2918Z" fill="#9F9AF7"/>
<path d="M22.1028 75.061C22.1028 75.061 22.4995 76.6057 22.3096 77.2761C22.1207 77.9459 21.0709 78.9852 21.0709 78.9852C21.0709 78.9852 22.4367 78.5502 23.2029 78.8058C23.9701 79.061 24.9775 80.0758 24.9775 80.0758C24.9775 80.0758 24.4615 78.7494 24.7125 77.9887C24.9641 77.2289 26.0085 76.1522 26.0085 76.1522C26.0085 76.1522 24.6522 76.6317 23.7931 76.3578C22.934 76.0838 22.1012 75.0606 22.1012 75.0606L22.1028 75.061Z" fill="#FDA4CD"/>
<path d="M46.029 59.6915L48.578 71.79L48.0934 73.4634L44.0745 60.7979L46.029 59.6915Z" fill="#65C8D0"/>
</svg>
