<svg width="150" height="200" viewBox="0 0 150 200" fill="none" xmlns="http://www.w3.org/2000/svg">
<rect width="150" height="200" fill="#D2F4F2"/>
<path d="M121.423 87.9584L112.358 125.023C112.179 125.757 111.436 126.21 110.705 126.031L69.3957 115.927C68.6646 115.749 68.2146 115.004 68.3942 114.27L77.4592 77.2058C77.4677 77.171 77.4769 77.1375 77.4881 77.1044C77.6968 76.4635 78.3465 76.0666 79.0097 76.1766C79.0441 76.182 79.078 76.1893 79.1127 76.1977L120.422 86.301C120.457 86.3095 120.49 86.3187 120.523 86.3298C121.194 86.5492 121.594 87.2592 121.423 87.9584Z" fill="#39B54A"/>
<path d="M121.759 86.6329L77.7891 75.8789L76.2124 82.3254L120.182 93.0794L121.759 86.6329Z" fill="#2B8838"/>
<path d="M104.26 82.3853L95.2578 80.1836L85.5494 119.879L94.5513 122.08L104.26 82.3853Z" fill="#FFD000"/>
<path d="M104.029 83.3364L95.0273 81.1348L93.6907 86.6L102.693 88.8017L104.029 83.3364Z" fill="#BFBF00"/>
<path d="M127.592 78.1216L125.413 87.0318C125.205 87.8807 124.353 88.4052 123.516 88.2005L75.9737 76.5727C75.1358 76.3677 74.6227 75.5104 74.8305 74.6605L77.0097 65.7503C77.2178 64.8995 78.0697 64.376 78.9066 64.5807L126.449 76.2085C127.287 76.4135 127.8 77.2708 127.592 78.1216Z" fill="#39B54A"/>
<path d="M124.612 64.833C123.728 61.3148 120.171 59.1878 116.664 60.0815C113.412 60.9085 104.031 69.1238 102.685 70.3144C102.684 70.3152 102.681 70.3166 102.681 70.3176C102.59 70.3987 102.536 70.447 102.525 70.4564L102.524 70.4562C102.524 70.4562 102.533 70.4595 102.551 70.464L102.56 70.4661C102.597 70.4741 102.662 70.4901 102.751 70.5098C103.432 70.666 105.561 71.1478 108.124 71.6437C112.382 72.4671 117.841 73.3324 119.864 72.8179C123.371 71.9255 125.496 68.3501 124.613 64.8332L124.612 64.833ZM118.358 71.9307C115.427 72.6775 103.904 70.105 103.904 70.105C103.904 70.105 112.828 62.3284 115.759 61.5826C118.689 60.8356 121.645 62.5483 122.363 65.4056C123.081 68.263 121.287 71.1844 118.358 71.9307Z" fill="#FFCE00"/>
<path d="M108.24 48.2168C104.734 47.3336 101.173 49.469 100.286 52.9889C99.4622 56.2521 102.198 68.4249 102.602 70.1775C102.601 70.1795 102.602 70.1816 102.602 70.1828C102.63 70.3022 102.647 70.3728 102.649 70.3867L102.649 70.3887C102.649 70.3887 102.656 70.3812 102.669 70.3671L102.675 70.3603C102.699 70.3315 102.744 70.2811 102.804 70.2118C103.266 69.6839 104.701 68.032 106.358 66.0031C109.108 62.6327 112.468 58.2201 112.98 56.1897C113.869 52.6703 111.745 49.1018 108.24 48.2168ZM111.486 57.0997C110.744 60.042 103 69.0018 103 69.0018C103 69.0018 100.43 57.4418 101.172 54.4995C101.913 51.5588 104.823 49.7567 107.671 50.4748C110.519 51.1929 112.227 54.1593 111.486 57.0997Z" fill="#FFCE00"/>
<path d="M102.749 70.5088C102.741 70.4855 102.717 70.42 102.68 70.3159C102.68 70.3149 102.68 70.3127 102.678 70.3113C102.061 68.6098 97.7619 56.9186 95.3052 54.6371C92.6556 52.1733 88.5119 52.3379 86.0529 55.0016C83.5933 57.6672 83.7493 61.823 86.399 64.2868C88.1362 65.9 94.6138 68.0729 98.8757 69.3803C100.624 69.9175 102 70.3062 102.524 70.4537C102.534 70.4561 102.542 70.4582 102.551 70.4613L102.559 70.4634C102.686 70.4986 102.754 70.5172 102.754 70.5172C102.754 70.5172 102.754 70.5141 102.75 70.5071L102.749 70.5088ZM88.1462 64.229C85.9305 62.1713 85.7545 58.7475 87.7529 56.5832C89.7509 54.4168 93.1658 54.3308 95.3815 56.3886C97.597 58.4473 101.709 69.5481 101.709 69.5481C101.709 69.5481 90.3608 66.2875 88.1453 64.2288L88.1462 64.229Z" fill="#FFCE00"/>
<path d="M49.3587 116.487C47.1465 113.883 43.2533 113.566 40.6617 115.782C38.2582 117.835 33.7508 128.686 33.1092 130.254C33.1084 130.255 33.1069 130.257 33.1071 130.258C33.0638 130.364 33.0383 130.428 33.0329 130.44L33.032 130.441C33.032 130.441 33.0419 130.44 33.0593 130.436L33.067 130.434C33.1016 130.425 33.1625 130.412 33.2462 130.391C33.887 130.239 35.8865 129.759 38.2594 129.111C42.2009 128.034 47.176 126.491 48.6709 125.213C51.2628 122.998 51.5706 119.091 49.3594 116.486L49.3587 116.487ZM47.0291 125.091C44.862 126.943 34.053 129.569 34.053 129.569C34.053 129.569 38.3552 119.279 40.5223 117.428C42.6875 115.576 45.8998 115.791 47.6964 117.907C49.494 120.023 49.1943 123.24 47.0291 125.091Z" fill="#FF549C"/>
<path d="M28.5994 109.262C25.2683 109.976 23.1476 113.264 23.8652 116.608C24.5279 119.709 31.9114 128.857 32.9825 130.171C32.9829 130.173 32.9843 130.175 32.9853 130.175C33.0579 130.264 33.102 130.317 33.1104 130.327L33.1108 130.329C33.1108 130.329 33.1137 130.319 33.1192 130.303L33.1215 130.295C33.1301 130.261 33.1471 130.2 33.1692 130.116C33.3394 129.479 33.8649 127.484 34.4195 125.079C35.34 121.084 36.3417 115.955 35.9286 114.026C35.2129 110.682 31.932 108.55 28.6006 109.263L28.5994 109.262ZM35.0419 115.417C35.6401 118.213 32.8269 129.011 32.8269 129.011C32.8269 129.011 25.84 120.311 25.2408 117.515C24.642 114.721 26.3507 111.986 29.0574 111.407C31.7639 110.827 34.4431 112.623 35.0419 115.417Z" fill="#FF549C"/>
<path d="M33.2495 130.391C33.2338 130.375 33.185 130.329 33.1102 130.257C33.11 130.256 33.1086 130.254 33.1064 130.253C31.8762 129.073 23.3728 120.982 20.3465 120.077C17.0805 119.098 13.6465 120.964 12.6784 124.239C11.7106 127.517 13.573 130.965 16.8388 131.943C18.9788 132.583 25.3587 131.721 29.5049 131.051C31.207 130.777 32.5313 130.532 33.035 130.439C33.0447 130.437 33.0524 130.435 33.0604 130.435L33.0681 130.433C33.1908 130.41 33.255 130.398 33.255 130.398C33.255 130.398 33.2534 130.395 33.2475 130.391L33.2495 130.391ZM18.2904 131.165C15.5607 130.349 13.9852 127.528 14.7728 124.866C15.5592 122.203 18.4099 120.708 21.1396 121.524C23.8698 122.341 31.9683 130.011 31.9683 130.011C31.9683 130.011 21.0194 131.982 18.2892 131.164L18.2904 131.165Z" fill="#FF549C"/>
<path d="M52.3454 135.862L58.6819 164.461C58.8075 165.028 58.4494 165.591 57.8858 165.716L26.0103 172.778C25.4456 172.904 24.885 172.543 24.7596 171.977L18.4231 143.378C18.2975 142.811 18.6546 142.248 19.2183 142.123L51.0928 135.061C51.6574 134.936 52.2191 135.296 52.3444 135.862L52.3454 135.862Z" fill="#FFD500"/>
<path d="M52.1196 134.836L18.1914 142.354L19.2934 147.327L53.2216 139.81L52.1196 134.836Z" fill="#FFAE00"/>
<path d="M38.5827 137.631L31.6367 139.17L38.4111 169.746L45.357 168.207L38.5827 137.631Z" fill="#FF549C"/>
<path d="M38.7975 138.58L31.8516 140.119L32.786 144.337L39.732 142.798L38.7975 138.58Z" fill="#A60078"/>
<path d="M53.1328 127.019L54.6561 133.895C54.8012 134.55 54.3885 135.2 53.7359 135.345L16.6993 143.551C16.0457 143.696 15.3968 143.28 15.2516 142.625L13.7283 135.75C13.5829 135.093 13.9957 134.443 14.6492 134.298L51.6849 126.093C52.3375 125.948 52.9864 126.363 53.1318 127.019L53.1328 127.019Z" fill="#FFD500"/>
<path d="M37.7077 129.189L28.625 131.201L30.6832 140.491L39.7659 138.478L37.7077 129.189Z" fill="#FF549C"/>
<path d="M121.624 129.101C120.582 126.345 117.511 124.961 114.764 126.011C112.218 126.983 105.415 134.491 104.439 135.578C104.438 135.579 104.437 135.58 104.437 135.582C104.371 135.656 104.331 135.7 104.323 135.709L104.322 135.709C104.322 135.709 104.33 135.711 104.346 135.713L104.353 135.714C104.383 135.717 104.437 135.723 104.511 135.732C105.075 135.794 106.839 135.983 108.954 136.144C112.467 136.409 116.954 136.597 118.539 135.992C121.285 134.944 122.666 131.859 121.624 129.102L121.624 129.101ZM117.241 135.416C114.945 136.292 105.405 135.296 105.405 135.296C105.405 135.296 111.878 128.185 114.174 127.307C116.469 126.431 119.015 127.536 119.863 129.774C120.71 132.013 119.536 134.539 117.241 135.416Z" fill="#FF549C"/>
<path d="M106.854 117.223C103.941 116.838 101.268 118.896 100.882 121.819C100.523 124.53 103.871 134.098 104.36 135.475C104.36 135.477 104.36 135.478 104.362 135.479C104.395 135.572 104.415 135.628 104.419 135.639L104.418 135.641C104.418 135.641 104.423 135.635 104.433 135.622L104.436 135.617C104.454 135.591 104.485 135.547 104.527 135.485C104.85 135.016 105.854 133.547 107.001 131.755C108.905 128.777 111.203 124.901 111.427 123.214C111.814 120.291 109.766 117.609 106.854 117.223ZM110.306 124.088C109.982 126.533 104.571 134.488 104.571 134.488C104.571 134.488 101.415 125.399 101.738 122.955C102.06 120.511 104.24 118.786 106.606 119.098C108.972 119.411 110.628 121.645 110.306 124.087L110.306 124.088Z" fill="#FF549C"/>
<path d="M104.51 135.73C104.501 135.711 104.475 135.661 104.435 135.581C104.435 135.58 104.435 135.579 104.434 135.577C103.777 134.261 99.2124 125.228 97.0156 123.617C94.6462 121.877 91.3176 122.398 89.5819 124.778C87.8471 127.159 88.3618 130.499 90.731 132.24C92.2843 133.379 97.7159 134.526 101.278 135.182C102.74 135.452 103.886 135.638 104.322 135.707C104.33 135.708 104.336 135.709 104.344 135.711L104.351 135.712C104.457 135.729 104.514 135.737 104.514 135.737C104.514 135.737 104.513 135.735 104.51 135.73ZM92.1347 132.028C90.1536 130.575 89.6906 127.828 91.101 125.894C92.5106 123.959 95.259 123.57 97.24 125.023C99.221 126.477 103.579 135.051 103.579 135.051C103.579 135.051 94.1157 133.482 92.1347 132.028Z" fill="#FF549C"/>
<path d="M128.068 146.905L124.935 171.969C124.873 172.465 124.42 172.82 123.925 172.758L76.7224 166.858C76.2282 166.796 75.8758 166.341 75.938 165.844L79.0709 140.781C79.1329 140.284 79.5855 139.929 80.0808 139.991L127.283 145.891C127.777 145.953 128.13 146.408 128.068 146.905Z" fill="#089ED7"/>
<path d="M127.638 150.367L78.6416 144.243L79.1836 139.883L128.183 146.008L127.638 150.367Z" fill="#0071BC"/>
<path d="M131.269 139.953L130.516 145.978C130.444 146.553 129.92 146.962 129.348 146.89L77.6227 140.425C77.0498 140.353 76.6424 139.827 76.7142 139.253L77.4673 133.228C77.5392 132.653 78.0634 132.244 78.6363 132.315L130.362 138.781C130.934 138.852 131.341 139.378 131.269 139.953Z" fill="#089ED7"/>
<path d="M106.853 143.171L103.689 170.207L97.6018 169.446L100.766 142.41L106.853 143.171Z" fill="#FF549C"/>
<path d="M106.752 144.005L100.664 143.244L100.202 146.94L106.29 147.701L106.752 144.005Z" fill="#A60078"/>
<path d="M108.586 136.06L100.625 135.064L99.6074 143.206L107.568 144.201L108.586 136.06Z" fill="#FF549C"/>
<path d="M41.4053 70.0237C39.0137 70.6675 35.8375 71.3188 34.0063 70.8635C32.1597 70.4042 30.6154 69.327 29.8763 67.9835C29.3756 67.0722 29.269 66.1125 29.5685 65.2061C30.3267 62.9139 33.5344 61.694 36.7209 62.4866C39.436 63.1621 43.2105 67.1788 44.3028 68.3941C44.4184 68.5226 44.4609 68.6996 44.4177 68.8667C44.3736 69.034 44.2492 69.1664 44.0854 69.2208C43.5383 69.402 42.5646 69.7126 41.4065 70.0244L41.4053 70.0237ZM33.0003 63.1269C31.629 63.4961 30.564 64.3059 30.1963 65.416C29.9558 66.1417 30.0462 66.9195 30.4558 67.6638C31.1071 68.8486 32.4946 69.8043 34.1655 70.2204C36.6398 70.8361 42.0982 69.1689 43.6555 68.6641C42.6215 67.5319 39.0154 63.7407 36.564 63.1302C35.3141 62.819 34.0655 62.8401 33.0012 63.1266L33.0003 63.1269Z" fill="#AA88DE"/>
<path d="M47.0863 68.4946C45.9283 68.8064 44.9305 69.0276 44.3661 69.1446C44.1971 69.1798 44.0232 69.1278 43.9009 69.0052C43.7787 68.8826 43.7276 68.708 43.7631 68.5388C44.0975 66.9393 45.3452 61.5705 47.3541 59.6232C49.711 57.3382 53.0986 56.7824 54.9041 58.3844C55.6183 59.0179 56.0079 59.9014 56.0324 60.9409C56.068 62.4748 55.273 64.1808 53.9066 65.5052C52.5515 66.8183 49.4777 67.8497 47.0861 68.4936L47.0863 68.4946ZM44.4584 68.4474C46.0577 68.1023 51.6163 66.8034 53.447 65.0286C54.6832 63.8299 55.4026 62.308 55.3717 60.9551C55.3522 60.1058 55.039 59.388 54.4676 58.8808C52.914 57.5024 49.9292 58.0496 47.8139 60.1007C46.0002 61.8586 44.7849 66.9478 44.4593 68.4471L44.4584 68.4474Z" fill="#AA88DE"/>
<path d="M44.0823 68.2103L44.0813 68.2106C43.9054 68.258 43.7241 68.1523 43.6763 67.9747C43.0621 65.6628 43.0067 63.3466 43.5232 61.452C44.055 59.4998 45.1301 58.2136 46.5511 57.831L46.5616 57.8282C46.7376 57.7808 46.9188 57.8865 46.9667 58.0641C47.0142 58.2407 46.909 58.4215 46.7331 58.4688C46.7302 58.4696 46.7264 58.4706 46.7235 58.4714C44.2057 59.1493 43.1261 63.333 44.3147 67.8049C44.3622 67.9816 44.257 68.1623 44.0811 68.2096L44.0823 68.2103Z" fill="#AA88DE"/>
<path d="M43.8393 68.0112C43.672 68.0562 43.495 67.9628 43.4397 67.7955C42.7236 65.6345 41.568 63.769 40.1848 62.5434C38.8512 61.3611 37.4702 60.9246 36.3037 61.3118C36.133 61.367 35.9431 61.275 35.886 61.1009C35.8279 60.9271 35.9219 60.7391 36.0952 60.6822C37.4971 60.2172 39.1045 60.7019 40.6223 62.0467C42.0918 63.3489 43.3147 65.3158 44.0668 67.5875C44.1249 67.7613 44.0309 67.9493 43.8575 68.0063C43.8518 68.0078 43.8451 68.0096 43.8393 68.0112Z" fill="#AA88DE"/>
<path d="M58.5612 72.4909L33.1907 79.3214C32.7402 79.4427 32.4737 79.9077 32.5955 80.3599L38.7241 103.124C38.8459 103.576 39.3098 103.844 39.7603 103.723L65.1308 96.8925C65.5813 96.7712 65.8477 96.3062 65.726 95.854L59.5973 73.0903C59.4756 72.638 59.0117 72.3697 58.5612 72.4909Z" fill="#664B91"/>
<path d="M59.3846 72.2723L32.3789 79.543L33.4448 83.5022L60.4505 76.2315L59.3846 72.2723Z" fill="#4D386D"/>
<path d="M48.6463 75.1813L43.1172 76.6699L49.6697 101.008L55.1988 99.5195L48.6463 75.1813Z" fill="#AA88DE"/>
<path d="M48.8025 75.7653L43.2734 77.2539L44.1773 80.6112L49.7064 79.1226L48.8025 75.7653Z" fill="#7F69A0"/>
<path d="M60.0093 65.9262L61.4826 71.3985C61.6229 71.9198 61.3183 72.4569 60.8038 72.5954L31.6036 80.457C31.0891 80.5955 30.556 80.2839 30.4156 79.7626L28.9424 74.2904C28.8017 73.7681 29.1063 73.231 29.6208 73.0925L58.8211 65.2309C59.3356 65.0924 59.8687 65.404 60.0093 65.9262Z" fill="#664B91"/>
<path d="M72.1485 161.389C70.3637 161.063 68.0554 160.495 66.9874 159.618C65.9098 158.733 65.2266 157.535 65.1596 156.413C65.1142 155.653 65.3461 154.983 65.8291 154.477C67.0512 153.199 69.5593 153.4 71.4177 154.927C73.0022 156.228 74.2369 160.073 74.578 161.221C74.6142 161.343 74.5875 161.473 74.5053 161.57C74.4232 161.667 74.2996 161.715 74.1745 161.7C73.7552 161.648 73.0136 161.547 72.1485 161.389ZM68.7535 154.18C67.7296 153.993 66.7699 154.193 66.1776 154.813C65.7905 155.218 65.6049 155.76 65.6425 156.382C65.7015 157.371 66.3187 158.44 67.294 159.24C68.7376 160.426 72.8756 161.04 74.0644 161.195C73.7361 160.12 72.5411 156.476 71.1106 155.302C70.3814 154.703 69.5475 154.325 68.7535 154.18Z" fill="black"/>
<path d="M76.3886 162.163C75.5235 162.005 74.794 161.838 74.3833 161.739C74.2599 161.709 74.1615 161.619 74.1199 161.499C74.0784 161.38 74.0982 161.249 74.1751 161.148C74.8998 160.195 77.4138 157.033 79.3559 156.376C81.6349 155.605 84.0514 156.303 84.7427 157.931C85.0158 158.574 84.9963 159.282 84.685 159.978C84.2259 161.004 83.1633 161.883 81.8425 162.33C80.5324 162.773 78.1733 162.489 76.3886 162.163ZM74.6647 161.306C75.8326 161.581 79.9197 162.468 81.689 161.87C82.8843 161.465 83.8394 160.684 84.2441 159.779C84.4979 159.211 84.517 158.638 84.298 158.123C83.7032 156.721 81.5554 156.145 79.5104 156.837C77.7571 157.431 75.3525 160.417 74.6647 161.306Z" fill="black"/>
<path d="M74.4913 161.03C74.3598 161.006 74.2732 160.879 74.2973 160.747C74.618 159.024 75.3098 157.474 76.2471 156.381C77.2127 155.256 78.3291 154.743 79.39 154.937L79.3978 154.938C79.5293 154.962 79.6158 155.089 79.5917 155.221C79.5676 155.353 79.441 155.441 79.3104 155.417L79.3036 155.415C77.4244 155.072 75.3934 157.501 74.7735 160.835C74.7494 160.967 74.6228 161.054 74.4923 161.031L74.4913 161.03Z" fill="black"/>
<path d="M74.3955 160.824C74.2698 160.801 74.1834 160.684 74.1989 160.555C74.4044 158.9 74.2261 157.302 73.6967 156.055C73.1854 154.853 72.4093 154.13 71.5155 154.019C71.3846 154.003 71.2889 153.882 71.3052 153.749C71.3215 153.615 71.4424 153.521 71.5753 153.537C72.6493 153.671 73.5604 154.497 74.1423 155.864C74.7049 157.188 74.8961 158.875 74.6802 160.615C74.6639 160.748 74.543 160.842 74.4101 160.826C74.4052 160.825 74.4004 160.824 74.3965 160.824L74.3955 160.824Z" fill="black"/>
<path d="M84.2237 164.298L80.2871 185.858C80.2155 186.251 79.8845 186.52 79.5493 186.458L60.6079 183C60.2718 182.939 60.0573 182.57 60.1289 182.178L64.0655 160.617C64.1371 160.225 64.4681 159.956 64.8042 160.017L83.7456 163.476C84.0807 163.537 84.2953 163.906 84.2237 164.298Z" fill="#FF57A1"/>
<path d="M70.3339 184.767L69.8573 184.681L71.8842 173.497L74.043 161.58L74.5184 161.667L72.3597 173.584L70.3339 184.767Z" fill="black"/>
<path d="M82.357 174.534L82.2697 175.012L62.1236 171.265L62.2109 170.787L82.357 174.534Z" fill="black"/>
<path d="M9.75219 92.9004C10.8481 92.4196 11.3407 91.1278 10.8526 90.0153C10.3644 88.9027 9.0802 88.3906 7.9843 88.8715C6.8884 89.3524 6.39576 90.6441 6.88395 91.7567C7.37213 92.8692 8.65629 93.3813 9.75219 92.9004Z" fill="#FDA4CD"/>
<path d="M23.6347 76.4403C24.4042 76.1027 24.7502 75.1956 24.4074 74.4144C24.0646 73.6332 23.1629 73.2736 22.3933 73.6113C21.6238 73.9489 21.2779 74.856 21.6207 75.6372C21.9635 76.4184 22.8652 76.778 23.6347 76.4403Z" fill="#FDA4CD"/>
<path d="M27.6347 99.4403C28.4042 99.1027 28.7502 98.1956 28.4074 97.4144C28.0646 96.6332 27.1629 96.2736 26.3933 96.6113C25.6238 96.9489 25.2779 97.856 25.6207 98.6372C25.9635 99.4184 26.8652 99.778 27.6347 99.4403Z" fill="#F7D323"/>
<path d="M18.121 107.603L17.5908 106.679C17.6856 106.623 19.8989 105.303 18.8195 103.384C18.7002 103.172 18.5714 102.996 18.4379 102.848C18.3369 103.483 18.1275 104.053 17.7916 104.447C17.2857 105.041 16.4684 105.348 15.6577 105.248C15.0326 105.171 14.5379 104.861 14.2992 104.398C13.7824 103.395 14.4665 101.977 15.4002 101.425C15.9832 101.08 16.6987 100.966 17.3978 101.097C17.3249 100.581 17.186 100.1 16.9933 99.7572C16.7461 99.3165 16.4394 98.9858 16.1072 98.7406C15.9615 99.6387 15.515 100.384 14.9092 100.85C14.1425 101.44 13.4226 101.45 12.9543 101.354C12.3753 101.236 11.8549 100.888 11.596 100.447C11.1421 99.671 11.1982 99.0414 11.3253 98.6494C11.5227 98.0416 12.0274 97.5387 12.7472 97.2414C13.245 97.0335 14.0759 96.9423 14.9585 97.1204C14.865 96.8054 14.7258 96.4803 14.533 96.1507C13.6103 94.5755 11.3089 95.7994 11.2114 95.8515L10.7034 94.9157C11.8361 94.2954 14.2828 93.6452 15.4367 95.6169C15.8174 96.2677 16.0344 96.9112 16.1174 97.5181C16.8004 97.8629 17.4418 98.4133 17.907 99.241C18.2416 99.8364 18.45 100.677 18.4985 101.532C18.9257 101.8 19.369 102.218 19.7328 102.867C21.0105 105.141 19.2364 106.958 18.1196 107.602L18.121 107.603ZM16.1068 102.26C16.0491 102.285 15.9932 102.315 15.9391 102.345C15.3958 102.666 15.0182 103.503 15.2313 103.916C15.3016 104.052 15.5154 104.161 15.775 104.194C16.125 104.237 16.6538 104.147 16.9908 103.75C17.2726 103.418 17.4179 102.838 17.4497 102.202C17.427 102.195 17.4047 102.188 17.3837 102.182C16.9518 102.063 16.4873 102.093 16.1068 102.26ZM13.1215 98.2405C12.7121 98.4202 12.4236 98.6922 12.326 98.9921C12.2398 99.258 12.2982 99.5686 12.5001 99.9139C12.572 100.036 12.8036 100.243 13.151 100.314C13.5236 100.39 13.8995 100.285 14.2658 100.002C14.7394 99.6375 15.0649 99.0107 15.1015 98.2454C14.2556 97.9942 13.4503 98.1021 13.158 98.2245C13.1455 98.23 13.133 98.2355 13.1205 98.241L13.1215 98.2405Z" fill="#65C8D0"/>
<path d="M17.371 85.0428C17.371 85.0428 18.2867 86.1685 18.8799 86.3922C19.4721 86.6163 20.8004 86.4103 20.8004 86.4103C20.8004 86.4103 19.7433 87.1743 19.516 87.8732C19.2877 88.5725 19.4853 89.8586 19.4853 89.8586C19.4853 89.8586 18.794 88.7636 18.1016 88.5358C17.4096 88.3089 16.0569 88.4906 16.0569 88.4906C16.0569 88.4906 17.1413 87.7577 17.4056 86.9809C17.6698 86.2042 17.3716 85.0414 17.3716 85.0414L17.371 85.0428Z" fill="#FCA51F"/>
<path d="M22.9933 78.9487L25.8426 89.1715L26.3298 87.8374L24.5167 78.4535L22.9933 78.9487Z" fill="#9F9AF7"/>
<path d="M41.8669 22.2513C41.8669 22.2513 40.7268 24.3476 42.0073 26.0168C43.2877 27.686 45.1406 27.8122 46.6795 26.4357C48.2183 25.0593 48.3852 23.4582 46.9983 22.8957C46.233 22.5853 45.0846 22.8587 44.2972 24.3342C43.639 25.5685 43.9057 27.9877 45.2565 28.9553C46.3054 29.7071 48.3348 29.952 49.8508 28.1735L49.3561 26.6513C49.3561 26.6513 47.426 28.6316 46.1792 28.034C45.0945 27.5138 44.559 26.0754 45.3832 24.8826C46.2066 23.6908 46.5954 24.0288 46.5954 24.0288C46.5954 24.0288 47.1485 24.4976 46.1615 25.5594C45.1744 26.6211 43.3311 25.9926 42.9548 24.9026C42.5784 23.8125 43.3727 22.2871 43.3727 22.2871L41.8677 22.2504L41.8669 22.2513Z" fill="#65C8D0"/>
<path d="M72.7765 27.5203C72.7765 27.5203 75.1567 27.7953 75.7949 29.7958C76.4339 31.7971 75.4751 33.3788 73.4585 33.8414C71.4418 34.3039 70.0284 33.522 70.3617 32.0686C70.5456 31.2679 71.43 30.4885 73.0966 30.6944C74.4899 30.8666 76.3291 32.4718 76.3512 34.1284C76.3681 35.415 75.4045 37.2086 73.0705 37.4224L72.1009 36.1458C72.1009 36.1458 74.8387 35.7106 75.0622 34.3521C75.2564 33.1705 74.3794 31.908 72.9256 31.8946C71.4708 31.8805 71.5268 32.3914 71.5268 32.3914C71.5268 32.3914 71.5947 33.1105 73.0366 32.9156C74.4785 32.7207 75.0179 30.8589 74.337 29.9269C73.6552 28.9958 71.944 28.7662 71.944 28.7662L72.7781 27.5202L72.7765 27.5203Z" fill="#F97AAE"/>
<path d="M91.2895 32.9118C91.2895 32.9118 92.7923 33.5402 92.7232 35.0919C92.6541 36.6435 91.8197 37.9966 91.8197 37.9966L96.4115 36.3487C96.4115 36.3487 96.767 34.5778 96.4519 33.1603C96.1469 31.7924 94.3375 30.4728 94.3375 30.4728L91.2904 32.9125L91.2895 32.9118Z" fill="#F97AAE"/>
<path d="M60.9853 19.5961C60.9853 19.5961 62.5814 19.7467 63.3342 18.5539C64.0871 17.3611 64.0883 16.0011 64.0883 16.0011L67.1022 19.1368C67.1022 19.1368 66.478 20.6136 65.471 21.5462C64.4997 22.4464 62.2829 22.6881 62.2829 22.6881L60.9854 19.5977L60.9853 19.5961Z" fill="#F9DC32"/>
<path d="M59.3092 36.1117C60.0271 35.286 59.9355 34.0309 59.1045 33.3083C58.2735 32.5858 57.0179 32.6695 56.3 33.4952C55.582 34.3209 55.6736 35.576 56.5046 36.2985C57.3356 37.021 58.5913 36.9374 59.3092 36.1117Z" fill="#C38CF2"/>
<path d="M84.4109 25.2084C85.1457 24.3633 85.0519 23.0786 84.2014 22.339C83.3508 21.5994 82.0655 21.685 81.3306 22.5302C80.5957 23.3754 80.6895 24.6601 81.5401 25.3997C82.3907 26.1392 83.676 26.0536 84.4109 25.2084Z" fill="#FBB03B"/>
<path d="M35.6952 38.4333C36.644 37.342 36.5229 35.6832 35.4247 34.7283C34.3264 33.7734 32.6669 33.884 31.7181 34.9752C30.7692 36.0665 30.8903 37.7253 31.9886 38.6802C33.0868 39.6351 34.7463 39.5246 35.6952 38.4333Z" fill="#F97AAE"/>
<path d="M89.4513 43.0201L87.1731 44.308L86.956 46.9198L85.0128 45.1456L82.4578 45.7308L83.5346 43.3453L82.1728 41.0948L84.7819 41.3951L86.4951 39.4195L87.0314 41.99L89.4513 43.0201Z" fill="#C38CF2"/>
<path d="M73.6924 56.7318C73.5458 56.9004 73.3378 57.0156 73.097 57.0389C72.594 57.0895 72.1432 56.7232 72.0895 56.2203L70.6002 42.3181C70.5464 41.8152 70.9102 41.3671 71.4132 41.3166C71.9163 41.2661 72.367 41.6324 72.4208 42.1353L73.9101 56.0374C73.9382 56.3005 73.8525 56.5477 73.6924 56.7318Z" fill="#FBB03B"/>
<path d="M62.1167 55.8393C62.0705 55.9296 62.0079 56.0141 61.9291 56.0877C61.561 56.4321 60.9806 56.4132 60.633 56.0447L49.1221 43.855C48.7745 43.4866 48.79 42.9094 49.1586 42.564C49.5267 42.2196 50.1071 42.2385 50.4547 42.607L61.9656 54.7967C62.2389 55.0862 62.2874 55.5053 62.1172 55.8382L62.1167 55.8393Z" fill="#FBB03B"/>
<path d="M116.37 38.2383C116.37 38.2383 117.615 37.4801 119.025 38.6686C120.435 39.857 119.497 41.284 119.497 41.284C119.497 41.284 120.976 41.4271 121.54 43.0344C122.105 44.6416 119.902 46.1031 119.902 46.1031L118.774 45.3768C118.774 45.3768 120.76 44.3333 120.486 43.4055C120.128 42.1923 118.42 42.2056 118.42 42.2056L117.998 41.9582C117.998 41.9582 119.062 40.3704 118.208 39.6361C117.354 38.9018 115.998 39.7837 115.998 39.7837L116.371 38.2391L116.37 38.2383Z" fill="#F97AAE"/>
<path d="M140.293 52.2672L140.93 55.2656L137.95 55.9062L137.314 52.9078L140.293 52.2672Z" fill="#C38CF2"/>
<path d="M129.525 63.0714C128.682 63.0714 127.999 62.3838 127.999 61.5357C127.999 60.6875 128.682 60 129.525 60C130.368 60 131.051 60.6875 131.051 61.5357C131.051 62.3838 130.368 63.0714 129.525 63.0714Z" fill="#F97AAE"/>
<path d="M127.597 51.2035L129.497 50.5302L131.125 51.7239L131.076 49.6978L132.707 48.5076L130.776 47.9289L130.156 46L129.012 47.6682L126.998 47.6656L128.221 49.2764L127.597 51.2035Z" fill="#F9DC32"/>
</svg>
