<svg width="150" height="200" viewBox="0 0 150 200" fill="none" xmlns="http://www.w3.org/2000/svg">
<rect width="150" height="200" fill="black"/>
<path d="M74.6359 61.4836C75.0216 60.8213 75.9784 60.8213 76.3641 61.4836L88.3711 82.0984C88.5124 82.341 88.7492 82.513 89.0236 82.5724L112.34 87.6214C113.089 87.7837 113.384 88.6936 112.874 89.2651L96.9784 107.055C96.7913 107.264 96.7009 107.542 96.7292 107.822L99.1324 131.557C99.2096 132.32 98.4355 132.882 97.7342 132.573L75.9032 122.953C75.6463 122.839 75.3537 122.839 75.0968 122.953L53.2658 132.573C52.5645 132.882 51.7904 132.32 51.8676 131.557L54.2708 107.822C54.2991 107.542 54.2087 107.264 54.0216 107.055L38.1262 89.2651C37.6155 88.6936 37.9112 87.7837 38.6602 87.6214L61.9764 82.5724C62.2508 82.513 62.4876 82.341 62.6289 82.0984L74.6359 61.4836Z" fill="#FFCA28"/>
<path d="M111.797 58.244C112.21 57.1296 113.786 57.1296 114.198 58.244L114.954 60.2871C115.084 60.6375 115.36 60.9137 115.711 61.0434L117.754 61.7994C118.868 62.2117 118.868 63.7879 117.754 64.2003L115.711 64.9563C115.36 65.0859 115.084 65.3622 114.954 65.7125L114.198 67.7557C113.786 68.8701 112.21 68.8701 111.797 67.7557L111.041 65.7125C110.912 65.3622 110.636 65.0859 110.285 64.9563L108.242 64.2003C107.128 63.7879 107.128 62.2117 108.242 61.7994L110.285 61.0434C110.636 60.9137 110.912 60.6375 111.041 60.2871L111.797 58.244Z" fill="#FFCA28"/>
<path d="M104.248 46.0282C104.506 45.3317 105.491 45.3317 105.749 46.0282L106.221 47.3052C106.302 47.5242 106.475 47.6968 106.694 47.7778L107.971 48.2503C108.668 48.5081 108.668 49.4932 107.971 49.7509L106.694 50.2234C106.475 50.3044 106.302 50.4771 106.221 50.6961L105.749 51.973C105.491 52.6695 104.506 52.6695 104.248 51.973L103.776 50.6961C103.695 50.4771 103.522 50.3044 103.303 50.2234L102.026 49.7509C101.33 49.4932 101.33 48.5081 102.026 48.2503L103.303 47.7778C103.522 47.6968 103.695 47.5242 103.776 47.3052L104.248 46.0282Z" fill="#FFCA28"/>
<circle cx="120" cy="52" r="2" fill="#FFCA28"/>
<path d="M29.2026 132.244C28.7902 131.13 27.214 131.13 26.8017 132.244L26.0457 134.287C25.916 134.637 25.6398 134.914 25.2894 135.043L23.2463 135.799C22.1319 136.212 22.1319 137.788 23.2463 138.2L25.2894 138.956C25.6398 139.086 25.916 139.362 26.0457 139.713L26.8017 141.756C27.214 142.87 28.7902 142.87 29.2026 141.756L29.9586 139.713C30.0882 139.362 30.3645 139.086 30.7148 138.956L32.758 138.2C33.8723 137.788 33.8723 136.212 32.758 135.799L30.7148 135.043C30.3645 134.914 30.0882 134.637 29.9586 134.287L29.2026 132.244Z" fill="#FFCA28"/>
<path d="M36.7516 120.028C36.4939 119.332 35.5088 119.332 35.251 120.028L34.7785 121.305C34.6975 121.524 34.5249 121.697 34.3059 121.778L33.0289 122.25C32.3324 122.508 32.3324 123.493 33.0289 123.751L34.3059 124.223C34.5249 124.304 34.6975 124.477 34.7785 124.696L35.251 125.973C35.5088 126.67 36.4939 126.67 36.7516 125.973L37.2241 124.696C37.3052 124.477 37.4778 124.304 37.6968 124.223L38.9737 123.751C39.6702 123.493 39.6702 122.508 38.9737 122.25L37.6968 121.778C37.4778 121.697 37.3052 121.524 37.2241 121.305L36.7516 120.028Z" fill="#FFCA28"/>
<circle cx="2" cy="2" r="2" transform="matrix(-1 0 0 1 23 124)" fill="#FFCA28"/>
</svg>
