<svg width="150" height="200" viewBox="0 0 150 200" fill="none" xmlns="http://www.w3.org/2000/svg">
<g clip-path="url(#clip0_10888_18572)">
<rect width="150" height="200" fill="#2943AA"/>
<path d="M123.491 143.309L125.438 156.76L112.853 162.903L106.39 151.591L123.491 143.309ZM123.491 143.309L121.273 122.646L130.565 114.106" stroke="#BDDEFF" stroke-width="0.524835"/>
<circle cx="112.955" cy="162.821" r="1.04967" transform="rotate(-39.013 112.955 162.821)" fill="#FFCA28" stroke="#BDDEFF" stroke-width="0.524835"/>
<circle cx="123.576" cy="143.413" r="1.04967" transform="rotate(-39.013 123.576 143.413)" fill="#FFCA28" stroke="#BDDEFF" stroke-width="0.524835"/>
<circle cx="121.275" cy="122.647" r="1.04967" transform="rotate(-39.013 121.275 122.647)" fill="#FFCA28" stroke="#BDDEFF" stroke-width="0.524835"/>
<circle cx="130.564" cy="114.106" r="1.04967" transform="rotate(-39.013 130.564 114.106)" fill="#FFCA28" stroke="#BDDEFF" stroke-width="0.524835"/>
<path d="M126.268 154.591C126.143 154.174 125.595 154.081 125.34 154.433L124.74 155.261L123.717 155.236C123.282 155.226 123.024 155.718 123.28 156.07L123.882 156.897L123.543 157.862C123.398 158.272 123.787 158.67 124.2 158.535L125.173 158.218L125.986 158.839C126.331 159.103 126.83 158.856 126.829 158.421L126.828 157.398L127.67 156.817C128.028 156.57 127.947 156.02 127.533 155.886L126.56 155.571L126.268 154.591Z" fill="#FFCA28" stroke="#BDDEFF" stroke-width="0.524835"/>
<path d="M106.424 150.108C106.202 149.932 105.875 150.088 105.871 150.371L105.862 151.047L105.3 151.422C105.065 151.58 105.112 151.938 105.38 152.029L106.02 152.247L106.203 152.897C106.28 153.17 106.636 153.236 106.805 153.009L107.21 152.468L107.885 152.494C108.168 152.505 108.34 152.188 108.177 151.957L107.787 151.404L108.021 150.77C108.119 150.505 107.871 150.242 107.6 150.326L106.955 150.526L106.424 150.108ZM107.754 151.495L107.754 151.495L107.754 151.495Z" fill="#FFCA28" stroke="#BDDEFF" stroke-width="0.524835"/>
<path d="M124.466 51.4558C99.948 49.2993 60.4024 81.1881 57.1856 86.1464C57.0357 86.3776 57.0141 86.6428 57.0395 86.9172L59.8734 117.522C60.0256 119.165 61.9991 119.924 63.2324 118.827C85.2332 99.2622 101.211 90.4753 130.725 82.8467C132.586 82.3658 132.81 79.7786 131.046 79.0161L117.24 73.0494C116.132 72.5706 115.698 71.2271 116.315 70.1901L125.798 54.2677C126.501 53.0883 125.833 51.5761 124.466 51.4558Z" fill="#FFB300"/>
<path d="M57.7056 62.4719C58.0914 61.8096 59.0481 61.8096 59.4339 62.4719L70.8169 82.0153C70.9582 82.2579 71.195 82.4299 71.4693 82.4893L93.5738 87.276C94.3228 87.4382 94.6185 88.3481 94.1078 88.9196L79.0385 105.785C78.8514 105.994 78.761 106.272 78.7893 106.552L81.0675 129.053C81.1447 129.816 80.3707 130.378 79.6694 130.069L58.973 120.949C58.7161 120.836 58.4234 120.836 58.1665 120.949L37.4701 130.069C36.7688 130.378 35.9948 129.816 36.072 129.053L38.3503 106.552C38.3785 106.272 38.2881 105.994 38.101 105.785L23.0317 88.9196C22.521 88.3481 22.8167 87.4382 23.5657 87.276L45.6702 82.4893C45.9446 82.4299 46.1813 82.2579 46.3226 82.0153L57.7056 62.4719Z" fill="#FFD54F"/>
<path d="M30.7974 59.244C31.2098 58.1296 32.786 58.1296 33.1983 59.244L33.9543 61.2871C34.084 61.6375 34.3602 61.9137 34.7106 62.0434L36.7537 62.7994C37.8681 63.2117 37.8681 64.7879 36.7537 65.2003L34.7106 65.9563C34.3602 66.0859 34.084 66.3622 33.9543 66.7125L33.1983 68.7557C32.786 69.8701 31.2098 69.8701 30.7974 68.7557L30.0414 66.7125C29.9118 66.3622 29.6355 66.0859 29.2852 65.9563L27.242 65.2003C26.1277 64.7879 26.1277 63.2117 27.242 62.7994L29.2852 62.0434C29.6355 61.9137 29.9118 61.6375 30.0414 61.2871L30.7974 59.244Z" fill="#FFCA28"/>
<circle cx="46" cy="54" r="2" fill="#BDDEFF"/>
<path d="M90.2009 115.829C90.4758 115.086 91.5266 115.086 91.8015 115.829L92.3055 117.191C92.3919 117.424 92.5761 117.608 92.8097 117.695L94.1717 118.199C94.9147 118.474 94.9147 119.525 94.1717 119.8L92.8097 120.304C92.5761 120.39 92.3919 120.574 92.3055 120.808L91.8015 122.17C91.5266 122.913 90.4758 122.913 90.2009 122.17L89.6969 120.808C89.6104 120.574 89.4263 120.39 89.1927 120.304L87.8306 119.8C87.0877 119.525 87.0877 118.474 87.8306 118.199L89.1927 117.695C89.4263 117.608 89.6104 117.424 89.6969 117.191L90.2009 115.829Z" fill="#FFCA28"/>
<circle cx="65" cy="135" r="2" fill="#BDDEFF"/>
<circle cx="101" cy="133" r="2" fill="#BDDEFF"/>
</g>
<defs>
<clipPath id="clip0_10888_18572">
<rect width="150" height="200" fill="white"/>
</clipPath>
</defs>
</svg>
