<svg width="150" height="200" viewBox="0 0 150 200" fill="none" xmlns="http://www.w3.org/2000/svg">
<rect width="150" height="200" fill="#2943AA"/>
<g clip-path="url(#clip0_10888_18151)">
<path d="M105.659 104.314C105.713 104.921 105.135 105.384 104.561 105.185L99.335 103.545L71.4727 94.8088L89.8147 87.168L97.8282 93.3756L97.8328 93.3803L102.788 97.2161C104.322 98.4014 105.295 100.185 105.468 102.13L105.659 104.313V104.314Z" fill="#E5F2FF"/>
<path d="M77.4191 96.6741L99.3381 103.548L104.564 105.187C105.138 105.385 105.715 104.923 105.662 104.316L105.471 102.133C105.383 101.147 105.088 100.204 104.62 99.3588C91.9367 90.8584 89.6869 90.8809 89.6869 90.8809C89.6869 90.8809 83.8416 93.5738 77.418 96.6753L77.4191 96.6741Z" fill="#BDDEFF"/>
<path d="M105.662 104.314C105.716 104.921 105.138 105.384 104.564 105.186L99.3382 103.546C99.3382 103.546 102.739 98.7349 97.8359 93.3809L102.791 97.2166C104.325 98.402 105.298 100.186 105.471 102.13L105.662 104.313V104.314Z" fill="#48A4FF"/>
<path d="M118.38 65.3473C116.838 64.7168 114.357 64.3001 112.699 64.1749C106.108 63.6814 103.491 64.1076 97.1476 66.908L37.8869 93.0738L26.1062 87.4919L20.3251 90.0432C19.9875 90.1919 19.8918 90.6323 20.1382 90.9097L27.1798 100.604C31.9843 103.681 35.6569 104.671 39.0083 105.16C47.8371 106.445 56.7932 104.772 65.261 102.249C73.6541 99.7489 81.942 96.5861 90.0769 93.3359C99.0459 89.7527 107.882 85.8119 116.693 81.8521C119.123 80.7601 121.666 79.8817 123.961 78.5063C125.17 77.7814 126.453 76.8546 127.387 75.7897C128.074 75.0093 128.585 74.0235 128.608 72.9799C128.629 71.9941 128.213 71.0378 127.611 70.2621C125.35 67.3472 121.591 66.6601 118.38 65.3473Z" fill="#E5F2FF"/>
<path d="M127.781 76.1883C128.468 75.408 128.978 74.4222 129.002 73.3785C129.018 72.6442 128.79 71.9252 128.424 71.2853C124.045 69.3255 107.991 74.2994 95.933 79.2213C83.8755 84.1433 48.1013 99.4722 42.2081 101.207C36.3148 102.941 26.9476 98.5549 21.7891 93.0391L27.5725 101.001C32.3771 104.079 36.0497 105.068 39.4011 105.557C48.2298 106.843 57.1859 105.17 65.6538 102.647C74.0468 100.146 82.3348 96.9835 90.4697 93.7333C99.4386 90.1502 108.274 86.2093 117.086 82.2496C119.515 81.1575 122.058 80.2791 124.354 78.9037C125.564 78.1788 126.845 77.2521 127.78 76.1872L127.781 76.1883Z" fill="#BDDEFF"/>
<path d="M39.8807 97.0686C40.1131 97.6081 39.8409 98.2327 39.2907 98.4239L29.9912 101.669C29.5742 101.815 29.1174 101.802 28.7098 101.632L21.597 98.6683C21.0258 98.431 21.0386 97.6093 21.6168 97.3897L25.5056 95.9128C26.9541 95.3626 28.5135 95.1737 30.0496 95.3614L39.0852 96.47C39.4368 96.5125 39.7393 96.7416 39.8807 97.0686Z" fill="#48A4FF"/>
<path d="M100.241 70.9441L99.5691 71.2321C99.0797 71.4411 98.5236 71.1743 98.325 70.6359L97.9057 69.4919C97.7083 68.9536 97.9442 68.3467 98.4337 68.1366L99.1054 67.8485C99.5948 67.6395 100.151 67.9064 100.349 68.4447L100.769 69.5887C100.966 70.1271 100.73 70.7339 100.241 70.9441Z" fill="#4F4D5D"/>
<path d="M95.4127 73.0105L94.741 73.2985C94.2515 73.5075 93.6955 73.2407 93.4969 72.7023L93.0776 71.5583C92.8801 71.02 93.1161 70.4131 93.6056 70.203L94.2772 69.9149C94.7667 69.7059 95.3227 69.9728 95.5201 70.5111L95.9395 71.6551C96.1369 72.1935 95.9009 72.8003 95.4115 73.0105H95.4127Z" fill="#4F4D5D"/>
<path d="M90.5884 75.0769L89.9168 75.3649C89.4273 75.5739 88.8713 75.3071 88.6727 74.7687L88.2533 73.6247C88.0559 73.0864 88.2919 72.4795 88.7813 72.2694L89.453 71.9813C89.9425 71.7724 90.4985 72.0392 90.6971 72.5775L91.1164 73.7215C91.3139 74.2599 91.0779 74.8667 90.5884 75.0769Z" fill="#4F4D5D"/>
<path d="M85.763 77.1433L85.0914 77.4313C84.6019 77.6403 84.0459 77.3735 83.8485 76.8351L83.4291 75.6911C83.2317 75.1528 83.4677 74.5459 83.9571 74.3358L84.6288 74.0477C85.1182 73.8388 85.6743 74.1056 85.8729 74.6439L86.2922 75.7879C86.4896 76.3263 86.2537 76.9331 85.7642 77.1433H85.763Z" fill="#4F4D5D"/>
<path d="M80.94 79.2097L80.2683 79.4977C79.7789 79.7067 79.2228 79.4399 79.0243 78.9015L78.6049 77.7575C78.4075 77.2192 78.6434 76.6124 79.1329 76.4022L79.8046 76.1141C80.294 75.9052 80.8501 76.172 81.0475 76.7103L81.4668 77.8543C81.6642 78.3927 81.4283 78.9995 80.9388 79.2097H80.94Z" fill="#4F4D5D"/>
<path d="M76.1158 81.2761L75.4441 81.5642C74.9547 81.7731 74.3986 81.5063 74.2 80.9679L73.7807 79.8239C73.5833 79.2856 73.8192 78.6788 74.3087 78.4686L74.9804 78.1805C75.4698 77.9716 76.0258 78.2384 76.2244 78.7767L76.6438 79.9208C76.8412 80.4591 76.6052 81.0659 76.1158 81.2761Z" fill="#4F4D5D"/>
<path d="M66.6314 85.3386L65.9597 85.6267C65.4703 85.8356 64.9142 85.5688 64.7157 85.0304L64.2963 83.8864C64.0989 83.3481 64.3348 82.7413 64.8243 82.5311L65.496 82.243C65.9854 82.0341 66.5415 82.3009 66.74 82.8392L67.1594 83.9833C67.3568 84.5216 67.1209 85.1284 66.6314 85.3386Z" fill="#4F4D5D"/>
<path d="M61.8072 87.405L61.1355 87.6931C60.6461 87.902 60.09 87.6352 59.8914 87.0969L59.4721 85.9529C59.2747 85.4145 59.5106 84.8077 60.0001 84.5975L60.6718 84.3094C61.1612 84.1005 61.7172 84.3673 61.9158 84.9057L62.3352 86.0497C62.5326 86.588 62.2966 87.1948 61.8072 87.405Z" fill="#4F4D5D"/>
<path d="M56.6431 89.6179L55.9714 89.906C55.482 90.1149 54.926 89.8481 54.7274 89.3097L54.308 88.1657C54.1106 87.6274 54.3466 87.0206 54.836 86.8104L55.5077 86.5223C55.9971 86.3134 56.5532 86.5802 56.7518 87.1185L57.1711 88.2626C57.3685 88.8009 57.1326 89.4077 56.6431 89.6179Z" fill="#4F4D5D"/>
<path d="M51.4752 91.8327L50.8035 92.1208C50.314 92.3298 49.758 92.0629 49.5594 91.5246L49.1401 90.3806C48.9426 89.8422 49.1786 89.2354 49.668 89.0253L50.3397 88.7372C50.8292 88.5282 51.3852 88.795 51.5838 89.3334L52.0032 90.4774C52.2006 91.0157 51.9646 91.6226 51.4752 91.8327Z" fill="#4F4D5D"/>
<path d="M46.3072 94.0456L45.6355 94.3337C45.1461 94.5427 44.59 94.2758 44.3914 93.7375L43.9721 92.5935C43.7747 92.0551 44.0106 91.4483 44.5001 91.2381L45.1718 90.9501C45.6612 90.7411 46.2172 91.0079 46.4158 91.5463L46.8352 92.6903C47.0326 93.2286 46.7966 93.8355 46.3072 94.0456Z" fill="#4F4D5D"/>
<path d="M78.8786 83.068C78.8786 83.3643 78.7805 83.6476 78.6158 83.8767C78.4873 84.0561 78.3132 84.2049 78.1088 84.3029C78.0551 84.33 77.9978 84.3524 77.9359 84.3749L62.3098 90.2189C61.5236 90.5152 60.6568 90.4975 59.8835 90.174L30.9628 78.1047C30.9628 78.1047 30.9535 78.1094 30.95 78.1047L24.3371 75.3421C23.6841 75.0682 23.6573 74.1426 24.2974 73.8333L28.5459 71.7625C28.6931 71.6905 28.8345 71.6279 28.9863 71.5689C30.693 70.8452 32.5818 70.6929 34.3866 71.1332L45.9371 73.9537C46.0084 73.9667 46.0434 73.9761 46.0434 73.9761L77.8343 81.7339C78.4476 81.8826 78.8786 82.4351 78.8786 83.068Z" fill="#E5F2FF"/>
<path d="M78.1088 84.3055C78.0551 84.3326 77.9978 84.3551 77.9359 84.3775L62.3097 90.2215C61.5236 90.5178 60.6568 90.5001 59.8835 90.1766L30.9628 78.1061C30.9628 78.1061 30.9535 78.1109 30.95 78.1061L24.3371 75.3435C23.6841 75.0696 23.6573 74.144 24.2974 73.8347L28.5459 71.7639C28.6931 71.6919 28.8345 71.6293 28.9863 71.5703L78.1111 84.3043L78.1088 84.3055Z" fill="#BDDEFF"/>
<path d="M45.936 73.9557C45.0155 73.7668 38.2204 72.6216 30.9757 78.1102C30.9757 78.1102 30.971 78.1102 30.9628 78.1055C30.9581 78.1102 30.9535 78.1102 30.95 78.1055L24.3371 75.3429C23.6841 75.069 23.6573 74.1434 24.2974 73.8341L28.5459 71.7633C30.3636 70.8778 32.4265 70.6582 34.3854 71.134L45.936 73.9545V73.9557Z" fill="#48A4FF"/>
<path d="M121.865 66.6205C121.865 66.6205 116.294 65.5828 109.917 68.5118C103.541 71.4409 104.598 64.2392 111.668 64.1046C117.222 63.9996 121.865 66.6205 121.865 66.6205Z" fill="#4F4D5D"/>
</g>
<path d="M61.1089 147.002H61.0615C61.3455 146.178 61.4875 145.288 61.4875 144.368C61.4875 139.753 57.7863 136 53.2427 136C49.0683 136 45.6227 139.16 45.0926 143.258C45.0453 143.622 45.0453 143.277 45.0453 143.277C43.8715 141.563 41.9121 140.404 39.6687 140.404C36.0811 140.404 33.194 143.354 33.194 147.002H32.9101C29.1048 147.002 26 150.142 26 154.01C26 157.879 29.1048 161 32.9101 161H61.1183C64.9141 161 68 157.859 68 154.01C68 150.142 64.9141 147.002 61.1089 147.002Z" fill="#C0E8FF"/>
<path d="M79.1089 160.002H79.0615C79.3455 159.178 79.4875 158.288 79.4875 157.368C79.4875 152.753 75.7863 149 71.2427 149C67.0683 149 63.6227 152.16 63.0926 156.258C63.0453 156.622 63.0453 156.277 63.0453 156.277C61.8715 154.563 59.9121 153.404 57.6687 153.404C54.0811 153.404 51.194 156.354 51.194 160.002H50.9101C47.1048 160.002 44 163.142 44 167.01C44 170.879 47.1048 174 50.9101 174H79.1183C82.9141 174 86 170.859 86 167.01C86 163.142 82.9141 160.002 79.1089 160.002Z" fill="white"/>
<path d="M130.914 131.481H130.879C131.088 130.921 131.193 130.316 131.193 129.691C131.193 126.552 128.461 124 125.108 124C122.027 124 119.483 126.149 119.092 128.935C119.057 129.183 119.057 128.948 119.057 128.948C118.191 127.783 116.745 126.995 115.089 126.995C112.441 126.995 110.31 129 110.31 131.481H110.1C107.292 131.481 105 133.617 105 136.247C105 138.877 107.292 141 110.1 141H130.921C133.722 141 136 138.864 136 136.247C136 133.617 133.722 131.481 130.914 131.481Z" fill="white"/>
<path d="M111.914 29.481H111.879C112.088 28.9211 112.193 28.3156 112.193 27.6905C112.193 24.5523 109.461 22 106.108 22C103.027 22 100.483 24.1486 100.092 26.9353C100.057 27.1827 100.057 26.9483 100.057 26.9483C99.1909 25.7828 97.7446 24.995 96.0888 24.995C93.4408 24.995 91.3099 27.0004 91.3099 29.481H91.1003C88.2916 29.481 86 31.6166 86 34.247C86 36.8774 88.2916 39 91.1003 39H111.921C114.722 39 117 36.8644 117 34.247C117 31.6166 114.722 29.481 111.914 29.481Z" fill="white"/>
<path d="M41.8826 43.8407H41.8612C41.9896 43.4784 42.0539 43.0866 42.0539 42.6821C42.0539 40.6515 40.3795 39 38.3241 39C36.4357 39 34.8769 40.3903 34.6371 42.1934C34.6157 42.3535 34.6157 42.2018 34.6157 42.2018C34.0847 41.4477 33.1983 40.938 32.1835 40.938C30.5605 40.938 29.2545 42.2355 29.2545 43.8407H29.126C27.4046 43.8407 26 45.2225 26 46.9245C26 48.6266 27.4046 50 29.126 50H41.8869C43.604 50 45 48.6182 45 46.9245C45 45.2225 43.604 43.8407 41.8826 43.8407Z" fill="#C0E8FF"/>
<defs>
<clipPath id="clip0_10888_18151">
<rect width="109" height="42" fill="white" transform="translate(20 64)"/>
</clipPath>
</defs>
</svg>
