<svg width="150" height="200" viewBox="0 0 150 200" fill="none" xmlns="http://www.w3.org/2000/svg">
<rect width="150" height="200" fill="#A3D3FF"/>
<path d="M50.7652 156.681H50.7223C50.9793 155.957 51.1077 155.173 51.1077 154.364C51.1077 150.303 47.7591 147 43.6482 147C39.8713 147 36.7539 149.781 36.2743 153.387C36.2315 153.707 36.2315 153.404 36.2315 153.404C35.1695 151.895 33.3967 150.876 31.3669 150.876C28.121 150.876 25.5089 153.471 25.5089 156.681H25.252C21.8091 156.681 19 159.445 19 162.849C19 166.253 21.8091 169 25.252 169H50.7737C54.208 169 57 166.236 57 162.849C57 159.445 54.208 156.681 50.7652 156.681Z" fill="#D6E9FF"/>
<path d="M66.7652 168.681H66.7223C66.9793 167.957 67.1077 167.173 67.1077 166.364C67.1077 162.303 63.7591 159 59.6482 159C55.8713 159 52.7539 161.781 52.2743 165.387C52.2315 165.707 52.2315 165.404 52.2315 165.404C51.1695 163.895 49.3967 162.876 47.3669 162.876C44.121 162.876 41.5089 165.471 41.5089 168.681H41.252C37.8091 168.681 35 171.445 35 174.849C35 178.253 37.8091 181 41.252 181H66.7737C70.208 181 73 178.236 73 174.849C73 171.445 70.208 168.681 66.7652 168.681Z" fill="white"/>
<g clip-path="url(#clip0_10888_18207)">
<path d="M100.527 138.837C100.439 138.821 100.381 138.737 100.397 138.65L102.046 129.505C102.062 129.418 102.145 129.36 102.233 129.376C102.321 129.391 102.379 129.475 102.363 129.563L100.714 138.707C100.699 138.795 100.615 138.853 100.527 138.837Z" fill="#FFF5E8"/>
<path d="M97.8416 138.354C97.766 138.34 97.7086 138.274 97.709 138.194L97.7424 129.692C97.7429 129.603 97.8152 129.532 97.9046 129.532C97.9936 129.532 98.0657 129.605 98.0652 129.694L98.0321 138.196C98.0316 138.285 97.9593 138.357 97.8699 138.356C97.8604 138.356 97.8511 138.355 97.8419 138.354L97.8416 138.354Z" fill="#FFF5E8"/>
<path d="M103.225 139.321C103.216 139.319 103.207 139.317 103.198 139.314C103.114 139.283 103.071 139.191 103.101 139.107L106.026 131.124C106.057 131.04 106.149 130.997 106.233 131.028C106.317 131.058 106.36 131.151 106.33 131.234L103.405 139.218C103.378 139.292 103.301 139.335 103.225 139.321L103.225 139.321Z" fill="#FFF5E8"/>
<path d="M104.631 137.343C104.204 139.723 103.229 141.726 102.076 142.871C102.033 142.914 101.976 142.932 101.92 142.922L97.8118 142.185C97.7564 142.175 97.7091 142.138 97.6838 142.083C97.0002 140.609 96.783 138.391 97.2101 136.011L97.2105 136.009C97.2302 135.899 97.3266 135.825 97.4258 135.843L104.488 137.11C104.587 137.128 104.652 137.231 104.632 137.341L104.632 137.343L104.631 137.343Z" fill="#FFF5E8"/>
<path d="M125.029 112.819C123.463 121.543 112.386 129.099 105.885 132.845L97.5968 131.357C92.8034 125.585 85.0442 114.649 86.6096 105.925C88.8451 93.467 98.6433 88.3342 109.252 90.2379C119.861 92.1415 127.264 100.361 125.028 112.819L125.029 112.819Z" fill="#771DEB"/>
<path d="M119.911 111.901C118.346 120.625 109.777 128.631 104.779 132.647L98.6982 131.555C95.4089 126.052 90.1575 115.567 91.7228 106.843C93.9586 94.385 101.467 88.8413 109.251 90.238C117.035 91.6348 122.147 99.443 119.911 111.901Z" fill="#B17DF9"/>
<path d="M112.733 110.614C111.167 119.338 106.118 127.975 103.231 132.37L100.247 131.834C99.0685 126.71 97.3372 116.856 98.9025 108.132C101.138 95.674 105.432 89.5535 109.251 90.2388C113.07 90.9241 114.968 98.1556 112.732 110.614L112.733 110.614Z" fill="#771DEB"/>
</g>
<path d="M53.7862 92.3825C53.6622 92.3825 53.5621 92.2822 53.5625 92.159L53.5737 79.2622C53.5737 79.139 53.6739 79.0391 53.7978 79.0391C53.9217 79.0391 54.0219 79.1394 54.0215 79.2626L54.0102 92.1594C54.0102 92.2826 53.9101 92.3825 53.7862 92.3825Z" fill="#FFF5E8"/>
<path d="M49.9963 92.3829C49.8896 92.3829 49.7951 92.3066 49.7761 92.1976L47.7377 80.5748C47.7166 80.4533 47.7977 80.3374 47.9199 80.3158C48.0417 80.2947 48.1578 80.3757 48.179 80.4976L50.2178 92.1205C50.2389 92.242 50.1578 92.3579 50.0356 92.3794C50.0226 92.3816 50.0097 92.3829 49.9967 92.3829H49.9963Z" fill="#FFF5E8"/>
<path d="M57.5916 92.3829C57.5786 92.3829 57.5657 92.3816 57.5527 92.3794C57.431 92.3583 57.3494 92.2424 57.3705 92.1205L59.4093 80.4976C59.4305 80.3761 59.5466 80.2947 59.6688 80.3158C59.7906 80.3369 59.8722 80.4528 59.851 80.5747L57.8126 92.1976C57.7937 92.3062 57.6991 92.3829 57.5925 92.3829H57.5916Z" fill="#FFF5E8"/>
<path d="M59.0262 89.3334C59.0262 92.6897 58.1856 95.6652 56.8907 97.5125C56.8428 97.581 56.769 97.6206 56.6908 97.6206H50.8979C50.8198 97.6206 50.7459 97.581 50.698 97.5125C49.4027 95.6657 48.5625 92.6901 48.5625 89.3334V89.3304C48.5625 89.1757 48.6761 89.0508 48.8159 89.0508H58.7737C58.9131 89.0508 59.0271 89.1757 59.0271 89.3304V89.3334H59.0262Z" fill="#FFF5E8"/>
<path d="M80.8797 50.8328C80.8797 63.1337 67.5996 76.1713 59.6371 82.8823H47.9501C39.9872 76.1713 26.707 63.1337 26.707 50.8328C26.707 33.2653 38.8339 23.8516 53.7932 23.8516C68.7524 23.8516 80.8793 33.2653 80.8793 50.8328H80.8797Z" fill="#FD803A"/>
<path d="M73.6651 50.8328C73.6651 63.1337 63.9211 76.1713 58.0789 82.8823H49.5041C43.662 76.1709 33.918 63.1337 33.918 50.8328C33.9184 33.2653 42.8157 23.8516 53.7915 23.8516C64.7673 23.8516 73.6651 33.2653 73.6651 50.8328Z" fill="#FCE138"/>
<path d="M63.5439 50.8328C63.5439 63.1337 58.763 76.1713 55.897 82.8823H51.6899C48.8234 76.1709 44.043 63.1337 44.043 50.8328C44.0425 33.2653 48.4081 23.8516 53.793 23.8516C59.1779 23.8516 63.5435 33.2653 63.5435 50.8328H63.5439Z" fill="#FC7338"/>
<path d="M127.914 37.481H127.879C128.088 36.9211 128.193 36.3156 128.193 35.6905C128.193 32.5523 125.461 30 122.108 30C119.027 30 116.483 32.1486 116.092 34.9353C116.057 35.1827 116.057 34.9483 116.057 34.9483C115.191 33.7828 113.745 32.995 112.089 32.995C109.441 32.995 107.31 35.0004 107.31 37.481H107.1C104.292 37.481 102 39.6166 102 42.247C102 44.8774 104.292 47 107.1 47H127.921C130.722 47 133 44.8644 133 42.247C133 39.6166 130.722 37.481 127.914 37.481Z" fill="white"/>
<defs>
<clipPath id="clip0_10888_18207">
<rect width="39.0327" height="53.151" fill="white" transform="translate(90.043 86.791) rotate(10.1727)"/>
</clipPath>
</defs>
</svg>
