<svg width="150" height="200" viewBox="0 0 150 200" fill="none" xmlns="http://www.w3.org/2000/svg">
<rect width="150" height="200" fill="#FFAEDF"/>
<path d="M112.296 115.658C93.1123 134.032 107.996 152.284 120.895 159.129L112.296 115.658Z" fill="#7CB127"/>
<path d="M127.926 157.672C127.94 157.651 127.954 157.629 127.969 157.608C131.129 152.413 130.419 145.698 126.399 141.135C122.487 136.694 118.18 132.26 117.406 129.555C115.822 124.023 121.483 121.24 126.292 118.083L127.668 117.179C129.746 115.816 129.452 113.068 127.424 112.279L121.082 109.832L113.414 114.869C107.259 118.908 104.729 125.788 106.75 132.87C108.133 137.72 118.38 146.91 118.38 146.91C111.867 156.926 124.221 163.692 127.926 157.672Z" fill="#639B1B"/>
<path d="M118.027 146.602C118.264 146.795 118.378 146.91 118.378 146.91C118.264 147.104 118.142 147.283 118.027 147.477V146.602Z" fill="#FFB95C"/>
<path d="M123.76 60.3418V138.172C121.352 135.488 119.117 132.934 118.027 130.954V60.3418H123.76Z" fill="#FCE4EC"/>
<path d="M17.1233 159.525H22.4978C24.2248 159.525 25.7584 158.434 26.3316 156.805L43.8812 106.892C44.4545 105.263 45.988 104.173 47.7151 104.173H55.7123C57.6113 104.173 59.3957 102.96 59.8543 101.109C60.5351 98.3756 58.4856 95.9219 55.87 95.9219H42.491C40.764 95.9219 39.2305 97.0124 38.6572 98.641L21.1076 148.555C20.5343 150.183 19.0008 151.274 17.2738 151.274C15.3748 151.274 13.5905 152.486 13.1318 154.337C12.4511 157.071 14.5005 159.525 17.1233 159.525Z" fill="#FA4968"/>
<path d="M79.6257 154.2H65.7379C64.921 154.2 64.2617 153.54 64.2617 152.722C64.2617 151.904 64.921 151.244 65.7379 151.244H79.6257C80.4426 151.244 81.1019 151.904 81.1019 152.722C81.1019 153.54 80.4426 154.2 79.6257 154.2Z" fill="#425060"/>
<path d="M128.469 118.398C120.135 116.64 112.575 112.816 107.595 109.838C103.059 107.126 98.0496 105.318 92.8184 104.608L90.7188 104.321V92.1172L92.8184 92.4042C98.0496 93.1145 103.059 94.9225 107.595 97.6344C113.127 100.942 121.841 105.297 131.257 106.696C134.002 107.105 136.001 109.508 136.001 112.285C136.001 116.253 132.346 119.216 128.469 118.398Z" fill="#7CB127"/>
<path d="M79.6257 145.497H65.7379C64.921 145.497 64.2617 144.837 64.2617 144.019C64.2617 143.201 64.921 142.541 65.7379 142.541H79.6257C80.4426 142.541 81.1019 143.201 81.1019 144.019C81.1019 144.837 80.4426 145.497 79.6257 145.497Z" fill="#425060"/>
<path d="M79.6257 161C78.8087 161 78.1495 160.34 78.1495 159.522V101.157H67.2141V159.522C67.2141 160.34 66.5548 161 65.7379 161C64.921 161 64.2617 160.34 64.2617 159.522V99.6791C64.2617 98.8612 64.921 98.2012 65.7379 98.2012H79.6257C80.4426 98.2012 81.1019 98.8612 81.1019 99.6791V159.522C81.1019 160.333 80.4426 161 79.6257 161Z" fill="#425060"/>
<path d="M79.6257 136.794H65.7379C64.921 136.794 64.2617 136.134 64.2617 135.316C64.2617 134.498 64.921 133.838 65.7379 133.838H79.6257C80.4426 133.838 81.1019 134.498 81.1019 135.316C81.1019 136.134 80.4426 136.794 79.6257 136.794Z" fill="#425060"/>
<path d="M79.6257 128.085H65.7379C64.921 128.085 64.2617 127.425 64.2617 126.607C64.2617 125.789 64.921 125.129 65.7379 125.129H79.6257C80.4426 125.129 81.1019 125.789 81.1019 126.607C81.1019 127.425 80.4426 128.085 79.6257 128.085Z" fill="#425060"/>
<path d="M79.6257 119.382H65.7379C64.921 119.382 64.2617 118.722 64.2617 117.904C64.2617 117.086 64.921 116.426 65.7379 116.426H79.6257C80.4426 116.426 81.1019 117.086 81.1019 117.904C81.1019 118.722 80.4426 119.382 79.6257 119.382Z" fill="#425060"/>
<path d="M73.496 38L100 64H47L73.496 38Z" fill="#FA4968"/>
<g opacity="0.4">
<path d="M64.742 60.0333H63.0365C62.4561 60.0333 61.9258 59.689 61.6893 59.158C61.4528 58.6271 61.5531 58.0029 61.9401 57.5653L71.6286 46.7891C72.1732 46.1864 73.1048 46.1362 73.7139 46.6814C74.3158 47.2267 74.366 48.1594 73.8214 48.7692L65.8742 57.6083C66.0892 57.8666 66.2182 58.1967 66.2182 58.5554C66.2182 59.3733 65.5589 60.0333 64.742 60.0333Z" fill="white"/>
<path d="M75.6123 60.0341H72.4449C71.628 60.0341 70.9688 59.374 70.9688 58.5561C70.9688 57.7382 71.628 57.0781 72.4449 57.0781H75.6123C76.4293 57.0781 77.0885 57.7382 77.0885 58.5561C77.0885 59.374 76.4293 60.0341 75.6123 60.0341Z" fill="white"/>
</g>
<path d="M94 64H87V160H94V64Z" fill="#FFF1F5"/>
<path d="M58 64H52V160H58V64Z" fill="#FFF1F5"/>
<path d="M87 89H58V110H87V89Z" fill="#559AFF"/>
<path d="M72.8263 105.326C75.8025 105.326 78.2152 102.91 78.2152 99.9304C78.2152 96.9507 75.8025 94.5352 72.8263 94.5352C69.8502 94.5352 67.4375 96.9507 67.4375 99.9304C67.4375 102.91 69.8502 105.326 72.8263 105.326Z" fill="#E5E5E5"/>
</svg>
