<svg width="150" height="200" viewBox="0 0 150 200" fill="none" xmlns="http://www.w3.org/2000/svg">
<g clip-path="url(#clip0_10888_17018)">
<rect width="150" height="200" fill="#FFDDF1"/>
<path d="M125 150.847L125 55.1525C125 51.7546 122.007 49 118.315 49L41.6854 49C37.9932 49 35 51.7546 35 55.1525L35 150.847C35 154.245 37.9932 157 41.6854 157L118.315 157C122.007 157 125 154.245 125 150.847Z" fill="#FFBFE5"/>
<path d="M121 49.139L121 148.861C121 151.145 118.985 153 116.503 153L35.4974 153C33.0152 153 31 151.145 31 148.861L31 49.139C31 46.8546 33.0152 45 35.4974 45L116.503 45C118.985 45 121 46.8546 121 49.139Z" fill="white"/>
<path d="M76.273 82.4805L83.2013 78L85.4819 85.9002L93.3862 86.1153L91.3477 94.1836L97.6484 99.2451L91.2637 104.519L93.3862 112.377L85.6351 112.575L83.7227 120.493L76.273 116.166L68.4256 120.493L65.935 113.196L57.2647 112.377L59.5033 104.668L53 99.2451L59.1771 94.4952L57.2647 86.1153L65.7719 85.4007L68.4256 78L76.273 82.4805Z" fill="#F7623D"/>
<path d="M75.325 115.023C84.0347 115.023 91.0953 107.959 91.0953 99.2458C91.0953 90.5324 84.0347 83.4688 75.325 83.4688C66.6153 83.4688 59.5547 90.5324 59.5547 99.2458C59.5547 107.959 66.6153 115.023 75.325 115.023Z" fill="#FFD25D"/>
<path d="M111.516 106.474L116.374 108.189C116.602 108.27 116.806 108.406 116.967 108.585L139.169 133.141L132.189 139.398L109.987 114.842C109.826 114.663 109.709 114.446 109.653 114.212L108.447 109.223" fill="#EEEEEE"/>
<path d="M131.453 139.127L132.892 140.718C133.081 140.926 133.404 140.943 133.614 140.756L140.377 134.695C140.587 134.507 140.603 134.186 140.414 133.977L138.976 132.386C138.787 132.178 138.463 132.161 138.254 132.349L131.491 138.409C131.281 138.597 131.264 138.918 131.453 139.127Z" fill="#E0E0E0"/>
<path d="M113.521 118.757L118.426 124.178L125.413 117.917L120.508 112.496L113.521 118.757Z" fill="#FF5329"/>
<path d="M104.861 105.534L108.22 109.245C108.413 109.459 108.745 109.477 108.959 109.284L111.525 106.985C111.74 106.793 111.757 106.463 111.563 106.249L108.205 102.538C108.012 102.324 107.68 102.306 107.465 102.499L104.9 104.798C104.685 104.99 104.668 105.32 104.861 105.534Z" fill="#FF5329"/>
<path d="M103.586 78.7415C102.946 78.3567 102.148 78.0296 101.288 77.7547C100.288 78.1463 99.4037 78.8381 99.4328 80.0587C99.4575 81.1452 99.0734 81.8061 98.595 82.21C99.2395 82.8399 99.8995 83.3903 100.538 83.7753C103.566 85.5977 104.122 84.3954 104.963 83.0069C105.804 81.6166 106.613 80.566 103.584 78.7436L103.586 78.7415Z" fill="#FFF3E0"/>
<path d="M117.802 87.147C119.924 88.2607 122.185 89.537 124.509 90.9344C130.709 94.6665 135.577 98.9926 138.452 101.825C139.32 102.678 138.452 104.11 137.291 103.744C133.438 102.525 127.332 100.243 121.132 96.5093C118.808 95.1103 116.624 93.7078 114.647 92.3585L117.802 87.147Z" fill="#7F5E39"/>
<path d="M103.647 84.6247L105.799 81.0719C109.054 82.4443 113.314 84.5373 118.159 87.1588L114.802 92.697C110.224 89.6433 106.381 86.8574 103.647 84.6247Z" fill="#EEEEEE"/>
<path d="M99.4331 80.0603C99.4044 78.8414 100.289 78.1496 101.289 77.7563C98.0793 76.7267 94 76.4062 94 76.4062C94 76.4062 96.1854 79.8599 98.5953 82.2117C99.0737 81.8078 99.4578 81.1469 99.4331 80.0603Z" fill="#FFCE3F"/>
<path d="M63.57 80.041H63.5396C63.7221 79.514 63.8134 78.9441 63.8134 78.3558C63.8134 75.4021 61.4341 73 58.5132 73C55.8296 73 53.6146 75.0222 53.2738 77.645C53.2434 77.8778 53.2434 77.6572 53.2434 77.6572C52.4888 76.5603 51.2292 75.8188 49.787 75.8188C47.4807 75.8188 45.6247 77.7062 45.6247 80.041H45.4422C42.9959 80.041 41 82.0509 41 84.5266C41 87.0023 42.9959 89 45.4422 89H63.5761C66.0162 89 68 86.99 68 84.5266C68 82.0509 66.0162 80.041 63.57 80.041Z" fill="#C0E8FF"/>
<path d="M39.663 103.016L38.3431 108.22C38.2806 108.465 38.1592 108.689 37.9889 108.873L14.6053 134.241L7.44992 127.589L30.8336 102.221C31.0039 102.037 31.2185 101.896 31.4561 101.815L36.5198 100.091" fill="#EEEEEE"/>
<path d="M7.66349 126.803L6.1491 128.447C5.95026 128.663 5.96323 129 6.17809 129.2L13.1084 135.645C13.3232 135.844 13.6586 135.831 13.8574 135.616L15.3718 133.972C15.5707 133.756 15.5577 133.419 15.3428 133.219L8.41256 126.774C8.1977 126.574 7.86234 126.587 7.66349 126.803Z" fill="#E0E0E0"/>
<path d="M27.1032 106.257L21.9414 111.861L29.1006 118.52L34.2624 112.916L27.1032 106.257Z" fill="#70CCFF"/>
<path d="M40.0085 96.0183L36.4744 99.8553C36.2707 100.077 36.284 100.422 36.5042 100.627L39.1329 103.072C39.3531 103.276 39.6968 103.263 39.9006 103.042L43.4346 99.2049C43.6384 98.9837 43.6251 98.6383 43.4049 98.4335L40.7762 95.9886C40.556 95.7838 40.2123 95.7971 40.0085 96.0183Z" fill="#70CCFF"/>
</g>
<defs>
<clipPath id="clip0_10888_17018">
<rect width="150" height="200" fill="white"/>
</clipPath>
</defs>
</svg>
