<svg width="150" height="200" viewBox="0 0 150 200" fill="none" xmlns="http://www.w3.org/2000/svg">
<rect width="150" height="200" fill="#48A4FF"/>
<path d="M110.694 113.168L75.3465 78L40 113.168L41.8586 176H109.14L111 113.168H110.694Z" fill="#D07A43"/>
<path d="M110.694 113.168L75.3465 78L40 113.168L41.8586 176H57.5096V145.251C57.5096 136.299 65.3526 128.974 74.939 128.974C84.5254 128.974 92.3684 136.299 92.3684 145.251V176H109.141L111 113.168H110.694Z" fill="url(#paint0_linear_10888_18180)"/>
<path d="M111 113.167L110.838 118.653L109.141 175.999H92.3684V145.251C92.3684 140.775 90.4074 136.706 87.2479 133.756C84.0884 130.806 79.7313 128.975 74.939 128.975C65.3535 128.975 57.5096 136.299 57.5096 145.252V176H41.8586L40.154 118.39L40 113.169L75.3465 78L110.693 113.167H111Z" fill="#EEB289"/>
<path d="M111.136 115.546L110.973 121.436C98.6087 109.748 86.6909 97.5632 75.4415 85.1079C64.2833 97.4643 52.4671 109.552 40.2088 121.153L40.0547 115.547L75.4415 77.791L110.828 115.546H111.136Z" fill="#E66A64"/>
<path d="M117.124 121.967C116.213 121.967 115.299 121.637 114.577 120.969C100.907 108.329 87.7572 95.0304 75.4407 81.393C63.1243 95.0304 49.9743 108.329 36.3048 120.969C34.7809 122.378 32.4042 122.283 30.9966 120.757C29.589 119.231 29.6841 116.851 31.208 115.441C45.7424 102.001 59.6806 87.8087 72.6367 73.258C73.3492 72.4575 74.3691 72 75.4407 72C76.5123 72 77.5322 72.4575 78.2448 73.258C91.2009 87.8087 105.139 102.001 119.673 115.44C121.197 116.85 121.292 119.23 119.885 120.756C119.145 121.559 118.136 121.966 117.124 121.966V121.967Z" fill="#E01F14"/>
<path d="M75.5918 109.094C79.8081 109.094 84.2052 114.449 83.225 118.221C82.29 121.823 78.094 119.99 75.5918 119.99C73.0896 119.99 68.8936 121.823 67.9586 118.221C66.9793 114.449 71.3765 109.094 75.5918 109.094Z" fill="#F0EAE4"/>
<path d="M69.4213 105.967C69.0567 103.855 69.9474 101.618 71.4759 101.354C73.0043 101.09 74.5928 102.897 74.9574 105.009C75.322 107.121 74.2818 108.492 72.7533 108.756C71.2248 109.02 69.7858 108.078 69.4213 105.967Z" fill="#F0EAE4"/>
<path d="M64.2509 110.825C63.5918 108.888 64.0976 106.644 65.5006 106.166C66.9036 105.687 68.6711 107.155 69.3301 109.093C69.9891 111.03 69.2129 112.48 67.8099 112.957C66.407 113.436 64.909 112.762 64.2509 110.825Z" fill="#F0EAE4"/>
<path d="M81.7655 105.967C82.1301 103.855 81.2394 101.618 79.7109 101.354C78.1824 101.09 76.5939 102.897 76.2294 105.009C75.8648 107.121 76.905 108.492 78.4335 108.756C79.962 109.02 81.4009 108.078 81.7655 105.967Z" fill="#F0EAE4"/>
<path d="M86.9343 110.825C87.5933 108.888 87.0875 106.644 85.6845 106.166C84.2816 105.687 82.514 107.155 81.855 109.093C81.196 111.03 81.9722 112.48 83.3752 112.957C84.7781 113.436 86.2762 112.762 86.9343 110.825Z" fill="#F0EAE4"/>
<path d="M132.526 175.535C133.251 172.457 134.658 164.029 129.501 160.711C128.902 160.322 128.214 159.992 127.471 159.711C128.07 166.826 125.327 176.464 125.47 179.53C125.518 180.626 126.447 180.507 126.992 181.537C127.255 182.034 127.249 182.681 126.83 183.232C129.292 184.412 134.239 184.891 134.586 181.573C134.952 178.141 131.795 178.62 132.526 175.535Z" fill="#B55A0F"/>
<path d="M96.7506 181.135C96.8824 180.956 97.0261 180.782 97.1878 180.632C97.3376 180.44 97.4694 180.237 97.5532 180.015C98.3378 177.871 96.8225 175.487 95.1694 170.456C93.9475 166.724 93.1449 163.616 93.5402 160.352C92.8754 160.681 92.2525 161.058 91.6955 161.49C86.3169 165.682 88.3593 172.462 89.09 175.541C89.8147 178.62 86.6642 178.146 87.0296 181.578C87.395 185.01 92.6658 184.382 95.0316 183.124C95.4389 182.908 95.7324 182.615 95.972 182.297C96.0019 182.207 96.0379 182.112 96.0858 182.022C96.2355 181.704 96.4871 181.429 96.7506 181.147V181.135Z" fill="#B55A0F"/>
<path d="M116.504 174.809C116.3 174.312 115.941 173.869 115.468 173.498C115.288 173.354 115.09 173.222 114.875 173.102C114.857 173.09 114.833 173.078 114.815 173.072C114.39 172.839 113.911 172.647 113.377 172.503C113.342 172.491 113.3 172.485 113.264 172.473C113.006 172.408 112.737 172.354 112.455 172.312C112.455 172.312 112.449 172.312 112.443 172.312C112.162 172.27 111.868 172.246 111.575 172.228C111.515 172.228 111.455 172.228 111.401 172.222C111.107 172.21 110.814 172.21 110.502 172.222C110.497 172.222 110.491 172.222 110.479 172.222C110.173 172.24 109.856 172.27 109.532 172.312C109.46 172.324 109.382 172.33 109.311 172.342C108.987 172.39 108.664 172.449 108.334 172.527C108.119 172.575 107.921 172.647 107.735 172.719C107.693 172.737 107.651 172.749 107.61 172.767C107.442 172.839 107.286 172.923 107.136 173.012C107.088 173.042 107.047 173.072 107.005 173.102C106.897 173.18 106.789 173.258 106.693 173.342C106.633 173.396 106.573 173.456 106.513 173.51C106.436 173.587 106.364 173.665 106.298 173.749C106.244 173.815 106.196 173.875 106.148 173.947C104.812 175.852 105.28 179.11 105.639 181.536C105.657 181.673 105.663 181.793 105.675 181.913C107.496 182.386 109.227 182.53 110.808 182.482C112.587 182.542 114.551 182.35 116.612 181.721C116.612 181.601 116.612 181.488 116.624 181.356C116.827 178.804 117.361 176.87 116.504 174.797V174.809Z" fill="#B55A0F"/>
<path d="M106.153 173.958C106.081 174.06 106.016 174.168 105.95 174.281C104.758 172.119 102.613 168.268 99.7265 163.285C96.8635 158.343 97.8518 152.605 98.9898 148.994C97.2529 147.832 95.9172 146.424 95.0188 144.879C95.0188 144.879 97.4745 148.91 94.4378 156.828C93.9706 158.044 93.6891 159.206 93.5513 160.35C93.156 163.62 93.9526 166.729 95.1805 170.454C96.8336 175.485 98.3429 177.875 97.5643 180.013C97.4805 180.241 97.3487 180.439 97.1989 180.63C97.0612 180.804 96.9115 180.966 96.7617 181.134C96.5042 181.415 96.2466 181.691 96.0969 182.008C96.0549 182.098 96.019 182.194 95.9831 182.284C95.5818 183.422 96.0729 184.5 98.864 184.625C103.41 184.823 105.914 184.823 105.68 181.924C105.668 181.798 105.662 181.679 105.644 181.547C105.285 179.121 104.818 175.869 106.153 173.958Z" fill="#D5731A"/>
<path d="M109.897 152.151C109.897 152.151 109.562 152.139 109.035 152.067C108.508 152.043 108.172 151.995 108.172 151.995C104.411 151.66 101.332 150.552 98.9906 148.988C97.8525 152.594 96.8703 158.338 99.7273 163.279C102.614 168.263 104.758 172.114 105.95 174.276C106.01 174.168 106.082 174.06 106.154 173.953C106.202 173.887 106.25 173.821 106.304 173.755C106.37 173.671 106.442 173.593 106.519 173.515C106.579 173.456 106.639 173.402 106.699 173.348C106.795 173.264 106.903 173.18 107.011 173.108C107.052 173.078 107.1 173.048 107.142 173.018C107.292 172.928 107.448 172.845 107.615 172.773C107.657 172.755 107.699 172.743 107.741 172.725C107.927 172.653 108.125 172.581 108.34 172.533C108.67 172.455 108.999 172.395 109.316 172.347C109.388 172.335 109.466 172.323 109.538 172.317C109.856 172.276 110.173 172.24 110.484 172.228C110.49 172.228 110.496 172.228 110.508 172.228C110.814 172.216 111.113 172.216 111.407 172.228C111.467 172.228 111.527 172.228 111.581 172.234C111.88 172.252 112.174 172.276 112.449 172.317C112.449 172.317 112.455 172.317 112.461 172.317C112.743 172.359 113.006 172.413 113.27 172.479C113.306 172.491 113.347 172.497 113.383 172.509C113.91 172.653 114.396 172.845 114.821 173.078C114.839 173.09 114.863 173.102 114.881 173.108C115.096 173.228 115.294 173.36 115.474 173.503C116.72 171.251 118.702 167.718 121.266 163.279C123.967 158.613 123.236 153.241 122.188 149.617C119.163 151.54 114.869 152.594 109.897 152.151Z" fill="#EFDAB6"/>
<path d="M102.771 123.712C101.046 122.011 98.4462 119.771 97.416 120.292C96.2061 120.909 97.4939 126.527 98.5001 129.527C99.6561 127.042 100.944 125.077 102.771 123.712Z" fill="#B55A0F"/>
<path d="M126.856 122.976C125.874 122.257 122.681 124.09 120.633 125.456C122.352 127.354 123.34 129.702 124.023 132.026C125.568 129.349 128.012 123.827 126.856 122.976Z" fill="#B55A0F"/>
<path d="M128.435 128.594C129.873 122.916 131.131 120.916 129.555 119.316C127.86 117.591 119.703 122.994 118.726 123.779C117.229 122.736 115.336 121.964 112.91 121.604C112.898 121.574 112.892 121.55 112.892 121.55C112.701 121.532 112.521 121.538 112.329 121.526C112.138 121.503 111.964 121.473 111.772 121.455C111.772 121.455 111.76 121.479 111.742 121.503C108.927 121.419 106.735 121.76 104.962 122.485C103.968 121.347 97.3376 114.812 95.4689 116.19C93.696 117.496 94.5585 119.7 94.9658 125.581C95.2114 129.193 96.3793 132.26 96.9603 132.972C95.6306 135.332 93.0851 138.567 93.8937 142.065C94.1153 143.029 94.4986 143.975 95.0257 144.88C95.9241 146.425 97.2538 147.832 98.9967 148.994C101.339 150.558 104.417 151.666 108.179 152.001C108.179 152.001 108.514 152.049 109.041 152.073C109.562 152.145 109.904 152.157 109.904 152.157C114.875 152.6 119.169 151.546 122.194 149.623C123.242 153.247 123.973 158.62 121.272 163.285C118.708 167.718 116.726 171.258 115.48 173.51C115.953 173.881 116.306 174.324 116.516 174.821C117.373 176.894 116.84 178.828 116.636 181.38C116.624 181.506 116.624 181.625 116.624 181.745C116.606 183.979 118.289 184.423 123.188 184.452C125.207 184.464 126.333 183.919 126.842 183.243C127.261 182.686 127.267 182.045 127.004 181.548C126.459 180.517 125.536 180.637 125.482 179.541C125.339 176.474 128.076 166.837 127.483 159.722C127.339 158.039 127.016 156.493 126.417 155.212C124.243 150.546 125.524 146.455 125.524 146.455H125.512C125.752 146.09 125.974 145.718 126.153 145.329C127.77 141.825 125.752 137.77 124.979 135.572C124.979 135.572 124.991 135.572 124.997 135.572C125.596 135.284 127.507 132.35 128.447 128.618L128.435 128.594ZM115.055 134.236C115.151 133.152 115.893 132.338 116.708 132.409C117.522 132.481 118.109 133.416 118.013 134.5C117.918 135.584 117.175 136.404 116.36 136.327C115.546 136.255 114.959 135.32 115.055 134.236ZM103.118 133.176C103.213 132.092 103.956 131.277 104.771 131.349C105.585 131.421 106.172 132.356 106.076 133.44C105.981 134.524 105.238 135.344 104.423 135.272C103.609 135.201 103.022 134.266 103.118 133.182V133.176ZM98.5056 129.528C97.4994 126.534 96.2116 120.91 97.4215 120.293C98.4457 119.772 101.045 122.012 102.776 123.713C100.949 125.078 99.6676 127.043 98.5056 129.528ZM116.306 147.904C114.863 148.941 113.503 149.635 112.234 150.043C111.275 150.45 110.215 150.624 109.071 150.492C107.927 150.42 106.909 150.061 106.04 149.492C104.866 148.863 103.645 147.94 102.405 146.665C98.6553 142.807 99.3501 139.902 101.914 138.686C104.477 137.465 107.496 136.518 108.245 134.59C108.987 132.679 108.927 127.935 110.934 128.091C110.934 128.091 110.94 128.091 110.946 128.091L111.06 128.103L111.173 128.115C111.173 128.115 111.179 128.121 111.185 128.121C113.186 128.319 112.293 132.978 112.683 134.991C113.078 137.021 115.881 138.483 118.193 140.136C120.505 141.789 120.679 144.766 116.306 147.904ZM124.021 132.026C123.332 129.702 122.35 127.354 120.631 125.456C122.685 124.09 125.878 122.257 126.854 122.976C128.01 123.82 125.566 129.349 124.021 132.026Z" fill="#D5731A"/>
<path d="M102.413 146.663C103.653 147.939 104.868 148.861 106.048 149.49C106.917 150.059 107.935 150.419 109.079 150.491C110.217 150.622 111.283 150.449 112.242 150.041C113.511 149.628 114.871 148.939 116.314 147.903C120.687 144.765 120.513 141.788 118.201 140.135C115.889 138.482 113.092 137.02 112.691 134.99C112.295 132.977 113.188 128.317 111.193 128.12C111.193 128.12 111.187 128.114 111.181 128.114L111.068 128.102L110.954 128.09C110.954 128.09 110.948 128.09 110.942 128.09C108.941 127.934 109.001 132.672 108.252 134.588C107.504 136.517 104.491 137.463 101.922 138.685C99.358 139.907 98.6573 142.806 102.413 146.663ZM105.695 144.034C106.036 143.722 106.827 144.663 108.402 145.124C108.995 144.537 109.031 143.68 108.995 143.201C108.241 142.914 107.54 142.309 107.007 141.368C105.611 138.907 107.845 138.625 110.379 138.883C113.278 139.182 114.218 140.242 112.601 142.129C111.978 142.854 111.211 143.267 110.433 143.369C110.043 144.794 110.852 145.334 110.852 145.334C112.403 145.19 112.996 144.561 113.517 144.92C113.877 145.166 112.343 146.579 109.325 146.304C106.923 146.088 105.294 144.405 105.707 144.034H105.695Z" fill="#EFDAB6"/>
<path d="M103.116 133.177C103.02 134.261 103.607 135.195 104.421 135.267C105.236 135.339 105.979 134.519 106.075 133.435C106.17 132.35 105.589 131.416 104.769 131.344C103.948 131.272 103.212 132.093 103.116 133.171V133.177Z" fill="black"/>
<path d="M116.359 136.332C117.174 136.404 117.916 135.583 118.012 134.505C118.108 133.421 117.521 132.486 116.706 132.415C115.892 132.343 115.149 133.163 115.053 134.241C114.957 135.325 115.544 136.26 116.359 136.332Z" fill="black"/>
<path d="M109.309 146.311C112.328 146.581 113.861 145.167 113.502 144.927C112.981 144.574 112.388 145.203 110.837 145.341C110.837 145.341 110.028 144.802 110.418 143.376C111.202 143.274 111.963 142.861 112.586 142.136C114.203 140.25 113.269 139.189 110.364 138.89C107.83 138.626 105.602 138.914 106.991 141.376C107.525 142.31 108.225 142.915 108.98 143.208C109.022 143.688 108.98 144.538 108.387 145.131C106.812 144.676 106.021 143.735 105.68 144.041C105.272 144.412 106.896 146.095 109.297 146.311H109.309Z" fill="#161616"/>
<defs>
<linearGradient id="paint0_linear_10888_18180" x1="41.8264" y1="111.334" x2="104.534" y2="178.481" gradientUnits="userSpaceOnUse">
<stop stop-color="#7F8DD4"/>
<stop offset="1" stop-color="#4C5ABD"/>
</linearGradient>
</defs>
</svg>
