<svg width="150" height="200" viewBox="0 0 150 200" fill="none" xmlns="http://www.w3.org/2000/svg">
<rect width="150" height="200" fill="#26A69A"/>
<path d="M110.694 113.168L75.3465 78L40 113.168L41.8586 176H109.14L111 113.168H110.694Z" fill="#D07A43"/>
<path d="M110.694 113.168L75.3465 78L40 113.168L41.8586 176H57.5096V145.251C57.5096 136.299 65.3526 128.974 74.939 128.974C84.5254 128.974 92.3684 136.299 92.3684 145.251V176H109.141L111 113.168H110.694Z" fill="url(#paint0_linear_10888_18232)"/>
<path d="M111 113.167L110.838 118.653L109.141 175.999H92.3684V145.251C92.3684 140.775 90.4074 136.706 87.2479 133.756C84.0884 130.806 79.7313 128.975 74.939 128.975C65.3535 128.975 57.5096 136.299 57.5096 145.252V176H41.8586L40.154 118.39L40 113.169L75.3465 78L110.693 113.167H111Z" fill="#EEB289"/>
<path d="M111.136 115.546L110.973 121.436C98.6087 109.748 86.6909 97.5632 75.4415 85.1079C64.2833 97.4643 52.4671 109.552 40.2088 121.153L40.0547 115.547L75.4415 77.791L110.828 115.546H111.136Z" fill="#E66A64"/>
<path d="M117.124 121.967C116.213 121.967 115.299 121.637 114.577 120.969C100.907 108.329 87.7572 95.0304 75.4407 81.393C63.1243 95.0304 49.9743 108.329 36.3048 120.969C34.7809 122.378 32.4042 122.283 30.9966 120.757C29.589 119.231 29.6841 116.851 31.208 115.441C45.7424 102.001 59.6806 87.8087 72.6367 73.258C73.3492 72.4575 74.3691 72 75.4407 72C76.5123 72 77.5322 72.4575 78.2448 73.258C91.2009 87.8087 105.139 102.001 119.673 115.44C121.197 116.85 121.292 119.23 119.885 120.756C119.145 121.559 118.136 121.966 117.124 121.966V121.967Z" fill="#E01F14"/>
<path d="M75.5918 109.094C79.8081 109.094 84.2052 114.449 83.225 118.221C82.29 121.823 78.094 119.99 75.5918 119.99C73.0896 119.99 68.8936 121.823 67.9586 118.221C66.9793 114.449 71.3765 109.094 75.5918 109.094Z" fill="#F0EAE4"/>
<path d="M69.4213 105.967C69.0567 103.855 69.9474 101.618 71.4759 101.354C73.0043 101.09 74.5928 102.897 74.9574 105.009C75.322 107.121 74.2818 108.492 72.7533 108.756C71.2248 109.02 69.7858 108.078 69.4213 105.967Z" fill="#F0EAE4"/>
<path d="M64.2509 110.825C63.5918 108.888 64.0976 106.644 65.5006 106.166C66.9036 105.687 68.6711 107.155 69.3301 109.093C69.9891 111.03 69.2129 112.48 67.8099 112.957C66.407 113.436 64.909 112.762 64.2509 110.825Z" fill="#F0EAE4"/>
<path d="M81.7655 105.967C82.1301 103.855 81.2394 101.618 79.7109 101.354C78.1824 101.09 76.5939 102.897 76.2294 105.009C75.8648 107.121 76.905 108.492 78.4335 108.756C79.962 109.02 81.4009 108.078 81.7655 105.967Z" fill="#F0EAE4"/>
<path d="M86.9343 110.825C87.5933 108.888 87.0875 106.644 85.6845 106.166C84.2816 105.687 82.514 107.155 81.855 109.093C81.196 111.03 81.9722 112.48 83.3752 112.957C84.7781 113.436 86.2762 112.762 86.9343 110.825Z" fill="#F0EAE4"/>
<path d="M93.5619 72.7357C94.1917 70.0603 95.4148 62.7371 90.9334 59.8536C90.4129 59.5153 89.8144 59.229 89.169 58.9844C89.6894 65.1678 87.3056 73.5424 87.4305 76.2073C87.4722 77.1598 88.2789 77.0557 88.7526 77.9509C88.9816 78.3829 88.9764 78.9451 88.612 79.4239C90.7512 80.4493 95.0505 80.8657 95.3524 77.9822C95.6698 74.9998 92.9269 75.4162 93.5619 72.7357Z" fill="#B55A0F"/>
<path d="M62.4732 77.6C62.5877 77.4438 62.7127 77.2929 62.8532 77.1628C62.9833 76.9962 63.0978 76.8192 63.1707 76.6267C63.8525 74.7633 62.5357 72.6918 61.0992 68.3197C60.0374 65.077 59.3399 62.3757 59.6834 59.5391C59.1057 59.8253 58.5644 60.1532 58.0803 60.528C53.4063 64.1714 55.1812 70.0633 55.8162 72.7386C56.446 75.4139 53.7082 75.0027 54.0257 77.9851C54.3432 80.9675 58.9235 80.421 60.9794 79.328C61.3334 79.1406 61.5884 78.8856 61.7966 78.6097C61.8226 78.5316 61.8539 78.4484 61.8955 78.3703C62.0256 78.0944 62.2442 77.855 62.4732 77.6104V77.6Z" fill="#B55A0F"/>
<path d="M79.6401 72.104C79.4631 71.672 79.1508 71.2868 78.7396 70.9641C78.5835 70.8392 78.4117 70.7247 78.2243 70.6206C78.2087 70.6102 78.1879 70.5998 78.1723 70.5946C77.8028 70.3916 77.3864 70.225 76.9231 70.1001C76.8919 70.0897 76.8555 70.0845 76.8242 70.0741C76.6004 70.0168 76.3662 69.97 76.1216 69.9335C76.1216 69.9335 76.1164 69.9335 76.1112 69.9335C75.8665 69.8971 75.6115 69.8763 75.3565 69.8607C75.3044 69.8607 75.2524 69.8607 75.2055 69.8555C74.9505 69.8451 74.6954 69.8451 74.4248 69.8555C74.4196 69.8555 74.4144 69.8555 74.404 69.8555C74.1385 69.8711 73.8627 69.8971 73.5816 69.9335C73.5191 69.9439 73.4515 69.9491 73.389 69.9596C73.108 70.0012 72.8269 70.0532 72.5406 70.1209C72.3533 70.1625 72.1815 70.225 72.0201 70.2875C71.9837 70.3031 71.9473 70.3135 71.9108 70.3291C71.7651 70.3916 71.6298 70.4644 71.4997 70.5425C71.458 70.5685 71.4216 70.5946 71.3851 70.6206C71.2915 70.6882 71.1978 70.7559 71.1145 70.8288C71.0624 70.8756 71.0104 70.9277 70.9583 70.9745C70.8907 71.0422 70.8282 71.1098 70.771 71.1827C70.7241 71.24 70.6825 71.292 70.6408 71.3545C69.4802 73.0096 69.8861 75.8411 70.1984 77.949C70.214 78.0688 70.2193 78.1729 70.2297 78.2769C71.8119 78.6881 73.3162 78.813 74.6902 78.7714C76.2361 78.8235 77.9433 78.6569 79.7338 78.1104C79.7338 78.0063 79.7338 77.9074 79.7442 77.7929C79.9211 75.5756 80.3844 73.8944 79.6401 72.0936V72.104Z" fill="#B55A0F"/>
<path d="M70.6453 71.3673C70.5828 71.4558 70.5255 71.5495 70.4683 71.6484C69.4325 69.7694 67.5692 66.4227 65.0604 62.0922C62.5725 57.7982 63.4313 52.8119 64.4202 49.6734C62.9108 48.6637 61.7501 47.4405 60.9694 46.0977C60.9694 46.0977 63.1034 49.6005 60.4645 56.4814C60.0585 57.538 59.8139 58.5477 59.6942 59.5418C59.3507 62.3837 60.0429 65.085 61.1099 68.3225C62.5465 72.6946 63.8581 74.7713 63.1815 76.6294C63.1086 76.8272 62.9941 76.999 62.864 77.1655C62.7443 77.3165 62.6141 77.457 62.484 77.6028C62.2602 77.8474 62.0364 78.0868 61.9063 78.3627C61.8698 78.4407 61.8386 78.524 61.8074 78.6021C61.4587 79.591 61.8855 80.5279 64.3109 80.6372C68.2614 80.809 70.4371 80.809 70.2341 78.2898C70.2237 78.1805 70.2185 78.0764 70.2028 77.9619C69.8905 75.8539 69.4846 73.0277 70.6453 71.3673Z" fill="#D5731A"/>
<path d="M73.8986 52.4161C73.8986 52.4161 73.6071 52.4057 73.1491 52.3433C72.691 52.3225 72.3996 52.2808 72.3996 52.2808C69.1309 51.9893 66.4556 51.0264 64.4205 49.668C63.4316 52.8013 62.578 57.7928 65.0607 62.0868C67.5694 66.4173 69.4328 69.764 70.4685 71.6429C70.5206 71.5493 70.5831 71.4556 70.6455 71.3619C70.6872 71.3046 70.7288 71.2474 70.7756 71.1901C70.8329 71.1173 70.8954 71.0496 70.963 70.9819C71.0151 70.9299 71.0671 70.883 71.1192 70.8362C71.2024 70.7633 71.2961 70.6905 71.3898 70.628C71.4262 70.602 71.4679 70.5759 71.5043 70.5499C71.6344 70.4718 71.7698 70.399 71.9155 70.3365C71.9519 70.3209 71.9884 70.3105 72.0248 70.2949C72.1862 70.2324 72.3579 70.17 72.5453 70.1283C72.8316 70.0607 73.1178 70.0086 73.3937 69.967C73.4561 69.9566 73.5238 69.9462 73.5863 69.941C73.8621 69.9045 74.138 69.8733 74.4086 69.8629C74.4138 69.8629 74.4191 69.8629 74.4295 69.8629C74.6949 69.8525 74.9552 69.8525 75.2102 69.8629C75.2622 69.8629 75.3143 69.8629 75.3611 69.8681C75.6214 69.8837 75.8764 69.9045 76.1158 69.941C76.1158 69.941 76.121 69.941 76.1262 69.941C76.3709 69.9774 76.5999 70.0242 76.8289 70.0815C76.8601 70.0919 76.8966 70.0971 76.9278 70.1075C77.3858 70.2324 77.8074 70.399 78.177 70.602C78.1926 70.6124 78.2134 70.6228 78.229 70.628C78.4164 70.7321 78.5882 70.8466 78.7443 70.9715C79.8269 69.0145 81.5497 65.9436 83.7774 62.0868C86.1248 58.0322 85.4898 53.3634 84.579 50.2145C81.9505 51.8852 78.2186 52.8013 73.8986 52.4161Z" fill="#EFDAB6"/>
<path d="M67.7042 27.7028C66.2052 26.2246 63.9463 24.278 63.051 24.7308C61.9996 25.2669 63.1187 30.1491 63.9931 32.7567C64.9976 30.5967 66.1167 28.8895 67.7042 27.7028Z" fill="#B55A0F"/>
<path d="M88.6344 27.0623C87.7808 26.4377 85.0066 28.0304 83.2266 29.2171C84.7204 30.867 85.5792 32.9073 86.1725 34.9268C87.5154 32.6003 89.639 27.8014 88.6344 27.0623Z" fill="#B55A0F"/>
<path d="M90.007 31.9442C91.2562 27.01 92.3492 25.2716 90.9803 23.8819C89.5073 22.3829 82.4183 27.0777 81.5699 27.7595C80.2687 26.8539 78.6239 26.1824 76.516 25.8701C76.5056 25.8441 76.5004 25.8233 76.5004 25.8233C76.3338 25.8077 76.1777 25.8129 76.0111 25.8025C75.8445 25.7817 75.6936 25.7556 75.527 25.74C75.527 25.74 75.5166 25.7608 75.501 25.7817C73.0547 25.7088 71.1497 26.0055 69.6091 26.6353C68.7451 25.6463 62.9833 19.9678 61.3594 21.1649C59.8187 22.2996 60.5682 24.215 60.9222 29.3262C61.1356 32.4647 62.1505 35.1296 62.6554 35.749C61.4999 37.7997 59.2878 40.6103 59.9905 43.65C60.1831 44.488 60.5162 45.3103 60.9742 46.0963C61.755 47.4391 62.9104 48.6623 64.4251 49.672C66.4602 51.0305 69.1355 51.9934 72.4041 52.2849C72.4041 52.2849 72.6956 52.3265 73.1536 52.3473C73.6064 52.4098 73.9031 52.4202 73.9031 52.4202C78.2232 52.8054 81.9551 51.8893 84.5835 50.2185C85.4944 53.3675 86.1294 58.0363 83.782 62.0909C81.5543 65.9425 79.8315 69.0185 78.7489 70.9756C79.16 71.2983 79.4671 71.6834 79.6493 72.1154C80.3936 73.9163 79.9304 75.5975 79.7534 77.8148C79.743 77.9241 79.743 78.0282 79.743 78.1323C79.7274 80.0737 81.1899 80.4589 85.4475 80.4849C87.2016 80.4953 88.1801 80.0216 88.6225 79.4335C88.9869 78.9494 88.9921 78.3925 88.763 77.9605C88.2894 77.0653 87.4878 77.1694 87.441 76.2169C87.3161 73.552 89.6947 65.1774 89.1794 58.994C89.0545 57.5314 88.7735 56.1885 88.253 55.0747C86.3636 51.0201 87.4774 47.4652 87.4774 47.4652H87.467C87.6752 47.1477 87.8678 46.825 88.0239 46.4867C89.4293 43.4418 87.6752 39.9181 87.0038 38.0079C87.0038 38.0079 87.0142 38.0079 87.0194 38.0079C87.5399 37.7581 89.2003 35.2077 90.0174 31.9651L90.007 31.9442ZM78.3793 36.8472C78.4626 35.9051 79.108 35.1973 79.8159 35.2597C80.5237 35.3222 81.0338 36.1342 80.9505 37.0762C80.8672 38.0183 80.2218 38.7314 79.514 38.6637C78.8061 38.6013 78.296 37.7893 78.3793 36.8472ZM68.006 35.926C68.0893 34.9839 68.7347 34.276 69.4425 34.3385C70.1504 34.4009 70.6605 35.2129 70.5772 36.155C70.4939 37.0971 69.8485 37.8101 69.1407 37.7477C68.4328 37.6852 67.9227 36.8733 68.006 35.9312V35.926ZM63.9983 32.7562C63.1238 30.1538 62.0048 25.2664 63.0562 24.7303C63.9462 24.2775 66.2051 26.2241 67.7093 27.7023C66.1218 28.889 65.008 30.5962 63.9983 32.7562ZM79.4671 48.7247C78.2128 49.6252 77.0313 50.229 75.9278 50.5829C75.095 50.9368 74.1738 51.0878 73.1796 50.9733C72.1855 50.9108 71.3007 50.5985 70.546 50.104C69.5258 49.5575 68.464 48.756 67.3866 47.6473C64.1284 44.2954 64.7321 41.771 66.9598 40.7144C69.1875 39.6527 71.8108 38.8303 72.4614 37.1543C73.1068 35.494 73.0547 31.3717 74.7984 31.507C74.7984 31.507 74.8036 31.507 74.8088 31.507L74.9077 31.5174L75.0066 31.5278C75.0066 31.5278 75.0118 31.533 75.017 31.533C76.7554 31.7048 75.9799 35.7542 76.3182 37.503C76.6617 39.2675 79.0976 40.5375 81.1067 41.974C83.1158 43.4106 83.2667 45.9974 79.4671 48.7247ZM86.171 34.9266C85.5725 32.9071 84.7189 30.8668 83.2251 29.2169C85.0103 28.0302 87.7845 26.4375 88.6329 27.0621C89.6375 27.7959 87.5139 32.6 86.171 34.9266Z" fill="#D5731A"/>
<path d="M67.3903 47.6475C68.4677 48.7561 69.5243 49.5577 70.5497 50.1042C71.3044 50.5986 72.1892 50.9109 73.1834 50.9734C74.1723 51.0879 75.0987 50.937 75.9315 50.583C77.035 50.2239 78.2165 49.6253 79.4708 48.7249C83.2704 45.9975 83.1195 43.4107 81.1104 41.9742C79.1013 40.5376 76.6706 39.2676 76.3219 37.5032C75.9784 35.7543 76.7539 31.7049 75.0207 31.5332C75.0207 31.5332 75.0155 31.528 75.0103 31.528L74.9114 31.5176L74.8125 31.5072C74.8125 31.5072 74.8073 31.5072 74.8021 31.5072C73.0636 31.3718 73.1157 35.4889 72.4651 37.1545C71.8145 38.8304 69.1964 39.6528 66.9635 40.7146C64.7358 41.7764 64.1269 44.2955 67.3903 47.6475ZM70.2426 45.3625C70.5393 45.0919 71.2263 45.909 72.5952 46.3098C73.1105 45.7997 73.1417 45.0554 73.1105 44.6391C72.4547 44.3892 71.8457 43.8635 71.3825 43.0464C70.1697 40.9072 72.1112 40.6625 74.3128 40.8863C76.832 41.1466 77.6491 42.0679 76.2438 43.7074C75.7025 44.3372 75.0363 44.6963 74.3597 44.7848C74.0213 46.0236 74.724 46.492 74.724 46.492C76.0721 46.3671 76.5873 45.8206 77.0402 46.1329C77.3525 46.3463 76.02 47.5746 73.3968 47.3352C71.3096 47.1478 69.8939 45.6852 70.253 45.3625H70.2426Z" fill="#EFDAB6"/>
<path d="M68.005 35.9246C67.9217 36.8667 68.4318 37.6787 69.1397 37.7411C69.8475 37.8036 70.4929 37.0905 70.5762 36.1484C70.6595 35.2064 70.1546 34.3944 69.4415 34.3319C68.7285 34.2695 68.0883 34.9825 68.005 35.9194V35.9246Z" fill="black"/>
<path d="M79.5147 38.6695C80.2225 38.732 80.8679 38.0189 80.9512 37.082C81.0345 36.1399 80.5244 35.328 79.8165 35.2655C79.1087 35.2031 78.4633 35.9161 78.38 36.853C78.2967 37.7951 78.8068 38.6071 79.5147 38.6695Z" fill="black"/>
<path d="M73.3882 47.3401C76.0115 47.5743 77.3439 46.346 77.0317 46.1378C76.5788 45.8307 76.0635 46.3772 74.7155 46.4969C74.7155 46.4969 74.0128 46.0285 74.3511 44.7897C75.033 44.7013 75.694 44.3421 76.2353 43.7123C77.6406 42.0728 76.8287 41.1515 74.3043 40.8913C72.1026 40.6623 70.1664 40.9121 71.374 43.0513C71.8372 43.8633 72.4462 44.389 73.102 44.644C73.1384 45.0604 73.102 45.7995 72.5867 46.3148C71.2178 45.9192 70.5308 45.102 70.2341 45.3675C69.8802 45.6902 71.2907 47.1527 73.3778 47.3401H73.3882Z" fill="#161616"/>
<defs>
<linearGradient id="paint0_linear_10888_18232" x1="41.8264" y1="111.334" x2="104.534" y2="178.481" gradientUnits="userSpaceOnUse">
<stop stop-color="#7F8DD4"/>
<stop offset="1" stop-color="#4C5ABD"/>
</linearGradient>
</defs>
</svg>
