<svg width="150" height="200" viewBox="0 0 150 200" fill="none" xmlns="http://www.w3.org/2000/svg">
<rect width="150" height="200" fill="#FFF8E1"/>
<g clip-path="url(#clip0_10888_16902)">
<path d="M74.9989 125.07C92.158 125.07 106.068 111.16 106.068 94.0009C106.068 76.8418 92.158 62.9316 74.9989 62.9316C57.8398 62.9316 43.9297 76.8418 43.9297 94.0009C43.9297 111.16 57.8398 125.07 74.9989 125.07Z" fill="#FFCA28"/>
<path d="M18.1375 82.4753L18.137 82.4779C17.7787 84.3832 19.0328 86.2182 20.9381 86.5765L31.1708 88.5007C33.0761 88.859 34.9111 87.6049 35.2693 85.6997L35.2698 85.697C35.6281 83.7917 34.374 81.9568 32.4688 81.5985L22.236 79.6742C20.3308 79.316 18.4958 80.57 18.1375 82.4753Z" fill="#FFCA28"/>
<path d="M38.8454 48.6222L38.8433 48.6239C37.3442 49.8531 37.1254 52.0649 38.3546 53.564L44.9565 61.6156C46.1857 63.1147 48.3975 63.3336 49.8966 62.1043L49.8987 62.1026C51.3978 60.8734 51.6166 58.6616 50.3874 57.1625L43.7855 49.1109C42.5563 47.6118 40.3446 47.393 38.8454 48.6222Z" fill="#FFCA28"/>
<path d="M76.4737 36.0008L76.471 36.0008C74.5324 35.9788 72.9431 37.5324 72.9211 39.471L72.803 49.8824C72.781 51.8209 74.3347 53.4103 76.2732 53.4323L76.2759 53.4323C78.2144 53.4543 79.8037 51.9006 79.8257 49.9621L79.9439 39.5506C79.9659 37.6121 78.4122 36.0228 76.4737 36.0008Z" fill="#FFCA28"/>
<path d="M113.407 50.515L113.405 50.5133C111.935 49.2504 109.718 49.4189 108.455 50.8898L101.673 58.7895C100.41 60.2604 100.578 62.4765 102.049 63.7394L102.051 63.7412C103.522 65.0041 105.738 64.8355 107.001 63.3647L113.784 55.465C115.047 53.9941 114.878 51.7779 113.407 50.515Z" fill="#FFCA28"/>
<path d="M132.375 85.3803L132.375 85.3777C132.06 83.4648 130.254 82.1694 128.341 82.4844L118.067 84.176C116.154 84.4909 114.859 86.297 115.174 88.2099L115.174 88.2125C115.489 90.1254 117.295 91.4208 119.208 91.1058L129.482 89.4142C131.395 89.0993 132.69 87.2932 132.375 85.3803Z" fill="#FFCA28"/>
<path d="M124.494 124.28L124.496 124.278C125.484 122.61 124.933 120.457 123.265 119.468L114.308 114.16C112.64 113.172 110.487 113.723 109.498 115.391L109.497 115.393C108.509 117.061 109.06 119.214 110.727 120.202L119.685 125.51C121.353 126.499 123.506 125.948 124.494 124.28Z" fill="#FFCA28"/>
<path d="M93.4511 149.008L93.4537 149.007C95.2828 148.364 96.2449 146.361 95.6025 144.532L92.1526 134.708C91.5103 132.879 89.5067 131.917 87.6776 132.559L87.675 132.56C85.8459 133.202 84.8838 135.206 85.5261 137.035L88.9761 146.859C89.6184 148.688 91.622 149.65 93.4511 149.008Z" fill="#FFCA28"/>
<path d="M53.7713 147.997L53.7739 147.998C55.588 148.682 57.6128 147.766 58.2965 145.952L61.9684 136.208C62.6521 134.394 61.7357 132.369 59.9216 131.686L59.9191 131.685C58.105 131.001 56.0801 131.918 55.3965 133.732L51.7245 143.475C51.0409 145.289 51.9572 147.314 53.7713 147.997Z" fill="#FFCA28"/>
<path d="M24.0321 121.723L24.0334 121.725C24.9836 123.415 27.1238 124.015 28.8136 123.065L37.8892 117.961C39.579 117.011 40.1786 114.871 39.2284 113.181L39.2271 113.179C38.2768 111.489 36.1367 110.889 34.4469 111.839L25.3712 116.943C23.6814 117.893 23.0818 120.033 24.0321 121.723Z" fill="#FFCA28"/>
</g>
<g clip-path="url(#clip1_10888_16902)">
<path d="M129.162 107.269C122.618 107.345 120.204 101.592 117.088 103.159C114.866 104.307 113.289 106.001 110.453 106.822C109.308 107.155 108.075 107.305 106.852 107.252C103.268 107.195 100.567 105.026 98.1887 103.48C96.8755 102.649 95.7688 102.672 94.2877 103.689C92.9222 104.579 91.1438 105.934 89.3214 106.583C87.1025 107.415 84.4623 107.482 82.1829 106.765C80.2558 106.172 78.6233 105.001 77.3845 104.155C76.4017 103.522 75.2757 102.579 73.8965 102.97C72.6907 103.362 71.8895 104.098 70.725 104.843C68.7181 106.278 65.8661 107.472 63.0085 107.244C60.7042 107.159 58.4936 106.162 56.817 105.024C55.7516 104.349 54.8817 103.619 53.8301 103.136C52.2471 102.356 50.8183 103.535 49.6731 104.299C46.3585 106.769 42.3089 108.282 37.6812 106.482C35.9606 105.805 34.4657 104.668 33.114 103.775C31.1071 102.358 29.9811 102.782 28.1531 104.077C24.9624 106.434 21.29 108.178 16.632 106.767C13.8212 105.978 11.3958 103.501 10.0414 102.246C8.87685 101.267 9.1081 103.44 9.01726 105.117C9.02551 111.153 8.95669 117.564 9.04754 123.387C9.09985 125.018 9.23199 125.955 9.60364 126.429C10.0661 127.005 10.9058 126.963 11.7565 126.986C21.981 126.993 68.6878 126.986 102.624 126.989C119.48 126.942 129.732 127.071 138.203 126.944C139.271 126.841 139.574 126.368 139.756 125.518C140.147 122.778 139.946 119.742 139.998 116.887C139.954 113.109 140.081 108.301 139.921 105.244C139.698 99.8619 136.606 107.305 129.215 107.269H129.168H129.162Z" fill="#81D4FA"/>
</g>
<g clip-path="url(#clip2_10888_16902)">
<path d="M129.162 118.058C122.618 118.131 120.204 112.608 117.088 114.113C114.866 115.215 113.289 116.841 110.453 117.629C109.308 117.949 108.075 118.093 106.852 118.042C103.268 117.988 100.567 115.906 98.1887 114.421C96.8755 113.623 95.7688 113.645 94.2877 114.621C92.9222 115.476 91.1438 116.776 89.3214 117.4C87.1025 118.198 84.4623 118.263 82.1829 117.574C80.2558 117.005 78.6233 115.881 77.3845 115.069C76.4017 114.461 75.2757 113.556 73.8965 113.931C72.6907 114.308 71.8895 115.014 70.725 115.729C68.7181 117.107 65.8661 118.253 63.0085 118.034C60.7042 117.953 58.4936 116.995 56.817 115.903C55.7516 115.255 54.8817 114.555 53.8301 114.091C52.2471 113.341 50.8183 114.474 49.6731 115.207C46.3585 117.578 42.3089 119.031 37.6812 117.303C35.9606 116.653 34.4657 115.561 33.114 114.704C31.1071 113.343 29.9811 113.751 28.1531 114.994C24.9624 117.256 21.29 118.931 16.632 117.576C13.8212 116.819 11.3958 114.441 10.0414 113.236C8.87685 112.296 9.1081 114.382 9.01726 115.993C9.02551 121.787 8.95669 127.942 9.04754 133.532C9.09985 135.097 9.23199 135.997 9.60364 136.452C10.0661 137.005 10.9058 136.965 11.7565 136.987C21.981 136.993 68.6878 136.987 102.624 136.989C119.48 136.944 129.732 137.068 138.203 136.947C139.271 136.847 139.574 136.394 139.756 135.577C140.147 132.947 139.946 130.032 139.998 127.292C139.954 123.664 140.081 119.049 139.921 116.114C139.698 110.948 136.606 118.093 129.215 118.058H129.168H129.162Z" fill="#E1F5FE"/>
</g>
<g clip-path="url(#clip3_10888_16902)">
<path d="M129.162 128.269C122.618 128.345 120.204 122.592 117.088 124.159C114.866 125.307 113.289 127.001 110.453 127.822C109.308 128.155 108.075 128.305 106.852 128.252C103.268 128.195 100.567 126.026 98.1887 124.48C96.8755 123.649 95.7688 123.672 94.2877 124.689C92.9222 125.579 91.1438 126.934 89.3214 127.583C87.1025 128.415 84.4623 128.482 82.1829 127.765C80.2558 127.172 78.6233 126.001 77.3845 125.155C76.4017 124.522 75.2757 123.579 73.8965 123.97C72.6907 124.362 71.8895 125.098 70.725 125.843C68.7181 127.278 65.8661 128.472 63.0085 128.244C60.7042 128.159 58.4936 127.162 56.817 126.024C55.7516 125.349 54.8817 124.619 53.8301 124.136C52.2471 123.356 50.8183 124.535 49.6731 125.299C46.3585 127.769 42.3089 129.282 37.6812 127.482C35.9606 126.805 34.4657 125.668 33.114 124.775C31.1071 123.358 29.9811 123.782 28.1531 125.077C24.9624 127.434 21.29 129.178 16.632 127.767C13.8212 126.978 11.3958 124.501 10.0414 123.246C8.87685 122.267 9.1081 124.44 9.01726 126.117C9.02551 132.153 8.95669 138.564 9.04754 144.387C9.09985 146.018 9.23199 146.955 9.60364 147.429C10.0661 148.005 10.9058 147.963 11.7565 147.986C21.981 147.993 68.6878 147.986 102.624 147.989C119.48 147.942 129.732 148.071 138.203 147.944C139.271 147.841 139.574 147.368 139.756 146.518C140.147 143.778 139.946 140.742 139.998 137.887C139.954 134.109 140.081 129.301 139.921 126.244C139.698 120.862 136.606 128.305 129.215 128.269H129.168H129.162Z" fill="#0288D1"/>
</g>
<g clip-path="url(#clip4_10888_16902)">
<path d="M129.162 139.269C122.618 139.345 120.204 133.592 117.088 135.159C114.866 136.307 113.289 138.001 110.453 138.822C109.308 139.155 108.075 139.305 106.852 139.252C103.268 139.195 100.567 137.026 98.1887 135.48C96.8755 134.649 95.7688 134.672 94.2877 135.689C92.9222 136.579 91.1438 137.934 89.3214 138.583C87.1025 139.415 84.4623 139.482 82.1829 138.765C80.2558 138.172 78.6233 137.001 77.3845 136.155C76.4017 135.522 75.2757 134.579 73.8965 134.97C72.6907 135.362 71.8895 136.098 70.725 136.843C68.7181 138.278 65.8661 139.472 63.0085 139.244C60.7042 139.159 58.4936 138.162 56.817 137.024C55.7516 136.349 54.8817 135.619 53.8301 135.136C52.2471 134.356 50.8183 135.535 49.6731 136.299C46.3585 138.769 42.3089 140.282 37.6812 138.482C35.9606 137.805 34.4657 136.668 33.114 135.775C31.1071 134.358 29.9811 134.782 28.1531 136.077C24.9624 138.434 21.29 140.178 16.632 138.767C13.8212 137.978 11.3958 135.501 10.0414 134.246C8.87685 133.267 9.1081 135.44 9.01726 137.117C9.02551 143.153 8.95669 149.564 9.04754 155.387C9.09985 157.018 9.23199 157.955 9.60364 158.429C10.0661 159.005 10.9058 158.963 11.7565 158.986C21.981 158.993 68.6878 158.986 102.624 158.989C119.48 158.942 129.732 159.071 138.203 158.944C139.271 158.841 139.574 158.368 139.756 157.518C140.147 154.778 139.946 151.742 139.998 148.887C139.954 145.109 140.081 140.301 139.921 137.244C139.698 131.862 136.606 139.305 129.215 139.269H129.168H129.162Z" fill="#29B6F6"/>
</g>
<g clip-path="url(#clip5_10888_16902)">
<path d="M129.162 150.269C122.618 150.345 120.204 144.592 117.088 146.159C114.866 147.307 113.289 149.001 110.453 149.822C109.308 150.155 108.075 150.305 106.852 150.252C103.268 150.195 100.567 148.026 98.1887 146.48C96.8755 145.649 95.7688 145.672 94.2877 146.689C92.9222 147.579 91.1438 148.934 89.3214 149.583C87.1025 150.415 84.4623 150.482 82.1829 149.765C80.2558 149.172 78.6233 148.001 77.3845 147.155C76.4017 146.522 75.2757 145.579 73.8965 145.97C72.6907 146.362 71.8895 147.098 70.725 147.843C68.7181 149.278 65.8661 150.472 63.0085 150.244C60.7042 150.159 58.4936 149.162 56.817 148.024C55.7516 147.349 54.8817 146.619 53.8301 146.136C52.2471 145.356 50.8183 146.535 49.6731 147.299C46.3585 149.769 42.3089 151.282 37.6812 149.482C35.9606 148.805 34.4657 147.668 33.114 146.775C31.1071 145.358 29.9811 145.782 28.1531 147.077C24.9624 149.434 21.29 151.178 16.632 149.767C13.8212 148.978 11.3958 146.501 10.0414 145.246C8.87685 144.267 9.1081 146.44 9.01726 148.117C9.02551 154.153 8.95669 160.564 9.04754 166.387C9.09985 168.018 9.23199 168.955 9.60364 169.429C10.0661 170.005 10.9058 169.963 11.7565 169.986C21.981 169.993 68.6878 169.986 102.624 169.989C119.48 169.942 129.732 170.071 138.203 169.944C139.271 169.841 139.574 169.368 139.756 168.518C140.147 165.778 139.946 162.742 139.998 159.887C139.954 156.109 140.081 151.301 139.921 148.244C139.698 142.862 136.606 150.305 129.215 150.269H129.168H129.162Z" fill="#81D4FA"/>
</g>
<defs>
<clipPath id="clip0_10888_16902">
<rect width="116" height="116" fill="white" transform="translate(17 36)"/>
</clipPath>
<clipPath id="clip1_10888_16902">
<rect width="131" height="25" fill="white" transform="translate(9 102)"/>
</clipPath>
<clipPath id="clip2_10888_16902">
<rect width="131" height="24" fill="white" transform="translate(9 113)"/>
</clipPath>
<clipPath id="clip3_10888_16902">
<rect width="131" height="25" fill="white" transform="translate(9 123)"/>
</clipPath>
<clipPath id="clip4_10888_16902">
<rect width="131" height="25" fill="white" transform="translate(9 134)"/>
</clipPath>
<clipPath id="clip5_10888_16902">
<rect width="131" height="25" fill="white" transform="translate(9 145)"/>
</clipPath>
</defs>
</svg>
