<svg width="150" height="200" viewBox="0 0 150 200" fill="none" xmlns="http://www.w3.org/2000/svg">
<rect width="150" height="200" fill="#E8F5E9"/>
<path d="M75 77C87.7026 77 98 66.7025 98 54C98 41.2974 87.7026 31 75 31C62.2974 31 52 41.2974 52 54C52 66.7025 62.2974 77 75 77Z" fill="#FFCA28"/>
<rect x="10" y="149" width="130" height="9" fill="#4CAF50"/>
<rect x="10" y="158" width="130" height="12" fill="#43A047"/>
<path d="M118.993 49.9263C118.186 49.9263 117.413 50.0692 116.69 50.3298C115.328 46.0765 111.352 43 106.645 43C101.938 43 97.6929 46.3035 96.4741 50.7837C96.0202 50.6828 95.541 50.624 95.0535 50.624C91.4559 50.624 88.5391 53.5408 88.5391 57.1385C88.5391 60.7361 91.4559 63.6529 95.0535 63.6529C96.9364 63.6529 98.6259 62.8544 99.8112 61.5767C101.652 63.1402 104.031 64.09 106.637 64.09C109.385 64.09 111.882 63.0309 113.765 61.2993C115.026 62.7703 116.9 63.7033 118.985 63.7033C122.792 63.7033 125.877 60.6184 125.877 56.8106C125.877 53.0028 122.792 49.9179 118.985 49.9179L118.993 49.9263Z" fill="white"/>
<path d="M51.3363 41.8223C50.5059 41.8223 49.7102 41.9693 48.9664 42.2375C47.5652 37.8609 43.4741 34.6953 38.6305 34.6953C33.7869 34.6953 29.419 38.0945 28.1649 42.7045C27.6978 42.6007 27.2048 42.5402 26.7032 42.5402C23.0013 42.5402 20 45.5415 20 49.2434C20 52.9452 23.0013 55.9465 26.7032 55.9465C28.6406 55.9465 30.3791 55.1249 31.5986 53.8102C33.4928 55.4189 35.9406 56.3963 38.6218 56.3963C41.4502 56.3963 44.019 55.3065 45.9564 53.5247C47.2538 55.0384 49.1826 55.9984 51.3276 55.9984C55.2457 55.9984 58.42 52.8242 58.42 48.906C58.42 44.9879 55.2457 41.8137 51.3276 41.8137L51.3363 41.8223Z" fill="white"/>
<ellipse cx="47.4505" cy="115.851" rx="16.3411" ry="21.8515" fill="#2E8232"/>
<mask id="mask0_10888_17043" style="mask-type:alpha" maskUnits="userSpaceOnUse" x="31" y="94" width="33" height="44">
<ellipse cx="47.4505" cy="115.851" rx="16.3411" ry="21.8515" fill="#4CAF50"/>
</mask>
<g mask="url(#mask0_10888_17043)">
<path d="M63.9569 115.473C60.8194 130.826 50.8841 137.704 40.0989 135.234C39.8811 138.401 39.4126 144.849 39.2819 145.305C39.1511 145.761 59.4904 143.088 69.6763 141.694L63.9569 115.473Z" fill="#2B6D2E"/>
</g>
<ellipse cx="39.7432" cy="103.421" rx="2.66018" ry="6.25042" transform="rotate(36.1407 39.7432 103.421)" fill="#4B9C4F"/>
<path d="M53.8159 121.164L53.1128 120.514C52.8848 120.305 52.5314 120.313 52.3148 120.529L49.134 123.71L48.7577 115.866C48.7463 115.631 48.5601 115.444 48.3245 115.433L47.3668 115.395C47.1122 115.384 46.8956 115.585 46.8918 115.843C46.812 119.416 46.774 123.098 46.2762 125.572L42.4493 121.164C42.2555 120.94 41.9135 120.909 41.6855 121.099L41.0774 121.601C40.781 121.886 40.7468 122.342 40.9862 122.676C42.3125 124.504 43.5552 126.534 44.7143 128.738C45.0753 129.422 45.2653 130.186 45.2653 130.961C45.2653 136.555 44.4216 142.939 43.2094 149.673C43.0117 150.76 43.8516 151.76 44.9537 151.76H49.02C50.0916 151.76 50.9125 150.821 50.7795 149.757C49.8902 142.681 49.3506 135.859 49.4038 129.479C49.4114 128.798 49.552 128.122 49.8408 127.503C50.6655 125.751 51.9766 123.915 53.8349 121.985C54.0591 121.749 54.0553 121.377 53.8159 121.156V121.164Z" fill="#795018"/>
<ellipse cx="99.3567" cy="115.851" rx="16.3411" ry="21.8515" fill="#2E8232"/>
<mask id="mask1_10888_17043" style="mask-type:alpha" maskUnits="userSpaceOnUse" x="83" y="94" width="33" height="44">
<ellipse cx="99.3567" cy="115.851" rx="16.3411" ry="21.8515" fill="#4CAF50"/>
</mask>
<g mask="url(#mask1_10888_17043)">
<path d="M115.863 115.473C112.726 130.826 102.79 137.704 92.0052 135.234C91.7873 138.401 91.3189 144.849 91.1881 145.305C91.0574 145.761 111.397 143.088 121.583 141.694L115.863 115.473Z" fill="#2B6D2E"/>
</g>
<ellipse cx="91.6495" cy="103.421" rx="2.66018" ry="6.25042" transform="rotate(36.1407 91.6495 103.421)" fill="#4B9C4F"/>
<path d="M105.722 121.164L105.019 120.514C104.791 120.305 104.438 120.313 104.221 120.529L101.04 123.71L100.664 115.866C100.653 115.631 100.466 115.444 100.231 115.433L99.2731 115.395C99.0185 115.384 98.8019 115.585 98.7981 115.843C98.7183 119.416 98.6803 123.098 98.1824 125.572L94.3556 121.164C94.1617 120.94 93.8197 120.909 93.5917 121.099L92.9837 121.601C92.6872 121.886 92.653 122.342 92.8925 122.676C94.2187 124.504 95.4614 126.534 96.6205 128.738C96.9815 129.422 97.1715 130.186 97.1715 130.961C97.1715 136.555 96.3279 142.939 95.1156 149.673C94.918 150.76 95.7579 151.76 96.8599 151.76H100.926C101.998 151.76 102.819 150.821 102.686 149.757C101.796 142.681 101.257 135.859 101.31 129.479C101.318 128.798 101.458 128.122 101.747 127.503C102.572 125.751 103.883 123.915 105.741 121.985C105.965 121.749 105.962 121.377 105.722 121.156V121.164Z" fill="#795018"/>
<path d="M25.4967 135.956C31.6436 139.195 37.816 137.977 38.1115 131.126C41.9018 128.116 40.1799 123.144 36.1416 121.667C38.4836 119.518 39.2424 115.994 38.7572 111.39C37.5351 110.019 35.5141 109.249 32.5629 109.588C33.0298 103.952 26.2044 101.479 22.2682 105.834C19.1892 103.978 13.5239 107.72 14.8554 111.565C8.84347 112.255 6.95016 121.966 11.5977 125.089C10.2261 126.457 9.19368 129.298 9.48917 131.837C13.9981 136.624 19.3425 137.984 25.4967 135.952V135.956Z" fill="#4CAF50"/>
<path d="M42.3201 123.86C41.6197 122.882 40.5837 121.689 38.5371 121.255C40.5837 117.899 40.8573 113.751 38.7524 111.391C39.2412 115.994 38.4824 119.518 36.1368 121.667C40.1788 123.145 41.897 128.12 38.1067 131.126C37.6251 138.382 30.9383 138.86 25.4919 135.956C19.3377 137.988 13.9933 136.628 9.48438 131.841C9.57193 132.589 9.76892 133.308 10.1118 133.957C11.7243 136.996 14.183 138.7 17.8785 139.083C21.9423 139.502 23.5256 138.211 26.0755 137.43C27.3633 138.959 31.1171 142.256 36.0346 139.896C40.8646 137.58 39.8249 132.25 39.8796 132.246C42.55 132.02 44.56 126.84 42.3165 123.856L42.3201 123.86Z" fill="#43A047"/>
<path d="M31.526 124.216L30.8512 123.592C30.6323 123.391 30.293 123.399 30.0851 123.607L27.0317 126.66L26.6705 119.131C26.6596 118.904 26.4808 118.726 26.2547 118.715L25.3354 118.678C25.0909 118.667 24.883 118.861 24.8794 119.109C24.8027 122.538 24.7663 126.073 24.2884 128.448L20.6148 124.216C20.4288 124.001 20.1005 123.971 19.8816 124.154L19.2979 124.635C19.0134 124.909 18.9805 125.347 19.2103 125.668C20.4835 127.422 21.6764 129.371 22.789 131.486C23.1356 132.143 23.318 132.876 23.318 133.62C23.318 138.99 22.5081 145.119 21.3444 151.583C21.1547 152.627 21.9609 153.586 23.0189 153.586H26.9222C27.951 153.586 28.739 152.685 28.6113 151.664C27.7576 144.871 27.2396 138.323 27.2907 132.198C27.298 131.545 27.433 130.895 27.7102 130.301C28.5018 128.619 29.7604 126.857 31.5443 125.004C31.7595 124.778 31.7559 124.42 31.526 124.209V124.216Z" fill="#795018"/>
<path d="M11.3555 116.577C11.3555 116.577 11.91 113.732 16.3824 112.991C16.3824 109.96 18.4144 106.782 22.6278 107.523C25.5098 105.491 27.4687 105.455 28.3187 106.414C30.9562 109.07 11.5233 122.407 11.3555 116.577Z" fill="#66BB6A"/>
<path d="M123.544 135.956C129.69 139.195 135.863 137.977 136.158 131.126C139.949 128.116 138.227 123.144 134.188 121.667C136.53 119.518 137.289 115.994 136.804 111.39C135.582 110.019 133.561 109.249 130.61 109.588C131.077 103.952 124.251 101.479 120.315 105.834C117.236 103.978 111.571 107.72 112.902 111.565C106.89 112.255 104.997 121.966 109.645 125.089C108.273 126.457 107.241 129.298 107.536 131.837C112.045 136.624 117.389 137.984 123.544 135.952V135.956Z" fill="#4CAF50"/>
<path d="M140.367 123.86C139.667 122.882 138.631 121.689 136.584 121.255C138.631 117.899 138.904 113.751 136.799 111.391C137.288 115.994 136.529 119.518 134.184 121.667C138.226 123.145 139.944 128.12 136.154 131.126C135.672 138.382 128.985 138.86 123.539 135.956C117.385 137.988 112.04 136.628 107.531 131.841C107.619 132.589 107.816 133.308 108.159 133.957C109.771 136.996 112.23 138.7 115.925 139.083C119.989 139.502 121.572 138.211 124.122 137.43C125.41 138.959 129.164 142.256 134.081 139.896C138.911 137.58 137.872 132.25 137.926 132.246C140.597 132.02 142.607 126.84 140.363 123.856L140.367 123.86Z" fill="#43A047"/>
<path d="M129.573 124.216L128.898 123.592C128.679 123.391 128.34 123.399 128.132 123.607L125.079 126.66L124.717 119.131C124.706 118.904 124.528 118.726 124.302 118.715L123.382 118.678C123.138 118.667 122.93 118.861 122.926 119.109C122.85 122.538 122.813 126.073 122.335 128.448L118.662 124.216C118.476 124.001 118.147 123.971 117.928 124.154L117.345 124.635C117.06 124.909 117.027 125.347 117.257 125.668C118.53 127.422 119.723 129.371 120.836 131.486C121.182 132.143 121.365 132.876 121.365 133.62C121.365 138.99 120.555 145.119 119.391 151.583C119.202 152.627 120.008 153.586 121.066 153.586H124.969C125.998 153.586 126.786 152.685 126.658 151.664C125.805 144.871 125.286 138.323 125.338 132.198C125.345 131.545 125.48 130.895 125.757 130.301C126.549 128.619 127.807 126.857 129.591 125.004C129.806 124.778 129.803 124.42 129.573 124.209V124.216Z" fill="#795018"/>
<path d="M109.402 116.577C109.402 116.577 109.957 113.732 114.429 112.991C114.429 109.96 116.461 106.782 120.675 107.523C123.557 105.491 125.516 105.455 126.366 106.414C129.003 109.07 109.57 122.407 109.402 116.577Z" fill="#66BB6A"/>
<path d="M73.5592 135.956C79.7061 139.195 85.8785 137.977 86.174 131.126C89.9643 128.116 88.2424 123.144 84.2041 121.667C86.5461 119.518 87.3049 115.994 86.8197 111.39C85.5976 110.019 83.5766 109.249 80.6254 109.588C81.0923 103.952 74.2669 101.479 70.3307 105.834C67.2517 103.978 61.5864 107.72 62.9179 111.565C56.906 112.255 55.0127 121.966 59.6602 125.089C58.2886 126.457 57.2562 129.298 57.5517 131.837C62.0606 136.624 67.405 137.984 73.5592 135.952V135.956Z" fill="#4CAF50"/>
<path d="M90.3826 123.86C89.6822 122.882 88.6462 121.689 86.5996 121.255C88.6462 117.899 88.9198 113.751 86.8149 111.391C87.3037 115.994 86.5449 119.518 84.1993 121.667C88.2413 123.145 89.9595 128.12 86.1692 131.126C85.6876 138.382 79.0008 138.86 73.5544 135.956C67.4002 137.988 62.0558 136.628 57.5469 131.841C57.6344 132.589 57.8314 133.308 58.1743 133.957C59.7868 136.996 62.2455 138.7 65.941 139.083C70.0048 139.502 71.5881 138.211 74.138 137.43C75.4258 138.959 79.1796 142.256 84.0971 139.896C88.9271 137.58 87.8874 132.25 87.9421 132.246C90.6125 132.02 92.6225 126.84 90.379 123.856L90.3826 123.86Z" fill="#43A047"/>
<path d="M79.5885 124.216L78.9137 123.592C78.6948 123.391 78.3555 123.399 78.1476 123.607L75.0942 126.66L74.733 119.131C74.7221 118.904 74.5433 118.726 74.3172 118.715L73.3979 118.678C73.1534 118.667 72.9455 118.861 72.9419 119.109C72.8652 122.538 72.8288 126.073 72.3509 128.448L68.6773 124.216C68.4913 124.001 68.163 123.971 67.9441 124.154L67.3604 124.635C67.0759 124.909 67.043 125.347 67.2728 125.668C68.546 127.422 69.7389 129.371 70.8515 131.486C71.1981 132.143 71.3805 132.876 71.3805 133.62C71.3805 138.99 70.5706 145.119 69.4069 151.583C69.2172 152.627 70.0234 153.586 71.0814 153.586H74.9847C76.0135 153.586 76.8015 152.685 76.6738 151.664C75.8201 144.871 75.3021 138.323 75.3532 132.198C75.3605 131.545 75.4955 130.895 75.7727 130.301C76.5643 128.619 77.8229 126.857 79.6068 125.004C79.822 124.778 79.8184 124.42 79.5885 124.209V124.216Z" fill="#795018"/>
<path d="M59.418 116.577C59.418 116.577 59.9725 113.732 64.4449 112.991C64.4449 109.96 66.4769 106.782 70.6903 107.523C73.5723 105.491 75.5312 105.455 76.3812 106.414C79.0187 109.07 59.5858 122.407 59.418 116.577Z" fill="#66BB6A"/>
</svg>
