<svg width="150" height="200" viewBox="0 0 150 200" fill="none" xmlns="http://www.w3.org/2000/svg">
<rect width="150" height="200" fill="#4CAF50"/>
<g clip-path="url(#clip0_10888_16935)">
<path d="M46.3699 84.1687C44.537 85.1528 41.869 85.425 40.6123 83.4396C39.5637 81.7823 40.1954 79.5928 41.1107 78.0084C42.1436 76.2223 43.494 74.6804 45.0704 73.4873C42.1119 74.1252 38.8144 73.254 36.2503 71.1544C35.6785 70.6854 35.1 70.0779 35.0118 69.3161C34.8807 68.1824 35.865 67.4084 36.7611 66.9504C40.2564 65.1643 44.2398 64.4365 48.2108 64.8593C54.5617 65.5349 58.1349 65.7596 55.042 73.0535C53.1209 77.5844 50.524 81.9379 46.3688 84.1674L46.3699 84.1687Z" fill="#A2F9FE"/>
<path d="M65.7517 47.5818C67.032 47.0144 69.039 47.0217 69.9261 48.6729C70.3815 49.521 70.3092 50.4542 70.1521 51.2561C69.7464 53.318 68.891 55.1442 67.666 56.561C69.5125 56.3568 71.5274 56.6934 73.4891 57.5318C74.4327 57.9352 75.5368 58.6812 75.7504 59.7529C75.9131 60.5718 75.4656 61.189 75.017 61.6751C71.6404 65.3408 62.105 70.8644 56.2773 66.3299C56.6005 58.8307 59.7828 50.2282 65.7528 47.5818H65.7517Z" fill="#A2F9FE"/>
<path d="M41.3537 53.4761C41.1899 52.283 41.6091 50.5649 43.0398 50.0886C43.7743 49.8444 44.4648 50.0655 45.0377 50.3377C46.5113 51.0388 47.7137 52.0849 48.5307 53.3765C48.7578 51.7605 49.428 50.0923 50.4665 48.5565C50.9659 47.8165 51.757 46.9988 52.6113 47C53.2633 47 53.6363 47.4909 53.9109 47.9574C55.9811 51.4786 60.4313 59.3909 52.2881 66.5341C46.691 64.9716 42.1199 59.0434 41.3537 53.4774V53.4761Z" fill="#A2F9FE"/>
<path d="M72.9564 75.0416C73.4886 76.2227 73.5779 78.1436 72.2455 79.1217C71.5619 79.6235 70.7833 79.6272 70.1086 79.5397C68.3751 79.3125 66.8179 78.6357 65.5828 77.5738C65.8393 79.3246 65.6551 81.2796 65.0505 83.2225C64.759 84.1568 64.1917 85.2722 63.3102 85.5602C62.6379 85.7801 62.1033 85.3986 61.6784 85.0086C58.4725 82.0621 53.4325 73.3673 56.9266 67.4355C63.1758 67.1597 70.4748 69.5351 72.9564 75.0429V75.0416Z" fill="#A2F9FE"/>
<path d="M58.4165 65.2838C58.2651 65.0881 58.1611 64.8476 58.1238 64.579C58.0165 63.7978 58.5193 63.0724 59.2448 62.957C59.7194 62.8816 60.2054 62.9436 60.6517 63.1344C61.3332 63.4272 61.6654 64.2583 61.3931 64.9909C61.1207 65.7236 60.3478 66.0808 59.6652 65.788C59.6562 65.7843 59.6415 65.7819 59.6324 65.7831C59.1567 65.8585 58.7035 65.6531 58.4165 65.2825V65.2838Z" fill="#20363F"/>
<path d="M53.9386 63.3378C53.5137 62.7886 53.5827 61.9733 54.0935 61.5164L54.5669 61.0924C55.0777 60.6355 55.836 60.7097 56.2609 61.2588C56.6858 61.808 56.6169 62.6233 56.1061 63.0802L55.6326 63.5042C55.1218 63.9611 54.3635 63.887 53.9386 63.3378Z" fill="#20363F"/>
<path d="M54.4707 67.3522C54.404 67.2659 54.3453 67.1687 54.2978 67.063C53.9848 66.3656 54.2571 65.5272 54.9058 65.1906L55.3194 64.9756C55.968 64.639 56.7478 64.9318 57.0608 65.6292C57.3738 66.3267 57.1015 67.1651 56.4528 67.5016L56.0392 67.7167C55.4889 68.0022 54.8448 67.8345 54.4719 67.3522H54.4707Z" fill="#20363F"/>
<path d="M56.7361 71.3451C56.1846 70.6331 56.275 69.576 56.9373 68.983L57.4492 68.525C58.1114 67.932 59.0945 68.0292 59.646 68.7413C60.1974 69.4533 60.107 70.5103 59.4448 71.1033L58.9329 71.5614C58.2707 72.1543 57.2876 72.0571 56.7361 71.3451Z" fill="#20363F"/>
<path d="M52.3386 69.8601C52.2934 69.8017 52.2527 69.7386 52.2188 69.6681C52.0425 69.3169 51.8278 68.9889 51.5803 68.6912C51.1814 68.2283 51.2221 67.498 51.6594 67.0752C52.0968 66.6524 52.7691 66.69 53.1624 67.1603C53.524 67.5928 53.8382 68.0715 54.0947 68.5843C54.3727 69.1408 54.1783 69.8345 53.6608 70.1334C53.2076 70.3959 52.6561 70.2683 52.3397 69.8588L52.3386 69.8601Z" fill="#20363F"/>
<path d="M50.3546 66.0743C50.1331 65.7876 50.0348 65.3975 50.1207 65.0075L50.3444 63.9881C50.4891 63.3296 51.1027 62.9225 51.7152 63.078C52.3277 63.2336 52.7063 63.8933 52.5616 64.5519L52.3379 65.5713C52.1932 66.2298 51.5796 66.6369 50.9671 66.4814C50.7174 66.4182 50.506 66.2699 50.3546 66.0743Z" fill="#20363F"/>
<path d="M77.748 72.1421C76.9864 70.8323 76.6304 68.8481 77.835 67.7716C78.8408 66.8737 80.3053 67.2006 81.3947 67.7813C82.6242 68.4362 83.7158 69.3475 84.5961 70.4508C83.9837 68.2722 84.3283 65.7389 85.5194 63.6745C85.785 63.214 86.1409 62.7389 86.6302 62.6211C87.358 62.4473 87.9264 63.1338 88.2835 63.7754C89.678 66.2796 90.417 69.2199 90.4091 72.2296C90.3967 77.0424 90.4905 79.7397 85.5465 77.9062C82.4762 76.7678 79.4748 75.1104 77.7492 72.1421H77.748Z" fill="#A2F9FE"/>
<path d="M103.819 84.5929C104.305 85.5795 104.444 87.1894 103.362 88.0193C102.806 88.4458 102.153 88.4543 101.585 88.3862C100.125 88.2088 98.7963 87.6536 97.7261 86.7727C97.9996 88.2392 97.9114 89.8795 97.4696 91.5137C97.2571 92.2999 96.8187 93.2391 96.0898 93.487C95.5338 93.6765 95.0728 93.3606 94.7032 93.0362C91.9177 90.5903 87.4008 83.3378 90.1299 78.3367C95.3575 78.0584 101.555 79.994 103.819 84.5929Z" fill="#A2F9FE"/>
<path d="M97.7911 67.0318C98.555 66.8289 99.6986 67.0282 100.104 68.0707C100.312 68.6053 100.215 69.1387 100.076 69.587C99.7201 70.7401 99.1212 71.7121 98.3369 72.412C99.4014 72.4739 100.529 72.8652 101.597 73.542C102.11 73.8676 102.694 74.4071 102.751 75.0474C102.794 75.5371 102.501 75.8505 102.216 76.0875C100.069 77.8784 95.2304 81.7483 90.0469 76.1154C90.6865 71.8093 94.2281 67.9807 97.7911 67.0318Z" fill="#A2F9FE"/>
<path d="M85.4577 91.4857C84.7266 91.9644 83.4847 92.1601 82.7614 91.2257C82.3896 90.7458 82.3343 90.1613 82.3467 89.6498C82.3783 88.3339 82.7128 87.1189 83.3197 86.1201C82.1998 86.4299 80.9183 86.4227 79.6165 86.0995C78.9904 85.9439 78.2277 85.5928 77.9824 84.95C77.7949 84.4604 78.0062 84.0339 78.2311 83.6876C79.9295 81.0838 85.2362 76.717 89.3225 78.9417C89.9203 83.6135 88.8682 89.2525 85.4589 91.4833L85.4577 91.4857Z" fill="#A2F9FE"/>
<path d="M90.9854 77.6103C91.4103 77.1486 92.103 77.1449 92.5324 77.603L92.9313 78.0271C93.3608 78.4839 93.3641 79.2287 92.9381 79.6904C92.5132 80.1522 91.8205 80.1558 91.3911 79.6977L90.9922 79.2737C90.5627 78.8168 90.5594 78.072 90.9854 77.6103Z" fill="#20363F"/>
<path d="M89.0122 74.9467C89.0744 74.8799 89.1445 74.8191 89.2224 74.7681C89.7389 74.4315 90.4124 74.6089 90.7254 75.1642L90.9254 75.519C91.2384 76.0742 91.0734 76.7984 90.557 77.135C90.0406 77.4715 89.3671 77.2941 89.0541 76.7389L88.854 76.3841C88.5885 75.9126 88.6664 75.3209 89.0111 74.9467H89.0122Z" fill="#20363F"/>
<path d="M87.1885 77.6728C87.6134 77.2111 88.3061 77.2074 88.7355 77.6655L89.0678 78.0191C89.4972 78.4759 89.5006 79.2208 89.0746 79.6825C88.6497 80.1442 87.9569 80.1478 87.5275 79.6898L87.1953 79.3362C86.7659 78.8793 86.7625 78.1345 87.1885 77.6728Z" fill="#20363F"/>
<path d="M70.7691 106.971C70.4354 106.984 70.1531 106.727 70.1374 106.396C70.1217 106.063 70.3798 105.78 70.7156 105.764C87.9106 104.954 109.309 103.946 123.3 92.6889C123.56 92.4792 123.943 92.5199 124.154 92.7787C124.365 93.0386 124.324 93.4185 124.064 93.6282C109.765 105.135 87.2286 106.195 70.7733 106.971C70.7722 106.971 70.7712 106.971 70.7701 106.971H70.7691Z" fill="#16512F"/>
<path d="M120.695 94.9463C125.339 95.6956 130.459 94.4547 134.26 92.1158C136.843 90.5253 141.159 85.9873 137.726 83.5629C132.397 79.8004 122.043 90.949 120.696 94.9463H120.695Z" fill="#16512F"/>
<path d="M104.934 101.91C108.431 104.561 112.171 107.553 116.398 108.544C119.452 109.259 125.375 109.25 123.918 104.489C122.176 98.7977 108.021 101.083 104.934 101.909V101.91Z" fill="#16512F"/>
<path d="M102.378 102.525C107.078 100.826 111.281 96.84 113.127 92.2415C114.261 89.4205 116.778 82.5708 112.02 82.9465C106.43 83.388 101.549 97.4693 102.377 102.526L102.378 102.525Z" fill="#16512F"/>
<path d="M91.4356 104.605C89.6959 108.747 103.175 122.045 105.981 116.732C109.216 110.606 95.8427 106.999 91.4356 104.605Z" fill="#16512F"/>
<path d="M87.4849 105.122C93.2813 105.079 105.716 91.1823 96.2466 90.2378C89.0515 89.5208 86.5751 100.109 87.4849 105.122Z" fill="#16512F"/>
<path d="M74.2085 115.617C74.1591 115.619 74.1088 115.615 74.0584 115.605C57.9326 112.256 35.8468 107.668 23.5541 94.0622C23.3295 93.8138 23.3505 93.4329 23.6003 93.2095C23.85 92.9862 24.233 93.007 24.4576 93.2554C36.4847 106.567 57.4562 110.923 74.3071 114.423C74.6355 114.491 74.8454 114.812 74.7772 115.138C74.7195 115.415 74.4802 115.607 74.2085 115.618V115.617Z" fill="#16512F"/>
<path d="M26.6673 95.8923C21.9633 95.9037 17.1039 93.8738 13.722 90.9671C11.423 88.9914 7.88154 83.8325 11.658 81.9769C17.5163 79.0984 25.9727 91.7321 26.6673 95.8912V95.8923Z" fill="#16512F"/>
<path d="M41.1286 105.244C37.2535 107.312 33.0867 109.681 28.7552 109.995C25.6261 110.221 19.7783 109.283 21.9735 104.811C24.5968 99.4641 38.2116 103.945 41.1297 105.244H41.1286Z" fill="#16512F"/>
<path d="M43.5502 106.252C39.1788 103.837 35.6615 99.2406 34.5681 94.4094C33.8976 91.4453 32.4978 84.2867 37.1358 85.4045C42.5859 86.7185 45.1704 101.39 43.5502 106.252Z" fill="#16512F"/>
<path d="M54.0281 110.023C55.0889 114.386 39.6683 125.401 37.7407 119.714C35.5182 113.157 49.2967 111.694 54.0281 110.023Z" fill="#16512F"/>
<path d="M57.8457 111.153C52.1291 110.201 42.0568 94.5266 51.5562 95.0808C58.7744 95.5024 59.5393 106.347 57.8457 111.153Z" fill="#16512F"/>
<path d="M70.6625 105.1C63.0393 104.248 40.9849 99.8192 42.4183 88.7666C43.9534 76.9312 57.4035 90.0848 60.5462 93.7105C63.3635 96.9605 66.4947 101.329 70.6625 105.099V105.1Z" fill="#A7B55C"/>
<path d="M68.8789 108.797C74.0719 112.074 88.4055 122.966 83.4706 130.431C78.1863 138.426 73.136 124.249 72.1507 120.538C71.2671 117.212 70.5526 112.97 68.8789 108.797Z" fill="#A7B55C"/>
<path d="M66.6963 106.396C61.6491 106.729 42.0375 106.815 40.7868 113.722C39.1813 122.582 55.4802 114.856 58.3407 112.906C60.327 111.552 66.4025 107.046 66.6963 106.396Z" fill="#5C8445"/>
<path d="M82.395 108.366C81.9732 101.927 89.8976 76.4735 100.375 81.4206C109.532 85.7445 94.7601 98.7707 90.6352 101.154C87.6027 102.907 84.9186 106.039 82.395 108.366Z" fill="#5C8445"/>
<path d="M100.522 86.2485C95.8466 80.6891 86.1563 87.4831 83.0038 91.7056C85.0679 88.5799 87.899 84.8093 89.1231 81.1324C90.8829 75.8472 84.0108 71.8492 80.1484 75.8799C75.886 80.3268 72.7592 86.6008 71.9293 93.4687C71.7336 83.0362 67.0427 61.5943 55.7083 69.1157C47.0022 74.8925 59.0079 95.114 63.8717 99.7129C56.9553 97.0902 39.8373 98.1671 38.8588 108.375C37.966 117.694 52.8486 114.794 58.3637 111.217C55.2912 116.053 49.0448 128.529 56.1568 133.37C65.2272 139.546 71.0809 123.215 71.9279 117.057C77.6201 121.51 85.9463 129.814 93.674 123.853C102.383 117.133 93.1484 107.824 87.0105 103.255C92.2827 101.755 106.605 93.4844 100.522 86.2485Z" fill="#FFB2B5"/>
<path d="M69.3758 105.036C69.5915 104.797 69.8071 104.558 70.0228 104.32C70.2442 104.092 70.3956 103.829 70.4756 103.531C70.6099 103.241 70.6628 102.933 70.6328 102.606C70.6285 102.279 70.5442 101.978 70.3799 101.703C70.2685 101.414 70.09 101.168 69.8471 100.965C69.68 100.85 69.5129 100.735 69.3458 100.62C68.963 100.425 68.5559 100.337 68.1259 100.359C67.9159 100.398 67.706 100.437 67.496 100.477C67.0975 100.61 66.7575 100.832 66.4761 101.141C66.2604 101.38 66.0447 101.619 65.829 101.857C65.6076 102.085 65.4562 102.348 65.3762 102.646C65.2419 102.936 65.1891 103.244 65.2191 103.571C65.2234 103.898 65.3077 104.199 65.4719 104.474C65.5833 104.763 65.7619 105.009 66.0047 105.212C66.1718 105.327 66.339 105.442 66.5061 105.557C66.8889 105.752 67.296 105.84 67.7259 105.819C67.9359 105.779 68.1459 105.74 68.3559 105.701C68.7544 105.567 69.0944 105.345 69.3758 105.036Z" fill="#20363F"/>
<path d="M70.8226 99.5199C73.8909 99.3608 73.6466 94.6169 70.5727 94.7774C67.5045 94.9365 67.7487 99.6804 70.8226 99.5199Z" fill="#20363F"/>
<path d="M76.182 103.672C79.2502 103.513 79.006 98.7692 75.932 98.9298C72.8638 99.0889 73.1081 103.833 76.182 103.672Z" fill="#20363F"/>
<path d="M73.9548 107.367L74.2648 106.671C74.4248 106.389 74.5033 106.091 74.5019 105.774C74.5562 105.456 74.5262 105.14 74.4091 104.831C74.3191 104.525 74.162 104.265 73.9406 104.046C73.7591 103.796 73.5249 103.605 73.2392 103.471C73.0449 103.401 72.8507 103.332 72.6564 103.262C72.2279 103.171 71.8051 103.193 71.3894 103.328C71.2037 103.417 71.018 103.507 70.8323 103.596C70.4852 103.826 70.2153 104.125 70.0224 104.491C69.9196 104.723 69.8153 104.954 69.7125 105.187C69.5525 105.469 69.4739 105.767 69.4753 106.084C69.4211 106.402 69.4511 106.717 69.5682 107.027C69.6582 107.331 69.8139 107.593 70.0367 107.811C70.2181 108.061 70.4524 108.253 70.7381 108.387C70.9323 108.456 71.1266 108.526 71.3209 108.596C71.7494 108.687 72.1722 108.665 72.5879 108.53C72.7735 108.441 72.9592 108.351 73.1449 108.262C73.492 108.032 73.762 107.733 73.9548 107.367Z" fill="#20363F"/>
<path d="M72.0522 135.736C72.6948 132.149 63.63 133.801 61.4427 134.034C62.329 132.968 66.4974 129.427 67.0613 128.25C67.9716 126.348 66.0315 124.214 64.0561 124.974C61.8255 125.834 59.5881 127.782 57.4099 130.031C57.8792 126.671 57.9202 111.262 50.3877 117.477C46.7297 120.496 48.9261 128.405 51.11 131.504C47.8108 129.875 40.5358 125.367 37.4394 130.153C34.2017 135.157 42.9794 136.359 46.2854 135.92C44.4285 137.887 36.0279 144.034 39.2393 147.161C41.9803 149.83 49.4547 142.498 51.6488 140.824C52.2606 143.575 52.5158 150.425 57.1296 149.979C61.6751 149.541 59.997 142.41 59.5573 139.419C62.3438 139.925 71.363 139.584 72.0522 135.736Z" fill="#FDFFB3"/>
<path d="M51.6788 137.74C51.8348 137.675 51.9909 137.609 52.147 137.542C52.3532 137.478 52.5286 137.368 52.671 137.214C52.843 137.083 52.9718 136.917 53.0572 136.713C53.1529 136.524 53.1962 136.326 53.1871 136.119C53.2133 135.916 53.1871 135.717 53.1096 135.522C53.047 135.401 52.9843 135.278 52.9228 135.157C52.7565 134.919 52.5411 134.739 52.2768 134.617C52.1458 134.576 52.0148 134.536 51.8838 134.495C51.6104 134.45 51.3427 134.473 51.0807 134.564C50.9246 134.63 50.7685 134.697 50.6125 134.763C50.4063 134.827 50.2308 134.937 50.0884 135.091C49.9164 135.222 49.7877 135.388 49.7022 135.592C49.6065 135.781 49.5632 135.979 49.5723 136.186C49.5461 136.389 49.5723 136.588 49.6498 136.783C49.7125 136.904 49.7751 137.027 49.8366 137.148C50.003 137.386 50.2183 137.566 50.4826 137.688C50.6136 137.729 50.7446 137.769 50.8756 137.81C51.149 137.855 51.4167 137.832 51.6788 137.74Z" fill="#20363F"/>
<path d="M57.0288 135.242C57.0778 135.184 57.1268 135.127 57.1758 135.069C57.3227 134.908 57.4195 134.723 57.4651 134.516C57.5426 134.324 57.5688 134.125 57.5426 133.916C57.5323 133.707 57.4719 133.514 57.3626 133.339C57.2817 133.141 57.1552 132.976 56.9821 132.842C56.8625 132.766 56.7428 132.69 56.6221 132.615C56.368 132.5 56.1015 132.454 55.8224 132.476C55.6902 132.505 55.5581 132.533 55.4248 132.562C55.1548 132.659 54.9281 132.816 54.7424 133.034C54.6934 133.092 54.6444 133.149 54.5954 133.207C54.4485 133.368 54.3516 133.553 54.3061 133.76C54.2286 133.952 54.2024 134.151 54.2286 134.36C54.2388 134.569 54.2992 134.762 54.4086 134.937C54.4895 135.135 54.6159 135.3 54.7891 135.434C54.9087 135.51 55.0283 135.586 55.1491 135.661C55.4031 135.776 55.6697 135.822 55.9488 135.8C56.081 135.771 56.2131 135.743 56.3464 135.714C56.6164 135.617 56.8431 135.46 57.0288 135.242Z" fill="#20363F"/>
<path d="M51.652 132.807C51.7101 132.855 51.7682 132.904 51.8263 132.953C51.9881 133.099 52.1738 133.195 52.3823 133.241C52.5748 133.318 52.7753 133.344 52.9849 133.318C53.1957 133.308 53.3893 133.247 53.5659 133.139C53.7642 133.058 53.9305 132.932 54.0649 132.76C54.1412 132.641 54.2176 132.522 54.2939 132.402C54.409 132.149 54.4557 131.884 54.4329 131.607C54.4044 131.475 54.3759 131.344 54.3463 131.211C54.2495 130.943 54.0911 130.717 53.8724 130.533C53.8143 130.484 53.7562 130.435 53.6981 130.386C53.5363 130.24 53.3506 130.144 53.1421 130.099C52.9496 130.022 52.7491 129.995 52.5395 130.022C52.3287 130.032 52.1351 130.092 51.9585 130.201C51.7603 130.281 51.5939 130.407 51.4595 130.579C51.3832 130.698 51.3069 130.817 51.2305 130.937C51.1155 131.19 51.0688 131.455 51.0915 131.732C51.12 131.864 51.1485 131.995 51.1781 132.128C51.275 132.396 51.4333 132.622 51.652 132.807Z" fill="#20363F"/>
<path d="M53.901 138.243C55.4652 139.553 57.5135 137.136 55.9471 135.825C54.3829 134.515 52.3346 136.932 53.901 138.243Z" fill="#20363F"/>
<path d="M100.811 148.981C102.845 146.92 96.1722 143.968 94.6358 143.148C95.6955 142.845 100.014 142.383 100.913 141.864C102.363 141.025 102.054 138.765 100.421 138.384C98.5748 137.954 96.2355 138.234 93.7982 138.736C95.6166 136.747 102.572 126.685 94.8496 127.399C91.0993 127.746 88.9798 133.898 89.0145 136.897C87.5892 134.363 84.8568 128.178 80.68 129.932C76.312 131.765 81.5127 136.456 83.8735 137.639C81.7744 138.099 73.5151 138.384 74.2093 141.859C74.8018 144.824 82.9882 143.353 85.177 143.234C84.3407 145.306 81.4267 149.899 84.6453 151.662C87.8162 153.397 89.9249 147.986 90.9822 145.833C92.5772 147.404 98.631 151.193 100.811 148.983V148.981Z" fill="#FDFFB3"/>
<path d="M86.5836 141.228C86.715 141.255 86.8476 141.281 86.9791 141.307C87.1427 141.357 87.3064 141.363 87.4701 141.325C87.6409 141.316 87.801 141.264 87.948 141.169C88.0949 141.088 88.2132 140.978 88.3004 140.839C88.4092 140.717 88.4808 140.575 88.5179 140.413C88.5322 140.306 88.5454 140.198 88.5597 140.091C88.5573 139.862 88.4976 139.648 88.3805 139.449C88.3124 139.365 88.2455 139.28 88.1774 139.195C88.0185 139.044 87.8333 138.94 87.6206 138.883C87.4892 138.856 87.3566 138.83 87.2252 138.804C87.0615 138.754 86.8978 138.748 86.7341 138.786C86.5633 138.795 86.4032 138.847 86.2562 138.942C86.1093 139.023 85.991 139.133 85.9038 139.272C85.7951 139.394 85.7234 139.536 85.6863 139.698C85.672 139.805 85.6589 139.913 85.6445 140.02C85.6469 140.249 85.7067 140.463 85.8237 140.662C85.8918 140.746 85.9587 140.832 86.0268 140.916C86.1858 141.067 86.3709 141.171 86.5836 141.228Z" fill="#20363F"/>
<path d="M91.207 141.972C91.2644 141.955 91.3229 141.94 91.3815 141.923C91.5499 141.883 91.6969 141.806 91.8199 141.69C91.9561 141.6 92.0637 141.481 92.1401 141.333C92.2273 141.19 92.2751 141.038 92.2823 140.875C92.3181 140.71 92.3098 140.546 92.2572 140.382C92.213 140.279 92.1688 140.176 92.1246 140.073C92.0099 139.884 91.8558 139.736 91.6634 139.627C91.5643 139.587 91.4651 139.547 91.3647 139.506C91.1449 139.449 90.9251 139.452 90.7064 139.511C90.6479 139.528 90.5905 139.543 90.532 139.56C90.3635 139.6 90.2166 139.677 90.0935 139.793C89.9573 139.883 89.8498 140.002 89.7733 140.15C89.6861 140.293 89.6383 140.445 89.6312 140.608C89.5953 140.773 89.6037 140.937 89.6563 141.101C89.7005 141.204 89.7447 141.307 89.7889 141.41C89.9036 141.599 90.0577 141.747 90.25 141.856C90.3492 141.896 90.4484 141.936 90.5487 141.977C90.7686 142.034 90.9884 142.031 91.207 141.972Z" fill="#20363F"/>
<path d="M88.7846 137.991C88.8013 138.05 88.8169 138.107 88.8336 138.165C88.8742 138.332 88.9519 138.479 89.0678 138.601C89.1586 138.737 89.278 138.843 89.4274 138.92C89.5708 139.006 89.7237 139.054 89.8874 139.061C90.0534 139.097 90.2183 139.088 90.3832 139.036C90.4871 138.992 90.5899 138.948 90.6938 138.904C90.8838 138.79 91.0331 138.637 91.1418 138.445C91.1825 138.347 91.2231 138.248 91.2637 138.148C91.3211 137.93 91.3187 137.711 91.2589 137.494C91.2422 137.436 91.2267 137.378 91.2099 137.32C91.1693 137.152 91.0917 137.006 90.9758 136.884C90.885 136.748 90.7655 136.641 90.6162 136.565C90.4728 136.479 90.3199 136.431 90.1562 136.424C89.9901 136.388 89.8252 136.397 89.6604 136.449C89.5564 136.493 89.4537 136.537 89.3497 136.581C89.1598 136.695 89.0104 136.848 88.9017 137.04C88.8611 137.138 88.8205 137.237 88.7798 137.337C88.7225 137.555 88.7249 137.774 88.7846 137.991Z" fill="#20363F"/>
<path d="M87.81 142.545C88.2449 144.097 90.6714 143.428 90.2353 141.874C89.8005 140.322 87.3739 140.991 87.81 142.545Z" fill="#20363F"/>
<path d="M84.2207 122.357C85.802 125.322 91.4347 119.006 92.888 117.601C92.8534 118.875 91.8503 123.796 92.1136 124.969C92.5386 126.862 95.164 127.315 96.1629 125.649C97.2909 123.766 97.8009 121.089 98.0978 118.227C99.675 120.929 108.439 132.13 110.356 123.369C111.288 119.114 105.18 114.617 101.827 113.602C105.15 112.922 112.999 112.084 112.514 106.864C112.007 101.406 104.954 105.49 102.807 107.676C103.032 105.202 105.617 95.9998 101.503 95.5447C97.9919 95.1565 96.7537 104.695 96.1178 107.147C94.1042 105.497 90.0098 100.672 86.9175 103.601C83.8703 106.486 89.1567 110.71 91.1839 112.632C88.8734 113.837 82.5261 119.177 84.2218 122.357H84.2207Z" fill="#FDFFB3"/>
<path d="M97.8545 109.402C97.779 109.537 97.7034 109.674 97.6279 109.81C97.5146 109.973 97.4506 110.151 97.4348 110.344C97.3845 110.536 97.3865 110.729 97.4401 110.925C97.4789 111.116 97.5597 111.284 97.6846 111.43C97.7821 111.591 97.9144 111.722 98.0812 111.819C98.1956 111.872 98.311 111.925 98.4254 111.977C98.6824 112.056 98.9416 112.065 99.2029 112.005C99.3215 111.96 99.439 111.915 99.5576 111.87C99.7821 111.749 99.9626 111.581 100.101 111.367C100.177 111.231 100.252 111.095 100.328 110.959C100.441 110.796 100.505 110.618 100.521 110.424C100.571 110.232 100.569 110.039 100.516 109.843C100.477 109.652 100.396 109.484 100.271 109.339C100.174 109.177 100.041 109.047 99.8745 108.95C99.7601 108.897 99.6447 108.843 99.5303 108.791C99.2732 108.713 99.014 108.703 98.7528 108.764C98.6342 108.809 98.5167 108.854 98.3981 108.899C98.1735 109.02 97.9931 109.188 97.8545 109.402Z" fill="#20363F"/>
<path d="M95.4012 114.234C95.3991 114.304 95.3959 114.373 95.3938 114.443C95.3792 114.643 95.4148 114.831 95.4998 115.007C95.5523 115.19 95.6478 115.35 95.7852 115.486C95.9122 115.632 96.0654 115.739 96.2448 115.804C96.4159 115.901 96.6026 115.95 96.8041 115.949C96.9342 115.936 97.0643 115.924 97.1945 115.91C97.4442 115.849 97.6645 115.733 97.8534 115.558C97.9332 115.463 98.0129 115.367 98.0927 115.272C98.2333 115.05 98.3088 114.808 98.3183 114.545C98.3204 114.475 98.3235 114.406 98.3256 114.336C98.3403 114.136 98.3046 113.948 98.2196 113.771C98.1672 113.589 98.0717 113.429 97.9342 113.292C97.8073 113.146 97.6541 113.04 97.4746 112.975C97.3036 112.878 97.1168 112.829 96.9153 112.83C96.7852 112.843 96.6551 112.855 96.525 112.869C96.2753 112.929 96.0549 113.046 95.866 113.22C95.7863 113.315 95.7065 113.411 95.6268 113.506C95.4862 113.729 95.4106 113.971 95.4012 114.234Z" fill="#20363F"/>
<path d="M100.689 112.966C100.619 112.963 100.549 112.96 100.479 112.958C100.278 112.944 100.089 112.979 99.9113 113.064C99.7277 113.116 99.5672 113.211 99.4297 113.348C99.2828 113.474 99.1758 113.626 99.1107 113.805C99.0131 113.975 98.9638 114.161 98.9649 114.361C98.9775 114.49 98.99 114.62 99.0037 114.749C99.0645 114.998 99.1821 115.217 99.3573 115.405C99.4528 115.484 99.5493 115.563 99.6448 115.643C99.8683 115.782 100.112 115.858 100.376 115.867C100.446 115.869 100.516 115.872 100.586 115.874C100.788 115.889 100.976 115.853 101.154 115.769C101.337 115.717 101.498 115.622 101.635 115.485C101.782 115.359 101.889 115.206 101.954 115.028C102.052 114.858 102.101 114.672 102.1 114.472C102.088 114.342 102.075 114.213 102.061 114.083C102.001 113.835 101.883 113.616 101.708 113.428C101.612 113.349 101.516 113.269 101.42 113.19C101.197 113.05 100.953 112.975 100.689 112.966Z" fill="#20363F"/>
<path d="M95.9583 110.292C94.0758 110.225 93.9688 113.134 95.8544 113.201C97.7368 113.268 97.8439 110.359 95.9583 110.292Z" fill="#20363F"/>
</g>
<defs>
<clipPath id="clip0_10888_16935">
<rect width="129" height="111" fill="white" transform="translate(10 45)"/>
</clipPath>
</defs>
</svg>
