<svg width="150" height="200" viewBox="0 0 150 200" fill="none" xmlns="http://www.w3.org/2000/svg">
<rect width="150" height="200" fill="#E0F2F1"/>
<g clip-path="url(#clip0_10888_17082)">
<path d="M75.9632 163.907C75.8626 163.845 75.7787 163.755 75.7269 163.641C75.5882 163.336 75.7208 162.977 76.0227 162.838C84.8728 158.75 94.3434 147.143 99.8029 137.452C105.159 127.946 111.23 117.172 114.227 105.99C116.008 99.3475 116.649 93.9229 116.133 89.8662C116.09 89.5334 116.323 89.2298 116.654 89.1884C116.985 89.1469 117.287 89.3801 117.328 89.7129C117.864 93.9275 117.213 99.5101 115.39 106.306C112.352 117.637 106.241 128.482 100.85 138.05C95.2947 147.91 85.6183 159.74 76.5243 163.939C76.3352 164.026 76.1264 164.006 75.9617 163.907H75.9632Z" fill="#13753C"/>
<path d="M116.691 92.7036C119.263 89.7389 120.633 85.5504 120.642 81.8113C120.649 79.27 119.325 74.1873 116.095 75.5477C111.083 77.6596 114.445 89.9705 116.691 92.7036Z" fill="#13753C"/>
<path d="M114.703 106.994C118.121 105.687 121.89 104.362 124.451 101.799C126.301 99.9482 128.898 95.7382 124.878 94.6554C120.073 93.3625 115.475 104.433 114.703 106.992V106.994Z" fill="#13753C"/>
<path d="M113.11 108.873C114.614 104.973 114.405 100.119 112.522 96.409C111.366 94.133 108.433 88.7559 106.065 91.9598C103.283 95.725 109.474 106.596 113.11 108.873Z" fill="#13753C"/>
<path d="M110.688 117.78C112.863 120.857 128.226 117.194 125.688 112.838C122.761 107.817 114.324 115.714 110.688 117.78Z" fill="#13753C"/>
<path d="M105.155 127.443C107.672 123.307 103.272 108.298 98.4408 114.605C94.7697 119.396 101.197 125.862 105.155 127.443Z" fill="#13753C"/>
<path d="M101.223 136.57C104.337 139.311 120.322 136.618 116.985 132.48C113.538 128.207 105.249 133.139 101.223 136.57Z" fill="#13753C"/>
<path d="M93.0826 147.258C96.8651 145.171 96.1805 131.113 90.7637 133.233C86.2144 135.013 89.8185 144.568 93.0826 147.258Z" fill="#13753C"/>
<path d="M86.6289 155.251C89.3548 156.687 105.93 157.481 105.413 151.949C104.777 145.133 90.5638 153.053 86.6289 155.251Z" fill="#13753C"/>
<path d="M81.8253 159.451C83.2325 156.327 84.3058 149.043 82.4916 145.75C80.9091 142.879 77.9377 142.695 76.3445 145.825C74.4205 149.603 78.7853 157.627 81.8253 159.451Z" fill="#13753C"/>
<path d="M75.1704 163.628C74.992 163.724 74.7679 163.718 74.5926 163.594C69.8924 160.272 66.7441 155.609 63.6996 151.1C62.7848 149.745 61.8381 148.344 60.8639 146.999C55.3983 139.457 51.2301 132.664 47.3455 124.971C45.1105 120.545 43.2551 115.928 41.4607 111.462C40.1801 108.274 38.8552 104.978 37.4038 101.78C36.114 98.9395 34.9691 96.1267 33.9034 93.182C33.7998 92.8967 33.6549 92.5302 33.4994 92.1345C32.4734 89.538 32.2584 88.7742 32.7051 88.3401C32.9109 88.1438 33.2021 88.1009 33.4918 88.2297C33.7693 88.3524 33.8958 88.6806 33.7738 88.9598C33.7372 89.0441 33.6824 89.1147 33.6168 89.1683C33.7449 89.7527 34.2388 91.0042 34.5239 91.725C34.684 92.133 34.8334 92.5087 34.9401 92.8032C35.9951 95.7203 37.1294 98.5055 38.407 101.32C39.8691 104.539 41.197 107.847 42.4837 111.046C44.2705 115.491 46.1167 120.086 48.3304 124.469C52.186 132.106 56.3268 138.854 61.7573 146.346C62.7421 147.706 63.6935 149.116 64.6143 150.478C67.7412 155.109 70.6943 159.482 75.2299 162.689C75.4784 162.865 75.5394 163.21 75.364 163.46C75.3137 163.532 75.2482 163.589 75.175 163.629L75.1704 163.628Z" fill="#84AD5B"/>
<path d="M34.5736 94.4931C35.2719 91.7953 33.3448 70.4141 28.0043 73.98C25.4781 75.6655 27.9631 82.9935 28.8611 84.8907C30.3765 88.0915 32.7426 90.5883 34.5736 94.4931Z" fill="#84AD5B"/>
<path d="M37.5312 101.595C33.4103 100.428 28.4234 97.5353 25.1075 94.8605C22.8938 93.0753 19.8889 89.8177 24.1653 89.6858C28.8594 89.5401 34.4348 96.5798 37.5327 101.596L37.5312 101.595Z" fill="#84AD5B"/>
<path d="M39.3665 105.601C39.6622 103.39 37.7519 87.1833 42.7556 90.3089C47.4741 93.2567 40.8407 103.355 39.3665 105.601Z" fill="#84AD5B"/>
<path d="M43.8107 115.63C38.8437 114.625 32.4923 113.377 28.873 109.472C26.9947 107.444 26.1028 105.271 29.867 104.398C34.6618 103.286 39.7005 109.932 43.8107 115.63Z" fill="#84AD5B"/>
<path d="M45.9988 120.713C46.0141 116.328 44.3142 112.887 45.3509 108.478C45.9272 106.024 47.6088 101.289 50.754 104.356C54.4617 107.971 47.5981 115.773 45.9988 120.713Z" fill="#84AD5B"/>
<path d="M50.045 129.758C45.2045 128.555 39.0072 126.353 35.1591 123.144C32.0978 120.592 31.9774 117.341 36.7233 118.103C42.0517 118.957 46.6605 125.812 50.0465 129.758H50.045Z" fill="#84AD5B"/>
<path d="M55.2814 136.889C54.8392 133.877 49.1099 116.243 55.8043 116.459C62.9484 116.689 57.6688 132.977 55.2814 136.889Z" fill="#84AD5B"/>
<path d="M61.0902 146.37C54.4477 146.94 46.1555 146.95 41.0559 141.614C38.2339 138.662 39.0892 135.783 43.451 135.631C50.5554 135.383 54.8364 142.859 61.0917 146.37H61.0902Z" fill="#84AD5B"/>
<path d="M67.7427 156.23C65.0472 150.356 63.1324 145.916 62.8534 139.315C62.7086 135.902 63.0485 128.913 67.6146 133.296C71.83 137.344 69.7429 152.791 67.7427 156.23Z" fill="#84AD5B"/>
<path d="M71.486 159.571C66.92 160.965 59.0669 161.575 54.5191 159.29C52.586 158.319 49.0734 156.514 49.639 153.938C51.2916 146.4 66.2507 155.536 71.486 159.571Z" fill="#84AD5B"/>
<path d="M60.3708 86.4774C58.8203 84.4207 56.8094 82.7014 54.2954 82.5726C50.6898 82.3886 49.5662 86.3409 51.0724 89.2135C52.8958 92.6888 56.6706 95.0952 59.6054 97.4463C62.1515 99.4862 65.289 101.566 67.0347 104.449C67.0347 104.449 67.0499 102.156 66.3288 99.592C65.3729 96.1918 64.0328 92.8606 62.403 89.7503C61.8435 88.6828 61.1681 87.5356 60.3708 86.4774Z" fill="#6B993D"/>
<path d="M79.6885 103.194C81.5668 101.561 83.75 100.391 86.3417 100.783C89.9138 101.326 90.2812 105.43 88.2688 107.946C85.834 110.99 81.6826 112.591 78.3652 114.309C75.4868 115.8 71.5519 117.177 69.3047 119.657C69.3047 119.657 69.9831 117.195 71.1677 114.824C72.8844 111.387 75.0111 108.148 77.5633 105.32C78.2265 104.584 78.9339 103.851 79.69 103.193L79.6885 103.194Z" fill="#6B993D"/>
<path d="M71.9354 148.258C71.9354 148.258 69.7995 140.76 76.0883 132.463C83.3194 122.92 89.4908 133.346 81.3954 137.406C76.5427 139.84 72.995 144.11 71.9354 148.258Z" fill="#6B993D"/>
<path d="M75.7676 164.121C75.5938 164.121 75.4322 164.011 75.3742 163.836C71.1695 151.141 66.4037 136.755 66.8763 122.323C67.1842 112.919 69.6845 103.694 72.104 94.7736C72.9608 91.6158 73.8451 88.3505 74.6196 85.1298C74.9001 83.9596 75.1776 82.84 75.4444 81.7587C77.9446 71.6471 79.5973 64.9679 75.0358 54.6676C74.9428 54.4575 75.0358 54.2106 75.2446 54.117C75.4535 54.0219 75.699 54.117 75.792 54.3271C80.4693 64.8897 78.7908 71.6793 76.2478 81.9581C75.981 83.0378 75.7035 84.1559 75.423 85.323C74.647 88.5561 73.7597 91.8274 72.9029 94.9899C70.4971 103.865 68.009 113.041 67.7041 122.349C67.2376 136.631 71.9775 150.944 76.1609 163.57C76.2326 163.788 76.1167 164.024 75.8987 164.098C75.8545 164.113 75.8102 164.119 75.7676 164.119V164.121Z" fill="#13753C"/>
<path d="M68.3829 112.608C68.1543 112.608 67.9683 112.423 67.9683 112.191C67.9683 102.231 61.155 93.1642 54.7792 88.0003C54.6009 87.8561 54.5734 87.5939 54.7167 87.4144C54.86 87.2365 55.1223 87.2074 55.2991 87.3516C61.8243 92.6367 68.7961 101.939 68.7961 112.193C68.7961 112.423 68.6116 112.61 68.3814 112.61L68.3829 112.608Z" fill="#13753C"/>
<path d="M76.0859 81.4535C76.0585 81.4535 76.0295 81.4504 76.0021 81.4443C75.778 81.3983 75.6346 81.1774 75.6804 80.952C76.4625 77.1362 78.5816 73.4308 81.6491 70.5183C83.0867 69.1533 84.7272 68.026 86.5246 67.1672C86.732 67.069 86.9789 67.1564 87.0765 67.365C87.1741 67.5736 87.0872 67.8205 86.8799 67.9202C85.1617 68.7407 83.5929 69.8189 82.2177 71.1256C79.2738 73.9215 77.24 77.472 76.4914 81.1222C76.4503 81.3185 76.278 81.455 76.0859 81.455V81.4535Z" fill="#13753C"/>
<path d="M68.5406 138.192C68.3485 138.192 68.1762 138.057 68.135 137.861C66.6288 130.594 63.6254 126.005 57.053 120.933C56.8715 120.794 56.8365 120.531 56.9767 120.349C57.1155 120.166 57.3762 120.131 57.5576 120.272C64.3084 125.482 67.3956 130.203 68.9461 137.692C68.9934 137.916 68.8501 138.138 68.626 138.184C68.597 138.19 68.5695 138.193 68.5406 138.193V138.192Z" fill="#13753C"/>
<path d="M67.4028 128.322C67.3921 128.322 67.3799 128.322 67.3693 128.322C67.1406 128.304 66.9713 128.103 66.9896 127.873C67.9211 116.21 73.4538 110.967 83.3345 105.37C83.5342 105.257 83.7858 105.329 83.8986 105.528C84.0114 105.729 83.9398 105.982 83.7416 106.096C73.8914 111.675 68.7246 116.586 67.816 127.94C67.7992 128.158 67.6162 128.323 67.4028 128.323V128.322Z" fill="#13753C"/>
<path d="M72.0834 152.594C71.8792 152.594 71.7023 152.442 71.6733 152.234C71.1413 148.286 71.8166 144.099 73.5714 140.443C75.2103 137.03 77.7259 134.745 80.6043 132.32C80.7796 132.171 81.0418 132.196 81.1882 132.372C81.3345 132.549 81.3117 132.811 81.1363 132.96C78.3326 135.322 75.8842 137.542 74.3169 140.806C72.6308 144.317 71.9843 148.337 72.4936 152.122C72.524 152.35 72.3655 152.559 72.1383 152.591C72.12 152.594 72.1002 152.596 72.0819 152.596L72.0834 152.594Z" fill="#13753C"/>
<path d="M73.4389 91.4461C73.4054 91.4461 73.3718 91.4415 73.3368 91.4339C73.1157 91.3771 72.9815 91.1517 73.0364 90.9277C73.0745 90.7744 76.7579 75.5509 66.8192 69.5987C66.6226 69.4806 66.5585 69.2245 66.6759 69.0282C66.7933 68.8303 67.0479 68.7644 67.2431 68.884C77.7138 75.1553 73.8795 90.9738 73.8399 91.1333C73.7926 91.3219 73.6234 91.4477 73.4389 91.4477V91.4461Z" fill="#13753C"/>
<path d="M69.0927 67.0332C68.4555 66.8753 68.0667 66.863 67.1916 66.8584C68.3076 66.7664 69.3854 66.1897 70.1081 65.3002C70.5136 64.8017 70.8856 63.9643 70.291 63.4429C69.9632 63.1561 69.547 63.2266 69.1644 63.3217C68.2024 63.561 67.1489 64.2941 66.35 64.9014C67.0315 64.0425 67.8822 62.7312 67.6993 61.6454C67.6383 61.2834 67.4508 60.9154 67.1199 60.7789C66.7052 60.6071 66.1274 60.4598 65.4139 61.1209C64.6105 61.8662 64.1409 63.0794 64.0998 64.1882C64.0113 63.1469 63.5921 60.6776 62.4151 60.3617C61.2778 60.0565 60.1481 61.0733 60.1679 62.1055C60.1908 63.3324 61.3372 64.3539 62.252 64.8554C61.415 64.3953 59.9865 64.2189 59.0916 64.5671C58.5122 64.7925 57.9603 65.2373 57.8185 65.8584C57.631 66.6866 58.2607 67.5133 59.0245 67.817C59.7883 68.1206 60.642 68.0317 61.4592 67.9397C60.9332 68.1897 60.3585 68.3062 59.8096 68.4949C59.0656 68.7525 58.1402 69.2847 58.0945 70.2019C58.0564 70.9794 58.7089 71.4656 59.4239 71.4794C60.671 71.504 61.7031 70.734 62.3145 70.1221C62.0401 70.4503 61.8007 70.7617 61.5858 71.1435C61.1055 71.9963 61.0918 73.168 62.037 73.668C62.6469 73.9901 63.336 73.8152 63.7979 73.3291C64.6181 72.4671 65.0328 71.2172 64.9108 70.0255C65.0206 70.708 65.2798 71.5086 65.6182 72.05C66.0024 72.6665 66.7815 73.0867 67.4447 72.8061C68.1978 72.4871 68.4234 71.4089 68.0774 70.6558C67.7328 69.9028 67.2312 69.5163 66.4903 69.1881C67.0315 69.3675 67.2953 69.5654 67.8304 69.7648C68.3655 69.9641 68.9601 70.073 69.5044 69.8905C70.0486 69.708 70.5106 69.162 70.4587 68.5761C70.3993 67.9013 69.7239 67.1897 69.0881 67.0317L69.0927 67.0332Z" fill="#FF777D"/>
<path d="M64.002 64.6945C63.8465 63.4476 61.802 64.5503 62.6954 65.4C61.802 64.5503 60.7043 66.5533 61.9926 66.6806C60.7043 66.5533 60.9711 68.6913 62.1634 68.0471C60.9711 68.6913 62.5003 70.1468 63.1421 68.9781C62.5018 70.1468 64.7094 70.3646 64.5539 69.1177C64.7094 70.3646 66.7538 69.2618 65.8604 68.4122C66.7538 69.2618 67.8515 67.2588 66.5633 67.1315C67.8515 67.2588 67.5847 65.1209 66.3925 65.765C67.5847 65.1209 66.0556 63.6654 65.4137 64.8341C66.0541 63.6654 63.8465 63.4476 64.002 64.6945Z" fill="white"/>
<path d="M64.7231 68.7803C65.8718 68.5065 66.6057 67.4467 66.3622 66.4131C66.1188 65.3796 64.9902 64.7636 63.8416 65.0374C62.6929 65.3112 61.9591 66.3711 62.2025 67.4046C62.4459 68.4382 63.5745 69.0541 64.7231 68.7803Z" fill="#F46E6E"/>
<path d="M80.966 51.1011C80.6946 50.3849 79.7433 49.822 79.0024 49.8511C78.2629 49.8803 77.8361 49.9892 76.8832 50.2622C78.0678 49.8082 79.0618 48.8404 79.5741 47.6411C79.7341 47.2684 79.85 46.862 79.8012 46.4571C79.754 46.0522 79.5116 45.6534 79.1411 45.5231C78.7416 45.3835 78.3102 45.5721 77.9428 45.7853C76.9716 46.3497 76.0508 47.4816 75.3693 48.3972C75.8465 47.2454 76.3679 45.5476 75.8373 44.4219C75.6605 44.0461 75.3434 43.7056 74.9424 43.6612C74.4393 43.606 74.0033 44.0247 73.7228 44.4633C73.0535 45.5123 72.8492 46.7976 72.6602 48.0414C72.2439 46.9341 71.0777 44.6673 69.701 44.6949C68.3715 44.7225 67.8273 46.5629 68.1642 47.681C68.5652 49.0107 69.7543 49.3864 70.9008 49.6441C69.8504 49.4079 68.2435 49.6671 67.379 50.3297C66.8195 50.7591 66.3561 51.4186 66.3927 52.1394C66.4414 53.101 67.3821 53.8035 68.3045 53.8924C69.2268 53.9814 70.1278 53.6148 70.9877 53.2559C70.4922 53.6946 69.9053 54.0029 69.3671 54.3832C68.6368 54.8985 67.7953 55.7712 68.027 56.7865C68.2237 57.6469 69.1064 58.0472 69.8641 57.7589C70.2788 57.6009 70.634 57.311 70.9694 57.012C71.6585 56.3954 72.462 55.1577 73.0337 54.4231C72.587 55.2835 71.9604 56.7558 72.0092 57.7313C72.0579 58.7067 72.837 59.7112 73.7716 59.5932C74.3997 59.5134 74.8845 58.9689 75.1864 58.3892C75.813 57.1899 75.88 55.6976 75.3815 54.4369C75.7108 55.147 76.2368 55.9353 76.7704 56.4199C77.3772 56.9705 78.3514 57.1822 78.9871 56.6653C79.7082 56.0795 79.6213 54.8326 79.0161 54.1209C78.4093 53.4093 77.4625 53.1286 76.5554 53.0044C77.1988 53.0274 77.8315 53.1793 78.4733 53.2268C79.1152 53.2743 79.7951 53.2053 80.3302 52.8342C80.8654 52.463 81.1993 51.7223 80.9645 51.0996L80.966 51.1011Z" fill="#FF777D"/>
<path d="M73.5809 49.0854C73.4132 47.7434 71.2148 48.9305 72.1753 49.8446C71.2148 48.932 70.0333 51.0853 71.4206 51.2218C70.0348 51.0853 70.3214 53.3843 71.6036 52.6911C70.3214 53.3843 71.9664 54.9487 72.6555 53.6911C71.9664 54.9487 74.3417 55.1818 74.174 53.8398C74.3417 55.1818 76.5401 53.9947 75.5796 53.0807C76.5401 53.9932 77.7217 51.8399 76.3343 51.7034C77.7201 51.8399 77.4335 49.5409 76.1514 50.2341C77.4335 49.5409 75.7885 47.9765 75.0994 49.2342C75.7885 47.9765 73.4132 47.7434 73.5809 49.0854Z" fill="white"/>
<path d="M73.7046 53.8559C72.7975 53.8559 72.0001 53.3206 71.6723 52.4924C71.4482 51.9265 71.4589 51.2885 71.7028 50.6949C71.9544 50.0784 72.4239 49.5861 73.0231 49.3054C73.3539 49.1505 73.7 49.0723 74.0507 49.0723C74.9578 49.0723 75.7551 49.6075 76.0829 50.4357C76.307 51.0016 76.2963 51.6397 76.0524 52.2332C75.8009 52.8497 75.3313 53.3421 74.7321 53.6227C74.4013 53.7761 74.0552 53.8559 73.7046 53.8559Z" fill="#F46E6E"/>
<path d="M95.1585 66.1249C95.9589 65.8964 96.6374 65.0084 96.3523 64.1971C96.1602 63.6495 95.6098 63.3213 95.0686 63.1618C93.9465 62.8305 92.6933 63.0529 91.7465 63.7369C92.2695 63.3075 92.8198 62.6879 93.1156 62.1189C93.451 61.4717 93.4312 60.5607 92.8747 60.0914C92.2436 59.5576 91.2251 59.872 90.7556 60.5484C90.286 61.2248 90.2433 62.125 90.3211 62.9594C90.2113 62.3796 90.2098 61.7861 90.1214 61.2033C90.0314 60.6205 89.8393 60.0254 89.4231 59.6175C89.0069 59.2095 88.3254 59.0515 87.8559 59.3797C87.3162 59.7586 87.0387 60.7156 87.2125 61.3705C87.3848 62.0269 87.5616 62.3873 87.9793 63.1864C87.3634 62.214 86.3603 61.51 85.261 61.2784C84.9195 61.2064 84.5582 61.1803 84.232 61.2999C83.9057 61.4195 83.6221 61.7109 83.5886 62.0683C83.552 62.4517 83.7959 62.8029 84.0475 63.0897C84.7122 63.8504 85.8373 64.4578 86.7338 64.8949C85.6818 64.6878 84.1649 64.5437 83.337 65.2308C83.0611 65.4608 82.8415 65.809 82.8842 66.174C82.9391 66.6341 83.3751 66.9439 83.7959 67.1111C84.8021 67.5098 85.9105 67.4485 86.9823 67.381C86.1468 67.9623 84.4957 69.4361 84.796 70.66C85.0857 71.8425 86.7246 71.9805 87.586 71.4668C88.6105 70.8563 88.6837 69.7229 88.6669 68.6478C88.6822 69.6309 89.2188 71.0174 89.943 71.6646C90.4126 72.0833 91.0529 72.3732 91.6459 72.2029C92.4356 71.9759 92.8305 71.0036 92.7192 70.1616C92.6079 69.3196 92.1231 68.5849 91.652 67.8841C92.1155 68.2445 92.4905 68.7107 92.9144 69.1187C93.4891 69.6739 94.384 70.2597 95.1799 69.8594C95.8553 69.5205 96.0108 68.6555 95.6189 68.0328C95.404 67.6923 95.093 67.4301 94.7774 67.1862C94.1264 66.6878 92.9372 66.2031 92.2115 65.832C93.015 66.0682 94.3658 66.3488 95.1662 66.1203L95.1585 66.1249Z" fill="#FF777D"/>
<path d="M91.7105 64.8052C92.8737 64.1994 91.0717 62.4341 90.5579 63.6764C91.0717 62.4341 88.7254 61.9848 89.0578 63.3896C88.7254 61.9848 86.7313 63.0246 87.7832 64.0537C86.7313 63.0231 85.8516 65.1534 87.2207 65.4156C85.8516 65.1534 86.4218 67.5613 87.585 66.9539C86.4218 67.5597 88.2238 69.325 88.7376 68.0827C88.2238 69.325 90.5701 69.7744 90.2378 68.3695C90.5701 69.7744 92.5643 68.7345 91.5123 67.7054C92.5643 68.7361 93.4439 66.6058 92.0749 66.3435C93.4439 66.6058 92.8737 64.1979 91.7105 64.8052Z" fill="white"/>
<path d="M88.2708 63.8685C89.2282 63.1523 90.6202 63.4452 91.3809 64.5219C92.1417 65.5985 91.9816 67.0509 91.0242 67.7672C90.0668 68.4834 88.6748 68.1905 87.9141 67.1138C87.1533 66.0372 87.3134 64.5848 88.2708 63.8685Z" fill="#F46E6E"/>
<path d="M61.5413 119.037C60.6052 118.288 59.57 118.653 58.6217 119.08C59.4907 118.688 60.5168 117.641 60.8141 116.698C61.0062 116.087 61.0168 115.362 60.6387 114.859C60.1341 114.189 59.1187 114.182 58.4129 114.613C57.707 115.043 57.2389 115.791 56.7983 116.511C56.9401 115.928 57.2115 115.389 57.4112 114.827C57.6841 114.061 57.8625 112.979 57.2008 112.368C56.6398 111.851 55.812 112.034 55.4095 112.647C55.1884 112.983 55.0756 113.383 54.9811 113.781C54.7874 114.597 54.8134 115.923 54.7615 116.762C54.6624 115.9 54.3956 114.497 53.8849 113.817C53.3742 113.136 52.3253 112.827 51.7139 113.413C51.3023 113.807 51.22 114.462 51.2855 115.041C51.4212 116.245 52.1012 117.365 53.0738 118.011C52.4914 117.673 51.7292 117.382 51.1087 117.317C50.4043 117.244 49.6024 117.612 49.3981 118.327C49.1664 119.136 49.8356 119.994 50.6178 120.185C51.3999 120.377 52.2155 120.072 52.9275 119.676C52.4549 120.003 51.9274 120.233 51.4425 120.543C50.9593 120.852 50.5049 121.265 50.3022 121.822C50.0994 122.377 50.2198 123.093 50.6925 123.417C51.2367 123.79 52.1926 123.688 52.7095 123.271C53.2263 122.854 53.4794 122.546 54.0282 121.839C53.4001 122.802 53.1592 124.035 53.3757 125.178C53.4428 125.533 53.5586 125.889 53.7889 126.158C54.0206 126.424 54.388 126.585 54.7188 126.481C55.0725 126.369 55.2921 126.001 55.4506 125.65C55.8729 124.72 55.9812 123.408 56.0239 122.38C56.2434 123.469 56.6962 124.98 57.6262 125.51C57.9357 125.688 58.3305 125.765 58.6385 125.582C59.0273 125.354 59.1355 124.816 59.1218 124.348C59.0898 123.23 58.6095 122.188 58.14 121.187C58.977 121.767 60.4222 122.319 61.3964 121.561C62.3371 120.829 62.328 119.67 61.5398 119.04L61.5413 119.037Z" fill="#FF777D"/>
<path d="M54.5895 117.554C53.9446 116.489 52.5359 118.383 53.6884 118.764C52.5343 118.382 52.3484 120.679 53.568 120.233C52.3468 120.681 53.4537 122.503 54.2754 121.399C53.4537 122.503 55.4295 123.156 55.5393 121.816C55.4295 123.156 57.5227 122.389 56.8763 121.325C57.5212 122.389 58.9299 120.495 57.7773 120.115C58.9314 120.497 59.1174 118.199 57.8978 118.646C59.119 118.198 58.0121 116.376 57.1904 117.48C58.0121 116.376 56.0363 115.722 55.9265 117.063C56.0363 115.722 53.943 116.489 54.5895 117.554Z" fill="white"/>
<path d="M57.6738 120.146C58.132 118.947 57.635 117.639 56.5637 117.225C55.4924 116.81 54.2526 117.447 53.7944 118.647C53.3363 119.846 53.8333 121.154 54.9046 121.568C55.9758 121.982 57.2157 121.346 57.6738 120.146Z" fill="#F46E6E"/>
<path d="M74.476 163.96C74.4622 163.957 74.45 163.953 74.4363 163.947C74.2823 163.882 74.2092 163.703 74.2732 163.548C88.2748 129.929 93.777 99.8951 95.1293 91.492C95.1567 91.3264 95.3122 91.2129 95.4769 91.2405C95.643 91.2727 95.7543 91.4245 95.7269 91.5901C94.3716 100.012 88.8587 130.104 74.8312 163.784C74.7717 163.927 74.6177 164 74.4744 163.96H74.476Z" fill="#6B993D"/>
<path d="M91.9435 108.972C91.7957 108.932 91.6981 108.786 91.7225 108.631C91.7499 108.453 92.4848 104.257 99.3789 102.802C99.542 102.766 99.7021 102.872 99.7371 103.038C99.7722 103.202 99.667 103.365 99.5024 103.398C93.0428 104.763 92.346 108.567 92.3201 108.728C92.2927 108.894 92.1372 109.007 91.9725 108.979C91.9618 108.978 91.9512 108.975 91.942 108.973L91.9435 108.972Z" fill="#6B993D"/>
<path d="M90.8688 113.494C90.727 113.455 90.6294 113.317 90.6462 113.165C90.6676 112.971 91.0944 108.377 85.3087 105.261C85.1608 105.181 85.1059 104.997 85.1837 104.848C85.263 104.699 85.4459 104.644 85.5938 104.724C91.7576 108.043 91.2545 113.182 91.2484 113.234C91.2301 113.402 91.0807 113.521 90.9145 113.503C90.8993 113.501 90.8841 113.498 90.8688 113.494Z" fill="#6B993D"/>
<path d="M69.0614 128.88C69.0233 128.231 69.3709 127.75 69.9365 128.067C71.8057 129.115 73.2327 130.533 74.3425 132.34C76.0257 135.081 77.1981 137.533 78.1341 140.626C79.3279 144.573 78.5229 149.89 78.5229 149.89C78.5229 149.89 72.9338 140.005 72.5039 139.074C71.6364 137.199 70.7202 135.639 70.0448 133.685C69.5524 132.26 69.1514 130.397 69.063 128.878L69.0614 128.88Z" fill="#BECF60"/>
<path d="M78.3359 154.233C78.1895 154.193 78.0919 154.049 78.1148 153.894C79.7217 142.977 69.2662 128.662 69.161 128.517C69.0619 128.382 69.0894 128.192 69.2235 128.091C69.3577 127.991 69.5483 128.019 69.6474 128.154C70.0864 128.747 80.359 142.814 78.714 153.983C78.6896 154.148 78.5356 154.264 78.3694 154.239C78.3572 154.237 78.3465 154.234 78.3359 154.231V154.233Z" fill="#6B993D"/>
<path d="M99.7679 135.316C100.129 134.777 100.073 134.185 99.4264 134.168C94.6972 134.043 90.1784 137.129 86.7466 140.118C86.4996 140.335 86.2541 140.554 86.0133 140.776C82.987 143.56 80.9883 148.548 80.9883 148.548C83.5465 147.077 86.1032 145.603 88.6508 144.114C92.6695 141.766 97.1152 139.279 99.7694 135.316H99.7679Z" fill="#BECF60"/>
<path d="M78.9516 152.381C78.9394 152.378 78.9272 152.374 78.915 152.369C78.7595 152.305 78.6864 152.128 78.7489 151.972C82.9902 141.518 98.954 134.678 99.6309 134.393C99.7848 134.328 99.9632 134.4 100.027 134.555C100.091 134.71 100.02 134.89 99.8656 134.954C99.7025 135.023 83.4552 141.983 79.3099 152.202C79.252 152.346 79.0965 152.42 78.9516 152.381Z" fill="#6B993D"/>
<path d="M102.743 118.839C103.039 118.44 103.018 117.986 102.525 117.949C100.894 117.826 99.1391 117.975 97.6755 118.659C95.4542 119.696 94.0485 120.567 92.1565 122.145C89.7432 124.159 88.0234 127.76 88.0234 127.76C88.1302 127.533 89.3544 127.245 89.6273 127.141C90.2097 126.917 90.7936 126.694 91.3744 126.466C92.5362 126.01 93.6933 125.539 94.8261 125.015C97.0306 123.995 99.2915 122.789 100.978 121.001C101.616 120.323 102.188 119.586 102.743 118.837V118.839Z" fill="#BECF60"/>
<path d="M86.2254 130.79C86.2087 130.786 86.1919 130.779 86.1751 130.772C86.0242 130.701 85.9571 130.52 86.0288 130.367C89.6664 122.511 102.125 118.237 102.654 118.059C102.813 118.005 102.985 118.091 103.037 118.251C103.09 118.41 103.005 118.583 102.846 118.636C102.72 118.679 90.1039 123.005 86.5776 130.623C86.5151 130.759 86.3642 130.827 86.2254 130.789V130.79Z" fill="#6B993D"/>
<path d="M77.0732 115.171C77.0214 114.677 77.2684 114.297 77.712 114.517C79.1786 115.249 80.5203 116.102 81.435 117.441C82.8208 119.471 83.8575 121.121 84.6854 123.448C85.7419 126.417 85.3699 129.46 85.3699 129.46C83.1852 126.83 80.8038 124.244 79.1695 121.223C78.7457 120.437 78.331 119.634 77.9986 118.804C77.5702 117.735 77.1952 116.327 77.0732 115.171Z" fill="#BECF60"/>
<path d="M85.1681 134.279C85.0065 134.236 84.9105 134.069 84.9531 133.906C87.0479 125.926 77.1946 115.057 77.0955 114.948C76.9827 114.824 76.9903 114.632 77.1123 114.517C77.2358 114.402 77.4264 114.41 77.5407 114.534C77.9569 114.988 87.7187 125.761 85.5386 134.061C85.4959 134.223 85.3297 134.32 85.1681 134.277V134.279Z" fill="#6B993D"/>
<path d="M88.3576 81.6543C88.8119 81.4918 89.2708 81.3553 89.7403 81.2694C90.6932 81.0945 91.704 81.139 92.5501 81.5868C93.7957 82.2448 94.4894 83.6343 95.1099 84.9441C94.8156 84.03 94.2607 83.4135 93.9542 82.6482C93.6478 81.8829 93.3932 81.2264 93.8003 80.4872C94.2134 79.7357 95.0443 79.2648 95.5886 78.636C96.171 77.9658 97.0918 77.7388 97.8251 78.1606C98.5051 78.5532 99.0615 79.1743 99.3527 79.932C99.8711 81.2786 98.5386 83.4764 98.066 84.7601C98.4654 83.8199 99.3009 82.734 99.9275 82.2417C101.271 81.1912 104.05 82.2678 104.776 83.6665C105.419 84.9058 104.286 86.2953 103.396 87.4348C102.35 88.7707 101.669 89.0329 99.3924 88.6265C100.136 88.8059 100.758 89.1403 101.297 89.7584C102.32 90.9378 102.443 92.9607 102.106 94.4668C102.056 94.6922 101.966 94.9131 101.816 95.0864C100.9 96.1523 98.8466 95.3701 97.8297 95.0174C97.0354 94.7429 96.2899 94.2398 95.8782 93.4806C95.6084 92.9837 95.5322 92.0696 95.6099 91.1954C95.4895 91.8472 95.3477 92.5052 95.1571 92.8227C94.8217 93.384 94.3811 93.9208 93.7987 94.2107C93.1767 94.5189 92.4937 94.5128 91.8305 94.5174C91.0987 94.522 90.37 94.6784 89.6428 94.6478C89.2753 94.6324 88.9216 94.4775 88.6823 94.1923C88.2005 93.6171 89.0436 90.6617 89.4034 89.7062C89.6854 88.9593 90.3593 88.5513 91.0987 88.3489C91.5988 88.2109 92.573 88.2431 93.1523 88.2783C92.3809 88.2201 90.8441 88.0943 90.0331 87.9655C88.8713 87.7814 87.9917 87.033 87.6425 85.8643C87.394 85.0331 87.1867 84.2907 87.1684 83.4119C87.1516 82.6298 87.6349 81.9105 88.3515 81.6543H88.3576Z" fill="#80EAF0"/>
<path d="M97.5425 88.7629C98.1996 89.292 99.0335 89.5818 99.8782 89.5573C100.236 89.5466 100.529 89.2337 100.532 88.8579C100.534 88.4822 100.246 88.1862 99.8858 88.1969C99.186 88.2184 98.4954 87.9071 98.0426 87.3657C97.8093 87.0881 97.3992 87.0697 97.1263 87.3227C96.8534 87.5758 96.8214 88.0068 97.0531 88.2843C97.201 88.4607 97.3642 88.6202 97.541 88.7629H97.5425Z" fill="white"/>
<path d="M96.7226 86.1364C96.965 86.3312 97.3187 86.3174 97.5596 86.0858C98.113 85.5536 98.5963 84.9447 98.9957 84.2776C99.1894 83.954 99.0979 83.5368 98.7991 83.3451C98.4972 83.1534 98.0947 83.2607 97.9011 83.5844C97.5672 84.1426 97.1632 84.6518 96.6997 85.0966C96.4314 85.3558 96.4055 85.7867 96.6433 86.0582C96.6677 86.0873 96.6952 86.1119 96.7226 86.1349V86.1364Z" fill="white"/>
<path d="M94.9104 85.4189C95.0415 85.5247 95.1772 85.6244 95.319 85.7165C95.6194 85.9128 96.0218 85.81 96.2185 85.4895C96.4152 85.1689 96.3344 84.7487 96.0325 84.5539C95.2977 84.0754 94.7321 83.3392 94.4378 82.4819C94.3174 82.1322 93.9469 81.9604 93.6085 82.0985C93.27 82.2365 93.0932 82.6307 93.2136 82.9819C93.5444 83.9481 94.139 84.7993 94.9104 85.4205V85.4189Z" fill="white"/>
<path d="M90.9143 88.8168C91.0789 88.9487 91.3046 88.9932 91.5195 88.9134C92.1385 88.6849 92.8185 88.6205 93.4588 88.7294C93.625 89.0376 94 89.1481 94.3125 88.9778C94.5138 88.8674 94.6556 88.6695 94.7044 88.4364C94.7547 88.1956 94.6967 87.941 94.5489 87.7555C94.3735 87.5346 94.1357 87.4763 94.0457 87.4549C93.0975 87.2217 92.0608 87.2846 91.1247 87.6312C90.7832 87.757 90.5941 88.1481 90.7024 88.5008C90.742 88.6312 90.8182 88.7386 90.9143 88.8153V88.8168Z" fill="white"/>
<path d="M94.9122 93.1034C94.9641 93.1463 95.025 93.1801 95.0906 93.2031C95.426 93.3227 95.8011 93.1325 95.9276 92.7752L96.1136 92.2491C96.2752 91.7921 96.4597 91.2752 96.4581 90.697C96.4566 90.1357 96.2737 89.5897 95.9428 89.1603C95.7218 88.8719 95.3132 88.8367 95.0311 89.0774C94.7491 89.3198 94.6988 89.7492 94.9214 90.036C95.0723 90.2323 95.1592 90.4915 95.1607 90.7476C95.1607 91.0758 95.0281 91.4516 94.9 91.8151L94.714 92.3396C94.6119 92.6249 94.7018 92.9301 94.9138 93.1019L94.9122 93.1034Z" fill="white"/>
<path d="M97.4959 85.7234C96.7367 85.1161 95.6314 85.2863 95.0246 86.1023C94.4193 86.9182 94.5428 88.0715 95.3021 88.6789C96.0613 89.2862 97.1666 89.116 97.7734 88.3C98.3786 87.4841 98.2551 86.3308 97.4959 85.7234Z" fill="#20363F"/>
<path d="M94.7009 89.8746C94.5362 89.7381 94.4661 89.5111 94.524 89.2934C94.5576 89.163 94.521 89.005 94.4356 88.9084C94.3258 88.7872 94.0423 88.6737 93.9416 88.6921C93.6947 88.7474 93.4477 88.6216 93.3471 88.3854C93.2464 88.1492 93.3135 87.8686 93.5132 87.7029C93.5224 87.6952 94.3411 86.7536 93.8334 85.999C93.7053 85.8088 93.7069 85.5511 93.8349 85.3533C93.9645 85.1555 94.1947 85.0573 94.4127 85.1079C94.9402 85.2291 95.5683 84.9315 95.8428 84.43C95.9342 84.2644 96.0959 84.154 96.2758 84.1356C96.4557 84.1171 96.6294 84.1923 96.7392 84.338C96.8795 84.5236 97.099 84.6463 97.3292 84.6693C97.3323 84.6677 97.3368 84.6647 97.3399 84.6631C97.4741 84.5773 97.8903 84.3181 98.2287 84.6325C98.4925 84.8702 98.462 85.2337 98.4391 85.499C98.4361 85.5358 98.433 85.5695 98.4315 85.5987C98.4788 85.8517 98.6922 86.0757 98.9346 86.1217C99.1587 86.1646 99.3279 86.3517 99.3569 86.5879C99.3859 86.8256 99.2685 87.0603 99.0642 87.1769C98.9376 87.2489 98.8507 87.3532 98.8172 87.4729C98.7669 87.66 98.8507 87.8609 98.9315 87.9958C99.0276 88.16 99.0352 88.367 98.9514 88.5449C98.866 88.7228 98.7013 88.8455 98.5153 88.8685C97.4969 88.9974 97.4969 89.2596 97.4939 89.6216C97.4939 89.8286 97.3841 90.0219 97.2103 90.1277C97.0365 90.232 96.8246 90.232 96.6584 90.1261C96.2742 89.8808 95.5577 89.7765 95.2894 89.9252C95.1003 90.0311 94.8732 90.0127 94.7085 89.8808C94.707 89.8808 94.7054 89.8777 94.7039 89.8762L94.7009 89.8746ZM97.7332 87.8824C97.6936 87.6094 97.7241 87.3747 97.7729 87.1968C97.8064 87.071 97.8552 86.9514 97.9162 86.8394C97.6265 86.5772 97.4207 86.2122 97.3551 85.8073C97.0045 85.8042 96.6615 85.6999 96.3687 85.5143C96.0105 85.8809 95.5501 86.1309 95.0637 86.226C95.1354 86.7888 94.9753 87.3318 94.7603 87.7597C94.9479 87.8578 95.1125 87.982 95.2329 88.1155C95.3885 88.2873 95.4997 88.4974 95.5607 88.7228C95.8931 88.7044 96.2361 88.7581 96.541 88.8471C96.7011 88.4514 97.0396 88.0925 97.7317 87.8824H97.7332Z" fill="#FFD675"/>
<path d="M90.0933 102.515C90.0582 102.357 89.9729 102.218 89.8677 102.1C89.1618 101.314 87.9726 100.607 86.878 100.775C86.3032 100.862 85.8519 101.112 85.4373 101.494C86.6264 100.267 86.7667 99.7532 86.4572 98.6014C86.1935 97.6213 85.8885 96.3959 84.9204 96.31C83.8288 96.2119 82.0512 97.4848 82.0741 98.7057C82.0847 99.2762 82.3439 100.203 82.7037 100.808C82.1823 100.026 81.5085 98.3682 80.5327 98.1643C79.9839 98.0492 79.4 98.1474 78.8923 98.4081C78.345 98.6903 78.0843 99.3375 78.2154 99.951C78.3389 100.525 78.2535 101.212 78.502 101.752C78.7459 102.284 79.2231 102.383 79.7826 102.492C80.3422 102.601 80.923 102.502 81.5618 102.676C80.5647 102.548 79.4899 102.434 78.595 102.936C77.9867 103.278 77.9044 103.607 77.601 104.255C77.4516 104.574 77.3342 104.905 77.2336 105.244C77.075 105.778 77.2747 106.348 77.723 106.639C78.2245 106.968 78.6789 107.417 79.2521 107.587C80.0555 107.827 80.5282 107.558 81.1212 106.923C81.5359 106.48 82.254 105.595 82.6122 105.149C82.3485 105.488 81.9186 106.067 81.7859 106.425C81.5877 106.952 81.5328 107.52 81.8332 107.978C82.2189 108.566 83.5255 110.219 84.0514 110.149C84.3121 110.113 84.5484 109.958 84.7131 109.741C85.0378 109.31 85.2574 108.807 85.5623 108.36C85.8398 107.955 86.1309 107.543 86.2194 107.046C86.3032 106.581 86.1874 106.106 86.012 105.685C85.9129 105.446 85.5989 105.104 85.2818 104.778C85.7407 105.164 86.2895 105.474 86.6844 105.501C87.2835 105.544 87.8811 105.285 88.3705 104.909C88.9971 104.428 90.3037 103.482 90.0918 102.515H90.0933Z" fill="#80EAF0"/>
<path d="M84.7361 102.675C85.3108 102.48 85.8261 102.086 86.1676 101.563C86.3125 101.34 86.2606 101.041 86.0502 100.896C85.8399 100.75 85.5517 100.811 85.4069 101.032C85.1233 101.465 84.6583 101.765 84.1628 101.831C83.9082 101.866 83.7253 102.107 83.7527 102.371C83.7802 102.635 84.0089 102.82 84.2635 102.787C84.4251 102.765 84.5836 102.727 84.7391 102.675H84.7361Z" fill="white"/>
<path d="M82.9109 102.157C83.1229 102.084 83.2646 101.864 83.2357 101.629C83.1701 101.088 83.0314 100.558 82.8256 100.06C82.7249 99.8177 82.452 99.7119 82.2188 99.8192C81.984 99.9296 81.8742 100.215 81.9749 100.457C82.1471 100.876 82.263 101.318 82.3179 101.772C82.3499 102.035 82.5816 102.216 82.8347 102.176C82.8606 102.172 82.8865 102.166 82.9109 102.158V102.157Z" fill="white"/>
<path d="M81.743 102.983C81.8573 102.945 81.9716 102.901 82.0829 102.85C82.3192 102.744 82.4321 102.459 82.3345 102.215C82.2369 101.971 81.9671 101.859 81.7308 101.967C81.1514 102.227 80.4989 102.287 79.8937 102.135C79.6467 102.072 79.3936 102.232 79.328 102.491C79.2625 102.75 79.4104 103.009 79.6574 103.072C80.3404 103.244 81.0691 103.212 81.7445 102.983H81.743Z" fill="white"/>
<path d="M81.9684 106.721C82.1117 106.672 82.2322 106.552 82.2779 106.389C82.4106 105.925 82.6606 105.488 82.9929 105.141C83.2369 105.159 83.4564 104.974 83.4915 104.718C83.5143 104.554 83.464 104.39 83.3527 104.271C83.2384 104.147 83.0707 104.084 82.9045 104.103C82.7063 104.124 82.5737 104.247 82.5234 104.291C81.9928 104.778 81.5903 105.431 81.3906 106.133C81.3174 106.39 81.4562 106.655 81.7016 106.725C81.7916 106.751 81.8846 106.747 81.9684 106.719V106.721Z" fill="white"/>
<path d="M86.0647 105.947C86.1105 105.932 86.1547 105.909 86.1958 105.877C86.4047 105.719 86.455 105.418 86.3087 105.203L86.0922 104.887C85.9046 104.613 85.6897 104.302 85.3649 104.079C85.0478 103.863 84.6652 103.765 84.284 103.8C84.0294 103.823 83.8358 104.058 83.8526 104.323C83.8693 104.588 84.0904 104.783 84.345 104.76C84.5188 104.745 84.7018 104.791 84.8451 104.889C85.0311 105.015 85.185 105.24 85.3345 105.459L85.5509 105.775C85.6683 105.947 85.8772 106.012 86.0647 105.947Z" fill="white"/>
<path d="M83.0059 101.53C82.3443 101.757 81.9738 102.494 82.1766 103.177C82.3793 103.859 83.0806 104.23 83.7423 104.003C84.404 103.776 84.7744 103.039 84.5717 102.356C84.3689 101.674 83.6676 101.303 83.0059 101.53Z" fill="#20363F"/>
<path d="M84.1604 104.828C84.014 104.876 83.857 104.83 83.7594 104.712C83.6999 104.641 83.5963 104.601 83.5063 104.617C83.392 104.636 83.209 104.765 83.1755 104.833C83.1023 105.003 82.927 105.106 82.7517 105.075C82.5763 105.044 82.4467 104.896 82.4376 104.712C82.4376 104.702 82.2531 103.842 81.6143 103.86C81.4542 103.865 81.3094 103.765 81.2515 103.61C81.1951 103.456 81.2362 103.278 81.3567 103.164C81.6479 102.891 81.7454 102.394 81.5793 102.034C81.5244 101.914 81.5305 101.773 81.596 101.657C81.6616 101.54 81.7775 101.463 81.9055 101.454C82.0686 101.44 82.2303 101.354 82.34 101.224C82.34 101.221 82.34 101.218 82.34 101.215C82.3492 101.1 82.3781 100.749 82.6983 100.663C82.9438 100.595 83.1343 100.753 83.2746 100.87C83.2944 100.885 83.3112 100.902 83.3279 100.913C83.4911 100.982 83.706 100.939 83.8341 100.808C83.953 100.689 84.1283 100.658 84.2747 100.732C84.4195 100.805 84.5034 100.968 84.482 101.137C84.4683 101.241 84.4912 101.334 84.5445 101.4C84.6284 101.503 84.7763 101.529 84.8861 101.534C85.0187 101.538 85.1391 101.614 85.2032 101.735C85.2672 101.854 85.2672 102.002 85.2016 102.124C84.8449 102.793 84.9912 102.894 85.194 103.035C85.3099 103.115 85.3724 103.256 85.3587 103.403C85.3449 103.549 85.255 103.678 85.1254 103.738C84.8251 103.876 84.4637 104.271 84.4348 104.492C84.4134 104.647 84.3082 104.779 84.1649 104.827C84.1649 104.827 84.1619 104.827 84.1604 104.827V104.828ZM84.3204 102.216C84.1497 102.135 84.0308 102.026 83.9515 101.928C83.8951 101.859 83.8478 101.784 83.8112 101.703C83.5414 101.778 83.2502 101.761 82.9956 101.644C82.8462 101.857 82.6434 102.025 82.4147 102.13C82.4696 102.489 82.4147 102.867 82.2653 103.198C82.6114 103.371 82.8492 103.679 83.0002 103.974C83.1343 103.897 83.2746 103.845 83.3996 103.824C83.5627 103.796 83.7274 103.81 83.8798 103.859C84.0094 103.65 84.1847 103.462 84.3631 103.311C84.2076 103.061 84.1497 102.718 84.3235 102.216H84.3204Z" fill="#FFD675"/>
<path d="M106.818 109.049C106.935 108.707 107.034 108.359 107.097 108.003C107.223 107.281 107.19 106.508 106.865 105.85C106.388 104.882 105.381 104.318 104.433 103.812C105.095 104.059 105.542 104.497 106.097 104.752C106.65 105.005 107.127 105.215 107.662 104.924C108.205 104.626 108.548 104.005 109.001 103.605C109.486 103.177 109.65 102.48 109.344 101.908C109.06 101.379 108.609 100.939 108.062 100.698C107.087 100.269 105.496 101.23 104.567 101.56C105.247 101.279 106.034 100.669 106.389 100.201C107.148 99.2029 106.368 97.0542 105.356 96.4652C104.459 95.9438 103.453 96.772 102.628 97.4238C101.662 98.1891 101.471 98.7029 101.767 100.45C101.636 99.8777 101.395 99.393 100.947 98.9682C100.093 98.1569 98.6276 98.0143 97.5376 98.232C97.3745 98.2642 97.2144 98.3271 97.0894 98.4375C96.3179 99.1108 96.8851 100.697 97.1412 101.482C97.3409 102.095 97.7053 102.677 98.2541 103.009C98.6139 103.227 99.2756 103.309 99.9083 103.272C99.4372 103.348 98.96 103.439 98.7298 103.577C98.3227 103.819 97.934 104.143 97.7266 104.58C97.504 105.046 97.5086 105.569 97.5056 106.075C97.5025 106.634 97.3897 107.186 97.411 107.742C97.4217 108.023 97.5345 108.298 97.7419 108.486C98.1596 108.868 100.299 108.299 100.991 108.048C101.532 107.851 101.826 107.347 101.973 106.787C102.072 106.41 102.049 105.664 102.023 105.221C102.066 105.812 102.157 106.988 102.25 107.609C102.383 108.5 102.794 109.462 103.64 109.756C104.243 109.966 104.91 109.873 105.548 109.908C106.115 109.94 106.635 109.589 106.819 109.049H106.818Z" fill="#80EAF0"/>
<path d="M101.667 101.862C101.283 101.348 101.074 100.704 101.091 100.06C101.098 99.7869 101.326 99.5707 101.597 99.5783C101.868 99.586 102.083 99.8145 102.076 100.088C102.06 100.621 102.286 101.155 102.678 101.515C102.879 101.699 102.893 102.014 102.708 102.216C102.525 102.419 102.213 102.433 102.012 102.248C101.885 102.132 101.768 102.002 101.666 101.864L101.667 101.862Z" fill="white"/>
<path d="M103.567 102.55C103.425 102.36 103.436 102.09 103.604 101.912C103.989 101.503 104.43 101.149 104.912 100.862C105.147 100.722 105.449 100.802 105.587 101.035C105.726 101.271 105.648 101.575 105.415 101.715C105.011 101.955 104.642 102.251 104.32 102.593C104.133 102.793 103.822 102.8 103.624 102.612C103.602 102.592 103.584 102.57 103.567 102.549V102.55Z" fill="white"/>
<path d="M104.092 103.954C104.016 103.851 103.944 103.745 103.877 103.635C103.735 103.402 103.808 103.097 104.042 102.954C104.273 102.811 104.578 102.883 104.718 103.12C105.066 103.692 105.598 104.143 106.219 104.388C106.472 104.488 106.597 104.776 106.496 105.031C106.397 105.285 106.11 105.411 105.857 105.31C105.158 105.032 104.542 104.558 104.092 103.954Z" fill="white"/>
<path d="M101.632 106.92C101.536 106.791 101.504 106.618 101.562 106.455C101.728 105.988 101.774 105.471 101.695 104.98C101.472 104.845 101.391 104.557 101.515 104.322C101.594 104.172 101.737 104.068 101.907 104.037C102.082 104.005 102.265 104.055 102.399 104.172C102.559 104.311 102.6 104.494 102.617 104.563C102.786 105.293 102.741 106.083 102.491 106.788C102.399 107.046 102.117 107.181 101.861 107.089C101.766 107.055 101.689 106.995 101.632 106.92Z" fill="white"/>
<path d="M98.5249 103.761C98.4944 103.72 98.47 103.674 98.4517 103.622C98.3648 103.362 98.5035 103.08 98.7612 102.993L99.1423 102.864C99.4732 102.752 99.8467 102.625 100.266 102.64C100.673 102.655 101.068 102.809 101.379 103.072C101.588 103.249 101.614 103.562 101.438 103.77C101.263 103.98 100.952 104.006 100.745 103.83C100.603 103.71 100.415 103.637 100.229 103.631C99.9915 103.622 99.7201 103.714 99.4579 103.802L99.0783 103.931C98.871 104.002 98.6499 103.927 98.5264 103.76L98.5249 103.761Z" fill="white"/>
<path d="M103.869 101.971C104.308 102.564 104.186 103.405 103.594 103.848C103.004 104.29 102.169 104.167 101.728 103.572C101.289 102.978 101.411 102.138 102.003 101.695C102.593 101.253 103.428 101.376 103.867 101.971H103.869Z" fill="#20363F"/>
<path d="M100.863 103.997C100.767 103.868 100.755 103.695 100.829 103.554C100.938 103.351 100.861 102.802 100.683 102.503C100.607 102.374 100.605 102.212 100.681 102.081C100.758 101.951 100.898 101.873 101.047 101.877C101.31 101.885 101.499 101.891 101.592 101.117C101.608 100.975 101.697 100.853 101.826 100.791C101.954 100.732 102.105 100.742 102.224 100.819C102.322 100.883 102.468 100.952 102.602 100.919C102.689 100.897 102.765 100.833 102.817 100.738C102.901 100.584 103.072 100.5 103.243 100.529C103.415 100.557 103.549 100.69 103.581 100.863C103.615 101.051 103.776 101.218 103.961 101.261C103.982 101.261 104.006 101.259 104.032 101.258C104.225 101.247 104.487 101.233 104.659 101.44C104.886 101.707 104.699 102.017 104.636 102.118C104.636 102.121 104.633 102.123 104.632 102.126C104.648 102.301 104.737 102.472 104.872 102.584C104.978 102.672 105.033 102.807 105.019 102.943C105.005 103.08 104.926 103.201 104.805 103.267C104.443 103.465 104.228 103.935 104.316 104.342C104.353 104.511 104.281 104.684 104.138 104.777C103.994 104.871 103.808 104.865 103.67 104.764C103.122 104.357 102.442 104.958 102.436 104.965C102.317 105.113 102.113 105.156 101.942 105.075C101.771 104.992 101.68 104.8 101.72 104.613C101.733 104.537 101.651 104.317 101.563 104.23C101.492 104.161 101.378 104.13 101.284 104.152C101.127 104.19 100.962 104.13 100.863 104.001C100.863 104.001 100.861 103.998 100.86 103.997H100.863ZM101.608 102.62C101.672 102.854 101.71 103.118 101.698 103.371C101.861 103.423 102.014 103.514 102.139 103.636C102.235 103.731 102.325 103.86 102.397 104.006C102.706 103.853 103.101 103.744 103.508 103.813C103.577 103.445 103.758 103.1 104.023 102.834C103.888 102.606 103.813 102.342 103.81 102.074C103.517 102.014 103.253 101.848 103.063 101.62C102.982 101.664 102.895 101.698 102.804 101.721C102.674 101.753 102.505 101.771 102.307 101.735C102.156 102.258 101.895 102.506 101.608 102.62Z" fill="#FFD675"/>
<path d="M44.8228 39.406C44.0971 40.9351 44.2145 42.8476 44.8472 44.3613C45.146 45.0776 45.6095 45.9134 46.4053 46.1404C47.2118 46.3689 47.9863 45.78 48.4254 45.145C48.9711 44.3567 48.9818 43.5086 48.9681 42.5868C48.9635 42.3077 48.9666 42.024 49.0352 41.7525C49.116 41.432 49.2456 41.3522 49.5596 41.2847C50.0079 41.1881 50.453 41.0762 50.8891 40.9305C51.6087 40.6912 52.4395 40.3277 52.7719 39.5854C53.0921 38.8676 52.8146 38.0609 52.249 37.5579C51.5797 36.9613 50.5933 36.8554 49.7365 36.8616C47.9893 36.8754 46.1202 37.4152 45.1201 38.8891C45.0103 39.0502 44.9127 39.2219 44.8258 39.406H44.8228Z" fill="#FFD675"/>
<path d="M44.6001 38.4658C45.652 37.0288 45.5392 35.0748 44.9721 33.4123C44.6946 32.5964 44.2677 31.6961 43.4871 31.2575C42.827 30.8879 41.9793 30.8909 41.4122 31.4323C40.8268 31.9921 40.7612 32.9031 40.7749 33.6638C40.7826 34.1255 40.8252 34.5841 40.8817 35.0426C40.9213 35.3632 40.8908 35.5135 40.6164 35.696C40.3846 35.8509 40.1194 35.9475 39.8556 36.0349C38.9851 36.3263 38.1938 36.6177 37.6359 37.3969C37.1861 38.0241 36.8903 38.9536 37.3721 39.6437C37.8478 40.3247 38.7869 40.4872 39.5568 40.5333C41.1866 40.6314 43.0191 40.11 44.2128 38.9152C44.3561 38.771 44.4842 38.6207 44.6001 38.4643V38.4658Z" fill="#FFD675"/>
<path d="M47.0136 35.9177C46.4907 35.1156 45.2192 35.8916 45.7467 36.6983C46.2696 37.5005 47.5411 36.7244 47.0136 35.9177Z" fill="#20363F"/>
<path d="M44.4308 40.9202C44.5039 40.8022 44.5756 40.6841 44.6503 40.5675C44.8073 40.3206 44.972 40.0583 45.0482 39.773C45.1016 39.5752 45.1824 39.3068 45.2586 39.1136C45.3516 38.8789 45.4964 38.8544 45.6626 38.6841C45.7724 38.5722 45.8684 38.451 45.9553 38.3191C46.1749 37.9909 46.5499 37.4878 46.4935 36.9664C46.4661 36.7195 46.4478 36.8314 46.245 36.7701C46.1489 36.5554 46.0575 36.3222 45.8074 36.4833C45.3775 36.7593 45.1763 37.2302 44.9826 37.5676C44.8851 37.7378 44.7951 37.9111 44.7052 38.0845C44.6457 38.1995 44.6274 38.316 44.5786 38.4341C44.5405 38.5262 44.4795 38.5768 44.3926 38.6151C44.3073 38.6519 44.2341 38.7117 44.164 38.7715C44.0298 38.8835 43.9124 39.0139 43.7996 39.1473C43.6273 39.3497 43.4688 39.566 43.33 39.7945C43.0251 40.2991 42.6927 41.2623 43.048 41.5061C43.6441 41.9125 44.3012 41.1334 44.4323 40.9202H44.4308Z" fill="#20363F"/>
<path d="M46.3704 36.3149C46.3506 36.2858 46.3491 36.2459 46.3658 36.2137C46.6845 35.634 46.8004 34.9285 46.6814 34.2767C46.6418 34.0543 46.5808 33.8932 46.4939 33.7675C46.4177 33.6586 46.3155 33.5773 46.2058 33.539C46.1555 33.5205 46.128 33.4653 46.1463 33.4132C46.1646 33.3626 46.2195 33.335 46.2713 33.3534C46.4192 33.4055 46.5549 33.5113 46.654 33.654C46.7897 33.8488 46.8446 34.0819 46.8735 34.2399C47.0016 34.9453 46.8812 35.68 46.5366 36.3073C46.5107 36.3548 46.4512 36.3717 46.404 36.3456C46.3902 36.3379 46.378 36.3272 46.3704 36.3134V36.3149Z" fill="#20363F"/>
<path d="M46.4691 36.0172C46.4462 35.9819 46.4477 35.9343 46.4751 35.9006C46.7404 35.5785 47.0408 35.212 47.4295 34.9773C47.8717 34.7089 48.3824 34.6629 48.762 34.8577C48.8108 34.8822 48.8291 34.9421 48.8047 34.9896C48.7803 35.0371 48.7208 35.0571 48.6736 35.0325C48.2909 34.8362 47.832 34.962 47.5302 35.1445C47.1688 35.3623 46.8929 35.6997 46.6246 36.0248C46.5895 36.0662 46.5285 36.0724 46.4873 36.0386C46.4797 36.0325 46.4736 36.0248 46.4675 36.0172H46.4691Z" fill="#20363F"/>
<path d="M110.549 48.496C111.547 49.545 113.106 50.0327 114.506 49.9821C115.166 49.9591 115.974 49.8395 116.396 49.2659C116.823 48.6846 116.588 47.881 116.218 47.335C115.756 46.6555 115.084 46.3887 114.344 46.1203C114.122 46.039 113.896 45.9516 113.699 45.8135C113.467 45.651 113.445 45.5221 113.486 45.2476C113.545 44.8565 113.591 44.4639 113.606 44.0682C113.634 43.4164 113.597 42.6342 113.108 42.1419C112.634 41.6649 111.906 41.6434 111.335 41.9471C110.656 42.306 110.272 43.0682 110.017 43.7615C109.497 45.174 109.359 46.8457 110.229 48.1003C110.324 48.2368 110.431 48.3687 110.551 48.4944L110.549 48.496Z" fill="#80EAF0"/>
<path d="M109.734 48.3908C108.908 47.1071 107.318 46.6041 105.82 46.555C105.087 46.5304 104.239 46.601 103.652 47.0979C103.157 47.5166 102.902 48.2022 103.162 48.8233C103.43 49.4659 104.136 49.7941 104.746 50.015C105.116 50.1484 105.494 50.2543 105.877 50.3478C106.145 50.4122 106.255 50.4843 106.317 50.7604C106.371 50.995 106.366 51.2373 106.357 51.4766C106.325 52.2665 106.316 52.9934 106.767 53.6805C107.13 54.2326 107.781 54.7556 108.478 54.5762C109.165 54.3998 109.58 53.6928 109.85 53.0854C110.423 51.8017 110.565 50.1653 109.975 48.8402C109.905 48.6807 109.822 48.5319 109.732 48.3908H109.734Z" fill="#80EAF0"/>
<path d="M108.439 45.6698C107.642 45.8477 107.874 47.1084 108.677 46.9289C109.475 46.751 109.243 45.4903 108.439 45.6698Z" fill="#20363F"/>
<path d="M111.639 49.273C111.567 49.1779 111.495 49.0843 111.425 48.9892C111.276 48.7883 111.117 48.5752 110.913 48.4264C110.771 48.3236 110.582 48.1764 110.452 48.0568C110.294 47.9111 110.318 47.7868 110.233 47.6013C110.177 47.4786 110.109 47.3651 110.032 47.2546C109.837 46.9786 109.55 46.5231 109.117 46.4096C108.913 46.3559 108.997 46.4065 108.885 46.5507C108.685 46.5629 108.471 46.566 108.524 46.816C108.612 47.247 108.926 47.5522 109.137 47.8114C109.242 47.9417 109.353 48.0675 109.465 48.1917C109.539 48.2745 109.626 48.3252 109.704 48.4003C109.766 48.4586 109.788 48.523 109.791 48.6058C109.794 48.6856 109.82 48.7638 109.846 48.8374C109.894 48.9785 109.963 49.1135 110.035 49.2454C110.143 49.4463 110.268 49.6395 110.407 49.8205C110.716 50.2208 111.382 50.7806 111.684 50.5674C112.19 50.2101 111.768 49.4432 111.639 49.2745V49.273Z" fill="#20363F"/>
<path d="M108.56 46.3119C108.531 46.318 108.499 46.3088 108.478 46.2842C108.114 45.8502 107.586 45.5435 107.031 45.4407C106.842 45.4054 106.694 45.4054 106.569 45.4376C106.459 45.4653 106.363 45.5235 106.299 45.6002C106.27 45.6355 106.217 45.6401 106.182 45.611C106.147 45.5818 106.142 45.5281 106.171 45.4929C106.258 45.3901 106.383 45.3119 106.527 45.2751C106.723 45.2245 106.926 45.2505 107.06 45.2751C107.661 45.3855 108.21 45.706 108.605 46.1754C108.635 46.2106 108.63 46.2643 108.595 46.2934C108.585 46.3027 108.573 46.3088 108.56 46.3119Z" fill="#20363F"/>
<path d="M108.351 46.1386C108.316 46.1463 108.28 46.1309 108.26 46.0987C108.083 45.7874 107.883 45.4331 107.813 45.0482C107.734 44.6095 107.853 44.1847 108.123 43.9378C108.156 43.9071 108.21 43.9086 108.242 43.9439C108.272 43.9776 108.271 44.0313 108.236 44.0635C107.963 44.312 107.923 44.7199 107.978 45.019C108.042 45.3764 108.226 45.7015 108.405 46.0159C108.428 46.0558 108.414 46.1079 108.373 46.1309C108.365 46.1355 108.358 46.1386 108.35 46.1401L108.351 46.1386Z" fill="#20363F"/>
<path d="M88.6043 143.145C88.0307 143.168 87.5728 143.366 87.5822 143.59C87.5915 143.813 88.0635 143.975 88.6355 143.953C89.2091 143.929 89.667 143.731 89.6577 143.508C89.6483 143.285 89.1779 143.123 88.6043 143.145Z" fill="#20363F"/>
<path d="M88.2328 142.707C87.7483 143.015 87.4513 143.417 87.5685 143.606C87.6873 143.795 88.1765 143.699 88.661 143.39C89.1455 143.082 89.4424 142.68 89.3252 142.491C89.2064 142.302 88.7172 142.398 88.2328 142.707Z" fill="#20363F"/>
<path d="M88.3017 144.386C87.7937 144.117 87.4655 143.74 87.5703 143.542C87.675 143.343 88.1688 143.402 88.6768 143.669C89.1847 143.938 89.5129 144.315 89.4082 144.513C89.305 144.711 88.8096 144.653 88.3017 144.386Z" fill="#20363F"/>
<path d="M66.9531 170.626C73.7766 140.015 95.2848 121.479 95.5004 121.295L95.7911 121.641C95.5755 121.823 74.1814 140.267 67.3923 170.724L66.9531 170.625V170.626Z" fill="#3B5E18"/>
<path d="M81.5134 138.349L81.1602 138.067C85.9332 132.01 92.7973 131.219 92.866 131.211L92.9129 131.661C92.8457 131.668 86.1645 132.444 81.5118 138.347L81.5134 138.349Z" fill="#3B5E18"/>
<path d="M90.4145 126.334C89.7753 122.643 90.6427 117.975 90.6521 117.928L91.0943 118.013C91.085 118.058 90.2332 122.648 90.8584 126.257L90.4145 126.334Z" fill="#3B5E18"/>
<path d="M82.6767 136.164C82.6642 136.123 81.4264 131.99 82.1641 127.377L82.608 127.449C81.8875 131.954 83.094 135.991 83.1065 136.03L82.6767 136.164Z" fill="#3B5E18"/>
<path d="M80.4807 133.246C80.1056 133.028 79.7181 132.75 79.3555 132.396L79.668 132.07C80.8605 133.235 82.4265 133.536 82.4421 133.539L82.3609 133.984C82.3109 133.974 81.4435 133.809 80.4792 133.245L80.4807 133.246Z" fill="#3B5E18"/>
<path d="M74.5938 149.389C76.0081 146.43 80.5608 143.652 83.1379 144.175L83.0489 144.619C80.6796 144.138 76.3176 146.829 75.0001 149.585L74.5938 149.389Z" fill="#3B5E18"/>
<path d="M69.6406 162.325C69.7016 162.061 72.0115 156.198 79.1194 155.176C75.4279 163.609 69.6406 162.325 69.6406 162.325Z" fill="#3B5E18"/>
<path d="M71.5014 157.413C71.3232 157.21 67.9053 151.923 71.1888 145.5C75.8915 153.407 71.5014 157.413 71.5014 157.413Z" fill="#3B5E18"/>
<path d="M68.1073 166.245C67.8681 166.119 62.8092 162.396 63.614 155.219C70.7985 160.932 68.1073 166.245 68.1073 166.245Z" fill="#3B5E18"/>
<path d="M85.8598 145.976C87.3993 145.594 88.3994 144.273 88.0936 143.025C87.7878 141.777 86.2919 141.075 84.7524 141.457C83.2129 141.839 82.2127 143.16 82.5185 144.408C82.8243 145.655 84.3203 146.357 85.8598 145.976Z" fill="#FF4C44"/>
<path d="M86.3542 143.015C85.8713 142.93 85.4884 142.605 85.4962 142.287C85.504 141.97 85.9041 141.781 86.3855 141.866C86.8684 141.951 87.2513 142.276 87.2435 142.594C87.2341 142.912 86.8356 143.1 86.3542 143.015Z" fill="#FF777D"/>
<path d="M83.8685 121.937C83.7669 122.505 83.5059 122.932 83.2871 122.893C83.0683 122.854 82.9745 122.36 83.0761 121.792C83.1777 121.225 83.4387 120.797 83.6575 120.836C83.8763 120.876 83.9701 121.369 83.8685 121.937Z" fill="#20363F"/>
<path d="M84.2443 122.367C83.8739 122.808 83.4363 123.048 83.2659 122.903C83.0971 122.759 83.2597 122.286 83.6301 121.844C84.0005 121.404 84.4381 121.163 84.6084 121.308C84.7772 121.452 84.6147 121.926 84.2443 122.367Z" fill="#20363F"/>
<path d="M82.6024 122.068C82.7962 122.611 83.1228 122.991 83.3322 122.916C83.5417 122.84 83.5542 122.339 83.3604 121.796C83.1666 121.254 82.8399 120.874 82.6305 120.949C82.4211 121.024 82.4086 121.526 82.6024 122.07V122.068Z" fill="#20363F"/>
<path d="M85.0297 125.75C85.4774 124.22 84.8469 122.686 83.6214 122.323C82.3959 121.96 81.0395 122.906 80.5918 124.436C80.1442 125.967 80.7747 127.501 82.0002 127.864C83.2257 128.227 84.582 127.281 85.0297 125.75Z" fill="#F04931"/>
<path d="M83.5659 124.071C83.6284 124.56 83.9348 124.959 84.2505 124.966C84.5662 124.972 84.7709 124.579 84.7084 124.09C84.6459 123.601 84.3395 123.202 84.0238 123.195C83.7081 123.191 83.5034 123.582 83.5659 124.071Z" fill="#FF777D"/>
<path d="M98.498 129.722C97.9275 129.783 97.4853 130.015 97.5087 130.236C97.5321 130.458 98.0135 130.588 98.584 130.527C99.1544 130.466 99.5967 130.235 99.5732 130.013C99.5498 129.791 99.0684 129.661 98.498 129.722Z" fill="#20363F"/>
<path d="M98.0997 129.312C97.6371 129.653 97.3667 130.075 97.498 130.255C97.6293 130.436 98.1106 130.306 98.5733 129.966C99.0359 129.625 99.3062 129.204 99.175 129.023C99.0437 128.842 98.5623 128.973 98.0997 129.312Z" fill="#20363F"/>
<path d="M98.278 130.982C97.7529 130.75 97.4013 130.394 97.4904 130.19C97.5794 129.986 98.078 130.009 98.6031 130.242C99.1282 130.475 99.4799 130.83 99.3908 131.034C99.3017 131.239 98.8032 131.215 98.278 130.982Z" fill="#20363F"/>
<path d="M95.937 132.752C97.4472 132.266 98.3559 130.879 97.9667 129.655C97.5774 128.431 96.0376 127.833 94.5274 128.319C93.0172 128.805 92.1085 130.191 92.4978 131.415C92.887 132.639 94.4268 133.238 95.937 132.752Z" fill="#FF4C44"/>
<path d="M96.245 129.749C95.7574 129.697 95.3526 129.399 95.3401 129.083C95.3276 128.765 95.7121 128.55 96.1997 128.601C96.6873 128.653 97.0921 128.952 97.1046 129.268C97.1171 129.586 96.7327 129.801 96.245 129.749Z" fill="#FF777D"/>
<path d="M100.021 118.119C99.6053 118.516 99.1443 118.707 98.9911 118.545C98.838 118.383 99.0505 117.928 99.4662 117.531C99.882 117.133 100.343 116.943 100.496 117.105C100.649 117.267 100.437 117.721 100.021 118.119Z" fill="#20363F"/>
<path d="M100.077 118.692C99.5186 118.827 99.0247 118.761 98.9731 118.544C98.9216 118.327 99.331 118.041 99.889 117.906C100.447 117.771 100.941 117.837 100.992 118.054C101.044 118.271 100.634 118.557 100.077 118.692Z" fill="#20363F"/>
<path d="M98.9237 117.475C98.7612 118.028 98.8018 118.528 99.0159 118.591C99.2285 118.654 99.5332 118.256 99.6958 117.703C99.8583 117.149 99.8177 116.65 99.6036 116.587C99.391 116.524 99.0863 116.921 98.9237 117.475Z" fill="#20363F"/>
<path d="M98.5752 121.874C99.8347 120.905 100.227 119.291 99.4505 118.271C98.6744 117.25 97.0243 117.208 95.7648 118.177C94.5054 119.146 94.1135 120.759 94.8896 121.78C95.6657 122.801 97.3158 122.843 98.5752 121.874Z" fill="#FF4C44"/>
<path d="M98.38 119.639C98.1441 120.069 98.1566 120.576 98.4082 120.767C98.6598 120.959 99.0552 120.764 99.2912 120.334C99.5272 119.903 99.5147 119.397 99.2631 119.205C99.0114 119.013 98.616 119.208 98.38 119.639Z" fill="#FF777D"/>
<path d="M92.2435 112.641C92.1638 113.214 91.9216 113.651 91.7028 113.621C91.4824 113.589 91.3683 113.102 91.4465 112.53C91.5262 111.957 91.7684 111.52 91.9872 111.55C92.2076 111.582 92.3217 112.069 92.2435 112.641Z" fill="#20363F"/>
<path d="M92.6388 113.057C92.2856 113.512 91.859 113.77 91.6839 113.632C91.5089 113.495 91.6527 113.014 92.0043 112.558C92.3575 112.102 92.7842 111.844 92.9592 111.983C93.1343 112.119 92.9905 112.601 92.6388 113.057Z" fill="#20363F"/>
<path d="M90.9834 112.826C91.1991 113.361 91.5413 113.726 91.7461 113.642C91.9524 113.559 91.9445 113.056 91.7289 112.521C91.5132 111.987 91.1709 111.622 90.9662 111.705C90.7599 111.789 90.7677 112.292 90.9834 112.826Z" fill="#20363F"/>
<path d="M93.435 116.489C93.8202 114.942 93.1279 113.434 91.8887 113.122C90.6495 112.81 89.3327 113.811 88.9475 115.359C88.5623 116.906 89.2546 118.413 90.4937 118.725C91.7329 119.038 93.0498 118.036 93.435 116.489Z" fill="#FF4C44"/>
<path d="M91.8984 114.86C91.9812 115.346 92.3032 115.733 92.6189 115.725C92.9346 115.717 93.1237 115.317 93.0408 114.832C92.958 114.346 92.6361 113.959 92.3204 113.967C92.0047 113.975 91.8155 114.374 91.8984 114.86Z" fill="#FF777D"/>
<path d="M75.1093 128.416C75.5891 128.732 75.8798 129.139 75.7579 129.326C75.636 129.513 75.1484 129.409 74.6686 129.093C74.1888 128.777 73.8981 128.37 74.02 128.183C74.1419 127.996 74.6295 128.1 75.1093 128.416Z" fill="#20363F"/>
<path d="M75.6496 128.233C75.9091 128.748 75.9575 129.247 75.759 129.347C75.5606 129.448 75.1902 129.113 74.9307 128.597C74.6713 128.082 74.6228 127.583 74.8213 127.483C75.0198 127.382 75.3902 127.717 75.6496 128.233Z" fill="#20363F"/>
<path d="M74.7372 129.641C75.3092 129.672 75.7843 129.518 75.7968 129.295C75.8093 129.072 75.3545 128.866 74.7825 128.833C74.2105 128.8 73.7354 128.955 73.7229 129.178C73.7104 129.402 74.1652 129.608 74.7372 129.641Z" fill="#20363F"/>
<path d="M79.6907 132.658C80.59 131.746 80.4062 130.095 79.2801 128.972C78.1541 127.849 76.5121 127.679 75.6128 128.592C74.7134 129.504 74.8972 131.154 76.0233 132.277C77.1494 133.4 78.7913 133.571 79.6907 132.658Z" fill="#FF4C44"/>
<path d="M77.1066 129.47C77.5645 129.646 78.06 129.566 78.2147 129.289C78.3694 129.012 78.124 128.644 77.6661 128.468C77.2082 128.292 76.7128 128.372 76.5581 128.649C76.4033 128.926 76.6487 129.294 77.1066 129.47Z" fill="#FF777D"/>
<path d="M71.4331 156.752C71.3549 156.707 71.3081 156.616 71.3237 156.52C72.102 151.792 71.0658 146.374 71.0549 146.321C71.0314 146.198 71.1111 146.079 71.233 146.055C71.3549 146.031 71.4737 146.11 71.4972 146.234C71.5081 146.289 72.5599 151.787 71.7675 156.595C71.7472 156.718 71.6316 156.803 71.5081 156.782C71.48 156.777 71.455 156.768 71.4315 156.754L71.4331 156.752Z" fill="#13753C"/>
<path d="M70.2529 162.116C70.2295 162.102 70.2076 162.085 70.1904 162.061C70.1123 161.964 70.1279 161.822 70.2248 161.744C70.2686 161.709 74.6555 158.179 78.5377 155.409C78.6393 155.337 78.7799 155.36 78.8518 155.463C78.9237 155.565 78.9003 155.706 78.7987 155.779C74.929 158.539 70.5514 162.061 70.5077 162.096C70.4327 162.155 70.3326 162.16 70.2545 162.115L70.2529 162.116Z" fill="#13753C"/>
<path d="M67.7902 165.721C67.7355 165.689 67.6948 165.634 67.6823 165.567C67.0775 162.35 63.697 155.876 63.6626 155.811C63.6048 155.701 63.647 155.564 63.7564 155.505C63.8658 155.446 64.0018 155.489 64.0596 155.599C64.2003 155.868 67.5042 162.199 68.1231 165.482C68.1465 165.605 68.0668 165.722 67.9433 165.746C67.8886 165.757 67.8339 165.746 67.7886 165.719L67.7902 165.721Z" fill="#13753C"/>
</g>
<defs>
<clipPath id="clip0_10888_17082">
<rect width="105" height="139" fill="white" transform="translate(22 31)"/>
</clipPath>
</defs>
</svg>
