<svg width="150" height="200" viewBox="0 0 150 200" fill="none" xmlns="http://www.w3.org/2000/svg">
<rect width="150" height="200" fill="#9E9E9E"/>
<circle cx="35.9885" cy="137.817" r="1.59783" fill="#C8F1FF"/>
<circle cx="99.9025" cy="105.86" r="1.59783" fill="#C8F1FF"/>
<circle cx="75.4025" cy="68.5763" r="1.59783" fill="#C8F1FF"/>
<circle cx="111.621" cy="80.2931" r="1.59783" fill="#C8F1FF"/>
<path d="M33.8651 51.0009C34.1105 51.0109 34.2832 51.3265 34.4018 51.5254C34.554 51.7943 34.6911 52.0672 34.836 52.3442C35.1736 52.9432 35.4459 53.7262 36.0509 54.1117C36.3036 54.2698 36.6003 54.3479 36.8949 54.4047C37.5946 54.5354 38.3274 54.6013 39.0251 54.7203C40.1449 54.9006 39.7023 55.3797 39.1208 55.9228C38.7207 56.3016 38.3186 56.6613 37.9298 57.0405C37.6761 57.2925 37.4233 57.565 37.3077 57.9019C37.1091 58.4987 37.3023 59.1372 37.3941 59.7376C37.4599 60.115 37.5439 60.5255 37.5941 60.9224C37.6507 61.3675 37.637 61.8098 37.0291 61.5972C36.3744 61.3516 35.762 60.9855 35.1336 60.6917C34.737 60.501 34.3281 60.3111 33.9065 60.3016C33.5718 60.2902 33.2498 60.3961 32.9478 60.5273C32.5643 60.6958 32.193 60.8906 31.8169 61.0768C31.5695 61.2003 31.3246 61.3257 31.0684 61.4447C30.8406 61.5527 30.4341 61.7312 30.2453 61.59C29.9794 61.3906 30.1673 60.7457 30.2014 60.4551C30.2756 60.03 30.3546 59.6104 30.4244 59.1953C30.5468 58.55 30.5771 57.9188 30.1258 57.4024C29.6237 56.8143 29.028 56.347 28.4733 55.797C27.8326 55.1853 27.7668 54.8661 28.7489 54.7126C29.3349 54.6163 29.9394 54.5463 30.52 54.4569C30.8176 54.4101 31.1211 54.3597 31.4002 54.2489C32.0374 54.0136 32.3409 53.3878 32.6292 52.8406C32.8278 52.4619 33.0278 52.0672 33.2323 51.6853C33.3772 51.4478 33.5499 51.0223 33.8592 51H33.8646L33.8651 51.0009Z" fill="#FFD25D"/>
<path d="M115.889 138.349C116.134 138.359 116.307 138.674 116.425 138.873C116.577 139.142 116.715 139.415 116.859 139.692C117.197 140.291 117.469 141.074 118.074 141.459C118.327 141.617 118.624 141.696 118.918 141.752C119.618 141.883 120.351 141.949 121.049 142.068C122.168 142.248 121.726 142.727 121.144 143.27C120.744 143.649 120.342 144.009 119.953 144.388C119.7 144.64 119.447 144.913 119.331 145.25C119.133 145.846 119.326 146.485 119.418 147.085C119.483 147.463 119.567 147.873 119.618 148.27C119.674 148.715 119.66 149.157 119.053 148.945C118.398 148.699 117.785 148.333 117.157 148.039C116.76 147.849 116.352 147.659 115.93 147.649C115.595 147.638 115.273 147.744 114.971 147.875C114.588 148.043 114.216 148.238 113.84 148.424C113.593 148.548 113.348 148.673 113.092 148.792C112.864 148.9 112.458 149.079 112.269 148.938C112.003 148.738 112.191 148.093 112.225 147.803C112.299 147.378 112.378 146.958 112.448 146.543C112.57 145.898 112.601 145.266 112.149 144.75C111.647 144.162 111.051 143.695 110.497 143.145C109.856 142.533 109.79 142.214 110.772 142.06C111.358 141.964 111.963 141.894 112.543 141.805C112.841 141.758 113.145 141.707 113.424 141.597C114.061 141.361 114.364 140.735 114.653 140.188C114.851 139.81 115.051 139.415 115.256 139.033C115.401 138.795 115.573 138.37 115.883 138.348H115.888L115.889 138.349Z" fill="#FFD25D"/>
<path d="M79.6698 87.2197C79.9152 87.2296 80.0879 87.5453 80.2065 87.7442C80.3587 88.013 80.4958 88.286 80.6407 88.563C80.9783 89.162 81.2506 89.9449 81.8556 90.3305C82.1083 90.4885 82.4049 90.5666 82.6996 90.6234C83.3993 90.7542 84.1321 90.82 84.8298 90.939C85.9496 91.1193 85.507 91.5984 84.9254 92.1416C84.5254 92.5203 84.1233 92.88 83.7345 93.2592C83.4808 93.5113 83.228 93.7837 83.1124 94.1207C82.9138 94.7174 83.107 95.3559 83.1988 95.9563C83.2646 96.3337 83.3485 96.7442 83.3988 97.1412C83.4554 97.5862 83.4417 98.0285 82.8338 97.816C82.179 97.5703 81.5667 97.2043 80.9383 96.9105C80.5416 96.7197 80.1328 96.5299 79.7112 96.5204C79.3765 96.509 79.0545 96.6148 78.7525 96.7461C78.369 96.9145 77.9977 97.1094 77.6215 97.2956C77.3742 97.4191 77.1293 97.5444 76.8731 97.6634C76.6453 97.7715 76.2388 97.95 76.05 97.8087C75.7841 97.6094 75.9719 96.9645 76.0061 96.6738C76.0803 96.2488 76.1593 95.8292 76.2291 95.4141C76.3515 94.7688 76.3818 94.1375 75.9305 93.6212C75.4284 93.033 74.8327 92.5657 74.278 92.0158C73.6373 91.4041 73.5715 91.0848 74.5536 90.9313C75.1396 90.835 75.7441 90.7651 76.3247 90.6756C76.6223 90.6289 76.9258 90.5784 77.2049 90.4676C77.8421 90.2324 78.1456 89.6066 78.4339 89.0594C78.6325 88.6806 78.8325 88.286 79.037 87.904C79.1819 87.6665 79.3546 87.241 79.6639 87.2188H79.6693L79.6698 87.2197Z" fill="#FFD25D"/>
<path d="M97.7791 56.3271C98.0246 56.3371 98.1973 56.6527 98.3158 56.8516C98.4681 57.1205 98.6052 57.3934 98.7501 57.6704C99.0877 58.2694 99.3599 59.0523 99.9649 59.4379C100.218 59.5959 100.514 59.6741 100.809 59.7308C101.509 59.8616 102.241 59.9275 102.939 60.0464C104.059 60.2267 103.616 60.7059 103.035 61.249C102.635 61.6277 102.233 61.9874 101.844 62.3666C101.59 62.6187 101.337 62.8912 101.222 63.2281C101.023 63.8249 101.216 64.4634 101.308 65.0637C101.374 65.4411 101.458 65.8517 101.508 66.2486C101.565 66.6936 101.551 67.136 100.943 66.9234C100.288 66.6777 99.6761 66.3117 99.0477 66.0179C98.651 65.8271 98.2422 65.6373 97.8206 65.6278C97.4859 65.6164 97.1639 65.7222 96.8619 65.8535C96.4784 66.022 96.1071 66.2168 95.7309 66.403C95.4836 66.5265 95.2386 66.6518 94.9825 66.7708C94.7546 66.8789 94.3482 67.0574 94.1594 66.9162C93.8935 66.7168 94.0813 66.0719 94.1155 65.7813C94.1896 65.3562 94.2687 64.9366 94.3384 64.5215C94.4609 63.8762 94.4912 63.2449 94.0399 62.7286C93.5378 62.1405 92.9421 61.6732 92.3873 61.1232C91.7467 60.5115 91.6808 60.1922 92.663 60.0387C93.249 59.9425 93.8535 59.8725 94.4341 59.7831C94.7317 59.7363 95.0352 59.6859 95.3143 59.5751C95.9515 59.3398 96.2549 58.714 96.5433 58.1668C96.7419 57.788 96.9419 57.3934 97.1463 57.0115C97.2912 56.7739 97.464 56.3484 97.7733 56.3262H97.7786L97.7791 56.3271Z" fill="#FFD25D"/>
<path fill-rule="evenodd" clip-rule="evenodd" d="M54.632 81.3584C54.632 102.832 71.0855 120.239 91.382 120.239C103.53 120.239 114.301 114.003 120.992 104.392C117.71 126.432 99.9333 143.272 78.4965 143.272C54.7271 143.272 35.4581 122.567 35.4581 97.0268C35.4581 75.875 48.674 58.0398 66.7172 52.5352C59.2945 59.6491 54.632 69.9277 54.632 81.3584Z" fill="#FFD25D"/>
</svg>
