<svg width="150" height="200" viewBox="0 0 150 200" fill="none" xmlns="http://www.w3.org/2000/svg">
<rect width="150" height="200" fill="#3186F0"/>
<path d="M75.5897 96.5212H65.6697V80.6012C65.6697 79.6912 64.9297 78.9512 64.0197 78.9512H51.9297V69.0312H66.6097C71.5697 69.0312 75.5997 73.0512 75.5997 78.0212V96.5312L75.5897 96.5212Z" fill="#24BEF0"/>
<path d="M85.0511 111.901H45.6211L52.8211 100.021C54.1611 97.8109 56.5611 96.4609 59.1411 96.4609H76.7711C79.6511 96.4609 82.1411 98.4709 82.7511 101.281L85.0611 111.911L85.0511 111.901Z" fill="#80DEEA"/>
<path d="M56.1625 67.5508H52.8425C52.2736 67.5508 51.8125 68.0119 51.8125 68.5808V79.5008C51.8125 80.0696 52.2736 80.5308 52.8425 80.5308H56.1625C56.7314 80.5308 57.1925 80.0696 57.1925 79.5008V68.5808C57.1925 68.0119 56.7314 67.5508 56.1625 67.5508Z" fill="#FF8F00"/>
<path d="M119.149 130.801H109.839C108.884 130.801 108.109 131.573 108.109 132.526C108.109 133.478 108.884 134.251 109.839 134.251H119.149C120.105 134.251 120.879 133.478 120.879 132.526C120.879 131.573 120.105 130.801 119.149 130.801Z" fill="#24BEF0"/>
<path d="M120.3 132.79C121.67 132.79 122.78 130.409 122.78 127.47C122.78 124.532 121.67 122.15 120.3 122.15C118.931 122.15 117.82 124.532 117.82 127.47C117.82 130.409 118.931 132.79 120.3 132.79Z" fill="#FF8F00"/>
<path d="M120.3 142.902C121.67 142.902 122.78 140.52 122.78 137.582C122.78 134.644 121.67 132.262 120.3 132.262C118.931 132.262 117.82 134.644 117.82 137.582C117.82 140.52 118.931 142.902 120.3 142.902Z" fill="#FF8F00"/>
<path d="M120.209 135.351C121.772 135.351 123.039 134.084 123.039 132.521C123.039 130.958 121.772 129.691 120.209 129.691C118.646 129.691 117.379 130.958 117.379 132.521C117.379 134.084 118.646 135.351 120.209 135.351Z" fill="#24BEF0"/>
<path d="M96.1916 127.411C92.7716 124.891 92.0416 119.321 96.9316 112.681C101.822 106.041 110.472 100.851 113.892 103.371C117.312 105.891 114.202 115.161 109.312 121.801C104.422 128.441 99.6016 129.931 96.1816 127.411H96.1916Z" fill="#FF8F00"/>
<path d="M96.1916 137.231C92.7716 139.751 92.0416 145.321 96.9316 151.961C101.822 158.601 110.472 163.791 113.892 161.271C117.312 158.751 114.202 149.481 109.312 142.841C104.422 136.201 99.6016 134.711 96.1816 137.231H96.1916Z" fill="#FF8F00"/>
<path d="M97.1211 113.78C87.2211 109.13 74.3711 106.25 62.1811 106.25C50.8311 106.25 42.0511 108.75 35.8711 112.85C38.9811 117.9 40.9511 125.35 40.9511 133.67C40.9511 141.11 39.3711 147.85 36.8111 152.81C42.9311 156.55 51.3911 158.8 62.1711 158.8C75.1511 158.8 88.9011 155.54 99.0111 150.34C101.031 146.07 102.281 140.18 102.281 133.68C102.281 125.32 100.221 117.98 97.1111 113.79L97.1211 113.78Z" fill="#FFCA28"/>
<path d="M114.279 132.521C114.279 125.181 107.249 118.541 97.1094 113.781C100.219 117.961 102.279 125.301 102.279 133.671C102.279 140.181 101.029 146.071 99.0094 150.331C108.109 145.651 114.269 139.401 114.269 132.521H114.279Z" fill="#80DEEA"/>
<path d="M35.8691 112.85C34.8591 113.52 33.9191 114.23 33.0391 114.99C35.6891 119.3 37.3991 126.06 37.3991 133.67C37.3991 140.41 36.0591 146.48 33.9091 150.78C34.8091 151.5 35.7691 152.18 36.8091 152.81C39.3691 147.85 40.9491 141.11 40.9491 133.67C40.9491 125.35 38.9791 117.9 35.8691 112.85Z" fill="#80DEEA"/>
<path d="M24.9609 132.52C24.9609 139.61 27.9709 146.04 33.9209 150.77C36.0709 146.47 37.4109 140.4 37.4109 133.66C37.4109 126.05 35.7009 119.29 33.0509 114.98C27.6809 119.63 24.9609 125.78 24.9609 132.52Z" fill="#B2EBF2"/>
<path d="M52.5319 124.41C48.0519 124.41 44.4219 128.04 44.4219 132.52C44.4219 137 48.0519 140.63 52.5319 140.63C57.0119 140.63 60.6419 137 60.6419 132.52C60.6419 128.04 57.0119 124.41 52.5319 124.41ZM52.5319 138.52C49.2219 138.52 46.5319 135.84 46.5319 132.52C46.5319 129.2 49.2119 126.52 52.5319 126.52C55.8519 126.52 58.5319 129.2 58.5319 132.52C58.5319 135.84 55.8519 138.52 52.5319 138.52Z" fill="#F57C00"/>
<path d="M52.5312 126.52C49.2213 126.52 46.5312 129.2 46.5312 132.52C46.5312 135.84 49.2113 138.52 52.5312 138.52C55.8512 138.52 58.5312 135.84 58.5312 132.52C58.5312 129.2 55.8512 126.52 52.5312 126.52ZM52.5312 137.11C50.0013 137.11 47.9412 135.06 47.9412 132.52C47.9412 129.98 49.9913 127.93 52.5312 127.93C55.0712 127.93 57.1213 129.98 57.1213 132.52C57.1213 135.06 55.0712 137.11 52.5312 137.11Z" fill="#80DEEA"/>
<path d="M52.5314 137.11C55.0664 137.11 57.1214 135.055 57.1214 132.52C57.1214 129.985 55.0664 127.93 52.5314 127.93C49.9964 127.93 47.9414 129.985 47.9414 132.52C47.9414 135.055 49.9964 137.11 52.5314 137.11Z" fill="#B2EBF2"/>
<path d="M52.4422 126.08C52.6907 126.08 52.8922 125.878 52.8922 125.63C52.8922 125.381 52.6907 125.18 52.4422 125.18C52.1937 125.18 51.9922 125.381 51.9922 125.63C51.9922 125.878 52.1937 126.08 52.4422 126.08Z" fill="#FFCA28"/>
<path d="M47.6023 128.16C47.8509 128.16 48.0523 127.958 48.0523 127.71C48.0523 127.461 47.8509 127.26 47.6023 127.26C47.3538 127.26 47.1523 127.461 47.1523 127.71C47.1523 127.958 47.3538 128.16 47.6023 128.16Z" fill="#FFCA28"/>
<path d="M45.6414 133.048C45.8899 133.048 46.0914 132.847 46.0914 132.598C46.0914 132.35 45.8899 132.148 45.6414 132.148C45.3929 132.148 45.1914 132.35 45.1914 132.598C45.1914 132.847 45.3929 133.048 45.6414 133.048Z" fill="#FFCA28"/>
<path d="M47.7117 137.9C47.9602 137.9 48.1617 137.699 48.1617 137.45C48.1617 137.201 47.9602 137 47.7117 137C47.4632 137 47.2617 137.201 47.2617 137.45C47.2617 137.699 47.4632 137.9 47.7117 137.9Z" fill="#FFCA28"/>
<path d="M52.6102 139.861C52.8587 139.861 53.0602 139.659 53.0602 139.411C53.0602 139.162 52.8587 138.961 52.6102 138.961C52.3616 138.961 52.1602 139.162 52.1602 139.411C52.1602 139.659 52.3616 139.861 52.6102 139.861Z" fill="#FFCA28"/>
<path d="M57.4617 137.779C57.7102 137.779 57.9117 137.577 57.9117 137.329C57.9117 137.08 57.7102 136.879 57.4617 136.879C57.2132 136.879 57.0117 137.08 57.0117 137.329C57.0117 137.577 57.2132 137.779 57.4617 137.779Z" fill="#FFCA28"/>
<path d="M59.4109 132.888C59.6595 132.888 59.8609 132.687 59.8609 132.438C59.8609 132.19 59.6595 131.988 59.4109 131.988C59.1624 131.988 58.9609 132.19 58.9609 132.438C58.9609 132.687 59.1624 132.888 59.4109 132.888Z" fill="#FFCA28"/>
<path d="M57.3406 128.041C57.5892 128.041 57.7906 127.839 57.7906 127.591C57.7906 127.342 57.5892 127.141 57.3406 127.141C57.0921 127.141 56.8906 127.342 56.8906 127.591C56.8906 127.839 57.0921 128.041 57.3406 128.041Z" fill="#FFCA28"/>
<path d="M71.7506 124.41C67.2706 124.41 63.6406 128.04 63.6406 132.52C63.6406 137 67.2706 140.63 71.7506 140.63C76.2306 140.63 79.8606 137 79.8606 132.52C79.8606 128.04 76.2306 124.41 71.7506 124.41ZM71.7506 138.52C68.4406 138.52 65.7506 135.84 65.7506 132.52C65.7506 129.2 68.4306 126.52 71.7506 126.52C75.0706 126.52 77.7506 129.2 77.7506 132.52C77.7506 135.84 75.0706 138.52 71.7506 138.52Z" fill="#F57C00"/>
<path d="M71.75 126.52C68.44 126.52 65.75 129.2 65.75 132.52C65.75 135.84 68.43 138.52 71.75 138.52C75.07 138.52 77.75 135.84 77.75 132.52C77.75 129.2 75.07 126.52 71.75 126.52ZM71.75 137.11C69.22 137.11 67.16 135.06 67.16 132.52C67.16 129.98 69.21 127.93 71.75 127.93C74.29 127.93 76.34 129.98 76.34 132.52C76.34 135.06 74.29 137.11 71.75 137.11Z" fill="#80DEEA"/>
<path d="M71.7502 137.11C74.2851 137.11 76.3401 135.055 76.3401 132.52C76.3401 129.985 74.2851 127.93 71.7502 127.93C69.2152 127.93 67.1602 129.985 67.1602 132.52C67.1602 135.055 69.2152 137.11 71.7502 137.11Z" fill="#B2EBF2"/>
<path d="M71.6687 126.08C71.9173 126.08 72.1188 125.878 72.1188 125.63C72.1188 125.381 71.9173 125.18 71.6687 125.18C71.4202 125.18 71.2188 125.381 71.2188 125.63C71.2188 125.878 71.4202 126.08 71.6687 126.08Z" fill="#FFCA28"/>
<path d="M66.8211 128.16C67.0696 128.16 67.2711 127.958 67.2711 127.71C67.2711 127.461 67.0696 127.26 66.8211 127.26C66.5726 127.26 66.3711 127.461 66.3711 127.71C66.3711 127.958 66.5726 128.16 66.8211 128.16Z" fill="#FFCA28"/>
<path d="M64.8602 133.048C65.1087 133.048 65.3102 132.847 65.3102 132.598C65.3102 132.35 65.1087 132.148 64.8602 132.148C64.6116 132.148 64.4102 132.35 64.4102 132.598C64.4102 132.847 64.6116 133.048 64.8602 133.048Z" fill="#FFCA28"/>
<path d="M66.9383 137.9C67.1868 137.9 67.3883 137.699 67.3883 137.45C67.3883 137.201 67.1868 137 66.9383 137C66.6898 137 66.4883 137.201 66.4883 137.45C66.4883 137.699 66.6898 137.9 66.9383 137.9Z" fill="#FFCA28"/>
<path d="M71.8289 139.861C72.0774 139.861 72.2789 139.659 72.2789 139.411C72.2789 139.162 72.0774 138.961 71.8289 138.961C71.5804 138.961 71.3789 139.162 71.3789 139.411C71.3789 139.659 71.5804 139.861 71.8289 139.861Z" fill="#FFCA28"/>
<path d="M76.6805 137.779C76.929 137.779 77.1305 137.577 77.1305 137.329C77.1305 137.08 76.929 136.879 76.6805 136.879C76.4319 136.879 76.2305 137.08 76.2305 137.329C76.2305 137.577 76.4319 137.779 76.6805 137.779Z" fill="#FFCA28"/>
<path d="M78.6414 132.888C78.8899 132.888 79.0914 132.687 79.0914 132.438C79.0914 132.19 78.8899 131.988 78.6414 131.988C78.3929 131.988 78.1914 132.19 78.1914 132.438C78.1914 132.687 78.3929 132.888 78.6414 132.888Z" fill="#FFCA28"/>
<path d="M76.5711 128.041C76.8196 128.041 77.0211 127.839 77.0211 127.591C77.0211 127.342 76.8196 127.141 76.5711 127.141C76.3226 127.141 76.1211 127.342 76.1211 127.591C76.1211 127.839 76.3226 128.041 76.5711 128.041Z" fill="#FFCA28"/>
<path d="M90.9811 124.41C86.5011 124.41 82.8711 128.04 82.8711 132.52C82.8711 137 86.5011 140.63 90.9811 140.63C95.4611 140.63 99.0911 137 99.0911 132.52C99.0911 128.04 95.4611 124.41 90.9811 124.41ZM90.9811 138.52C87.6711 138.52 84.9811 135.84 84.9811 132.52C84.9811 129.2 87.6611 126.52 90.9811 126.52C94.3011 126.52 96.9811 129.2 96.9811 132.52C96.9811 135.84 94.3011 138.52 90.9811 138.52Z" fill="#F57C00"/>
<path d="M90.9805 126.52C87.6705 126.52 84.9805 129.2 84.9805 132.52C84.9805 135.84 87.6605 138.52 90.9805 138.52C94.3005 138.52 96.9805 135.84 96.9805 132.52C96.9805 129.2 94.3005 126.52 90.9805 126.52ZM90.9805 137.11C88.4505 137.11 86.3905 135.06 86.3905 132.52C86.3905 129.98 88.4405 127.93 90.9805 127.93C93.5205 127.93 95.5705 129.98 95.5705 132.52C95.5705 135.06 93.5205 137.11 90.9805 137.11Z" fill="#80DEEA"/>
<path d="M90.9806 137.11C93.5156 137.11 95.5706 135.055 95.5706 132.52C95.5706 129.985 93.5156 127.93 90.9806 127.93C88.4456 127.93 86.3906 129.985 86.3906 132.52C86.3906 135.055 88.4456 137.11 90.9806 137.11Z" fill="#B2EBF2"/>
<path d="M90.8992 126.08C91.1478 126.08 91.3492 125.878 91.3492 125.63C91.3492 125.381 91.1478 125.18 90.8992 125.18C90.6507 125.18 90.4492 125.381 90.4492 125.63C90.4492 125.878 90.6507 126.08 90.8992 126.08Z" fill="#FFCA28"/>
<path d="M86.0516 128.16C86.3001 128.16 86.5016 127.958 86.5016 127.71C86.5016 127.461 86.3001 127.26 86.0516 127.26C85.803 127.26 85.6016 127.461 85.6016 127.71C85.6016 127.958 85.803 128.16 86.0516 128.16Z" fill="#FFCA28"/>
<path d="M84.0906 133.048C84.3392 133.048 84.5406 132.847 84.5406 132.598C84.5406 132.35 84.3392 132.148 84.0906 132.148C83.8421 132.148 83.6406 132.35 83.6406 132.598C83.6406 132.847 83.8421 133.048 84.0906 133.048Z" fill="#FFCA28"/>
<path d="M86.1687 137.9C86.4173 137.9 86.6188 137.699 86.6188 137.45C86.6188 137.201 86.4173 137 86.1687 137C85.9202 137 85.7188 137.201 85.7188 137.45C85.7188 137.699 85.9202 137.9 86.1687 137.9Z" fill="#FFCA28"/>
<path d="M91.0594 139.861C91.3079 139.861 91.5094 139.659 91.5094 139.411C91.5094 139.162 91.3079 138.961 91.0594 138.961C90.8108 138.961 90.6094 139.162 90.6094 139.411C90.6094 139.659 90.8108 139.861 91.0594 139.861Z" fill="#FFCA28"/>
<path d="M95.9109 137.779C96.1595 137.779 96.3609 137.577 96.3609 137.329C96.3609 137.08 96.1595 136.879 95.9109 136.879C95.6624 136.879 95.4609 137.08 95.4609 137.329C95.4609 137.577 95.6624 137.779 95.9109 137.779Z" fill="#FFCA28"/>
<path d="M97.8719 132.888C98.1204 132.888 98.3219 132.687 98.3219 132.438C98.3219 132.19 98.1204 131.988 97.8719 131.988C97.6234 131.988 97.4219 132.19 97.4219 132.438C97.4219 132.687 97.6234 132.888 97.8719 132.888Z" fill="#FFCA28"/>
<path d="M95.7898 128.041C96.0384 128.041 96.2398 127.839 96.2398 127.591C96.2398 127.342 96.0384 127.141 95.7898 127.141C95.5413 127.141 95.3398 127.342 95.3398 127.591C95.3398 127.839 95.5413 128.041 95.7898 128.041Z" fill="#FFCA28"/>
<path d="M103.799 52.5314C109.416 52.5314 113.969 47.9781 113.969 42.3614C113.969 36.7447 109.416 32.1914 103.799 32.1914C98.1822 32.1914 93.6289 36.7447 93.6289 42.3614C93.6289 47.9781 98.1822 52.5314 103.799 52.5314Z" fill="#80DEEA"/>
<path d="M111.038 43.5722C111.038 43.5722 111.008 43.5722 110.998 43.5722C110.448 43.5522 110.018 43.0822 110.038 42.5322C110.128 40.2122 108.298 37.2322 105.178 36.4822C104.638 36.3522 104.308 35.8122 104.438 35.2722C104.568 34.7322 105.108 34.4022 105.648 34.5322C109.818 35.5322 112.168 39.4222 112.048 42.6022C112.028 43.1422 111.588 43.5622 111.048 43.5622L111.038 43.5722Z" fill="#B2EBF2"/>
<path d="M120.278 65.6116C123.664 65.6116 126.408 62.8671 126.408 59.4816C126.408 56.0961 123.664 53.3516 120.278 53.3516C116.893 53.3516 114.148 56.0961 114.148 59.4816C114.148 62.8671 116.893 65.6116 120.278 65.6116Z" fill="#80DEEA"/>
<path d="M124.509 48.1711C127.216 48.1711 129.409 45.9773 129.409 43.2711C129.409 40.5649 127.216 38.3711 124.509 38.3711C121.803 38.3711 119.609 40.5649 119.609 43.2711C119.609 45.9773 121.803 48.1711 124.509 48.1711Z" fill="#80DEEA"/>
<path d="M124.691 60.4325C124.691 60.4325 124.611 60.4325 124.571 60.4225C124.301 60.3625 124.141 60.0925 124.201 59.8225C124.391 59.0325 124.071 57.1525 122.801 56.3925C122.561 56.2525 122.481 55.9425 122.631 55.7025C122.771 55.4625 123.081 55.3925 123.321 55.5325C124.971 56.5125 125.471 58.8325 125.181 60.0525C125.131 60.2825 124.921 60.4325 124.691 60.4325Z" fill="#B2EBF2"/>
</svg>
