<svg width="150" height="200" viewBox="0 0 150 200" fill="none" xmlns="http://www.w3.org/2000/svg">
<rect width="150" height="200" fill="#C8E6C9"/>
<path d="M72.7014 120.16C89.5514 129.04 106.471 125.7 107.281 106.92C117.671 98.6705 112.951 85.0405 101.881 80.9905C108.301 75.1005 110.381 65.4405 109.051 52.8205C105.701 49.0605 100.161 46.9505 92.0714 47.8805C93.3514 32.4305 74.6414 25.6505 63.8514 37.5905C55.4114 32.5005 39.8814 42.7605 43.5314 53.3005C27.0514 55.1905 21.8614 81.8105 34.6014 90.3705C30.8414 94.1205 28.0114 101.91 28.8214 108.87C41.1814 121.99 55.8314 125.72 72.7014 120.15V120.16Z" fill="#4CAF50"/>
<path d="M118.823 87.0003C116.903 84.3203 114.062 81.0503 108.452 79.8603C114.062 70.6603 114.812 59.2903 109.043 52.8203C110.382 65.4403 108.303 75.1003 101.873 80.9903C112.953 85.0403 117.662 98.6803 107.272 106.92C105.952 126.81 87.6225 128.12 72.6925 120.16C55.8225 125.73 41.1725 122 28.8125 108.88C29.0525 110.93 29.5925 112.9 30.5325 114.68C34.9525 123.01 41.6925 127.68 51.8225 128.73C62.9625 129.88 67.3025 126.34 74.2925 124.2C77.8225 128.39 88.1125 137.43 101.592 130.96C114.832 124.61 111.982 110 112.132 109.99C119.452 109.37 124.963 95.1703 118.812 86.9903L118.823 87.0003Z" fill="#43A047"/>
<path d="M89.2307 87.98L87.3807 86.27C86.7807 85.72 85.8507 85.74 85.2807 86.31L76.9107 94.68L75.9207 74.04C75.8907 73.42 75.4007 72.93 74.7807 72.9L72.2607 72.8C71.5907 72.77 71.0207 73.3 71.0107 73.98C70.8007 83.38 70.7007 93.07 69.3907 99.58L59.3207 87.98C58.8107 87.39 57.9107 87.31 57.3107 87.81L55.7107 89.13C54.9307 89.88 54.8407 91.08 55.4707 91.96C58.9607 96.77 62.2307 102.11 65.2807 107.91C66.2307 109.71 66.7307 111.72 66.7307 113.76C66.7307 128.48 64.5107 145.28 61.3207 163C60.8007 165.86 63.0107 168.49 65.9107 168.49H76.6107C79.4307 168.49 81.5907 166.02 81.2407 163.22C78.9007 144.6 77.4807 126.65 77.6207 109.86C77.6407 108.07 78.0107 106.29 78.7707 104.66C80.9407 100.05 84.3907 95.22 89.2807 90.14C89.8707 89.52 89.8607 88.54 89.2307 87.96V87.98Z" fill="#795018"/>
<path d="M33.9414 67.04C33.9414 67.04 35.4614 59.24 47.7214 57.21C47.7214 48.9 53.2914 40.19 64.8414 42.22C72.7414 36.65 78.1114 36.55 80.4414 39.18C87.6714 46.46 34.4014 83.02 33.9414 67.04Z" fill="#66BB6A"/>
</svg>
