<svg width="150" height="200" viewBox="0 0 150 200" fill="none" xmlns="http://www.w3.org/2000/svg">
<rect width="150" height="200" fill="#C8E6C9"/>
<path d="M97.5123 102.77C84.0223 102.77 70.6523 128.36 70.6523 155.77H119.312C118.912 140.34 113.952 118.47 103.422 104.37C101.482 103.34 99.5023 102.77 97.5223 102.77H97.5123Z" fill="#388E3C"/>
<path d="M103.414 104.369C113.954 118.469 118.904 140.339 119.304 155.769H124.374C124.374 132.389 114.644 110.349 103.414 104.369Z" fill="#2E7D32"/>
<path d="M54.3409 123.26C65.6109 116.68 72.4509 109.74 81.3309 113.4C84.2909 114.62 87.7909 116.73 91.1309 119.01C84.3309 100.13 72.9109 86.7305 61.4309 86.7305C49.9509 86.7305 37.9509 100.82 31.2109 120.46C37.2109 125.16 45.4009 128.48 54.3409 123.26Z" fill="#66BB6A"/>
<path d="M81.3297 113.399C72.4497 109.749 65.6197 116.689 54.3397 123.259C45.3997 128.469 37.2197 125.149 31.2097 120.459C27.6097 130.959 25.4297 143.039 25.4297 155.409H97.4097C97.4097 142.459 95.0197 129.839 91.1197 119.009C87.7797 116.729 84.2797 114.619 81.3197 113.399H81.3297Z" fill="#4CAF50"/>
<path d="M30.7027 161.61C35.386 161.61 39.1827 157.554 39.1827 152.55C39.1827 147.547 35.386 143.49 30.7027 143.49C26.0193 143.49 22.2227 147.547 22.2227 152.55C22.2227 157.554 26.0193 161.61 30.7027 161.61Z" fill="#66BB6A"/>
<path d="M42.7023 156.5C47.9767 156.5 52.2523 151.929 52.2523 146.29C52.2523 140.651 47.9767 136.08 42.7023 136.08C37.428 136.08 33.1523 140.651 33.1523 146.29C33.1523 151.929 37.428 156.5 42.7023 156.5Z" fill="#66BB6A"/>
<path d="M53.9231 159.619C57.2203 159.619 59.8931 156.763 59.8931 153.239C59.8931 149.716 57.2203 146.859 53.9231 146.859C50.626 146.859 47.9531 149.716 47.9531 153.239C47.9531 156.763 50.626 159.619 53.9231 159.619Z" fill="#66BB6A"/>
<g style="mix-blend-mode:multiply" opacity="0.3">
<path d="M91.1322 119C85.8822 104.44 77.8922 93.1502 69.2422 88.7402C84.4022 108.28 88.3322 133.3 88.8322 155.4H97.4222C97.4222 142.45 95.0322 129.83 91.1322 119Z" fill="#4CAF50"/>
</g>
<path d="M89.1622 160.95C93.2601 160.95 96.5822 157.399 96.5822 153.02C96.5822 148.64 93.2601 145.09 89.1622 145.09C85.0642 145.09 81.7422 148.64 81.7422 153.02C81.7422 157.399 85.0642 160.95 89.1622 160.95Z" fill="#66BB6A"/>
<path d="M99.6625 156.469C104.274 156.469 108.013 152.471 108.013 147.539C108.013 142.607 104.274 138.609 99.6625 138.609C95.0509 138.609 91.3125 142.607 91.3125 147.539C91.3125 152.471 95.0509 156.469 99.6625 156.469Z" fill="#66BB6A"/>
<path d="M109.474 159.199C112.357 159.199 114.694 156.701 114.694 153.619C114.694 150.537 112.357 148.039 109.474 148.039C106.591 148.039 104.254 150.537 104.254 153.619C104.254 156.701 106.591 159.199 109.474 159.199Z" fill="#66BB6A"/>
<path d="M101.782 161.261C105.344 161.261 108.232 158.172 108.232 154.361C108.232 150.55 105.344 147.461 101.782 147.461C98.2198 147.461 95.332 150.55 95.332 154.361C95.332 158.172 98.2198 161.261 101.782 161.261Z" fill="#4CAF50"/>
<path d="M111.393 155.942C115.441 155.942 118.723 152.432 118.723 148.102C118.723 143.772 115.441 140.262 111.393 140.262C107.344 140.262 104.062 143.772 104.062 148.102C104.062 152.432 107.344 155.942 111.393 155.942Z" fill="#4CAF50"/>
<path d="M120.372 161.431C124.901 161.431 128.572 157.504 128.572 152.661C128.572 147.817 124.901 143.891 120.372 143.891C115.843 143.891 112.172 147.817 112.172 152.661C112.172 157.504 115.843 161.431 120.372 161.431Z" fill="#4CAF50"/>
<path d="M130.441 155.41H20.2514C18.8376 155.41 17.6914 156.556 17.6914 157.97V162.71C17.6914 164.124 18.8376 165.27 20.2514 165.27H130.441C131.855 165.27 133.001 164.124 133.001 162.71V157.97C133.001 156.556 131.855 155.41 130.441 155.41Z" fill="#795018"/>
<path d="M112.892 50.4292C118.41 50.4292 122.882 45.9565 122.882 40.4392C122.882 34.9219 118.41 30.4492 112.892 30.4492C107.375 30.4492 102.902 34.9219 102.902 40.4392C102.902 45.9565 107.375 50.4292 112.892 50.4292Z" fill="#FFCA28"/>
<path d="M113.742 46.9978C112.782 46.9978 111.862 47.1678 111.002 47.4778C109.382 42.4178 104.652 38.7578 99.0517 38.7578C93.4517 38.7578 88.4017 42.6878 86.9517 48.0178C86.4117 47.8978 85.8417 47.8278 85.2617 47.8278C80.9817 47.8278 77.5117 51.2978 77.5117 55.5778C77.5117 59.8578 80.9817 63.3278 85.2617 63.3278C87.5017 63.3278 89.5117 62.3778 90.9217 60.8578C93.1117 62.7178 95.9417 63.8478 99.0417 63.8478C102.312 63.8478 105.282 62.5878 107.522 60.5278C109.022 62.2778 111.252 63.3878 113.732 63.3878C118.262 63.3878 121.932 59.7178 121.932 55.1878C121.932 50.6578 118.262 46.9878 113.732 46.9878L113.742 46.9978Z" fill="white"/>
<path d="M121.942 55.1978C121.942 50.6678 118.272 46.9978 113.742 46.9978C112.782 46.9978 111.862 47.1678 111.002 47.4778C109.382 42.4178 104.652 38.7578 99.052 38.7578C94.982 38.7578 91.372 40.7078 89.082 43.7078C90.862 42.7278 92.912 42.1778 95.092 42.1778C100.682 42.1778 105.422 45.8378 107.042 50.8978C107.902 50.5978 108.822 50.4178 109.782 50.4178C114.312 50.4178 117.982 54.0878 117.982 58.6178C117.982 60.1478 117.562 61.5678 116.832 62.7878C119.832 61.5678 121.942 58.6278 121.942 55.1978Z" fill="#F2F2F2"/>
</svg>
