<svg width="150" height="200" viewBox="0 0 150 200" fill="none" xmlns="http://www.w3.org/2000/svg">
<rect width="150" height="200" fill="#FFEFB9"/>
<path d="M94.4446 134.436C95.7383 134.381 97.0321 134.326 98.3368 134.271C99.2214 134.237 101.356 133.696 101.82 134.746C101.964 135.067 101.953 135.421 101.953 135.774L101.566 172.342C101.566 172.563 101.566 172.795 101.433 172.972C101.234 173.27 100.814 173.304 100.46 173.315C99.7633 173.337 99.0777 173.348 98.3811 173.37C97.9941 173.37 97.5628 173.37 97.2753 173.116C96.9878 172.861 96.9325 172.441 96.8994 172.054C95.7715 159.802 94.6436 147.54 93.5158 135.288C93.4937 135.034 93.4826 134.746 93.6706 134.58C93.8033 134.459 94.0023 134.447 94.1903 134.436H94.4446Z" fill="#FFCA28"/>
<path d="M97.2746 173.117C96.9871 172.863 96.9318 172.442 96.8986 172.055C96.7217 170.187 96.5558 168.318 96.3789 166.449C98.1039 166.98 99.862 167.024 101.62 166.604C101.598 168.517 101.576 170.419 101.554 172.332C101.554 172.553 101.554 172.785 101.421 172.962C101.222 173.261 100.802 173.294 100.448 173.305C99.7514 173.327 99.0659 173.338 98.3693 173.36C97.9822 173.36 97.551 173.36 97.2635 173.106L97.2746 173.117Z" fill="#33285D"/>
<path d="M84.2923 134.436C85.586 134.381 86.8797 134.326 88.1845 134.271C89.0691 134.237 91.2032 133.696 91.6676 134.746C91.8114 135.067 91.8003 135.421 91.8003 135.774C91.6676 147.96 91.546 160.156 91.4133 172.342C91.4133 172.563 91.4133 172.795 91.2806 172.972C91.0816 173.27 90.6614 173.304 90.3075 173.315C89.6109 173.337 88.9254 173.348 88.2287 173.37C87.8417 173.37 87.4105 173.37 87.123 173.116C86.8355 172.861 86.7802 172.441 86.747 172.054C85.6192 159.802 84.4913 147.54 83.3634 135.288C83.3413 135.034 83.3303 134.746 83.5182 134.58C83.6509 134.459 83.85 134.447 84.0379 134.436C84.1264 134.436 84.2149 134.436 84.2923 134.436Z" fill="#FFCA28"/>
<path d="M87.1144 173.117C86.8269 172.863 86.7716 172.442 86.7385 172.055C86.5615 170.187 86.3957 168.318 86.2188 166.449C87.9437 166.98 89.7019 167.024 91.46 166.604C91.4379 168.517 91.4158 170.419 91.3937 172.332C91.3937 172.553 91.3937 172.785 91.261 172.962C91.0619 173.261 90.6418 173.294 90.2879 173.305C89.5913 173.327 88.9057 173.338 88.2091 173.36C87.8221 173.36 87.3908 173.36 87.1033 173.106L87.1144 173.117Z" fill="#33285D"/>
<path d="M61.3171 134.448C61.494 134.448 61.693 134.47 61.8368 134.592C62.0247 134.758 62.0137 135.045 61.9916 135.3C60.8637 147.551 59.7358 159.814 58.608 172.066C58.5748 172.453 58.5195 172.873 58.232 173.127C57.9445 173.382 57.5133 173.393 57.1263 173.382C56.4296 173.36 55.7441 173.348 55.0474 173.326C54.6936 173.326 54.2734 173.282 54.0744 172.984C53.9528 172.807 53.9417 172.563 53.9417 172.353C53.809 160.168 53.6874 147.971 53.5547 135.786C53.5547 135.443 53.5547 135.078 53.6874 134.758C54.1518 133.707 56.2859 134.249 57.1705 134.282C58.4642 134.338 59.758 134.393 61.0627 134.448H61.3171Z" fill="#FFCA28"/>
<path d="M58.2323 173.117C58.5198 172.863 58.5751 172.442 58.6083 172.055C58.7852 170.187 58.9511 168.318 59.128 166.449C57.403 166.98 55.6449 167.024 53.8867 166.604C53.9088 168.517 53.931 170.419 53.9531 172.332C53.9531 172.553 53.9531 172.785 54.0858 172.962C54.2848 173.261 54.705 173.294 55.0588 173.305C55.7554 173.327 56.441 173.338 57.1376 173.36C57.5246 173.36 57.9559 173.36 58.2434 173.106L58.2323 173.117Z" fill="#33285D"/>
<path d="M71.4655 134.448C71.6424 134.448 71.8415 134.47 71.9852 134.592C72.1732 134.758 72.1621 135.045 72.14 135.3C71.0121 147.551 69.8843 159.814 68.7564 172.066C68.7232 172.453 68.6679 172.873 68.3804 173.127C68.093 173.382 67.6617 173.393 67.2747 173.382C66.5781 173.36 65.8925 173.348 65.1959 173.326C64.842 173.326 64.4219 173.282 64.2228 172.984C64.1012 172.807 64.0901 172.563 64.0901 172.353C63.9574 160.168 63.8358 147.971 63.7031 135.786C63.7031 135.443 63.7031 135.078 63.8358 134.758C64.3002 133.707 66.4343 134.249 67.3189 134.282C68.6127 134.338 69.9064 134.393 71.2112 134.448C71.2996 134.448 71.3881 134.448 71.4655 134.448Z" fill="#FFCA28"/>
<path d="M68.3925 173.117C68.68 172.863 68.7353 172.442 68.7684 172.055C68.9454 170.187 69.1112 168.318 69.2881 166.449C67.5632 166.98 65.805 167.024 64.0469 166.604C64.069 168.517 64.0911 170.419 64.1132 172.332C64.1132 172.553 64.1132 172.785 64.2459 172.962C64.4449 173.261 64.8651 173.294 65.219 173.305C65.9156 173.327 66.6012 173.338 67.2978 173.36C67.6848 173.36 68.116 173.36 68.4035 173.106L68.3925 173.117Z" fill="#33285D"/>
<path d="M50.3569 115.417C53.5526 109.513 59.8664 105.333 66.5783 104.88C70.9792 104.581 75.358 105.576 79.7699 105.621C88.7707 105.709 88.826 102.646 89.1688 101.352C89.6443 99.5168 89.9207 97.1062 89.9428 94.95C90.0866 83.1295 90.2193 71.3091 90.363 59.4886C90.3962 57.078 90.4404 54.568 91.524 52.4118C92.5966 50.2887 97.3071 46.9272 98.1364 50.8084C99.0653 55.154 99.4412 59.7097 100.038 64.1106C101.255 72.9787 102.349 81.869 103.333 90.7703C104.284 99.4062 105.136 108.053 105.877 116.7C106.297 121.621 106.651 126.751 104.826 131.34C103.035 135.852 99.2643 139.379 94.9519 141.613C90.6395 143.835 85.8073 144.864 80.9862 145.45C71.4215 146.6 60.6846 145.627 53.8622 138.826C48.4882 133.463 46.6195 124.872 49.2844 117.762C49.5829 116.954 49.9367 116.18 50.3459 115.429L50.3569 115.417Z" fill="#FFCA28"/>
<path d="M96.9315 81.3391C96.4007 79.9901 96.5666 78.3867 97.3074 77.1483C97.606 76.6507 97.993 76.2084 98.4685 75.8767C99.3199 75.2685 100.381 74.9257 101.443 74.8594C101.852 78.0771 102.239 81.2948 102.615 84.5236C100.404 84.9107 97.8935 83.827 96.9204 81.3501L96.9315 81.3391Z" fill="#AA7341"/>
<path d="M91.7248 97.0389C91.1167 97.1938 90.4864 97.2269 89.8672 97.1495C89.9225 96.4197 89.9335 95.6789 89.9446 94.9491C89.9778 92.3174 90.0109 89.6857 90.0331 87.0651C92.709 86.9324 95.4844 88.8453 95.5618 91.9857C95.6171 94.2635 93.9364 96.475 91.7248 97.0389Z" fill="#AA7341"/>
<path d="M98.2049 109.004C100.029 107.434 102.739 106.837 105.05 107.479C105.337 110.552 105.625 113.626 105.879 116.689C105.934 117.386 105.989 118.072 106.045 118.768C103.535 120.515 100.107 120.759 97.7073 118.182C95.8497 116.181 95.5179 112.952 96.878 110.586C97.2208 109.978 97.6742 109.447 98.2049 108.993V109.004Z" fill="#AA7341"/>
<path d="M52.24 113.494C52.1294 113.328 52.0299 113.151 51.9414 112.974C54.6394 109.392 58.5427 106.705 62.8662 105.521C63.983 106.727 64.6686 108.352 64.558 110.265C64.3922 113.063 62.2912 115.639 59.5711 116.358C56.862 117.066 53.7548 115.86 52.24 113.505V113.494Z" fill="#AA7341"/>
<path d="M92.1334 122.65C93.5598 122.54 95.0083 122.849 96.2799 123.701C97.9386 124.807 98.9006 126.841 98.8453 128.832C98.79 130.822 97.7727 132.746 96.2357 134.018C94.5107 135.455 92.1002 136.096 89.9219 135.544C87.7435 135.002 85.8748 133.221 85.3662 131.032C84.8907 128.986 85.5984 126.764 87.0137 125.205C88.3296 123.745 90.2094 122.805 92.1444 122.65H92.1334Z" fill="#AA7341"/>
<path d="M69.4539 129.196C73.3683 127.449 78.5985 130.236 78.9744 134.592C79.2066 137.279 77.5259 140.022 75.0269 141.05C72.5279 142.078 69.4207 141.338 67.6405 139.303C65.8602 137.279 65.5064 134.117 66.778 131.74C67.2535 130.844 67.9501 130.048 68.8236 129.528C69.0337 129.407 69.2438 129.296 69.4539 129.196Z" fill="#AA7341"/>
<path d="M75.9471 120.438C75.3721 120.847 74.9188 121.499 74.7418 122.395C74.4101 124.087 75.6375 125.922 77.3293 126.265C79.0211 126.597 80.8566 125.369 81.1994 123.678C81.8408 120.449 78.037 118.956 75.9582 120.438H75.9471Z" fill="#AA7341"/>
<path d="M60.5185 122.195C62.0665 122.041 63.7694 122.527 64.5103 123.965C64.8862 124.694 65.0078 125.535 64.9747 126.364C64.9194 127.824 64.3333 129.328 63.1281 130.157C62.0776 130.876 60.6622 130.975 59.4901 130.489C58.318 130.002 57.4113 128.952 57.0243 127.746C56.6815 126.707 56.7147 125.535 57.157 124.529C57.6104 123.522 58.4839 122.715 59.5454 122.406C59.855 122.317 60.1868 122.251 60.5185 122.218V122.195Z" fill="#AA7341"/>
<path d="M52.1289 136.802C52.1621 136.714 52.1842 136.614 52.2284 136.526C52.5712 135.641 53.1241 134.956 53.7986 134.458C56.3971 132.556 60.7317 133.496 61.1518 137.344C61.3398 139.058 60.4994 140.816 59.1062 141.822C58.885 141.988 58.6639 142.121 58.4317 142.243C56.7841 141.314 55.2471 140.186 53.876 138.815C53.2457 138.184 52.6707 137.51 52.1289 136.802Z" fill="#AA7341"/>
<path d="M38.2181 107.079C38.2513 108.307 38.5609 109.523 38.9479 110.684C40.7613 116.047 44.6204 120.824 49.7953 123.102C50.503 123.411 51.266 123.677 52.04 123.633C53.4111 123.555 54.7048 121.996 53.765 120.691C53.4111 120.205 52.8251 119.917 52.239 119.773C51.653 119.63 51.0448 119.597 50.4477 119.497C47.5838 119.033 45.129 117.075 43.4483 114.709C41.5575 112.033 40.5291 108.849 39.8767 105.642C39.7883 105.211 39.556 104.658 39.1137 104.724C38.9368 104.746 38.782 104.89 38.6714 105.034C38.3176 105.509 38.2181 106.129 38.207 106.726C38.207 106.847 38.207 106.969 38.207 107.079H38.2181Z" fill="#FFCA28"/>
<path d="M99.2438 66.3108C97.7621 66.8637 95.8049 65.592 94.7102 64.6522C93.6266 63.7233 92.8526 62.5733 92.2997 61.2686C91.9459 60.4392 90.7295 61.158 91.0834 61.9762C91.8353 63.7344 93.0184 65.2271 94.5886 66.3218C95.9597 67.2838 97.9501 68.2901 99.6308 67.6709C100.482 67.3612 100.106 65.9901 99.2549 66.3108H99.2438Z" fill="#F09A3B"/>
<path d="M42.3417 103.276C43.1046 106.361 41.3797 108.23 39.3119 108.54C37.2442 108.849 35.3533 107.533 34.8778 104.393C34.4024 101.253 37.7749 93.8551 38.1951 96.2657C38.936 100.523 41.6008 100.291 42.3306 103.276H42.3417Z" fill="#AA7341"/>
<path d="M102.051 41.31C102.095 41.3874 102.172 41.4427 102.239 41.4869C102.991 42.0398 103.82 42.5042 104.682 42.847C104.793 42.8912 104.915 42.9354 105.036 42.9023C105.147 42.8691 105.224 42.7917 105.302 42.7032C107.071 40.7571 108.73 38.6341 109.581 36.1461C110.222 34.2774 110.366 32.1654 109.747 30.2635C109.161 28.4501 107.812 26.7804 105.711 27.0237C104.461 27.1674 103.356 27.9636 102.637 28.9919C101.929 30.0313 101.586 31.2808 101.476 32.5303C101.365 33.7798 101.476 35.0404 101.575 36.2899C101.708 37.849 101.83 39.4081 101.962 40.9783C101.962 41.0778 101.984 41.1662 102.018 41.2547C102.018 41.2768 102.029 41.2879 102.04 41.31H102.051Z" fill="#FFCA28"/>
<path d="M104.884 39.509C105.061 39.5643 105.227 39.4316 105.348 39.2989C106.985 37.6513 108.002 35.4066 108.157 33.0846C108.212 32.2995 108.135 30.2538 106.874 30.4418C106.52 30.4971 106.211 30.7404 105.979 31.0168C105.072 32.1005 104.95 33.6153 104.862 35.0307L104.641 38.9119C104.641 39.0003 104.641 39.0999 104.652 39.1994C104.674 39.3431 104.74 39.4648 104.873 39.509H104.884Z" fill="#FFF8E1"/>
<path d="M88.1981 51.4607C88.1317 51.3943 88.0433 51.3611 87.9548 51.3169C86.5173 50.6866 85.0798 50.0674 83.6534 49.4371C82.5034 48.9395 81.3424 48.4309 80.1261 48.1323C78.9098 47.8338 77.616 47.7453 76.3997 48.0881C75.1944 48.4198 74.0776 49.227 73.5358 50.3549C72.6291 52.2568 73.7791 54.0813 75.2939 55.2202C76.8862 56.4255 78.9319 56.9673 80.9112 56.9673C83.5428 56.9673 86.0971 56.0938 88.5077 55.0433C88.6072 54.9991 88.7178 54.9548 88.7841 54.8553C88.8505 54.7558 88.8505 54.6231 88.8394 54.5015C88.7952 53.5616 88.6293 52.6328 88.3418 51.7482C88.3197 51.6597 88.2865 51.5823 88.2312 51.5159C88.2202 51.5049 88.2091 51.4828 88.187 51.4717L88.1981 51.4607Z" fill="#FFCA28"/>
<path d="M85.3874 53.2854C85.31 53.2411 85.2105 53.208 85.122 53.1858L81.3735 52.1464C80.0134 51.7705 78.5317 51.3945 77.2159 51.9032C76.8731 52.0359 76.5414 52.2349 76.3755 52.5556C75.7895 53.6834 77.7024 54.4243 78.4654 54.6233C80.71 55.2204 83.1648 54.9882 85.2547 53.9709C85.4205 53.8935 85.5975 53.7719 85.6085 53.595C85.6085 53.4623 85.5201 53.3628 85.3874 53.2854Z" fill="#FFF8E1"/>
<path d="M93.0969 63.9013C95.6401 65.7147 98.5814 66.8758 101.501 68.0147C101.832 68.1474 102.186 68.2801 102.529 68.2027C102.75 68.1584 102.949 68.0258 103.137 67.9041C106.664 65.5931 110.092 63.1383 113.41 60.5509C113.598 60.4071 113.785 60.2523 113.885 60.0312C113.973 59.8432 113.962 59.622 113.951 59.4119C113.863 56.9682 113.785 54.5135 113.343 52.1029C112.304 46.4194 108.71 41.1118 102.463 40.8574C99.2338 40.7248 96.0382 41.9521 93.4286 43.8651C91.4604 45.3026 89.7575 47.1602 88.696 49.3607C87.6345 51.5611 87.2143 54.1043 87.745 56.4817C87.8667 57.0346 88.0436 57.5764 88.2537 58.0961C89.2157 60.4403 91.0291 62.4196 93.119 63.9013H93.0969Z" fill="#FFCA28"/>
<path d="M105.788 61.9536C104.417 62.993 103.079 64.1209 102.128 65.5583C101.642 66.2992 101.255 67.1506 101.31 68.0352C101.387 69.2294 102.305 70.2578 103.411 70.7222C104.517 71.1866 105.766 71.1645 106.938 70.9544C110.145 70.3794 113.064 68.3891 114.756 65.6026C115.287 64.729 115.718 63.756 115.84 62.7387C116.061 60.9252 115.22 58.9681 113.219 58.7469C112.467 58.6584 111.704 58.8243 110.974 59.0455C109.271 59.5873 107.734 60.5272 106.286 61.5776C106.109 61.6993 105.943 61.832 105.766 61.9646L105.788 61.9536Z" fill="#FFF8E1"/>
<path d="M112.599 63.6012C112.699 63.8555 112.876 64.143 113.141 64.143C113.285 64.143 113.429 64.0546 113.517 63.9329C113.606 63.8113 113.65 63.6675 113.672 63.5127C113.76 63.0373 113.672 61.1243 112.787 61.3786C112.599 61.4339 112.456 61.6109 112.4 61.7988C112.334 61.9868 112.345 62.1858 112.356 62.3849C112.356 62.5176 112.378 62.6503 112.4 62.7719C112.444 63.0483 112.511 63.3358 112.61 63.6012H112.599Z" fill="#33285D"/>
<path d="M105.48 67.7159C105.358 67.6606 105.248 67.6053 105.126 67.55C104.938 67.4726 104.75 67.4062 104.551 67.4062C104.352 67.4062 104.142 67.4837 104.031 67.6385C103.501 68.3904 105.281 69.098 105.756 69.1644C105.9 69.1865 106.055 69.1976 106.199 69.1533C106.342 69.1091 106.475 69.0096 106.519 68.8658C106.608 68.6115 106.398 68.3461 106.188 68.1692C105.966 67.9923 105.723 67.8375 105.469 67.7048L105.48 67.7159Z" fill="#33285D"/>
<path d="M95.7262 47.9787C95.6045 48.5426 95.7041 49.1287 95.8589 49.6816C96.0137 50.2787 96.2348 50.8647 96.5997 51.3512C96.9757 51.8378 97.5286 52.2137 98.1367 52.258C98.7559 52.3022 99.342 52.0147 99.8285 51.6277C100.216 51.3291 100.558 50.9421 100.713 50.4777C101.266 48.8522 99.154 48.0119 97.993 47.5585C97.8492 47.5032 97.7055 47.4479 97.5617 47.3816C97.3848 47.3152 97.2079 47.2378 97.031 47.2047C96.7324 47.1494 96.4117 47.1826 96.1464 47.3374C96.0247 47.4037 95.9252 47.5032 95.8478 47.6138C95.8368 47.6359 95.8257 47.658 95.8146 47.6801C95.7704 47.7686 95.7372 47.8792 95.7151 47.9787H95.7262Z" fill="#AA7341"/>
<path d="M97.0104 44.6148C97.1099 45.1013 97.4306 45.5105 97.7955 45.8422C98.9012 46.8153 100.604 47.0364 101.92 46.3951C102.429 46.1518 102.882 45.7648 103.147 45.2672C103.7 44.2057 103.092 43.2326 102.019 42.9009C101.577 42.7682 101.124 42.7461 100.659 42.7461C99.8632 42.7461 99.0671 42.8235 98.282 42.9783C97.9945 43.0336 97.6849 43.111 97.4527 43.2879C97.2205 43.4648 97.0767 43.7192 97.0215 44.0067C96.9772 44.2057 96.9772 44.4158 97.0215 44.6259L97.0104 44.6148Z" fill="#AA7341"/>
<path d="M91.9561 50.7874C92.5974 50.898 93.2609 50.5662 93.67 50.0576C94.0792 49.549 94.2671 48.8966 94.3667 48.2552C94.5104 47.249 94.2782 45.8779 92.9513 46.088C92.0777 46.2317 91.3258 46.8509 90.9167 47.636C90.6182 48.211 90.4744 48.8855 90.6403 49.5047C90.6734 49.6374 90.7287 49.759 90.784 49.8807C91.0162 50.334 91.4475 50.6989 91.9451 50.7874H91.9561Z" fill="#AA7341"/>
<path d="M83.043 42.9587C83.043 43.0361 83.1093 43.1024 83.1757 43.1467C85.3319 44.8495 87.5765 46.4307 89.9097 47.8793C89.9981 47.9346 90.1087 47.9899 90.2082 47.9567C90.2746 47.9346 90.3078 47.8793 90.352 47.824C90.4847 47.6471 90.6284 47.4591 90.7611 47.2822C90.9823 46.9947 90.5842 46.7846 90.3852 46.5966C90.1308 46.3533 89.8655 46.099 89.6111 45.8558C89.0914 45.3582 88.5828 44.8606 88.0631 44.363C87.5434 43.8654 87.0347 43.3678 86.515 42.8702L85.741 42.1294C85.5088 41.9082 85.1881 41.676 85.0002 41.4106C84.9117 41.3222 84.8122 41.2337 84.6905 41.2227C84.5578 41.2227 84.4362 41.3111 84.3367 41.3996C83.8723 41.8198 83.4521 42.3063 83.1093 42.826C83.0983 42.8481 83.0872 42.8702 83.0761 42.8813C83.0651 42.9034 83.054 42.9255 83.054 42.9587H83.043Z" fill="#FFCA28"/>
<path d="M79.7605 42.8361C79.8047 42.9135 79.8821 42.9688 79.9595 43.013C80.8994 43.5438 82.0162 43.7539 83.0888 43.6102C83.2657 43.588 83.4426 43.5549 83.5975 43.4664C83.7191 43.4001 83.8186 43.3227 83.9181 43.2342C84.3494 42.8472 84.7253 42.3938 85.0349 41.8962C85.0902 41.8078 85.1455 41.7193 85.1787 41.6198C85.2229 41.4982 85.234 41.3765 85.234 41.2438C85.2671 40.0939 84.7806 38.9992 83.9292 38.2362C83.8518 38.1699 83.7633 38.1035 83.6638 38.1035C83.5974 38.1035 83.5422 38.1367 83.4869 38.1699C81.784 39.0876 80.435 40.6578 79.8047 42.4823C79.7716 42.5818 79.7384 42.7034 79.7716 42.803C79.7716 42.814 79.7716 42.8251 79.7826 42.8361H79.7605Z" fill="#33285D"/>
<path d="M96.1468 33.5267C96.1468 33.5267 96.1025 33.5267 96.0804 33.5377C95.4723 33.7036 94.8862 33.9358 94.3333 34.2344C94.2117 34.3007 94.0901 34.3781 94.0569 34.5108C94.0237 34.6324 94.079 34.7541 94.1343 34.8646C94.3223 35.13 94.4328 35.506 94.5655 35.7935C94.7203 36.1141 94.8641 36.4459 95.0189 36.7665L95.9256 38.7127C96.2242 39.3651 96.5338 40.0064 96.8323 40.6588C96.9871 40.9794 97.1309 41.3112 97.2857 41.6318C97.3963 41.8751 97.4737 42.3174 97.8164 42.2068C98.0265 42.1405 98.2477 42.0631 98.4578 41.9967C98.5241 41.9746 98.5905 41.9525 98.6236 41.9083C98.69 41.8309 98.6679 41.7092 98.6458 41.6097C98.0265 38.9338 97.2636 36.2911 96.3458 33.7036C96.3237 33.6262 96.2795 33.5488 96.2131 33.5156C96.191 33.5156 96.1578 33.5156 96.1357 33.5156L96.1468 33.5267Z" fill="#FFCA28"/>
<path d="M97.1443 30.3632C97.0558 30.2969 96.9342 30.2969 96.8236 30.2969C94.8885 30.3079 92.9645 31.0709 91.5492 32.3867C91.5049 32.431 91.4497 32.4752 91.4275 32.5415C91.3944 32.6411 91.4275 32.7406 91.4718 32.829C91.9141 33.8906 92.7987 34.7088 93.8934 35.0405C94.015 35.0737 94.1366 35.1069 94.2583 35.1069C94.3578 35.1069 94.4684 35.0848 94.5679 35.0627C95.1318 34.93 95.6847 34.7199 96.1933 34.4324C96.3039 34.366 96.4255 34.2997 96.5251 34.2112C96.6577 34.0896 96.7462 33.9348 96.8236 33.78C97.3101 32.818 97.476 31.6901 97.277 30.6286C97.2548 30.5401 97.2438 30.4406 97.1774 30.3853C97.1774 30.3853 97.1553 30.3632 97.1443 30.3632Z" fill="#33285D"/>
<path d="M84.0078 108.331C84.0963 107.258 83.8972 106.285 83.4992 105.434C82.4708 105.567 81.2434 105.633 79.7728 105.622C77.3069 105.6 74.8411 105.279 72.3753 105.047C71.4796 106.905 71.5128 109.205 72.5743 110.974C73.9123 113.185 76.732 114.39 79.2531 113.804C81.7742 113.218 83.7866 110.907 84.0078 108.331Z" fill="#AA7341"/>
<path d="M108.863 54.0145C109.589 54.0145 110.179 53.4254 110.179 52.6987C110.179 51.9719 109.589 51.3828 108.863 51.3828C108.136 51.3828 107.547 51.9719 107.547 52.6987C107.547 53.4254 108.136 54.0145 108.863 54.0145Z" fill="#221F20"/>
<path d="M98.4252 61.5008C99.1519 61.5008 99.7411 60.9117 99.7411 60.185C99.7411 59.4583 99.1519 58.8691 98.4252 58.8691C97.6985 58.8691 97.1094 59.4583 97.1094 60.185C97.1094 60.9117 97.6985 61.5008 98.4252 61.5008Z" fill="#221F20"/>
</svg>
