<svg width="150" height="200" viewBox="0 0 150 200" fill="none" xmlns="http://www.w3.org/2000/svg">
<rect width="150" height="200" fill="#C0E8E6"/>
<path d="M56.815 48.333C56.5458 48.1069 56.1797 47.5793 56.1797 47.1486C56.1582 44.3493 61.9937 35.3484 63.0811 36.0375C63.9425 36.5758 60.7556 44.78 60.4756 48.053C60.4433 48.4837 60.0773 48.8713 59.6897 48.9574C58.613 49.2051 57.644 49.0328 56.8257 48.333H56.815Z" fill="#FFCA28"/>
<path d="M68.0148 146.664C68.0148 146.664 62.104 141.087 57.399 152.672C55.1164 159.164 55.138 160.779 55.138 160.779C55.138 160.779 51.768 159.713 50.4653 162.825C50.0992 163.697 56.0854 166.335 59.8214 167.368C60.5966 167.584 61.5979 167.53 61.781 166.744L62.6531 164.418C62.6531 164.418 71.7831 152.112 68.0256 146.653L68.0148 146.664Z" fill="#7E57C2"/>
<path d="M28.6832 111.027C30.1798 111.242 30.6428 109.315 30.7397 108.4C30.632 109.519 30.7397 110.165 31.1919 110.844C31.7733 111.683 33.0653 111.587 33.582 110.704C35.3585 107.678 38.3517 104.05 47.3741 105.676C53.9633 106.86 49.3874 100.012 49.3874 100.012C40.9679 97.1701 31.8702 99.8725 28.8447 101.735C23.1384 105.234 24.2366 112.394 28.0695 107.764C27.1759 109.272 27.2943 110.865 28.6832 111.027Z" fill="#7E57C2"/>
<path d="M53.4234 98.6569C60.0126 98.5707 78.2297 95.4484 78.9833 63.6869C79.0156 62.5241 79.597 61.4152 80.6091 60.8445C97.4373 51.3914 115.881 58.8635 123.385 62.7394C124.483 63.3101 124.192 64.9466 122.965 65.1296C116.397 66.1202 103.962 69.2963 105.415 79.1693C105.534 79.9768 104.899 80.6874 104.08 80.6336C93.4537 80.0414 91.4403 90.7111 91.0635 94.4041C90.9989 95.0716 90.4175 95.5776 89.75 95.5346C86.9076 95.3838 72.8571 99.4536 68.3459 104.137C62.9519 109.746 59.4635 110.532 52.3898 100.627C51.7976 99.7981 52.4006 98.6461 53.4234 98.6353V98.6569Z" fill="#F48FB1"/>
<path d="M125.259 63.8044C99.0421 47.1377 78.7793 58.701 77.4335 59.5085C77.1643 59.6593 76.9382 59.8961 76.7982 60.1868C76.7982 60.1976 76.7982 60.2191 76.7875 60.2299C76.7336 60.3483 76.7013 60.4775 76.6798 60.6067C76.6583 60.7575 76.6583 60.8974 76.6798 61.0482C76.6798 61.1128 77.7565 67.7665 76.12 75.4001C73.9666 85.4453 68.368 92.3898 59.4855 96.0397C58.7319 96.3519 58.3658 97.2132 58.678 97.9777C58.9149 98.5483 59.464 98.9036 60.0562 98.9036C60.25 98.9036 60.433 98.8713 60.616 98.7959C78.284 91.5392 80.1467 73.7205 79.9636 65.2256C87.1019 74.3557 89.0184 84.0026 89.7074 96.901C89.7505 97.6977 90.4073 98.3007 91.1932 98.3007C91.2147 98.3007 91.247 98.3007 91.2793 98.3007C92.0976 98.2576 92.7221 97.5578 92.679 96.7395C91.9361 82.8613 89.8151 72.5577 81.6971 62.6093C94.2402 64.2566 100.388 71.7502 105.534 82.3984C105.89 83.1305 106.773 83.4427 107.515 83.0874C108.258 82.7321 108.56 81.8385 108.204 81.1064C103.553 71.481 97.3194 62.4371 83.8935 59.9715C91.2578 57.5275 106.105 55.1588 123.665 66.3238C124.354 66.7652 125.27 66.5607 125.711 65.8716C126.152 65.1825 125.948 64.2674 125.259 63.826V63.8044Z" fill="#F06292"/>
<path d="M84.9397 116.971C85.2735 117.132 85.7149 117.014 86.0164 116.658C87.1684 115.312 89.0741 112.815 87.9436 112.039C87.05 111.426 84.8643 112.556 83.68 113.278C83.2816 113.514 83.0448 114.01 83.1309 114.43C83.3355 115.582 83.9169 116.454 84.9505 116.96L84.9397 116.971Z" fill="#512DA8"/>
<path d="M74.8624 109.216C75.293 109.302 75.756 109.022 75.9821 108.538C76.8757 106.654 78.2646 103.241 76.7573 102.702C75.5622 102.283 73.4196 104.242 72.2891 105.416C71.9123 105.814 71.7939 106.439 72.0092 106.891C72.6014 108.14 73.5273 108.947 74.8516 109.206L74.8624 109.216Z" fill="#512DA8"/>
<path d="M66.3753 61.3492C66.5583 61.7475 67.0643 61.9521 67.5919 61.8552C69.6375 61.4676 73.2121 60.5632 72.7491 59.0236C72.383 57.807 69.5406 57.2363 67.9149 57.0318C67.3766 56.9564 66.8059 57.2363 66.5583 57.6778C65.9015 58.8944 65.7939 60.111 66.3753 61.3492Z" fill="#512DA8"/>
<path d="M56.9347 85.1763C57.107 85.5531 57.5807 85.7469 58.076 85.65C60.0032 85.284 63.3732 84.4334 62.9317 82.9907C62.5872 81.8494 59.9063 81.3111 58.3882 81.1173C57.8822 81.0527 57.3439 81.3111 57.1178 81.731C56.5041 82.8722 56.4072 84.0243 56.9455 85.1871L56.9347 85.1763Z" fill="#512DA8"/>
<path d="M91.6463 128.511C91.9801 128.781 92.5292 128.759 92.9598 128.436C94.6287 127.187 97.4495 124.818 96.3621 123.634C95.5008 122.697 92.6907 123.43 91.1403 123.957C90.6235 124.129 90.2251 124.625 90.2036 125.131C90.1498 126.509 90.5912 127.661 91.6356 128.511H91.6463Z" fill="#512DA8"/>
<path d="M98.8931 140.548C99.2269 140.742 99.6899 140.645 100.024 140.312C101.305 139.009 103.447 136.565 102.338 135.682C101.466 134.982 99.1192 135.994 97.8488 136.651C97.4181 136.866 97.1489 137.362 97.192 137.803C97.3212 139.009 97.8595 139.946 98.8931 140.548Z" fill="#512DA8"/>
<path d="M111.769 148.482C112.114 148.375 112.34 147.976 112.308 147.535C112.189 145.823 111.812 142.798 110.51 143.024C109.476 143.207 108.722 145.479 108.388 146.781C108.281 147.212 108.442 147.718 108.787 147.955C109.713 148.612 110.714 148.827 111.769 148.472V148.482Z" fill="#512DA8"/>
<path d="M125.829 146.642C126.022 146.405 126.012 146.018 125.786 145.716C124.913 144.521 123.255 142.508 122.416 143.272C121.748 143.875 122.243 145.867 122.599 146.965C122.717 147.331 123.072 147.611 123.428 147.633C124.407 147.686 125.215 147.385 125.829 146.642Z" fill="#512DA8"/>
<path d="M61.5015 68.0998C61.3939 68.5197 61.6415 69.0042 62.1045 69.2626C63.924 70.2746 67.2401 71.9004 67.8754 70.4146C68.3814 69.2518 66.5619 66.98 65.4637 65.7742C65.0976 65.3758 64.4839 65.2143 64.0102 65.3973C62.7289 65.9034 61.8568 66.7755 61.5123 68.089L61.5015 68.0998Z" fill="#512DA8"/>
<path d="M63.5995 100.237C63.9979 100.42 64.5147 100.258 64.8485 99.8385C66.1512 98.2128 68.2938 95.2197 66.948 94.3476C65.8821 93.6585 63.3412 95.0689 61.9738 95.9518C61.5216 96.2533 61.2632 96.8347 61.3601 97.3192C61.6508 98.6757 62.3614 99.6663 63.5888 100.237H63.5995Z" fill="#512DA8"/>
<path d="M108.218 160.509C92.1001 160.046 79.4171 162.06 67.3369 154.394C60.7155 150.184 52.3175 147.288 46.8804 138.933C42.7675 132.602 39.9036 121.05 40.0651 113.534C40.5281 91.8935 44.8993 56.4067 46.3959 55.567L61.706 52.7461C59.1328 58.1509 56.8287 80.6209 58.0238 86.8224C60.6616 100.539 75.0781 106.999 81.5058 112.146C90.7113 119.51 95.6316 139.234 103.33 144.725C108.724 148.58 115.012 149.129 121.482 147.708C123.851 147.191 127.253 145.888 129.773 143.476C130.44 142.83 131.527 143.476 131.237 144.359C129.406 149.818 124.012 158.991 108.218 160.488" fill="#9575CD"/>
<path d="M48.3342 59.4008C47.6236 59.4008 45.4379 97.3854 47.925 110.155C50.4659 123.182 55.9139 152.317 87.2555 158.583C95.6427 159.896 101.414 160.704 112.568 159.843C112.568 159.843 95.0828 163.256 78.19 160.639C57.7334 157.474 46.5469 146.783 41.0452 129.965C34.2945 109.293 43.6722 58.7871 43.6722 58.7871L48.3234 59.39L48.3342 59.4008Z" fill="#FAFAFA"/>
<mask id="mask0_10888_17603" style="mask-type:luminance" maskUnits="userSpaceOnUse" x="38" y="58" width="75" height="104">
<path d="M48.3342 59.4008C47.6236 59.4008 45.4379 97.3854 47.925 110.155C50.4659 123.182 55.9139 152.317 87.2555 158.583C95.6427 159.896 101.414 160.704 112.568 159.843C112.568 159.843 95.0828 163.256 78.19 160.639C57.7334 157.474 46.5469 146.783 41.0452 129.965C34.2945 109.293 43.6722 58.7871 43.6722 58.7871L48.3234 59.39L48.3342 59.4008Z" fill="white"/>
</mask>
<g mask="url(#mask0_10888_17603)">
<path d="M37.8137 80.0927C42.8847 79.9635 47.9128 79.1345 52.7577 77.6056C53.4145 77.4011 53.1346 76.3567 52.467 76.5721C47.719 78.0686 42.7878 78.8976 37.8137 79.0161C37.1246 79.0376 37.1246 80.1143 37.8137 80.0927Z" fill="#D1C4E9"/>
<path d="M35.5846 92.538C42.2707 94.6375 49.635 94.0238 55.8904 90.88C56.5149 90.5677 55.9658 89.6418 55.3521 89.954C49.3443 92.9687 42.2814 93.5178 35.8753 91.5044C35.2078 91.2999 34.9278 92.3335 35.5846 92.538Z" fill="#D1C4E9"/>
<path d="M36.7689 106.869C43.0673 107.978 49.495 108.054 55.8258 107.085C56.5041 106.977 56.2134 105.943 55.5351 106.051C49.4089 106.988 43.1535 106.912 37.0596 105.836C36.3813 105.717 36.0906 106.751 36.7689 106.869Z" fill="#D1C4E9"/>
<path d="M36.2512 121.416C43.6478 122.17 51.0876 122.364 58.5165 121.998C59.2056 121.965 59.2056 120.889 58.5165 120.921C51.0876 121.287 43.6478 121.093 36.2512 120.34C35.5621 120.264 35.5621 121.352 36.2512 121.416Z" fill="#D1C4E9"/>
<path d="M42.0666 135.907C49.7109 136.629 57.4091 136.392 64.9995 135.229C65.6778 135.121 65.3871 134.088 64.7088 134.195C57.2153 135.347 49.6033 135.552 42.0559 134.841C41.3668 134.777 41.3668 135.853 42.0559 135.918L42.0666 135.907Z" fill="#D1C4E9"/>
<path d="M51.4963 149.957C60.0235 150.474 68.6152 149.569 76.8517 147.298C77.5192 147.115 77.2393 146.07 76.561 146.264C68.4107 148.514 59.9373 149.397 51.4855 148.891C50.7965 148.848 50.7965 149.925 51.4855 149.968L51.4963 149.957Z" fill="#D1C4E9"/>
<path d="M67.6487 159.679C74.7439 157.752 81.7314 155.458 88.5897 152.82C89.225 152.573 88.9558 151.528 88.299 151.787C81.4407 154.435 74.4532 156.718 67.358 158.645C66.6904 158.828 66.9704 159.862 67.6487 159.679Z" fill="#D1C4E9"/>
<path d="M84.7666 163.544C92.6693 162.015 100.292 159.022 107.129 154.759C109.067 153.553 110.929 152.239 112.728 150.84C113.277 150.42 112.512 149.655 111.963 150.075C105.708 154.92 98.5586 158.602 90.9789 160.896C88.8364 161.542 86.6723 162.069 84.4759 162.5C83.7976 162.629 84.0883 163.673 84.7666 163.533V163.544Z" fill="#D1C4E9"/>
</g>
<path d="M36.2853 128.544C38.0295 127.952 37.4804 125.605 37.0713 124.55C37.5665 125.831 38.0295 126.477 38.9124 126.962C39.9998 127.564 41.3564 126.735 41.4318 125.497C41.7009 121.234 42.9606 115.646 53.6626 112.448C61.4792 110.112 52.7367 105.191 52.7367 105.191C42.0132 106.731 33.6152 114.677 31.3434 118.359C27.0583 125.303 32.194 132.485 33.8198 125.336C33.669 127.468 34.6703 129.136 36.2853 128.544Z" fill="#9575CD"/>
<path d="M62.4037 46.847C58.7323 44.2738 51.4648 43.2832 46.5229 46.9762L46.3291 46.9977C44.6065 46.2117 44.8541 46.1148 42.3993 45.5119C36.047 43.9508 29.3071 47.4284 27.6275 53.7484C27.5414 54.0929 27.4552 54.4482 27.3906 54.8143C26.7016 58.7333 29.7378 60.8005 34.0013 62.3617C32.6878 63.9228 31.9449 65.4732 32.5155 66.7975C34.4751 71.3195 44.6603 70.2751 48.8054 68.7247C49.9036 68.3156 51.4002 67.6158 52.9398 66.8406L57.4403 71.987C59.3783 71.987 62.5544 68.9724 63.8679 67.3574C65.7413 65.0641 67.3994 61.9525 67.8839 58.9917C68.6698 54.1683 66.4734 49.6894 62.4144 46.847H62.4037Z" fill="#9575CD"/>
<path d="M35.5776 50.5956C36.5712 49.9207 36.5911 48.2172 35.6221 46.7908C34.6531 45.3644 33.0621 44.7552 32.0685 45.4302C31.075 46.1052 31.0551 47.8087 32.0241 49.2351C32.9931 50.6615 34.5841 51.2706 35.5776 50.5956Z" fill="#9575CD"/>
<path d="M34.1515 49.1305C33.8931 49.1951 33.7962 48.6675 33.4086 48.1076C33.021 47.5478 32.6118 47.031 33.1609 46.7941C33.5485 46.6218 34.0976 47.0202 34.3668 47.6662C34.636 48.3122 34.5606 49.0228 34.1515 49.1412V49.1305Z" fill="#512DA8"/>
<path d="M35.2624 49.7315C35.3055 49.9899 35.833 49.8607 36.5006 50.0007C37.1681 50.1407 37.8033 50.3022 37.8033 49.6992C37.8033 49.2686 37.2219 48.9348 36.5221 48.9456C35.8223 48.9563 35.1978 49.3116 35.2624 49.7315Z" fill="#512DA8"/>
<path d="M55.0296 51.6711C54.8466 51.6281 54.6851 51.4881 54.6097 51.2943C54.1037 49.9592 52.887 49.2809 51.3582 49.4747C51.0244 49.5178 50.7122 49.2809 50.6691 48.9472C50.6261 48.6134 50.8629 48.3012 51.1967 48.2581C53.2962 47.9889 55.0404 48.9902 55.751 50.8529C55.8694 51.1651 55.7079 51.5204 55.3957 51.6388C55.2772 51.6819 55.148 51.6927 55.0296 51.6604V51.6711Z" fill="#424242"/>
<path d="M34.496 65.1819C34.2053 68.6488 39.4163 69.6716 46.2208 68.0136C50.5382 67.1415 55.2755 64.2022 58.2579 60.7461C50.1722 67.4968 39.0718 69.747 34.4852 65.1819H34.496Z" fill="#7E57C2"/>
<path d="M45.2334 64.138C44.8566 65.29 44.2644 66.7435 43.2093 66.5497C42.5202 66.4205 42.1757 65.0424 42.0142 63.9873C41.056 63.8904 40.1193 63.7719 39.1933 63.5997C38.6119 64.6763 37.7506 66.076 36.7278 65.6776C36.0602 65.4192 35.9741 63.955 36.0064 62.8783C35.8018 62.8245 35.5865 62.7814 35.3819 62.7168C33.6593 65.4838 34.4022 66.3236 36.8785 67.1957C42.0896 69.0153 54.0943 65.2039 49.2709 65.0316C49.0125 64.6656 48.7864 64.2564 48.6034 63.8796C47.4406 64.0303 46.3208 64.1165 45.2334 64.1272V64.138Z" fill="#F06292"/>
<path d="M36.7363 65.6889C37.7591 66.0765 38.6204 64.6877 39.2018 63.611C38.1251 63.4172 37.07 63.1696 36.0257 62.9004C35.9934 63.9771 36.0687 65.4413 36.747 65.6997L36.7363 65.6889Z" fill="white"/>
<path d="M43.2068 66.5507C44.2619 66.7445 44.8541 65.291 45.2309 64.139C44.122 64.1498 43.0561 64.0852 42.0117 63.9883C42.1732 65.0434 42.5177 66.4215 43.2068 66.5507Z" fill="white"/>
<path d="M49.2812 65.0429C49.6904 65.6459 50.1641 66.1196 50.6163 66.055C51.6176 65.915 51.7683 64.5154 51.7791 63.3418C51.0147 63.9232 50.1749 64.4938 49.292 65.0429H49.2812Z" fill="white"/>
<path d="M51.7669 63.3418C50.6688 63.6002 49.6244 63.7617 48.6016 63.8909C48.7846 64.257 49.0215 64.6661 49.2691 65.0429C50.1627 64.4938 51.0025 63.9232 51.7562 63.3418H51.7669Z" fill="white"/>
<path d="M75.8405 145.522C75.8405 145.522 67.0442 145.641 72.1045 158.195C75.216 164.967 76.4542 166.205 76.4542 166.205C76.4542 166.205 73.0304 167.917 74.3547 171.319C74.7315 172.278 81.3745 169.812 85.0567 167.809C85.8212 167.389 86.3057 167.174 86.1119 165.85L85.8104 163.406C85.8104 163.406 82.8711 146.922 75.8405 145.512V145.522Z" fill="#9575CD"/>
<path d="M64.7507 52.8446C65.1383 53.0384 65.9243 53.2107 66.4195 53.0061C69.6495 51.6711 77.1754 40.5599 75.8618 39.6448C74.8175 38.9126 66.9255 46.5892 63.2864 48.5057C62.8019 48.7641 62.5435 49.3562 62.6297 49.8515C62.8665 51.2081 63.5448 52.2417 64.7507 52.8446Z" fill="#FFCA28"/>
</svg>
