<svg width="150" height="200" viewBox="0 0 150 200" fill="none" xmlns="http://www.w3.org/2000/svg">
<rect width="150" height="200" fill="#E5F2FF"/>
<path d="M102.493 89.1965L100.895 94.459L121.141 100.61L122.74 95.3478L102.493 89.1965Z" fill="#81D4FA"/>
<path d="M119.206 97.2421L113.055 117.488L118.317 119.087L124.468 98.841L119.206 97.2421Z" fill="#81D4FA"/>
<path d="M101.968 96.8239C104.831 96.3658 106.781 93.6735 106.323 90.8104C105.864 87.9473 103.172 85.9977 100.309 86.4557C97.446 86.9138 95.4963 89.6061 95.9544 92.4692C96.4125 95.3323 99.1048 97.2819 101.968 96.8239Z" fill="#0288D1"/>
<path d="M116.997 96.4714C116.157 99.2414 117.717 102.181 120.497 103.021C123.267 103.861 126.207 102.301 127.047 99.5214C127.887 96.7514 126.327 93.8114 123.547 92.9714C120.777 92.1314 117.837 93.6914 116.997 96.4714Z" fill="#0288D1"/>
<path d="M113.985 123.861C116.755 124.701 119.695 123.141 120.535 120.361C121.375 117.591 119.815 114.651 117.035 113.811C114.265 112.971 111.325 114.531 110.485 117.311C109.645 120.081 111.205 123.021 113.985 123.861Z" fill="#0288D1"/>
<path d="M112.915 127.611C113.625 127.821 114.365 127.431 114.585 126.721L116.075 121.811C116.285 121.101 115.895 120.361 115.185 120.141C114.475 119.931 113.735 120.321 113.515 121.031L112.025 125.941C111.815 126.651 112.205 127.391 112.915 127.611Z" fill="#0288D1"/>
<path d="M106.786 121.611C106.956 122.331 107.676 122.781 108.396 122.611L113.386 121.451C114.106 121.281 114.556 120.561 114.386 119.841C114.216 119.121 113.496 118.671 112.776 118.841L107.786 120.001C107.066 120.171 106.616 120.891 106.786 121.611Z" fill="#0288D1"/>
<path d="M121.356 126.041C120.816 126.541 119.966 126.521 119.466 125.981L115.966 122.241C115.466 121.701 115.486 120.851 116.026 120.351C116.566 119.851 117.416 119.871 117.916 120.411L121.416 124.151C121.916 124.691 121.896 125.541 121.356 126.041Z" fill="#0288D1"/>
<path d="M46.8953 89.5923L27.2969 97.5703L29.3706 102.664L48.9689 94.6864L46.8953 89.5923Z" fill="#81D4FA"/>
<path d="M30.9886 99.1197L25.8945 101.193L33.8725 120.792L38.9666 118.718L30.9886 99.1197Z" fill="#81D4FA"/>
<path d="M53.607 92.9904C53.017 95.8304 50.237 97.6504 47.397 97.0504C44.557 96.4604 42.737 93.6804 43.337 90.8404C43.927 88.0004 46.707 86.1804 49.547 86.7804C52.387 87.3704 54.207 90.1504 53.607 92.9904Z" fill="#0288D1"/>
<path d="M33.1072 98.1696C34.1972 100.86 32.9072 103.92 30.2272 105.01C27.5372 106.1 24.4772 104.81 23.3872 102.13C22.2972 99.4396 23.5872 96.3796 26.2672 95.2896C28.9472 94.1996 32.0172 95.4896 33.1072 98.1696Z" fill="#0288D1"/>
<path d="M40.0529 124.284C42.2547 122.398 42.5103 119.083 40.6238 116.882C38.7373 114.68 35.423 114.424 33.2211 116.311C31.0193 118.197 30.7637 121.512 32.6502 123.713C34.5368 125.915 37.851 126.171 40.0529 124.284Z" fill="#0288D1"/>
<path d="M40.0276 128.8C39.3476 129.08 38.5676 128.75 38.2876 128.07L36.3576 123.32C36.0776 122.64 36.4076 121.86 37.0876 121.58C37.7676 121.3 38.5476 121.63 38.8276 122.31L40.7576 127.06C41.0376 127.74 40.7076 128.52 40.0276 128.8Z" fill="#0288D1"/>
<path d="M45.5863 122.262C45.4863 122.992 44.8063 123.502 44.0763 123.402L38.9963 122.702C38.2663 122.602 37.7563 121.922 37.8563 121.192C37.9563 120.462 38.6363 119.952 39.3663 120.052L44.4463 120.752C45.1763 120.852 45.6863 121.532 45.5863 122.262Z" fill="#0288D1"/>
<path d="M31.4774 128.009C32.0574 128.459 32.8974 128.359 33.3574 127.769L36.5074 123.719C36.9574 123.139 36.8574 122.299 36.2674 121.839C35.6874 121.389 34.8474 121.489 34.3874 122.079L31.2374 126.129C30.7874 126.709 30.8874 127.549 31.4774 128.009Z" fill="#0288D1"/>
<path d="M78.7058 24H71.9858C71.4058 24 70.9258 24.47 70.9258 25.06V27.07C70.9258 27.65 71.3958 28.13 71.9858 28.13H74.1658V43.44H76.5258V28.13H78.7058C79.2858 28.13 79.7658 27.66 79.7658 27.07V25.06C79.7658 24.48 79.2958 24 78.7058 24Z" fill="#81D4FA"/>
<path d="M67.3744 169.391L60.4844 169.381L60.5344 146.951L67.4244 146.961L67.3744 169.391Z" fill="#48A4FF"/>
<path d="M66.0112 150.799C69.5751 149.705 71.5776 145.929 70.4839 142.365C69.3902 138.802 65.6145 136.799 62.0506 137.893C58.4868 138.986 56.4843 142.762 57.5779 146.326C58.6716 149.89 62.4473 151.892 66.0112 150.799Z" fill="#0288D1"/>
<g style="mix-blend-mode:multiply" opacity="0.4">
<path d="M67.4264 150.171C69.4164 149.001 70.7664 146.841 70.7664 144.361C70.7664 140.651 67.7764 137.631 64.0664 137.611V169.391H67.3864L67.4264 150.171Z" fill="#0277BD"/>
</g>
<path d="M54.0552 176.02C53.3252 176.02 52.7552 175.37 52.8552 174.65C53.5152 170.16 57.3952 166.72 62.0652 166.73C66.7352 166.74 70.6052 170.18 71.2552 174.67C71.3652 175.39 70.7852 176.03 70.0552 176.03L54.0552 176.01V176.02Z" fill="#0288D1"/>
<path d="M83.1164 169.389L90.0064 169.379L89.9564 146.949L83.0664 146.959L83.1164 169.389Z" fill="#48A4FF"/>
<path d="M92.937 146.34C94.0307 142.776 92.0282 139 88.4643 137.906C84.9004 136.813 81.1247 138.815 80.031 142.379C78.9374 145.943 80.9399 149.719 84.5038 150.812C88.0677 151.906 91.8434 149.903 92.937 146.34Z" fill="#0288D1"/>
<g style="mix-blend-mode:multiply" opacity="0.4">
<path d="M89.7245 150.169C91.6737 148.999 92.9961 146.839 92.9961 144.359C92.9961 140.649 90.0673 137.629 86.4333 137.609V169.389H89.6853L89.7245 150.169Z" fill="#0277BD"/>
</g>
<path d="M96.4361 176.019C97.1661 176.019 97.7361 175.369 97.6361 174.649C96.9761 170.159 93.0961 166.719 88.4261 166.729C83.7561 166.729 79.8861 170.179 79.2361 174.669C79.1261 175.389 79.7061 176.029 80.4361 176.029L96.4361 176.009V176.019Z" fill="#0288D1"/>
<path d="M80.9353 69.3496H69.9453V80.3396H80.9353V69.3496Z" fill="#0288D1"/>
<path d="M84.1952 73.0808H66.6852C64.2552 73.0808 62.2852 71.1108 62.2852 68.6808V47.9508C62.2852 40.6908 68.1752 34.8008 75.4352 34.8008C82.6952 34.8008 88.5852 40.6908 88.5852 47.9508V68.6808C88.5852 71.1108 86.6152 73.0808 84.1852 73.0808H84.1952Z" fill="#81D4FA"/>
<path d="M59.1445 49.6209V56.3109C59.1445 58.1009 60.5945 59.5509 62.3845 59.5509H69.4745C70.6345 59.5509 71.7045 58.9309 72.2845 57.9309L72.6445 57.3009C73.8945 55.1409 77.0045 55.1409 78.2545 57.3009L78.6145 57.9309C79.1945 58.9309 80.2645 59.5509 81.4245 59.5509H88.3045C90.0945 59.5509 91.5445 58.1009 91.5445 56.3109V49.6209C91.5445 47.8309 90.0945 46.3809 88.3045 46.3809H62.3945C60.6045 46.3809 59.1545 47.8309 59.1545 49.6209H59.1445Z" fill="#48A4FF"/>
<path d="M77.2161 66.7998H73.4761C72.9361 66.7998 72.4961 66.3598 72.4961 65.8198C72.4961 65.2798 72.9361 64.8398 73.4761 64.8398H77.2161C77.7561 64.8398 78.1961 65.2798 78.1961 65.8198C78.1961 66.3598 77.7561 66.7998 77.2161 66.7998Z" fill="#0288D1"/>
<path d="M70.143 53.0617C70.143 54.4717 69.003 55.6117 67.593 55.6117C66.183 55.6117 65.043 54.4717 65.043 53.0617C65.043 51.6517 66.183 50.5117 67.593 50.5117C69.003 50.5117 70.143 51.6517 70.143 53.0617Z" fill="white"/>
<path d="M83.093 55.6117C84.5013 55.6117 85.643 54.47 85.643 53.0617C85.643 51.6534 84.5013 50.5117 83.093 50.5117C81.6846 50.5117 80.543 51.6534 80.543 53.0617C80.543 54.47 81.6846 55.6117 83.093 55.6117Z" fill="white"/>
<g style="mix-blend-mode:multiply" opacity="0.4">
<path d="M88.4944 46.3908C87.7144 39.8608 82.1744 34.8008 75.4344 34.8008C75.3644 34.8008 75.3044 34.8008 75.2344 34.8008V73.0808H84.1844C86.6144 73.0808 88.5844 71.1108 88.5844 68.6808V59.5208C90.2344 59.3708 91.5244 57.9908 91.5244 56.3008V49.6108C91.5244 47.8908 90.1844 46.4808 88.4844 46.3808L88.4944 46.3908Z" fill="#0277BD"/>
</g>
<path d="M87.8181 75.6289H63.0781V80.7289H87.8181V75.6289Z" fill="#48A4FF"/>
<path d="M94.4663 78.9688H55.4363C51.4156 78.9688 48.1562 82.2281 48.1562 86.2487V136.079C48.1562 140.099 51.4156 143.359 55.4363 143.359H94.4663C98.4869 143.359 101.746 140.099 101.746 136.079V86.2487C101.746 82.2281 98.4869 78.9688 94.4663 78.9688Z" fill="#81D4FA"/>
<path d="M88.8367 86.2285H61.8667C59.3925 86.2285 57.3867 88.2343 57.3867 90.7085V100.989C57.3867 103.463 59.3925 105.469 61.8667 105.469H88.8367C91.311 105.469 93.3167 103.463 93.3167 100.989V90.7085C93.3167 88.2343 91.311 86.2285 88.8367 86.2285Z" fill="#0288D1"/>
<path d="M87.9659 88.1992H62.7359C60.9962 88.1992 59.5859 89.6095 59.5859 91.3492V100.359C59.5859 102.099 60.9962 103.509 62.7359 103.509H87.9659C89.7056 103.509 91.1159 102.099 91.1159 100.359V91.3492C91.1159 89.6095 89.7056 88.1992 87.9659 88.1992Z" fill="#FAFAFA"/>
<path d="M62.4869 115.089C64.1106 115.089 65.4269 113.773 65.4269 112.149C65.4269 110.525 64.1106 109.209 62.4869 109.209C60.8632 109.209 59.5469 110.525 59.5469 112.149C59.5469 113.773 60.8632 115.089 62.4869 115.089Z" fill="#48A4FF"/>
<path d="M87.8072 115.089C89.4309 115.089 90.7472 113.773 90.7472 112.149C90.7472 110.525 89.4309 109.209 87.8072 109.209C86.1835 109.209 84.8672 110.525 84.8672 112.149C84.8672 113.773 86.1835 115.089 87.8072 115.089Z" fill="#48A4FF"/>
<g style="mix-blend-mode:multiply" opacity="0.4">
<path d="M94.4661 78.9688H75.2461V143.359H94.4661C98.4861 143.359 101.746 140.099 101.746 136.079V86.2487C101.746 82.2287 98.4861 78.9688 94.4661 78.9688Z" fill="#0277BD"/>
</g>
</svg>
