<svg width="150" height="200" viewBox="0 0 150 200" fill="none" xmlns="http://www.w3.org/2000/svg">
<rect width="150" height="200" fill="#E5F2FF"/>
<path d="M35.7617 152.001L59.6279 146.203L77.0323 167.002L68.2724 173.839L35.7617 152.001Z" fill="#FFC107"/>
<path d="M70.3589 159.029L70.2435 163.25L70.2051 164.424L70.0801 168.799L70.0416 170.087L69.9743 172.51L38.7617 152.664C38.8675 152.202 38.9444 151.731 39.0117 151.269C39.0598 151 39.0887 150.731 39.1175 150.452C39.1656 150.077 39.1848 149.711 39.204 149.336C39.2329 149.019 39.2425 148.721 39.2425 148.413C39.2617 147.519 39.2425 146.654 39.204 145.875C39.1848 145.548 39.1656 145.24 39.1463 144.942C39.0021 143.173 38.7713 141.98 38.7713 141.98L70.3589 159.029Z" fill="#FFF3E0"/>
<path d="M49.1851 156.819L39.0117 151.261C39.0598 150.991 39.0886 150.722 39.1175 150.443L49.1851 156.809V156.819Z" fill="#FFE0B2"/>
<path d="M73.1961 166.34L58.5898 156.926L73.8596 165.205L73.1961 166.34Z" fill="#FFE0B2"/>
<path d="M36.4141 140.25L82.7617 126L115.599 138.616L68.7517 159.078L36.4141 140.25Z" fill="#FFC107"/>
<path d="M115.725 150.06C115.657 150.454 115.407 150.791 115.052 150.983L111.503 152.848L106.859 155.281L97.128 160.397L92.5413 162.81L80.7429 169.012L75.4638 171.801L69.2617 175.061V158.349L74.6177 156.07L79.4255 154.022L91.8105 148.752L96.503 146.752L106.359 142.56L111.08 140.55L115.619 138.617C116.023 139.79 116.225 141.156 116.282 142.54C116.436 145.608 115.965 148.752 115.734 150.06H115.725Z" fill="#FFB300"/>
<path d="M80.7424 169.022L75.4634 171.811C76.7519 165.657 75.6268 159.676 74.6172 156.079L79.425 154.031C81.0789 160.272 80.9924 165.935 80.752 169.022H80.7424Z" fill="#FF9800"/>
<path d="M111.502 152.847L106.857 155.28C107.675 150.511 107.117 145.924 106.348 142.559L111.069 140.549C112.002 145.462 111.819 149.924 111.502 152.847Z" fill="#FF9800"/>
<path d="M97.1279 160.404L92.5412 162.818C93.272 156.818 92.5412 151.846 91.8008 148.75L96.4932 146.75C97.7144 151.106 97.426 157.087 97.1279 160.395V160.404Z" fill="#FF9800"/>
<path d="M35.7617 153.02L69.2628 175.059C69.2628 175.059 71.7437 170.097 69.2628 158.347L36.4156 140.25V141.567L67.9455 159.154C67.9455 159.154 70.2052 167.982 68.0224 173.097L35.7617 152V153.02Z" fill="#FFCA28"/>
<path d="M37.3867 130.948L57.1308 127.787L74.068 148.345L57.3416 153.068L37.3867 130.948Z" fill="#24BEF0"/>
<path d="M37.5859 123.227C37.5859 123.227 38.1511 127.49 37.8446 131.053L57.6749 152.503L59.0544 142.942L37.5859 123.227Z" fill="#FFF3E0"/>
<path d="M37.8945 130.193L48.873 141.804L37.9137 129.762L37.8945 130.193Z" fill="#FFF3E0"/>
<path d="M57.7438 153.892L112.569 143.057C112.569 143.057 113.882 138.161 112.569 133.793L57.1211 142.108C57.1211 142.108 58.6443 145.203 57.7342 153.892H57.7438Z" fill="#24BEF0"/>
<path d="M112.569 133.793L86.905 117L37.3867 122.767L57.7439 142.329L112.569 133.793Z" fill="#24BEF0"/>
<path d="M37.3867 131.418L57.7439 153.883C57.7439 153.883 59.4874 147.847 57.7439 142.32L37.3867 122.758V123.16L57.1691 142.617C57.1691 142.617 58.4816 148.125 57.332 152.599L37.3867 130.949V131.418Z" fill="#00B0E9"/>
<path d="M67.4092 149.6C67.4954 149.313 67.5721 149.025 67.6391 148.728C67.8211 147.924 67.9457 147.196 68.0127 146.439C68.0511 146.027 68.0702 145.615 68.0702 145.203C68.0702 145.002 68.0702 144.791 68.0511 144.59C68.0511 144.504 68.0319 144.408 68.0319 144.322C68.0319 144.283 68.0319 144.264 68.0319 144.255C68.0319 144.245 68.0319 144.235 68.0319 144.207C68.0032 144.044 67.9744 143.881 67.9361 143.728C67.9265 143.68 67.9074 143.632 67.8978 143.584L62.6193 144.494C62.3319 144.542 62.1403 144.81 62.1978 145.098C62.5043 146.621 62.3031 148.767 62.169 149.859C62.1211 150.204 62.4277 150.491 62.7726 150.434L67.4379 149.619L67.4092 149.6Z" fill="#C8F1FF"/>
<path d="M70.0644 149.14L99.9919 143.91C100.193 143.871 100.356 143.728 100.413 143.536C100.844 141.908 100.749 140.135 100.327 138.497C100.26 138.239 100.001 138.076 99.7332 138.124L70.1315 143.21C69.8536 143.258 69.6525 143.517 69.7004 143.795C69.8441 144.619 69.8249 145.5 69.7674 146.266C69.7099 147.014 69.6141 147.78 69.4704 148.537C69.4034 148.901 69.7004 149.217 70.0644 149.16V149.14Z" fill="#C8F1FF"/>
<path d="M108.47 136.609L103.699 137.433C103.402 137.481 103.22 137.778 103.287 138.085C103.46 138.832 103.527 139.598 103.527 140.346C103.527 141.102 103.469 141.869 103.364 142.626C103.316 142.98 103.613 143.287 103.967 143.219L108.681 142.396C108.901 142.357 109.074 142.185 109.112 141.965C109.313 140.642 109.169 138.19 109.083 137.088C109.064 136.782 108.777 136.571 108.48 136.619L108.47 136.609Z" fill="#C8F1FF"/>
<path d="M74.9075 141.266L42.7029 120.69C42.2819 119.068 42.3608 117.375 42.4485 116.533L74.6444 135.986C74.6444 135.986 74.1971 137.538 74.9075 141.257V141.266Z" fill="#FFF3E0"/>
<path d="M114.281 125.751L74.9021 141.266C74.1917 137.547 74.639 135.995 74.639 135.995C79.9187 131.347 114.035 120.875 114.035 120.875C113.781 122.84 114.281 125.751 114.281 125.751Z" fill="#FFE0B2"/>
<path d="M114.017 120.48L84.1807 107L42.1094 115.893L74.6298 135.714L114.017 120.48Z" fill="#3196FF"/>
<path d="M74.6175 135.39L114.023 120.48L114.04 120.866L74.6438 135.986C74.5386 135.802 74.5035 135.609 74.6175 135.381V135.39Z" fill="#2F74DC"/>
<path d="M74.9063 141.265L114.285 125.75L114.303 126.013L74.9502 141.861C74.8449 141.642 74.8099 141.431 74.9151 141.265H74.9063Z" fill="#2F74DC"/>
<path d="M42.4411 116.533C42.3534 117.366 42.2745 119.067 42.6954 120.69L74.9001 141.265L74.9264 141.862L42.3446 120.909C41.6605 118.515 42.0903 115.893 42.0903 115.893L74.5931 135.389L74.6195 135.994L42.4235 116.542L42.4411 116.533Z" fill="#2F74DC"/>
<g style="mix-blend-mode:darken" opacity="0.18">
<path d="M54.6484 115.664L89.0704 120.569L86.9499 120.706L86.4389 120.936L54.6484 115.664Z" fill="black"/>
</g>
<path d="M110.171 106.882L89.9961 104.004L93.1045 124.306L101.152 124.57L110.171 106.882Z" fill="#00B0E9"/>
<path d="M109.592 94.9336C109.592 94.9336 109.013 103.433 109.157 107.265L100.173 123.607L99.2617 107.631L109.592 94.9336Z" fill="#FFF3E0"/>
<path d="M110.171 93.4276L63.5032 89.2207L47.1523 101.986L100.029 108.935L110.171 93.4276Z" fill="#24BEF0"/>
<path d="M100.607 126.837L95.0549 125.969L93.0111 125.654L89.1703 125.058L87.1605 124.742L57.6183 120.135L55.6085 119.829L52.6875 119.369L50.6522 119.054L48.8298 118.773C48.1229 118.662 47.5438 118.16 47.3565 117.47C46.7178 115.162 45.5851 109.49 47.1351 101.996L50.1327 102.337L52.0573 102.558L55.6596 102.967L57.5587 103.188L87.4331 106.62L89.3407 106.833L92.3639 107.182L94.2715 107.404L100.02 108.06C100.02 108.06 99.4577 121.651 100.59 126.854L100.607 126.837Z" fill="#00B0E9"/>
<path d="M95.054 125.968L93.0101 125.652C91.4347 119.189 91.7327 111.345 92.3714 107.164L94.279 107.385C93.6148 111.695 93.4359 119.844 95.0455 125.968H95.054Z" fill="#4ED3FF"/>
<path d="M89.179 125.055L87.1692 124.74C85.8918 118.617 86.4964 111.046 87.4502 106.609L89.3578 106.822C88.387 111.268 87.8334 119.196 89.179 125.055Z" fill="#4ED3FF"/>
<path d="M57.6196 120.133L55.6183 119.827C54.4261 113.857 54.9115 106.925 55.6609 102.965L57.56 103.186C56.8106 107.18 56.3762 114.376 57.6111 120.142L57.6196 120.133Z" fill="#4ED3FF"/>
<path d="M52.7054 119.359L50.6701 119.044C49.316 113.185 49.5204 106.329 50.1421 102.318L52.0667 102.54C51.411 106.687 51.3088 113.789 52.7054 119.359Z" fill="#4ED3FF"/>
<path d="M101.008 124.026C99.5429 118.261 100.803 109.651 101.008 108.382L110.179 94.6881V93.4277L100.037 108.041C100.037 108.041 97.9589 120.236 100.607 126.836L110.171 108.288V106.883L101.008 124.026Z" fill="#4ED3FF"/>
<path d="M43.1094 91.413L50.9442 73.3164L107.048 78.1961L105.132 97.8597C105.132 97.8597 55.628 94.3766 43.1094 91.413Z" fill="#FFA726"/>
<path d="M105.124 97.8607L104.562 106.368C104.519 106.956 104.008 107.39 103.421 107.322L43.6293 100.628C43.1524 100.577 42.7607 100.194 42.7181 99.7087C42.5989 98.4654 42.5648 97.222 42.6074 95.9872C42.65 94.4458 42.8203 92.9214 43.1013 91.4141L105.124 97.8607Z" fill="#FFB74D"/>
<path d="M102.588 104.375L92.8711 103.319L93.3565 98.4219L102.741 99.4183L102.579 104.383L102.588 104.375ZM93.629 102.705L101.924 103.608L102.043 100.023L93.9782 99.1713L93.629 102.697V102.705Z" fill="#FFE0B2"/>
<path d="M91.9227 103.208L81.1328 102.033L81.2946 97.1445L92.5528 98.3368L91.9227 103.216V103.208ZM81.8482 101.42L91.335 102.45L91.7864 98.9414L81.9674 97.9025L81.8482 101.42Z" fill="#FFE0B2"/>
<path d="M77.1832 101.608L44.5156 98.0483L44.6689 93.2793L77.3365 96.7283L77.1747 101.608H77.1832ZM45.231 97.4266L76.5275 100.842L76.6382 97.3415L45.3417 94.0372L45.231 97.4266Z" fill="#FFE0B2"/>
<path d="M109.436 91.1067L75.7299 100.883C75.7299 100.883 75.4829 100.807 75.1252 100.585C73.4902 99.6484 69.4365 96.0972 74.6398 85.9034L109.241 76.8594C109.241 76.8594 109.036 77.5577 108.832 78.6988C108.329 81.3814 107.75 86.5421 109.445 91.0897L109.436 91.1067Z" fill="#FFF3E0"/>
<path d="M75.7299 87.7677C71.3441 95.9091 75.1252 100.593 75.1252 100.593C73.4902 99.6562 69.4365 96.105 74.6398 85.9112L109.241 76.8672C109.241 76.8672 109.036 77.5655 108.832 78.7067L75.7384 87.7592L75.7299 87.7677Z" fill="#FFE0B2"/>
<path d="M108.415 81.7305L90.9062 86.8486L108.347 82.7439L108.415 81.7305Z" fill="#FFE0B2"/>
<path d="M73.6289 97.0602L99.2026 90.4688L73.7481 98.5335L73.6289 97.0602Z" fill="#FFE0B2"/>
<path d="M110.817 75.2077L76.1739 55.2461L41.5391 61.846L74.0193 85.9295L110.817 75.2077Z" fill="#FFC107"/>
<path d="M72.2653 97.3163C72.4441 98.7215 72.7763 100.067 73.2446 101.361L66.6277 95.6302L63.3064 92.7517L60.5727 90.3843L57.5751 87.7869L41.0284 73.4373C41.0284 73.4373 40.0746 72.3047 39.6403 70.3375C39.1804 68.2936 39.2656 65.3556 41.5479 61.8555L61.4499 76.0517L63.9366 77.8231L66.8406 79.901L69.2932 81.6383L73.7471 84.8148C72.2908 89.3538 71.7628 93.5352 72.2653 97.3249V97.3163Z" fill="#FFCA28"/>
<path d="M66.6258 95.6283L63.3045 92.7499C62.9213 90.3654 63.0916 85.9881 66.8302 79.8906L69.2828 81.6279C68.048 83.9102 65.1781 90.0758 66.6258 95.6283Z" fill="#FF9800"/>
<path d="M60.5728 90.3833L57.5751 87.7859C57.3622 85.5803 57.7284 81.4925 61.4414 76.0508L63.9281 77.8221C62.3697 80.3855 59.8574 85.4525 60.5728 90.3918V90.3833Z" fill="#FF9800"/>
<path d="M110.816 91.797L74.4182 102.434L74.0265 102.101C67.1029 96.2254 73.2941 85.5547 73.3537 85.444L73.7369 84.7968L110.816 75.1992V77.3793L74.7248 86.4319C73.6773 88.5183 71.0373 96.004 75.3805 100.202L110.816 90.2641V91.797Z" fill="#FFB300"/>
<path d="M118.499 71.7475L99.6619 62.0137L69.2852 68.3241L81.94 82.6736L118.499 71.7475Z" fill="#48A4FF"/>
<path d="M81.243 83.2633L44.7006 55.5861C44.7006 55.5861 43.5509 52.878 45.6799 49.957L81.9498 74.9602C81.9498 74.9602 80.5958 77.779 81.243 83.2633Z" fill="#3196FF"/>
<path d="M116.093 65.1484C116.093 65.1484 114.372 69.3894 116.093 71.6888L81.1086 81.7207C81.1086 81.7207 80.3421 78.4079 81.7643 75.4444L116.101 65.157L116.093 65.1484Z" fill="#FFF3E0"/>
<path d="M115.637 70.8722L90.9062 77.3614L115.518 70.4805L115.637 70.8722Z" fill="#FFE0B2"/>
<path d="M115.333 68.6055L99.2031 72.9912L115.333 69.3038V68.6055Z" fill="#FFE0B2"/>
<path d="M81.2499 77.6412L94.1432 74.584L81.1562 78.3225L81.2499 77.6412Z" fill="#FFE0B2"/>
<path d="M118.501 65.5569L78.876 44.3945L45.6719 49.9555L81.2349 74.9587C81.2349 74.9587 106.911 69.4658 118.493 65.5569H118.501Z" fill="#48A4FF"/>
<path d="M118.499 73.0423L81.2412 83.2615C81.2412 83.2615 79.5295 80.349 81.2412 74.9584L118.499 65.5566V66.57L81.914 75.6482C81.914 75.6482 80.6536 80.1787 81.914 82.2396L118.499 71.7478V73.0423Z" fill="#2F74DC"/>
<path d="M30.9812 59.9881L71.6198 33.8438L109.167 46.3709L94.3662 58.6936C94.3662 58.6936 92.4586 62.6876 89.4524 63.4967L73.5615 80.12L30.9727 59.9881H30.9812Z" fill="#3196FF"/>
<path d="M107.096 43.4141C92.9083 49.1369 90.6431 55.7879 90.6431 55.7879C86.0529 52.7732 74.3518 71.7385 74.3518 71.7385L73.3555 77.9126C81.2073 68.6642 89.0761 61.4851 89.0761 61.4851C91.4947 56.5543 93.3427 57.6274 93.3427 57.6274C96.1189 54.255 107.709 46.5139 107.709 46.5139L107.088 43.4311L107.096 43.4141Z" fill="#FFE0B2"/>
<path d="M73.4427 81.3969C72.1567 80.8775 72.838 80.5113 73.1361 79.9237L89.538 62.5509L89.7935 62.585C89.7935 62.585 91.7011 62.6872 93.9323 58.4291L94.0004 58.3014L109.159 46.3789L109.006 47.6819C108.972 47.9373 108.852 48.1673 108.665 48.3121L94.0941 59.7151C91.9481 63.7517 89.9298 64.3222 89.1974 64.3989L73.4256 81.4055L73.4427 81.3969Z" fill="#2F74DC"/>
<path d="M72.8462 81.1081L31.1856 61.1209C31.0068 61.0358 30.8961 60.8143 30.9216 60.5844L30.9812 59.9883L73.5615 79.5412L73.4934 80.6227C73.4679 80.9974 73.1357 81.2529 72.8462 81.1081Z" fill="#2F74DC"/>
<path d="M74.3635 71.7314L73.3671 77.9055L33.2139 59.9281C32.9158 59.7919 32.7796 59.4001 32.9073 59.034L34.3295 55.0059L74.355 71.7314H74.3635Z" fill="#FFF3E0"/>
<path d="M107.096 43.415C99.3723 46.5318 95.4464 50.2193 93.4707 52.9444C91.8015 55.2267 91.5205 56.8107 91.5205 56.8107C91.3587 55.1501 89.7406 53.6853 86.8963 52.425C78.9678 48.8993 63.1875 43.0147 57.7969 41.0134C58.0864 40.5791 58.5207 40 59.0913 39.3443C61.1352 37.0279 65.0781 33.6896 71.7973 32.0631C72.2061 31.9609 72.6233 31.9864 73.0151 32.1142L107.096 43.415Z" fill="#FFF3E0"/>
<path d="M91.5213 56.8024C86.9311 53.7963 74.3614 71.7311 74.3614 71.7311L34.3359 55.0056C34.3359 55.0056 35.2216 54.1114 36.6779 52.7744C41.1232 48.7292 50.8997 40.6815 57.2867 41.8568C57.2867 41.8568 57.4485 41.5332 57.7977 41.0137C63.1969 43.0064 78.9771 48.8995 86.8971 52.4252C89.7414 53.6856 91.3595 55.1503 91.5213 56.811V56.8024Z" fill="#FFF3E0"/>
<path d="M91.5221 56.8035C91.4029 56.4969 87.5196 46.3883 74.2601 68.5216L36.6787 52.7669L35.1969 52.1452C34.9329 52.0345 34.8733 51.6342 35.0862 51.4043C37.4111 48.9006 48.0646 38.0256 55.9335 40.3249C55.9335 40.3249 56.6148 40.5719 57.7985 41.0062C63.1977 42.999 78.9779 48.8921 86.8979 52.4177C89.7422 53.6781 91.3603 55.1429 91.5221 56.8035Z" fill="#FFF3E0"/>
<path d="M33.9181 56.1641L50.0646 63.3601L33.6797 56.8368L33.9181 56.1641Z" fill="#FFE0B2"/>
<path d="M107.318 44.4883C107.318 44.4883 96.6904 49.7171 94.1016 54.6054C94.1016 54.6054 97.4824 49.5979 107.395 44.9056L107.31 44.4883H107.318Z" fill="#FFE0B2"/>
<path opacity="0.4" d="M93.4707 52.9361C91.8015 55.2184 91.5205 56.8024 91.5205 56.8024C91.3587 55.1417 89.7406 53.677 86.8963 52.4166C78.9678 48.891 63.1875 43.0064 57.7969 41.0051C58.0864 40.5708 58.5207 39.9917 59.0913 39.3359C70.1452 44.42 89.4085 51.4628 93.4707 52.9361Z" fill="black" fill-opacity="0.1"/>
</svg>
