<svg width="24" height="24" viewBox="0 0 24 24" fill="none" xmlns="http://www.w3.org/2000/svg">
<g id="calendar_month">
<mask id="mask0_2306_176" style="mask-type:alpha" maskUnits="userSpaceOnUse" x="0" y="0" width="24" height="24">
<rect id="Bounding box" width="24" height="24" fill="#D9D9D9"/>
</mask>
<g mask="url(#mask0_2306_176)">
<path id="calendar_month_2" d="M6.55556 19.5556C6.12778 19.5556 5.76157 19.4032 5.45694 19.0986C5.15231 18.794 5 18.4278 5 18L5 7.11111C5 6.68333 5.15231 6.31713 5.45694 6.0125C5.76157 5.70787 6.12778 5.55556 6.55556 5.55556H7.33333V4H8.88889V5.55556L15.1111 5.55556V4H16.6667V5.55556H17.4444C17.8722 5.55556 18.2384 5.70787 18.5431 6.0125C18.8477 6.31713 19 6.68333 19 7.11111V18C19 18.4278 18.8477 18.794 18.5431 19.0986C18.2384 19.4032 17.8722 19.5556 17.4444 19.5556H6.55556ZM6.55556 18H17.4444V10.2222L6.55556 10.2222L6.55556 18ZM6.55556 8.66667L17.4444 8.66667V7.11111L6.55556 7.11111L6.55556 8.66667ZM12 13.3333C11.7796 13.3333 11.5949 13.2588 11.4458 13.1097C11.2968 12.9606 11.2222 12.7759 11.2222 12.5556C11.2222 12.3352 11.2968 12.1505 11.4458 12.0014C11.5949 11.8523 11.7796 11.7778 12 11.7778C12.2204 11.7778 12.4051 11.8523 12.5542 12.0014C12.7032 12.1505 12.7778 12.3352 12.7778 12.5556C12.7778 12.7759 12.7032 12.9606 12.5542 13.1097C12.4051 13.2588 12.2204 13.3333 12 13.3333ZM8.88889 13.3333C8.66852 13.3333 8.4838 13.2588 8.33472 13.1097C8.18565 12.9606 8.11111 12.7759 8.11111 12.5556C8.11111 12.3352 8.18565 12.1505 8.33472 12.0014C8.4838 11.8523 8.66852 11.7778 8.88889 11.7778C9.10926 11.7778 9.29398 11.8523 9.44306 12.0014C9.59213 12.1505 9.66667 12.3352 9.66667 12.5556C9.66667 12.7759 9.59213 12.9606 9.44306 13.1097C9.29398 13.2588 9.10926 13.3333 8.88889 13.3333ZM15.1111 13.3333C14.8907 13.3333 14.706 13.2588 14.5569 13.1097C14.4079 12.9606 14.3333 12.7759 14.3333 12.5556C14.3333 12.3352 14.4079 12.1505 14.5569 12.0014C14.706 11.8523 14.8907 11.7778 15.1111 11.7778C15.3315 11.7778 15.5162 11.8523 15.6653 12.0014C15.8144 12.1505 15.8889 12.3352 15.8889 12.5556C15.8889 12.7759 15.8144 12.9606 15.6653 13.1097C15.5162 13.2588 15.3315 13.3333 15.1111 13.3333ZM12 16.4444C11.7796 16.4444 11.5949 16.3699 11.4458 16.2208C11.2968 16.0718 11.2222 15.887 11.2222 15.6667C11.2222 15.4463 11.2968 15.2616 11.4458 15.1125C11.5949 14.9634 11.7796 14.8889 12 14.8889C12.2204 14.8889 12.4051 14.9634 12.5542 15.1125C12.7032 15.2616 12.7778 15.4463 12.7778 15.6667C12.7778 15.887 12.7032 16.0718 12.5542 16.2208C12.4051 16.3699 12.2204 16.4444 12 16.4444ZM8.88889 16.4444C8.66852 16.4444 8.4838 16.3699 8.33472 16.2208C8.18565 16.0718 8.11111 15.887 8.11111 15.6667C8.11111 15.4463 8.18565 15.2616 8.33472 15.1125C8.4838 14.9634 8.66852 14.8889 8.88889 14.8889C9.10926 14.8889 9.29398 14.9634 9.44306 15.1125C9.59213 15.2616 9.66667 15.4463 9.66667 15.6667C9.66667 15.887 9.59213 16.0718 9.44306 16.2208C9.29398 16.3699 9.10926 16.4444 8.88889 16.4444ZM15.1111 16.4444C14.8907 16.4444 14.706 16.3699 14.5569 16.2208C14.4079 16.0718 14.3333 15.887 14.3333 15.6667C14.3333 15.4463 14.4079 15.2616 14.5569 15.1125C14.706 14.9634 14.8907 14.8889 15.1111 14.8889C15.3315 14.8889 15.5162 14.9634 15.6653 15.1125C15.8144 15.2616 15.8889 15.4463 15.8889 15.6667C15.8889 15.887 15.8144 16.0718 15.6653 16.2208C15.5162 16.3699 15.3315 16.4444 15.1111 16.4444Z" fill="#9E9E9E"/>
</g>
</g>
</svg>
