<svg width="32" height="32" viewBox="0 0 32 32" fill="none" xmlns="http://www.w3.org/2000/svg">
<g id="keyboard_arrow_left">
<mask id="mask0_266_9910" style="mask-type:alpha" maskUnits="userSpaceOnUse" x="0" y="0" width="32" height="32">
<rect id="Bounding box" width="32" height="32" fill="#D9D9D9"/>
</mask>
<g mask="url(#mask0_266_9910)">
<path id="keyboard_arrow_left_2" d="M15.1667 15.4333L20.3667 20.6333C20.6111 20.8778 20.7333 21.1889 20.7333 21.5667C20.7333 21.9444 20.6111 22.2556 20.3667 22.5C20.1222 22.7444 19.8111 22.8667 19.4333 22.8667C19.0556 22.8667 18.7444 22.7444 18.5 22.5L12.3667 16.3667C12.2333 16.2333 12.1389 16.0889 12.0833 15.9333C12.0278 15.7778 12 15.6111 12 15.4333C12 15.2556 12.0278 15.0889 12.0833 14.9333C12.1389 14.7778 12.2333 14.6333 12.3667 14.5L18.5 8.36667C18.7444 8.12222 19.0556 8 19.4333 8C19.8111 8 20.1222 8.12222 20.3667 8.36667C20.6111 8.61111 20.7333 8.92222 20.7333 9.3C20.7333 9.67778 20.6111 9.98889 20.3667 10.2333L15.1667 15.4333Z" fill="#424242"/>
</g>
</g>
</svg>
