<svg width="32" height="32" viewBox="0 0 32 32" fill="none" xmlns="http://www.w3.org/2000/svg">
<g id="keyboard_arrow_right">
<mask id="mask0_266_9912" style="mask-type:alpha" maskUnits="userSpaceOnUse" x="0" y="0" width="32" height="32">
<rect id="Bounding box" width="32" height="32" fill="#D9D9D9"/>
</mask>
<g mask="url(#mask0_266_9912)">
<path id="keyboard_arrow_right_2" d="M17.5667 15.4333L12.3667 10.2333C12.1222 9.98889 12 9.67778 12 9.3C12 8.92222 12.1222 8.61111 12.3667 8.36667C12.6111 8.12222 12.9222 8 13.3 8C13.6778 8 13.9889 8.12222 14.2333 8.36667L20.3667 14.5C20.5 14.6333 20.5944 14.7778 20.65 14.9333C20.7056 15.0889 20.7333 15.2556 20.7333 15.4333C20.7333 15.6111 20.7056 15.7778 20.65 15.9333C20.5944 16.0889 20.5 16.2333 20.3667 16.3667L14.2333 22.5C13.9889 22.7444 13.6778 22.8667 13.3 22.8667C12.9222 22.8667 12.6111 22.7444 12.3667 22.5C12.1222 22.2556 12 21.9444 12 21.5667C12 21.1889 12.1222 20.8778 12.3667 20.6333L17.5667 15.4333Z" fill="#424242"/>
</g>
</g>
</svg>
