<svg width="26" height="31" viewBox="0 0 26 31" fill="none" xmlns="http://www.w3.org/2000/svg">
<g id="Group 21011">
<g id="Group 20032">
<path id="Vector 1" d="M17.9544 30.8719L13.2305 22.6211L18.8054 19.4293L23.5293 27.6801L19.2771 26.7176L17.9544 30.8719Z" fill="#3196FF"/>
<g id="Mask group">
<mask id="mask0_11329_15330" style="mask-type:alpha" maskUnits="userSpaceOnUse" x="13" y="19" width="11" height="12">
<path id="Vector 2" d="M17.9544 30.8719L13.2305 22.6211L18.8054 19.4293L23.5293 27.6801L19.2771 26.7176L17.9544 30.8719Z" fill="#3196FF"/>
</mask>
<g mask="url(#mask0_11329_15330)">
<rect id="Rectangle 6" x="14.8242" y="21.709" width="2.88423" height="8.79602" transform="rotate(-29.7927 14.8242 21.709)" fill="white"/>
</g>
</g>
</g>
<g id="Group 9">
<path id="Star 7" d="M11.654 1.90825C12.2923 1.22234 13.3786 1.22234 14.0169 1.90825L15.9045 3.93676C16.2236 4.27964 16.6759 4.46698 17.144 4.45015L19.9131 4.35057C20.8495 4.3169 21.6176 5.08502 21.5839 6.02137L21.4844 8.79054C21.4675 9.25861 21.6549 9.7109 21.9977 10.03L24.0263 11.9177C24.7122 12.5559 24.7122 13.6422 24.0263 14.2805L21.9977 16.1682C21.6549 16.4873 21.4675 16.9396 21.4844 17.4076L21.5839 20.1768C21.6176 21.1132 20.8495 21.8813 19.9131 21.8476L17.144 21.748C16.6759 21.7312 16.2236 21.9185 15.9045 22.2614L14.0168 24.2899C13.3786 24.9758 12.2923 24.9758 11.654 24.2899L9.7663 22.2614C9.44723 21.9185 8.99494 21.7312 8.52687 21.748L5.7577 21.8476C4.82135 21.8813 4.05322 21.1132 4.0869 20.1768L4.18648 17.4076C4.20331 16.9396 4.01597 16.4873 3.67309 16.1682L1.64458 14.2805C0.958666 13.6422 0.958666 12.5559 1.64458 11.9177L3.67309 10.03C4.01597 9.7109 4.20331 9.25861 4.18648 8.79054L4.0869 6.02137C4.05322 5.08502 4.82135 4.3169 5.7577 4.35057L8.52687 4.45015C8.99494 4.46698 9.44723 4.27964 9.7663 3.93676L11.654 1.90825Z" fill="#FFD54F"/>
<circle id="Ellipse 11" cx="12.8389" cy="13.0987" r="7.17141" stroke="#FFB300" stroke-width="0.985253"/>
<path id="Star 8" d="M12.2399 9.33183C12.5029 8.73154 13.3545 8.73154 13.6175 9.33183L14.1824 10.6212C14.2915 10.8702 14.5265 11.041 14.7971 11.0678L16.198 11.2066C16.8501 11.2713 17.1133 12.0812 16.6236 12.5168L15.5719 13.4526C15.3688 13.6333 15.2791 13.9095 15.3372 14.1751L15.638 15.5503C15.7781 16.1906 15.0891 16.6911 14.5235 16.3601L13.3085 15.649C13.0739 15.5117 12.7835 15.5117 12.5488 15.649L11.3339 16.3601C10.7682 16.6911 10.0793 16.1906 10.2194 15.5503L10.5202 14.1751C10.5783 13.9095 10.4886 13.6333 10.2854 13.4526L9.23372 12.5168C8.74409 12.0812 9.00724 11.2713 9.65943 11.2066L11.0603 11.0678C11.3308 11.041 11.5658 10.8702 11.6749 10.6212L12.2399 9.33183Z" fill="#FFB300"/>
</g>
</g>
</svg>
