<svg width="29" height="26" viewBox="0 0 29 26" fill="none" xmlns="http://www.w3.org/2000/svg">
<g id="Group 21027">
<path id="Vector" d="M25.245 19.7904C27.1148 19.7904 28.6306 18.2695 28.6306 16.3933C28.6306 14.5171 27.1148 12.9961 25.245 12.9961C23.3752 12.9961 21.8594 14.5171 21.8594 16.3933C21.8594 18.2695 23.3752 19.7904 25.245 19.7904Z" fill="#F9C19B"/>
<path id="Vector_2" d="M4.30359 19.7904C6.17342 19.7904 7.68921 18.2695 7.68921 16.3933C7.68921 14.5171 6.17342 12.9961 4.30359 12.9961C2.43376 12.9961 0.917969 14.5171 0.917969 16.3933C0.917969 18.2695 2.43376 19.7904 4.30359 19.7904Z" fill="#F9C19B"/>
<path id="Vector_3" d="M26.0613 14.31C26.0613 20.5454 21.0083 25.5984 14.7729 25.5984C8.5374 25.5984 3.48438 20.5431 3.48438 14.31C3.48438 8.07682 8.5374 3.02148 14.7729 3.02148C21.0083 3.02148 26.0613 8.07451 26.0613 14.31Z" fill="#FFD5AB"/>
<path id="Vector_4" d="M10.2699 15.4874C10.2699 16.2611 9.66248 16.8869 8.91423 16.8869C8.16597 16.8869 7.55859 16.2611 7.55859 15.4874C7.55859 14.7137 8.16597 14.0879 8.91423 14.0879C9.66248 14.0879 10.2699 14.7137 10.2699 15.4874Z" fill="#442106"/>
<path id="Vector_5" d="M19.2812 15.4874C19.2812 16.2611 19.8886 16.8869 20.6369 16.8869C21.3851 16.8869 21.9902 16.2611 21.9902 15.4874C21.9902 14.7137 21.3828 14.0879 20.6369 14.0879C19.8909 14.0879 19.2812 14.7137 19.2812 15.4874Z" fill="#442106"/>
<path id="Vector_6" d="M17.141 19.3729C16.9008 19.3174 16.6537 19.4699 16.5983 19.7101C16.5867 19.7586 16.2958 20.9271 14.7738 20.9271C13.3466 20.9271 12.984 19.8232 12.9471 19.6985C12.894 19.4999 12.7138 19.3613 12.5106 19.3613C12.4713 19.3613 12.4321 19.3659 12.3928 19.3775C12.1526 19.4422 12.0095 19.6893 12.0741 19.9294C12.2496 20.5876 13.0418 21.8301 14.7738 21.8301C16.5059 21.8301 17.3211 20.5784 17.4759 19.9156C17.5336 19.6731 17.3812 19.4306 17.1387 19.3729H17.141Z" fill="#935D4A"/>
<path id="Vector_7" d="M14.7763 7.04949C16.1458 7.04949 17.259 5.93635 17.259 4.56686C17.259 4.22737 17.1897 3.89712 17.0534 3.58304C17.0534 3.57842 17.0511 3.5738 17.0488 3.56919C16.0211 1.0011 16.6446 0.409889 16.6446 0.409889C16.7347 0.342916 16.7647 0.220516 16.7116 0.121211C16.6585 0.0219057 16.5407 -0.0242828 16.4345 0.012668C12.4992 1.41911 12.3145 4.12807 12.3075 4.24123C12.3075 4.25278 12.3075 4.26432 12.3075 4.27587C12.2937 4.3821 12.2891 4.47448 12.2891 4.56455C12.2891 5.93404 13.4022 7.04718 14.7717 7.04718L14.7763 7.04949Z" fill="#59351C"/>
</g>
</svg>
