<svg width="32" height="32" viewBox="0 0 32 32" fill="none" xmlns="http://www.w3.org/2000/svg">
<rect x="4.80078" y="4.80078" width="22.4" height="22.4" rx="11.2" fill="#3196FF"/>
<path fill-rule="evenodd" clip-rule="evenodd" d="M11.9956 10.5556C11.5855 10.1455 10.9207 10.1455 10.5107 10.5556C10.1006 10.9656 10.1006 11.6305 10.5107 12.0405L14.5149 16.0448L10.5996 19.9601C10.1895 20.3702 10.1895 21.035 10.5996 21.445C11.0096 21.8551 11.6744 21.8551 12.0845 21.445L15.9998 17.5297L19.9152 21.445C20.3252 21.8551 20.9901 21.8551 21.4001 21.445C21.8102 21.035 21.8102 20.3702 21.4001 19.9601L17.4848 16.0448L21.489 12.0405C21.8991 11.6305 21.8991 10.9656 21.489 10.5556C21.079 10.1455 20.4141 10.1455 20.0041 10.5556L15.9998 14.5598L11.9956 10.5556Z" fill="white"/>
</svg>
