<svg width="32" height="32" viewBox="0 0 32 32" fill="none" xmlns="http://www.w3.org/2000/svg">
<g id="&#236;&#182;&#148;&#234;&#176;&#128;&#237;&#142;&#152;&#236;&#157;&#180;&#236;&#167;&#128;/&#236;&#139;&#172;&#235;&#166;&#172; &#236;&#151;&#176;&#234;&#181;&#172;">
<path id="Vector" d="M19.1612 24.659C18.4355 25.1565 17.6507 25.6598 16.8023 26.1667C16.127 26.5702 15.2804 26.5524 14.6237 26.1192C13.3081 25.2517 10.9921 23.6218 8.82425 21.5838L8.82317 21.5829C6.03549 18.962 3.75567 15.6683 3.89948 12.451C3.93281 9.08002 6.42969 6.37218 9.80074 6.40556C13.1723 6.43892 15.8776 9.19889 15.8442 12.5698C15.8725 9.70604 17.8687 7.32216 20.5363 6.69019L20.5371 6.69011C20.5628 6.6841 20.5885 6.67833 20.6139 6.67246C20.6261 6.66979 20.6382 6.66698 20.6502 6.6645C21.0878 6.5696 21.5427 6.52171 22.0092 6.52631C25.3802 6.55965 27.8231 9.31778 27.7898 12.6887C27.7898 12.6887 28.6041 18.1857 19.1612 24.659Z" fill="#FF6060"/>
<path id="Vector_2" d="M20.5392 9.64752C20.5623 9.63541 20.586 9.6246 20.6097 9.61389C20.6369 9.60168 20.6643 9.5904 20.6917 9.57875C20.735 9.56031 20.5726 9.62547 20.6618 9.591C20.6828 9.58292 20.7039 9.57497 20.7251 9.5673C20.9549 9.4839 21.1934 9.42377 21.4349 9.38632C21.472 9.38056 21.509 9.3756 21.546 9.37075C21.6233 9.36053 21.4648 9.37896 21.5188 9.37385C21.5417 9.3717 21.5647 9.3692 21.5877 9.36708C21.669 9.35992 21.7506 9.35532 21.8321 9.35356C22.0146 9.34957 22.1973 9.35927 22.3783 9.38342C22.4128 9.38804 22.4749 9.41144 22.3692 9.38155C22.3904 9.38756 22.4137 9.38877 22.4354 9.39267C22.4859 9.40167 22.5362 9.41175 22.5862 9.423C22.6871 9.44562 22.7871 9.47292 22.8855 9.50478C22.9352 9.52081 22.9846 9.53791 23.0335 9.55617C23.0569 9.56491 23.0802 9.57394 23.1036 9.58321C23.1291 9.59335 23.231 9.64097 23.1258 9.59113C23.2274 9.63931 23.3289 9.68572 23.4274 9.74035C23.5473 9.80686 23.6635 9.88002 23.7756 9.95905C23.8026 9.97807 23.8294 9.99746 23.856 10.0172C23.868 10.0261 23.8798 10.0351 23.8917 10.044C23.8971 10.0404 23.9601 10.096 23.8917 10.044C23.903 10.0367 24.0547 10.18 24.0697 10.1932C24.1871 10.2972 24.2989 10.4074 24.4053 10.5225C24.465 10.5872 24.5232 10.6533 24.5797 10.7208C24.6089 10.7558 24.6378 10.7911 24.6662 10.8267C24.6777 10.8411 24.6893 10.8557 24.7006 10.8704C24.7122 10.8852 24.7643 10.9537 24.7136 10.8865C24.772 10.9639 24.8269 11.024 24.924 11.052C25.0087 11.0765 25.1221 11.0671 25.1981 11.0195C25.3437 10.9278 25.4508 10.6938 25.3311 10.5351C24.9493 10.0289 24.5087 9.57495 23.9691 9.23549C23.5729 8.98627 23.1259 8.80281 22.6654 8.71615C21.9869 8.58852 21.2763 8.63213 20.6212 8.85427C20.4745 8.90398 20.3254 8.95821 20.1878 9.0303C20.0232 9.11656 19.9552 9.35622 20.0549 9.51469C20.1602 9.68222 20.3628 9.73992 20.5392 9.64752Z" fill="white"/>
<path id="Vector_3" d="M25.1532 12.085C25.1573 12.0936 25.1609 12.1024 25.1648 12.111C25.1972 12.1845 25.1311 12.0197 25.1588 12.0959C25.1888 12.1782 25.2164 12.2609 25.2387 12.3456C25.2527 12.3983 25.2649 12.4514 25.2751 12.505C25.2802 12.5315 25.2849 12.5582 25.289 12.5849C25.2919 12.6032 25.2945 12.6217 25.2969 12.6401C25.2922 12.5972 25.2911 12.5892 25.2938 12.6162C25.3018 12.7524 25.3044 12.8845 25.2854 13.0201C25.2596 13.2047 25.4572 13.3869 25.6332 13.3825C25.8447 13.3773 25.968 13.2322 25.9956 13.0347C26.0563 12.6007 25.9555 12.1288 25.7704 11.7335C25.6914 11.565 25.4394 11.5041 25.286 11.6006C25.1125 11.7096 25.0685 11.9044 25.153 12.0849L25.1532 12.085Z" fill="white"/>
</g>
</svg>
