<svg width="22" height="21" viewBox="0 0 22 21" fill="none" xmlns="http://www.w3.org/2000/svg">
<g id="Layer_1" clip-path="url(#clip0_11329_17152)">
<path id="Vector" d="M1.32178 2.96364C1.15014 2.86899 0.94001 2.9819 0.92397 3.18282C0.174875 12.7956 8.98757 10.3961 10.8162 13.1775C12.563 3.86862 4.02943 4.4498 1.32178 2.96364ZM4.05509 6.67157C4.05509 6.67157 9.29555 7.08504 10.89 12.4518C8.98917 8.24408 4.05509 6.67157 4.05509 6.67157Z" fill="#81C784"/>
<path id="Vector_2" d="M21.0708 1.0447C21.0515 0.747471 20.7275 0.58142 20.4885 0.747471C19.8838 1.16758 18.716 1.86002 16.7591 2.59895C11.2748 4.33253 10.6155 8.95042 10.6925 11.4727C10.7118 12.0988 10.699 12.7231 10.6717 13.3475C10.5786 15.4381 10.4198 17.7545 10.0156 20.1672L11.4448 20.2751C11.416 17.5237 11.3903 14.9316 11.5154 12.8061C11.5234 12.6567 11.6117 12.5255 11.7416 12.4624C14.5695 11.0792 21.7589 12.132 21.0708 1.0447ZM11.9373 11.1058C11.9373 11.1058 13.0762 4.98511 19.5405 3.06555C14.3835 5.465 11.9373 11.1058 11.9373 11.1058Z" fill="#4CAF50"/>
<path id="Vector_3" d="M11.1457 20.4811H3.64195C3.42701 20.4811 3.2666 20.2635 3.33718 20.0543C3.86331 18.5167 7.18211 17.3145 11.1457 17.3145C15.1094 17.3145 18.4282 18.515 18.9543 20.0543C19.0265 20.2635 18.8645 20.4811 18.6495 20.4811H11.1457Z" fill="#795F23"/>
</g>
<defs>
<clipPath id="clip0_11329_17152">
<rect width="20.24" height="19.8" fill="white" transform="translate(0.878906 0.681641)"/>
</clipPath>
</defs>
</svg>
